<?xml version="1.0" encoding="UTF-8"?>
<svg xmlns="http://www.w3.org/2000/svg" xmlns:xlink="http://www.w3.org/1999/xlink" width="px" height="px" viewBox="0 0 157 158" version="1.1">
<g id="surface1">
<path style=" stroke:none;fill-rule:nonzero;fill:rgb(14.509805%,18.82353%,21.176471%);fill-opacity:1;" d="M 8.355469 14.914062 C 8.355469 11.382812 11.226562 8.519531 14.769531 8.519531 L 66.09375 8.519531 C 69.636719 8.519531 72.507812 11.382812 72.507812 14.914062 L 72.507812 121.75 C 72.507812 125.28125 69.636719 128.144531 66.09375 128.144531 L 14.769531 128.144531 C 11.226562 128.144531 8.355469 125.28125 8.355469 121.75 Z M 8.355469 14.914062 "/>
<path style=" stroke:none;fill-rule:nonzero;fill:rgb(45.882353%,61.56863%,96.078432%);fill-opacity:1;" d="M 70.242188 115.910156 L 70.242188 16.617188 C 70.242188 14.015625 68.125 11.902344 65.515625 11.90625 L 50.03125 11.90625 C 49.589844 11.90625 49.238281 12.257812 49.238281 12.699219 C 49.234375 14.742188 47.570312 16.398438 45.519531 16.398438 L 35.34375 16.398438 C 33.292969 16.398438 31.628906 14.742188 31.625 12.699219 C 31.625 12.257812 31.273438 11.90625 30.832031 11.90625 L 15.347656 11.90625 C 12.734375 11.902344 10.617188 14.015625 10.621094 16.617188 L 10.621094 115.910156 C 10.617188 118.511719 12.734375 120.621094 15.347656 120.621094 L 65.515625 120.621094 C 68.125 120.621094 70.242188 118.511719 70.242188 115.910156 M 70.242188 115.910156 "/>
<path style=" stroke:none;fill-rule:nonzero;fill:rgb(24.313726%,46.666667%,95.686275%);fill-opacity:1;" d="M 24.898438 104.613281 C 24.898438 100.246094 28.453125 96.703125 32.832031 96.703125 L 48.238281 96.703125 C 52.617188 96.703125 56.171875 100.246094 56.171875 104.613281 C 56.171875 108.980469 52.621094 112.523438 48.238281 112.523438 L 32.832031 112.523438 C 28.453125 112.523438 24.898438 108.984375 24.898438 104.613281 M 24.898438 104.613281 "/>
<path style=" stroke:none;fill-rule:evenodd;fill:rgb(14.509805%,18.82353%,21.176471%);fill-opacity:1;" d="M 48.238281 97.039062 L 32.832031 97.039062 C 28.640625 97.039062 25.234375 100.433594 25.234375 104.613281 C 25.234375 108.792969 28.640625 112.1875 32.832031 112.1875 L 48.238281 112.1875 C 52.433594 112.1875 55.835938 108.796875 55.835938 104.613281 C 55.835938 100.433594 52.433594 97.039062 48.238281 97.039062 M 32.832031 96.703125 C 28.453125 96.703125 24.898438 100.246094 24.898438 104.613281 C 24.898438 108.980469 28.453125 112.523438 32.832031 112.523438 L 48.238281 112.523438 C 52.617188 112.523438 56.171875 108.984375 56.171875 104.613281 C 56.171875 100.246094 52.621094 96.703125 48.238281 96.703125 Z M 32.832031 96.703125 "/>
<path style=" stroke:none;fill-rule:evenodd;fill:rgb(94.901961%,94.901961%,94.901961%);fill-opacity:1;" d="M 33.089844 99.394531 C 33.089844 99.257812 33.199219 99.144531 33.339844 99.144531 L 36.722656 99.144531 L 37.007812 100.632812 L 39.105469 100.632812 C 39.246094 100.632812 39.359375 100.742188 39.359375 100.882812 C 39.359375 100.949219 39.332031 101.015625 39.285156 101.0625 C 39.238281 101.109375 39.171875 101.136719 39.105469 101.132812 L 37.113281 101.132812 L 38.160156 105.980469 L 43.445312 105.980469 L 44.539062 101.234375 C 44.546875 101.183594 44.507812 101.132812 44.457031 101.132812 L 42.851562 101.132812 C 42.785156 101.136719 42.722656 101.109375 42.675781 101.0625 C 42.625 101.015625 42.601562 100.949219 42.601562 100.882812 C 42.601562 100.742188 42.714844 100.632812 42.851562 100.632812 L 44.457031 100.632812 C 44.832031 100.632812 45.109375 100.976562 45.03125 101.339844 L 44.023438 106.023438 C 43.964844 106.292969 43.726562 106.488281 43.445312 106.488281 L 38.25 106.488281 L 38.457031 107.765625 L 44.296875 107.765625 C 44.433594 107.765625 44.546875 107.878906 44.550781 108.015625 C 44.550781 108.15625 44.4375 108.269531 44.296875 108.269531 L 38.027344 108.269531 L 37.703125 106.28125 L 36.550781 100.933594 L 36.304688 99.648438 L 33.339844 99.648438 C 33.273438 99.648438 33.207031 99.621094 33.160156 99.574219 C 33.113281 99.527344 33.085938 99.464844 33.089844 99.394531 M 40.824219 99.144531 C 40.964844 99.144531 41.078125 99.257812 41.078125 99.394531 L 41.078125 103.480469 L 42.554688 102.425781 C 42.667969 102.347656 42.824219 102.375 42.90625 102.484375 C 42.988281 102.597656 42.960938 102.757812 42.847656 102.839844 L 40.8125 104.289062 L 39.054688 102.828125 C 39 102.785156 38.96875 102.722656 38.964844 102.65625 C 38.957031 102.589844 38.976562 102.523438 39.023438 102.472656 C 39.113281 102.367188 39.269531 102.351562 39.375 102.4375 L 40.570312 103.429688 L 40.570312 99.394531 C 40.570312 99.257812 40.683594 99.144531 40.824219 99.144531 M 40.824219 99.144531 "/>
<path style=" stroke:none;fill-rule:nonzero;fill:rgb(94.901961%,94.901961%,94.901961%);fill-opacity:1;" d="M 39.828125 109.457031 C 39.828125 109.851562 39.503906 110.171875 39.105469 110.171875 C 38.84375 110.183594 38.589844 110.050781 38.457031 109.824219 C 38.320312 109.597656 38.320312 109.3125 38.457031 109.085938 C 38.589844 108.859375 38.84375 108.722656 39.105469 108.734375 C 39.503906 108.734375 39.828125 109.058594 39.828125 109.453125 M 43.433594 109.457031 C 43.441406 109.71875 43.304688 109.964844 43.078125 110.097656 C 42.851562 110.230469 42.566406 110.230469 42.34375 110.09375 C 42.117188 109.960938 41.980469 109.714844 41.992188 109.453125 C 42.003906 109.0625 42.324219 108.757812 42.714844 108.757812 C 43.101562 108.757812 43.421875 109.066406 43.433594 109.457031 M 16.460938 29.050781 C 16.460938 27.191406 17.96875 25.6875 19.832031 25.683594 L 61.03125 25.683594 C 62.894531 25.6875 64.40625 27.191406 64.402344 29.050781 L 64.402344 65.066406 C 64.402344 66.921875 62.894531 68.429688 61.03125 68.433594 L 19.832031 68.433594 C 17.96875 68.429688 16.460938 66.921875 16.460938 65.066406 Z M 16.460938 29.050781 "/>
<path style=" stroke:none;fill-rule:nonzero;fill:rgb(14.509805%,18.82353%,21.176471%);fill-opacity:1;" d="M 18.804688 82.714844 C 18.835938 82.628906 18.917969 82.570312 19.011719 82.570312 C 19.105469 82.570312 19.191406 82.628906 19.222656 82.714844 L 19.75 84.074219 C 19.78125 84.15625 19.855469 84.214844 19.941406 84.222656 L 21.355469 84.316406 C 21.558594 84.328125 21.644531 84.59375 21.484375 84.730469 L 20.394531 85.664062 L 20.671875 87.320312 C 20.722656 87.53125 20.503906 87.691406 20.328125 87.578125 L 19.136719 86.796875 L 17.695312 87.578125 C 17.523438 87.691406 17.304688 87.53125 17.355469 87.320312 L 17.703125 85.902344 L 16.542969 84.730469 C 16.382812 84.59375 16.464844 84.328125 16.671875 84.316406 L 18.082031 84.222656 Z M 25.375 82.714844 C 25.410156 82.628906 25.492188 82.570312 25.585938 82.570312 C 25.679688 82.570312 25.765625 82.628906 25.796875 82.714844 L 26.320312 84.074219 C 26.355469 84.15625 26.429688 84.214844 26.515625 84.222656 L 27.929688 84.316406 C 28.132812 84.328125 28.21875 84.59375 28.058594 84.730469 L 26.96875 85.664062 L 27.246094 87.320312 C 27.296875 87.53125 27.074219 87.691406 26.902344 87.578125 L 25.707031 86.796875 L 24.265625 87.578125 C 24.09375 87.691406 23.875 87.53125 23.925781 87.320312 L 24.277344 85.902344 L 23.113281 84.730469 C 22.957031 84.59375 23.039062 84.328125 23.242188 84.316406 L 24.65625 84.222656 Z M 31.949219 82.714844 C 31.980469 82.628906 32.066406 82.570312 32.160156 82.570312 C 32.253906 82.570312 32.335938 82.628906 32.367188 82.714844 L 32.894531 84.074219 C 32.925781 84.15625 33.003906 84.214844 33.089844 84.222656 L 34.503906 84.316406 C 34.707031 84.328125 34.789062 84.59375 34.632812 84.730469 L 33.542969 85.664062 L 33.820312 87.320312 C 33.871094 87.53125 33.648438 87.691406 33.476562 87.578125 L 32.28125 86.796875 L 30.839844 87.578125 C 30.667969 87.691406 30.449219 87.53125 30.5 87.320312 L 30.847656 85.902344 L 29.6875 84.730469 C 29.53125 84.59375 29.613281 84.328125 29.816406 84.316406 L 31.226562 84.222656 Z M 38.523438 82.714844 C 38.554688 82.628906 38.640625 82.570312 38.730469 82.570312 C 38.824219 82.570312 38.910156 82.628906 38.941406 82.714844 L 39.46875 84.074219 C 39.5 84.15625 39.574219 84.214844 39.660156 84.222656 L 41.074219 84.316406 C 41.277344 84.328125 41.363281 84.59375 41.203125 84.730469 L 40.117188 85.664062 L 40.390625 87.320312 C 40.441406 87.53125 40.222656 87.691406 40.046875 87.578125 L 38.855469 86.796875 L 37.414062 87.578125 C 37.242188 87.691406 37.023438 87.53125 37.074219 87.320312 L 37.421875 85.902344 L 36.257812 84.730469 C 36.101562 84.59375 36.183594 84.328125 36.390625 84.316406 L 37.800781 84.222656 Z M 29.503906 40.730469 C 29.503906 41.53125 26.585938 47.007812 25.269531 49.285156 C 24.890625 49.941406 24.84375 51.140625 24.976562 52.535156 C 26.226562 53.152344 28.171875 53.914062 30.074219 54.75 C 37.074219 56.214844 49.699219 56.101562 55.996094 53.605469 C 56.050781 51.367188 55.765625 46.503906 54.164062 44.953125 L 54.164062 37.253906 C 54.164062 37.824219 58.433594 47.0625 57.613281 52.824219 C 56.957031 54.066406 55.710938 55.667969 53.648438 56.8125 C 50.671875 58.464844 40.542969 58.628906 35.855469 58.503906 C 35.953125 58.761719 35.957031 59.015625 35.855469 59.269531 C 34.710938 62.0625 34.367188 59.496094 31.734375 58.242188 C 29.765625 57.300781 27.0625 56.554688 25.511719 55.855469 C 24.988281 55.621094 24.597656 55.390625 24.410156 55.160156 C 24.066406 54.433594 23.71875 52.621094 23.523438 51.398438 C 23.453125 51.199219 23.421875 50.984375 23.429688 50.769531 C 23.453125 49.148438 25.175781 46.574219 26.585938 43.8125 C 27.957031 41.121094 28.835938 37.40625 29.105469 35.882812 Z M 29.503906 40.730469 "/>
<path style=" stroke:none;fill-rule:nonzero;fill:rgb(45.882353%,61.56863%,96.078432%);fill-opacity:1;" d="M 28.703125 34.34375 C 28.703125 33.648438 29.265625 33.089844 29.960938 33.089844 L 53.53125 33.089844 C 54.226562 33.089844 54.789062 33.648438 54.789062 34.34375 L 54.789062 52.140625 C 54.789062 52.828125 54.226562 53.394531 53.53125 53.394531 L 29.960938 53.394531 C 29.265625 53.390625 28.703125 52.832031 28.703125 52.140625 Z M 28.703125 34.34375 "/>
<path style=" stroke:none;fill-rule:nonzero;fill:rgb(24.313726%,46.666667%,95.686275%);fill-opacity:1;" d="M 53.445312 33.089844 L 29.871094 33.089844 C 29.175781 33.089844 28.613281 33.648438 28.613281 34.34375 L 28.019531 42.15625 C 28 42.4375 28.097656 42.710938 28.289062 42.917969 C 28.480469 43.125 28.75 43.242188 29.03125 43.242188 L 54.285156 43.242188 C 54.875 43.242188 55.339844 42.742188 55.296875 42.15625 L 54.703125 34.34375 C 54.703125 33.648438 54.140625 33.089844 53.445312 33.089844 M 53.445312 33.089844 "/>
<path style=" stroke:none;fill-rule:evenodd;fill:rgb(14.509805%,18.82353%,21.176471%);fill-opacity:1;" d="M 28.863281 43.242188 C 28.863281 43.148438 28.9375 43.070312 29.03125 43.070312 L 54.285156 43.070312 C 54.378906 43.070312 54.453125 43.148438 54.453125 43.242188 L 29.03125 43.40625 M 28.863281 43.242188 "/>
<path style=" stroke:none;fill-rule:nonzero;fill:rgb(14.509805%,18.82353%,21.176471%);fill-opacity:1;" d="M 31.992188 40.160156 C 31.992188 39.972656 32.140625 39.820312 32.328125 39.820312 L 33.679688 39.820312 C 33.867188 39.820312 34.015625 39.972656 34.015625 40.160156 L 34.015625 45.207031 C 34.015625 45.390625 33.867188 45.542969 33.675781 45.542969 L 32.328125 45.542969 C 32.140625 45.542969 31.992188 45.394531 31.992188 45.207031 Z M 49.546875 40.160156 C 49.546875 39.972656 49.699219 39.820312 49.882812 39.820312 L 51.238281 39.820312 C 51.421875 39.820312 51.574219 39.972656 51.574219 40.160156 L 51.574219 45.207031 C 51.574219 45.390625 51.421875 45.542969 51.238281 45.542969 L 49.882812 45.542969 C 49.699219 45.542969 49.546875 45.394531 49.546875 45.207031 Z M 49.546875 40.160156 "/>
<path style=" stroke:none;fill-rule:nonzero;fill:rgb(94.901961%,94.901961%,94.901961%);fill-opacity:1;" d="M 31.652344 42.511719 C 31.652344 42.140625 31.957031 41.839844 32.328125 41.839844 L 33.679688 41.839844 C 34.050781 41.839844 34.351562 42.140625 34.351562 42.511719 L 34.351562 43.1875 C 34.355469 43.558594 34.050781 43.859375 33.679688 43.859375 L 32.328125 43.859375 C 32.148438 43.859375 31.976562 43.789062 31.851562 43.664062 C 31.722656 43.535156 31.652344 43.363281 31.652344 43.1875 Z M 49.210938 42.511719 C 49.210938 42.140625 49.511719 41.839844 49.882812 41.839844 L 51.238281 41.839844 C 51.609375 41.839844 51.914062 42.140625 51.914062 42.511719 L 51.914062 43.1875 C 51.914062 43.558594 51.609375 43.859375 51.238281 43.859375 L 49.882812 43.859375 C 49.707031 43.859375 49.535156 43.789062 49.40625 43.664062 C 49.28125 43.535156 49.207031 43.363281 49.210938 43.1875 Z M 49.210938 42.511719 "/>
<path style=" stroke:none;fill-rule:nonzero;fill:rgb(24.313726%,46.666667%,95.686275%);fill-opacity:1;" d="M 69.132812 26.359375 C 69.132812 30.261719 65.957031 33.425781 62.042969 33.425781 C 58.125 33.425781 54.949219 30.261719 54.949219 26.359375 C 54.949219 22.453125 58.125 19.289062 62.042969 19.289062 C 65.957031 19.289062 69.132812 22.453125 69.132812 26.359375 M 69.132812 26.359375 "/>
<path style=" stroke:none;fill-rule:evenodd;fill:rgb(14.509805%,18.82353%,21.176471%);fill-opacity:1;" d="M 62.042969 33.089844 C 65.769531 33.089844 68.792969 30.074219 68.792969 26.359375 C 68.792969 22.640625 65.769531 19.625 62.042969 19.628906 C 58.3125 19.625 55.289062 22.640625 55.289062 26.359375 C 55.289062 30.074219 58.3125 33.089844 62.042969 33.089844 M 62.042969 33.425781 C 65.957031 33.425781 69.132812 30.261719 69.132812 26.359375 C 69.132812 22.453125 65.957031 19.289062 62.042969 19.289062 C 58.125 19.289062 54.949219 22.453125 54.949219 26.359375 C 54.949219 30.261719 58.125 33.425781 62.042969 33.425781 M 62.042969 33.425781 "/>
<path style=" stroke:none;fill-rule:evenodd;fill:rgb(94.901961%,94.901961%,94.901961%);fill-opacity:1;" d="M 66.433594 23.472656 C 66.277344 23.316406 66.0625 23.226562 65.835938 23.226562 C 65.613281 23.226562 65.398438 23.316406 65.238281 23.472656 L 61.09375 27.605469 L 59.601562 26.113281 C 59.269531 25.789062 58.734375 25.789062 58.40625 26.113281 C 58.246094 26.273438 58.15625 26.488281 58.15625 26.710938 C 58.15625 26.933594 58.246094 27.148438 58.40625 27.304688 L 61.09375 29.988281 L 66.433594 24.664062 C 66.59375 24.507812 66.683594 24.292969 66.683594 24.070312 C 66.683594 23.84375 66.59375 23.628906 66.433594 23.472656 M 66.433594 23.472656 "/>
<path style=" stroke:none;fill-rule:nonzero;fill:rgb(14.509805%,18.82353%,21.176471%);fill-opacity:1;" d="M 16.460938 72.636719 C 16.460938 72.171875 16.835938 71.796875 17.300781 71.796875 L 56.132812 71.796875 C 56.597656 71.796875 56.976562 72.171875 56.976562 72.636719 C 56.976562 73.101562 56.597656 73.480469 56.132812 73.480469 L 17.300781 73.480469 C 17.078125 73.480469 16.863281 73.390625 16.703125 73.234375 C 16.546875 73.074219 16.457031 72.859375 16.460938 72.636719 M 16.460938 79.367188 C 16.460938 78.902344 16.835938 78.53125 17.300781 78.53125 L 38.238281 78.53125 C 38.703125 78.53125 39.082031 78.902344 39.082031 79.367188 C 39.082031 79.832031 38.703125 80.210938 38.238281 80.210938 L 17.300781 80.210938 C 17.078125 80.210938 16.863281 80.121094 16.703125 79.964844 C 16.546875 79.804688 16.457031 79.589844 16.460938 79.367188 M 66.960938 106.695312 L 68.433594 106.410156 L 75.3125 149.351562 C 75.382812 149.761719 75.105469 150.15625 74.699219 150.234375 M 58.839844 106.371094 L 60.328125 106.230469 L 63.78125 149.671875 C 63.816406 150.085938 63.511719 150.445312 63.097656 150.484375 M 53.988281 106.371094 L 52.5 106.230469 L 49.042969 149.671875 C 49.015625 150.082031 49.316406 150.445312 49.730469 150.484375 M 45.863281 106.695312 L 44.394531 106.410156 L 37.511719 149.351562 C 37.449219 149.765625 37.71875 150.152344 38.128906 150.234375 "/>
<path style=" stroke:none;fill-rule:nonzero;fill:rgb(24.313726%,46.666667%,95.686275%);fill-opacity:1;" d="M 56.808594 104.421875 C 66.78125 104.421875 74.875 101.71875 74.875 98.386719 L 74.875 103.121094 C 74.875 106.453125 66.78125 109.15625 56.808594 109.15625 C 46.828125 109.15625 38.742188 106.453125 38.742188 103.121094 L 38.742188 98.386719 C 38.742188 101.71875 46.828125 104.421875 56.808594 104.421875 M 56.808594 104.421875 "/>
<path style=" stroke:none;fill-rule:evenodd;fill:rgb(14.509805%,18.82353%,21.176471%);fill-opacity:1;" d="M 74.703125 103.121094 L 74.703125 98.386719 L 75.042969 98.386719 L 75.042969 103.121094 C 75.042969 104.027344 74.492188 104.867188 73.554688 105.601562 C 72.621094 106.339844 71.277344 107 69.636719 107.546875 C 66.34375 108.648438 61.808594 109.324219 56.808594 109.324219 C 51.804688 109.324219 47.269531 108.648438 43.980469 107.550781 C 42.335938 107 40.992188 106.339844 40.058594 105.601562 C 39.125 104.867188 38.574219 104.027344 38.574219 103.121094 L 38.574219 100.40625 C 38.835938 100.238281 38.914062 100.3125 38.914062 100.40625 L 38.914062 103.121094 C 38.914062 103.882812 39.375 104.632812 40.269531 105.335938 C 41.160156 106.046875 42.464844 106.6875 44.089844 107.230469 C 47.335938 108.316406 51.832031 108.988281 56.808594 108.988281 C 61.785156 108.988281 66.277344 108.316406 69.527344 107.230469 C 71.152344 106.6875 72.457031 106.046875 73.347656 105.335938 C 74.242188 104.632812 74.703125 103.882812 74.703125 103.121094 M 74.703125 103.121094 "/>
<path style=" stroke:none;fill-rule:nonzero;fill:rgb(45.882353%,61.56863%,96.078432%);fill-opacity:1;" d="M 74.875 100.238281 C 74.875 102.5625 66.78125 104.445312 56.808594 104.445312 C 46.828125 104.445312 38.742188 102.5625 38.742188 100.238281 C 38.742188 97.914062 46.828125 96.03125 56.808594 96.03125 C 66.78125 96.03125 74.875 97.914062 74.875 100.238281 M 74.875 100.238281 "/>
<path style=" stroke:none;fill-rule:evenodd;fill:rgb(14.509805%,18.82353%,21.176471%);fill-opacity:1;" d="M 39.238281 99.5 C 39.015625 99.753906 38.914062 100 38.914062 100.238281 L 38.574219 100.238281 C 38.574219 99.894531 38.726562 99.574219 38.984375 99.28125 C 39.242188 98.984375 39.613281 98.707031 40.082031 98.453125 C 41.015625 97.941406 42.355469 97.480469 43.996094 97.097656 C 47.28125 96.332031 51.808594 95.863281 56.808594 95.863281 C 61.804688 95.863281 66.335938 96.335938 69.621094 97.097656 C 71.261719 97.480469 72.597656 97.941406 73.535156 98.453125 C 74 98.707031 74.375 98.984375 74.632812 99.28125 C 74.890625 99.574219 75.039062 99.894531 75.039062 100.238281 L 74.703125 100.238281 C 74.703125 100 74.601562 99.753906 74.378906 99.5 C 74.15625 99.246094 73.816406 98.992188 73.371094 98.746094 C 72.476562 98.253906 71.167969 97.804688 69.542969 97.425781 C 66.289062 96.671875 61.785156 96.199219 56.808594 96.199219 C 51.828125 96.199219 47.324219 96.671875 44.070312 97.425781 C 42.445312 97.804688 41.140625 98.253906 40.246094 98.746094 C 39.796875 98.992188 39.460938 99.246094 39.238281 99.5 M 39.238281 99.5 "/>
<path style=" stroke:none;fill-rule:nonzero;fill:rgb(45.882353%,61.56863%,96.078432%);fill-opacity:1;" d="M 136.851562 69.425781 L 132.242188 90.789062 L 120.582031 115.804688 L 84.582031 115.804688 C 86.207031 107.46875 89.449219 90.53125 89.449219 89.488281 L 94.0625 67.210938 C 95.601562 61.21875 98.933594 60.175781 101.492188 60.175781 L 130.316406 60.175781 C 135.445312 60.699219 137.238281 66.167969 136.855469 69.425781 M 136.855469 69.425781 "/>
<path style=" stroke:none;fill-rule:nonzero;fill:rgb(24.313726%,46.666667%,95.686275%);fill-opacity:1;" d="M 145.4375 89.878906 L 121.480469 89.878906 C 134.292969 89.878906 134.929688 94.179688 134.164062 99.257812 L 131.472656 120.101562 C 131.214844 121.664062 129.292969 127.003906 123.402344 127.003906 L 138.515625 127.003906 C 141.207031 127.003906 144.921875 125.183594 146.074219 122.449219 L 151.714844 100.039062 C 153.503906 94.179688 148.382812 89.878906 145.4375 89.878906 M 145.4375 89.878906 "/>
<path style=" stroke:none;fill-rule:nonzero;fill:rgb(14.509805%,18.82353%,21.176471%);fill-opacity:1;" d="M 75.105469 126.097656 L 77.667969 126.097656 L 68.246094 150.976562 L 67.445312 150.976562 Z M 92.015625 126.097656 L 89.453125 126.097656 L 98.871094 150.976562 L 99.675781 150.976562 Z M 92.015625 126.097656 "/>
<path style=" stroke:none;fill-rule:nonzero;fill:rgb(45.882353%,61.56863%,96.078432%);fill-opacity:1;" d="M 134.164062 99.257812 C 134.890625 94.449219 134.355469 90.339844 123.433594 89.917969 C 122.324219 89.871094 121.378906 90.710938 121.25 91.808594 L 118.917969 111.375 C 118.277344 114.109375 114.820312 114.109375 112.769531 114.109375 L 86.503906 114.109375 C 86.402344 114.109375 84.328125 98.042969 83.304688 90.011719 L 73.953125 90.011719 C 72.03125 90.011719 68.316406 92.746094 68.699219 97.046875 L 71.644531 121.277344 C 72.539062 125.832031 77.152344 127.398438 85.097656 127.003906 L 123.402344 127.003906 C 129.292969 127.003906 131.214844 121.664062 131.472656 120.101562 Z M 134.164062 99.257812 "/>
<path style=" stroke:none;fill-rule:nonzero;fill:rgb(24.313726%,46.666667%,95.686275%);fill-opacity:1;" d="M 83.304688 90.011719 C 84.328125 98.042969 86.402344 114.109375 86.503906 114.109375 L 97.394531 109.679688 L 94.191406 93.136719 C 93.679688 91.832031 92.273438 90.011719 89.324219 90.011719 Z M 136.851562 69.425781 L 132.242188 90.789062 L 145.691406 90.789062 C 147.015625 85.539062 149.664062 74.769531 149.664062 73.726562 C 151.457031 66.820312 148.125 63.847656 144.792969 62 C 143.667969 61.375 134.671875 60.523438 130.316406 60.175781 C 135.441406 60.699219 137.238281 66.167969 136.855469 69.425781 M 136.855469 69.425781 "/>
<path style=" stroke:none;fill-rule:nonzero;fill:rgb(14.509805%,18.82353%,21.176471%);fill-opacity:1;" d="M 122.503906 126.097656 L 125.066406 126.097656 L 115.648438 150.976562 L 114.847656 150.976562 Z M 139.414062 126.097656 L 136.851562 126.097656 L 146.273438 150.976562 L 147.078125 150.976562 Z M 139.414062 126.097656 "/>
<path style=" stroke:none;fill-rule:evenodd;fill:rgb(14.509805%,18.82353%,21.176471%);fill-opacity:1;" d="M 97.292969 61.3125 C 98.675781 60.273438 100.191406 60.007812 101.492188 60.007812 L 130.335938 60.007812 C 132.964844 60.277344 134.738281 61.816406 135.800781 63.695312 C 136.859375 65.566406 137.21875 67.78125 137.019531 69.445312 C 136.875 67.8125 136.527344 65.667969 135.503906 63.859375 C 134.484375 62.054688 132.800781 60.601562 130.308594 60.34375 L 101.492188 60.34375 C 100.234375 60.34375 98.804688 60.601562 97.496094 61.582031 C 96.191406 62.5625 94.992188 64.28125 94.230469 67.25 L 89.617188 89.523438 L 93.898438 67.175781 L 93.898438 67.167969 C 94.679688 64.148438 95.910156 62.351562 97.292969 61.3125 M 121.023438 92.257812 C 121.199219 90.808594 122.414062 89.695312 123.867188 89.765625 C 129.132812 90.023438 131.953125 91.171875 133.351562 92.90625 C 134.753906 94.640625 134.6875 96.910156 134.328125 99.28125 C 134.351562 96.859375 134.390625 94.726562 133.089844 93.117188 C 131.785156 91.5 129.097656 90.359375 123.851562 90.101562 C 122.59375 90.039062 121.515625 91.011719 121.359375 92.300781 L 119.082031 111.402344 L 119.082031 111.414062 C 118.742188 112.863281 117.652344 113.578125 116.417969 113.929688 C 115.195312 114.277344 113.796875 114.277344 112.777344 114.277344 L 86.503906 114.277344 L 86.339844 114.152344 C 86.335938 114.136719 86.328125 114.117188 86.328125 114.105469 C 86.316406 114.058594 86.304688 114.011719 86.300781 113.964844 C 86.28125 113.847656 86.253906 113.679688 86.21875 113.460938 C 86.152344 113.023438 86.0625 112.394531 85.953125 111.609375 C 85.738281 110.046875 85.449219 107.875 85.128906 105.449219 C 84.488281 100.597656 83.734375 94.714844 83.210938 90.617188 C 83.179688 90.363281 82.960938 90.175781 82.707031 90.175781 L 73.953125 90.175781 C 73.054688 90.175781 71.6875 90.824219 70.582031 92.027344 C 69.492188 93.222656 68.679688 94.933594 68.867188 97.027344 L 71.8125 121.253906 L 71.480469 121.296875 L 68.53125 97.0625 L 68.53125 97.058594 C 68.332031 94.855469 69.191406 93.050781 70.335938 91.800781 C 71.476562 90.558594 72.925781 89.839844 73.953125 89.839844 L 82.707031 89.839844 C 83.132812 89.839844 83.492188 90.152344 83.542969 90.570312 C 84.070312 94.671875 84.828125 100.550781 85.464844 105.40625 C 85.785156 107.832031 86.074219 110.003906 86.289062 111.566406 C 86.398438 112.347656 86.488281 112.976562 86.550781 113.410156 C 86.578125 113.589844 86.605469 113.765625 86.636719 113.941406 L 112.769531 113.941406 C 113.796875 113.941406 115.152344 113.941406 116.324219 113.605469 C 117.488281 113.273438 118.449219 112.625 118.75 111.34375 Z M 121.023438 92.257812 "/>
<path style=" stroke:none;fill-rule:evenodd;fill:rgb(14.509805%,18.82353%,21.176471%);fill-opacity:1;" d="M 123.789062 89.878906 L 145.4375 89.710938 L 123.957031 90.046875 M 123.789062 89.878906 "/>
<path style=" stroke:none;fill-rule:nonzero;fill:rgb(98.823529%,74.901962%,73.725492%);fill-opacity:1;" d="M 79.914062 145.941406 C 79.113281 144.996094 80.558594 138.644531 80.585938 138.488281 L 74.632812 137.441406 C 74.605469 137.601562 73.507812 142.882812 71.148438 143.433594 C 72.65625 145.886719 78.222656 146.070312 79.914062 145.941406 M 79.914062 145.941406 "/>
<path style=" stroke:none;fill-rule:nonzero;fill:rgb(45.882353%,61.56863%,96.078432%);fill-opacity:1;" d="M 74.191406 141.300781 C 75.296875 141.90625 74.789062 142.441406 75.6875 143.554688 C 77.394531 145.667969 78.96875 142.265625 80.148438 143.542969 C 80.886719 144.339844 80.304688 147.988281 79.785156 149.785156 C 76.601562 149.894531 70.542969 149.652344 66.460938 149.160156 C 65.234375 149.015625 63.777344 148.898438 63.105469 147.863281 C 62.109375 146.324219 65.933594 144.632812 68.441406 143.855469 C 68.863281 143.617188 69.285156 143.371094 69.699219 143.117188 L 69.808594 143.050781 C 70.074219 142.890625 70.328125 142.722656 70.582031 142.5625 C 70.957031 142.316406 71.324219 142.074219 71.675781 141.867188 C 72.652344 141.273438 73.5 140.917969 74.191406 141.300781 M 74.191406 141.300781 "/>
<path style=" stroke:none;fill-rule:evenodd;fill:rgb(14.509805%,18.82353%,21.176471%);fill-opacity:1;" d="M 73.085938 141.378906 C 73.480469 141.269531 73.8125 141.28125 74.109375 141.449219 C 74.371094 141.589844 74.527344 141.722656 74.632812 141.855469 C 74.734375 141.988281 74.796875 142.125 74.855469 142.296875 C 74.871094 142.339844 74.890625 142.386719 74.90625 142.433594 C 75.011719 142.753906 75.144531 143.15625 75.558594 143.660156 C 76.007812 144.21875 76.46875 144.4375 76.941406 144.433594 C 77.394531 144.429688 77.820312 144.222656 78.199219 144.007812 C 78.292969 143.957031 78.375 143.90625 78.460938 143.855469 C 78.558594 143.796875 78.652344 143.746094 78.753906 143.691406 C 78.910156 143.597656 79.074219 143.523438 79.246094 143.464844 C 79.398438 143.414062 79.535156 143.402344 79.65625 143.429688 C 79.800781 143.464844 79.929688 143.542969 80.027344 143.65625 C 80.105469 143.25 79.921875 143.140625 79.722656 143.101562 C 79.53125 143.0625 79.332031 143.078125 79.144531 143.144531 C 78.957031 143.203125 78.769531 143.296875 78.589844 143.394531 C 78.492188 143.449219 78.386719 143.511719 78.285156 143.570312 C 78.195312 143.625 78.113281 143.671875 78.035156 143.71875 C 77.65625 143.925781 77.296875 144.09375 76.9375 144.097656 C 76.59375 144.097656 76.21875 143.949219 75.816406 143.449219 C 75.449219 142.992188 75.332031 142.644531 75.226562 142.328125 C 75.210938 142.28125 75.191406 142.230469 75.175781 142.179688 C 75.113281 141.988281 75.019531 141.808594 74.898438 141.648438 C 74.757812 141.472656 74.5625 141.3125 74.273438 141.152344 C 73.875 140.933594 73.445312 140.933594 72.996094 141.054688 C 72.550781 141.179688 72.082031 141.421875 71.585938 141.71875 C 71.289062 141.902344 70.984375 142.101562 70.664062 142.304688 C 70.605469 142.339844 70.546875 142.382812 70.488281 142.421875 C 70.238281 142.582031 69.980469 142.746094 69.722656 142.90625 L 69.609375 142.972656 C 69.222656 143.210938 68.804688 143.460938 68.375 143.703125 C 67.117188 144.089844 65.527344 144.710938 64.371094 145.433594 C 63.789062 145.792969 63.304688 146.1875 63.027344 146.605469 C 62.886719 146.816406 62.796875 147.039062 62.777344 147.269531 C 62.761719 147.503906 62.820312 147.734375 62.964844 147.957031 C 63.152344 147.632812 63.105469 147.464844 63.117188 147.296875 C 63.128906 147.136719 63.1875 146.96875 63.308594 146.789062 C 63.542969 146.433594 63.984375 146.070312 64.550781 145.71875 C 65.660156 145.027344 67.199219 144.421875 68.4375 144.035156 C 68.742188 144.144531 69.179688 144.328125 69.570312 144.554688 C 69.777344 144.679688 69.960938 144.808594 70.105469 144.941406 C 70.253906 145.082031 70.34375 145.207031 70.375 145.320312 C 70.402344 145.40625 70.496094 145.460938 70.582031 145.433594 C 70.640625 145.027344 70.503906 144.851562 70.335938 144.695312 C 70.152344 144.535156 69.953125 144.390625 69.742188 144.265625 C 69.449219 144.097656 69.148438 143.953125 68.835938 143.824219 C 69.128906 143.660156 69.414062 143.488281 69.683594 143.324219 C 69.773438 143.390625 69.882812 143.453125 69.996094 143.519531 L 70.117188 143.589844 C 70.253906 143.667969 70.40625 143.753906 70.558594 143.847656 C 70.746094 143.96875 70.933594 144.101562 71.078125 144.246094 C 71.226562 144.390625 71.328125 144.542969 71.375 144.699219 C 71.632812 144.375 71.488281 144.175781 71.316406 144.007812 C 71.140625 143.839844 70.945312 143.691406 70.738281 143.566406 C 70.582031 143.464844 70.417969 143.371094 70.277344 143.292969 L 70.167969 143.226562 L 70 143.128906 C 70.203125 143.007812 70.398438 142.878906 70.59375 142.753906 L 70.65625 142.78125 L 70.753906 142.820312 L 70.765625 142.824219 L 70.890625 142.875 C 71.074219 142.949219 71.289062 143.042969 71.507812 143.152344 C 71.726562 143.265625 71.9375 143.390625 72.105469 143.539062 C 72.277344 143.683594 72.386719 143.832031 72.433594 143.980469 C 72.457031 144.066406 72.550781 144.121094 72.640625 144.09375 C 72.6875 143.648438 72.519531 143.449219 72.328125 143.28125 C 72.121094 143.113281 71.898438 142.972656 71.664062 142.855469 C 71.453125 142.746094 71.238281 142.652344 71.019531 142.566406 L 70.9375 142.53125 C 71.183594 142.371094 71.429688 142.210938 71.679688 142.058594 C 71.6875 142.0625 71.699219 142.066406 71.710938 142.074219 C 71.878906 142.15625 72.183594 142.3125 72.507812 142.515625 C 72.714844 142.644531 72.917969 142.789062 73.089844 142.941406 C 73.261719 143.09375 73.382812 143.242188 73.4375 143.378906 C 73.472656 143.460938 73.574219 143.503906 73.660156 143.46875 C 73.667969 143.046875 73.5 142.855469 73.316406 142.691406 C 73.121094 142.519531 72.910156 142.367188 72.6875 142.230469 C 72.445312 142.078125 72.203125 141.949219 72.023438 141.855469 C 72.410156 141.636719 72.761719 141.46875 73.085938 141.378906 M 79.488281 147.375 C 77.472656 147.253906 74.699219 147.242188 71.925781 147.105469 C 69.15625 146.96875 66.40625 146.707031 64.609375 146.242188 C 66.359375 147.039062 69.136719 147.304688 71.910156 147.441406 C 74.6875 147.582031 77.472656 147.589844 79.324219 147.546875 M 79.488281 147.375 "/>
<path style=" stroke:none;fill-rule:nonzero;fill:rgb(98.823529%,74.901962%,73.725492%);fill-opacity:1;" d="M 62.144531 138.476562 C 61.96875 137.253906 66.570312 132.632812 66.675781 132.515625 L 62.183594 128.484375 C 62.078125 128.601562 58.339844 132.503906 56.042969 131.722656 C 56.015625 134.597656 60.640625 137.699219 62.144531 138.476562 M 62.144531 138.476562 "/>
<path style=" stroke:none;fill-rule:nonzero;fill:rgb(45.882353%,61.56863%,96.078432%);fill-opacity:1;" d="M 59.757812 131.523438 C 60.371094 132.621094 59.65625 132.808594 59.828125 134.226562 C 60.152344 136.917969 63.296875 134.867188 63.621094 136.570312 C 63.820312 137.636719 61.390625 140.421875 59.992188 141.667969 C 57.234375 140.082031 52.226562 136.675781 49.023438 134.105469 C 48.0625 133.332031 46.886719 132.460938 46.867188 131.234375 C 46.839844 129.402344 50.984375 129.988281 53.523438 130.652344 C 54.023438 130.675781 54.519531 130.683594 54.980469 130.6875 L 55.113281 130.691406 C 55.421875 130.691406 55.726562 130.6875 56.023438 130.683594 C 56.476562 130.675781 56.917969 130.664062 57.324219 130.671875 C 58.46875 130.6875 59.375 130.832031 59.757812 131.523438 M 59.757812 131.523438 "/>
<path style=" stroke:none;fill-rule:evenodd;fill:rgb(14.509805%,18.82353%,21.176471%);fill-opacity:1;" d="M 58.777344 131.003906 C 59.167969 131.121094 59.449219 131.308594 59.613281 131.605469 C 59.753906 131.863281 59.816406 132.0625 59.835938 132.226562 C 59.855469 132.394531 59.832031 132.542969 59.792969 132.714844 C 59.785156 132.761719 59.773438 132.808594 59.761719 132.859375 C 59.683594 133.1875 59.582031 133.597656 59.660156 134.246094 C 59.746094 134.957031 60.027344 135.382812 60.421875 135.628906 C 60.808594 135.867188 61.28125 135.914062 61.71875 135.9375 L 62.355469 135.957031 C 62.558594 135.96875 62.738281 135.988281 62.894531 136.027344 C 63.050781 136.066406 63.171875 136.125 63.261719 136.210938 C 63.351562 136.296875 63.421875 136.417969 63.453125 136.601562 C 63.472656 136.691406 63.558594 136.753906 63.648438 136.734375 C 63.753906 136.324219 63.652344 136.121094 63.492188 135.96875 C 63.347656 135.835938 63.171875 135.742188 62.980469 135.699219 C 62.78125 135.65625 62.578125 135.628906 62.375 135.621094 C 62.265625 135.613281 62.140625 135.613281 62.019531 135.609375 L 61.734375 135.601562 C 61.300781 135.582031 60.90625 135.53125 60.601562 135.34375 C 60.308594 135.164062 60.074219 134.839844 59.996094 134.203125 C 59.925781 133.621094 60.011719 133.261719 60.085938 132.941406 C 60.101562 132.886719 60.113281 132.835938 60.125 132.789062 C 60.167969 132.601562 60.195312 132.410156 60.171875 132.191406 C 60.144531 131.964844 60.066406 131.726562 59.910156 131.441406 C 59.6875 131.046875 59.316406 130.8125 58.875 130.683594 C 58.433594 130.550781 57.902344 130.511719 57.324219 130.5 C 56.980469 130.5 56.613281 130.503906 56.234375 130.511719 C 56.164062 130.511719 56.09375 130.511719 56.019531 130.515625 C 55.722656 130.519531 55.421875 130.523438 55.113281 130.523438 L 54.984375 130.523438 C 54.507812 130.515625 54.027344 130.503906 53.550781 130.488281 C 52.277344 130.152344 50.597656 129.839844 49.234375 129.835938 C 48.550781 129.835938 47.925781 129.917969 47.46875 130.121094 C 47.242188 130.226562 47.042969 130.367188 46.90625 130.554688 C 46.761719 130.753906 46.691406 130.992188 46.699219 131.234375 C 46.699219 131.328125 46.777344 131.402344 46.871094 131.398438 C 47.03125 131.058594 47.078125 130.890625 47.179688 130.753906 C 47.273438 130.625 47.417969 130.515625 47.609375 130.429688 C 48 130.253906 48.566406 130.175781 49.234375 130.175781 C 50.546875 130.175781 52.167969 130.476562 53.425781 130.804688 C 53.625 131.054688 53.898438 131.441406 54.105469 131.839844 C 54.21875 132.054688 54.308594 132.261719 54.359375 132.453125 C 54.410156 132.648438 54.417969 132.800781 54.386719 132.910156 C 54.765625 132.808594 54.746094 132.585938 54.683594 132.363281 C 54.617188 132.128906 54.523438 131.902344 54.40625 131.6875 C 54.25 131.390625 54.074219 131.105469 53.875 130.835938 C 54.214844 130.847656 54.542969 130.851562 54.863281 130.855469 C 54.902344 130.957031 54.960938 131.074219 55.023438 131.1875 C 55.042969 131.226562 55.0625 131.265625 55.085938 131.308594 C 55.164062 131.449219 55.246094 131.601562 55.320312 131.761719 C 55.421875 131.964844 55.507812 132.175781 55.554688 132.375 C 55.601562 132.578125 55.609375 132.757812 55.5625 132.914062 C 55.957031 132.777344 55.9375 132.53125 55.882812 132.296875 C 55.820312 132.0625 55.734375 131.832031 55.625 131.617188 C 55.546875 131.449219 55.460938 131.289062 55.378906 131.144531 C 55.359375 131.105469 55.339844 131.066406 55.320312 131.03125 L 55.230469 130.859375 C 55.46875 130.859375 55.703125 130.859375 55.9375 130.851562 C 55.945312 130.871094 55.960938 130.890625 55.972656 130.90625 C 55.996094 130.933594 56.015625 130.964844 56.035156 130.992188 L 56.042969 131.003906 C 56.066406 131.035156 56.097656 131.074219 56.125 131.113281 C 56.238281 131.269531 56.371094 131.464844 56.5 131.675781 C 56.625 131.886719 56.734375 132.109375 56.800781 132.320312 C 56.867188 132.527344 56.886719 132.714844 56.84375 132.867188 C 57.234375 132.71875 57.199219 132.457031 57.125 132.214844 C 57.039062 131.964844 56.925781 131.726562 56.789062 131.5 C 56.65625 131.277344 56.511719 131.078125 56.398438 130.917969 C 56.378906 130.890625 56.363281 130.867188 56.347656 130.847656 C 56.652344 130.839844 56.949219 130.835938 57.226562 130.839844 L 57.246094 130.863281 C 57.34375 131.027344 57.519531 131.324219 57.683594 131.664062 C 57.792969 131.882812 57.890625 132.113281 57.949219 132.332031 C 58.015625 132.550781 58.039062 132.742188 58.015625 132.886719 C 58.386719 132.722656 58.34375 132.476562 58.277344 132.238281 C 58.203125 131.992188 58.105469 131.75 57.988281 131.515625 C 57.878906 131.289062 57.757812 131.066406 57.625 130.847656 C 58.066406 130.863281 58.457031 130.90625 58.777344 131.003906 M 61.019531 139.476562 C 58.847656 137.980469 56.777344 136.648438 54.753906 135.25 C 52.476562 133.667969 50.285156 131.992188 49.007812 130.648438 C 50.0625 132.25 52.277344 133.945312 54.558594 135.527344 C 56.84375 137.109375 59.199219 138.589844 60.789062 139.53125 C 60.871094 139.582031 60.972656 139.554688 61.019531 139.476562 M 61.019531 139.476562 "/>
<path style=" stroke:none;fill-rule:nonzero;fill:rgb(14.509805%,18.82353%,21.176471%);fill-opacity:1;" d="M 109.144531 113.363281 C 113.535156 111.835938 112.757812 102.929688 112.136719 99.734375 C 109.574219 100.945312 98.863281 100.832031 93.460938 100.101562 C 89.632812 99.597656 76.605469 103.972656 74.027344 107.640625 C 70.136719 113.183594 65.25 120.433594 58.160156 130.53125 C 59.734375 132.046875 61.9375 134.433594 64.234375 134.570312 C 73.554688 121.214844 76.421875 122.359375 79.757812 115.28125 C 77.164062 124.664062 74.027344 136.441406 74.027344 139.617188 C 76.222656 140.628906 78.082031 140.964844 80.277344 140.457031 C 84.832031 124.640625 87.535156 123.632812 88.210938 114.878906 C 96.144531 115.386719 102.390625 115.722656 109.144531 113.363281 M 109.144531 113.363281 "/>
<path style=" stroke:none;fill-rule:evenodd;fill:rgb(94.901961%,94.901961%,94.901961%);fill-opacity:1;" d="M 99.03125 104.113281 C 97.914062 104.132812 96.792969 104.296875 95.5625 104.472656 C 93.363281 104.789062 90.820312 105.152344 88.511719 105.644531 C 86.707031 106.023438 85.03125 106.488281 83.734375 107.070312 C 82.457031 107.644531 81.503906 108.359375 81.246094 109.28125 C 80.847656 110.714844 80.402344 112.296875 79.929688 113.964844 C 79.785156 114.472656 79.640625 114.988281 79.492188 115.507812 L 80.253906 114.054688 C 80.722656 112.386719 81.171875 110.804688 81.574219 109.371094 C 81.789062 108.605469 82.605469 107.945312 83.875 107.375 C 85.136719 106.808594 86.789062 106.351562 88.582031 105.972656 C 90.886719 105.484375 93.394531 105.125 95.585938 104.8125 C 96.820312 104.632812 97.953125 104.472656 98.890625 104.308594 M 99.03125 104.113281 "/>
<path style=" stroke:none;fill-rule:nonzero;fill:rgb(98.823529%,74.901962%,73.725492%);fill-opacity:1;" d="M 80.75 85.140625 C 81.046875 84.28125 82.089844 80.664062 82.53125 80.15625 C 84.238281 81.277344 86.496094 82.941406 86.65625 84.636719 C 85.835938 86.007812 85.222656 89.722656 83.039062 89.976562 C 77.816406 90.578125 73.488281 89.976562 68.589844 89.152344 C 58.96875 91.171875 59.980469 83.429688 62.175781 83.429688 C 63.933594 83.429688 66.996094 85.015625 67.613281 85.785156 C 75.738281 85.898438 74.875 85.140625 80.75 85.140625 M 101.109375 66.488281 C 98.457031 65.464844 98.332031 60.847656 98.605469 58.667969 C 98.234375 59.59375 95.753906 64.097656 92.113281 64.160156 C 92.09375 64.726562 92 65.773438 91.753906 66.566406 C 91.585938 67.101562 91.4375 67.703125 91.699219 68.199219 C 93.472656 71.566406 98.605469 68.566406 101.109375 66.488281 M 101.109375 66.488281 "/>
<path style=" stroke:none;fill-rule:nonzero;fill:rgb(98.823529%,74.901962%,73.725492%);fill-opacity:1;" d="M 97.390625 55.160156 C 93.0625 54.691406 91.644531 51.574219 91.449219 49.960938 C 90.476562 50.230469 88.472656 51.28125 88.257812 53.273438 C 87.988281 55.769531 86.90625 63.1875 91.097656 64.0625 C 91.445312 64.132812 91.78125 64.167969 92.113281 64.160156 C 95.757812 64.097656 98.234375 59.59375 98.605469 58.667969 C 100.769531 57.65625 100.976562 55.367188 100.160156 54.554688 C 99.511719 53.910156 98.042969 54.691406 97.390625 55.160156 M 97.390625 55.160156 "/>
<path style=" stroke:none;fill-rule:evenodd;fill:rgb(14.509805%,18.82353%,21.176471%);fill-opacity:1;" d="M 93.15625 61.242188 C 93.460938 61.308594 93.460938 61.414062 93.394531 61.480469 C 93.191406 61.683594 92.859375 61.820312 92.539062 61.863281 C 92.222656 61.910156 91.859375 61.875 91.632812 61.648438 C 91.988281 61.523438 92.214844 61.574219 92.492188 61.53125 C 92.761719 61.496094 93.019531 61.378906 93.15625 61.242188 M 99.574219 55.4375 C 99.046875 55.46875 98.769531 55.648438 98.527344 55.875 C 98.246094 56.140625 97.992188 56.507812 97.964844 56.972656 C 98.324219 56.648438 98.511719 56.351562 98.757812 56.117188 C 99.003906 55.886719 99.292969 55.726562 99.476562 55.65625 M 98.667969 58.511719 C 98.269531 59.050781 97.566406 60.394531 96.460938 61.625 C 95.351562 62.863281 93.863281 63.960938 92.109375 63.992188 C 94.007812 64.292969 95.578125 63.113281 96.710938 61.847656 C 97.847656 60.585938 98.570312 59.210938 98.761719 58.730469 M 98.667969 58.511719 "/>
<path style=" stroke:none;fill-rule:nonzero;fill:rgb(14.509805%,18.82353%,21.176471%);fill-opacity:1;" d="M 97.390625 55.160156 C 93.0625 54.691406 91.644531 51.574219 91.449219 49.960938 C 90.476562 50.230469 88.472656 51.28125 88.257812 53.273438 C 87.984375 55.769531 86.90625 63.1875 91.097656 64.0625 C 91.445312 64.132812 91.78125 64.167969 92.113281 64.160156 C 92.09375 64.734375 92 65.808594 91.742188 66.601562 C 89.671875 67.589844 87.699219 69.679688 86.925781 70.839844 C 86.570312 71.367188 86.078125 72.421875 85.558594 73.675781 L 83.757812 70.816406 C 82.707031 68.738281 83.765625 66.910156 85.074219 65.273438 C 86.429688 63.589844 85.144531 62.511719 84.535156 60.625 C 83.925781 58.734375 85.210938 57.183594 86.089844 55.972656 C 86.972656 54.757812 86.703125 53.273438 86.972656 49.835938 C 87.1875 47.085938 91.480469 45.855469 93.601562 45.585938 C 96.011719 45.339844 101.121094 46.019531 102.257812 50.710938 C 103.136719 54.554688 101.773438 54.902344 104.695312 55.835938 C 108.277344 56.984375 104.695312 60.015625 107.058594 61.769531 C 108.4375 62.894531 110.363281 65.84375 107.058594 68.648438 L 101.109375 66.488281 C 98.457031 65.464844 98.335938 60.847656 98.605469 58.667969 C 100.769531 57.65625 100.976562 55.367188 100.160156 54.554688 C 99.511719 53.910156 98.042969 54.691406 97.390625 55.160156 M 97.390625 55.160156 "/>
<path style=" stroke:none;fill-rule:nonzero;fill:rgb(14.509805%,18.82353%,21.176471%);fill-opacity:1;" d="M 92.179688 57.722656 C 92.179688 58.054688 92.359375 58.328125 92.585938 58.328125 C 92.808594 58.328125 92.992188 58.054688 92.992188 57.722656 C 92.992188 57.386719 92.808594 57.113281 92.585938 57.113281 C 92.359375 57.113281 92.179688 57.386719 92.179688 57.722656 M 88.527344 57.859375 C 88.527344 58.191406 88.707031 58.464844 88.933594 58.464844 C 89.15625 58.464844 89.335938 58.191406 89.335938 57.859375 C 89.335938 57.519531 89.15625 57.25 88.933594 57.25 C 88.707031 57.25 88.527344 57.519531 88.527344 57.859375 M 88.527344 57.859375 "/>
<path style=" stroke:none;fill-rule:evenodd;fill:rgb(14.509805%,18.82353%,21.176471%);fill-opacity:1;" d="M 91.789062 54.808594 C 92.117188 54.316406 92.585938 53.980469 93.128906 53.980469 C 93.667969 53.980469 94.136719 54.316406 94.464844 54.808594 C 94.566406 54.964844 94.65625 55.136719 94.730469 55.324219 L 97.367188 54.992188 L 94.839844 55.648438 C 94.933594 55.976562 94.988281 56.335938 94.988281 56.714844 C 94.988281 57.449219 94.792969 58.121094 94.464844 58.617188 C 94.136719 59.109375 93.667969 59.441406 93.128906 59.441406 C 92.585938 59.441406 92.117188 59.109375 91.789062 58.617188 C 91.480469 58.148438 91.289062 57.519531 91.269531 56.824219 C 91.144531 56.78125 91.015625 56.75 90.886719 56.738281 C 90.730469 56.722656 90.605469 56.742188 90.519531 56.796875 C 90.496094 57.390625 90.328125 57.929688 90.066406 58.335938 C 89.789062 58.753906 89.394531 59.039062 88.933594 59.039062 C 88.460938 59.039062 88.058594 58.742188 87.789062 58.308594 C 87.507812 57.875 87.34375 57.289062 87.34375 56.644531 C 87.34375 56.003906 87.507812 55.414062 87.789062 54.984375 C 88.058594 54.550781 88.460938 54.25 88.933594 54.25 C 89.40625 54.25 89.804688 54.550781 90.078125 54.984375 C 90.324219 55.367188 90.484375 55.875 90.515625 56.429688 C 90.652344 56.390625 90.792969 56.390625 90.917969 56.402344 C 91.046875 56.414062 91.164062 56.441406 91.273438 56.472656 C 91.3125 55.832031 91.5 55.25 91.789062 54.808594 M 92.070312 54.992188 C 91.789062 55.425781 91.605469 56.03125 91.605469 56.714844 C 91.605469 57.390625 91.789062 57.996094 92.070312 58.429688 C 92.359375 58.867188 92.734375 59.105469 93.128906 59.105469 C 93.519531 59.105469 93.898438 58.867188 94.183594 58.429688 C 94.464844 57.996094 94.648438 57.390625 94.648438 56.714844 C 94.648438 56.03125 94.464844 55.425781 94.183594 54.992188 C 93.898438 54.558594 93.519531 54.316406 93.128906 54.316406 C 92.734375 54.316406 92.359375 54.558594 92.070312 54.992188 M 88.074219 55.160156 C 87.835938 55.535156 87.683594 56.058594 87.683594 56.644531 C 87.683594 57.230469 87.835938 57.753906 88.074219 58.128906 C 88.308594 58.5 88.617188 58.703125 88.933594 58.703125 C 89.242188 58.703125 89.546875 58.507812 89.78125 58.144531 C 90.019531 57.789062 90.171875 57.28125 90.183594 56.710938 L 90.183594 56.644531 C 90.183594 56.058594 90.03125 55.535156 89.792969 55.160156 C 89.558594 54.789062 89.25 54.585938 88.933594 54.585938 C 88.617188 54.585938 88.308594 54.789062 88.074219 55.160156 M 88.074219 55.160156 "/>
<path style=" stroke:none;fill-rule:nonzero;fill:rgb(24.313726%,46.666667%,95.686275%);fill-opacity:1;" d="M 101.039062 66.410156 C 98.226562 68.824219 92.429688 72.101562 91.753906 66.582031 C 90.179688 67.140625 86.054688 68.933594 85.003906 71.460938 C 83.382812 75.332031 82.300781 76.679688 81.117188 82.230469 C 82.46875 83.242188 84.722656 84.921875 87.871094 84.921875 C 88.019531 84.292969 88.300781 83.378906 88.609375 82.40625 C 88.875 83.488281 89.308594 84.484375 89.976562 85.261719 C 91.496094 90.140625 91.375 92.328125 91.375 100.238281 C 100.324219 100.742188 101.167969 107.140625 112.984375 104.78125 C 110.324219 91.992188 113.679688 85.921875 112.859375 78.023438 C 112.851562 77.910156 112.84375 77.800781 112.835938 77.691406 C 112.210938 69.117188 109.890625 69.570312 101.039062 66.410156 M 101.039062 66.410156 "/>
<path style=" stroke:none;fill-rule:evenodd;fill:rgb(14.509805%,18.82353%,21.176471%);fill-opacity:1;" d="M 105.507812 77.535156 C 103.921875 80.144531 103.238281 81.84375 102.742188 84.726562 L 102.730469 84.808594 L 102.789062 84.871094 C 103.886719 86.050781 105.234375 87.335938 106.523438 88.363281 C 107.167969 88.875 107.800781 89.324219 108.382812 89.660156 C 108.964844 90 109.511719 90.234375 109.976562 90.304688 L 110.089844 90.324219 L 110.148438 90.222656 C 110.375 89.832031 110.597656 89.230469 110.804688 88.5 C 111.015625 87.769531 111.21875 86.902344 111.414062 85.964844 C 111.800781 84.089844 112.148438 81.9375 112.433594 80.066406 C 111.8125 81.882812 111.464844 84.03125 111.082031 85.894531 C 110.914062 86.742188 110.710938 87.578125 110.480469 88.410156 C 110.292969 89.066406 110.101562 89.59375 109.914062 89.953125 C 109.53125 89.871094 109.070312 89.671875 108.554688 89.371094 C 107.992188 89.042969 107.371094 88.601562 106.734375 88.097656 C 105.480469 87.105469 104.171875 85.859375 103.09375 84.699219 C 103.582031 81.910156 104.246094 80.253906 105.578125 77.765625 M 88.488281 73.960938 L 88.460938 74.125 C 88.285156 75.191406 88.054688 76.90625 88.058594 78.730469 C 88.0625 80.554688 88.304688 82.511719 89.085938 84.054688 C 89.292969 84.457031 89.535156 84.835938 89.824219 85.175781 C 91.21875 89.65625 91.214844 91.847656 91.207031 98.453125 L 91.207031 100.238281 L 91.542969 100.238281 L 91.542969 100.070312 C 91.542969 99.5 91.542969 98.957031 91.546875 98.441406 C 91.554688 91.828125 91.554688 89.59375 90.136719 85.039062 L 90.125 85.007812 L 90.105469 84.980469 C 89.824219 84.652344 89.582031 84.289062 89.390625 83.898438 C 88.640625 82.429688 88.402344 80.535156 88.394531 78.730469 C 88.390625 76.933594 88.621094 75.238281 88.792969 74.179688 L 88.820312 74.011719 Z M 88.488281 73.960938 "/>
<path style=" stroke:none;fill-rule:nonzero;fill:rgb(14.509805%,18.82353%,21.176471%);fill-opacity:1;" d="M 89.882812 70.910156 C 89.835938 70.636719 89.621094 70.414062 89.347656 70.359375 L 83.363281 69.195312 C 83.253906 69.175781 83.140625 69.207031 83.0625 69.285156 C 82.984375 69.363281 82.945312 69.472656 82.964844 69.582031 L 84.664062 79.917969 C 84.710938 80.195312 84.925781 80.414062 85.203125 80.46875 L 91.664062 81.726562 Z M 89.882812 70.910156 "/>
<path style=" stroke:none;fill-rule:nonzero;fill:rgb(98.823529%,74.901962%,73.725492%);fill-opacity:1;" d="M 91.984375 80.238281 C 96.480469 83.746094 98.402344 84.246094 102.882812 88.277344 L 104.871094 85.257812 C 106.746094 86.433594 108.683594 87.378906 110.273438 87.785156 C 109.769531 90.039062 108.074219 92.382812 107.582031 93.097656 C 106.742188 94.605469 103.078125 98.035156 91.039062 84.671875 C 89.800781 83.296875 88.605469 81.738281 88.105469 79.960938 C 88.082031 79.886719 88.054688 79.816406 88.023438 79.746094 C 87.695312 79.132812 86.054688 79.542969 85.195312 78.886719 C 84.335938 78.234375 88.390625 78.4375 87.980469 78.195312 C 87.570312 77.949219 83.558594 77.210938 83.886719 76.4375 C 84.148438 75.816406 86.859375 76.484375 88.175781 76.898438 C 86.964844 76.335938 84.425781 75.207031 84.542969 74.886719 C 84.953125 73.742188 88.320312 75.625 88.367188 75.667969 C 87.664062 75.023438 86.90625 74.082031 86.632812 73.5 C 86.265625 72.722656 88.230469 73.625 88.679688 74.03125 C 89.039062 74.359375 90.03125 75.238281 90.652344 75.835938 L 90.480469 74.65625 C 90.789062 74.96875 92.011719 76.082031 91.832031 76.890625 C 91.632812 77.769531 91.847656 79.480469 91.976562 80.230469 Z M 91.984375 80.238281 "/>
<path style=" stroke:none;fill-rule:nonzero;fill:rgb(14.509805%,18.82353%,21.176471%);fill-opacity:1;" d="M 67.242188 82.253906 L 60.828125 82.253906 L 61.445312 89.042969 C 61.480469 89.394531 61.769531 89.65625 62.117188 89.65625 L 65.953125 89.65625 C 66.300781 89.65625 66.589844 89.390625 66.621094 89.042969 Z M 67.242188 82.253906 "/>
<path style=" stroke:none;fill-rule:nonzero;fill:rgb(98.823529%,74.901962%,73.725492%);fill-opacity:1;" d="M 65.585938 85.597656 C 63.054688 85.089844 64.742188 83.578125 68.050781 85.960938 C 69.570312 86.296875 70.277344 88.449219 69.0625 88.316406 C 67.542969 88.148438 67.273438 87.449219 65.585938 85.597656 M 65.585938 85.597656 "/>
<path style=" stroke:none;fill-rule:evenodd;fill:rgb(94.901961%,94.901961%,94.901961%);fill-opacity:1;" d="M 61.914062 71.800781 C 61.816406 72.832031 61.503906 75.023438 62.035156 77.140625 C 62.585938 79.328125 62.050781 80.609375 61.65625 81.003906 C 61.695312 80.484375 62.242188 79.34375 61.710938 77.222656 C 61.160156 75.035156 61.476562 72.78125 61.710938 71.921875 M 66.019531 72.839844 C 66.097656 72.890625 66.117188 72.996094 66.0625 73.070312 C 65.699219 73.589844 65.164062 75.082031 66.074219 76.765625 C 66.574219 77.695312 66.472656 78.523438 66.132812 79.179688 C 65.800781 79.824219 65.238281 80.289062 64.824219 80.523438 C 65.03125 80.019531 65.535156 79.597656 65.832031 79.023438 C 66.125 78.460938 66.21875 77.746094 65.777344 76.925781 C 64.792969 75.109375 65.363281 73.480469 65.785156 72.878906 M 63.472656 74.851562 C 63.929688 75.269531 64.011719 75.605469 64.011719 75.933594 C 64.011719 76.261719 63.933594 76.574219 63.847656 76.890625 C 63.847656 76.910156 63.839844 76.929688 63.835938 76.953125 C 63.667969 77.566406 63.492188 78.230469 63.726562 79.160156 C 63.140625 78.226562 63.339844 77.488281 63.507812 76.871094 L 63.523438 76.800781 C 63.609375 76.484375 63.675781 76.210938 63.675781 75.933594 C 63.675781 75.667969 63.609375 75.394531 63.417969 75.085938 M 63.46875 74.851562 "/>
<path style=" stroke:none;fill-rule:nonzero;fill:rgb(98.823529%,74.901962%,73.725492%);fill-opacity:1;" d="M -104.652344 102.289062 C -108.71875 106.476562 -112.351562 107.105469 -117.734375 111.949219 L -119.5 109.273438 C -121.628906 111.332031 -124.050781 113.273438 -125.726562 113.847656 C -124.886719 115.625 -123.789062 117.15625 -123.382812 117.75 C -122.347656 119.605469 -118.945312 123.070312 -102.488281 105.707031 C -101.984375 104.847656 -101.800781 104.4375 -101.773438 104.339844 C -100.511719 104.425781 -100.285156 102.433594 -99.890625 101.699219 C -99.5 100.960938 -97.53125 101.449219 -96.5 100.664062 C -95.464844 99.878906 -100.335938 100.128906 -99.839844 99.835938 C -99.351562 99.539062 -94.53125 98.652344 -94.925781 97.71875 C -95.242188 96.972656 -98.496094 97.777344 -100.078125 98.273438 C -98.625 97.597656 -95.578125 96.242188 -95.714844 95.855469 C -96.207031 94.484375 -100.25 96.746094 -100.308594 96.800781 C -99.460938 96.023438 -98.554688 94.890625 -98.222656 94.191406 C -97.78125 93.257812 -100.140625 94.339844 -100.679688 94.832031 C -101.113281 95.222656 -102.304688 96.277344 -103.046875 96.996094 L -102.84375 95.582031 C -103.214844 95.960938 -104.683594 97.289062 -104.464844 98.269531 C -104.226562 99.328125 -104.484375 101.382812 -104.640625 102.28125 Z M 255.644531 173.425781 L 261.214844 164.097656 C 263.347656 166.191406 268.566406 168.207031 268.886719 168.15625 C 269.207031 168.105469 265.839844 174.265625 264.339844 176.035156 C 255.898438 180.191406 254.933594 175.917969 255.644531 173.425781 M 255.644531 173.425781 "/>
</g>
</svg>
