<?xml version="1.0" encoding="UTF-8"?>
<svg xmlns="http://www.w3.org/2000/svg" xmlns:xlink="http://www.w3.org/1999/xlink" width="px" height="px" viewBox="0 0 146 155" version="1.1">
<g id="surface1">
<path style=" stroke:none;fill-rule:nonzero;fill:rgb(14.509805%,18.82353%,21.176471%);fill-opacity:1;" d="M 47.355469 8.957031 C 47.355469 6.726562 49.171875 4.917969 51.414062 4.917969 L 132.597656 4.917969 C 134.839844 4.917969 136.65625 6.726562 136.660156 8.957031 L 136.660156 120.363281 C 136.660156 122.59375 134.839844 124.402344 132.597656 124.402344 L 51.414062 124.402344 C 49.171875 124.402344 47.355469 122.59375 47.355469 120.363281 Z M 47.355469 8.957031 "/>
<path style=" stroke:none;fill-rule:nonzero;fill:rgb(94.901961%,94.901961%,94.901961%);fill-opacity:1;" d="M 50.738281 10.976562 C 50.738281 10.046875 51.496094 9.292969 52.429688 9.292969 L 131.585938 9.292969 C 132.519531 9.292969 133.277344 10.046875 133.277344 10.976562 L 133.277344 115.988281 C 133.277344 116.917969 132.519531 117.671875 131.585938 117.671875 L 52.429688 117.671875 C 51.496094 117.671875 50.738281 116.917969 50.738281 115.988281 Z M 50.738281 10.976562 "/>
<path style=" stroke:none;fill-rule:nonzero;fill:rgb(94.901961%,94.901961%,94.901961%);fill-opacity:1;" d="M 119.410156 138.394531 C 119.410156 143.863281 114.964844 148.300781 109.484375 148.300781 L 64.042969 148.300781 C 58.5625 148.300781 54.121094 143.863281 54.121094 138.394531 L 54.121094 135.09375 L 66.917969 135.09375 L 66.773438 73.242188 L 119.410156 73.242188 Z M 119.410156 138.394531 "/>
<path style=" stroke:none;fill-rule:evenodd;fill:rgb(14.509805%,18.82353%,21.176471%);fill-opacity:1;" d="M 66.605469 73.074219 L 119.578125 73.074219 L 119.578125 138.394531 C 119.578125 143.960938 115.058594 148.464844 109.484375 148.464844 L 64.042969 148.464844 C 58.46875 148.464844 53.953125 143.957031 53.953125 138.394531 L 53.953125 134.925781 L 66.75 134.925781 Z M 67.085938 134.925781 L 99.734375 134.925781 L 99.734375 138.394531 C 99.734375 143.773438 104.097656 148.128906 109.484375 148.128906 C 114.871094 148.128906 119.238281 143.773438 119.238281 138.394531 L 119.238281 73.410156 L 66.945312 73.410156 Z M 106.886719 148.128906 C 102.464844 146.945312 99.390625 142.953125 99.394531 138.394531 L 99.394531 135.261719 L 54.289062 135.261719 L 54.289062 138.394531 C 54.289062 143.773438 58.65625 148.128906 64.042969 148.128906 Z M 106.886719 148.128906 "/>
<path style=" stroke:none;fill-rule:evenodd;fill:rgb(14.509805%,18.82353%,21.176471%);fill-opacity:1;" d="M 54.121094 134.925781 L 99.730469 134.925781 L 99.730469 138.394531 C 99.730469 143.773438 104.097656 148.128906 109.484375 148.128906 L 109.484375 148.464844 C 103.910156 148.464844 99.394531 143.957031 99.394531 138.394531 L 99.394531 135.261719 L 54.121094 135.261719 Z M 54.121094 134.925781 "/>
<path style=" stroke:none;fill-rule:nonzero;fill:rgb(24.313726%,46.666667%,95.686275%);fill-opacity:1;" d="M 57.839844 72.570312 C 57.84375 71.640625 58.597656 70.886719 59.53125 70.886719 L 124.480469 70.886719 C 125.414062 70.886719 126.171875 71.640625 126.171875 72.570312 L 126.171875 73.578125 C 126.171875 74.507812 125.417969 75.261719 124.480469 75.261719 L 59.53125 75.261719 C 58.597656 75.261719 57.839844 74.507812 57.839844 73.578125 Z M 72.726562 78.964844 L 79.832031 78.964844 L 79.832031 86.03125 L 72.726562 86.03125 Z M 72.726562 92.425781 L 79.832031 92.425781 L 79.832031 99.496094 L 72.726562 99.496094 Z M 72.726562 105.890625 L 79.832031 105.890625 L 79.832031 112.960938 L 72.726562 112.960938 Z M 72.726562 119.355469 L 79.832031 119.355469 L 79.832031 126.421875 L 72.726562 126.421875 Z M 72.726562 119.355469 "/>
<path style=" stroke:none;fill-rule:evenodd;fill:rgb(94.901961%,94.901961%,94.901961%);fill-opacity:1;" d="M 81.289062 31.820312 L 81.96875 31.691406 L 82.375 33.832031 L 105.320312 34.4375 C 105.601562 34.449219 105.839844 34.640625 105.910156 34.910156 L 106.121094 35.746094 C 106.140625 35.835938 106.144531 35.933594 106.125 36.023438 L 104.082031 45.839844 C 104.050781 46.003906 103.949219 46.148438 103.808594 46.238281 L 102.65625 46.960938 C 102.558594 47.023438 102.441406 47.054688 102.324219 47.054688 L 84.90625 47.054688 L 85.730469 51.34375 C 85.765625 51.535156 85.933594 51.671875 86.128906 51.671875 L 101.851562 51.671875 C 102.042969 51.671875 102.199219 51.828125 102.199219 52.019531 "/>
<path style=" stroke:none;fill-rule:nonzero;fill:rgb(14.509805%,18.82353%,21.176471%);fill-opacity:1;" d="M 87.375 56.359375 C 87.375 57.804688 86.199219 58.976562 84.742188 58.976562 C 83.289062 58.976562 82.113281 57.804688 82.113281 56.359375 C 82.113281 54.910156 83.289062 53.738281 84.742188 53.738281 C 86.199219 53.738281 87.375 54.910156 87.375 56.359375 M 87.375 56.359375 "/>
<path style=" stroke:none;fill-rule:nonzero;fill:rgb(14.509805%,18.82353%,21.176471%);fill-opacity:1;" d="M 87.375 56.359375 C 87.375 57.804688 86.199219 58.976562 84.742188 58.976562 C 83.289062 58.976562 82.113281 57.804688 82.113281 56.359375 C 82.113281 54.910156 83.289062 53.738281 84.742188 53.738281 C 86.199219 53.738281 87.375 54.910156 87.375 56.359375 M 104.414062 56.359375 C 104.414062 57.804688 103.234375 58.976562 101.78125 58.976562 C 100.328125 58.976562 99.152344 57.804688 99.152344 56.359375 C 99.152344 54.914062 100.328125 53.742188 101.78125 53.742188 C 103.234375 53.742188 104.414062 54.914062 104.414062 56.359375 M 104.414062 56.359375 "/>
<path style=" stroke:none;fill-rule:nonzero;fill:rgb(94.901961%,94.901961%,94.901961%);fill-opacity:1;" d="M 86.542969 56.359375 C 86.542969 57.347656 85.738281 58.152344 84.746094 58.152344 C 83.75 58.152344 82.945312 57.347656 82.945312 56.359375 C 82.945312 55.367188 83.75 54.566406 84.746094 54.566406 C 85.738281 54.566406 86.542969 55.371094 86.542969 56.359375 M 86.542969 56.359375 "/>
<path style=" stroke:none;fill-rule:nonzero;fill:rgb(94.901961%,94.901961%,94.901961%);fill-opacity:1;" d="M 86.542969 56.359375 C 86.542969 57.347656 85.738281 58.152344 84.746094 58.152344 C 83.75 58.152344 82.945312 57.347656 82.945312 56.359375 C 82.945312 55.367188 83.75 54.566406 84.746094 54.566406 C 85.738281 54.566406 86.542969 55.371094 86.542969 56.359375 M 103.582031 56.359375 C 103.582031 57.347656 102.777344 58.152344 101.78125 58.152344 C 100.789062 58.148438 99.980469 57.347656 99.980469 56.359375 C 99.980469 55.367188 100.785156 54.566406 101.78125 54.566406 C 102.777344 54.566406 103.582031 55.367188 103.582031 56.359375 M 75.074219 29.421875 C 74.796875 29.292969 74.675781 28.96875 74.804688 28.691406 L 75.230469 27.789062 C 75.359375 27.511719 75.691406 27.394531 75.96875 27.519531 L 83.285156 30.917969 L 82.578125 32.75 Z M 104.363281 38.441406 C 104.417969 38.179688 104.574219 37.953125 104.796875 37.808594 C 105.019531 37.664062 105.292969 37.613281 105.554688 37.671875 C 106.097656 37.785156 106.445312 38.316406 106.328125 38.855469 L 105.523438 42.621094 C 105.46875 42.878906 105.3125 43.105469 105.089844 43.25 C 104.867188 43.394531 104.59375 43.445312 104.332031 43.390625 C 104.074219 43.335938 103.84375 43.179688 103.699219 42.957031 C 103.554688 42.734375 103.503906 42.464844 103.558594 42.203125 Z M 104.363281 38.441406 "/>
<path style=" stroke:none;fill-rule:evenodd;fill:rgb(24.313726%,46.666667%,95.686275%);fill-opacity:1;" d="M 82.535156 81.65625 C 82.535156 81.285156 82.835938 80.984375 83.210938 80.984375 L 113.824219 80.984375 C 114.199219 80.984375 114.503906 81.285156 114.503906 81.65625 C 114.503906 82.027344 114.199219 82.328125 113.824219 82.328125 L 83.210938 82.328125 C 82.835938 82.328125 82.535156 82.027344 82.535156 81.65625 M 82.535156 86.03125 C 82.535156 85.660156 82.835938 85.359375 83.210938 85.359375 L 107.0625 85.359375 C 107.421875 85.375 107.707031 85.671875 107.707031 86.03125 C 107.707031 86.390625 107.421875 86.6875 107.0625 86.703125 L 83.210938 86.703125 C 82.839844 86.703125 82.535156 86.402344 82.535156 86.03125 M 82.535156 95.121094 C 82.535156 94.75 82.835938 94.449219 83.210938 94.449219 L 113.824219 94.449219 C 114.191406 94.460938 114.480469 94.757812 114.480469 95.121094 C 114.480469 95.484375 114.191406 95.78125 113.824219 95.792969 L 83.210938 95.792969 C 82.839844 95.792969 82.535156 95.492188 82.535156 95.121094 M 82.535156 99.496094 C 82.535156 99.125 82.835938 98.824219 83.210938 98.824219 L 107.0625 98.824219 C 107.425781 98.835938 107.714844 99.132812 107.714844 99.496094 C 107.714844 99.859375 107.425781 100.15625 107.0625 100.167969 L 83.210938 100.167969 C 82.835938 100.167969 82.535156 99.867188 82.535156 99.496094 M 82.535156 108.582031 C 82.535156 108.210938 82.835938 107.910156 83.210938 107.910156 L 113.824219 107.910156 C 114.191406 107.921875 114.480469 108.222656 114.480469 108.585938 C 114.480469 108.949219 114.191406 109.246094 113.824219 109.257812 L 83.210938 109.257812 C 82.835938 109.257812 82.535156 108.957031 82.535156 108.582031 M 82.535156 112.960938 C 82.535156 112.585938 82.835938 112.285156 83.210938 112.285156 L 107.0625 112.285156 C 107.4375 112.285156 107.738281 112.585938 107.738281 112.957031 C 107.738281 113.332031 107.4375 113.632812 107.0625 113.632812 L 83.210938 113.632812 C 82.839844 113.632812 82.535156 113.332031 82.535156 112.960938 M 82.535156 122.042969 C 82.535156 121.671875 82.835938 121.371094 83.210938 121.371094 L 113.824219 121.371094 C 114.199219 121.371094 114.5 121.671875 114.5 122.042969 C 114.503906 122.417969 114.199219 122.71875 113.824219 122.71875 L 83.210938 122.71875 C 82.835938 122.71875 82.535156 122.417969 82.535156 122.042969 M 82.535156 126.421875 C 82.535156 126.046875 82.835938 125.746094 83.210938 125.746094 L 107.0625 125.746094 C 107.425781 125.761719 107.714844 126.058594 107.714844 126.421875 C 107.714844 126.785156 107.425781 127.082031 107.0625 127.09375 L 83.210938 127.09375 C 82.835938 127.09375 82.535156 126.792969 82.535156 126.421875 M 82.535156 126.421875 "/>
<path style=" stroke:none;fill-rule:evenodd;fill:rgb(94.901961%,94.901961%,94.901961%);fill-opacity:1;" d="M 79.390625 80.40625 C 79.453125 80.46875 79.488281 80.554688 79.492188 80.644531 C 79.492188 80.734375 79.457031 80.820312 79.390625 80.882812 L 75.5 84.824219 L 73.84375 83.214844 C 73.710938 83.085938 73.707031 82.875 73.835938 82.738281 C 73.96875 82.605469 74.179688 82.605469 74.316406 82.734375 L 75.488281 83.875 L 78.910156 80.410156 C 78.972656 80.347656 79.058594 80.3125 79.148438 80.308594 C 79.238281 80.308594 79.324219 80.34375 79.390625 80.40625 M 79.390625 93.871094 C 79.523438 94 79.523438 94.214844 79.390625 94.34375 L 75.5 98.289062 L 73.84375 96.679688 C 73.710938 96.550781 73.707031 96.335938 73.835938 96.203125 C 73.96875 96.070312 74.179688 96.066406 74.316406 96.195312 L 75.488281 97.335938 L 78.910156 93.875 C 78.972656 93.8125 79.058594 93.773438 79.148438 93.773438 C 79.238281 93.773438 79.324219 93.808594 79.390625 93.871094 M 79.390625 107.332031 C 79.453125 107.394531 79.488281 107.480469 79.492188 107.570312 C 79.492188 107.660156 79.457031 107.746094 79.390625 107.808594 L 75.5 111.753906 L 73.84375 110.140625 C 73.726562 110.007812 73.730469 109.808594 73.855469 109.683594 C 73.980469 109.554688 74.179688 109.546875 74.316406 109.660156 L 75.488281 110.800781 L 78.910156 107.335938 C 78.972656 107.273438 79.058594 107.238281 79.148438 107.234375 C 79.238281 107.234375 79.324219 107.269531 79.390625 107.332031 M 79.390625 120.796875 C 79.523438 120.925781 79.523438 121.140625 79.390625 121.273438 L 75.5 125.210938 L 73.84375 123.605469 C 73.710938 123.472656 73.707031 123.261719 73.835938 123.125 C 73.898438 123.0625 73.984375 123.027344 74.074219 123.027344 C 74.164062 123.027344 74.25 123.0625 74.316406 123.125 L 75.488281 124.261719 L 78.910156 120.800781 C 78.972656 120.738281 79.058594 120.699219 79.148438 120.699219 C 79.238281 120.699219 79.324219 120.734375 79.390625 120.796875 M 79.390625 120.796875 "/>
<path style=" stroke:none;fill-rule:nonzero;fill:rgb(14.509805%,18.82353%,21.176471%);fill-opacity:1;" d="M 55.476562 14.742188 C 55.476562 14.335938 55.804688 14.003906 56.214844 14.003906 L 65.105469 14.003906 C 65.515625 14.003906 65.847656 14.335938 65.847656 14.742188 C 65.847656 14.9375 65.769531 15.125 65.628906 15.265625 C 65.492188 15.402344 65.300781 15.480469 65.105469 15.480469 L 56.214844 15.480469 C 56.019531 15.480469 55.832031 15.402344 55.691406 15.261719 C 55.550781 15.125 55.472656 14.9375 55.476562 14.742188 M 55.476562 17.691406 C 55.476562 17.285156 55.804688 16.957031 56.214844 16.957031 L 65.105469 16.957031 C 65.300781 16.957031 65.492188 17.03125 65.628906 17.171875 C 65.769531 17.308594 65.847656 17.496094 65.847656 17.691406 C 65.847656 17.890625 65.769531 18.078125 65.628906 18.214844 C 65.492188 18.351562 65.300781 18.429688 65.105469 18.429688 L 56.214844 18.429688 C 55.804688 18.429688 55.476562 18.101562 55.476562 17.691406 M 55.476562 20.640625 C 55.476562 20.234375 55.804688 19.90625 56.214844 19.90625 L 62.140625 19.90625 C 62.550781 19.90625 62.882812 20.234375 62.882812 20.640625 C 62.882812 21.050781 62.550781 21.378906 62.140625 21.378906 L 56.214844 21.378906 C 55.804688 21.378906 55.476562 21.050781 55.476562 20.640625 M 55.476562 20.640625 "/>
<path style=" stroke:none;fill-rule:evenodd;fill:rgb(14.509805%,18.82353%,21.176471%);fill-opacity:1;" d="M 69.554688 18.058594 C 69.761719 18.265625 69.761719 18.597656 69.554688 18.800781 L 65.847656 22.492188 L 63.992188 20.644531 C 63.808594 20.4375 63.816406 20.121094 64.015625 19.925781 C 64.210938 19.730469 64.527344 19.71875 64.738281 19.902344 L 65.847656 21.003906 L 68.808594 18.058594 C 69.015625 17.855469 69.351562 17.855469 69.554688 18.058594 M 69.554688 18.058594 "/>
<path style=" stroke:none;fill-rule:nonzero;fill:rgb(24.313726%,46.666667%,95.686275%);fill-opacity:1;" d="M 12.082031 33.695312 C 22.0625 39.921875 21.722656 35.042969 21.890625 34.367188 L 25.273438 35.882812 C 26.460938 36.386719 28.996094 37.902344 30.855469 49.175781 C 30.636719 49.4375 29.988281 49.898438 28.882812 50.097656 C 28.691406 50.847656 28.34375 51.507812 27.8125 52.039062 C 24.765625 55.070312 27.644531 64.996094 28.996094 76.273438 C 21.957031 82.195312 10.957031 74.140625 5.824219 71.394531 C 7.789062 68.65625 8.539062 58.550781 8.074219 52.613281 C 7.265625 52.777344 6.484375 52.847656 5.824219 52.882812 C 4.695312 48.953125 2.675781 40.597656 3.625 38.574219 C 4.574219 36.558594 9.660156 34.480469 12.082031 33.695312 M 12.082031 33.695312 "/>
<path style=" stroke:none;fill-rule:nonzero;fill:rgb(98.823529%,74.901962%,73.725492%);fill-opacity:1;" d="M 13.828125 132.652344 C 15.074219 132.324219 17.695312 125.945312 18.980469 124.367188 L 25.109375 127.214844 C 25.039062 127.359375 20.273438 133.652344 21.949219 135.515625 C 19.207031 136.707031 15.183594 133.769531 13.828125 132.652344 M 13.828125 132.652344 "/>
<path style=" stroke:none;fill-rule:nonzero;fill:rgb(45.882353%,61.56863%,96.078432%);fill-opacity:1;" d="M 21.753906 132.246094 C 20.457031 132.105469 20.566406 132.859375 19.140625 133.273438 C 16.429688 134.050781 17.121094 130.238281 15.355469 130.621094 C 14.257812 130.859375 12.574219 134.296875 11.941406 136.125 C 14.582031 138.101562 19.871094 141.484375 23.632812 143.484375 C 24.761719 144.085938 26.070312 144.847656 27.253906 144.367188 C 29.015625 143.652344 26.777344 139.957031 25.113281 137.816406 C 24.886719 137.347656 24.679688 136.878906 24.488281 136.445312 L 24.433594 136.320312 C 24.304688 136.03125 24.1875 135.738281 24.070312 135.453125 C 23.894531 135.015625 23.726562 134.597656 23.554688 134.210938 C 23.074219 133.132812 22.570312 132.332031 21.757812 132.242188 M 21.757812 132.242188 "/>
<path style=" stroke:none;fill-rule:evenodd;fill:rgb(14.509805%,18.82353%,21.176471%);fill-opacity:1;" d="M 22.652344 132.964844 C 22.382812 132.640625 22.089844 132.449219 21.734375 132.410156 C 21.425781 132.378906 21.214844 132.402344 21.046875 132.453125 C 20.882812 132.503906 20.730469 132.585938 20.59375 132.6875 L 20.46875 132.777344 C 20.1875 132.988281 19.835938 133.246094 19.1875 133.433594 C 18.472656 133.640625 17.953125 133.546875 17.554688 133.269531 C 17.171875 133.003906 16.933594 132.574219 16.742188 132.167969 L 16.609375 131.882812 C 16.5625 131.78125 16.511719 131.675781 16.460938 131.570312 C 16.382812 131.398438 16.289062 131.238281 16.175781 131.085938 C 16.089844 130.96875 15.976562 130.875 15.847656 130.8125 C 15.730469 130.761719 15.582031 130.742188 15.390625 130.785156 L 15.320312 130.457031 C 15.570312 130.402344 15.789062 130.417969 15.980469 130.5 C 16.167969 130.582031 16.320312 130.71875 16.445312 130.878906 C 16.566406 131.039062 16.667969 131.230469 16.765625 131.421875 C 16.816406 131.523438 16.867188 131.640625 16.917969 131.753906 C 16.964844 131.847656 17.003906 131.941406 17.046875 132.023438 C 17.238281 132.425781 17.445312 132.78125 17.75 132.996094 C 18.042969 133.199219 18.453125 133.292969 19.09375 133.109375 C 19.679688 132.941406 19.988281 132.714844 20.265625 132.511719 C 20.308594 132.476562 20.351562 132.445312 20.398438 132.417969 C 20.558594 132.300781 20.730469 132.195312 20.949219 132.128906 C 21.171875 132.0625 21.433594 132.042969 21.773438 132.078125 C 22.238281 132.128906 22.605469 132.382812 22.910156 132.75 C 23.21875 133.117188 23.46875 133.605469 23.710938 134.144531 C 23.855469 134.472656 24 134.824219 24.144531 135.1875 C 24.171875 135.253906 24.199219 135.320312 24.226562 135.386719 C 24.34375 135.675781 24.460938 135.964844 24.585938 136.253906 L 24.640625 136.375 M 24.230469 136.28125 C 24.132812 136.050781 24.039062 135.824219 23.949219 135.601562 C 23.925781 135.597656 23.902344 135.589844 23.875 135.585938 L 23.769531 135.5625 L 23.757812 135.558594 C 23.714844 135.546875 23.667969 135.539062 23.621094 135.527344 C 23.390625 135.472656 23.160156 135.429688 22.929688 135.398438 C 22.683594 135.359375 22.4375 135.351562 22.191406 135.371094 C 21.957031 135.390625 21.773438 135.453125 21.648438 135.550781 L 21.433594 135.292969 C 21.636719 135.128906 21.894531 135.0625 22.15625 135.035156 C 22.421875 135.007812 22.707031 135.027344 22.976562 135.0625 C 23.242188 135.097656 23.492188 135.152344 23.691406 135.199219 C 23.730469 135.207031 23.761719 135.214844 23.792969 135.222656 C 23.671875 134.921875 23.558594 134.636719 23.4375 134.367188 C 23.429688 134.363281 23.417969 134.363281 23.40625 134.363281 C 23.203125 134.335938 22.851562 134.285156 22.457031 134.265625 C 22.210938 134.25 21.960938 134.257812 21.710938 134.28125 C 21.472656 134.3125 21.277344 134.363281 21.152344 134.445312 L 20.96875 134.164062 C 21.160156 134.039062 21.414062 133.976562 21.671875 133.949219 C 21.9375 133.921875 22.207031 133.914062 22.476562 133.929688 C 22.777344 133.945312 23.066406 133.976562 23.277344 134.003906 C 23.078125 133.589844 22.875 133.234375 22.652344 132.964844 M 24.378906 136.621094 C 24.265625 136.625 24.128906 136.613281 23.992188 136.601562 C 23.949219 136.597656 23.902344 136.59375 23.851562 136.589844 C 23.683594 136.574219 23.507812 136.558594 23.324219 136.550781 C 23.09375 136.535156 22.863281 136.546875 22.636719 136.578125 C 22.425781 136.613281 22.246094 136.679688 22.113281 136.789062 L 21.902344 136.527344 C 22.097656 136.371094 22.339844 136.289062 22.582031 136.246094 C 22.832031 136.210938 23.085938 136.199219 23.335938 136.214844 C 23.53125 136.222656 23.71875 136.238281 23.890625 136.253906 C 23.933594 136.261719 23.980469 136.261719 24.023438 136.269531 L 24.230469 136.285156 M 24.382812 136.621094 C 24.511719 136.925781 24.65625 137.242188 24.804688 137.5625 C 24.460938 137.484375 24.113281 137.429688 23.761719 137.402344 C 23.511719 137.378906 23.253906 137.378906 23 137.414062 C 22.769531 137.445312 22.546875 137.511719 22.382812 137.644531 L 22.597656 137.90625 C 22.691406 137.828125 22.84375 137.773438 23.050781 137.746094 C 23.253906 137.714844 23.488281 137.714844 23.738281 137.734375 C 24.203125 137.773438 24.691406 137.875 25.011719 137.960938 C 25.832031 139.023438 26.78125 140.449219 27.3125 141.695312 C 27.585938 142.328125 27.738281 142.898438 27.730469 143.34375 C 27.722656 143.5625 27.675781 143.742188 27.589844 143.882812 C 27.507812 144.023438 27.378906 144.136719 27.1875 144.214844 L 27.316406 144.523438 C 27.554688 144.433594 27.75 144.269531 27.882812 144.054688 C 28.003906 143.851562 28.058594 143.609375 28.066406 143.351562 C 28.078125 142.832031 27.902344 142.210938 27.625 141.5625 C 27.070312 140.265625 26.09375 138.800781 25.257812 137.726562 M 20.03125 138.796875 C 17.863281 137.433594 15.742188 136.003906 13.671875 134.5 L 13.871094 134.230469 C 15.9375 135.726562 18.050781 137.152344 20.207031 138.511719 C 22.648438 140.035156 25.140625 141.441406 26.945312 142.109375 L 26.828125 142.421875 C 24.984375 141.742188 22.464844 140.324219 20.03125 138.796875 M 20.03125 138.796875 "/>
<path style=" stroke:none;fill-rule:nonzero;fill:rgb(98.823529%,74.901962%,73.725492%);fill-opacity:1;" d="M 7.460938 142.476562 C 8.449219 141.652344 8.121094 136.238281 8.613281 134.269531 L 15.378906 134.269531 C 15.378906 134.433594 13.726562 140.671875 16.039062 141.652344 C 14.058594 143.886719 9.164062 142.910156 7.460938 142.476562 M 7.460938 142.476562 "/>
<path style=" stroke:none;fill-rule:nonzero;fill:rgb(45.882353%,61.56863%,96.078432%);fill-opacity:1;" d="M 14.46875 138.769531 C 13.234375 139.191406 13.65625 139.828125 12.535156 140.800781 C 10.414062 142.648438 9.417969 138.898438 7.984375 139.988281 C 7.085938 140.667969 7.023438 144.492188 7.226562 146.414062 C 10.457031 147.097656 16.6875 147.9375 20.945312 148.167969 C 22.222656 148.238281 23.734375 148.378906 24.605469 147.445312 C 25.902344 146.058594 22.300781 143.648438 19.878906 142.410156 C 19.476562 142.078125 19.089844 141.742188 18.730469 141.429688 L 18.628906 141.339844 C 18.394531 141.128906 18.160156 140.917969 17.929688 140.703125 C 17.585938 140.382812 17.257812 140.074219 16.9375 139.796875 C 16.046875 139.023438 15.246094 138.507812 14.46875 138.769531 M 14.46875 138.769531 "/>
<path style=" stroke:none;fill-rule:evenodd;fill:rgb(14.509805%,18.82353%,21.176471%);fill-opacity:1;" d="M 15.589844 139.042969 C 15.207031 138.863281 14.859375 138.816406 14.527344 138.929688 C 14.234375 139.03125 14.046875 139.136719 13.914062 139.253906 C 13.785156 139.367188 13.699219 139.5 13.605469 139.660156 C 13.585938 139.707031 13.558594 139.75 13.53125 139.796875 C 13.367188 140.105469 13.15625 140.488281 12.648438 140.929688 C 12.085938 141.417969 11.578125 141.550781 11.101562 141.46875 C 10.640625 141.382812 10.242188 141.09375 9.894531 140.808594 C 9.808594 140.738281 9.730469 140.671875 9.652344 140.605469 C 9.566406 140.535156 9.480469 140.460938 9.386719 140.382812 C 9.242188 140.265625 9.089844 140.15625 8.921875 140.066406 C 8.796875 139.996094 8.65625 139.957031 8.507812 139.953125 C 8.355469 139.964844 8.207031 140.023438 8.085938 140.125 L 7.878906 139.855469 C 8.082031 139.699219 8.289062 139.625 8.496094 139.617188 C 8.703125 139.613281 8.898438 139.671875 9.078125 139.765625 C 9.257812 139.859375 9.433594 139.988281 9.601562 140.125 C 9.6875 140.195312 9.785156 140.277344 9.878906 140.359375 L 10.109375 140.550781 C 10.453125 140.835938 10.792969 141.070312 11.160156 141.136719 C 11.511719 141.199219 11.925781 141.109375 12.425781 140.675781 C 12.886719 140.273438 13.070312 139.941406 13.234375 139.636719 C 13.261719 139.589844 13.285156 139.542969 13.3125 139.496094 C 13.410156 139.324219 13.519531 139.15625 13.691406 139.003906 C 13.863281 138.851562 14.09375 138.722656 14.414062 138.613281 C 14.859375 138.460938 15.300781 138.535156 15.734375 138.742188 C 16.164062 138.945312 16.601562 139.277344 17.050781 139.671875 C 17.320312 139.90625 17.597656 140.164062 17.886719 140.429688 C 17.9375 140.480469 17.992188 140.53125 18.046875 140.582031 C 18.273438 140.789062 18.503906 141 18.742188 141.210938 L 18.84375 141.300781 M 18.429688 141.386719 C 18.246094 141.21875 18.0625 141.054688 17.882812 140.890625 L 17.8125 140.90625 C 17.78125 140.914062 17.742188 140.917969 17.707031 140.929688 L 17.691406 140.929688 C 17.417969 140.984375 17.144531 141.054688 16.875 141.132812 C 16.636719 141.203125 16.410156 141.296875 16.195312 141.417969 C 15.992188 141.535156 15.851562 141.667969 15.777344 141.816406 L 15.476562 141.664062 C 15.589844 141.4375 15.792969 141.261719 16.023438 141.128906 C 16.253906 140.996094 16.519531 140.890625 16.777344 140.8125 C 17.03125 140.730469 17.28125 140.675781 17.484375 140.632812 C 17.519531 140.625 17.550781 140.617188 17.582031 140.609375 C 17.347656 140.390625 17.121094 140.183594 16.898438 139.988281 L 16.863281 139.996094 C 16.671875 140.054688 16.332031 140.15625 15.96875 140.304688 C 15.734375 140.398438 15.511719 140.507812 15.296875 140.636719 C 15.09375 140.761719 14.941406 140.890625 14.859375 141.019531 L 14.574219 140.839844 C 14.695312 140.648438 14.898438 140.488281 15.117188 140.347656 C 15.339844 140.210938 15.597656 140.09375 15.839844 139.996094 C 16.121094 139.882812 16.398438 139.789062 16.597656 139.726562 C 16.242188 139.429688 15.910156 139.195312 15.589844 139.042969 M 18.710938 141.632812 C 18.59375 141.6875 18.472656 141.738281 18.351562 141.78125 C 18.308594 141.792969 18.261719 141.808594 18.21875 141.828125 C 18.058594 141.882812 17.890625 141.941406 17.71875 142.015625 C 17.5 142.105469 17.289062 142.207031 17.113281 142.328125 C 16.9375 142.449219 16.800781 142.582031 16.726562 142.734375 L 16.421875 142.589844 C 16.53125 142.367188 16.714844 142.191406 16.917969 142.050781 C 17.125 141.910156 17.363281 141.796875 17.589844 141.703125 C 17.769531 141.628906 17.949219 141.5625 18.109375 141.507812 C 18.152344 141.492188 18.195312 141.476562 18.238281 141.460938 C 18.308594 141.433594 18.375 141.410156 18.429688 141.386719 M 18.710938 141.632812 C 18.960938 141.851562 19.222656 142.082031 19.496094 142.308594 C 19.148438 142.378906 18.8125 142.476562 18.480469 142.597656 C 18.238281 142.6875 17.996094 142.800781 17.796875 142.929688 C 17.597656 143.054688 17.425781 143.210938 17.335938 143.402344 L 17.636719 143.546875 C 17.691406 143.4375 17.808594 143.324219 17.980469 143.210938 C 18.175781 143.089844 18.382812 142.988281 18.597656 142.914062 C 19.003906 142.765625 19.421875 142.652344 19.851562 142.582031 C 21.046875 143.199219 22.511719 144.089844 23.523438 144.996094 C 24.035156 145.457031 24.417969 145.90625 24.597656 146.316406 C 24.6875 146.515625 24.722656 146.699219 24.703125 146.867188 C 24.683594 147.042969 24.605469 147.203125 24.480469 147.332031 L 24.726562 147.558594 C 24.914062 147.363281 25.015625 147.136719 25.039062 146.898438 C 25.066406 146.660156 25.011719 146.417969 24.90625 146.179688 C 24.699219 145.707031 24.273438 145.214844 23.75 144.746094 C 22.695312 143.804688 21.183594 142.886719 19.972656 142.265625 M 15.691406 145.433594 C 12.832031 145.078125 9.984375 144.585938 8.105469 144.214844 L 8.167969 143.886719 C 10.042969 144.253906 12.878906 144.742188 15.730469 145.097656 C 18.589844 145.457031 21.445312 145.679688 23.363281 145.527344 L 23.394531 145.863281 C 21.433594 146.019531 18.546875 145.792969 15.691406 145.433594 M 15.691406 145.433594 "/>
<path style=" stroke:none;fill-rule:nonzero;fill:rgb(14.509805%,18.82353%,21.176471%);fill-opacity:1;" d="M 15.386719 136.074219 C 16.234375 121.707031 17.585938 109.980469 17.851562 105.382812 C 17.984375 103.050781 18.917969 95.566406 20.019531 89.957031 C 22.074219 92.085938 24.527344 101.566406 26.722656 104.070312 C 22.660156 111.109375 21.6875 113.800781 17.078125 127.09375 C 17.464844 128.296875 20.304688 129.765625 23.335938 130.292969 L 23.398438 130.195312 C 26.507812 125.210938 35.832031 110.265625 35.832031 104.070312 C 35.832031 98.65625 30.441406 83.722656 27.746094 76.828125 C 23.523438 78.273438 12.132812 74.421875 7.625 72.230469 C 6.472656 74.667969 6.011719 80.371094 7.175781 85.855469 L 8.453125 105.382812 C 7.625 114.472656 7.605469 115.988281 8.113281 136.074219 C 10.425781 136.949219 14.066406 137.121094 15.386719 136.074219 M 15.386719 136.074219 "/>
<path style=" stroke:none;fill-rule:evenodd;fill:rgb(94.901961%,94.901961%,94.901961%);fill-opacity:1;" d="M 24.441406 82.667969 C 24.476562 82.753906 24.441406 82.851562 24.355469 82.890625 L 21.8125 84.015625 C 21.554688 84.507812 21.285156 85.300781 21.015625 86.308594 C 20.734375 87.351562 20.453125 88.613281 20.183594 89.988281 C 20.121094 88.542969 20.402344 87.277344 20.6875 86.222656 C 20.96875 85.175781 21.253906 84.332031 21.539062 83.804688 L 21.566406 83.753906 L 24.214844 82.585938 C 24.300781 82.546875 24.402344 82.585938 24.441406 82.667969 M 24.441406 82.667969 "/>
<path style=" stroke:none;fill-rule:nonzero;fill:rgb(98.823529%,74.901962%,73.725492%);fill-opacity:1;" d="M 12.597656 33.941406 C 15.253906 32.917969 15.375 28.300781 15.105469 26.121094 C 15.480469 27.046875 17.960938 31.550781 21.613281 31.613281 C 21.628906 32.179688 21.722656 33.226562 21.96875 34.019531 C 22.136719 34.554688 22.289062 35.15625 22.027344 35.652344 C 20.246094 39.019531 15.105469 36.019531 12.597656 33.941406 M 12.597656 33.941406 "/>
<path style=" stroke:none;fill-rule:nonzero;fill:rgb(98.823529%,74.901962%,73.725492%);fill-opacity:1;" d="M 16.324219 22.617188 C 20.65625 22.140625 22.082031 19.027344 22.277344 17.414062 C 23.25 17.683594 25.257812 18.730469 25.476562 20.726562 C 25.746094 23.222656 26.828125 30.640625 22.628906 31.511719 C 22.28125 31.585938 21.941406 31.621094 21.613281 31.613281 C 17.960938 31.550781 15.480469 27.046875 15.105469 26.121094 C 12.9375 25.113281 12.734375 22.816406 13.546875 22.007812 C 14.199219 21.363281 15.671875 22.140625 16.324219 22.617188 M 16.324219 22.617188 "/>
<path style=" stroke:none;fill-rule:evenodd;fill:rgb(14.509805%,18.82353%,21.176471%);fill-opacity:1;" d="M 14.953125 23.574219 C 14.742188 23.375 14.5 23.21875 14.234375 23.109375 L 14.351562 22.792969 C 14.578125 22.878906 14.902344 23.0625 15.183594 23.328125 C 15.46875 23.59375 15.71875 23.960938 15.75 24.425781 L 15.410156 24.445312 C 15.390625 24.097656 15.199219 23.804688 14.953125 23.574219 M 17.253906 29.082031 C 18.367188 30.316406 19.859375 31.414062 21.613281 31.445312 L 21.609375 31.78125 C 19.710938 31.746094 18.140625 30.566406 17.003906 29.300781 C 15.867188 28.039062 15.144531 26.664062 14.949219 26.183594 L 15.265625 26.058594 C 15.445312 26.507812 16.148438 27.847656 17.253906 29.082031 M 17.253906 29.082031 "/>
<path style=" stroke:none;fill-rule:nonzero;fill:rgb(14.509805%,18.82353%,21.176471%);fill-opacity:1;" d="M 16.324219 22.617188 C 20.65625 22.140625 22.082031 19.027344 22.277344 17.414062 C 23.25 17.683594 25.257812 18.730469 25.476562 20.726562 C 25.746094 23.222656 26.828125 30.640625 22.628906 31.515625 C 22.292969 31.585938 21.953125 31.617188 21.613281 31.613281 C 21.628906 32.1875 21.730469 33.570312 21.984375 34.367188 C 24.058594 35.355469 26.28125 36.234375 27.058594 37.398438 C 27.582031 38.269531 28.410156 39.921875 28.605469 40.222656 L 29.984375 38.269531 C 31.035156 36.191406 29.976562 34.363281 28.660156 32.726562 C 27.304688 31.042969 28.59375 29.964844 29.203125 28.078125 C 29.8125 26.1875 28.527344 24.636719 27.644531 23.421875 C 26.761719 22.210938 27.03125 20.726562 26.761719 17.285156 C 26.542969 14.539062 22.242188 13.308594 20.121094 13.039062 C 17.707031 12.792969 12.585938 13.472656 11.445312 18.164062 C 10.566406 22.007812 11.933594 22.355469 9.007812 23.289062 C 5.417969 24.433594 9.007812 27.46875 6.636719 29.222656 C 5.257812 30.347656 3.328125 33.296875 6.636719 36.101562 L 12.597656 33.941406 C 15.253906 32.917969 15.375 28.300781 15.105469 26.121094 C 12.9375 25.113281 12.734375 22.816406 13.546875 22.007812 C 14.199219 21.363281 15.671875 22.140625 16.324219 22.617188 M 16.324219 22.617188 "/>
<path style=" stroke:none;fill-rule:evenodd;fill:rgb(14.509805%,18.82353%,21.176471%);fill-opacity:1;" d="M 19.539062 22.445312 C 19.253906 22.878906 19.070312 23.488281 19.070312 24.167969 C 19.070312 24.84375 19.253906 25.453125 19.539062 25.886719 C 19.824219 26.320312 20.203125 26.558594 20.59375 26.558594 C 20.988281 26.558594 21.363281 26.320312 21.652344 25.886719 C 21.9375 25.453125 22.121094 24.84375 22.121094 24.167969 C 22.121094 23.488281 21.9375 22.878906 21.652344 22.445312 C 21.363281 22.015625 20.988281 21.769531 20.59375 21.769531 C 20.203125 21.769531 19.824219 22.015625 19.539062 22.445312 M 19.257812 22.261719 C 19.582031 21.769531 20.054688 21.433594 20.59375 21.433594 C 21.136719 21.433594 21.609375 21.769531 21.933594 22.261719 C 22.226562 22.699219 22.414062 23.285156 22.453125 23.925781 C 22.570312 23.890625 22.6875 23.867188 22.808594 23.855469 C 22.933594 23.839844 23.074219 23.84375 23.210938 23.886719 C 23.242188 23.328125 23.402344 22.816406 23.648438 22.433594 C 23.925781 22 24.324219 21.703125 24.796875 21.703125 C 25.269531 21.703125 25.667969 22 25.945312 22.433594 C 26.222656 22.867188 26.390625 23.457031 26.390625 24.097656 C 26.390625 24.738281 26.222656 25.328125 25.945312 25.765625 C 25.667969 26.195312 25.269531 26.492188 24.796875 26.492188 C 24.332031 26.492188 23.941406 26.207031 23.664062 25.785156 C 23.398438 25.382812 23.230469 24.84375 23.207031 24.25 C 23.121094 24.195312 22.996094 24.175781 22.839844 24.191406 C 22.710938 24.203125 22.582031 24.234375 22.457031 24.28125 C 22.4375 24.972656 22.242188 25.601562 21.933594 26.070312 C 21.609375 26.566406 21.136719 26.894531 20.59375 26.894531 C 20.054688 26.894531 19.582031 26.566406 19.257812 26.070312 C 18.925781 25.578125 18.730469 24.898438 18.730469 24.167969 C 18.730469 23.429688 18.925781 22.757812 19.257812 22.261719 M 23.933594 22.617188 C 23.695312 22.988281 23.542969 23.511719 23.542969 24.097656 L 23.542969 24.164062 C 23.554688 24.734375 23.710938 25.242188 23.945312 25.601562 C 24.183594 25.960938 24.488281 26.15625 24.796875 26.15625 C 25.113281 26.15625 25.421875 25.957031 25.660156 25.582031 C 25.898438 25.210938 26.050781 24.6875 26.050781 24.097656 C 26.050781 23.511719 25.898438 22.988281 25.660156 22.617188 C 25.421875 22.242188 25.113281 22.042969 24.796875 22.042969 C 24.480469 22.042969 24.171875 22.242188 23.933594 22.617188 M 23.933594 22.617188 "/>
<path style=" stroke:none;fill-rule:nonzero;fill:rgb(14.509805%,18.82353%,21.176471%);fill-opacity:1;" d="M 21.882812 23.832031 C 21.882812 24.164062 21.703125 24.433594 21.476562 24.433594 C 21.253906 24.433594 21.070312 24.164062 21.070312 23.832031 C 21.070312 23.492188 21.253906 23.222656 21.476562 23.222656 C 21.703125 23.222656 21.882812 23.492188 21.882812 23.832031 M 25.542969 23.964844 C 25.542969 24.296875 25.359375 24.570312 25.136719 24.570312 C 24.910156 24.570312 24.726562 24.296875 24.726562 23.964844 C 24.726562 23.628906 24.910156 23.355469 25.136719 23.355469 C 25.359375 23.355469 25.542969 23.628906 25.542969 23.964844 M 25.542969 23.964844 "/>
<path style=" stroke:none;fill-rule:evenodd;fill:rgb(14.509805%,18.82353%,21.176471%);fill-opacity:1;" d="M 19.015625 23.117188 L 16.304688 22.78125 L 16.347656 22.445312 L 19.058594 22.785156 Z M 19.015625 23.117188 "/>
<path style=" stroke:none;fill-rule:nonzero;fill:rgb(98.823529%,74.901962%,73.725492%);fill-opacity:1;" d="M 24.234375 31.832031 C 25.078125 32.394531 25.742188 32.902344 24.574219 32.84375 C 25.925781 33.453125 25.484375 34.425781 24.402344 34.019531 C 25.757812 34.527344 25.449219 35.90625 24.234375 35.367188 C 22.710938 34.691406 23.726562 35.871094 23.558594 36.542969 C 23.386719 37.21875 22.730469 37.574219 22.660156 37.902344 C 20.125 49.851562 19.496094 62.292969 11.039062 59.097656 C 9.042969 58.339844 7.40625 56.015625 6.082031 52.863281 C 7.84375 52.753906 10.300781 52.378906 11.886719 50.648438 L 13.234375 53.382812 C 15.386719 46.148438 16.402344 47.664062 19.664062 36.039062 C 19.390625 34.40625 18.898438 33.433594 19.257812 32.675781 C 19.160156 32.339844 19.160156 31.160156 18.820312 30.488281 C 18.484375 29.816406 20.144531 30.152344 20.160156 31.832031 C 21.25 31.214844 22.929688 30.96875 24.234375 31.832031 M 24.234375 31.832031 "/>
<path style=" stroke:none;fill-rule:evenodd;fill:rgb(14.509805%,18.82353%,21.176471%);fill-opacity:1;" d="M 18.945312 30.335938 C 18.945312 30.347656 18.953125 30.371094 18.972656 30.410156 C 19.152344 30.777344 19.242188 31.265625 19.296875 31.6875 C 19.316406 31.835938 19.332031 31.976562 19.34375 32.109375 L 19.363281 32.265625 C 19.382812 32.4375 19.402344 32.5625 19.417969 32.628906 L 19.4375 32.691406 L 19.410156 32.746094 C 19.257812 33.070312 19.277344 33.457031 19.390625 33.996094 C 19.425781 34.175781 19.476562 34.378906 19.53125 34.597656 C 19.628906 35.007812 19.746094 35.480469 19.832031 36.011719 L 19.839844 36.050781 L 19.832031 36.085938 C 18.195312 41.902344 17.121094 44.4375 16.1875 46.429688 C 16.058594 46.707031 15.929688 46.972656 15.800781 47.234375 C 15.03125 48.851562 14.316406 50.332031 13.398438 53.433594 L 13.070312 53.335938 C 14.003906 50.210938 14.722656 48.707031 15.5 47.089844 C 15.625 46.828125 15.753906 46.5625 15.882812 46.285156 C 16.804688 44.324219 17.871094 41.808594 19.496094 36.03125 C 19.40625 35.523438 19.300781 35.089844 19.207031 34.699219 C 19.152344 34.472656 19.101562 34.265625 19.058594 34.0625 C 18.949219 33.539062 18.902344 33.074219 19.078125 32.65625 C 19.054688 32.539062 19.039062 32.421875 19.027344 32.304688 L 19.011719 32.144531 C 18.996094 32.015625 18.980469 31.875 18.960938 31.726562 C 18.90625 31.308594 18.824219 30.871094 18.667969 30.558594 C 18.613281 30.464844 18.597656 30.351562 18.617188 30.242188 C 18.644531 30.136719 18.726562 30.050781 18.832031 30.015625 C 18.925781 29.988281 19.027344 29.988281 19.125 30.007812 C 19.226562 30.027344 19.332031 30.070312 19.441406 30.128906 C 19.824219 30.34375 20.226562 30.816406 20.3125 31.5625 C 21.4375 31.015625 23.046875 30.84375 24.328125 31.691406 L 24.140625 31.972656 C 22.90625 31.152344 21.296875 31.382812 20.242188 31.980469 L 19.992188 32.121094 L 19.988281 31.835938 C 19.984375 31.050781 19.597656 30.605469 19.273438 30.421875 C 19.207031 30.382812 19.132812 30.355469 19.058594 30.339844 M 21.867188 32.859375 C 22.15625 32.621094 22.640625 32.503906 23.589844 32.679688 C 23.625 32.683594 23.6875 32.6875 23.78125 32.691406 C 23.871094 32.691406 23.980469 32.6875 24.082031 32.6875 C 24.140625 32.683594 24.203125 32.679688 24.265625 32.679688 C 24.402344 32.675781 24.527344 32.671875 24.582031 32.675781 L 24.5625 33.011719 C 24.523438 33.007812 24.425781 33.011719 24.300781 33.015625 C 24.238281 33.019531 24.167969 33.019531 24.089844 33.019531 C 23.984375 33.023438 23.875 33.027344 23.777344 33.027344 C 23.695312 33.023438 23.609375 33.019531 23.527344 33.007812 C 22.613281 32.84375 22.253906 32.980469 22.078125 33.121094 C 21.984375 33.195312 21.929688 33.285156 21.867188 33.378906 C 21.867188 33.386719 21.867188 33.386719 21.863281 33.394531 C 21.808594 33.480469 21.734375 33.601562 21.601562 33.667969 L 21.449219 33.367188 C 21.484375 33.347656 21.515625 33.3125 21.582031 33.203125 L 21.585938 33.195312 C 21.644531 33.101562 21.726562 32.972656 21.863281 32.859375 M 22.757812 33.878906 C 23.253906 33.707031 23.875 33.644531 24.460938 33.863281 L 24.34375 34.179688 C 23.847656 33.996094 23.3125 34.042969 22.867188 34.195312 C 22.648438 34.273438 22.453125 34.375 22.300781 34.480469 C 22.148438 34.589844 22.054688 34.691406 22.015625 34.769531 L 21.714844 34.617188 C 21.789062 34.472656 21.933594 34.328125 22.105469 34.207031 C 22.308594 34.066406 22.527344 33.957031 22.757812 33.878906 M 25.164062 38.445312 C 26.433594 39.699219 27.542969 41.632812 28.304688 43.707031 C 29.0625 45.773438 29.488281 48.003906 29.121094 49.820312 C 29.136719 48.027344 28.738281 45.867188 27.984375 43.824219 C 27.234375 41.78125 26.148438 39.878906 25.144531 38.683594 M 10.695312 43.179688 C 11.203125 43.390625 11.433594 43.804688 11.636719 44.292969 C 11.84375 44.789062 12.023438 45.386719 12.1875 46.011719 C 12.507812 47.257812 12.734375 48.617188 12.847656 49.492188 L 12.855469 49.546875 L 12.832031 49.59375 C 11.296875 52.511719 7.914062 52.9375 5.832031 53.046875 C 7.894531 52.601562 11.054688 52.175781 12.507812 49.480469 C 12.355469 48.339844 12.136719 47.210938 11.859375 46.09375 C 11.699219 45.476562 11.519531 44.894531 11.324219 44.421875 C 11.121094 43.9375 10.917969 43.589844 10.710938 43.414062 M 27.933594 51.917969 C 27.996094 51.984375 27.996094 52.089844 27.933594 52.15625 C 27.210938 52.871094 26.828125 54.011719 26.691406 55.535156 C 26.554688 57.050781 26.667969 58.910156 26.921875 61.042969 C 27.160156 63.042969 27.519531 65.269531 27.902344 67.652344 C 27.925781 67.808594 27.953125 67.96875 27.980469 68.128906 C 28.390625 70.691406 28.824219 73.429688 29.164062 76.25 C 28.492188 73.476562 28.058594 70.746094 27.644531 68.179688 C 27.621094 68.023438 27.59375 67.863281 27.566406 67.703125 C 27.183594 65.320312 26.824219 63.089844 26.585938 61.082031 C 26.332031 58.945312 26.214844 57.054688 26.355469 55.503906 C 26.492188 53.953125 26.886719 52.71875 27.691406 51.917969 M 27.933594 51.917969 "/>
<path style=" stroke:none;fill-rule:nonzero;fill:rgb(98.823529%,74.901962%,73.725492%);fill-opacity:1;" d="M 19.785156 57.59375 C 26.550781 56.246094 28.75 55.742188 30.347656 54.734375 C 31.925781 54.246094 31.261719 51.285156 30.578125 49.429688 C 30.25 49.671875 29.683594 49.957031 28.882812 50.09375 C 28.714844 50.75 28.429688 51.332031 28.011719 51.820312 C 27.90625 51.835938 27.808594 51.855469 27.734375 51.871094 C 24.519531 52.207031 24.011719 53.382812 18.511719 55.117188 C 18.058594 55.15625 16.941406 54.78125 15.464844 54.226562 C 12.34375 53.046875 12.175781 56.851562 12.175781 57.929688 C 12.175781 58.433594 12.082031 58.433594 12.589844 58.433594 C 12.648438 58.835938 13.105469 58.9375 13.1875 58.265625 C 13.140625 58.667969 13.023438 59.109375 13.699219 59.109375 C 14.035156 59.109375 13.4375 55.570312 15.464844 57.085938 C 17.085938 58.296875 19.277344 58.097656 19.785156 57.59375 M 19.785156 57.59375 "/>
<path style=" stroke:none;fill-rule:evenodd;fill:rgb(14.509805%,18.82353%,21.176471%);fill-opacity:1;" d="M 22.847656 28.164062 C 22.566406 28.15625 22.28125 28.171875 22.003906 28.207031 C 22.261719 27.835938 22.5625 27.820312 22.863281 27.828125 C 23.140625 27.839844 23.417969 27.882812 23.597656 28 C 23.679688 28.054688 23.699219 28.160156 23.644531 28.234375 C 23.316406 28.21875 23.121094 28.175781 22.847656 28.164062 M 22.847656 28.164062 "/>
</g>
</svg>
