<svg xmlns="http://www.w3.org/2000/svg" width="px" height="px" viewBox="0 0 387 258"><defs><clipPath id="a"><path d="M219.293 0h54.73v38h-54.73Zm0 0"/></clipPath></defs><path d="M6.133 37.934c-.649-1.649 1.465-2.211 4.226-2.871 5.34-1.282 13.614-1.813 15.149-1.668 8.347.656 16.445 2.644 24.332 5.382 11.906 4.141 23.332 9.985 34.445 15.59 14.418 7.246 28.496 15.348 42.43 23.805 25.898 15.719 51.105 32.996 76.086 49.96 2.52 1.712 5.012 3.458 7.57 5.09 3.867 2.465 7.824 4.723 11.742 7.067a1.049 1.049 0 1 0 1.184-1.734c-5.192-3.91-10.293-7.946-15.59-11.801a1176 1176 0 0 0-64.75-43.899c-18.52-11.68-37.523-22.449-56.98-31.914C74.64 45.45 62.984 39.734 50.87 35.734c-8.172-2.699-16.543-4.625-25.16-5.18-1.633-.081-10.523.395-15.988 2.43-3.57 1.325-5.61 3.336-4.317 5.325a.415.415 0 0 0 .551.175c.2-.109.277-.351.176-.55m0 0" style="stroke:none;fill-rule:evenodd;fill:#ff6d4d;fill-opacity:1"/><path d="m198.273 121.645-.03.035c-.305.515 1.667 1.32 1.765 1.398a146 146 0 0 0 11.324 8.055c5.828 3.738 11.895 7.125 17.73 10.773 9.676 6 19.231 12.16 28.762 18.336 22.278 14.442 44.328 29.156 66.586 43.723 7.543 4.887 17.563 11.629 27.36 17.406 6.921 4.078 13.734 7.691 19.585 9.742 9.606 3.367 14.31.157 15.075-4.644.656-4.094-1.868-9.883-6.606-14.465a.75.75 0 0 0-1.058-.063.76.76 0 0 0-.063 1.067c3.387 4.394 4.867 9.347 4.09 12.754-.727 3.152-3.879 4.187-10.3 2.039-5.7-1.914-12.372-5.278-19.095-9.207-9.773-5.703-19.66-12.551-27.144-17.457-19.117-12.43-38-25.098-57.152-37.383a1417 1417 0 0 0-38.75-23.969c-6.926-4.062-14.055-7.926-20.993-12.043-2.972-1.762-5.922-3.535-8.777-5.46-.105-.067-1.383-1.044-1.937-1.329-.348-.18-.622-.094-.7-.02a.405.405 0 0 0 .328.71m0 0" style="stroke:none;fill-rule:evenodd;fill:#ff6d4d;fill-opacity:1"/><path d="M263.969 142.594a.4.4 0 0 0-.125-.094c-.028-.031-.102.094-.121.29-.22.218-.278.452-.223.452q.136.058.266.028c.074.23.226.472.535.66 1.074.664 3.11 1.273 3.601 1.449l8.93 3.23a384 384 0 0 1 14.996 6.235 362 362 0 0 1 14.703 6.851c14.645 7.07 32.559 16.957 48.094 28.543 6.121 4.567 11.762 9.508 16.906 14.434 3.715 3.562 7.23 7.039 10.137 10.773a1.047 1.047 0 0 0 1.719-1.195c-2.563-4.156-5.567-8.316-9.184-12.21-4.976-5.352-10.98-10.231-17.277-14.9-15.754-11.69-34.082-21.402-48.985-28.41a339 339 0 0 0-15.023-6.476 362 362 0 0 0-15.3-5.754l-9.13-2.969c-.496-.133-2.425-.941-3.656-1.101a1.3 1.3 0 0 0-.863.164m0 0" style="stroke:none;fill-rule:evenodd;fill:#ff6d4d;fill-opacity:1"/><path d="M259.945 144.398c-.09.418.98 1.489 2.89 2.418 3.966 1.93 11.259 4.04 12.505 4.516 9.887 3.61 19.773 7.785 29.437 12.352 6.457 3.054 12.82 6.261 18.973 9.695.063.031.137.012.168-.043a.126.126 0 0 0-.043-.172c-7.535-4.578-15.371-8.906-23.41-12.816-8.059-3.918-16.313-7.403-24.543-10.567l-15.164-5.297a.417.417 0 0 0-.36-.453.415.415 0 0 0-.453.367M328.016 176.203l16.144 9.856c7.55 5.062 18.27 11.918 26.738 20.004 4.473 4.265 8.114 8.976 10.676 13.777.696 1.308 1.406 2.562 1.926 3.898a.734.734 0 1 0 1.41-.41c-.3-1.508-.683-3.008-1.3-4.46-2.247-5.24-6.473-9.981-11.176-14.419-8.625-8.113-19.582-14.867-27.278-19.894-1.922-1.2-9.18-5.34-13.652-7.578-2.188-1.098-3.852-1.563-4.05-1.368a.408.408 0 1 0 .562.594M260.227 150.645a.3.3 0 0 1 .078.097c-.594-.015-.825.52-.496.594a.407.407 0 0 0 .527-.234.39.39 0 0 0-.031-.36h.007l.075.008c1.746 1.11-.707.59-.707.59s.582.547 1.25 1c1.836 1.242 5.218 2.941 6.105 3.293l17.254 6.894a434 434 0 0 1 23.313 10.696c7.734 3.808 15.359 7.824 22.46 12.39a.15.15 0 0 0 .2-.035c.043-.066.027-.16-.04-.2a195 195 0 0 0-21.882-13.589c-7.64-4.078-15.555-7.64-23.297-11.02l-17.414-6.742c-1.012-.328-5.168-2.425-6.848-3.172a1.3 1.3 0 0 0-.394-.105za.5.5 0 0 0-.122-.07Zm0 0" style="stroke:none;fill-rule:evenodd;fill:#ff6d4d;fill-opacity:1"/><path d="M340.293 192.59a.47.47 0 0 0-.2.164c-.456.617 2.098 1.703 2.2 1.777l9.48 6.219a108.7 108.7 0 0 1 16.082 13.121c3.938 3.902 7.34 8.262 10.602 12.676.832 1.125 1.734 2.168 2.547 3.3a.646.646 0 0 0 1.125-.636c-.57-1.316-1.11-2.629-1.832-3.867-2.824-4.895-6.715-9.16-10.8-13.145-5.095-4.969-10.845-9.277-16.716-13l-9.883-5.61-3.074-1.671a.41.41 0 0 0-.101.57c.129.184.386.23.57.102m0 0" style="stroke:none;fill-rule:evenodd;fill:#ff6d4d;fill-opacity:1"/><path d="M263.64 159.234c4.118 1.422 9.016 3.516 14.544 5.903 16.125 6.976 37.171 17.332 55.515 29.144 14.965 9.637 28.07 20.168 35.598 29.973.637.832 1.133 1.742 1.824 2.453.559.578 1.152.848 1.75 1.34a.497.497 0 0 0 .86-.5c-.13-.79-.137-1.473-.446-2.246-.394-.969-1.137-1.797-1.789-2.696-7.43-10.19-21.074-20.761-36.41-30.492-18.547-11.761-39.668-22.425-56.168-28.781a151 151 0 0 0-15.031-4.879.41.41 0 0 0-.512.27.41.41 0 0 0 .266.511M385.848 225.273a.4.4 0 0 0-.051-.156c-.004-.02-.75-.027-.852.758-.082.688-.207 2.066-1.035 3.191l-5.46 8.653c-3.509 4.703-9.024 10.351-15.227 13.824-2 1.121-4.086 1.945-6.168 2.574-2.168.653-4.305 1.14-6.535 1a.995.995 0 0 0-.305 1.969c2.504.621 5.07.723 7.633.219 2.414-.477 4.757-1.532 7.03-2.782 6.661-3.66 12.54-9.742 16.294-14.78 1.293-1.747 2.558-3.548 3.617-5.462a33.5 33.5 0 0 0 1.848-4.011c.332-1.133.496-2.31.207-3.243-.27-.867-.668-1.355-.883-1.64a.4.4 0 0 0-.113-.114m0 0" style="stroke:none;fill-rule:evenodd;fill:#ff6d4d;fill-opacity:1"/><path d="M357.504 255.883c-.047-.258-.086-.438-.086-.137-.004.645-2.242.04-2.39.016l-5.114-.617-13.348-2.7c-6.648-1.68-13.218-3.754-19.703-6.07-6.496-2.324-12.902-4.898-19.203-7.621-19.004-8.207-37.965-17.723-56.48-28.055-9.2-5.137-18.239-10.562-27.22-15.953-9.1-5.469-18.144-10.89-26.905-16.539a.83.83 0 1 0-.93 1.371c8.5 6.086 17.172 12.164 26.16 17.883 8.875 5.648 18.055 10.941 27.297 16.101 18.61 10.383 37.723 19.848 56.852 28.051 6.37 2.723 12.843 5.313 19.421 7.617 6.582 2.313 13.266 4.344 20.02 5.993l13.71 2.59 5.485.101c.125-.016 1.121-.168 1.88-.574 1.007-.543 1.19-1.555 1.058-1.563a.4.4 0 0 0-.504.106m0 0" style="stroke:none;fill-rule:evenodd;fill:#ff6d4d;fill-opacity:1"/><path d="m199.242 188.297-2.09-1.524c-1.859-1.363-3.668-2.77-5.562-4.09-7.54-5.261-15.34-10.152-23.137-15.027-12.797-7.883-25.598-15.672-38.558-23.168-19.45-11.258-39.18-21.988-58.973-32.746-9.715-5.363-19.02-11.832-28.809-17.238-4.277-2.36-8.644-4.52-13.175-6.305-1.813-.703-9.81-2.922-13.223-1.304-2.223 1.05-3.582 3.113-.98 6.414a.855.855 0 0 0 1.503-.813c-.8-2.094.336-2.5 1.942-2.535 3.277-.063 8.18 1.062 9.46 1.559 4.4 1.707 8.641 3.777 12.801 6.035 9.817 5.34 19.16 11.754 28.907 17.058 13.117 7.278 26.132 14.66 39.168 22.004 19.543 11.016 39.062 22.043 58.41 33.57l29.59 17.59c.285.16 1.425.993 2.203 1.243.41.132.761.117.972-.043a.407.407 0 0 0-.449-.68m0 0" style="stroke:none;fill-rule:evenodd;fill:#ff6d4d;fill-opacity:1"/><path d="M213.887 196.93a.4.4 0 0 0 .226.39.41.41 0 0 0 .547-.187c.399-.586.082-.856-.574-1.02-.496-.125-1.578-.02-2.078-.215l-5.977-1.804-14.238-4.262c-8.84-2.605-17.68-5.184-26.441-8.008-5.829-1.87-11.614-3.847-17.348-6.027-23.36-8.695-62.652-23.188-94.594-42.34-17.27-10.352-31.902-22.39-41.539-35.086-2.879-3.781-5.523-7.441-7.406-11.43a.56.56 0 0 0-.727-.332.564.564 0 0 0-.336.727c1.235 4.426 2.965 8.836 5.594 13.02 8.727 13.878 24.672 25.769 42.426 36.417 32.144 19.286 71.894 33.454 95.46 42.067 5.817 2.094 11.692 3.984 17.602 5.762 8.84 2.656 17.754 5.054 26.672 7.488l14.328 3.988 6.145 1.399c.527.046 1.871-.711 2.258-.547m.027.015c.016.149.078.274.078.14q-.007-.098-.078-.14m0 0" style="stroke:none;fill-rule:evenodd;fill:#ff6d4d;fill-opacity:1"/><path d="m8.559 92.078.257-.117c-1.093-2.285-1.808-4.617-2.433-7.012-.414-1.574-.809-3.164-1.11-4.808-1.3-6.368-2.023-13.504-2.039-20.594-.004-5.602.868-11.09 1.676-16.34.219-1.43.219-2.789.438-4.184a.398.398 0 1 0-.75-.273c-.282.297-.532.48-.758.82-.754 1.149-1.117 2.508-1.531 3.848-1.133 3.738-1.602 7.781-1.82 11.86-.473 8.64.69 17.581 2.449 25.367.53 2.125 1.097 4.19 1.93 6.152.839 1.973 1.917 3.805 3.187 5.61l.765.44a.406.406 0 1 0-.261-.769M53.586 106.988l-2.059-1.968c-2.488-1.29-7.37-3.938-11.586-4.887-2.289-.512-4.402-.48-5.941.289-2.008 1.016-2.441 3.039-1.82 5.43.972 3.746 4.742 8.492 5.957 9.695 4.234 3.95 9.242 7.27 14.593 10.156 7.81 4.215 16.286 7.563 23.735 11.36.09.05.21.015.262-.075a.2.2 0 0 0-.079-.265c-7.152-4.27-15.289-8.286-22.851-12.883-5.012-3.05-9.781-6.336-13.727-10.29-.949-.898-3.652-4.112-4.988-7.093-.746-1.66-1.312-3.242.004-3.973 1.484-.828 3.734-.543 6.094.059 3.687.941 7.61 2.77 9.746 3.723.707.27 1.547 1.32 2.183 1.539.43.144.809.125 1.11-.293a.41.41 0 0 0-.633-.523M98.2 147.754c.437.848 4.94 3.133 10.234 5.277 6.539 2.649 14.218 5.188 15.824 5.832l31.12 14.117c7.204 3.051 14.595 5.575 21.852 8.43 3.829 1.508 7.504 3.356 11.32 4.945.966.407 1.954.672 2.934 1.043a.83.83 0 0 0 1.13-.328.83.83 0 0 0-.325-1.125c-.973-.726-1.887-1.465-2.922-2.074-2.387-1.41-4.984-2.394-7.527-3.45-8.39-3.5-17.094-6.202-25.528-9.679l-31.296-13.824c-2.082-.773-14.184-4.715-21.254-7.39-2.621-.989-4.555-1.704-4.852-2.18a.417.417 0 0 0-.558-.153.41.41 0 0 0-.153.559M134.54 81.188l.019.007c.129.102.144.266.304.301.13.035.266 0 .356-.082.14.09.36.106.695-.023.856-.329 2.387-2.211 2.492-2.305l7.469-7.66 17.281-18.61c8.399-9.66 20.723-25.07 34.344-35.937 7.3-5.828 15.043-9.938 22.707-11.797 2.125-.516 4.156-1.074 6.309-1.215a.86.86 0 0 0 .918-.808.86.86 0 0 0-.813-.914c-2.312-.442-4.625-.684-7-.422-8.379.902-16.64 6.03-24.434 12.265-13.789 11.028-25.953 26.95-34.332 36.856l-16.925 18.75-7.325 7.742c-.093.113-1.875 1.922-2.203 2.84-.066.187-.109.285-.066.394.125.332.184.516.203.618m0 0" style="stroke:none;fill-rule:evenodd;fill:#ff6d4d;fill-opacity:1"/><g clip-path="url(#a)"><path d="M220.875 1.715a.408.408 0 0 0-.707.383c-.906.804-.188.207.578.968.188.188.68.047.95.168l4.714.696c2.297.273 4.547.754 6.766 1.375 2.234.629 4.43 1.414 6.59 2.297 6.851 2.78 13.433 6.726 18.968 11.71 3.317 2.989 6.172 6.403 8.649 10.098 1.644 2.457 3.199 4.985 4.379 7.766a1.16 1.16 0 0 0 2.191-.766c-.867-3.12-2.012-6.097-3.574-8.851-2.363-4.16-5.563-7.793-9.11-11.04-5.816-5.328-12.835-9.449-20.097-12.386-2.297-.922-4.629-1.735-7.008-2.387a47 47 0 0 0-7.332-1.445c-.855-.098-1.707-.235-2.562-.211-.88.027-1.704.2-2.563.34-.312.05-.758.62-1.074.367-.434-.352.082.844.383.71.152-.066-.067.087-.141.208m0 0" style="stroke:none;fill-rule:evenodd;fill:#ff6d4d;fill-opacity:1"/></g><path d="M272.352 34.305c.234.172-.54-.082-.586.375-.168 1.547-.668 5.98-.696 6.234l-2.148 24.36a778 778 0 0 1-2.809 28.14c-1.093 9.356-2.336 18.691-3.808 28.008-1.575 10.07-3.875 20.41-5.16 30.656-.262 2.09-.68 4.168-.649 6.254.008.273-.012.543.09.793.187.445.36.46.66.836a.8.8 0 0 0 1.594.105c.344-.324.555-.289.765-.71.47-.91.305-2.02.442-3.036 1.476-11.414 3.922-23.066 5.734-34.347 1.48-9.368 2.778-18.746 3.832-28.157 1.059-9.406 1.88-18.84 2.551-28.296l1.543-24.418c.012-.247.594-4.036.34-6.051-.035-.278-.027-.547-.152-.73-.68-1.02-1.098-1.317-1.614-.829a.41.41 0 0 0-.375.438c.02.222.219.394.446.375m0 0" style="stroke:none;fill-rule:evenodd;fill:#ff6d4d;fill-opacity:1"/><path d="M159.855 56.73c.297-.101 1.02-.144 1.297-.14l2.696-.188 9.59.711c4.265.637 8.496 1.594 12.66 2.793 4.172 1.2 8.277 2.645 12.27 4.282 15.132 6.066 25.96 12.503 35.605 20.23 8.132 6.516 15.332 14.05 23.66 22.992 1.293 1.387 2.515 2.903 4.004 4.223.644.574 1.347.996 2.05 1.52a.61.61 0 0 0 .86.054.606.606 0 0 0 .058-.855c-.425-.774-.753-1.524-1.234-2.239-1.117-1.652-2.473-3.062-3.707-4.511-8.047-9.442-15.406-17.075-23.617-23.754-9.813-7.989-20.977-14.473-36.484-20.653-4.125-1.61-8.352-3.039-12.653-4.199a100 100 0 0 0-13.09-2.637c-1.996-.261-4.015-.48-6.035-.527a39 39 0 0 0-4.074.137l-3.117.68c-.5.316-1.48 1.288-1.61 1.624-.238.657-.37 1.356.582.747a.41.41 0 0 0 .29-.29m-.074.032c-.05.023-.07.054-.05.09.046.058.05-.004.05-.09M268.465 102.297a.4.4 0 0 0 .27.289.41.41 0 0 0 .511-.27l-1.465-1.816c-2.722-3.398-4.972-7.04-7.543-10.492a62.5 62.5 0 0 0-5.691-6.656c-9.613-9.68-19.809-17.52-30.93-23.739-6.762-3.785-13.824-7.082-21.375-9.61-4.847-1.616-9.89-2.839-15.094-3.94a.46.46 0 0 0-.554.332.453.453 0 0 0 .328.546c5.055 1.5 9.875 3.27 14.594 5.082 7.316 2.801 14.328 5.868 20.964 9.614 10.918 6.156 20.973 13.82 30.434 23.34l14.094 16.203c.086.086 1.101 1.55 1.426 1.175ZM167.36 45.695c.062.121.18.223.39.254 1.262.203 4.477-.031 5.41.047l12.387 1.57a.634.634 0 1 0 .262-1.242c-2.465-.594-4.95-1.144-7.454-1.562a60 60 0 0 0-5.085-.645c-.993-.027-4.48-.289-5.72.262-.613.27-.796.516-.8.672-.012.27-.254.508.074.59.14.152.367.172.535.054m0 0" style="stroke:none;fill-rule:evenodd;fill:#ff6d4d;fill-opacity:1"/><path d="M181.14 35.148c2.77 2.106 2.88 1.844 1.04-.074.992-.125 1.57-.351 1.695-.55 2.098.007 4.375.437 6.691 1.027 5.75 1.457 11.735 4.07 15.684 5.707 10.621 4.39 21.816 10.078 32.008 17.105 7.047 4.864 13.43 10.528 19.16 16.532 2.539 2.66 5.039 5.285 7.23 8.156.153.226.457.289.684.136.23-.148.29-.46.14-.683-1.452-2.578-2.984-5.125-4.827-7.492-4.176-5.383-9.41-10.055-14.907-14.43-11.73-9.336-25.43-16.684-38.3-22.16-4.715-2.008-12.211-5.672-19.016-6.602-3.34-.453-6.496-.215-9.074.883-.739.703-1.133 1.012-.813 1.484.121.18.059.516.38.649.405.172 1.644.324 2.105.316Zm-.68-.164-.23.07a.33.33 0 0 0 .23-.07m0 0" style="stroke:none;fill-rule:evenodd;fill:#ff6d4d;fill-opacity:1"/><path d="M269.46 73.977a.3.3 0 0 0 .071-.188c.047-.816.156-2.625-.105-3.762-.23-1.023-.508-2.007-.934-2.96-.613-1.383-1.48-2.641-2.316-3.907a78 78 0 0 0-6.7-8.617c-2.421-2.703-5.046-5.23-7.734-7.652-8.71-7.805-22.765-17.032-37.168-22-5.77-1.989-11.594-3.45-17.156-3.578a33.7 33.7 0 0 0-11.652 1.792.93.93 0 1 0 .492 1.793c3.492-.718 7.164-.648 10.98-.316a68.5 68.5 0 0 1 16.25 3.469c13.98 4.812 27.696 13.629 36.192 21.16a113 113 0 0 1 7.582 7.367c2.414 2.567 4.71 5.234 6.777 8.074l3.8 5.93c.45.934.688 2.527.802 3.25.027.195.046.332.058.398.07.27.238.344.293.356.137.031.309.062.438-.121a.395.395 0 0 0 .03-.488M12.21 65.57l-2.144-6.308c-.03-.106-.644-2.242-.921-3.078a6 6 0 0 0-.168-.438c-.465-.926-1.329-.621-1.524-.52-.86.465-1.914 1.848-2.734 3.56-.996 2.085-1.735 4.593-1.942 5.718.063.281.391.867.391.867l.125-.098a.41.41 0 0 0 .453.574l.613-.98c.282-1.027 1.239-3.23 2.262-5.11.215-.394.422-.773.629-1.116.293.64.64 1.21.656 1.257.203.72 1.516 5.024 2.516 7.48.574 1.411 1.332 2.25 1.644 2.356.43.153.774.079 1.055-.07.332-.164.625-1.16.77-1.687l.898-2.364c.527-1.222 3.285-6.656 4.316-9.183l4.172 10.73c.067.188.723 2.785 1.258 3.598.477.71 1.11.789 1.535.687.223-.047 1.227-.937 2.309-2.441 2.05-2.863 5.262-7.883 5.754-8.664l.578-1.27c.512 2.614 1.176 6.317 1.668 8.118l1.512 4.757c.101.282.453.883.703 1.29-.23.855.246 1.265.933 1.413.797.168 1.22-.078 1.442-.445.488-.066 1.386-1.363 1.437-1.402l3.657-2.793 8.8-6.863c.153 2.097-.043 5.207-.011 5.562.242 2.828.671 5.629 1.414 8.336.761 2.754 1.84 5.402 3.37 7.875.317.516.739.644 1.114.66.43.016 1.285-1.094 1.855-1.473L66.246 82l8.688-3.957 3.59-1.766.038.086 2.711 7.137 7.512 16.105a.937.937 0 0 0 1.215.547.94.94 0 0 0 .543-1.215c-.559-1.722-1.152-3.425-1.875-5.082-1.652-3.796-3.703-7.41-5.316-11.222l-2.883-7.274-.676-1.32a1.062 1.062 0 0 0-1.523-.43l-.98.274-3.368 1.726-8.832 4.215-3.836 2.309c-.098.066-.211.183-.336.328-1.082-1.91-1.898-3.938-2.508-6.023-.75-2.57-1.195-5.239-1.465-7.926-.043-.438-.316-4.989-.265-6.809.03-1.012-.399-1.512-.532-1.66-.199-.23-.582-.207-1.132-.152-.395.035-1.227.62-1.348.687l-9.176 7.356-3.633 2.925-.64.54c-.047-.106-.094-.208-.13-.294l-1.566-4.53c-.664-2.235-1.77-7.446-2.222-9.716-.25-1.277-.953-1.867-1-1.882-.07-.012-.86.02-1.367.851-.532.879-1.774 3.16-1.825 3.234l-5.828 8.961c-.351-.757-.879-1.523-.914-1.613-.34-.914-2.597-6.668-4.293-9.875-.887-1.683-1.894-2.625-2.191-2.629-.223-.11-1 .086-1.844 1.09-1.727 2.055-3.937 8.367-4.484 9.66Zm43.388-3.187c.246.082.422.105.27-.09-.071-.086-.169-.02-.27.09m-36.18-6.856c.059-.015-.102-.039-.125-.039l-.012.032Zm0 0" style="stroke:none;fill-rule:evenodd;fill:#ff6d4d;fill-opacity:1"/><path d="M12.625 53.105c-1.105-2.316-1.82-6.308-2.812-8.164-.376-.691-.797-1.168-1.208-1.418a1.26 1.26 0 0 0-.875-.183c-.355.047-.863.722-1.183 1.09L1.96 50.367c-.234.512-.574 1.738-.48 2.406q.041.265.101.489c-2.898 3.12-1.258 3.156.461.976.441.508.906.192.59-.832l.082-.129c.187-.308.617-1.445.965-1.808l4.347-5.074c.91 1.734 1.582 5.48 2.672 7.796.555 1.184 1.219 2.067 1.91 2.489.02.011 1.555.203 1.809-1.094.113-.586.367-1.883.691-2.66.41-1 .926-1.93 1.485-2.832.992-1.582 2.133-3.07 3.183-4.621.262.539.512.972.535 1.027 1.024 2.848 1.891 5.777 3.184 8.523.563 1.204 1.266 2.286 1.93 3.434a.464.464 0 0 0 .61.258.46.46 0 0 0 .257-.613c-.324-1.274-.54-2.54-.926-3.801-.875-2.883-2.058-5.664-3.035-8.512-.05-.144-.559-2.434-.848-3.312-.25-.778-.82-1.036-.949-1.067-.293-.07-.539-.02-.75.074-.234.106-.476.618-.648.907-1.344 2.273-3.059 4.273-4.469 6.488-.637 1-1.215 2.043-1.688 3.16-.128.305-.25.676-.355 1.066m0 0" style="stroke:none;fill-rule:evenodd;fill:#ff6d4d;fill-opacity:1"/><path d="m26.594 58.988 4.05-4.328c2.157-2.2 3.876-4.523 5.27-5.172.86-.402.992.43 1.379 2.582l.605 4.004c.274 1.5.442 3.055.918 4.524.329 1.023.805 1.937 1.32 2.867a.44.44 0 0 0 .563.262.43.43 0 0 0 .258-.555l-.922-7.414-.664-4.074c-.824-4.34-2.55-4.856-4.312-4.07-1.543.683-3.625 3.03-6.086 5.335-1.118 1.008-2.274 1.809-2.926 2.848-.36.562-.684 1.152-.656 1.793.02.539.12.82.386 1.324a.41.41 0 0 0 .371.445.41.41 0 0 0 .446-.37m0 0" style="stroke:none;fill-rule:evenodd;fill:#ff6d4d;fill-opacity:1"/><path d="M41.45 64.727a.4.4 0 0 0-.52-.024.4.4 0 0 0-.078.57c-.684 1.293.074.344.89.868.215.132.363-.118.68-.274.387-.195.652-1.164 1.043-1.43l4.668-3.44 5.476-3.583c2.371-1.437 4.141-2.941 5.407-3.305.73-.207.68.48.863 2.055l.45 3.41.972 5.301c.515 1.973.91 3.98 1.57 5.914.29.852.703 1.582 1.016 2.426a.696.696 0 1 0 1.379-.192c.074-.945.18-1.824.097-2.761-.18-2.047-.875-4.024-1.3-6.035l-1.208-5.094-.597-3.305c-.63-3.824-2.117-4.394-3.883-3.812-1.363.449-3.285 2.082-5.82 3.734l-5.602 3.438-5 3.218c-.437.328-.64 1.895-1.242 1.707-.41-.125.555.317.715.149.18-.18-.035.425.207.261.11-.078-.117.098-.184.204m0 0" style="stroke:none;fill-rule:evenodd;fill:#ff6d4d;fill-opacity:1"/><path d="M64.46 73.61a.42.42 0 0 0-.292.316.406.406 0 0 0 .324.48l1.008-.324 6.379-3.121 5.5-2.285 3.68-1.39c.324-.13 1.933-.513 2.804-1.028l.211 3.547.574 3.875 2.036 7.328c.863 2.191 1.511 4.492 2.695 6.527.539.93 1.195 1.692 1.887 2.52.18.34.601.472.945.297a.703.703 0 0 0 .297-.946l-2.48-9.504-2.325-6.976-1.039-3.567-.68-4.652c-.125-.918-.855-1.48-2.148-1.184-1.156.266-3.164 1.485-3.613 1.66l-3.649 1.212-5.73 2.097c-1.406.555-2.98 1.09-4.301 1.98-.668.45-1.352.91-1.754 1.579-.219.363-.273.644-.375 1.047-.016.066-.082.507-.082.507ZM89.637 99.293a.406.406 0 0 0-.52.102.404.404 0 0 0 .063.57c.03.312.152.504 1.132.68 1.442.257 4.766-1.657 5.454-1.825 2.054-.586 7.328-2.187 12.105-3.21 2.55-.544 4.938-.97 6.54-.91.03.507.148 1.09.171 1.304l1.422 5.832c.695 1.898 3.074 7.633 5.57 12.598 1.274 2.53 2.489 4.914 3.602 6.41.488.652.965 1.074 1.32 1.398a.427.427 0 1 0 .7-.492l-8.833-20.758-1.246-5.258c-.035-.351.098-1.402.113-1.843a1.5 1.5 0 0 0-.914-1.473c-1.351-.434-3.918-.277-6.879.254-5.312.95-11.992 2.98-14.382 3.668-.668.222-4.356 3.383-5.254 2.234-.313-.398-.297.535-.164.719m0 0" style="stroke:none;fill-rule:evenodd;fill:#ff6d4d;fill-opacity:1"/><path d="M126.078 120.8c-.008.036-.008.06-.023.075-.336.352.27.36.332.5.05.105.093.047.203-.008.316.195.601.102.515-.246l.079-.05c.222-.133.828-.622 1.187-.684l3.973-1.95 12.883-5.988c-.2 1.438.73 4.219.753 4.442a46 46 0 0 0 1.036 5.687c.742 2.973 1.625 5.922 2.402 8.86.23.878.379 1.769.715 2.613.172.422.414.695.629 1.097a.42.42 0 0 0 .46.372c.231-.02.4-.23.376-.458.144-.562.32-1.015.363-1.597.055-.774-.102-1.543-.227-2.317-.793-4.898-2.73-9.68-3.414-14.59-.047-.285-.449-3.906-.617-5.328-.113-.957-.695-1.316-.926-1.421-.398-.118-1.875.16-3.78.882-4.067 1.536-10.68 4.727-11.735 5.149l-4.48 2.125c-.333.332-.993 1.02-.97 1.758.012.445.122.804.266 1.078M92.773 90.207c.2.125.497.2.907.168.742-.062 1.867-.852 2.02-.895l5.663-1.671c3.23-.786 7.176-2.145 10.942-2.555a16.9 16.9 0 0 1 4.543.105c1.265.118 2.238 1.922 3.27 4.125 2.339 5.004 4.01 12.403 5.05 15.024l3.473 6.02c-.024.136.07.269.207.292.136.024.27-.07.293-.207.297-.183.343-.148.52-.504.245-.5-.02-1.23-.216-1.968-.441-1.688-1.558-3.598-1.89-4.582-1.055-2.641-2.86-10.04-5.118-15.133-1.48-3.344-3.378-5.637-5.277-5.887-2.133-.152-4.457.188-6.82.668-3.313.668-6.7 1.633-9.528 2.305l-5.89 1.699c-.172.074-1.781.602-2.293 1.332-1.035 1.477-.23 2.137.144 1.664m0 0" style="stroke:none;fill-rule:evenodd;fill:#ff6d4d;fill-opacity:1"/><path d="M128.633 110.89c.203.09.875.364 2.191-.027 1.996-.597 4.617-3.058 5.438-3.383l5.722-2.226c2.93-1.133 4.825-1.473 6.207-1.078.704.199 1.336.492 1.77 1.172 1.297 2.011 1.672 5.53 2.625 10.07.418 1.941.7 3.848 1.098 5.73.265 1.258.433 2.528.875 3.762.144.418.367.653.574 1.05a.477.477 0 0 0 .488.458.477.477 0 0 0 .461-.484c.184-.352.356-.543.457-.918.324-1.196.16-2.43.063-3.637-.172-2.2-.743-4.344-1.223-6.57-1.426-6.743-2.305-11.215-4.793-13-1.902-1.364-4.836-1.5-9.805.394l-5.722 2.387c-.88.383-4.36 2.105-5.829 3.828-.73.867-.55 1.547-.695 1.66a.41.41 0 0 0-.355.457c.027.223.23.383.453.356M151.996 137.305c.152.07.336.047.457-.067.11.805.406 1.883.457.403.024-.555 1.785-.891 1.824-.907l4.59-1.933c1.11-.414 5.113-2.492 8.692-3.485 2.043-.562 3.914-1.109 4.496-.023l4.965 14.926 2.937 6.273.246 1.246a.88.88 0 0 0 .399.715c.242.16.546.195.816.09 0 0 1.238.035 2.66-.254.863-.18 1.73-.555 2.38-.719l9.937-3.215 2.757-1.312c-.074 3.664.645 8.562 2.047 12.973 1.281 4.02 3.149 7.554 4.836 9.558a.82.82 0 0 0 1.145.176.824.824 0 0 0 .172-1.14c-1.004-1.622-1.754-4.165-2.59-6.989-.692-2.336-1.469-4.848-1.953-7.32-.75-3.809-1.059-7.45-.578-9.727.73-1.676-.668-1.84-1.622-1.875-.28-.008-1.34.75-1.855.93l-3.723 1.75-9.457 2.992c-.703.211-1.722.461-2.578.918-.43.234-.816.48-1.144.715l-.012-.137-2.156-6.695c-1.266-3.328-1.868-7.168-3.157-10.633a23 23 0 0 0-2.277-4.496c-.894-1.457-3.035-1.836-5.691-1.246-3.934.879-9.153 3.45-10.457 3.933l-4.79 1.997c-.046.023-1.675.648-1.984 1.199-.16.289-.195.289-.14.43q.229.538.351.949m49.438 10.332c.37.078.687.093.457-.168-.11-.125-.278-.02-.457.168m-49.438-10.332c.98 2.98-1.254 1.172-.062-.04Zm0 0" style="stroke:none;fill-rule:evenodd;fill:#ff6d4d;fill-opacity:1"/><path d="M156.523 126.46c.293.15.145.38.832.478.25.035.54-.086.875-.188 1.665-.52 4.145-1.695 5.458-2.078 2.097-.606 4.976-1.777 7.777-2.324 1.738-.344 3.445-.45 4.851.035.586.23 1.012.922 1.414 1.676.758 1.421 1.243 3.168 1.614 4.093.64 1.54 1.246 3.157 1.972 4.754 1.633 3.602 2.938 7.48 4.766 10.848.344.64.797 1.027 1.215 1.601a.49.49 0 0 0 .594.352.49.49 0 0 0 .343-.598c.09-.601.254-1.054.215-1.672-.12-2.027-1.039-3.992-1.777-5.972-1.367-3.656-3.18-7.203-4.727-10.52-.574-1.086-1.496-3.285-2.652-4.793-.676-.882-1.43-1.566-2.258-1.832-1.34-.472-2.902-.539-4.547-.367-3.289.336-6.925 1.676-9.457 2.324-1.39.356-4.164 1.16-5.804 1.989-.325.164-.637.285-.793.5-.422.582-.192.62-.262.957a.41.41 0 1 0 .351.738m0 0" style="stroke:none;fill-rule:evenodd;fill:#ff6d4d;fill-opacity:1"/><path d="M186.516 144.258a.4.4 0 0 0-.09.125c-.86.164-.055.672-.059.765-.008.165-.066-.105.996-.039.227.016.25.133.684-.035.328-.129.676-.55.914-.629l3.707-1.629c.691-.257 8.637-2.73 12.71-3.68-.058 1.34.458 3.364.474 3.688.16 2.672.691 10.774 2.011 14.317.328.886.875.984 1.067 1.441-.051.234.101.461.336.512.234.05.46-.102.511-.332.426-.403.887-.692 1.176-1.77.973-3.648-1.613-11.672-1.726-14.34-.028-.511.261-3.875.043-5.222-.145-.883-.579-1.395-.891-1.614-.297-.207-2.098-.34-4.484.278-4.352 1.129-11.684 3.543-12.352 3.808l-4.02 1.852c-.402.312-1.261 1.016-1.382 1.734-.082.489.351.676.168.7-.524.066-.184.082.207.07m.53-.02.036.032.016-.02c.03-.02.02-.02.035-.02Zm0 0" style="stroke:none;fill-rule:evenodd;fill:#ff6d4d;fill-opacity:1"/><path d="m210.664 160.23 4.664-1.218c1.953-.582 7.559-3.621 11.977-5.543 1.972-.856 3.613-1.602 4.386-1.43-.113-.027-.41-.074-.312-.156.918-.82.594 3.84.648 4.496.395 3.453.75 6.812 1.422 10.137.27 1.34.52 2.691.985 3.996.32.89.754 1.672 1.168 2.535a.483.483 0 0 0 .582.351.48.48 0 0 0 .351-.578l-1.422-16.718c-.07-.774-.125-3.809-.86-5.375-.452-.961-1.148-1.532-1.929-1.692-.855-.18-2.492.137-4.46.922-4.45 1.766-11.196 5.652-13.368 6.336l-5.324 1.66c-.395.578-1.277.914-.656 1.645.699.828 2.46 1.437 2.148.707Zm-.297.083-.117.03c.055.005.09-.003.117-.03m0 0" style="stroke:none;fill-rule:evenodd;fill:#ff6d4d;fill-opacity:1"/><path d="M206.563 169.906a.405.405 0 0 0-.458-.094.403.403 0 0 0-.214.532c-.067.531.57.87 1.914.601 1.191-.238 2.82-1.668 3.91-2.113l14.363-4.434c.606.34.777 1.622 1.125 3.172.719 3.23 1.227 7.614 1.98 10.871.407 1.746.887 3.2 1.493 4.067a1.02 1.02 0 1 0 1.71-1.113c-1.573-2.59-1.48-10.504-2.382-15.215-.457-2.356-1.34-3.993-2.285-4.578-.367-.22-2.145-.282-4.465.359-4.453 1.23-11.805 4.039-12.68 4.473-1.07.586-2.902 3.492-3.793 2.605-.418-.414-.375.508-.219.867m0 0" style="stroke:none;fill-rule:evenodd;fill:#ff6d4d;fill-opacity:1"/><path d="M231.977 182.598c.043.117.117.23.246.234.656.023 1.656-.023 2.207-.176l5.23-1.902c.55-.2 7.528-2.73 10.367-3.145.078-.011.164-.039.25-.058.13.73.004 1.84.012 3.164.024 3.004.113 6.922.426 10.168.316 3.199 1.144 5.773 2.488 6.734.203.242.817.457 1.746.324 1.406-.199 4.559-1.91 5.012-2.082 2.46-.922 5.09-2.187 7.762-3.175a31 31 0 0 1 3.816-1.164l.305 4.937.496 5.238c.191 2.016.094 4.207.394 6.266.055.402.094.773.29 1.113.195.328.265.246.538.5a.373.373 0 0 0 .348.39.37.37 0 0 0 .383-.35c.3-.227.36-.141.586-.45.238-.328.293-.71.387-1.117.449-2.094.34-4.371.406-6.453l-.477-5.606c-.144-.879-.191-3.625-.57-5.324-.203-.89-.516-1.582-.86-1.941l-1.495-.47-13.313 4.884c-.355.129-3.05 2.222-4.23 2.226-1.266-1.187-1-4.746-1.063-8.363-.039-2.34-.043-4.719-.285-6.664-.258-2.16-.8-3.809-1.453-4.559-.188-.386-.985-.847-2.293-.746-2.996.239-10.196 3.39-10.77 3.621l-5.199 2.07c-.543.317-1.785.4-2.207.778-.504.46-.86.863-.246 1.297.11.2.36.27.555.164a.41.41 0 0 0 .21-.363m22.738 12.765c-.211-.183-.602-.59-.496-.3.082.214.258.304.496.3m-22.79-13.011c0 .02 0 .035.005.054l.004.008Zm18.52-4.832c.075.128.121.199.102.046-.008-.046-.047-.058-.102-.046m0 0" style="stroke:none;fill-rule:evenodd;fill:#ff6d4d;fill-opacity:1"/><path d="M274.691 210.05a.43.43 0 0 0-.304.079.41.41 0 0 0-.082.57c-.145.692.27.473.867.653.351.105.922-.368 1.332-.364l17.683-5.48a.904.904 0 0 0 .72-1.059.916.916 0 0 0-1.067-.719c-.41-.042-.766-.136-1.184-.113-.883.051-1.726.387-2.586.621-4.77 1.266-9.48 3.09-14.203 4.375-.39.157-.789 1.13-1.219.88-.351-.204-.23.288.043.558M237.633 172.07c1.129-.644 4.039-.828 4.172-.867 1.879-.625 5.113-2.086 8.195-2.871 1.75-.445 3.45-.7 4.71-.344-.987.602.477 4.028.587 4.578.762 2.844 1.183 6.192 2.2 9.188.468 1.387 1.108 2.633 1.78 3.809a.777.777 0 1 0 1.438-.59l-2.645-13.102c-.152-.516-.398-2.957-.886-4.312-.325-.907-.829-1.47-1.29-1.625-1.312-.512-3.054-.493-4.953-.164-3.539.609-7.675 2.292-9.914 2.964-.183.063-3.754 1.13-4.882 1.946-1.051.761-.989 1.672-.747 1.898.364.223.868.621 1.422.402.7-.273 1.164-.507.813-.91m-.422.41a.42.42 0 0 0 0 .286c.05.136-.016-.188 0-.286m.066-.128-.05.093.082-.097.011-.047Zm-.285-.825v.164l-.035.188a.4.4 0 0 1 .176-.102l.047-.004a.6.6 0 0 1-.047-.222c0-.047-.07-.055-.149-.059Zm0 0" style="stroke:none;fill-rule:evenodd;fill:#ff6d4d;fill-opacity:1"/><path d="M259.031 186.184c.13-.016.36-.145.258-.075-.258.172.336.305.066.375-.203.047-.3 1.207-.16.739.172-.575 1.493.074 1.965-.02l4.488-1.351c.582-.153 8.625-2.418 11.903-3.02l.008-.004c.117.492.433 1.223.507 1.965.372 3.586.239 9.387.922 13.324.25 1.465.477 2.762 1.028 3.442.433.53.64.609 1.035.757a.737.737 0 0 0 1.27-.75c.038-.293.363-.34.417-.828.094-.793-.058-1.93-.168-3.281-.246-2.984-.851-6.863-1.265-10.094-.47-3.718-1.266-6.601-1.852-7.02-.164-.113-1.058-.34-2.398-.07-3.305.665-11.48 2.825-12.075 2.973l-4.664 1.203c-.336.14-1.086.055-1.464.278-.688.406-1.063.515-.957.867.19.687-.829 1.265.445.996a.4.4 0 0 0 .57.058.39.39 0 0 0 .121-.464m0 0" style="stroke:none;fill-rule:evenodd;fill:#ff6d4d;fill-opacity:1"/><path d="M281.543 201.168c.039-.14.059-.36.043-.242-.063.55.516-.117.309.156-.395.535.777.285.187.445-.387.102.172.688.254.86l-.102.015-.004.004.07.028c.048 0 .036.011.04-.032l-.004-.015c.164-.02.348-.004.394-.02l4.532-1.465c1.644-.547 4.52-1.984 7.25-2.902 1.273-.426 2.508-.758 3.496-.77.074.239.16.512.207.793.398 2.457.808 7.11 1.312 11.075.13 1 .239 1.953.453 2.8.18.735.48 1.262.657 1.844a.805.805 0 0 0 .785.82.81.81 0 0 0 .82-.789c.211-.675.48-1.359.578-2.242.172-1.531-.039-3.32-.246-5.113-.445-3.871-1.41-7.781-1.82-9.61-.332-1.468-1.18-2.058-1.242-2.074-1.16-.293-2.762-.105-4.516.364-3.07.808-6.691 2.437-8.613 3.004l-4.68 1.804c-.098.051-.605.121-.738.352-.586 1.031-.586.586-.34.86.39.44-.508.277-.07.398.597.172.09 2.675.828.445a.41.41 0 0 0 .43-.387.41.41 0 0 0-.27-.406m.687 1.238a4 4 0 0 1-.324-.18c-.144-.085.055.657.114.34.011-.093.101-.136.21-.16m0 0" style="stroke:none;fill-rule:evenodd;fill:#ff6d4d;fill-opacity:1"/><path d="M293.3 205.242c-.14-.043-.304-.082-.304-.082s-.398-.094-.762.649c-.07.148-.043.34-.039.546.028 1.375.364 3.575.465 4.817l.992 6.418c.813 3.785 2.036 5.496 3.57 6.2 1.989.92 5.079.03 9.798-1.673 1.625-.547 4.464-.797 6.402-1.691.476-.215 1.062-.356 1.254-.77.277-.61.16-.418.054-1.023a1.14 1.14 0 0 0 .086-1.61 1.14 1.14 0 0 0-1.609-.085c-.441-.032-.418-.454-.914-.364-2.043.352-4.805 1.82-6.461 2.59-3.637 1.617-5.969 3.137-7.523 2.356-.97-.485-1.145-1.922-1.32-4.407l-.801-6.367c-.204-1.258-.532-3.504-.856-4.871-.043-.18-.039-.371-.137-.488-1.316-1.512-1.52-.946-1.582-.875a.414.414 0 0 0-.476.336.42.42 0 0 0 .164.394m0 0" style="stroke:none;fill-rule:evenodd;fill:#ff6d4d;fill-opacity:1"/><path d="m301.941 214.234.118.254c.718-.101 1.34-.035 2.035-.238 1.441-.41 2.715-1.266 4.097-1.848 2.223-.941 4.997-2.457 7.793-3.297 1.485-.445 2.98-.707 4.371-.53-.046 1.667-.644 5.105-.66 5.64.223 3.031 1.559 7.887 1.637 11.285.008.316.004.602.117.871.113.3.145.094.352.328a.72.72 0 0 0 .453.903.707.707 0 0 0 .894-.454c.418-.25.59-.296.872-.726.585-.895.414-2.227.343-3.504-.164-3.05-1.347-6.516-1.496-8.883-.082-.55-.226-4.297-.351-5.805-.094-1.097-.739-1.578-.93-1.625-1.93-.52-4.074-.289-6.227.286-2.902.77-5.828 2.175-8.152 3.054-1.453.555-3.023.918-4.3 1.805-.614.426-.97.96-1.485 1.504l.281 1.086a.4.4 0 0 0 .238-.106m0 0" style="stroke:none;fill-rule:evenodd;fill:#ff6d4d;fill-opacity:1"/><path d="M321.992 226.16c-3.199-.375-2.601 1.492 1.395 1.348.804-.024 2.082-1.031 2.664-1.395l1.476-1.172 8.106-5.925-.145 10.086.254 3.203c.04.297.492 1.066.453 1.41-.07.066-.23.191-.129.16.079-.023.114-.078.13-.16l.023-.031c.058-.657.59-.457 1.129-.418.09.011.105.242.3.257.22.024-.082.13-.304.207a.47.47 0 0 0-.633-.199.48.48 0 0 0-.211.64c-.945.9.023.34.137.665.148.43.949.246 1.27-.781.085-.27-.012-1.387.023-1.84l.129-3.117.363-10.47.285-1.737a1.419 1.419 0 0 0-1.883-1.59l-2.207.941-8.918 6.356-1.484 1.148c-.43.414-1.637 1.066-2.024 1.649-.214.328-.257.578-.199.765m0 0" style="stroke:none;fill-rule:evenodd;fill:#ff6d4d;fill-opacity:1"/><path d="m350.594 228.61-.098 1.652-.25 9.148c.004.149-.039 2.91.274 3.934.043.133.062.25.14.304.336.223.488.352.55.422.134.133-.132-.011.087-.101.371-.16.57-.074.668.043l-.059.039c.094.5.219.172.059-.04a.41.41 0 0 0 .176-.25c.632.458 1.316.778.254-.359-.09-.093.234 0 .328-.257.332-.95.027-3.567.035-3.704l.41-9.093.328-4.602c.047-.57-.27-1.11-.793-1.351a1.36 1.36 0 0 0-1.539.292l-1.324 1.254-9.012 5.52c-.078.055-2.144 1.195-3.098 2.297-.933 1.078-1.101 2.023-.07 2.222.2.102.445.012.547-.187a.41.41 0 0 0-.195-.547l4.035-1.648Zm0 0" style="stroke:none;fill-rule:evenodd;fill:#ff6d4d;fill-opacity:1"/><path d="M352.754 242.68c-.734 2.015.016 1.847.629.488.137 0 .222-.11.187-.344a.4.4 0 0 0 .024-.133c.129-.195.488-.5.71-.527l3.446-1.672c1.93-1.082 4.063-2.137 6.035-3.367 1.371-.86 2.672-1.805 3.79-2.895-.387 3.645-.829 7.168-.852 10.762-.012 1.352-.098 2.73.195 4.078.078.38.238.653.379 1.016a.575.575 0 0 0 1.148 0c.137-.36.301-.629.383-1 .313-1.316.317-2.652.426-3.977.336-3.863.566-7.68.98-11.632.051-.457.153-1.7-.168-2.352-.234-.477-.609-.8-1.117-.934-.433-.12-1.047-.039-1.633.446-.554.46-1.238 1.496-1.484 1.742-.996.992-2.152 1.848-3.383 2.633-1.93 1.23-4.008 2.289-5.898 3.375l-3.23 1.925c-.305.239-.805.747-.821 1.38-.008.406.102.738.254.988m15.746-9.973c.254.047.582.074.445-.09-.129-.16-.28-.09-.445.09m0 0" style="stroke:none;fill-rule:evenodd;fill:#ff6d4d;fill-opacity:1"/><path d="M362.46 246.328c-.007.742.071 1.445.06 1.512l-.305 5.539a.416.416 0 0 0-.55.184.41.41 0 0 0 .183.546c.593.813 1.332.457 2.132-.52 1.008-1.226 1.043-4.612 1.192-5.366.027-.16.715-2.883.672-3.887-.051-1.293-.973-1.66-1.574-1.672-.868-.02-2.442.691-4.266 1.934-3.016 2.043-7.094 5.406-9.961 7.054-.586.34-1.156.496-1.531.758-.457.317-.098.711-.469.895a.538.538 0 0 0-.34 1.02c.266.581.352.652 1.133.898.86.27 2.11-.48 3.441-1.23 3.309-1.868 7.54-5.938 10.184-7.665m0 0" style="stroke:none;fill-rule:evenodd;fill:#ff6d4d;fill-opacity:1"/><path d="M329.098 230.797c.156.598.277 1.21.386 1.828.442 2.578.586 5.277.942 7.77l.558 5.863a1.77 1.77 0 0 0 .875 1.433c.516.297 1.145.32 1.68.051l2.04-1.11 8.276-5.03c.067-.043 1.528-1.016 2.711-1.786.008.325 0 .68-.015 1.047-.094 2.645-.64 5.98-.528 7.465l.25 3.11c.133.53 0 1.84.141 2.09.25.46.543.952.844.761.867-.547 2.176 1.5.656-.848a.413.413 0 0 0 0-.582.41.41 0 0 0-.578 0c-.16-.101-.219-.199-.219-.27l.02-.023c.238-.222-.047-.16-.02.024-.855.762-.8-.961-.047-.278.145.133.118-.199.25-.136.184.09.746.37 1.14.601-.007.133.028.227.142.262.492.137.257-.035-.141-.262.023-.441.527-1.289.531-1.648l-.328-3.031c-.156-1.641.438-5.63.363-8.274-.027-1.094-.183-2-.468-2.578-.024-.059-.989-.95-2.192-.293-1.101.602-3.855 2.219-3.949 2.27l-8.094 4.257-.254-3.613c-.312-2.152-.465-4.46-.804-6.71-.246-1.626-.586-3.216-1.114-4.712l-1.261-2.07a1.52 1.52 0 0 0-1.829-.727 1.52 1.52 0 0 0-1.003 1.696s-.043.27.039.41c-1.207 1.113-5.274 4.379-7.871 6.25-.7-2.957-1.52-5.887-2.383-8.805-.645-2.187-.906-4.535-1.977-6.539-.133-.258-.328-.406-.512-.633a1.708 1.708 0 1 0-3.265 1.008l5.074 18.106c.024.082.2.617.352.812.265.348.582.555.906.656.332.106 2.078-.238 3.93-1.726 2.074-1.672 5.007-4.38 6.746-6.086M14.594 39.387c-.442-.207-1.028-.317-1.68-.293-.633.023-1.289.293-1.848.62-1.64.958-2.625 2.716-.492 4.903 1.903 1.91 4.094 1.36 5.324-.222 1.055-1.348 1.383-3.465-.046-5.184a.738.738 0 0 0-1.258.176m.566 1.824a.4.4 0 0 1-.398.094.406.406 0 0 1-.274-.504c-.004.16-.343-.196-.336-.031 0 .167-.324.125-.535.171-.633.141-1.406.422-1.86.914-.312.344-.26.786.278 1.383.844.953 1.895.746 2.52.043.465-.535.734-1.293.605-2.07M31.543 39.234c-.941-.293-2.09-.199-3.11.258-.82.367-1.449 1.063-1.859 1.742-.844 1.387-.832 3.043 1.117 4.383 1.79 1.192 3.563.656 4.711-.789 1.368-1.719 1.746-4.695.215-6.266a.644.644 0 0 0-.906-.074.634.634 0 0 0-.168.746m.445.97a.34.34 0 0 1-.175 0c-1.083-.075-2.211.808-2.989 1.714-.504.598-.75 1.312.11 1.91.945.692 1.824-.02 2.378-.914.504-.812.84-1.832.676-2.71M50.324 45.906l-.09-.117c-.46-.414-1.023-.766-1.636-.95-.5-.151-1.028-.116-1.555.032-1.23.402-2.176 1.508-2.59 2.793-.43 1.32-.242 2.8.567 3.848 2.187 2.797 4.855 2.48 6.355.86 1.281-1.388 1.766-3.907.176-6.22a.867.867 0 0 0-1.172-.293Zm-.004 1.66c-.238-.027-.765-.386-.996-.468l-1.55-.22c-.567.231-.907.84-1.083 1.462-.16.59-.156 1.246.211 1.703.97 1.238 2.063 1.328 2.77.648.71-.675 1.082-1.847.648-3.125M75.785 56.68c-.086-.72-.805-1.188-1.773-1.414-1.508-.348-3.965.68-5.352 2.09-1.508 1.53-1.996 3.632.278 5.84 2.027 1.929 4.007 1.788 5.425.722 1.864-1.406 2.758-4.781 1.434-7.219ZM74 57.332l-.121.02c-1.027.101-2.582.68-3.465 1.66-.582.644-.691 1.484.254 2.363 1.082 1.02 2.074.797 2.707.008.79-.988 1.23-2.543.691-3.852a.8.8 0 0 1-.066-.199M103.703 71.309l-.344-.114c-.554-.136-1.148-.082-1.718-.011-1.59.214-3.23 1.125-3.996 2.425-.567.97-.707 2.149-.079 3.461 1.524 3.188 3.668 3.532 5.352 2.676 1.453-.734 2.656-2.617 2.918-4.746.676.934.812.59.492-.348 1.063.63 1.379.29-.48-1.343a6.1 6.1 0 0 0-.434-1.688 1.033 1.033 0 0 0-1.71-.312m.02 1.8-1.809-.05c-.848.14-1.723.562-2.27 1.187-.449.508-.624 1.18-.25 1.945 1.008 2.09 2.368 2.184 3.297 1.153.883-.977 1.399-2.637 1.032-4.235M138.516 90.832a4 4 0 0 0-1.735-.766c-.781-.14-1.601.02-2.383.262-4.832 1.656-3.39 5.367-.527 7.426 2.746 1.976 6.574 2.203 7.395-2.637.05-.812-.004-1.543-.258-2.219a5 5 0 0 0-1.18-1.847 1.024 1.024 0 0 0-1.312-.219m-.176 1.688-.25-.125-2.985.058c-2.335.754-1.43 2.621-.027 3.578 1.352.922 3.348 1.102 3.578-1.261.09-.438.14-.84.067-1.223a3 3 0 0 0-.383-1.027M168.691 110.016a4 4 0 0 0-.765-.594c-.727-.43-1.613-.543-2.422-.613-3.64-.043-5.004 2.187-4.805 4.507.176 2.055 1.727 4.293 4.301 5.075 2.516.945 4.863-.305 6.027-2.239.746-1.23 1.121-2.836.52-4.148-.387-.832-1.008-1.488-2-1.926a.72.72 0 0 0-.856-.062m-.476 1.234-2.738-.352c-1.942-.027-2.817 1.004-2.715 2.243.117 1.332 1.172 2.746 2.84 3.25 1.386.324 2.46-.543 3.015-1.598.328-.621.406-1.32.313-2.016-.032-.218-.035-.43-.055-.648-.078.105-.152.164-.219.152a.4.4 0 0 1-.183.153c-.313.144-.489-.032-.54-.086-.066-.067-.195-.305.008-.586.063-.078.153-.32.274-.512M193.672 128.664l.027.063c.328 1.003.906.257.918-.125.004-.118-.054-.47-.16-.91a.6.6 0 0 0-.082-.301 8 8 0 0 0-.395-1.153c-.457-1.058-1.378-1.574-2.062-1.593-1.84.148-3.113 1.328-3.688 2.777-.57 1.453-.347 3.215.758 4.625 2.489 3.105 5.45 2.707 7.453.95.954-.833 1.782-2.024 2.012-3.411.203-1.238 0-2.559-.656-3.777a1.084 1.084 0 1 0-2.035.75c.183.836-.055 1.605-.274 2.343-.222.739-.523 1.438-1.027 1.914-.883.829-2.195.856-3.379-.511-.527-.602-.68-1.375-.473-2.047.215-.68.743-1.266 1.578-1.406-.093.02-.316.046-.28-.051.238-.653 1.323 2.074 1.765 1.863m.691-.398-.074-.098-.016.027.043.028ZM220.254 144.172a.4.4 0 0 0-.012.137.405.405 0 0 0 .434.382c.191.032.402-.16.453-.648.059-.547-.242-1.953-.29-2.074-.862-1.34-2.171-1.531-3.378-1.07-1.465.562-2.711 2.34-2.813 3.722l.559 2.52c1.402 2.484 4.031 2.511 5.984 1.257 1.848-1.187 3.02-3.523 1.88-5.91a.94.94 0 0 0-1.258-.43.945.945 0 0 0-.434 1.262c.73 1.438-.024 2.868-1.149 3.602-1.12.738-2.671.793-3.484-.649l-.168-1.445c.098-.629.715-1.273 1.348-1.687.46-.309.996-.551 1.41-.051.074.055.555 1.246.894 1.094ZM244.992 158.059c.043.07.113.129.196.16.054.074.265-.188.277-.61.055-.093.062-.152.023-.148l-.023-.004c-.028-.328-.184-.727-.598-1.11-1.11-1.027-3.601-1.581-5-1.242-1.379.344-2.574 1.57-1.554 4.727 1.023 3.156 4.308 4.195 7.035 3.473 2.8-.746 4.976-3.203 3.422-6.758a1.016 1.016 0 1 0-1.875.79c.832 2.061-.477 3.417-2.094 3.796-1.63.39-3.63-.13-4.184-2.016-.242-.812-.37-1.308-.168-1.597.207-.286.64.007 1.094.093.762.153 1.547.528 2.21.633.54.09.95-.023 1.24-.187M268.3 173.879c.302-.047.173-.191-.07-.246.012-.086.032-.176.024-.223-.238-1.86-2.113-4.004-3.781-4.293-1.426-.242-2.91.567-3.27 3.281-.441 4.329 3.04 5.696 6.086 5.102 2.063-.402 4.031-1.734 4.012-3.668-.012-.988-.5-2.07-1.77-3.102a.56.56 0 0 0-.785-.093.566.566 0 0 0-.094.785c.446.914.352 1.601.243 2.207-.172.941-1.004 1.562-2.024 1.766-1.59.32-3.512-.43-3.172-2.676.098-.969.438-1.278.985-1.098 1.02.336 2.187 1.11 2.632 2.059.07.156.168.554.235.613.21.203.535.441.726-.086a.39.39 0 0 0 .024-.328m-.32-.266q.064.01.133.043a.4.4 0 0 1 .106.086v.09c.02.047 0 .031.047.047h.035a.4.4 0 0 0-.082-.137v-.05l.011-.06-.125-.023ZM292.656 187.465c-.332-.492-1.453-1.817-2.933-2.621-.883-.48-1.864-.742-2.672-.739-1.696.004-3.137.997-2.64 4.254.573 3.286 3.097 4.407 5.448 3.762 2.024-.555 3.891-2.434 3.875-4.957a.49.49 0 0 0-.453-.531.49.49 0 0 0-.531.449 3 3 0 0 1-.094.383m-.676.203c-.082-.043-.21-.078-.324-.14-.941-.473-3.094-1.329-4.523-1.184-.586.054-.664.539-.48 1.672.234 1.738 1.507 2.3 2.773 2.101 1.246-.195 2.52-.953 3.078-2.242a.4.4 0 0 1-.281-.02.33.33 0 0 1-.153-.117v-.015c-.004-.008-.011-.02-.02-.024l-.01-.008-.032-.058-.024-.078-.004.074zl.06.023.003.012.027.035v.008c-.07.098-.09.027-.09-.078M309.441 199.129c-1.312-.207-1.941 1.469-1.832 2.7.075.878.746 1.44 1.344 1.6.504.133 1.227.04 1.953-.84.5-.605.813-1.241.84-1.91.027-.64-.14-1.273-.492-1.898a.94.94 0 0 0-1.203-.558.93.93 0 0 0-.61.906m.215 1.96c-.004.22.028.427.13.36.12-.082.03-.258-.13-.36M330.855 213.254q-.3-.328-.757-.797a.4.4 0 0 0-.13-.172c.094-.32.106-.715-.073-1.117-.403-.898-1.465-1.223-2.047-1.125-1.239.27-2.676 1.262-3.278 2.473-.492.996-.515 2.12.336 3.207 1.489 1.859 3.934 2.129 5.59 1.14 1.652-.984 2.625-3.043.98-5.175a.494.494 0 0 0-.671-.172.495.495 0 0 0-.172.672c.172.394.238.75.222 1.066m-.136.613c-.38-.21-.88-.531-1.473-.926-.246-.164-1.137-1.257-1.355-.789-.075.164.304.086.433.055a2.95 2.95 0 0 0-1.594 1.023c-.25.325-.378.735-.074 1.122.746.972 1.957 1.007 2.867.617.528-.23.977-.598 1.196-1.102M346.047 222.188c.73-1.075-.125-2.137-1.516-2.512-.863-.23-1.918.12-2.707.617-1.308.824-2.242 2.41-.523 5.152.957 1.621 2.89 1.938 4.496 1.352.797-.293 1.594-.774 1.957-1.5.398-.781.488-1.652.023-2.524a.67.67 0 0 0-.797-.52.676.676 0 0 0-.52.798c-.03.441-.41.617-.667.91-.242.262-.508.523-.852.672-.652.277-1.476.336-1.925-.301-.688-.98-.895-1.668-.582-2.129.378-.547 1.23-.476 1.863-.453.258.008.457-.172.64-.09.145.067.333.09.333.285a.4.4 0 0 0 .265.508c.211.07.442-.047.512-.266m0 0" style="stroke:none;fill-rule:evenodd;fill:#ff6d4d;fill-opacity:1"/><path d="M311.95 200.543c.042-.152.03-.34-.134-.54-.41-.5-1.59-1.648-1.8-1.737-1.036-.657-2.645-.825-4.032-.371-1.586.523-2.699 1.89-2.699 3.546.012 3.485 2.758 5.094 5.313 5.024 3.02-.082 5.687-2.34 3.515-5.735a.6.6 0 0 0-.164-.187m-.833-.094c-.39-.465-1.258-1.36-1.43-1.437-1.042-.309-2.445.16-3.476.898-.527.38-.973.848-.957 1.508.035 2.133 1.762 2.973 3.32 2.984 1.66.016 3.274-.964 2.246-2.922a.747.747 0 0 1 .27-1.02ZM361.691 228.969c-.27-.418-.562-.864-.93-1.164-.347-.278-.75-.41-1.148-.485a3.54 3.54 0 0 0-2.133.48c-.66.4-1.195.997-1.414 1.74-1.253 3.237 1.528 4.698 4.149 4.476 1.351-.114 2.762-.676 3.25-1.746.441-.997.402-2.258-.957-3.461a.445.445 0 0 0-.61-.153.45.45 0 0 0-.207.313m-.05 1.449-2.258-1.04a1.58 1.58 0 0 0-.93.161c-.27.14-.523.32-.629.602-.43 1.437.973 1.804 2.098 1.605a2.24 2.24 0 0 0 1.348-.809c.128-.167.265-.328.37-.519M375.871 233.547c-.094-.086-.207-.172-.32-.258-.918-.668-3.035-.492-4.57-.035-1.961.594-3.043 2.027-2.407 4.09.883 2.785 3.625 3.469 5.883 2.601 1.734-.664 3.55-2.347 3.16-4.297-.097-.503-.23-.855-.61-1.285a1.064 1.064 0 0 0-1.136-.816m-1.453 2.039c-.441.11-.875.031-.977-.45-.066-.331-.675.11-1.003.204-.668.191-1.473.351-1.184.988.367.836 1.254.746 1.953.461a2.14 2.14 0 0 0 1.211-1.203M251.238 152.04c.024-.134.235-.06.282-.29.117-.59.097-1.7.253-3.234.372-3.559.942-9.196 1.829-15.274 1.683-11.527 3.957-24.672 4.527-28.644a.513.513 0 0 0-1.012-.16c-.855 5.144-4.906 25.687-6.66 38.113-.39 2.738-.766 5.086-.773 6.8-.008 1.102.007 1.989.27 2.485.23.43.382.57.608.668a.41.41 0 0 0 .567.11.414.414 0 0 0 .11-.575M263.14 64.094c-.14-.457-.003-1.614.212-3.25 1.05-7.965 5.035-26.555 5.55-30.649a.34.34 0 0 0-.285-.383.34.34 0 0 0-.375.293c-.457 3.149-3.363 14.84-4.926 23.723-.925 5.25-1.312 9.535-.949 10.535a.41.41 0 1 0 .774-.27M243.023 147.754c.293-.082.516-.473.5-1.254-.023-1.242-.55-3.852.165-7.734 2.55-18.13 5.171-36.313 8.074-54.442 1.933-12.086 3.992-24.148 6.226-36.148a.546.546 0 0 0-.433-.633.543.543 0 0 0-.63.434c-2.304 11.996-4.433 24.058-6.445 36.14-3.015 18.117-5.77 36.29-8.44 54.41q-.365 2.663-.2 4.551c.14 1.645 1.367 3.379.648 3.527-.261.055.137.442.223.391a.41.41 0 0 0-.219.535c.082.211.324.309.531.223M261.805 21.84l-.078-.149c-.055-.05-.075-.074-.149-.054l-.02.011a.51.51 0 0 0-.433-.16.52.52 0 0 0-.469.575c.082.3.82.609 1.078.601 30.668-1.031 36.563-3.352.079-.824ZM229.559 14.059c-.25.632 1.187 1.93 3.699 3.113 5.008 2.367 13.96 5.293 16.383 7.082a.466.466 0 0 0 .555-.75c-2.438-1.816-11.391-5-16.505-7.281-2.023-.903-3.539-1.368-3.367-1.883a.408.408 0 0 0-.765-.281M150.371 85.055c.387-.008.617-.207.766-.524.215-.48.011-1.48.347-1.965l10.317-13.187c4.547-5.762 9.226-11.324 14-16.754 11.25-12.8 22.945-24.965 34.074-37.96a.257.257 0 0 0-.023-.356.257.257 0 0 0-.356.027c-12.805 14.766-26.289 28.492-39.137 43.21a410 410 0 0 0-9.422 11.142l-10.164 13.394-.433 2.16a.404.404 0 0 0-.39.422.4.4 0 0 0 .421.39M247.344 44.043c.91-.094.812.7.57 1.738-.473 2.051-1.883 5.016-2.144 6.797l-4.657 27.688a.388.388 0 1 0 .766.133l4.691-27.708c.305-2.105 2.215-5.851 2.301-7.796.05-1.133-.387-1.79-1.613-1.66a.41.41 0 0 0-.363.449.406.406 0 0 0 .449.359M232.879 113.238l-.102-.031c-.75-.133-.793 2.59-.84 2.766a.493.493 0 1 0 .958.242c.039-.18.609-2.11.703-2.883.058-.469-.172-.719-.282-.758a.41.41 0 0 0-.527.239.4.4 0 0 0 .09.425m0 0" style="stroke:none;fill-rule:evenodd;fill:#ff6d4d;fill-opacity:1"/><path d="M255.945 153.418c.446-.488-.96-2.34-3.61-4.406-5.44-4.242-15.343-10.606-17.741-12.246a.547.547 0 0 0-.762.144.543.543 0 0 0 .148.758c2.114 1.426 10.06 6.41 15.672 10.441a74 74 0 0 1 3.203 2.414c1.598 1.282 2.782 2.012 2.48 2.348a.41.41 0 0 0 .036.578c.168.149.43.137.574-.031M258.574 150.332c.473-1.621-1.96-4.52-5.601-7.55-6.149-5.126-15.512-10.942-17.739-12.462a.45.45 0 0 0-.504.746c2.223 1.504 11.567 7.274 17.708 12.36 3.316 2.754 5.78 5.199 5.351 6.68a.4.4 0 0 0 .277.503.406.406 0 0 0 .508-.277M259.855 144.188l-.043-.083c-.164-.253-.511-.808-.984-1.507-1.277-1.871-3.45-4.79-5.195-6.243-2.492-1.921-4.965-3.804-7.512-5.582-2.547-1.789-5.16-3.476-7.906-5.027a.353.353 0 0 0-.485.125.357.357 0 0 0 .13.488 95 95 0 0 1 6.167 4.137c2.996 2.184 5.887 4.504 8.786 6.89 2.035 1.544 4.664 5.028 5.835 6.567.266.352.457.606.547.719.516.648.903-.102.75-.371a.4.4 0 0 0-.09-.113M262.5 140.434c.184-2.114-2.078-5.028-5.367-7.993-6.055-5.457-15.492-11.261-18.082-12.976a.5.5 0 1 0-.55.836c2.585 1.691 12.003 7.398 18.05 12.789 3.058 2.726 5.289 5.324 5.137 7.277a.404.404 0 0 0 .375.438.4.4 0 0 0 .437-.371M260.75 133.156c-.469-3.449-2.305-5.996-4.785-8.125-5.29-4.543-13.617-7.11-17.336-12.832a.404.404 0 0 0-.559-.12.4.4 0 0 0-.12.562c3.753 5.785 12.14 8.421 17.484 13.004 2.332 2.003 4.066 4.386 4.504 7.62a.415.415 0 0 0 .46.352.417.417 0 0 0 .352-.46M259.594 124.79c-.227-.18-.852-.4-1.043-.587l-4.543-5.207-9.246-8.61a.34.34 0 0 0-.48.024.34.34 0 0 0 .019.485l9.172 8.644 4.511 5.23c.332.34 1.364.93 1.633.954.445.039.828-.125.387-.766a.41.41 0 0 0-.41-.168m-.336.386c-.035.039-.024.113.07.246a.4.4 0 0 1-.07-.246M257.016 112.195l-12.29-11.89a.405.405 0 1 0-.5.636c1.297 1.04 6.458 6.61 9.75 9.762 1.36 1.309 2.446 2.188 2.856 2.285a.407.407 0 0 0 .184-.793M257.066 103.168c-.734-1.457-2.039-2.715-3.546-3.82-2.133-1.559-4.676-2.82-6.52-3.985a.406.406 0 0 0-.43.688c1.825 1.152 4.348 2.406 6.461 3.949 1.403 1.031 2.625 2.184 3.305 3.535a.409.409 0 1 0 .73-.367M259.852 91.215c-1.825-.59-3.797-2.09-5.817-3.934-4.32-3.957-8.742-9.586-11.383-12.5a.466.466 0 0 0-.652-.031.457.457 0 0 0-.031.645c2.27 2.558 5.8 7.246 9.57 10.984 2.73 2.71 5.598 4.902 8.07 5.617a.406.406 0 0 0 .512-.27.413.413 0 0 0-.27-.511M260.988 87.637c-.113.11-.156.226-.039.215a.3.3 0 0 1 .016-.137l.031-.07zl.035-.028-.023.032-.004.004.067.117c.011.062.019.035-.02.078l-.094.012c0 .168.11.324.281.375.336.117.75-.54.13-1.493-1.38-2.125-5.59-7.273-6.087-7.707-3.078-2.562-6.617-4.906-9.77-7.558-1.355-1.137-2.648-2.32-3.784-3.621a.27.27 0 0 0-.38-.032.26.26 0 0 0-.026.375c1.109 1.368 2.363 2.633 3.714 3.832 3.082 2.73 6.606 5.106 9.637 7.727.492.41 4.629 5.398 5.996 7.445.106.153.246.317.328.442M265.098 88.379c2.043-.352 1.316-3.055-1.528-6.496-5.043-6.098-15.922-15.106-19.875-19.703a.41.41 0 0 0-.562-.047.405.405 0 0 0-.047.562c3.855 4.668 14.246 14.125 19.45 20.067 2.37 2.703 4.01 4.406 2.39 4.82a.407.407 0 1 0 .172.797M266.254 81.844c-.567-1.578-1.445-2.977-2.484-4.274-1.504-1.882-3.34-3.554-4.985-5.297a.4.4 0 0 0-.566-.02.4.4 0 0 0-.02.571c1.63 1.727 3.446 3.387 4.938 5.254.98 1.227 1.816 2.547 2.343 4.04a.406.406 0 0 0 .524.245.403.403 0 0 0 .25-.52M260.86 101.54c-1.079-2.274-2.508-4.243-4.133-6.067-2.372-2.657-5.164-4.993-7.891-7.528a.555.555 0 0 0-.746.82c2.746 2.47 5.558 4.739 7.945 7.333 1.602 1.734 3.016 3.613 4.09 5.8a.408.408 0 0 0 .734-.359M264.797 77.066c-.367-2.144-1.813-4.37-3.766-6.57-3.87-4.379-9.726-8.683-12.344-12.113a.45.45 0 0 0-.628-.082.45.45 0 0 0-.082.629c2.632 3.43 8.52 7.738 12.43 12.129 1.835 2.058 3.234 4.129 3.585 6.144.035.223.25.371.473.336a.413.413 0 0 0 .332-.473M262.809 68.852c-.368-2.028-1.532-3.942-3.106-5.743-3.262-3.71-8.305-6.937-11.305-9.73a.4.4 0 0 0-.558.016.403.403 0 0 0 .015.562c2.985 2.785 8 5.992 11.239 9.691 1.469 1.676 2.57 3.454 2.91 5.344a.408.408 0 1 0 .805-.14M265.012 67.008c.707-.774-.64-3.434-3.086-6.367-3.824-4.59-9.871-10.196-11.18-11.422a.33.33 0 0 0-.469.011.33.33 0 0 0 .008.47c1.278 1.25 7.059 7.03 10.871 11.581 2.121 2.528 3.84 4.5 3.246 5.18a.41.41 0 0 0 .032.578.41.41 0 0 0 .578-.031M265.059 60.055c-1.137-2.418-2.641-4.57-4.356-6.598-2.469-2.918-5.371-5.574-8.219-8.406l-5.101-4.32a.22.22 0 0 0 .199-.247.225.225 0 0 0-.25-.203c-.25.004-.191.75.516 1.551 1.25 1.41 3.816 3.527 4.066 3.785 2.824 2.82 5.707 5.465 8.16 8.371 1.664 1.973 3.137 4.067 4.246 6.414a.4.4 0 0 0 .54.196.41.41 0 0 0 .199-.543M264.32 54.137c.817-.723.371-2.555-1.203-4.64-3.441-4.563-11.633-10.79-13.297-12.079a.426.426 0 0 0-.597.07.426.426 0 0 0 .062.598c1.238 1.02 6.078 5.129 9.824 9 1.371 1.41 2.532 2.828 3.422 3.969.914 1.183 1.649 1.98 1.207 2.504a.41.41 0 0 0 .004.582.41.41 0 0 0 .578-.004M266.367 49.09c-1.055-3.09-2.656-5.473-4.578-7.586-2.793-3.082-6.258-5.594-9.629-8.961a.43.43 0 0 0-.594.004.426.426 0 0 0 .004.59c3.364 3.347 6.825 5.851 9.61 8.918 1.847 2.035 3.398 4.324 4.414 7.297a.41.41 0 0 0 .52.257.41.41 0 0 0 .253-.52M266.379 39.855c-.32-1.234-.922-2.296-1.684-3.25-1.101-1.382-2.55-2.535-3.93-3.632a.413.413 0 0 0-.585.066c-.14.18-.11.438.07.582 1.332 1.059 2.738 2.164 3.8 3.496.696.863 1.247 1.824 1.536 2.942a.409.409 0 0 0 .793-.204M267.113 31.34l-4.87-5.39a.54.54 0 0 0-.763.015.546.546 0 0 0 .016.765l4.988 5.13c.145.175.399.199.575.054a.405.405 0 0 0 .054-.574m0 0" style="stroke:none;fill-rule:evenodd;fill:#ff6d4d;fill-opacity:1"/><path d="M166.234 50.844c11.004-2.996 24.11-.54 36.563 4.297 12.297 4.773 23.988 11.879 32.195 18.996 5.348 4.562 9.723 9.82 14.606 14.668 2.09 2.078 4.273 4.082 6.656 5.922.05.043.133.039.176-.02a.13.13 0 0 0-.02-.176 63 63 0 0 1-4.387-3.965c-5.636-5.562-10.328-11.843-16.308-17.25-9.797-8.699-24.512-17.703-39.559-22.109-10.476-3.062-21.082-3.84-30.144-1.148a.41.41 0 0 0-.282.504.405.405 0 0 0 .504.28m0 0" style="stroke:none;fill-rule:evenodd;fill:#ff6d4d;fill-opacity:1"/><path d="M166.555 50.645c-.043-1.508 3.597-.75 8.328.164 7.902 1.539 18.699 4.683 21.156 5.714 10.957 4.395 23.508 11.399 35.309 19.52 11.754 8.094 22.765 17.3 30.597 26.371a.33.33 0 0 0 .47.043.337.337 0 0 0 .034-.469c-7.668-9.312-18.492-18.898-30.183-27.254-11.778-8.414-24.426-15.566-35.446-20.129-2.523-.996-13.558-4.183-21.68-5.335-5.445-.774-9.581-.282-9.398 1.43a.4.4 0 0 0 .434.378.4.4 0 0 0 .379-.433M184.176 29.953a.4.4 0 0 0-.043-.14c-.031-.145-.102-.235-.149-.165a.5.5 0 0 1 .118.114l.03.05.016.086v.055c-.132-.015-.207-.066-.199-.168.008-.066.016-.11.035-.137a.41.41 0 0 0-.453.024c-.574.316-.394.992.934 1.129 1.613.156 5.43.015 9.004.863 3.547.73 7.086 1.559 10.586 2.523 3.488.965 6.933 2.063 10.3 3.383 7.504 2.903 16.715 6.95 24.852 11.973 5.496 3.387 10.508 7.21 14.145 11.469 2.832 3.18 5.187 7 8 10.242 1.25 1.441 2.593 2.758 4.093 3.875.082.066.211.055.282-.031a.204.204 0 0 0-.032-.285c-1.39-1.184-2.601-2.575-3.738-4.055-2.621-3.422-4.809-7.356-7.48-10.7-3.672-4.421-8.747-8.445-14.356-11.988-8.184-5.16-17.492-9.304-25.066-12.289a100 100 0 0 0-10.508-3.406c-3.55-.945-7.145-1.719-10.742-2.406-2.172-.41-4.426-.567-6.254-.492-1.383.054-2.828.523-3.375.476m0 0" style="stroke:none;fill-rule:evenodd;fill:#ff6d4d;fill-opacity:1"/><path d="M264.547 71.816c-5.985-9.945-14.7-20.574-25.145-28.636-10.547-8.133-22.789-13.625-35.152-13.836a.28.28 0 0 0-.29.27.285.285 0 0 0 .27.288c9.81.426 19.336 4.391 28.114 10.07 12.945 8.372 24.254 20.633 31.508 32.266a.407.407 0 0 0 .562.137.41.41 0 0 0 .133-.559m0 0" style="stroke:none;fill-rule:evenodd;fill:#ff6d4d;fill-opacity:1"/><path d="M194.41 30.121c5.672 1.328 11.028 3.203 16.2 5.473 7.78 3.41 15.144 7.703 22.566 12.324a.552.552 0 1 0 .578-.941c-7.484-4.594-14.926-8.856-22.777-12.23-5.235-2.255-10.649-4.118-16.387-5.423a.41.41 0 0 0-.488.305.413.413 0 0 0 .308.492M147.602 84.145c-.165-.27.144.05.668.097.812.07 2.027.36 3.492.719 6.21 1.512 16.82 4.793 19.968 5.758.18.058.375-.04.43-.223a.343.343 0 0 0-.222-.426c-3.145-1.027-13.668-4.746-19.93-6.164-2.578-.582-4.488-.683-4.965-.351-.32.222-.453.554-.125 1.03a.41.41 0 0 0 .566.122.41.41 0 0 0 .118-.562M148.441 77.355c-.16-.285.207.145.903.239 1.418.187 3.8.812 6.402 1.578 4.652 1.367 10 3.176 11.895 3.777a.417.417 0 1 0 .25-.793c-2.493-.789-10.938-3.656-15.95-4.875-2.011-.488-3.515-.664-3.96-.445-.364.18-.504.469-.247.918a.4.4 0 0 0 .551.152c.2-.105.27-.355.156-.55M157.105 73.559c1.868.203 6.47 1.523 7.141 1.734a.39.39 0 0 0 .488-.258.38.38 0 0 0-.254-.48c-.785-.254-6.816-1.957-8.039-1.828-.691.074-1.109.53.051 1.3.188.121.442.07.567-.117a.4.4 0 0 0 .046-.351M164.234 66.906a8 8 0 0 1 2.04-.156c.663.043 1.32.176 2.011.398.227.07.461-.054.535-.277a.42.42 0 0 0-.277-.535 8.8 8.8 0 0 0-2.223-.418 8.5 8.5 0 0 0-2.254.191.41.41 0 0 0-.316.48.41.41 0 0 0 .484.317M231.77 18.172a4.7 4.7 0 0 0-1.52-1.281c-1.184-.657-2.602-.871-3.945-1.57a.588.588 0 0 0-.508 1.062c1.379.613 2.812.734 4.031 1.32.477.227.918.527 1.3.977a.414.414 0 0 0 .575.066.414.414 0 0 0 .067-.574M42.012 104.773c-.547-.453-.938-.37-1.078-.27-.16.118-.286.528-.082 1.118.492 1.438 2.445 4.68 2.543 4.785a51 51 0 0 0 4.69 4.133c2.446 1.918 5.056 3.652 7.688 5.285 8.59 5.262 17.582 11.04 27.051 15.434 6.375 2.957 12.969 5.27 19.735 6.504.152.031.3-.07.328-.223.031-.148-.07-.293-.223-.328-6.656-1.414-13.082-3.961-19.34-7.008-9.347-4.543-18.304-10.262-26.816-15.562-2.168-1.332-4.317-2.735-6.38-4.243-2.054-1.507-4.026-3.117-5.847-4.89l-2.77-4.086a.41.41 0 0 0 .5-.648m0 0" style="stroke:none;fill-rule:evenodd;fill:#ff6d4d;fill-opacity:1"/><path d="M43.426 104.227c-.453-1.825.93-.672 3.289.96 5.469 3.774 14.89 12.254 17.87 14.004 8.286 4.641 18.388 11.844 28.716 17.258 7.148 3.75 14.394 6.613 21.101 7.403a.204.204 0 0 0 .235-.176c.011-.11-.063-.219-.176-.23-5.027-.837-10.281-2.958-15.594-5.618-11.8-5.91-23.832-14.73-33.367-20.254-3.004-1.652-12.531-9.906-18.125-13.386-3.375-2.098-5.523-2.208-4.73.261a.407.407 0 1 0 .78-.222M52.074 102.156l21.61 15.477c9.363 6.277 20.257 13.652 31.613 19.191 7.707 3.766 15.629 6.645 23.308 8.004a.18.18 0 0 0 .204-.137.173.173 0 0 0-.137-.199c-7.55-1.656-15.219-4.949-22.77-8.863-11.16-5.797-22.023-13.05-31.285-19.375-2.144-1.418-11.933-8.34-17.965-12.067-1.98-1.226-3.574-2.09-4.336-2.382-.293-.118-.507-.149-.625-.13-.304.036-.437.204-.433.466a.404.404 0 0 0 .398.414.407.407 0 0 0 .418-.399M122.227 151.957c.636.211 1.863.695 2.421.875 2.454.773 4.829 1.676 7.18 2.64 3.547 1.458 7.024 3.06 10.567 4.59a.4.4 0 0 0 .52-.203.397.397 0 0 0-.212-.515c-3.543-1.54-7.02-3.149-10.57-4.614-2.367-.972-4.766-1.886-7.238-2.675-.672-.215-2.29-.868-2.747-.985l-.398-.09a.8.8 0 0 0-.219-.03c-.797-.114-1.004.152.336.972.11.07.246.078.36.035m0 0" style="stroke:none;fill-rule:evenodd;fill:#ff6d4d;fill-opacity:1"/><path d="M43.652 101.992c-.691.215-1.539.988-2.37 2.024-1.512 1.875-3.04 4.59-3.641 5.84a.415.415 0 0 0 .746.363c.511-1.059 1.691-3.192 2.957-4.938.894-1.226 1.804-2.273 2.55-2.511a.407.407 0 1 0-.242-.778M51.375 103.309c-.434-.25-1.687.496-3.086 1.996-3.012 3.25-7.535 9.465-8.355 10.3a.463.463 0 0 0 .011.657c.184.18.48.175.66-.012.72-.738 4.317-5.727 7.215-9.14 1.551-1.82 2.7-3.348 3.149-3.094a.406.406 0 0 0 .558-.149.41.41 0 0 0-.152-.558M56.25 105.906c-.277 1.176-1.527 2.418-2.977 3.844-3.003 2.957-7.14 6.402-8.605 8.676a.49.49 0 0 0 .133.691c.23.16.543.094.699-.133 1.754-2.515 7.379-6.101 10.031-9.535.934-1.207 1.45-2.41 1.52-3.402a.41.41 0 0 0-.328-.473.41.41 0 0 0-.473.332M63.79 108.23c-.36.141-.673.18-.993.399-1.086.723-1.824 1.883-2.727 2.855-2.613 2.825-5.125 5.793-7.394 8.829a.445.445 0 0 0 .07.624.446.446 0 0 0 .625-.074c3.086-3.71 7.05-6.847 10.106-10.617.363-.45.582-.945.882-1.43a.41.41 0 0 0 .008-.578.41.41 0 0 0-.578-.008M71.64 110.492c-.402 1.137-1.535 2.274-2.824 3.543-2.73 2.672-6.41 5.649-8.14 7.715a.46.46 0 0 0 .047.645c.191.16.472.14.636-.047 1.809-1.993 5.809-4.59 8.43-7.36 1.379-1.449 2.332-2.96 2.633-4.265a.406.406 0 0 0-.274-.504.405.405 0 0 0-.507.273M74.219 117.309c-.465 1.34-1.485 2.644-2.73 3.925-2.735 2.817-6.54 5.528-8.356 8.227a.42.42 0 0 0 .11.578.424.424 0 0 0 .585-.113c1.79-2.668 5.55-5.336 8.25-8.117 1.336-1.38 2.414-2.793 2.914-4.235a.41.41 0 0 0-.254-.52.41.41 0 0 0-.52.255M80.43 120.914l-9.461 11.281a.414.414 0 0 0 .688.46l9.429-11.257a.41.41 0 0 0-.082-.57.415.415 0 0 0-.574.086M86.574 125.219l-7.558 8.933a.286.286 0 0 0 .082.399c.129.086.308.05.39-.078l7.727-8.746a.406.406 0 0 0-.063-.575.42.42 0 0 0-.578.067M93.281 128.844c-.047.734-.508 1.664-1.125 2.656-1.312 2.117-3.347 4.48-4.203 5.926a.406.406 0 0 0 .7.414c.855-1.45 2.886-3.8 4.195-5.91.703-1.125 1.195-2.196 1.25-3.032a.413.413 0 0 0-.38-.437.414.414 0 0 0-.437.383M102.137 132.988c-.328.387-.676.715-.953 1.133-2.418 3.629-4.047 7.688-6.086 11.57a.376.376 0 1 0 .656.368c2.234-3.782 4.922-7.262 6.664-11.262.203-.465.289-.938.437-1.422a.417.417 0 0 0-.168-.555.41.41 0 0 0-.55.168M109.566 138.602l-.93 1.882a.45.45 0 0 0 .126.625c.207.141.488.082.629-.12.316-.497.66-.876.851-1.31.153-.355.223-.738.125-1.226a.407.407 0 0 0-.472-.328.405.405 0 0 0-.329.477M120.535 143.809l-.476 1.367a.443.443 0 0 0 .382.496.444.444 0 0 0 .489-.387l.25-.972a.405.405 0 0 0-.07-.57.41.41 0 0 0-.575.066M132.04 151.379l-3.126 5.5a.463.463 0 0 0 .77.516l2.976-5.485a.41.41 0 0 0-.043-.574.406.406 0 0 0-.578.043M269.758 148.285c-1.703-1.695-4.672.375-6.79 3.828-2.972 4.848-4.12 11.922-1.406 10.746a.208.208 0 1 0-.148-.387c-2.266.72-.383-3.788 1.887-7.902 1.199-2.175 2.59-4.215 3.887-5.25.726-.578 1.378-.91 2.023-.43a.41.41 0 0 0 .578-.027.41.41 0 0 0-.031-.578M274.797 151.238a.404.404 0 0 0 .129-.496c-.11-.379-1.172-.012-1.79 1.613-1.386 3.641-3.257 12.665-7.054 15.375-.2.133-.25.41-.11.61.137.2.41.25.61.113 1.86-1.176 3.52-3.629 4.785-6.402 1.445-3.176 2.524-6.7 3.012-8.914.195-.883.52-1.645.418-1.899m-.57-.078.007.004-.011-.012ZM275.703 170.895c.113-.176.227-.551.426-.95 1.398-2.773 4.965-9.515 6.293-13.558 1.047-3.211.36-4.922-1.332-3.317a.407.407 0 0 0-.078.575.41.41 0 0 0 .574.078c1.098-.664.082.07-.594 1.699-1.527 3.672-4.793 10.437-5.785 13.719-.516 1.718-.035 2.617.457 2.14a.266.266 0 0 0 .066-.363ZM290.25 156.465c-1.23 1-2.586 3.812-3.54 7.09-1.257 4.32-1.882 9.375-2.187 11.425a.324.324 0 0 0 .258.38.33.33 0 0 0 .38-.262c.476-2.309 1.913-8.391 3.39-12.996.73-2.278 1.39-4.215 2.242-5.024a.41.41 0 0 0 .035-.578.41.41 0 0 0-.578-.035M299.004 164.258c-.938.562-3.422 4.52-4.895 8.133-1.246 3.058-1.664 5.859-.484 6.03a.16.16 0 0 0 .176-.124.153.153 0 0 0-.125-.172c-.871-.195-.328-1.887.527-4.023 1.461-3.653 4.2-8.54 5.219-9.141a.408.408 0 1 0-.418-.703M304.355 171.828c-.71.961-1.378 2.09-1.812 3.39-.906 2.712-1.047 5.934-1.395 8.637a.234.234 0 0 0 .188.27.23.23 0 0 0 .266-.187c.441-1.868.968-3.954 1.48-5.993.523-2.093 1.035-4.132 1.969-5.68a.41.41 0 0 0-.696-.437M311.066 178.781c-.984-.324-1.636-.008-2.023.625-.809 1.324.059 4.664-.219 6.824a.227.227 0 1 0 .446.083c.402-1.7.207-4.208.511-5.735.13-.672.36-1.133 1.11-1a.407.407 0 1 0 .175-.797M321.402 189.102c.243.199.305.43.278.671-.067.5-.426 1.016-.676 1.461a.445.445 0 0 0 .781.426c.285-.539.672-1.191.73-1.789.055-.516-.081-1.004-.609-1.41a.41.41 0 0 0-.574.066.414.414 0 0 0 .07.575M18.281 81.059c5.82-1.711 12.051-.258 18.29 2.261 9.066 3.664 18.152 9.723 25.257 13.504a.316.316 0 0 0 .43-.125.325.325 0 0 0-.125-.437c-7.031-4.02-15.86-10.692-24.996-14.352-6.496-2.601-13.114-3.633-19.102-1.629a.397.397 0 0 0-.262.508.4.4 0 0 0 .508.27M69.152 101.723c.868.613 1.922 1.195 3.09 1.75 3.942 1.87 9.2 3.48 12.785 5.535a.31.31 0 0 0 .309-.535c-3.57-2.094-8.828-3.778-12.754-5.696-1.121-.547-2.129-1.117-2.95-1.722a.42.42 0 0 0-.573.093.413.413 0 0 0 .093.575M117.754 128.91c8.316 6.485 17.215 12.969 26.433 18.953 9.2 5.98 18.72 11.469 28.348 15.89a.107.107 0 0 0 .153-.058.114.114 0 0 0-.055-.152c-9.586-4.477-19.07-9.992-28.207-16.047-9.145-6.059-17.934-12.656-26.164-19.223a.413.413 0 0 0-.575.063.41.41 0 0 0 .067.574m0 0" style="stroke:none;fill-rule:evenodd;fill:#ff6d4d;fill-opacity:1"/><path d="M10.379 75.637c2.367-1.371 9.105-.594 16.43.988 10.039 2.168 21.171 5.914 23.746 8.188a.4.4 0 0 0 .558-.036.395.395 0 0 0-.035-.554c-2.617-2.309-13.898-6.176-24.098-8.383-7.578-1.64-14.558-2.328-17.011-.91a.409.409 0 1 0 .41.707M74.094 100.09c9.703 5.824 19.617 11.426 29.363 17.32 4.16 2.524 8.293 5.094 12.36 7.762a.38.38 0 0 0 .53-.11.38.38 0 0 0-.109-.527 396 396 0 0 0-12.375-7.789c-9.746-5.914-19.652-11.523-29.351-17.355a.408.408 0 1 0-.418.7M76.527 56.344c2.407 1.687 4.957 3.195 7.594 4.59 10.281 5.453 21.883 9.234 31.469 15.84 8.422 5.804 17.734 13.734 27.476 20.109 6.684 4.375 13.575 8.015 20.52 9.746.2.05.402-.07.453-.27a.375.375 0 0 0-.273-.449c-6.868-1.719-13.676-5.332-20.286-9.66-9.73-6.375-19.027-14.312-27.449-20.121C106.43 69.5 94.805 65.69 84.5 60.219c-2.605-1.383-5.125-2.871-7.504-4.543a.415.415 0 0 0-.574.097.41.41 0 0 0 .105.57M180.313 118.695c2.167.532 4.746 2 7.308 3.73 3.902 2.645 7.758 5.907 10.055 7.54.18.129.437.09.57-.094a.41.41 0 0 0-.098-.57c-2.652-1.883-7.363-5.926-11.847-8.703-2.047-1.266-4.051-2.266-5.793-2.7a.41.41 0 0 0-.492.305.407.407 0 0 0 .297.492M182.2 169.148c21.843 7.844 40.429 24.372 61.171 35.63 5.242 2.843 10.625 5.355 16.227 7.308.199.07.418-.035.488-.234a.386.386 0 0 0-.234-.493c-5.567-1.941-10.903-4.433-16.106-7.261-20.781-11.293-39.394-27.852-61.273-35.72a.413.413 0 0 0-.524.247c-.074.21.04.445.25.523M281.27 227.41c2.632 1.043 5.16 2.403 7.687 3.828 3.754 2.11 7.48 4.399 11.258 6.477.094.055.215.02.265-.07a.196.196 0 0 0-.07-.266c-4.32-2.613-8.469-5.649-12.879-8.04a46 46 0 0 0-5.969-2.69.408.408 0 1 0-.292.761m0 0" style="stroke:none;fill-rule:evenodd;fill:#ff6d4d;fill-opacity:1"/></svg>