<svg xmlns="http://www.w3.org/2000/svg" width="247" height="248"><defs><clipPath id="a"><path d="M9.168 32.543h109.43V236.82H9.168Zm0 0"/></clipPath><clipPath id="b"><path d="M110.598 7.98H180V55h-69.402Zm0 0"/></clipPath><clipPath id="c"><path d="M118 222.371h50v14.45h-50Zm0 0"/></clipPath><clipPath id="d"><path d="M212.598 214h26.39v23.188h-26.39Zm0 0"/></clipPath><clipPath id="e"><path d="M212.285 213.406h27.024V234h-27.024Zm0 0"/></clipPath><clipPath id="f"><path d="M158 211h24.602v25.82H158Zm0 0"/></clipPath><clipPath id="g"><path d="M161 211h21.914v25.82H161Zm0 0"/></clipPath></defs><g clip-path="url(#a)"><path d="M9.191 42.953c0-5.648 4.594-10.226 10.258-10.226h88.672c5.664 0 10.254 4.578 10.254 10.226v183.152c0 5.645-4.59 10.22-10.254 10.22H19.45c-5.664 0-10.258-4.575-10.258-10.22Zm0 0" style="stroke:none;fill-rule:nonzero;fill:#253036;fill-opacity:1"/></g><path d="M114.523 215.988V46.02c0-4.157-3.382-7.532-7.554-7.532H80.117c-.746 0-1.347.61-1.347 1.352 0 3.476-2.832 6.3-6.325 6.3H55.117c-3.488 0-6.32-2.824-6.316-6.3 0-.746-.61-1.352-1.356-1.352H20.594c-4.164 0-7.551 3.375-7.551 7.532v169.968c0 4.164 3.387 7.532 7.55 7.532h86.376c4.172 0 7.554-3.368 7.554-7.532m0 0" style="stroke:none;fill-rule:nonzero;fill:#f2f2f2;fill-opacity:1"/><path d="M21.066 100.527a3.23 3.23 0 0 1 3.23-3.234h79.349a3.25 3.25 0 0 1 3.246 3.234v28.512a3.256 3.256 0 0 1-3.246 3.234H24.297c-1.79-.007-3.238-1.453-3.23-3.234Zm0 0" style="stroke:none;fill-rule:nonzero;fill:#3e77f4;fill-opacity:1"/><path d="M26.816 105.512c0-1.188.965-2.153 2.157-2.153h22.289c1.195 0 2.16.965 2.16 2.153v18.726a2.156 2.156 0 0 1-2.16 2.157h-22.29a2.16 2.16 0 0 1-2.156-2.157Zm0 0" style="stroke:none;fill-rule:nonzero;fill:#f2f2f2;fill-opacity:1"/><path d="M39.684 111.305c-1.164.062-1.778-1.422-1.942-2.172-1.187 0-4.242.805-6.965 4.031l2.188 2.25 1.703-1.855c.305 1.742.684 5.07.328 7.324-.125.762.469 1.699 1.242 1.699h6.895c.777 0 1.363-.937 1.246-1.7-.36-2.253.016-5.581.32-7.323l1.707 1.855 2.184-2.25c-2.719-3.227-5.774-4.031-6.961-4.031-.16.75-.777 2.234-1.945 2.172m0 0" style="stroke:none;fill-rule:nonzero;fill:#3e77f4;fill-opacity:1"/><path d="M57.922 104.156c0-.61.5-1.105 1.117-1.105h22.645a1.107 1.107 0 0 1 0 2.21H59.03a1.11 1.11 0 0 1-1.11-1.105m0 5.758c0-.61.5-1.105 1.118-1.105h12.7c.402-.016.78.191.988.543.207.343.207.777 0 1.125a1.12 1.12 0 0 1-.989.543H59.031a1.11 1.11 0 0 1-1.11-1.106m26.204 14.383a1.774 1.774 0 0 1-3.547 0c0-.977.793-1.77 1.774-1.77.98 0 1.773.793 1.773 1.77m5.773 0c0 .98-.793 1.773-1.78 1.773-.981 0-1.774-.793-1.774-1.773a1.778 1.778 0 0 1 3.554 0m0 0" style="stroke:none;fill-rule:nonzero;fill:#253036;fill-opacity:1"/><path d="M21.066 143.566a3.22 3.22 0 0 1 3.23-3.226h79.349c1.789 0 3.246 1.445 3.246 3.226v28.52a3.24 3.24 0 0 1-3.246 3.223H24.297a3.23 3.23 0 0 1-3.23-3.223Zm0 0" style="stroke:none;fill-rule:nonzero;fill:#3e77f4;fill-opacity:1"/><path d="M26.816 148.555a2.153 2.153 0 0 1 2.157-2.157h22.289a2.165 2.165 0 0 1 2.16 2.157v18.726a2.156 2.156 0 0 1-2.16 2.156h-22.29a2.16 2.16 0 0 1-2.156-2.156Zm0 0" style="stroke:none;fill-rule:nonzero;fill:#f2f2f2;fill-opacity:1"/><path d="M39.684 154.352c-1.164.066-1.778-1.422-1.942-2.172-1.187 0-4.242.8-6.965 4.023l2.188 2.254 1.703-1.852c.305 1.743.684 5.067.328 7.317-.125.762.469 1.703 1.242 1.703h6.895c.777 0 1.363-.941 1.246-1.703-.36-2.25.016-5.574.32-7.317l1.707 1.852 2.184-2.254c-2.719-3.223-5.774-4.023-6.961-4.023-.16.75-.777 2.238-1.945 2.172m0 0" style="stroke:none;fill-rule:nonzero;fill:#3e77f4;fill-opacity:1"/><path d="M57.922 147.203c0-.61.5-1.11 1.117-1.11h22.645a1.11 1.11 0 0 1 1.078 1.106c0 .598-.48 1.09-1.078 1.11H59.03c-.289 0-.57-.121-.781-.325a1.1 1.1 0 0 1-.328-.78m0 5.753c0-.613.5-1.105 1.117-1.105h12.7a1.104 1.104 0 0 1 .988 1.668 1.12 1.12 0 0 1-.989.546H59.031c-.61 0-1.11-.5-1.11-1.109m26.204 14.387a1.773 1.773 0 0 1-3.547 0c0-.98.793-1.766 1.774-1.766.98 0 1.773.785 1.773 1.766m5.773 0c0 .976-.793 1.77-1.78 1.77-.981 0-1.774-.794-1.774-1.77 0-.98.8-1.766 1.781-1.766s1.773.785 1.773 1.766m0 0" style="stroke:none;fill-rule:nonzero;fill:#253036;fill-opacity:1"/><path d="M21.066 57.477a3.22 3.22 0 0 1 3.23-3.227h79.349a3.244 3.244 0 0 1 3.246 3.227v28.52a3.244 3.244 0 0 1-3.246 3.226H24.297a3.22 3.22 0 0 1-3.23-3.227Zm0 0" style="stroke:none;fill-rule:nonzero;fill:#3e77f4;fill-opacity:1"/><path d="M26.816 62.469a2.15 2.15 0 0 1 2.157-2.153h22.289a2.15 2.15 0 0 1 2.16 2.153v18.73a2.15 2.15 0 0 1-2.16 2.149h-22.29c-.57 0-1.12-.227-1.523-.633a2.13 2.13 0 0 1-.633-1.516Zm0 0" style="stroke:none;fill-rule:nonzero;fill:#f2f2f2;fill-opacity:1"/><path d="M39.684 68.262c-1.164.062-1.778-1.422-1.942-2.172-1.187 0-4.242.8-6.965 4.023l2.188 2.258 1.703-1.848c.305 1.735.684 5.059.328 7.309-.125.762.469 1.707 1.242 1.707h6.895c.777 0 1.363-.945 1.246-1.707-.36-2.25.016-5.574.32-7.309l1.707 1.848 2.184-2.258c-2.719-3.222-5.774-4.023-6.961-4.023-.16.75-.777 2.234-1.945 2.172m0 0" style="stroke:none;fill-rule:nonzero;fill:#3e77f4;fill-opacity:1"/><path d="M57.922 61.113c0-.61.5-1.11 1.117-1.11h22.645a1.11 1.11 0 0 1 1.062 1.11c0 .59-.469 1.078-1.062 1.106H59.03a1.11 1.11 0 0 1-1.11-1.105m0 5.753c0-.613.5-1.105 1.118-1.105h12.7a1.104 1.104 0 0 1 .988 1.668 1.12 1.12 0 0 1-.989.547H59.031c-.61 0-1.11-.5-1.11-1.11m26.204 14.387a1.77 1.77 0 0 1-.871 1.582 1.79 1.79 0 0 1-1.813 0 1.75 1.75 0 0 1-.863-1.582 1.77 1.77 0 0 1 1.774-1.766c.98 0 1.773.793 1.773 1.766m5.773 0a1.77 1.77 0 0 1-.87 1.582 1.777 1.777 0 0 1-2.684-1.582c0-.973.8-1.766 1.781-1.766s1.773.793 1.773 1.766m0 0" style="stroke:none;fill-rule:nonzero;fill:#253036;fill-opacity:1"/><path d="M89.625 198.34c5.387-1.871 8.102-9.508 8.785-13.09H74.531c.68 3.582 3.39 11.219 8.778 13.09v4.433c-5.051 3.125-6.614 6.641-9.317 13.22h24.961c-2.707-6.579-4.273-10.095-9.328-13.22Zm0 0" style="stroke:none;fill-rule:nonzero;fill:#f2f2f2;fill-opacity:1"/><path d="M82.598 205.98c-1.946 1.29-4.59 5.743-5.664 7.801l18.347.805c1.078-1.07-3.781-11.297-5.398-8.606-1.293 2.153-5.399.899-7.285 0m0 0" style="stroke:none;fill-rule:nonzero;fill:#3e77f4;fill-opacity:1"/><path d="M70.719 182.969a2.293 2.293 0 0 1 2.293-2.278h26.785a2.285 2.285 0 0 1 2.289 2.278 2.286 2.286 0 0 1-2.29 2.281H73.013a2.286 2.286 0 0 1-2.293-2.281m0 32.566a2.28 2.28 0 0 1 2.293-2.273h26.785a2.274 2.274 0 0 1 2.285 2.277 2.28 2.28 0 0 1-2.285 2.281H73.012a2.28 2.28 0 0 1-1.617-.668 2.28 2.28 0 0 1-.676-1.617m0 0" style="stroke:none;fill-rule:nonzero;fill:#253036;fill-opacity:1"/><path d="M95.82 189.566c-1.078 2.25-4.32 7-8.636 8.075 0 .539.539 9.148 2.433 9.953-1.515 1.511-4.23.812-5.406.27 1.945-1.29 1.894-7.282 1.625-10.114-3.711-.312-6.703-5.562-7.828-8.45-.34-.808 4.047-1.073 7.828.81 3.02 1.507 7.914.265 9.984-.544m0 0" style="stroke:none;fill-rule:nonzero;fill:#3e77f4;fill-opacity:1"/><g clip-path="url(#b)"><path d="M175.434 7.98h-60.45c-2.39 0-4.32 1.93-4.32 4.301v42.504l8.469-9.433h56.3c2.383 0 4.32-1.926 4.32-4.301V12.28c0-2.37-1.937-4.3-4.32-4.3m0 0" style="stroke:none;fill-rule:nonzero;fill:#f2f2f2;fill-opacity:1"/></g><path d="M147.828 39.027c-6.77 0-12.254-5.472-12.254-12.215 0-6.75 5.485-12.218 12.254-12.218 5.66 0 10.426 3.828 11.836 9.027h-3.898l4.976 5.434 4.977-5.434h-3.668a14.575 14.575 0 0 0-14.223-11.34c-8.05 0-14.574 6.504-14.574 14.532 0 8.019 6.523 14.523 14.574 14.523A14.58 14.58 0 0 0 161 33.039c.273-.578-.027-1.254-.629-1.477-.601-.222-1.266.075-1.547.653a12.26 12.26 0 0 1-10.996 6.812m0 0" style="stroke:none;fill-rule:nonzero;fill:#253036;fill-opacity:1"/><path d="M148.895 17.586c-.594 0-1.075.48-1.075 1.074v8.14h-7.93c-.597 0-1.081.477-1.081 1.071s.484 1.078 1.082 1.078h10.082V18.66c0-.594-.48-1.074-1.078-1.074m0 0" style="stroke:none;fill-rule:nonzero;fill:#253036;fill-opacity:1"/><g clip-path="url(#c)"><path d="M118.219 222.66h49.66v11.84a2.15 2.15 0 0 1-2.16 2.148h-45.336a2.156 2.156 0 0 1-2.164-2.148Zm0 0" style="stroke:none;fill-rule:nonzero;fill:#3e77f4;fill-opacity:1"/><path d="M167.34 223.195h-48.574V234.5c0 .883.718 1.61 1.617 1.61h45.336c.898 0 1.62-.727 1.62-1.61Zm-49.117-.535v11.84c0 1.188.965 2.148 2.16 2.148h45.336c1.195 0 2.16-.96 2.16-2.148v-11.84Zm0 0" style="stroke:none;fill-rule:evenodd;fill:#253036;fill-opacity:1"/></g><path d="M115.52 210.82a2.16 2.16 0 0 1 2.16-2.148h45.343c1.188 0 2.157.965 2.157 2.148v9.684a2.156 2.156 0 0 1-2.157 2.156H117.68a2.156 2.156 0 0 1-2.16-2.156Zm0 0" style="stroke:none;fill-rule:nonzero;fill:#3e77f4;fill-opacity:1"/><path d="M163.023 209.207H117.68a1.62 1.62 0 0 0-1.618 1.613v9.684a1.61 1.61 0 0 0 1.618 1.617h45.343a1.62 1.62 0 0 0 1.618-1.617v-9.684a1.62 1.62 0 0 0-1.618-1.613m-45.343-.535a2.16 2.16 0 0 0-2.16 2.152v9.68c0 1.195.972 2.16 2.16 2.16h45.343a2.16 2.16 0 0 0 2.157-2.16v-9.68a2.157 2.157 0 0 0-2.157-2.152Zm0 0" style="stroke:none;fill-rule:evenodd;fill:#253036;fill-opacity:1"/><path d="M215.508 232.996c-.102-2.098-7.543-7.016-9.64-9.601l6.66-8.81c.218.169 6.777 8.466 10.347 6.43.98 4.778-5.113 10.192-7.367 11.981m0 0" style="stroke:none;fill-rule:nonzero;fill:#fcbfbc;fill-opacity:1"/><g clip-path="url(#d)"><path d="M217.543 220.207c-.66 2.031.59 2.11.766 4.527.332 4.586-5.57 2.188-5.551 5.133.008 1.836 4.965 5.692 7.691 7.317 4.078-3.532 11.317-10.82 15.813-16.137 1.351-1.594 3.02-3.426 2.656-5.477-.55-3.058-7.262-.746-11.273 1.18-.829.203-1.649.383-2.415.54l-.218.038a51 51 0 0 1-1.516.281c-.762.133-1.5.258-2.172.399-1.898.394-3.363.933-3.781 2.199m0 0" style="stroke:none;fill-rule:nonzero;fill:#759df5;fill-opacity:1"/></g><g clip-path="url(#e)"><path d="M219.004 219.02c-.617.316-1.024.722-1.203 1.277-.156.48-.196.828-.172 1.11.023.292.11.534.226.808.04.078.07.152.106.23.238.524.535 1.168.617 2.27.086 1.203-.238 2-.816 2.539-.563.523-1.328.75-2.047.922-.18.043-.348.078-.504.117a8 8 0 0 0-.55.129c-.306.062-.595.16-.876.289q-.37.174-.558.43c-.125.172-.204.402-.2.722l-.539.004c-.004-.418.094-.758.293-1.031a1.9 1.9 0 0 1 .766-.613c.3-.141.637-.243.98-.328.184-.04.383-.086.582-.133.164-.032.328-.075.477-.114.715-.16 1.36-.378 1.812-.789.434-.398.72-1.02.641-2.105-.074-1-.332-1.566-.57-2.078a5 5 0 0 0-.11-.246c-.125-.293-.238-.602-.27-.977-.03-.375.028-.797.2-1.324.234-.723.77-1.227 1.465-1.59.687-.355 1.559-.594 2.52-.793.574-.125 1.183-.23 1.812-.34q.181-.029.363-.062a39 39 0 0 0 1.504-.281l.227-.043m-.29.601c-.398.082-.8.156-1.202.23l-.051.11c-.024.05-.047.101-.078.16l-.008.024q-.046.094-.098.207c-.14.296-.305.668-.445 1.058-.14.387-.254.793-.29 1.168-.046.379-.015.695.11.934l-.48.246c-.188-.371-.22-.817-.172-1.242.05-.426.18-.875.324-1.29.148-.41.32-.796.46-1.097l.08-.168c-.524.094-1.032.184-1.513.281l-.023.051a18 18 0 0 0-.473 1.477c-.11.398-.18.796-.226 1.207-.04.382-.016.71.07.953l-.504.183c-.133-.347-.14-.77-.105-1.187.035-.426.136-.875.242-1.293.129-.477.281-.934.394-1.262-.742.18-1.382.383-1.898.649m6.469-1.512c-.043.207-.094.41-.164.613l-.067.219c-.078.262-.168.543-.246.836-.098.36-.16.73-.184 1.101-.015.352.032.66.157.91l-.477.247c-.191-.364-.238-.778-.222-1.18.015-.406.101-.824.207-1.215.078-.3.171-.605.25-.863q.035-.11.066-.215a3 3 0 0 0 .098-.34m.582-.113c.539-.11 1.105-.23 1.683-.36q-.376.782-.625 1.622a6 6 0 0 0-.246 1.214c-.02.38.012.754.168 1.063l.477-.246c-.086-.18-.13-.446-.102-.785.031-.371.102-.743.211-1.098.227-.738.555-1.48.805-1.961 1.988-.95 4.605-1.977 6.789-2.402 1.113-.215 2.082-.27 2.793-.098.36.082.629.219.832.406.195.18.336.426.398.754l.528-.094a1.85 1.85 0 0 0-.559-1.058c-.29-.266-.656-.434-1.074-.535-.824-.196-1.89-.121-3.02.097-2.273.438-4.965 1.508-6.972 2.473m-.063 8.688a187 187 0 0 1-9.078 8.683l-.36-.402a189 189 0 0 0 9.051-8.653c3.282-3.367 6.383-6.867 8.075-9.52l.453.29c-1.723 2.703-4.864 6.234-8.14 9.601m0 0" style="stroke:none;fill-rule:evenodd;fill:#253036;fill-opacity:1"/></g><path d="M162.14 214.254c2.098-.246 10.383-9.191 12.829-11.453l9.273 6c-.14.226-11.883 8.539-9.594 11.945-4.714 1.309-10.562-4.375-12.507-6.492m0 0" style="stroke:none;fill-rule:nonzero;fill:#fcbfbc;fill-opacity:1"/><g clip-path="url(#f)"><path d="M175.078 215.383c-2.074-.516-2.07.734-4.473 1.082-4.57.652-2.578-5.39-5.523-5.164-1.836.137-5.344 5.336-6.789 8.16 3.82 3.812 11.617 10.496 17.258 14.594 1.687 1.234 3.633 2.77 5.664 2.261 3.02-.757.238-7.27-1.973-11.12q-.37-1.184-.699-2.372l-.059-.21c-.14-.509-.265-1.009-.39-1.493-.184-.746-.36-1.465-.547-2.129-.531-1.86-1.164-3.281-2.469-3.601m0 0" style="stroke:none;fill-rule:nonzero;fill:#759df5;fill-opacity:1"/></g><g clip-path="url(#g)"><path d="M176.375 216.754c-.367-.586-.8-.969-1.363-1.11-.489-.12-.844-.136-1.133-.09-.281.044-.52.15-.793.29-.066.031-.14.078-.219.113-.504.273-1.129.617-2.219.773-1.207.172-2.023-.093-2.605-.636-.555-.524-.844-1.27-1.066-1.973-.055-.16-.102-.324-.149-.488-.055-.184-.101-.36-.164-.543a4.8 4.8 0 0 0-.351-.856 1.55 1.55 0 0 0-.473-.523c-.184-.11-.414-.172-.738-.14l-.04-.536c.418-.039.766.047 1.06.219.284.172.495.426.66.719.163.285.288.617.39.949q.092.275.18.574.07.24.14.469c.223.695.48 1.32.922 1.742.43.402 1.07.64 2.156.492.989-.144 1.543-.445 2.04-.71.077-.044.156-.083.234-.126.285-.152.59-.281.957-.34.379-.058.8-.035 1.344.106.738.184 1.277.676 1.687 1.344.414.66.703 1.511.969 2.445.164.566.32 1.172.472 1.785.032.121.055.234.086.352.121.488.246.984.387 1.484l.059.215m-.625-.242q-.16-.585-.309-1.184-.058-.026-.117-.039a1 1 0 0 0-.172-.062l-.016-.012a17.018 17.018 0 0 0-1.3-.45 5.7 5.7 0 0 0-1.196-.214c-.382-.016-.695.043-.925.18l-.274-.461c.356-.211.785-.278 1.223-.254.433.02.894.113 1.316.234.422.113.82.262 1.133.379l.164.062a41 41 0 0 0-.379-1.48c-.02-.004-.043-.008-.058-.02-.317-.09-.875-.25-1.508-.37a7 7 0 0 0-1.223-.141c-.394-.012-.715.035-.945.14l-.223-.488c.336-.156.758-.2 1.184-.187.425.003.886.07 1.308.148.489.094.953.215 1.29.309-.231-.73-.477-1.356-.778-1.848m1.96 6.328a6 6 0 0 1-.628-.113c-.07-.024-.144-.04-.223-.059-.28-.07-.57-.133-.851-.183a5 5 0 0 0-1.113-.11c-.356.012-.66.078-.899.223l-.277-.461c.344-.211.75-.281 1.16-.297.406-.012.832.047 1.23.113.313.059.614.13.887.192.07.015.14.039.211.054.133.032.246.055.348.07m.156.571c.148.527.312 1.078.476 1.648a10.6 10.6 0 0 0-1.66-.511 6 6 0 0 0-1.234-.153c-.383 0-.754.059-1.05.235l.277.46q.26-.157.773-.156c.336 0 .723.051 1.117.133.75.176 1.52.45 2.02.664 1.086 1.91 2.3 4.446 2.875 6.586.297 1.086.414 2.051.297 2.77q-.094.534-.352.851a1.32 1.32 0 0 1-.723.45l.125.52c.43-.11.77-.325 1.02-.63.246-.304.39-.683.46-1.101.138-.84-.007-1.887-.308-3-.601-2.23-1.851-4.828-2.957-6.762m-8.703.539q-4.802-4.05-9.32-8.414l.375-.383a191 191 0 0 0 9.293 8.387c3.597 3.031 7.316 5.87 10.093 7.37l-.261.474c-2.82-1.528-6.578-4.403-10.18-7.434m0 0" style="stroke:none;fill-rule:evenodd;fill:#253036;fill-opacity:1"/></g><path d="M165.543 167.777c.539-1.343 1.078-7.53 1.078-8.609-3.238-.43-8 3.227-9.984 5.11-.453 2.515.058 7.906 2.433 10.495 5.664 6.188 11.328 7.528 17 12.91.989.946 5.758-.359 8.368-1.34-8.368-5.917-5.399-5.652-18.891-18.566m0 0" style="stroke:none;fill-rule:nonzero;fill:#fcbfbc;fill-opacity:1"/><path d="M208.09 226.695c-12.813-13.422-16.54-12.379-21.676-19.597-2.95 2.57-5.8 5.25-8.55 8.03-4.102-.648-7.012-3.948-9.177-6.995l3.114-4.301c-6.754 3.023-15.875 6.582-24.434 8.578-3.672-2.394-13.492-3.312-17.949-3.472-3.211-4.329-3.992-10.66-3.79-14.79 6.567 1.075 17.786-2.156 32.114-6.457 35.09-7.804 41.836-5.113 44.535.543 1.145 3.29-.672 5.868-4.574 9.356 6.379 6.52 13.297 14.695 17.5 19.148 0 3.766-4.683 8.88-7.113 9.957m0 0" style="stroke:none;fill-rule:nonzero;fill:#253036;fill-opacity:1"/><path d="M178.96 187.043c3.052-.047 5.685.215 7.462.937 1.562.63 3.476 2 5.594 3.82 2.109 1.821 4.449 4.106 6.824 6.571.09.11.078.27-.024.363a.267.267 0 0 1-.367.008c-2.37-2.46-4.691-4.73-6.789-6.535-2.11-1.809-3.969-3.137-5.433-3.73-1.68-.676-4.22-.942-7.262-.895-3.031.05-6.528.41-10.086.973-7.117 1.12-14.477 3.027-18.86 4.77 4.231-2.259 11.626-4.173 18.778-5.302 3.578-.562 7.09-.93 10.156-.98m3.36 12.695.136.121c2.168 1.844 4.899 4.551 7.754 7.551a.27.27 0 0 1-.394.371c-2.79-2.933-5.446-5.578-7.575-7.398-.964.472-2.742 1.05-4.62 1.66l-.055.016c-2.032.664-4.184 1.359-5.657 2.02 1.278-1.161 3.47-1.876 5.489-2.532 2.035-.66 3.886-1.262 4.757-1.719Zm0 0" style="stroke:none;fill-rule:evenodd;fill:#f2f2f2;fill-opacity:1"/><path d="M143.43 132.934c4.234-1.641 4.43-9.024 4-12.508.593 1.488 4.558 8.68 10.379 8.785.03.902.18 2.57.57 3.844.266.855.508 1.82.09 2.613-2.844 5.383-11.04.582-15.04-2.738m0 0" style="stroke:none;fill-rule:nonzero;fill:#fcbfbc;fill-opacity:1"/><path d="M149.375 114.824c6.91-.758 9.184-5.738 9.492-8.316 1.559.433 4.762 2.105 5.106 5.297.437 3.984 2.156 15.847-4.543 17.25a7.8 7.8 0 0 1-1.621.156c-5.82-.106-9.786-7.297-10.38-8.785-3.46-1.614-3.78-5.278-2.488-6.574 1.036-1.036 3.391.218 4.434.972m0 0" style="stroke:none;fill-rule:nonzero;fill:#fcbfbc;fill-opacity:1"/><path d="M147.184 116.355a3.6 3.6 0 0 0-1.153-.742l.2-.5a4.3 4.3 0 0 1 1.324.852c.453.426.855 1.012.902 1.75l-.543.039c-.039-.559-.34-1.031-.73-1.399m3.675 8.801c1.774 1.977 4.153 3.73 6.953 3.781l-.003.54c-3.028-.051-5.54-1.946-7.352-3.957-1.812-2.028-2.973-4.223-3.277-4.993l.5-.199c.285.715 1.406 2.86 3.18 4.828m0 0" style="stroke:none;fill-rule:evenodd;fill:#253036;fill-opacity:1"/><path d="M149.375 114.824c6.91-.758 9.184-5.738 9.496-8.316 1.555.433 4.758 2.105 5.102 5.297.437 3.984 2.156 15.847-4.543 17.25a7.8 7.8 0 0 1-1.621.156c.03.918.187 2.629.593 3.906 3.305 1.574 6.457 4.914 7.703 6.77.563.843 1.352 2.523 2.18 4.531l2.88-4.574c1.679-3.317-.013-6.239-2.11-8.852-2.164-2.695-.11-4.422.863-7.433.98-3.024-1.074-5.504-2.484-7.446-1.407-1.937-.973-4.308-1.407-9.804-.343-4.403-7.207-6.364-10.597-6.793-3.856-.395-12.024.691-13.836 8.191-1.41 6.145.777 6.703-3.899 8.195-5.73 1.836 0 6.68-3.785 9.485-2.2 1.8-5.277 6.508 0 10.996l9.52-3.453c4.234-1.637 4.43-9.02 4-12.504-3.461-1.614-3.782-5.278-2.489-6.574 1.043-1.036 3.391.218 4.434.972m0 0" style="stroke:none;fill-rule:nonzero;fill:#253036;fill-opacity:1"/><path d="M154.5 114.55c-.457.692-.746 1.669-.746 2.755 0 1.082.293 2.054.746 2.746.46.695 1.059 1.082 1.691 1.082.621 0 1.223-.387 1.68-1.082.457-.692.75-1.664.75-2.746 0-1.086-.293-2.063-.75-2.754-.457-.692-1.059-1.074-1.68-1.074-.632 0-1.23.382-1.691 1.074m-.45-.293c.524-.79 1.27-1.32 2.141-1.32.86 0 1.61.53 2.133 1.32.465.71.766 1.637.824 2.664.172-.055.368-.098.567-.117.203-.016.43-.016.648.047.047-.887.301-1.704.7-2.317.43-.691 1.078-1.164 1.828-1.164.754 0 1.394.473 1.832 1.164.441.692.707 1.637.707 2.66 0 1.028-.266 1.965-.707 2.66-.438.688-1.078 1.168-1.832 1.168-.739 0-1.371-.46-1.809-1.128-.422-.645-.687-1.512-.727-2.461-.132-.082-.335-.114-.585-.094a2.5 2.5 0 0 0-.614.144c-.031 1.106-.336 2.114-.832 2.86-.523.793-1.273 1.324-2.133 1.324-.87 0-1.617-.531-2.14-1.324-.52-.79-.84-1.867-.84-3.04 0-1.175.32-2.253.84-3.046m7.457.566c-.375.598-.617 1.43-.617 2.371v.102c.015.914.265 1.726.644 2.3.383.575.867.883 1.356.883.507 0 .996-.32 1.379-.914.378-.593.62-1.43.62-2.37 0-.942-.242-1.774-.62-2.372-.383-.597-.872-.914-1.38-.914-.503 0-.995.317-1.382.914m0 0" style="stroke:none;fill-rule:evenodd;fill:#253036;fill-opacity:1"/><path d="M158.246 118.914c0 .54-.297.973-.652.973-.36 0-.649-.434-.649-.973 0-.531.29-.969.649-.969.355 0 .652.438.652.97m5.836.218c0 .535-.293.965-.652.965-.356 0-.649-.43-.649-.965 0-.543.293-.969.649-.969.36 0 .652.434.652.969m0 0" style="stroke:none;fill-rule:nonzero;fill:#253036;fill-opacity:1"/><path d="m153.664 115.629-4.32-.543.062-.531 4.328.543Zm4.129 9.394c.41.297.586.52.941.622.352.085.907.07 1.739-.34-.664.925-1.364.996-1.883.855-.516-.14-.828-.484-.95-.789m.153-.348" style="stroke:none;fill-rule:evenodd;fill:#253036;fill-opacity:1"/><path d="M158.434 133.074c-1.082 8.824-9.813 3.317-14.309-.535-4.04 1.34-7.734 1.617-12.32 4.84-5.16 3.633-7.532 13.094-6.575 18.832 0 22.863-2.601 27.707 0 46.27 5.946-9.95 18.36-4.032 33.473-12.106 0-13.45.09-19.906 2.52-27.707.261-.305.496-.629.71-.961 4.016.652 6.329-.687 7.114-1.73.086-3.672.652-10.165-1.082-16.41-1.727-6.243-7.012-9.594-9.531-10.493m0 0" style="stroke:none;fill-rule:nonzero;fill:#3e77f4;fill-opacity:1"/><path d="M163.336 144.914c.625 2.16 1.062 5.418.934 8.774-.137 3.316-.825 6.777-2.801 9.109-2.406 7.73-2.406 13.348-2.406 26.77a.27.27 0 0 1-.27.273.274.274 0 0 1-.273-.274v-.03c0-13.419 0-19.11 2.449-26.946l.015-.055.032-.047c1.882-2.183 2.582-5.515 2.71-8.824.13-3.297-.304-6.52-.609-8.437m-26.855 5.902c1.457 2.148 2.07 3.851 2.625 5.504l.222.668c.477 1.422.946 2.836 1.68 4.449l.078.16-.125.137c-1.762 1.887-3.91 3.941-5.972 5.578-1.028.82-2.043 1.54-2.977 2.078-.93.543-1.793.918-2.54 1.031l-.183.028-.093-.157c-1.016-1.757-1.84-4.261-2.493-6.859-.66-2.601-1.152-5.312-1.52-7.496.9 2.09 1.395 4.785 2.048 7.367.625 2.504 1.402 4.875 2.336 6.555.613-.137 1.355-.453 2.18-.93a25 25 0 0 0 2.902-2.039c1.992-1.578 4.07-3.555 5.789-5.39-.703-1.575-1.16-2.97-1.621-4.344l-.223-.668c-.547-1.645-1.152-3.309-2.223-5.305m.11-.367" style="stroke:none;fill-rule:evenodd;fill:#253036;fill-opacity:1"/><path d="m161.492 139.262 11.07-2.149-2.972 18.024-11.063 2.148Zm0 0" style="stroke:none;fill-rule:nonzero;fill:#253036;fill-opacity:1"/><path d="M158.012 154.906c-5.414 5.57-10.254 6.41-17.414 12.852l-2.356-3.559c-2.832 2.735-6.054 5.32-8.285 6.082 1.117 2.364 2.574 4.399 3.117 5.188 1.38 2.469 5.91 7.086 27.817-16.016.672-1.144.918-1.687.953-1.82 1.68.12 1.98-2.535 2.504-3.508.527-.98 3.14-.336 4.515-1.379s-5.105-.715-4.449-1.098c.652-.398 7.066-1.578 6.54-2.816-.415-.992-4.747.078-6.856.734 1.937-.898 5.992-2.695 5.808-3.214-.656-1.825-6.035 1.183-6.113 1.253 1.129-1.035 2.336-2.539 2.777-3.468.586-1.235-2.55.199-3.273.851-.578.52-2.164 1.922-3.152 2.883l.27-1.883c-.49.5-2.446 2.27-2.153 3.57.312 1.41-.028 4.145-.235 5.337Zm479.629 94.617 7.414-12.406c2.84 2.785 9.789 5.469 10.215 5.399.43-.07-4.051 8.129-6.055 10.48-11.235 5.524-12.524-.156-11.574-3.473m0 0" style="stroke:none;fill-rule:nonzero;fill:#fcbfbc;fill-opacity:1"/></svg>