<?xml version="1.0" encoding="UTF-8"?>
<svg xmlns="http://www.w3.org/2000/svg" xmlns:xlink="http://www.w3.org/1999/xlink" width="px" height="px" viewBox="0 0 180 181" version="1.1">
<defs>
<clipPath id="clip1">
  <path d="M 11.199219 4.457031 L 169.769531 4.457031 L 169.769531 82.78125 L 11.199219 82.78125 Z M 11.199219 4.457031 "/>
</clipPath>
<clipPath id="clip2">
  <path d="M 11.199219 5 L 105.269531 5 L 105.269531 82 L 11.199219 82 Z M 11.199219 5 "/>
</clipPath>
<clipPath id="clip3">
  <path d="M 74.519531 4.457031 L 92.519531 4.457031 L 92.519531 71.5625 L 74.519531 71.5625 Z M 74.519531 4.457031 "/>
</clipPath>
<clipPath id="clip4">
  <path d="M 149.519531 134.390625 L 176.496094 134.390625 L 176.496094 144.859375 L 149.519531 144.859375 Z M 149.519531 134.390625 "/>
</clipPath>
<clipPath id="clip5">
  <path d="M 138.269531 158.324219 L 156 158.324219 L 156 176.585938 L 138.269531 176.585938 Z M 138.269531 158.324219 "/>
</clipPath>
</defs>
<g id="surface1">
<g clip-path="url(#clip1)" clip-rule="nonzero">
<path style=" stroke:none;fill-rule:evenodd;fill:rgb(14.509805%,18.82353%,21.176471%);fill-opacity:1;" d="M 104.828125 5.355469 C 91.648438 4.867188 78.042969 6.3125 68.984375 10.230469 C 59.683594 14.25 48.621094 17.523438 38.210938 18.890625 C 27.964844 20.242188 18.324219 19.746094 11.632812 16.277344 C 11.707031 21.570312 13.429688 37.515625 15.152344 52.371094 C 15.941406 59.148438 16.746094 65.925781 17.570312 72.703125 L 17.921875 75.589844 C 18.097656 77.042969 18.25 78.289062 18.371094 79.277344 C 18.46875 80.085938 18.5625 80.894531 18.65625 81.707031 C 27.089844 81.339844 44.09375 77.667969 59.058594 74.070312 C 65.632812 72.484375 72.1875 70.835938 78.730469 69.125 C 81.292969 68.457031 83.390625 67.902344 84.839844 67.511719 C 85.566406 67.316406 86.128906 67.164062 86.515625 67.058594 C 86.621094 67.03125 86.710938 67.007812 86.785156 66.988281 C 86.851562 66.96875 86.90625 66.953125 86.953125 66.941406 L 87.023438 66.921875 C 91.15625 59.792969 93.753906 54.207031 95.316406 50.402344 C 95.910156 48.972656 96.457031 47.523438 96.953125 46.054688 C 97.078125 45.6875 97.195312 45.320312 97.308594 44.945312 L 97.390625 44.664062 L 97.40625 44.59375 L 97.410156 44.589844 C 97.621094 42.308594 97.914062 39.898438 98.269531 37.425781 C 99.957031 25.585938 102.996094 12.367188 104.828125 5.355469 M 105.242188 5.375 C 103.414062 12.347656 100.367188 25.597656 98.671875 37.460938 C 98.921875 40.5625 99.476562 45.324219 100.335938 49.542969 C 100.769531 51.664062 101.273438 53.636719 101.855469 55.203125 C 102.144531 55.980469 102.449219 56.652344 102.773438 57.1875 C 103.09375 57.722656 103.425781 58.105469 103.753906 58.320312 L 103.964844 58.457031 L 103.789062 58.632812 C 103.722656 58.699219 103.628906 58.78125 103.507812 58.894531 C 102.453125 59.851562 99.480469 62.554688 97.484375 68.136719 C 103.84375 72.636719 113.371094 75.023438 122.742188 76.171875 C 132.09375 77.320312 141.253906 77.226562 146.886719 76.785156 L 168.492188 15.746094 C 166.660156 16.152344 164.167969 16.207031 161.34375 16.019531 C 158.316406 15.820312 154.898438 15.347656 151.464844 14.726562 C 144.605469 13.484375 137.691406 11.648438 133.835938 10.230469 C 126.476562 7.53125 116.03125 5.804688 105.242188 5.375 M 97.445312 67.09375 L 97.445312 51.636719 C 97.445312 49.53125 97.578125 47.167969 97.8125 44.644531 C 97.972656 42.910156 98.183594 41.097656 98.429688 39.242188 C 98.71875 42.242188 99.226562 46.117188 99.941406 49.625 C 100.375 51.75 100.886719 53.75 101.472656 55.339844 C 101.769531 56.132812 102.085938 56.832031 102.425781 57.394531 C 102.703125 57.859375 103.007812 58.242188 103.332031 58.507812 L 103.226562 58.605469 C 102.230469 59.511719 99.460938 62.027344 97.445312 67.09375 M 97.253906 46.429688 C 97.117188 48.28125 97.039062 50.03125 97.039062 51.636719 L 97.039062 68.3125 L 97.125 68.375 C 103.570312 72.992188 113.246094 75.414062 122.695312 76.570312 C 132.148438 77.730469 141.410156 77.625 147.050781 77.175781 L 147.179688 77.164062 L 169.128906 15.171875 L 168.757812 15.269531 C 166.964844 15.734375 164.378906 15.8125 161.371094 15.617188 C 158.367188 15.421875 154.960938 14.949219 151.535156 14.328125 C 144.691406 13.089844 137.804688 11.257812 133.976562 9.855469 C 126.527344 7.121094 115.96875 5.386719 105.097656 4.964844 C 91.8125 4.445312 78.023438 5.882812 68.824219 9.855469 C 59.554688 13.867188 48.523438 17.128906 38.160156 18.492188 C 27.785156 19.859375 18.109375 19.316406 11.523438 15.761719 L 11.226562 15.601562 L 11.226562 15.941406 C 11.226562 20.894531 12.988281 37.242188 14.75 52.417969 C 15.539062 59.195312 16.34375 65.976562 17.167969 72.75 L 17.523438 75.636719 C 17.695312 77.089844 17.851562 78.335938 17.96875 79.328125 C 18.066406 80.125 18.140625 80.757812 18.191406 81.199219 C 18.21875 81.421875 18.238281 81.59375 18.25 81.71875 C 18.257812 81.78125 18.261719 81.828125 18.265625 81.863281 C 18.269531 81.890625 18.269531 81.90625 18.273438 81.910156 L 18.273438 82.125 L 18.480469 82.113281 C 26.894531 81.796875 44.089844 78.085938 59.15625 74.460938 C 66.691406 72.648438 73.707031 70.855469 78.835938 69.515625 C 81.402344 68.84375 83.496094 68.289062 84.945312 67.898438 C 85.671875 67.707031 86.238281 67.554688 86.625 67.449219 C 86.816406 67.398438 86.960938 67.355469 87.0625 67.328125 L 87.207031 67.289062 L 87.210938 67.289062 L 87.203125 67.265625 C 87.199219 67.242188 87.183594 67.195312 87.15625 67.09375 L 87.210938 67.289062 L 87.289062 67.265625 L 87.332031 67.195312 C 91.5 60.015625 94.117188 54.390625 95.691406 50.558594 C 96.257812 49.199219 96.777344 47.820312 97.253906 46.429688 M 97.253906 46.429688 "/>
</g>
<path style=" stroke:none;fill-rule:nonzero;fill:rgb(24.313726%,46.666667%,95.686275%);fill-opacity:1;" d="M 133.90625 10.042969 C 141.589844 12.863281 161.503906 17.375 168.808594 15.460938 L 147.035156 76.976562 C 135.773438 77.878906 110.050781 77.386719 97.242188 68.210938 L 97.242188 51.636719 C 97.242188 49.519531 97.375 47.152344 97.609375 44.625 C 97.820312 42.339844 98.117188 39.925781 98.46875 37.453125 C 100.175781 25.488281 103.265625 12.105469 105.085938 5.164062 C 115.949219 5.585938 126.484375 7.320312 133.90625 10.042969 M 133.90625 10.042969 "/>
<path style=" stroke:none;fill-rule:nonzero;fill:rgb(94.901961%,94.901961%,94.901961%);fill-opacity:1;" d="M 97.242188 68.210938 L 97.242188 51.636719 C 97.242188 49.519531 97.375 47.152344 97.609375 44.625 C 97.820312 42.339844 98.117188 39.925781 98.46875 37.453125 C 98.964844 43.667969 100.699219 56.578125 103.644531 58.488281 C 103.003906 59.128906 99.484375 61.835938 97.242188 68.210938 M 97.242188 68.210938 "/>
<g clip-path="url(#clip2)" clip-rule="nonzero">
<path style=" stroke:none;fill-rule:nonzero;fill:rgb(45.882353%,61.56863%,96.078432%);fill-opacity:1;" d="M 68.90625 10.042969 C 50.332031 18.074219 24.714844 23.109375 11.425781 15.941406 C 11.425781 25.820312 18.472656 81.277344 18.472656 81.914062 C 35.25 81.277344 87.15625 67.09375 87.15625 67.09375 C 95.480469 52.753906 97.609375 44.625 97.609375 44.625 C 97.820312 42.339844 98.113281 39.925781 98.46875 37.453125 C 100.175781 25.488281 103.265625 12.105469 105.085938 5.164062 C 91.816406 4.648438 78.058594 6.082031 68.90625 10.042969 M 68.90625 10.042969 "/>
</g>
<path style=" stroke:none;fill-rule:evenodd;fill:rgb(14.509805%,18.82353%,21.176471%);fill-opacity:1;" d="M 148.757812 27.5 C 149.035156 27.828125 149.164062 28.253906 149.125 28.679688 C 149.085938 29.105469 148.878906 29.496094 148.546875 29.769531 L 112.042969 59.886719 C 111.355469 60.457031 110.335938 60.363281 109.765625 59.675781 C 109.492188 59.347656 109.359375 58.925781 109.398438 58.5 C 109.441406 58.074219 109.648438 57.683594 109.976562 57.410156 L 146.484375 27.292969 C 147.167969 26.722656 148.1875 26.816406 148.757812 27.5 M 143.601562 59.429688 C 142.816406 61.550781 141.21875 63.492188 139.078125 64.875 C 136.941406 66.257812 134.511719 66.917969 132.246094 66.773438 C 129.984375 66.628906 127.71875 65.644531 126.363281 63.566406 C 125.003906 61.488281 125.023438 59.027344 125.8125 56.90625 C 126.597656 54.789062 128.195312 52.847656 130.335938 51.46875 C 132.46875 50.085938 134.902344 49.421875 137.167969 49.566406 C 139.429688 49.710938 141.695312 50.695312 143.050781 52.777344 C 144.410156 54.851562 144.390625 57.3125 143.601562 59.429688 M 137.757812 62.851562 C 141.242188 60.59375 142.703125 56.675781 141.019531 54.089844 C 139.332031 51.507812 135.136719 51.238281 131.65625 53.492188 C 128.167969 55.746094 126.710938 59.664062 128.394531 62.25 C 130.082031 64.832031 134.273438 65.101562 137.757812 62.851562 M 132.628906 29.464844 C 131.84375 31.582031 130.246094 33.527344 128.109375 34.90625 C 125.972656 36.289062 123.539062 36.949219 121.277344 36.808594 C 119.011719 36.660156 116.746094 35.675781 115.390625 33.597656 C 114.035156 31.519531 114.050781 29.058594 114.839844 26.941406 C 115.628906 24.824219 117.222656 22.878906 119.363281 21.5 C 121.5 20.117188 123.929688 19.457031 126.195312 19.601562 C 128.460938 19.746094 130.726562 20.730469 132.082031 22.808594 C 133.441406 24.886719 133.421875 27.347656 132.628906 29.464844 M 126.789062 32.878906 C 130.273438 30.628906 131.730469 26.707031 130.046875 24.125 C 128.363281 21.542969 124.171875 21.273438 120.683594 23.527344 C 117.195312 25.777344 115.738281 29.699219 117.425781 32.28125 C 119.109375 34.867188 123.304688 35.132812 126.789062 32.878906 M 126.789062 32.878906 "/>
<path style=" stroke:none;fill-rule:nonzero;fill:rgb(98.823529%,74.901962%,73.725492%);fill-opacity:1;" d="M 55.113281 70.289062 C 52.851562 70.089844 50.664062 67.339844 49.855469 66.0625 C 50.867188 64.25 52.992188 60.613281 53.964844 60.289062 C 54.839844 61.160156 56.714844 63.148438 57.195312 64.113281 C 66.097656 64.519531 65.226562 66.464844 76.351562 68.476562 C 82.824219 65.460938 84.035156 71.699219 83.226562 71.296875 C 82.417969 70.894531 78.375 72.507812 78.574219 73.109375 C 71.09375 72.101562 64.21875 71.09375 55.113281 70.292969 M 41.753906 157.511719 C 41.8125 157.449219 41.871094 157.453125 41.917969 157.511719 L 49.453125 157.511719 C 50.460938 162.898438 49.453125 164.105469 51.675781 166.117188 C 49.363281 169.023438 43.585938 167.574219 41.4375 167.144531 C 42.523438 166.148438 42.496094 158.183594 41.917969 157.511719 Z M 18.304688 167.476562 C 19.535156 166.453125 19.125 159.710938 19.742188 157.257812 L 28.160156 157.257812 C 28.160156 157.464844 26.105469 165.230469 28.976562 166.453125 C 26.515625 169.230469 20.425781 168.023438 18.304688 167.476562 M 18.304688 167.476562 "/>
<path style=" stroke:none;fill-rule:nonzero;fill:rgb(14.509805%,18.82353%,21.176471%);fill-opacity:1;" d="M 23.796875 102.539062 C 23.503906 96.242188 25.609375 88.882812 26.695312 85.992188 C 27.785156 85.992188 46.984375 89.628906 50.246094 85.992188 C 52.78125 95.679688 50.605469 121.511719 50.605469 130.59375 C 50.605469 136.582031 50.605469 150.816406 50.261719 161.6875 C 48.535156 162.503906 44.121094 162.957031 41.765625 162.898438 C 40.957031 146.992188 39.136719 146.386719 40.097656 133.820312 C 39.515625 125.347656 39.035156 112.160156 37.960938 105.570312 C 37.546875 106.359375 37.171875 107.167969 36.839844 107.992188 C 35.773438 110.621094 34.078125 121.125 32.34375 132.699219 C 30.605469 144.273438 29.832031 151.824219 27.964844 161.671875 C 26.515625 162.800781 20.964844 161.421875 18.910156 160.480469 C 20.125 141.957031 18.910156 141.558594 21.339844 131.691406 C 22.292969 121.277344 23.003906 109.457031 23.796875 102.539062 M 23.796875 102.539062 "/>
<path style=" stroke:none;fill-rule:evenodd;fill:rgb(94.901961%,94.901961%,94.901961%);fill-opacity:1;" d="M 37.988281 105.015625 C 40.125 101.363281 42.675781 98.960938 43.875 98.109375 L 44.109375 98.4375 C 42.960938 99.253906 40.445312 101.613281 38.335938 105.21875 Z M 37.988281 105.015625 "/>
<path style=" stroke:none;fill-rule:nonzero;fill:rgb(45.882353%,61.56863%,96.078432%);fill-opacity:1;" d="M 49.460938 164.273438 C 47.953125 164.878906 48.515625 165.640625 47.191406 166.925781 C 44.671875 169.359375 43.1875 164.761719 41.476562 166.210938 C 40.40625 167.113281 40.578125 171.867188 40.957031 174.246094 C 45.019531 174.886719 52.816406 175.523438 58.121094 175.535156 C 59.714844 175.539062 61.601562 175.617188 62.621094 174.402344 C 64.140625 172.59375 59.503906 169.828125 56.421875 168.445312 C 55.898438 168.0625 55.394531 167.667969 54.925781 167.300781 L 54.796875 167.195312 C 54.484375 166.949219 54.183594 166.699219 53.886719 166.453125 C 53.4375 166.078125 53.007812 165.714844 52.59375 165.390625 C 51.433594 164.480469 50.40625 163.894531 49.460938 164.273438 M 49.460938 164.273438 "/>
<path style=" stroke:none;fill-rule:evenodd;fill:rgb(14.509805%,18.82353%,21.176471%);fill-opacity:1;" d="M 50.898438 164.5625 C 50.410156 164.363281 49.96875 164.324219 49.558594 164.488281 C 49.203125 164.628906 48.980469 164.777344 48.824219 164.933594 C 48.664062 165.085938 48.566406 165.257812 48.464844 165.460938 C 48.4375 165.515625 48.410156 165.574219 48.378906 165.632812 C 48.191406 166.027344 47.957031 166.515625 47.355469 167.097656 C 46.695312 167.734375 46.070312 167.9375 45.476562 167.863281 C 44.898438 167.789062 44.386719 167.457031 43.933594 167.125 C 43.828125 167.042969 43.722656 166.964844 43.625 166.890625 C 43.507812 166.804688 43.398438 166.714844 43.277344 166.632812 C 43.09375 166.488281 42.890625 166.363281 42.679688 166.261719 C 42.492188 166.179688 42.316406 166.136719 42.152344 166.152344 C 41.992188 166.164062 41.820312 166.230469 41.632812 166.390625 L 41.371094 166.082031 C 41.613281 165.878906 41.859375 165.773438 42.117188 165.753906 C 42.375 165.730469 42.617188 165.792969 42.847656 165.894531 C 43.078125 166 43.300781 166.148438 43.519531 166.304688 C 43.632812 166.390625 43.753906 166.484375 43.878906 166.578125 C 43.980469 166.65625 44.082031 166.730469 44.179688 166.800781 C 44.625 167.132812 45.0625 167.402344 45.527344 167.464844 C 45.972656 167.519531 46.476562 167.382812 47.074219 166.804688 C 47.621094 166.277344 47.828125 165.847656 48.011719 165.460938 C 48.042969 165.402344 48.070312 165.339844 48.101562 165.28125 C 48.210938 165.0625 48.335938 164.847656 48.539062 164.648438 C 48.742188 164.445312 49.015625 164.269531 49.410156 164.113281 C 49.949219 163.898438 50.5 163.964844 51.050781 164.1875 C 51.597656 164.414062 52.164062 164.804688 52.746094 165.257812 C 53.097656 165.535156 53.460938 165.835938 53.835938 166.148438 C 53.902344 166.207031 53.972656 166.265625 54.046875 166.324219 C 54.335938 166.570312 54.640625 166.820312 54.945312 167.066406 L 55.078125 167.171875 M 54.597656 167.300781 C 54.347656 167.101562 54.105469 166.902344 53.867188 166.707031 C 53.839844 166.714844 53.808594 166.722656 53.777344 166.730469 C 53.738281 166.742188 53.691406 166.753906 53.648438 166.765625 L 53.628906 166.773438 C 53.578125 166.785156 53.519531 166.800781 53.460938 166.816406 C 53.21875 166.878906 52.921875 166.964844 52.625 167.074219 C 52.328125 167.183594 52.035156 167.316406 51.796875 167.476562 C 51.554688 167.632812 51.382812 167.808594 51.304688 167.996094 L 50.929688 167.839844 C 51.058594 167.550781 51.300781 167.320312 51.570312 167.140625 C 51.847656 166.960938 52.171875 166.8125 52.488281 166.699219 C 52.800781 166.582031 53.109375 166.496094 53.351562 166.425781 C 53.402344 166.414062 53.445312 166.402344 53.492188 166.390625 C 53.179688 166.128906 52.878906 165.878906 52.582031 165.644531 C 52.570312 165.648438 52.554688 165.65625 52.539062 165.664062 C 52.167969 165.792969 51.800781 165.941406 51.445312 166.105469 C 51.160156 166.242188 50.871094 166.390625 50.628906 166.5625 C 50.386719 166.730469 50.203125 166.902344 50.109375 167.066406 L 49.757812 166.871094 C 49.898438 166.625 50.132812 166.414062 50.398438 166.226562 C 50.675781 166.042969 50.96875 165.878906 51.273438 165.742188 C 51.617188 165.578125 51.960938 165.445312 52.207031 165.355469 C 51.742188 165.007812 51.304688 164.730469 50.898438 164.5625 M 54.941406 167.574219 C 54.816406 167.644531 54.664062 167.714844 54.503906 167.78125 C 54.449219 167.804688 54.394531 167.828125 54.339844 167.851562 C 54.148438 167.929688 53.941406 168.015625 53.734375 168.113281 C 53.46875 168.242188 53.210938 168.382812 53 168.546875 C 52.785156 168.710938 52.628906 168.886719 52.542969 169.082031 L 52.171875 168.925781 C 52.289062 168.640625 52.507812 168.414062 52.75 168.226562 C 53.003906 168.039062 53.273438 167.878906 53.558594 167.75 C 53.777344 167.648438 53.996094 167.558594 54.1875 167.476562 L 54.34375 167.410156 C 54.441406 167.371094 54.523438 167.332031 54.597656 167.300781 M 54.941406 167.574219 C 55.273438 167.835938 55.621094 168.105469 55.976562 168.375 C 55.601562 168.476562 55.148438 168.625 54.722656 168.808594 C 54.429688 168.929688 54.15625 169.082031 53.894531 169.261719 C 53.660156 169.429688 53.457031 169.636719 53.351562 169.875 L 53.726562 170.03125 C 53.785156 169.890625 53.925781 169.738281 54.132812 169.585938 C 54.339844 169.4375 54.601562 169.300781 54.886719 169.175781 C 55.421875 168.941406 56.015625 168.773438 56.425781 168.683594 C 57.949219 169.371094 59.828125 170.386719 61.148438 171.445312 C 61.816406 171.988281 62.324219 172.523438 62.574219 173.019531 C 62.695312 173.265625 62.753906 173.492188 62.742188 173.703125 C 62.730469 173.90625 62.65625 174.105469 62.492188 174.300781 L 62.800781 174.558594 C 63.019531 174.300781 63.128906 174.019531 63.144531 173.722656 C 63.160156 173.425781 63.082031 173.128906 62.933594 172.839844 C 62.648438 172.269531 62.085938 171.6875 61.402344 171.132812 C 60.035156 170.03125 58.097656 168.992188 56.550781 168.296875 M 51.441406 172.5 C 48.257812 172.261719 45.085938 171.921875 41.929688 171.472656 L 41.988281 171.074219 C 44.34375 171.414062 47.902344 171.839844 51.464844 172.09375 C 55.039062 172.355469 58.601562 172.449219 60.984375 172.132812 L 61.035156 172.535156 C 58.613281 172.855469 55.011719 172.753906 51.441406 172.5 M 51.441406 172.5 "/>
<path style=" stroke:none;fill-rule:nonzero;fill:rgb(45.882353%,61.56863%,96.078432%);fill-opacity:1;" d="M 26.628906 164.082031 C 25.089844 164.605469 25.617188 165.398438 24.222656 166.609375 C 21.582031 168.910156 20.339844 164.246094 18.554688 165.601562 C 17.441406 166.445312 17.359375 171.203125 17.617188 173.597656 C 21.636719 174.449219 29.390625 175.492188 34.6875 175.78125 C 36.28125 175.871094 38.15625 176.042969 39.242188 174.882812 C 40.851562 173.15625 36.371094 170.15625 33.363281 168.609375 C 32.878906 168.210938 32.402344 167.804688 31.933594 167.390625 L 31.804688 167.28125 C 31.511719 167.019531 31.222656 166.757812 30.9375 166.488281 C 30.507812 166.089844 30.097656 165.707031 29.703125 165.359375 C 28.59375 164.394531 27.597656 163.75 26.628906 164.082031 M 26.628906 164.082031 "/>
<path style=" stroke:none;fill-rule:evenodd;fill:rgb(14.509805%,18.82353%,21.176471%);fill-opacity:1;" d="M 28.023438 164.40625 C 27.546875 164.179688 27.113281 164.117188 26.691406 164.261719 C 26.328125 164.386719 26.097656 164.523438 25.933594 164.667969 C 25.769531 164.816406 25.660156 164.976562 25.546875 165.175781 C 25.519531 165.230469 25.488281 165.289062 25.453125 165.347656 C 25.246094 165.730469 24.988281 166.203125 24.355469 166.75 C 23.660156 167.355469 23.027344 167.527344 22.4375 167.421875 C 21.867188 167.316406 21.371094 166.960938 20.941406 166.605469 C 20.832031 166.519531 20.734375 166.433594 20.640625 166.355469 C 20.53125 166.261719 20.425781 166.167969 20.308594 166.078125 C 20.128906 165.925781 19.933594 165.792969 19.730469 165.675781 C 19.546875 165.582031 19.371094 165.535156 19.207031 165.539062 C 19.046875 165.542969 18.871094 165.601562 18.679688 165.75 L 18.433594 165.429688 C 18.683594 165.238281 18.9375 165.144531 19.195312 165.136719 C 19.453125 165.128906 19.691406 165.207031 19.914062 165.320312 C 20.136719 165.433594 20.351562 165.59375 20.566406 165.765625 C 20.671875 165.851562 20.792969 165.953125 20.910156 166.054688 C 21.007812 166.136719 21.105469 166.21875 21.195312 166.292969 C 21.625 166.644531 22.050781 166.941406 22.507812 167.023438 C 22.953125 167.101562 23.464844 166.992188 24.089844 166.449219 C 24.667969 165.949219 24.890625 165.53125 25.097656 165.152344 C 25.132812 165.09375 25.164062 165.039062 25.195312 164.980469 C 25.316406 164.765625 25.453125 164.558594 25.664062 164.367188 C 25.878906 164.179688 26.160156 164.019531 26.566406 163.882812 C 27.113281 163.695312 27.660156 163.789062 28.199219 164.042969 C 28.734375 164.292969 29.277344 164.710938 29.835938 165.195312 C 30.171875 165.492188 30.515625 165.8125 30.875 166.144531 C 30.941406 166.207031 31.003906 166.269531 31.074219 166.332031 C 31.355469 166.59375 31.640625 166.855469 31.9375 167.121094 L 32.0625 167.230469 L 32.066406 167.230469 M 31.574219 167.332031 C 31.339844 167.125 31.109375 166.914062 30.878906 166.703125 C 30.851562 166.710938 30.820312 166.71875 30.785156 166.726562 C 30.746094 166.730469 30.703125 166.742188 30.65625 166.75 L 30.640625 166.753906 C 30.582031 166.765625 30.527344 166.777344 30.46875 166.792969 C 30.222656 166.84375 29.921875 166.910156 29.621094 167.003906 C 29.324219 167.089844 29.039062 167.210938 28.769531 167.363281 C 28.519531 167.507812 28.339844 167.675781 28.25 167.859375 L 27.886719 167.679688 C 28.027344 167.398438 28.28125 167.179688 28.5625 167.015625 C 28.847656 166.847656 29.179688 166.722656 29.5 166.625 C 29.820312 166.523438 30.128906 166.453125 30.378906 166.398438 C 30.429688 166.386719 30.476562 166.378906 30.519531 166.367188 C 30.222656 166.089844 29.933594 165.820312 29.652344 165.578125 C 29.636719 165.582031 29.621094 165.585938 29.605469 165.59375 C 29.367188 165.660156 28.941406 165.789062 28.488281 165.976562 C 28.199219 166.089844 27.921875 166.230469 27.65625 166.390625 C 27.398438 166.542969 27.210938 166.707031 27.105469 166.867188 L 26.765625 166.652344 C 26.917969 166.414062 27.167969 166.214844 27.441406 166.042969 C 27.726562 165.871094 28.027344 165.726562 28.335938 165.601562 C 28.691406 165.460938 29.039062 165.34375 29.292969 165.265625 C 28.84375 164.894531 28.425781 164.59375 28.023438 164.40625 M 31.90625 167.628906 C 31.757812 167.695312 31.609375 167.753906 31.457031 167.808594 C 31.191406 167.898438 30.929688 167.996094 30.667969 168.101562 C 30.398438 168.210938 30.132812 168.339844 29.914062 168.492188 C 29.691406 168.644531 29.523438 168.816406 29.429688 169.007812 L 29.066406 168.828125 C 29.203125 168.554688 29.429688 168.339844 29.683594 168.164062 C 29.9375 167.988281 30.234375 167.847656 30.515625 167.730469 C 30.738281 167.636719 30.960938 167.558594 31.160156 167.488281 L 31.316406 167.433594 C 31.414062 167.394531 31.5 167.363281 31.574219 167.332031 M 31.90625 167.628906 C 32.222656 167.902344 32.554688 168.191406 32.898438 168.480469 C 32.515625 168.5625 32.054688 168.683594 31.621094 168.847656 C 31.324219 168.953125 31.039062 169.089844 30.773438 169.253906 C 30.527344 169.414062 30.3125 169.605469 30.199219 169.839844 L 30.5625 170.015625 C 30.632812 169.878906 30.773438 169.734375 30.996094 169.589844 C 31.207031 169.453125 31.472656 169.332031 31.765625 169.21875 C 32.273438 169.035156 32.792969 168.898438 33.328125 168.8125 C 34.816406 169.578125 36.640625 170.691406 37.898438 171.816406 C 38.539062 172.390625 39.015625 172.953125 39.242188 173.464844 C 39.347656 173.714844 39.394531 173.941406 39.375 174.148438 C 39.351562 174.355469 39.265625 174.550781 39.09375 174.734375 L 39.386719 175.011719 C 39.617188 174.765625 39.746094 174.488281 39.773438 174.191406 C 39.808594 173.898438 39.738281 173.597656 39.609375 173.300781 C 39.351562 172.710938 38.824219 172.105469 38.167969 171.515625 C 36.863281 170.347656 34.980469 169.207031 33.472656 168.433594 M 28.148438 172.359375 C 24.984375 171.957031 21.835938 171.453125 18.707031 170.839844 L 18.785156 170.449219 C 21.90625 171.054688 25.042969 171.558594 28.199219 171.960938 C 31.753906 172.40625 35.308594 172.683594 37.695312 172.492188 L 37.730469 172.890625 C 35.296875 173.089844 31.703125 172.804688 28.148438 172.359375 M 28.148438 172.359375 "/>
<path style=" stroke:none;fill-rule:nonzero;fill:rgb(98.823529%,74.901962%,73.725492%);fill-opacity:1;" d="M 34.089844 49.449219 C 37.269531 48.222656 37.414062 42.699219 37.089844 40.089844 C 37.535156 41.199219 40.503906 46.585938 44.867188 46.660156 C 44.890625 47.335938 45.003906 48.589844 45.296875 49.535156 C 45.496094 50.175781 45.679688 50.902344 45.363281 51.492188 C 43.234375 55.519531 37.089844 51.929688 34.089844 49.449219 M 34.089844 49.449219 "/>
<path style=" stroke:none;fill-rule:nonzero;fill:rgb(98.823529%,74.901962%,73.725492%);fill-opacity:1;" d="M 38.546875 35.894531 C 43.726562 35.332031 45.429688 31.601562 45.664062 29.671875 C 46.832031 30 49.226562 31.25 49.488281 33.636719 C 49.8125 36.621094 51.109375 45.496094 46.085938 46.542969 C 45.683594 46.628906 45.277344 46.667969 44.871094 46.660156 C 40.503906 46.585938 37.535156 41.203125 37.089844 40.089844 C 34.496094 38.882812 34.253906 36.136719 35.222656 35.171875 C 36.003906 34.398438 37.765625 35.332031 38.546875 35.894531 M 38.546875 35.894531 "/>
<path style=" stroke:none;fill-rule:evenodd;fill:rgb(14.509805%,18.82353%,21.176471%);fill-opacity:1;" d="M 36.90625 37.039062 C 36.65625 36.804688 36.363281 36.617188 36.046875 36.488281 L 36.191406 36.113281 C 36.457031 36.214844 36.847656 36.429688 37.183594 36.75 C 37.523438 37.070312 37.824219 37.507812 37.859375 38.058594 L 37.453125 38.085938 C 37.429688 37.671875 37.199219 37.316406 36.90625 37.039062 M 39.660156 43.628906 C 40.992188 45.105469 42.773438 46.421875 44.871094 46.460938 L 44.867188 46.863281 C 42.597656 46.820312 40.714844 45.40625 39.359375 43.898438 C 38 42.382812 37.132812 40.742188 36.902344 40.167969 L 37.277344 40.015625 C 37.492188 40.550781 38.332031 42.152344 39.660156 43.628906 M 39.660156 43.628906 "/>
<path style=" stroke:none;fill-rule:nonzero;fill:rgb(14.509805%,18.82353%,21.176471%);fill-opacity:1;" d="M 38.546875 35.894531 C 43.726562 35.332031 45.429688 31.601562 45.664062 29.671875 C 46.832031 30 49.226562 31.25 49.488281 33.636719 C 49.8125 36.621094 51.109375 45.496094 46.085938 46.542969 C 45.683594 46.628906 45.277344 46.667969 44.871094 46.660156 C 44.890625 47.347656 45.007812 48.628906 45.3125 49.585938 C 47.792969 50.761719 50.15625 53.265625 51.082031 54.65625 C 51.507812 55.285156 52.097656 56.542969 52.71875 58.042969 L 54.878906 54.621094 C 56.136719 52.136719 54.871094 49.949219 53.296875 47.996094 C 51.679688 45.976562 53.214844 44.6875 53.945312 42.429688 C 54.675781 40.171875 53.132812 38.316406 52.082031 36.863281 C 51.027344 35.414062 51.351562 33.636719 51.027344 29.523438 C 50.769531 26.234375 45.625 24.765625 43.085938 24.441406 C 40.195312 24.148438 34.078125 24.960938 32.714844 30.570312 C 31.660156 35.171875 33.296875 35.585938 29.796875 36.703125 C 25.5 38.074219 29.796875 41.703125 26.960938 43.800781 C 25.308594 45.144531 23.003906 48.675781 26.960938 52.027344 L 34.089844 49.449219 C 37.265625 48.222656 37.414062 42.699219 37.089844 40.089844 C 34.496094 38.882812 34.253906 36.136719 35.222656 35.171875 C 36.003906 34.398438 37.765625 35.332031 38.546875 35.894531 M 38.546875 35.894531 "/>
<path style=" stroke:none;fill-rule:evenodd;fill:rgb(14.509805%,18.82353%,21.176471%);fill-opacity:1;" d="M 42.390625 35.695312 C 42.046875 36.214844 41.828125 36.9375 41.828125 37.75 C 41.828125 38.566406 42.046875 39.289062 42.390625 39.808594 C 42.734375 40.328125 43.183594 40.617188 43.652344 40.617188 C 44.121094 40.617188 44.574219 40.328125 44.914062 39.808594 C 45.257812 39.289062 45.476562 38.566406 45.476562 37.75 C 45.476562 36.9375 45.257812 36.214844 44.914062 35.695312 C 44.574219 35.175781 44.121094 34.886719 43.652344 34.886719 C 43.183594 34.886719 42.734375 35.175781 42.390625 35.695312 M 42.050781 35.472656 C 42.441406 34.882812 43.003906 34.484375 43.652344 34.484375 C 44.304688 34.484375 44.863281 34.882812 45.253906 35.472656 C 45.605469 36 45.828125 36.699219 45.875 37.46875 C 46.003906 37.425781 46.148438 37.394531 46.300781 37.378906 C 46.449219 37.363281 46.621094 37.367188 46.78125 37.414062 C 46.820312 36.75 47.007812 36.140625 47.304688 35.679688 C 47.632812 35.164062 48.117188 34.808594 48.679688 34.808594 C 49.242188 34.808594 49.71875 35.164062 50.050781 35.679688 C 50.382812 36.199219 50.582031 36.902344 50.582031 37.671875 C 50.582031 38.4375 50.382812 39.144531 50.050781 39.660156 C 49.722656 40.179688 49.242188 40.535156 48.679688 40.535156 C 48.125 40.535156 47.652344 40.191406 47.320312 39.691406 C 47.003906 39.207031 46.804688 38.558594 46.777344 37.851562 C 46.675781 37.785156 46.523438 37.761719 46.335938 37.78125 C 46.179688 37.796875 46.027344 37.835938 45.878906 37.886719 C 45.855469 38.714844 45.625 39.46875 45.253906 40.03125 C 44.863281 40.621094 44.304688 41.015625 43.652344 41.015625 C 43.003906 41.015625 42.441406 40.621094 42.050781 40.03125 C 41.660156 39.4375 41.425781 38.632812 41.425781 37.75 C 41.425781 36.871094 41.660156 36.066406 42.050781 35.472656 M 47.648438 35.894531 C 47.359375 36.34375 47.179688 36.96875 47.179688 37.671875 L 47.179688 37.746094 C 47.191406 38.429688 47.378906 39.039062 47.660156 39.46875 C 47.945312 39.902344 48.308594 40.132812 48.679688 40.132812 C 49.054688 40.132812 49.425781 39.890625 49.710938 39.445312 C 49.996094 39 50.179688 38.371094 50.179688 37.671875 C 50.179688 36.96875 49.996094 36.34375 49.710938 35.894531 C 49.425781 35.449219 49.054688 35.210938 48.679688 35.210938 C 48.300781 35.210938 47.929688 35.449219 47.648438 35.894531 M 47.648438 35.894531 "/>
<path style=" stroke:none;fill-rule:nonzero;fill:rgb(14.509805%,18.82353%,21.176471%);fill-opacity:1;" d="M 45.195312 37.347656 C 45.195312 37.75 44.972656 38.074219 44.707031 38.074219 C 44.4375 38.074219 44.222656 37.75 44.222656 37.347656 C 44.222656 36.945312 44.4375 36.621094 44.707031 36.621094 C 44.972656 36.621094 45.195312 36.945312 45.195312 37.347656 M 49.566406 37.511719 C 49.566406 37.910156 49.351562 38.234375 49.082031 38.234375 C 48.816406 38.234375 48.597656 37.910156 48.597656 37.511719 C 48.597656 37.105469 48.816406 36.785156 49.082031 36.785156 C 49.351562 36.785156 49.566406 37.109375 49.566406 37.511719 M 49.566406 37.511719 "/>
<path style=" stroke:none;fill-rule:evenodd;fill:rgb(14.509805%,18.82353%,21.176471%);fill-opacity:1;" d="M 41.765625 36.5 L 38.523438 36.097656 L 38.574219 35.695312 L 41.8125 36.101562 Z M 41.765625 36.5 "/>
<path style=" stroke:none;fill-rule:nonzero;fill:rgb(24.313726%,46.666667%,95.686275%);fill-opacity:1;" d="M 24.167969 70.691406 C 22.046875 64.75 20.820312 59.582031 21.742188 56.601562 C 22.925781 52.769531 28.617188 50.554688 34.078125 49.011719 C 37.722656 52.574219 45.609375 55.59375 45.203125 49.554688 C 49.046875 51.363281 51.878906 53.578125 55.722656 61.835938 C 54.914062 63.8125 53.539062 65.867188 51.433594 66.054688 C 51.628906 67.554688 51.476562 68.992188 50.867188 70.292969 C 49.503906 73.167969 49.652344 83.578125 50.867188 91.429688 C 44.070312 99 39.136719 94.851562 25.019531 89.820312 C 28.183594 81.5 28.722656 76.03125 27.15625 70.136719 C 26.132812 70.390625 25.097656 70.554688 24.167969 70.691406 M 24.167969 70.691406 "/>
<path style=" stroke:none;fill-rule:evenodd;fill:rgb(14.509805%,18.82353%,21.176471%);fill-opacity:1;" d="M 45.023438 49.46875 C 47.226562 50.285156 48.917969 51.308594 50.613281 53.140625 C 52.300781 54.976562 53.980469 57.613281 55.90625 61.75 L 55.941406 61.832031 L 55.910156 61.910156 C 55.5 62.910156 54.945312 63.941406 54.214844 64.75 C 53.53125 65.507812 52.683594 66.082031 51.65625 66.234375 C 51.816406 67.6875 51.65625 69.097656 51.050781 70.375 C 51.277344 68.949219 51.421875 67.550781 51.234375 66.082031 C 50.917969 63.667969 49.695312 61.089844 48.070312 58.726562 C 50.003906 60.828125 51.242188 63.390625 51.609375 65.832031 C 52.507812 65.695312 53.273438 65.191406 53.914062 64.480469 C 54.582031 63.742188 55.105469 62.789062 55.5 61.839844 C 53.597656 57.769531 51.949219 55.191406 50.3125 53.414062 C 48.667969 51.628906 47.027344 50.636719 45.117188 49.738281 M 28.535156 56.820312 C 30.09375 59.636719 31.242188 63.394531 32.253906 67.21875 L 32.277344 67.308594 L 32.222656 67.382812 C 31.375 68.640625 30.027344 69.414062 28.574219 69.925781 C 27.121094 70.4375 25.539062 70.691406 24.199219 70.894531 C 25.480469 70.289062 27.027344 70.042969 28.441406 69.546875 C 29.820312 69.0625 31.054688 68.347656 31.835938 67.234375 C 30.832031 63.441406 29.703125 59.75 28.4375 57.089844 M 28.535156 56.820312 "/>
<path style=" stroke:none;fill-rule:nonzero;fill:rgb(98.823529%,74.901962%,73.725492%);fill-opacity:1;" d="M 31.855469 70.492188 L 30.441406 67.269531 C 29.792969 67.429688 26.6875 68.992188 24.808594 69.652344 C 25.125 71.113281 26.128906 74.902344 28.011719 75.121094 C 34.886719 75.925781 43.382812 74.519531 46.621094 74.519531 C 48.238281 75.726562 50.257812 73.914062 50.460938 75.523438 C 50.625 76.8125 51.609375 76.261719 52.285156 75.925781 C 53.496094 74.917969 52.382812 71.296875 52.285156 70.894531 C 52.183594 70.492188 50.664062 70.15625 50.058594 70.089844 C 47.835938 69.6875 47.632812 70.292969 46.621094 71.09375 C 40.347656 70.492188 37.316406 70.492188 31.855469 70.492188 M 31.855469 70.492188 "/>
<path style=" stroke:none;fill-rule:nonzero;fill:rgb(14.509805%,18.82353%,21.176471%);fill-opacity:1;" d="M 69.210938 58.257812 C 69.769531 57.882812 70.519531 58.027344 70.898438 58.582031 L 74.792969 64.332031 C 75.167969 64.886719 75.023438 65.636719 74.464844 66.007812 L 72.167969 67.550781 C 71.613281 67.925781 70.859375 67.777344 70.484375 67.226562 L 66.585938 61.476562 C 66.40625 61.210938 66.339844 60.886719 66.402344 60.570312 C 66.460938 60.253906 66.648438 59.976562 66.914062 59.800781 Z M 87.578125 70.128906 C 87.695312 69.46875 87.253906 68.84375 86.59375 68.726562 L 79.734375 67.523438 C 79.414062 67.46875 79.089844 67.539062 78.824219 67.722656 C 78.5625 67.90625 78.382812 68.1875 78.328125 68.503906 L 77.84375 71.21875 C 77.730469 71.878906 78.171875 72.503906 78.832031 72.621094 L 85.691406 73.824219 C 86.351562 73.941406 86.980469 73.503906 87.097656 72.84375 Z M 87.578125 70.128906 "/>
<path style=" stroke:none;fill-rule:nonzero;fill:rgb(24.313726%,46.666667%,95.686275%);fill-opacity:1;" d="M 97.242188 51.636719 C 97.242188 49.519531 97.375 47.152344 97.609375 44.625 C 97.640625 44.292969 97.675781 43.957031 97.707031 43.617188 L 87.421875 47.660156 L 70.914062 58.703125 L 74.164062 63.835938 C 79.066406 59.734375 83.65625 61.191406 85.851562 62.609375 L 97.242188 56.511719 Z M 97.242188 51.636719 "/>
<path style="fill:none;stroke-width:1;stroke-linecap:butt;stroke-linejoin:miter;stroke:rgb(14.509805%,18.82353%,21.176471%);stroke-opacity:1;stroke-miterlimit:4;" d="M 208.058011 176.224719 L 248.867166 148.797988 L 274.293221 138.75672 M 216.092374 188.972764 C 228.211515 178.776268 239.567778 182.404707 244.985179 185.926427 L 273.134418 170.78206 " transform="matrix(0.404512,0,0,0.402635,-13.248,-12.251161)"/>
<path style=" stroke:none;fill-rule:nonzero;fill:rgb(24.313726%,46.666667%,95.686275%);fill-opacity:1;" d="M 79.546875 20.371094 L 76.816406 56.765625 C 79.007812 58.1875 82.21875 61.769531 80.441406 67.894531 L 86.476562 68.761719 L 89.894531 49.257812 L 88.03125 5.894531 C 81.109375 10.84375 80.015625 16.207031 79.546875 20.371094 M 79.546875 20.371094 "/>
<g clip-path="url(#clip3)" clip-rule="nonzero">
<path style="fill:none;stroke-width:1;stroke-linecap:round;stroke-linejoin:miter;stroke:rgb(14.509805%,18.82353%,21.176471%);stroke-opacity:1;stroke-miterlimit:4;" d="M 229.399287 81.021852 L 222.649264 171.412671 C 228.066665 174.944093 236.004461 183.84056 231.610669 199.052839 M 250.373609 45.067319 L 254.979849 152.756285 L 246.530248 201.196917 " transform="matrix(0.404512,0,0,0.402635,-13.248,-12.251161)"/>
</g>
<path style=" stroke:none;fill-rule:evenodd;fill:rgb(14.509805%,18.82353%,21.176471%);fill-opacity:1;" d="M 65.457031 71.046875 C 45.304688 84.367188 35.953125 90.554688 27.3125 84.964844 C 20.652344 80.664062 20.214844 69.042969 29.90625 62.054688 C 33.410156 59.527344 43.335938 55.246094 51.746094 59.5625 C 58.835938 63.207031 63.347656 62.433594 66.394531 61.207031 L 70.761719 67.546875 C 68.914062 68.761719 67.148438 69.929688 65.457031 71.046875 M 27.722656 77.488281 C 29.753906 81.636719 36.527344 82.511719 42.851562 79.445312 C 49.171875 76.375 52.652344 70.523438 50.617188 66.375 C 48.585938 62.222656 41.8125 61.34375 35.488281 64.414062 C 29.164062 67.484375 25.6875 73.339844 27.722656 77.488281 M 77.367188 78.742188 C 73.335938 102.484375 71.464844 113.507812 80.109375 119.09375 C 86.765625 123.398438 97.605469 119.070312 100.078125 107.414062 C 100.972656 103.199219 100.867188 92.433594 93.480469 86.542969 C 87.257812 81.578125 86.128906 77.160156 86.015625 73.894531 L 78.421875 72.496094 C 78.058594 74.671875 77.707031 76.753906 77.367188 78.742188 M 86.804688 115.679688 C 82.167969 115.519531 78.609375 109.714844 78.851562 102.714844 C 79.097656 95.71875 83.058594 90.175781 87.691406 90.335938 C 92.328125 90.496094 95.886719 96.300781 95.640625 103.300781 C 95.398438 110.296875 91.441406 115.839844 86.804688 115.679688 M 86.804688 115.679688 "/>
<path style=" stroke:none;fill-rule:nonzero;fill:rgb(98.823529%,74.901962%,73.725492%);fill-opacity:1;" d="M 46.621094 71.09375 C 40.347656 70.492188 37.316406 70.492188 31.855469 70.492188 L 28.011719 75.121094 C 34.886719 75.925781 43.382812 74.519531 46.621094 74.519531 C 48.238281 75.726562 50.257812 73.914062 50.460938 75.523438 C 50.625 76.8125 51.609375 76.261719 52.285156 75.925781 C 53.496094 74.917969 52.382812 71.296875 52.285156 70.894531 C 52.183594 70.492188 50.664062 70.15625 50.058594 70.089844 C 47.835938 69.6875 47.632812 70.292969 46.621094 71.09375 M 77.96875 69.6875 C 77 70.007812 76.621094 70.359375 76.554688 70.492188 L 77.160156 71.699219 C 77.296875 71.632812 77.6875 71.417969 78.171875 71.09375 C 78.777344 70.691406 80.597656 71.09375 80.800781 70.492188 C 81.003906 69.886719 79.183594 69.285156 77.96875 69.6875 M 77.96875 69.6875 "/>
<path style=" stroke:none;fill-rule:evenodd;fill:rgb(14.509805%,18.82353%,21.176471%);fill-opacity:1;" d="M 44.835938 43.203125 C 45.296875 43.265625 45.609375 43.414062 45.945312 43.457031 C 46.277344 43.496094 46.617188 43.4375 46.882812 43.171875 C 46.789062 43.832031 46.3125 43.910156 45.898438 43.855469 C 45.539062 43.804688 45.195312 43.675781 44.890625 43.480469 M 140.695312 128.8125 C 140.902344 128.75 141.125 128.867188 141.191406 129.070312 C 142.085938 131.902344 143.273438 137.941406 144.398438 144.3125 C 144.96875 147.5625 145.523438 150.90625 146.015625 153.972656 C 146.035156 151.589844 146.179688 149.015625 146.519531 146.441406 C 147.289062 140.582031 149.070312 134.640625 152.703125 130.957031 C 152.855469 130.804688 153.105469 130.804688 153.261719 130.957031 C 153.417969 131.109375 153.417969 131.355469 153.265625 131.511719 C 149.820312 135.003906 148.066406 140.730469 147.304688 146.542969 C 146.664062 151.382812 146.71875 156.226562 147.011719 159.769531 C 149 153.257812 152.207031 142.796875 152.613281 141.648438 C 152.648438 141.503906 152.765625 141.394531 152.910156 141.363281 C 153.054688 141.332031 153.203125 141.386719 153.296875 141.5 C 153.390625 141.613281 153.414062 141.773438 153.355469 141.90625 C 152.917969 143.152344 149.070312 155.726562 147.199219 161.871094 L 146.941406 162.703125 L 146.484375 161.960938 C 145.835938 160.914062 143.851562 157 142.097656 152.933594 C 141.222656 150.894531 140.402344 148.8125 139.832031 147.019531 C 139.546875 146.121094 139.320312 145.292969 139.1875 144.574219 C 139.054688 143.859375 139 143.226562 139.078125 142.734375 C 139.113281 142.519531 139.320312 142.375 139.535156 142.410156 C 139.75 142.445312 139.898438 142.648438 139.863281 142.863281 C 139.804688 143.214844 139.835938 143.742188 139.964844 144.425781 C 140.089844 145.105469 140.304688 145.902344 140.585938 146.78125 C 141.140625 148.539062 141.957031 150.597656 142.828125 152.621094 C 143.761719 154.789062 144.757812 156.929688 145.816406 159.039062 C 144.835938 154.773438 143.8125 150.519531 142.746094 146.277344 C 141.777344 142.464844 140.757812 138.625 139.855469 135.628906 C 139.40625 134.132812 138.984375 132.851562 138.617188 131.890625 C 138.46875 131.492188 138.304688 131.101562 138.117188 130.71875 C 137.964844 130.410156 137.847656 130.25 137.78125 130.1875 C 137.671875 130.09375 137.625 129.949219 137.652344 129.808594 C 137.683594 129.667969 137.789062 129.558594 137.925781 129.515625 C 138.0625 129.472656 138.210938 129.511719 138.3125 129.609375 C 138.496094 129.777344 138.664062 130.054688 138.824219 130.367188 C 138.992188 130.699219 139.167969 131.121094 139.359375 131.609375 C 139.734375 132.597656 140.160156 133.898438 140.613281 135.40625 C 141.519531 138.417969 142.546875 142.269531 143.507812 146.085938 C 143.9375 147.769531 144.347656 149.449219 144.738281 151.050781 C 144.378906 148.847656 144.003906 146.644531 143.617188 144.445312 C 142.496094 138.0625 141.3125 132.078125 140.4375 129.308594 C 140.371094 129.101562 140.488281 128.878906 140.695312 128.8125 M 140.695312 128.8125 "/>
<path style=" stroke:none;fill-rule:nonzero;fill:rgb(24.313726%,46.666667%,95.686275%);fill-opacity:1;" d="M 133.9375 136.898438 C 141.367188 137.136719 139.546875 131.550781 139.390625 130.449219 C 138.207031 119.28125 131.410156 116.761719 127.066406 119.4375 C 123.585938 121.578125 118.640625 122.371094 116.597656 122.503906 C 117.535156 124.902344 118.792969 127.070312 120.347656 127.695312 C 124.0625 129.191406 126.511719 136.660156 133.9375 136.898438 M 133.9375 136.898438 "/>
<path style=" stroke:none;fill-rule:nonzero;fill:rgb(45.882353%,61.56863%,96.078432%);fill-opacity:1;" d="M 141.128906 130.292969 C 141.445312 131.15625 144.210938 132.417969 144.527344 132.417969 C 146.003906 133.75 149.0625 134.144531 149.503906 125.023438 C 149.949219 115.898438 142.054688 109.15625 138.046875 106.929688 C 138.441406 112.59375 128.167969 126.988281 133.78125 132.417969 C 138.269531 136.757812 140.550781 132.808594 141.128906 130.292969 M 141.128906 130.292969 "/>
<g clip-path="url(#clip4)" clip-rule="nonzero">
<path style=" stroke:none;fill-rule:nonzero;fill:rgb(45.882353%,61.56863%,96.078432%);fill-opacity:1;" d="M 149.980469 141.066406 C 149.472656 139.496094 150.878906 138.367188 151.640625 138 C 153.457031 137.003906 157.398438 135.011719 158.59375 135.011719 C 165.042969 134.632812 173.1875 139.417969 176.453125 141.851562 C 171.554688 142.539062 160.824219 143.976562 157.09375 144.292969 C 152.429688 144.6875 150.613281 143.035156 149.980469 141.066406 M 149.980469 141.066406 "/>
</g>
<path style=" stroke:none;fill-rule:nonzero;fill:rgb(24.313726%,46.666667%,95.686275%);fill-opacity:1;" d="M 144.609375 131.628906 C 142.582031 136.726562 146.976562 136.871094 149.585938 136.347656 C 152.667969 145.550781 160.707031 134.144531 161.914062 128.484375 C 162.46875 125.886719 164.414062 119.882812 165.074219 118.023438 C 164.257812 118.675781 161.769531 120.097656 158.355469 120.535156 C 154.089844 121.089844 147.136719 125.257812 144.609375 131.628906 M 142.789062 138.394531 C 141.335938 137.136719 139.023438 138.339844 138.046875 139.101562 C 139.546875 137.449219 138.917969 134.773438 134.015625 137.84375 C 130.097656 140.296875 130.226562 147.613281 130.777344 150.964844 C 131.535156 149.996094 133.472656 148.441406 137.574219 146.8125 C 144.289062 144.136719 144.609375 139.964844 142.789062 138.394531 M 142.789062 138.394531 "/>
<g clip-path="url(#clip5)" clip-rule="nonzero">
<path style=" stroke:none;fill-rule:nonzero;fill:rgb(14.509805%,18.82353%,21.176471%);fill-opacity:1;" d="M 138.441406 160.078125 C 138.441406 159.414062 138.988281 158.871094 139.65625 158.871094 L 154.625 158.871094 C 155.296875 158.871094 155.835938 159.414062 155.835938 160.078125 L 155.835938 175.378906 C 155.835938 176.046875 155.296875 176.585938 154.625 176.585938 L 139.65625 176.585938 C 138.988281 176.585938 138.441406 176.046875 138.441406 175.378906 Z M 138.441406 160.078125 "/>
</g>
</g>
</svg>
