<svg xmlns="http://www.w3.org/2000/svg" width="px" height="px" viewBox="0 0 138 17"><path d="M7.473 3.195q1.05.001 1.832.22c.527.144.937.355 1.23.62q.445.41.445.973-.001.369-.23.703-.218.323-.652.324-.288 0-.48-.082a1.3 1.3 0 0 1-.345-.219 1.6 1.6 0 0 0-.355-.242q-.187-.112-.574-.172a3.5 3.5 0 0 0-.563-.07q-.943 0-1.605.414c-.438.274-.774.64-1.012 1.11-.234.46-.355 1.003-.355 1.617q.001.89.355 1.593.368.705 1.012 1.121.638.404 1.48.403c.301 0 .567-.016.79-.059q.345-.054.562-.16.263-.148.46-.312.207-.171.618-.172c.32 0 .566.101.734.312q.265.3.266.75c0 .309-.176.594-.52.856q-.514.381-1.363.609c-.566.156-1.18.23-1.836.23-.972 0-1.816-.222-2.535-.68a4.5 4.5 0 0 1-1.66-1.859q-.585-1.179-.586-2.632c0-1.024.207-1.922.617-2.703a4.6 4.6 0 0 1 1.723-1.825q1.106-.668 2.547-.668M22.332 8.39q-.001 1.525-.676 2.704a4.9 4.9 0 0 1-1.824 1.824c-.758.434-1.605.645-2.547.645-.941 0-1.797-.211-2.558-.645a4.9 4.9 0 0 1-1.813-1.824q-.678-1.179-.676-2.703c0-1.024.223-1.922.676-2.703a4.9 4.9 0 0 1 1.813-1.825c.761-.445 1.617-.668 2.558-.668q1.412 0 2.547.668a4.9 4.9 0 0 1 1.824 1.825q.675 1.17.676 2.703m-2.227 0c0-.636-.125-1.19-.378-1.652a2.85 2.85 0 0 0-1.02-1.097 2.7 2.7 0 0 0-1.422-.391c-.523 0-.996.133-1.422.39a2.86 2.86 0 0 0-1.023 1.098c-.25.461-.375 1.016-.375 1.653q0 .938.375 1.64.38.692 1.023 1.086.638.392 1.422.39.779.001 1.422-.39c.426-.262.77-.625 1.02-1.086q.379-.703.378-1.64M29.5 3.195q1.488 0 2.191.715.71.719.926 1.86l-.308-.176.148-.285q.217-.44.68-.926a4.4 4.4 0 0 1 1.12-.844q.665-.344 1.481-.344 1.34 0 2.032.575.696.578.949 1.55a8 8 0 0 1 .265 2.133v4.781q-.002.487-.32.82a1.04 1.04 0 0 1-.793.325c-.32 0-.59-.106-.8-.324a1.16 1.16 0 0 1-.313-.82V7.452c0-.414-.051-.785-.149-1.105a1.55 1.55 0 0 0-.539-.797c-.261-.2-.629-.301-1.113-.301q-.698.002-1.203.3c-.34.2-.59.466-.758.798-.16.32-.238.691-.238 1.105v4.781q-.002.487-.324.82c-.215.22-.48.325-.801.325q-.481.002-.805-.324a1.16 1.16 0 0 1-.308-.82V7.452c0-.414-.051-.785-.149-1.105a1.55 1.55 0 0 0-.539-.797q-.393-.3-1.113-.301c-.469 0-.867.102-1.203.3q-.508.3-.758.798c-.16.32-.242.691-.242 1.105v4.781c0 .325-.11.598-.32.82-.216.22-.481.325-.801.325q-.488.002-.805-.324a1.16 1.16 0 0 1-.309-.82V4.522q0-.498.309-.82.316-.323.805-.324.479.001.8.324.318.322.32.82v.797l-.285-.058q.17-.31.47-.672.298-.37.722-.68c.281-.215.598-.387.941-.52q.527-.193 1.137-.195M46.613 3.195q1.488 0 2.192.715.706.719.93 1.86l-.31-.176.15-.285c.144-.293.366-.602.675-.926a4.3 4.3 0 0 1 1.125-.844q.661-.344 1.48-.344 1.342 0 2.028.575.7.578.953 1.55c.176.64.262 1.348.262 2.133v4.781q0 .487-.32.82a1.03 1.03 0 0 1-.79.325q-.487.002-.804-.324a1.16 1.16 0 0 1-.309-.82V7.452c0-.414-.05-.785-.148-1.105a1.55 1.55 0 0 0-.54-.797q-.392-.3-1.113-.301-.703.002-1.203.3-.511.3-.758.798c-.16.32-.242.691-.242 1.105v4.781c0 .325-.11.598-.32.82-.215.22-.48.325-.805.325-.32 0-.59-.106-.8-.324a1.16 1.16 0 0 1-.31-.82V7.452a3.8 3.8 0 0 0-.152-1.105 1.53 1.53 0 0 0-.539-.797q-.388-.3-1.11-.301-.702.002-1.206.3c-.336.2-.59.466-.754.798-.164.32-.242.691-.242 1.105v4.781c0 .325-.11.598-.32.82a1.08 1.08 0 0 1-.805.325c-.32 0-.59-.106-.801-.324a1.16 1.16 0 0 1-.312-.82V4.522q0-.498.312-.82.318-.323.8-.324.482.001.806.324c.21.215.32.488.32.82v.797l-.29-.058c.118-.207.27-.43.473-.672q.295-.37.723-.68c.281-.215.598-.387.941-.52a3.2 3.2 0 0 1 1.133-.195m0 0" style="stroke:none;fill-rule:nonzero;fill:#ff7714;fill-opacity:1"/><path d="M65.871 3.887q.24 0 .402.172.16.165.16.382V9.72c0 1.234-.351 2.172-1.042 2.816q-1.037.973-2.801.973-1.744 0-2.774-.973-1.036-.966-1.035-2.816V4.44q.001-.217.149-.382a.54.54 0 0 1 .402-.172q.25 0 .402.172.16.165.16.382V9.72c0 .894.235 1.578.711 2.043q.72.707 1.985.707 1.284 0 2.008-.707c.48-.465.722-1.149.722-2.043V4.44c0-.144.047-.273.149-.382a.5.5 0 0 1 .402-.172M73.816 3.598c.82 0 1.473.168 1.965.496.485.332.84.781 1.055 1.351q.33.845.332 1.871v5.497a.565.565 0 0 1-.563.566c-.18 0-.316-.05-.414-.16a.6.6 0 0 1-.148-.406V7.375a3.7 3.7 0 0 0-.242-1.352 2.04 2.04 0 0 0-.79-.992q-.544-.382-1.433-.383c-.535 0-1.043.13-1.516.383-.476.246-.859.574-1.156.992q-.45.615-.449 1.352v5.438q-.001.232-.172.406a.53.53 0 0 1-.39.16.51.51 0 0 1-.403-.16.6.6 0 0 1-.148-.406V4.44q0-.217.148-.382a.54.54 0 0 1 .403-.172q.25 0 .402.172.159.165.16.382v1.57l-.426.669c.024-.39.153-.774.38-1.14.23-.372.523-.7.882-.997q.54-.435 1.195-.691a3.7 3.7 0 0 1 1.328-.254M81.152 12.813q0 .232-.172.406a.53.53 0 0 1-.39.16.54.54 0 0 1-.403-.16.6.6 0 0 1-.148-.406v-8.59c0-.157.05-.285.148-.395a.54.54 0 0 1 .403-.172q.24.001.402.172c.106.11.16.238.16.395ZM80.59 2.406c-.262 0-.453-.054-.586-.172q-.193-.18-.192-.52v-.183c0-.222.067-.394.204-.508.144-.12.347-.187.597-.187.23 0 .407.066.54.187.128.114.195.286.195.508v.184q-.001.338-.196.52c-.132.117-.316.171-.562.171M91.824-.457q.239 0 .403.164.159.151.16.402v12.704q-.001.232-.172.406a.53.53 0 0 1-.39.16.54.54 0 0 1-.403-.16.6.6 0 0 1-.149-.406v-2.215l.309-.266q0 .517-.273 1.098-.277.563-.793 1.05c-.34.32-.735.586-1.192.786q-.678.298-1.457.297c-.828 0-1.57-.211-2.238-.645-.66-.438-1.18-1.031-1.57-1.777q-.575-1.12-.575-2.567 0-1.416.575-2.55.585-1.132 1.558-1.778.985-.65 2.238-.648.755 0 1.446.289.686.275 1.215.761c.351.325.632.692.836 1.11q.311.622.312 1.305l-.39-.29V.11c0-.152.046-.28.148-.39a.52.52 0 0 1 .402-.176m-3.855 12.98c.668 0 1.246-.171 1.746-.52a3.6 3.6 0 0 0 1.191-1.394q.435-.89.434-2.035 0-1.115-.434-2.008a3.5 3.5 0 0 0-1.203-1.398 3 3 0 0 0-1.734-.52 3.03 3.03 0 0 0-1.742.52q-.77.51-1.204 1.398c-.293.594-.437 1.266-.437 2.008q-.001 1.123.437 2.024.435.89 1.204 1.406a3.03 3.03 0 0 0 1.742.52M103.074 3.828c.16 0 .29.059.399.172q.162.168.16.406v8.407a.55.55 0 0 1-.172.406.51.51 0 0 1-.387.16.54.54 0 0 1-.402-.16.6.6 0 0 1-.149-.406v-2.215l.309-.153c0 .348-.098.703-.285 1.063a3.9 3.9 0 0 1-.793 1.015 3.9 3.9 0 0 1-1.18.754 3.8 3.8 0 0 1-1.457.286c-.844 0-1.594-.211-2.262-.645-.66-.438-1.175-1.04-1.558-1.8q-.563-1.144-.563-2.567c0-.969.188-1.824.575-2.563q.585-1.12 1.558-1.754c.656-.421 1.403-.636 2.238-.636q.792 0 1.489.289c.465.183.875.437 1.219.761.347.325.62.692.812 1.11q.288.622.29 1.305l-.392-.29V4.406a.58.58 0 0 1 .149-.406.53.53 0 0 1 .402-.172m-3.855 8.695q.973.002 1.73-.52c.512-.343.914-.82 1.207-1.417.29-.61.434-1.285.434-2.035q0-1.095-.434-1.973a3.6 3.6 0 0 0-1.207-1.398 2.96 2.96 0 0 0-1.73-.532q-.98.002-1.742.508c-.516.332-.915.793-1.207 1.387q-.435.878-.434 2.008 0 1.123.434 2.035c.293.598.69 1.074 1.195 1.418q.763.521 1.754.52M114.32-.457c.164 0 .293.055.403.164q.159.151.16.402v12.704a.55.55 0 0 1-.172.406.53.53 0 0 1-.39.16.53.53 0 0 1-.4-.16.6.6 0 0 1-.148-.406v-2.215l.309-.266q-.001.517-.277 1.098a3.7 3.7 0 0 1-.79 1.05c-.34.32-.734.586-1.195.786q-.678.298-1.457.297c-.824 0-1.57-.211-2.234-.645-.66-.438-1.18-1.031-1.57-1.777-.387-.746-.575-1.602-.575-2.567 0-.945.188-1.793.575-2.55.39-.754.906-1.348 1.558-1.778q.985-.65 2.238-.648.755 0 1.446.289.684.275 1.215.761c.347.325.629.692.836 1.11q.31.622.308 1.305l-.387-.29V.11q-.002-.226.149-.39a.51.51 0 0 1 .398-.176m-3.851 12.98c.664 0 1.242-.171 1.742-.52a3.6 3.6 0 0 0 1.195-1.394q.435-.89.434-2.035 0-1.115-.434-2.008a3.5 3.5 0 0 0-1.207-1.398 2.98 2.98 0 0 0-1.73-.52q-.98-.001-1.742.52-.774.51-1.207 1.398c-.293.594-.434 1.266-.434 2.008 0 .75.14 1.422.434 2.024q.433.89 1.207 1.406.762.521 1.742.52M122.086 13.563c-.957 0-1.8-.2-2.535-.61a4.5 4.5 0 0 1-1.711-1.723c-.406-.738-.606-1.597-.606-2.585q0-1.58.618-2.704.627-1.131 1.617-1.73a3.96 3.96 0 0 1 2.113-.613q.809 0 1.582.289.779.286 1.375.867.608.563.965 1.394c.242.551.379 1.184.398 1.907a.54.54 0 0 1-.183.383.51.51 0 0 1-.387.16h-7.445l-.219-1.016h7.309l-.243.23v-.378q-.07-.878-.55-1.493a3.06 3.06 0 0 0-1.168-.933 3.4 3.4 0 0 0-1.434-.324q-.55.001-1.137.23-.585.223-1.066.703c-.317.32-.57.723-.77 1.215q-.297.727-.296 1.742 0 1.1.445 2c.3.598.726 1.078 1.285 1.43q.848.521 2.02.52a3.4 3.4 0 0 0 1.167-.184q.527-.193.918-.496.387-.31.645-.649.205-.17.41-.172.182.001.324.149a.5.5 0 0 1 .137.336.51.51 0 0 1-.184.394q-.55.67-1.445 1.164a3.94 3.94 0 0 1-1.95.496M127.746 11.867a.72.72 0 0 1-.14-.437q.011-.218.23-.348a.44.44 0 0 1 .344-.105.58.58 0 0 1 .367.175q.493.657 1.203 1.063c.484.27 1.05.402 1.71.402q.517 0 1.02-.172c.344-.12.625-.304.848-.543q.335-.369.336-.937 0-.575-.336-.934a2.2 2.2 0 0 0-.86-.554 9 9 0 0 0-1.12-.36 19 19 0 0 1-1.23-.379 4.5 4.5 0 0 1-1.055-.543 2.9 2.9 0 0 1-.735-.797q-.274-.472-.273-1.144 0-.784.422-1.375c.293-.399.68-.711 1.171-.934q.733-.346 1.665-.347.456 0 .996.129.538.113 1.054.402.526.275.93.762.17.177.172.394a.48.48 0 0 1-.184.367.55.55 0 0 1-.344.118.39.39 0 0 1-.32-.153 2.9 2.9 0 0 0-1.066-.762 3.3 3.3 0 0 0-1.32-.265c-.36 0-.696.066-1.008.187a1.9 1.9 0 0 0-.793.532q-.31.347-.309.933.035.534.379.88.344.333.906.566.57.218 1.274.402.592.15 1.144.36.55.197.965.507.411.31.664.785c.168.309.254.7.254 1.164q-.002.834-.46 1.434-.447.592-1.216.914a4.4 4.4 0 0 1-1.683.309 5.1 5.1 0 0 1-1.942-.391q-.939-.392-1.66-1.305m0 0" style="stroke:none;fill-rule:nonzero;fill:#f8faf0;fill-opacity:1"/></svg>