<svg xmlns="http://www.w3.org/2000/svg" width="px" height="px" viewBox="0 0 388 204"><defs><clipPath id="a"><path d="M126.602 61.668h261.363V204H126.602Zm0 0"/></clipPath><clipPath id="b"><path d="M198 0h73.867v75.914H198Zm0 0"/></clipPath></defs><g clip-path="url(#a)"><path d="M126.898 143.18c15.262 12.164 31.883 22.523 49.372 31.066 17.44 8.649 35.812 15.375 54.644 20.156 2.36.578 4.707 1.215 7.074 1.746l10.711 2.168c1.192.223 2.395.383 3.594.579l7.195 1.117c2.399.375 4.82.527 7.23.8l3.622.372 1.808.187 1.817.082c4.844.2 9.687.563 14.531.363l3.633-.054c1.21-.02 2.422-.008 3.629-.14l7.238-.583 1.809-.148c.601-.055 1.187-.176 1.785-.258l3.562-.559c1.196-.152 2.36-.457 3.528-.738l3.504-.844c9.304-2.492 18.093-6.734 26.097-12.074 8.016-5.34 15.242-11.871 21.41-19.29 6.153-7.417 11.305-15.71 14.961-24.64l1.301-3.379c.442-1.12.875-2.246 1.227-3.402a77 77 0 0 0 1.925-6.957c.56-2.348.938-4.723 1.274-7.102.262-2.386.484-4.785.484-7.183.121-9.567-2.27-19.246-7.77-27.13-5.402-7.91-13.167-14.16-21.902-18.175-8.757-4.031-18.445-5.91-28.113-6.14-9.683-.262-19.418.96-28.832 3.394-9.426 2.422-18.562 5.895-27.726 9.215 9.07-3.567 18.128-7.238 27.566-9.828 9.414-2.621 19.2-4.04 29.016-3.953 9.796.105 19.683 1.906 28.714 5.937 9.004 4.02 17.082 10.34 22.793 18.508 1.454 2.02 2.653 4.215 3.774 6.437 1.035 2.27 1.965 4.59 2.637 6.997 1.367 4.796 1.953 9.796 1.914 14.757.007 2.485-.215 4.957-.477 7.422-.332 2.453-.715 4.906-1.281 7.313a81 81 0 0 1-1.95 7.152c-.359 1.184-.796 2.34-1.246 3.488l-1.312 3.461c-3.715 9.157-8.95 17.657-15.215 25.27-6.281 7.61-13.648 14.324-21.848 19.82-8.222 5.445-17.257 9.758-26.82 12.285l-3.61.852c-1.198.289-2.398.598-3.628.746l-3.664.562c-.606.086-1.219.208-1.828.262l-9.18.703c-1.223.13-2.453.114-3.676.13l-3.68.042c-19.632.227-39.171-2.785-58.066-7.816-18.902-5.028-37.293-11.985-54.703-20.883-17.375-8.926-33.93-19.527-48.852-32.113" style="stroke:none;fill-rule:nonzero;fill:#ff6d4d;fill-opacity:1"/></g><path d="M168.273 1.059c-5.933.398-11.859.89-17.773 1.523-2.992.3-5.98.664-8.969 1.027-.754.102-1.472.164-2.261.293-.797.11-1.567.352-2.325.614a12.3 12.3 0 0 0-4.035 2.558c-1.144 1.121-2.097 2.457-2.71 3.946-.333.734-.54 1.515-.716 2.3l-.422 2.227c-.562 2.96-1.09 5.926-1.605 8.894-2.059 11.868-3.84 23.774-5.902 35.618-1.035 5.921-2.13 11.828-3.352 17.71-.617 2.903-1.363 5.77-2.656 8.336-1.262 2.582-3.18 4.743-5.625 6.157-2.442 1.43-5.285 2.156-8.149 2.347-2.875.2-5.77-.18-8.574-.964a34.4 34.4 0 0 1-8.035-3.418 32 32 0 0 1-3.617-2.48c-1.188-.915-2.387-1.806-3.559-2.74-9.43-7.37-18.515-15.452-29.043-21.589a104.7 104.7 0 0 0-16.425-7.82c-1.434-.504-2.856-1.035-4.293-1.512l-4.348-1.34c-2.98-.906-6.23-1.226-9.375-.754-3.14.488-6.227 1.766-8.66 3.914-2.473 2.102-4.168 5.02-5.028 8.09-.859 3.086-.906 6.305-.52 9.399.407 3.097 1.282 6.09 2.392 8.957 2.277 5.734 5.46 10.984 9.09 15.89 3.66 4.89 7.898 9.36 12.648 13.188 9.469 7.715 20.449 13.308 31.816 17.418 22.824 7.949 46.672 12.593 70.656 14.332-11.957-1.32-23.785-3.508-35.48-6.157a285 285 0 0 1-34.461-10.117c-11.187-4.14-21.898-9.715-31.043-17.285a78 78 0 0 1-12.293-12.773C10.055 92.133 6.953 87 4.773 81.535c-1.062-2.734-1.886-5.562-2.27-8.433-.362-2.864-.312-5.786.442-8.508.754-2.711 2.215-5.219 4.34-7.028 2.086-1.851 4.766-2.976 7.547-3.414 2.805-.418 5.684-.16 8.45.676l4.273 1.309c1.414.472 2.808.988 4.21 1.484a102 102 0 0 1 16.11 7.629c10.316 5.984 19.336 13.973 28.844 21.383 1.18.937 2.394 1.836 3.594 2.754a32.5 32.5 0 0 0 3.82 2.605 36 36 0 0 0 8.523 3.61c5.918 1.683 12.688 1.59 18.262-1.641 2.77-1.606 4.992-4.156 6.352-6.988 1.398-2.832 2.156-5.852 2.77-8.825 1.198-5.91 2.272-11.843 3.272-17.789 2.012-11.879 3.735-23.793 5.731-35.648.5-2.961 1.012-5.926 1.555-8.883l.406-2.207c.152-.684.324-1.363.613-2.004.524-1.3 1.352-2.465 2.348-3.449a10.6 10.6 0 0 1 3.52-2.254c.656-.234 1.327-.45 2.023-.547.695-.117 1.476-.195 2.207-.293 2.976-.383 5.957-.758 8.937-1.074a460 460 0 0 1 17.172-1.57c.106-.47.235-.95.45-1.371" style="stroke:none;fill-rule:nonzero;fill:#ff6d4d;fill-opacity:1"/><g clip-path="url(#b)"><path d="m266.844 39.824-2.34-17.902c-.402-2.988-.754-5.957-1.192-8.961-.53-3.043-2.375-5.832-4.972-7.523a11.1 11.1 0 0 0-4.274-1.708c-1.511-.238-2.992-.394-4.488-.593-2.98-.403-5.976-.7-8.965-1.032-5.988-.601-11.988-1.097-17.996-1.425A432 432 0 0 0 198.375 0l.031.074c.317.29.531.684.676 1.102 7.828-.051 15.664.086 23.488.469 5.996.273 11.985.714 17.965 1.261 2.985.305 5.977.574 8.957.95 1.48.183 2.996.332 4.457.55 1.434.235 2.824.766 4.043 1.57 2.461 1.575 4.238 4.2 4.762 7.09.46 2.946.848 5.95 1.27 8.922l7.496 53.64z" style="stroke:none;fill-rule:nonzero;fill:#ff6d4d;fill-opacity:1"/></g><path d="M176.422 6.969c.055-.2.105-.407.16-.61-.363.118-.715.239-1.078.344-.676.203-1.367.395-2.055.559-1 .25-2.097.468-3.12.222-1-.238-1.798-.988-2.063-1.93-.625-.827-.692-1.925-.489-2.937.059-.289.137-.586.227-.875a481 481 0 0 0-28.25 2.828 11.18 11.18 0 0 0-9.531 8.993q-.18.989-.36 1.972a12 12 0 0 1 4.79-1.707 517 517 0 0 1 41.992-3.765 6.2 6.2 0 0 1-.34-1.59 4.8 4.8 0 0 1 .117-1.504M263.125 13.543c-.68-4.969-4.586-8.89-9.55-9.55C235.52 1.597 217.18.55 198.824.612c.19.336.32.711.402 1.07.07.301.12.614.175.922.016.106.036.208.051.313l.043.242c.145.719.36 1.414.422 2.156.07.79-.012 1.614-.195 2.387a9 9 0 0 1-.633 1.781c19.805-.046 39.594 1.133 59.074 3.711 1.91.254 3.668.961 5.188 2-.075-.554-.149-1.097-.227-1.652M94.059 99.738c7.386 5.63 14.671 11.375 22.011 17.059l21.856 17.25c14.554 11.504 28.863 23.36 44.71 32.867 15.704 9.723 32.669 17.336 50.231 23.055a230 230 0 0 0 26.824 7c9.063 1.875 18.258 3.117 27.497 3.941-9.274-.277-18.532-1.293-27.708-2.785a229 229 0 0 1-27.164-6.398c-8.93-2.649-17.648-6.004-26.16-9.793-8.508-3.817-16.8-8.121-24.765-12.977-7.942-4.902-15.555-10.305-22.914-15.992-7.368-5.692-14.579-11.547-21.704-17.488l-21.437-17.77c-7.09-5.992-14.23-11.922-21.277-17.969M4.457 70.691a6.3 6.3 0 0 1 1.082-1.8 7.6 7.6 0 0 1 1.645-1.348c1.234-.723 2.62-1.137 4.023-1.367a18.2 18.2 0 0 1 4.246-.18c1.418.027 2.817.227 4.223.395 2.793.472 5.531 1.238 8.195 2.199 2.668.96 5.207 2.219 7.7 3.543 4.98 2.68 9.581 5.949 14.081 9.277L63 91.531c8.852 6.793 17.688 13.61 26.438 20.54a1209 1209 0 0 1 26.027 21.066 1192 1192 0 0 1-27.168-19.59c-8.984-6.625-17.879-13.36-26.762-20.121L48.29 83.215c-4.387-3.41-8.879-6.656-13.629-9.457-4.75-2.785-9.82-5.035-15.195-6.223-1.352-.246-2.7-.531-4.074-.64a17.6 17.6 0 0 0-4.098-.094c-1.363.136-2.711.449-3.938 1.058a7.2 7.2 0 0 0-1.687 1.157 6.3 6.3 0 0 0-1.211 1.675M273.488 84.16c1 3.43 2.34 6.746 3.98 9.887 1.012 1.664.516 4.105-1.144 5.273a3.9 3.9 0 0 1-1.312.645l-1.29.39-2.59.79c-.433.125-.859.27-1.3.37l-1.316.274-2.641.54c-.879.167-1.758.374-2.645.519l-2.66.382c-1.773.235-3.547.536-5.328.704l-5.347.511c-14.27 1.23-28.586 1.2-42.868.84-14.28-.445-28.543-1.336-42.754-2.738-14.214-1.379-28.386-3.238-42.433-5.758 14.183 1.594 28.379 2.836 42.59 3.895 14.21 1.02 28.437 1.808 42.668 2.207l10.672.25 10.671.058 10.668-.144 5.328-.215c1.778-.063 3.555-.11 5.32-.254l5.321-.363c1.774-.121 3.524-.375 5.29-.543l2.648-.285c.879-.11 1.746-.282 2.62-.418l2.618-.434 1.312-.219c.434-.09.856-.215 1.286-.312l2.566-.645c.848-.242 1.781-.336 2.387-.785 1.34-.844 1.898-2.77 1.101-4.254a47.6 47.6 0 0 1-3.418-10.168" style="stroke:none;fill-rule:nonzero;fill:#ff6d4d;fill-opacity:1"/><path d="M267.258 89.176c-11.77 2.633-23.856 3.683-35.887 4.281-12.047.586-24.11.61-36.16.387-12.05-.274-24.09-.809-36.106-1.66a603 603 0 0 1-35.96-3.536c12.027.618 24.046 1.157 36.066 1.668 12.016.477 24.031.907 36.047 1.133 12.02.27 24.039.348 36.047.145 6.007-.137 12.015-.293 18.007-.676 6.012-.258 11.973-.938 17.946-1.742M267.258 75.586c-11.926 1.559-23.965 2.23-35.985 2.61-12.023.386-24.05.421-36.074.324-12.023-.149-24.043-.438-36.058-.961a840 840 0 0 1-35.996-2.235c12.023.074 24.039.188 36.05.367l36.028.434c12.007.145 24.011.21 36.02.207 6-.031 12.007-.043 18.003-.164 6.008-.031 12.004-.309 18.012-.582M267.258 61.156c-11.98.969-24 1.442-36.016 1.703-12.012.278-24.031.325-36.043.293-12.015-.082-24.031-.242-36.039-.586-12.012-.312-24.02-.82-36.015-1.535 24.035-.453 48.046-.363 72.066-.273l36.016.238c12.011.055 24.015.203 36.03.16M264.563 56.191c-11.56.461-23.118.774-34.68.93-11.563.191-23.121.242-34.684.266-11.558-.024-23.12-.07-34.68-.262a1301 1301 0 0 1-34.68-.934 1301 1301 0 0 1 34.68-.933c11.56-.188 23.122-.246 34.68-.266 11.563.028 23.121.078 34.684.266q17.342.239 34.68.933M264.563 38.945q-17.339.696-34.68.934c-11.563.187-23.121.238-34.684.266-11.558-.02-23.12-.07-34.68-.266a1285 1285 0 0 1-34.68-.934c11.563-.46 23.122-.777 34.68-.933 11.56-.192 23.122-.239 34.68-.262 11.563.023 23.121.074 34.684.266q17.342.236 34.68.93M177.977 20.91c.18-.773.683-1.398 1.293-1.89-4.446.218-8.895.492-13.333.847-10.035.793-20.058 1.887-29.996 3.52l30.133-1.13 11.88-.343a2.8 2.8 0 0 1 .023-1.004M226.348 19.18c-10.063-.672-20.145-.82-30.223-.715q-4.199.071-8.398.207c-.434.86-.805 1.758-1.29 2.59-.085.148-.187.293-.28.441 3.335-.082 6.671-.148 10.007-.176a888 888 0 0 1 30.086.035c10.023.208 20.04.622 30.078 1.442-9.86-2.082-19.926-3.164-29.98-3.824" style="stroke:none;fill-rule:nonzero;fill:#ff6d4d;fill-opacity:1"/><path d="M105.375 95.094s6.063 4.254 47.953 14.336c51.895 12.488 96.035 8.453 115.457 7.187s27.652-12.047 23.852-18.39c-3.797-6.34-16.836-7.118-16.836-7.118l1.492 3.293s1.543 3.356-2.18 5.035c0 0-8.363 2.965-32.074 4.504-23.715 1.547-63.746-1.191-63.746-1.191s-36.895-3.078-52.395-5.246c-7.3-1.016-12.656-2.852-16.285-4.508 0 0-2.46 2.063-5.238 2.098" style="stroke:none;fill-rule:nonzero;fill:#ff6d4d;fill-opacity:1"/><path d="M273.883 85.598a62.1 62.1 0 0 1 19.398-1.727c3.297.215 6.598.79 9.828 1.79 3.223.995 6.407 2.448 9.25 4.53 2.86 2.059 5.297 4.809 7.07 7.993 1.739 3.203 2.762 6.859 2.844 10.582.23 7.496-3.511 14.793-9.035 19.582-2.832 2.441-5.77 4.207-8.824 5.824-3.059 1.594-6.242 2.844-9.441 3.933-6.418 2.145-12.97 3.567-19.54 4.52-13.152 1.883-26.355 1.93-39.425 1.102a279 279 0 0 1-19.516-2.07c-3.226-.516-6.46-1.028-9.676-1.598-3.199-.641-6.421-1.172-9.593-1.914-12.739-2.786-25.29-6.278-37.567-10.528-3.082-1.015-6.129-2.144-9.176-3.262-3.054-1.078-6.07-2.296-9.078-3.507-3.011-1.196-5.976-2.532-8.96-3.79a584 584 0 0 1-8.856-4.019c-11.66-5.664-23.074-11.894-33.61-19.387 23.172 11.34 47.348 19.864 71.891 26.828 24.586 6.786 49.563 12.024 74.781 13.692 6.301.437 12.606.637 18.895.578a181 181 0 0 0 18.738-1.086c6.188-.676 12.301-1.789 18.156-3.523 2.93-.86 5.77-1.93 8.5-3.145 2.708-1.223 5.399-2.676 7.54-4.332 4.398-3.367 7.253-8.5 7.578-13.96.164-2.731-.371-5.5-1.496-8.063-1.157-2.551-2.914-4.875-5.114-6.801-4.37-3.934-10.367-6.16-16.504-7.356-3.09-.609-6.253-.937-9.441-1.07a71 71 0 0 0-9.617.184" style="stroke:none;fill-rule:nonzero;fill:#ff6d4d;fill-opacity:1"/><path d="M339.738 104.191c-.34-.996-.781-1.96-1.172-2.941-.207-.48-.382-.98-.62-1.445l-.782-1.375c-.547-.895-.988-1.852-1.621-2.684l-1.895-2.5c-2.707-3.156-5.859-5.922-9.375-8.008-7.078-4.172-15.332-5.875-23.238-5.41a56.6 56.6 0 0 0-22.539 6.145c3.625-1.375 7.379-2.352 11.164-2.993 3.781-.66 7.61-.957 11.395-.828 3.78.16 7.527.688 11.086 1.782 3.566 1.05 6.898 2.722 9.925 4.777 3.028 2.086 5.625 4.66 7.797 7.508l1.496 2.226c.508.735.817 1.59 1.243 2.368l.593 1.195c.18.402.297.836.446 1.25.277.844.605 1.668.847 2.515.852 3.442 1.106 6.977.836 10.48l-.433 2.602c-.09.43-.11.875-.246 1.293l-.383 1.262c-.278.832-.438 1.703-.805 2.504l-1.059 2.418c-.296.828-.851 1.54-1.27 2.313l-.671 1.136-.328.57-.402.528c-1.094 1.39-2.07 2.86-3.383 4.078-.625.629-1.203 1.297-1.848 1.91l-2.047 1.719c-1.293 1.223-2.887 2.101-4.347 3.133-.73.55-1.504.902-2.266 1.277l-1.14.574c-.376.2-.759.39-1.2.535l-2.539.942-1.262.473-1.332.378-2.668.758c-.886.258-1.773.512-2.699.684l-5.488 1.168c-14.836 2.613-30.145 3.293-45.363 2.59-15.243-.567-30.442-2.598-45.461-5.528-3.758-.722-7.536-1.379-11.246-2.34-3.723-.898-7.465-1.738-11.176-2.69-7.364-2.153-14.805-4.052-22.07-6.56-3.649-1.218-7.317-2.304-10.958-3.656l-10.933-3.87c-7.29-2.59-14.555-5.24-21.774-8l-1.035-.388c.61.43 3.969 3.446 5.086 4.457a66 66 0 0 0 3.621 3c.883.684 1.856 1.254 2.715 1.961 3.137 1.368 6.266 2.739 9.418 4.067 7.164 3.015 14.356 5.91 21.723 8.586 3.675 1.328 7.3 2.82 11.05 3.941l11.204 3.524c3.765 1.07 7.566 2.023 11.351 3.039 3.77 1.074 7.617 1.847 11.445 2.687 15.34 3.274 30.958 5.387 46.684 6.14 15.734.583 31.578-.155 47.246-3.171l5.844-1.399c.976-.21 1.945-.515 2.91-.82l2.902-.902 1.454-.457 1.44-.578 2.888-1.164c.476-.168.957-.418 1.437-.68l1.438-.77c.957-.507 1.933-1.007 2.746-1.644 6.894-4.602 12.91-11.004 16.246-18.836l1.152-2.969c.39-.984.567-2.047.852-3.066l.386-1.543c.137-.508.157-1.047.239-1.574l.383-3.16c.156-4.25-.309-8.512-1.614-12.544" style="stroke:none;fill-rule:nonzero;fill:#ff6d4d;fill-opacity:1"/><path d="M345.207 104.398a30.3 30.3 0 0 0-6.023-10.8c-2.684-3.18-6.079-5.676-9.668-7.692-7.278-3.976-15.618-5.652-23.829-5.578-4.117.024-8.214.442-12.257 1.184-4.035.754-8.032 1.773-11.871 3.218 3.855-1.402 7.859-2.378 11.898-3.082 4.04-.691 8.137-1.062 12.23-1.039 8.172.02 16.422 1.786 23.551 5.786 3.516 2.046 6.856 4.488 9.465 7.617a29.6 29.6 0 0 1 5.848 10.593c2.437 7.786 1.531 16.403-1.836 23.786-3.324 7.445-8.902 13.754-15.477 18.539-6.488 5.035-14.394 7.582-22.312 9.53-7.953 1.9-16.082 3.056-24.235 3.716-8.156.683-16.359.8-24.543.554-16.37-.464-32.695-2.484-48.738-5.832-8.02-1.68-15.98-3.66-23.863-5.91a385 385 0 0 1-23.371-7.66c-7.692-2.836-15.278-5.973-22.883-9.055a489 489 0 0 1-5.563-2.277l.02.031.043.059.055.059.199.218c.148.16.297.309.453.461q.226.21.45.403c1.355.566 2.714 1.132 4.077 1.687 7.598 3.113 15.172 6.285 22.88 9.156a378 378 0 0 0 23.39 7.778 342 342 0 0 0 23.91 6.023c16.082 3.43 32.457 5.527 48.91 6.055 8.219.215 16.461.058 24.66-.66 8.203-.7 16.371-1.895 24.383-3.84 4.004-.988 7.961-2.176 11.805-3.696 1.91-.8 3.82-1.609 5.617-2.671 1.797-1.043 3.508-2.192 5.184-3.41 6.652-4.887 12.308-11.333 15.664-18.942 3.406-7.539 4.297-16.352 1.777-24.309" style="stroke:none;fill-rule:nonzero;fill:#ff6d4d;fill-opacity:1"/><path d="M350.316 106.578c-2.242-8.426-7.843-15.738-15.003-20.562-3.61-2.38-7.563-4.258-11.735-5.375-4.156-1.164-8.484-1.637-12.789-1.579-8.605.188-17.137 2.305-24.879 6.004 7.777-3.609 16.324-5.625 24.883-5.71 4.277-.012 8.566.511 12.668 1.707 4.11 1.156 7.992 3.054 11.52 5.44 3.5 2.427 6.66 5.372 9.164 8.817 1.273 1.711 2.324 3.567 3.289 5.465.886 1.93 1.664 3.922 2.214 5.977 2.247 8.234 1.313 17.183-2.156 24.941-1.742 3.887-4.082 7.492-6.836 10.734-2.785 3.227-5.996 6.067-9.48 8.516-.856.633-1.758 1.203-2.66 1.77-.891.586-1.829 1.086-2.758 1.601a59 59 0 0 1-5.813 2.633c-3.972 1.555-8.078 2.785-12.222 3.816-16.649 4.028-33.914 5.032-51.008 4.422-34.281-1.199-68.094-9.183-100.227-21.101a1034 1034 0 0 1-12.343-4.82v.117c.539.425 1.066.859 1.574 1.316a622 622 0 0 0 10.496 4.125c32.148 12.066 66.02 20.219 100.46 21.559 17.18.55 34.524-.532 51.29-4.649 4.176-1.062 8.308-2.316 12.328-3.906a61 61 0 0 0 5.898-2.7c.95-.53 1.903-1.046 2.801-1.648.918-.574 1.828-1.156 2.7-1.804 3.53-2.5 6.788-5.403 9.605-8.7 2.793-3.308 5.16-6.988 6.922-10.957 3.508-7.925 4.422-17.058 2.097-25.449" style="stroke:none;fill-rule:nonzero;fill:#ff6d4d;fill-opacity:1"/><path d="M363.75 114.637a38.4 38.4 0 0 0-5.02-14.77c-1.316-2.246-2.828-4.367-4.543-6.289-1.68-1.957-3.562-3.715-5.539-5.324-3.937-3.281-8.574-5.656-13.289-7.352-4.75-1.68-9.664-2.71-14.601-3.183a71 71 0 0 0-14.79.183c-4.866.633-9.73 1.711-14.152 3.79 4.59-1.653 9.454-2.231 14.262-2.422 4.817-.192 9.64.132 14.356.945 9.394 1.578 18.558 5.133 25.394 11.379 1.723 1.543 3.348 3.199 4.758 5.011a34 34 0 0 1 3.746 5.715 32.9 32.9 0 0 1 3.742 12.903c.774 8.984-2.191 18.058-7.43 25.515-2.57 3.782-5.722 7.168-9.152 10.25l-1.289 1.157-1.348 1.093c-.886.746-1.816 1.438-2.757 2.117a63 63 0 0 1-5.723 3.77c-3.937 2.145-8.293 3.828-12.758 5.188-4.476 1.351-9.086 2.382-13.742 3.19-9.312 1.665-18.848 2.376-28.387 2.481-9.55.13-19.12-.488-28.664-1.457-19.101-1.902-37.984-5.988-56.613-10.953-9.309-2.547-18.54-5.394-27.695-8.488q-5.497-1.929-10.98-3.91c1.714 1.14 3.32 2.418 4.937 3.691 4.164 3.258 8.562 6.203 12.55 9.672.153.129.254.281.317.434.27.148.543.293.812.445 24.532 8.348 49.86 14.512 75.797 17.41a235 235 0 0 0 29.649 1.379c9.918-.184 19.867-.98 29.714-2.816 4.918-.957 9.805-2.149 14.622-3.711 4.808-1.578 9.558-3.5 14.12-6.11a69 69 0 0 0 6.391-4.382c1.016-.77 2.024-1.551 2.989-2.395l1.464-1.238 1.407-1.309c3.75-3.488 7.117-7.441 9.902-11.809 5.64-8.628 8.816-19.3 7.543-29.8" style="stroke:none;fill-rule:nonzero;fill:#ff6d4d;fill-opacity:1"/><path d="M272.867 80.98c6.711-3.605 13.785-6.554 21.067-8.98 3.632-1.21 7.363-2.293 11.226-3.004 3.836-.703 7.707-1.144 11.59-1.383 7.773-.418 15.605.004 23.395 1.399 3.894.715 7.777 1.71 11.574 3.144 3.797 1.43 7.55 3.242 11.004 5.754a50.7 50.7 0 0 1 9.097 8.488 45 45 0 0 1 6.625 10.735c3.465 7.758 4.528 16.387 3.887 24.617-.633 8.27-2.945 16.223-6.219 23.621-3.312 7.399-7.664 14.266-12.82 20.48-5.203 6.16-11.246 11.739-18.2 16.118-6.913 4.347-14.363 7.527-21.976 9.828-15.262 4.57-31.086 5.848-46.59 5.09-31.09-1.598-61.027-11.043-87.976-25.102 14.41 4.906 28.926 9.203 43.691 12.078 14.715 2.996 29.656 4.59 44.477 4.547 7.41-.039 14.789-.52 22.058-1.504 7.25-1.086 14.422-2.562 21.274-4.863 6.847-2.266 13.441-5.188 19.312-9.047 5.887-3.746 11.117-8.621 15.684-14.062a80.5 80.5 0 0 0 11.41-17.95c3-6.422 5.008-13.261 5.754-20.14.723-6.871.02-13.797-2.45-20.063-2.44-6.27-6.706-11.844-12.097-16.195-5.21-4.215-12.023-6.906-19.016-8.77-7.043-1.832-14.425-2.757-21.824-2.98-3.699-.121-7.414-.055-11.097.27-3.66.304-7.32 1.035-11.024 1.761-3.68.758-7.344 1.68-10.98 2.707a162 162 0 0 0-10.856 3.406M116.223 133.785c-6.254-.863-12.457-1.926-18.606-3.293-10.027-2.187-19.875-5.09-29.383-8.808-9.507-3.707-18.66-8.278-27.191-13.786-8.477-5.539-16.43-12.011-22.832-19.699-1.574-1.926-3.05-3.933-4.305-6.02-1.254-2.077-2.324-4.269-2.914-6.355-.27-1.008-.379-2.07-.254-2.605.008-.18.192-.574.39-.852.2-.281.45-.531.778-.75.668-.433 1.633-.734 2.727-.84 1.09-.125 2.281-.066 3.484.028 4.875.484 9.856 2.175 14.703 3.953 4.864 1.836 9.653 3.949 14.387 6.222-4.27-3.066-8.77-5.828-13.445-8.316a79 79 0 0 0-7.227-3.398c-2.492-1.008-5.055-1.903-7.812-2.477-1.38-.277-2.813-.46-4.34-.43-1.508.028-3.172.274-4.809 1.11a7.8 7.8 0 0 0-2.226 1.738c-.63.738-1.133 1.488-1.493 2.566-.324 1.004-.39 1.915-.386 2.762-.008.86.101 1.645.222 2.418.563 3.035 1.696 5.668 2.997 8.152 1.3 2.489 2.804 4.813 4.414 7.04 6.472 8.894 14.707 16.152 23.566 22.308 8.895 6.129 18.531 11.09 28.512 15.016 19.394 7.633 40.078 11.445 60.597 12.398-3.336-2.554-6.68-5.488-9.554-8.082M180.79 24.55a3.6 3.6 0 0 1-2.013-.976l-.05-.062q-2.169-.022-4.336-.055c-4.418-.078-8.817-.16-13.223.14-.117 2.786-.316 7.532-.563 13.305h8.637c.442 0 .883-.004 1.324 0h10.391c.227-5.265.41-9.609.52-12.297a6 6 0 0 1-.688-.054M160.465 41.43c-.184 4.043-.383 8.457-.59 12.972 6.07-.113 12.14.075 18.207-.093q1.077-.031 2.152-.075c.207-4.48.403-8.836.582-12.804zM159.734 57.879l-.093 1.84c6.78.035 13.558.183 20.34.3l.105-2.14zM171.332 79.809c-4.184-.149-8.363-.454-12.547-.594-.176 3.797-.34 7.226-.48 10.031 3.617.098 7.246.348 10.847.297 3.168-.047 6.336-.102 9.504-.129.137-2.707.29-5.902.446-9.387a737 737 0 0 1-7.77-.218M212.219 36.332c.152 0 .304.004.46.004a725 725 0 0 0-1.273-14.363c-.293-.008-.578-.024-.863-.028-2.887-.074-5.852-.183-8.754.063.277 2.797.777 7.996 1.293 14.547 3.047-.063 6.09-.211 9.137-.223M213.852 54.2a698 698 0 0 0-.829-13.278h-9.613c.3 4.105.59 8.605.84 13.277zM214.121 60.223c-.035-.825-.062-1.649-.101-2.465h-9.598c.039.816.07 1.64.105 2.465zM204.598 61.805c.18 4.578.3 9.21.332 13.742h9.574a415 415 0 0 0-.316-13.742zM204.922 79.031c-.024 4.11-.121 8.086-.34 11.801h9.582c.211-3.754.309-7.723.332-11.8zM224.273 20.23a121 121 0 0 1-3.75 4.68c-1.27 1.54-2.597 3.024-3.902 4.528l.02-1.668c.894.8 1.754 1.636 2.636 2.445.871.824 1.758 1.633 2.61 2.476 1.707 1.68 3.453 3.32 5.11 5.047a1.74 1.74 0 0 1-.044 2.461l-.004.004-.012.004c-1.5 1.45-2.98 2.922-4.5 4.344a315 315 0 0 1-4.593 4.25l-.086-2.563 2.543 2.242c.844.75 1.703 1.485 2.531 2.254 1.66 1.54 3.344 3.047 4.965 4.63l.117.116a1.017 1.017 0 0 1-.293 1.653 155 155 0 0 1-4.746 2.031 105 105 0 0 1-4.832 1.867 112 112 0 0 1 4.242-2.972 171 171 0 0 1 4.328-2.813l-.175 1.77c-1.864-1.293-3.66-2.66-5.485-4.004-.914-.668-1.793-1.371-2.691-2.059l-2.68-2.074a1.66 1.66 0 0 1-.3-2.332l.14-.16.07-.07a295 295 0 0 1 4.485-4.364c1.503-1.441 3.05-2.848 4.574-4.27l-.059 2.473c-1.66-1.73-3.23-3.539-4.844-5.308-.808-.883-1.582-1.801-2.367-2.703-.781-.915-1.578-1.805-2.344-2.735l-.109-.133a1.095 1.095 0 0 1 .129-1.53c1.52-1.286 3.027-2.59 4.582-3.837a104 104 0 0 1 4.734-3.68" style="stroke:none;fill-rule:nonzero;fill:#ff6d4d;fill-opacity:1"/><path d="M223.406 77.418c-.902 1.266-1.906 2.383-2.953 3.441a45 45 0 0 1-3.273 2.973l.047-2.656a54 54 0 0 1 6.59 5.078 45 45 0 0 1 2.968 2.957c.945 1.05 1.852 2.148 2.649 3.383-1.403-.446-2.692-1.035-3.95-1.672a43 43 0 0 1-3.632-2.094 55 55 0 0 1-6.625-5.035l-.18-.16a1.553 1.553 0 0 1-.133-2.195c.106-.118.234-.223.363-.305a47 47 0 0 1 3.899-2.09c1.347-.633 2.734-1.203 4.23-1.625M232.516 78.785l-.082.008c.168 3.383.336 7.383.5 11.879h3.59a819 819 0 0 0-.5-11.887zM137.36 77.082l.085.012c-.425 3.363-.894 7.34-1.382 11.812l-3.586-.27c.496-4.46.96-8.433 1.386-11.816zM234.59 57.758h-3.445l-.149.012c.027.312.05.835.078 1.347.024.403.043.809.067 1.121h3.515l.078-.008c-.027-.304-.05-.796-.078-1.296a49 49 0 0 0-.066-1.176M229.64 40.922c.395 4.012.829 8.695.997 13.558h3.375l.215-.007c-.16-4.871-.586-9.528-.985-13.551zM227.016 22.7c.023.148.894 5.714 1.785 13.34h3.61a376 376 0 0 0-1.766-13.34zM136.922 57.898h3.195l.137.016c-.024.29-.047.77-.07 1.25-.024.371-.04.742-.059 1.035h-3.262l-.07-.004c.023-.285.047-.742.07-1.203.02-.398.04-.785.059-1.094M141.512 42.3c-.367 3.72-.77 8.06-.922 12.563h-3.13l-.198-.004c.148-4.515.543-8.832.91-12.558zM143.945 25.422c-.023.137-.832 5.293-1.652 12.36h-3.352a383 383 0 0 1 1.637-12.36zM256.035 77.418l-.082.004c.176 3.387.34 7.387.5 11.883h3.59a721 721 0 0 0-.5-11.887zM259.727 57.758h-3.45l-.148.012c.027.312.055.835.082 1.347.023.403.039.809.059 1.121h3.527l.07-.008a53 53 0 0 1-.07-1.296c-.024-.43-.047-.844-.07-1.176M254.777 40.922h-.004c.399 4.012.832 8.695.997 13.558h3.375l.218-.007c-.16-4.871-.59-9.528-.984-13.551zM252.148 23.898c.024.145.895 5.711 1.786 13.34h3.613a380 380 0 0 0-1.77-13.34zM131.543 64.215v10.887l-5.703-5.707ZM146.074 64.215v10.887l-5.707-5.707ZM160.352 75.906H147.5l6.738-6.75ZM148.16 62.406h12.852l-6.739 6.75ZM182.25 75.906h-12.852l6.739-6.75ZM170.063 62.406h12.847l-6.738 6.75ZM144.316 75.324h-12.293l6.446-6.46ZM132.656 62.406h12.293l-6.445 6.457ZM245.29 75.906h-12.852l6.738-6.75ZM233.098 62.406h12.851l-6.738 6.75ZM187.23 75.547V64.66l5.708 5.707ZM247.07 75.547V64.66l5.703 5.707ZM204.582 64.66v10.887l-5.703-5.707ZM262.215 64.66v10.887l-5.703-5.707ZM161.383 69.48l3.554 3.555 3.551-3.555-3.55-3.554Zm3.554 6.446c-.304 0-.613-.114-.847-.348l-5.242-5.25a1.205 1.205 0 0 1 0-1.695l5.242-5.25a1.2 1.2 0 0 1 1.691 0l5.246 5.25a1.205 1.205 0 0 1 0 1.695l-5.246 5.25c-.234.234-.539.348-.844.348M222.273 69.48l3.555 3.555 3.555-3.555-3.555-3.554Zm3.555 6.446c-.308 0-.613-.114-.848-.348l-5.242-5.25a1.2 1.2 0 0 1 0-1.695l5.242-5.25a1.2 1.2 0 0 1 1.692 0l5.242 5.25a1.19 1.19 0 0 1 0 1.695l-5.242 5.25c-.234.234-.54.348-.844.348M102.219 122.73c-3.301-1.886-6.305-4.304-9.434-6.464a85 85 0 0 1-3.664-.829c-10.25-2.46-20.238-6.261-29.238-11.722-2.246-1.363-4.371-2.903-6.403-4.528-2.02-1.628-3.917-3.449-5.316-5.484-.684-1.012-1.293-2.078-1.402-3.14-.18-1.204-.04-2.32.578-3.126.676-.78 1.953-1.152 3.246-1.21 1.309-.082 2.66.105 3.996.394a13.7 13.7 0 0 0-3.953-1.293c-1.379-.18-3.008-.156-4.41.902-1.364 1.133-1.754 2.954-1.762 4.43-.059 1.68.55 3.172 1.18 4.508.668 1.344 1.496 2.543 2.379 3.672a36 36 0 0 0 2.828 3.226c1.984 2.04 4.18 3.82 6.437 5.504 9.082 6.664 19.602 11.063 30.45 13.692 2.714.656 5.464 1.164 8.218 1.601 2.778.414 5.489.664 8.23.965-.652-.363-1.308-.726-1.96-1.098" style="stroke:none;fill-rule:nonzero;fill:#ff6d4d;fill-opacity:1"/><path d="M48.48 81.938c-5.234-1.547-10.59-2.97-15.976-3.172-1.336-.04-2.676.004-3.93.273-1.242.258-2.414.805-2.988 1.707-.66 1.043-1.066 2.211-1.04 3.414 0 1.2.388 2.41.942 3.55 1.153 2.294 2.93 4.325 4.793 6.247 1.88 1.914 3.918 3.707 6.004 5.45a76 76 0 0 0 3.153 2.5c1.105.765 2.195 1.554 3.347 2.261a68 68 0 0 0 3.461 2.129c1.156.707 2.352 1.355 3.54 2.012 9.507 5.265 19.55 9.582 29.812 13.23 5.156 1.75 10.347 3.445 15.644 4.781 5.258 1.496 10.63 2.504 16.008 3.567-10.914-1.008-21.746-3.258-32.242-6.574-5.254-1.641-10.406-3.594-15.5-5.696-5.059-2.18-10.04-4.562-14.88-7.215-1.206-.68-2.413-1.343-3.589-2.07a80 80 0 0 1-3.523-2.203c-1.172-.734-2.301-1.563-3.442-2.363-1.117-.852-2.234-1.73-3.25-2.645-2.082-1.812-4.129-3.683-6.047-5.715-1.906-2.039-3.734-4.234-4.968-6.898-.594-1.336-1.032-2.817-.985-4.367.02-1.555.602-3.067 1.473-4.286 1.027-1.39 2.617-1.93 4.02-2.164 1.445-.234 2.863-.214 4.261-.097 2.781.265 5.477.898 8.125 1.644a69 69 0 0 1 7.777 2.7" style="stroke:none;fill-rule:nonzero;fill:#ff6d4d;fill-opacity:1"/><path d="M71.605 100.254a13.8 13.8 0 0 1 .313-8.637c-2.883.035-5.75.93-8.148 2.54a36.1 36.1 0 0 1-1.88-11.102c-3.199-.262-6.3.129-9.093 1.715-.926-2.668-.625-5.739.808-8.172a26.3 26.3 0 0 0-8.687 3.101c-1.504-2.406-1.73-5.566-.574-8.16a18.46 18.46 0 0 0-7.992 3.586c-1.504-2.012-1.993-4.742-1.286-7.152-1.785.539-3.168 1.308-3.898 3.03-.61-2.194-.723-3.96-.07-6.144a16.2 16.2 0 0 0-5.153 2.516 8.85 8.85 0 0 1-.222-5.656 9.37 9.37 0 0 0-4.946 3.39c-.707-1.894-.843-4-.39-5.968a15.98 15.98 0 0 0-6.496 7.023s6.015-1.16 14.125 3.316c8.109 4.477 43.59 30.774 43.59 30.774M75.535 102.316l7.528-1.652c.14 3.465.75 6.91 1.808 10.211zM86.219 110.8a57 57 0 0 1 8.574-.718c.152 2.785.832 5.54 2 8.066zM99.816 121.152c2.715-.199 5.426-.398 8.141-.593-.094 3.07-.102 4.605.922 7.5z" style="stroke:none;fill-rule:nonzero;fill:#ff6d4d;fill-opacity:1"/><path d="M4.34 59.14c3.144-3.6 7.976-5.5 12.781-6.015 4.856-.535 9.774.29 14.406 1.707 4.688 1.45 8.977 3.758 13.145 6.066 4.172 2.336 8.168 4.926 12.144 7.524 7.965 5.195 15.59 10.836 23.196 16.48 7.55 5.72 14.98 11.586 22.343 17.532a948 948 0 0 1 10.915 9.105 779 779 0 0 1 10.585 9.508c6.957 6.324 14.082 12.453 21.278 18.504 14.46 12 29.441 23.383 45.488 33.394-17.23-7.863-33.223-18.36-48.36-29.773-7.6-5.684-14.898-11.758-22.116-17.902-3.61-3.043-7.145-6.301-10.63-9.27a986 986 0 0 0-10.925-8.93 1342 1342 0 0 0-22.035-17.675c-7.356-5.872-14.848-11.56-22.387-17.149a288 288 0 0 0-11.516-8.035c-3.906-2.55-7.84-5-12.078-6.676-4.25-1.726-8.77-2.816-13.355-2.797a22.5 22.5 0 0 0-6.79 1.055c-2.195.703-4.35 1.742-6.09 3.348" style="stroke:none;fill-rule:nonzero;fill:#ff6d4d;fill-opacity:1"/></svg>