<svg xmlns="http://www.w3.org/2000/svg" width="px" height="px" viewBox="0 0 359 513"><defs><clipPath id="a"><path d="M0 0h359v512.965H0Zm0 0"/></clipPath></defs><g clip-path="url(#a)"><path d="M35.477 245.645c0 19.824 2.52 29.68 14.53 45.785 11.352 15.242 34.036 30.738 51.661 39.539l21.445 8.73c25.5 9.238 45.664 9.735 72.367 9.735 12.075 0 39.645-2.934 52.004-5.543 2.97-.618 3.817-1.403 6.95-1.47 0 16.833 3.476 11.88 5.613 21.036 9.492 0 1.508-18.789-1.406-23.137 15.105-3.52 50.054-37.82 53.336-51.898l4.71 21.238c.543 4.281.543 7.371 1.047 11.617.72 6.051.813 4.508-3.136 8.328-2.77 2.688-16.446 25.707-18.063 31.75 8.887-2.066 16.567-10.168 21.762-16.125 0 2.582.012 5.157.035 7.743.078 8.82-1.71 4.101-9.66 13.496-2.836 3.34-12.52 14.937-12.836 18.726 3.621-.304 8.617-2.734 11.203-4.226 4.332-2.504 6.219-4.746 9.145-6.293 0 5.402-3.004 17.926-4.442 22.902-2.183 7.598-4.332 13.957-7.277 20.781-4.602 10.664-11.149 20.914-18.66 29.735-1.383 1.633-2.14 1.98-3.305 3.722-3.32-2.234-7.504-3.53-9.594.922-2.644 5.63-1.172 8.832-3.847 11.575l-6.211 4.328c-1.16-3.543-.594-4.7-.696-9.118 2.496-3.382-5.644-11.617-6.96 3.7-.215 2.52-.688 5.855-1.544 10.25-2.035 5.214-5.98 6.273-13.25 9.898-14.89 7.418-28.812 13.457-46.37 15.375-21.415 2.328-32.637 2.52-55.079-3.066-23.11-5.754-45.594-17.352-64.476-31.637-2.465-1.863-2.598-2.383-5.309-3.82 0-4 1.617-15.227-5.77-12.825-2.394.79-2.59 1.551-2.656 4.418-1.922-1.293-3.52-2.933-5.015-4.812l-9.325-11.012c-5.117-6.836-12.53-16.8-16.308-24.379-8.899-17.836-15.7-30.816-19.492-52.043-.45-2.504-.97-7.226-1.078-9.449-.192-4.094-.711-6.195-.711-9.8 3.207 2.144 5.265 5.245 8.246 7.874 3.297 2.903 12.101 11.13 12.101 4.035 0-1.402-3.015-5.3-3.879-6.628-3.914-5.914-5.14-6.352-9.336-11.7-1.925-2.453-3.105-4.011-7.132-4.101 0-3.844 1.093-10.285 1.406-14.028l15.273 19.79c1.969 2.43 3.153 4.562 6.48 5.453 5.884-8.778 1.9-9.016-4.523-17.227-2.539-3.262-4.89-6.219-7.59-9.242-1.566-1.766-2.261-3.156-3.914-4.508-1.574-1.266-3.53-1.863-3.984-4.281-.965-5.336 10.102-33.219 12.094-37.871.855-2.004 9.277-19.77 11.426-22.242m96.14-9.813c-2.195-3.156-4.004-9.125-10.527-9.125-3.227 0-8.84 2.328-10.957 3.777-2.969 2.036-4.297 5.73-5.18 9.551-2.598-.605-7.683-4.383-14.758-.023-2.902 1.8-2.195 3.125-4.89 4.937-2.25-3.36-6.2-8.765-6.313-14.027 1.856-.496 11.281-7.734 17.762-11.004 7.578-3.809 13.246-4.922 21.988-7.48 4.012-1.172 7.5-1.622 11.469-2.555 3.89-.91 8.223-1.696 12.574-2.156 2.207-.235 3.567-.563 6.05-.97 22.509-3.652 52.075-1.155 70.747 9.208 2.348 1.3 3.477 2.46 5.375 3.742 0 3.61-.719 6.867-1.406 9.809-10.39-2.414-24.903-.102-27.363 9.117 8.546-2.281-.91-4.914 21.054-4.914 2.418 0 2.711.531 4.903.71 0 4.25-1.73 7.337-2.653 10.665-3.531 12.777-6.097 18.699-12.078 30.008-6.344 0-21.148 2.8-30.875 2.8l-27.273-2.207c-8.47-1.449-17.301-2.91-24.758-5.414-12.719-4.27-29.578-12.004-37.102-23.23 2.203-3.285 3.98-3.09 9.008-3.653 6.836-.777 4.117.192 9.941 1.551 1.81-3.789-1.09-1.441 1.461-5.496 1.184-1.879 2.141-3.137 4.403-4.082 3.437-1.437 10.156-2.875 13.078-.976 1.406.91 1.125 1.03 2.34 2 .773.609.246.406 1.191.796 1.34.575.168.125 1.18.204l2.07.078c1.734-.145.149 1.687 1.746-1.438 1-1.965 2.055-7.215 10.422-7.215 4.75 0 8.168-.36 11.957 2.774 2.824 2.351 1.328 2.687 5.59 4.937 7.648-11.406 23.156-9.328 29.996-2.62 1.922 1.886 1.371 2.374 4.399 2.62-.137-5.722-2.981-7.62-6.02-9.418-10.356-6.16-6.746-5.304-19.25-5.304-4.242 0-8.652 2.484-11.227 4.203-6.097-9.106-18.187-5.528-22.64-1.598-3.813 3.375-4.906 5.09-5.434 11.418m-63.863-14.023c0 9.101.61 12.472 4.918 21.039 6.332 12.586 10.281 15.148 19.433 22.656 36.418 29.894 120.985 42.898 160.489 2.621 11.886-12.129 16.734-32.035 18.68-54.04 4.601 2.438 4.984 2.778 8.605 6.138 5.89 5.484 11.48 9.304 15.101 20.668.946 2.91 1.61 5.43 2.207 8.316 2.551 12.418 4.454 24.387.325 36.684-5.637 16.777-18.614 32.949-34.653 41.109-9.976 5.066-5.925 5.059-24.879 8.105-21.066 3.372-35.328 3.114-56.539 3.114-18.433 0-32.91-3.203-47.574-7.164-16.758-4.516-32.176-12.227-46.867-21.18-7.648-4.664-24.035-18.176-29.379-25.344-16.16-21.68-16.129-40.066-2.539-62.781 3.563-5.969 13.61-16.059 19.695-17.477-2.14 4.04-7.023 11.657-7.023 17.536m162.715 46.886c-4.207 1.54-13.418 4.606-18.14 5 12.964-19.351 20.128-41.906 23.347-65.023l2.61-18.422c2.823.234 14.679 5.605 25.273 5.605-5.004 21.47-10.899 64.692-33.09 72.84m16.242-134.547c-4.04-.933-4.086-3.843-7.719-2.101-1.48 3.2-7.015 12.574-7.027 12.61-3.352 12.53-14.52 22.644-6.817 35.581 1.934 3.246 3.61 3.797 5.422 6.504-.843.934-.765.89-1.406 2.102l-14.43-6.606c-25.656-9.812-53.742-12.574-80.957-10.195-11.832 1.035-22.539 3.437-34.191 7.238-7.613 2.473-15.781 4.453-22.945 7.926-15.317 7.438-25.274 12.61-33.45 28.98-12.484 25.02-33.101 58.754-38.77 85.38-5.71 26.874-6.241 48.011.477 74.906 2.72 10.855 7.149 21.566 12.098 31.402C29.594 432.91 52.63 463.684 76.18 479.16c7.468 4.91 15.375 10.305 23.52 14.371 22.76 11.375 46.19 19.285 73.327 19.285 29.594 0 52.953-7.144 79.059-21.273 7.566-4.09 14.238-8.91 20.684-14.398 30.93-26.88 44.57-48.59 52.859-94.446.555-3.035.586-5.945 1.082-8.722 1.516-8.461 2.113-24.86 2.113-34.368 0-15.632-1.89-35.558-5.656-51.144-3.14-11.117-5.906-23.68-9.887-34.3l-8.36-16.903c-4.437-7.442-6.51-8.633-10.882-14.352-2.297-3-25.734-24.953-27.68-24.953v-2.102c4.657-1.078 8.13-4.695 9.758-9.18 1.793-4.878 2.184-8.046 4.871-14.765 3.153-7.855 5.344-12.992 7.29-21.465.562-2.449.609-5.879 1.238-8.59-9.075 0-14.352 4.106-29.852-1.023-3.52-1.156-6.465-3.191-9.445-3.875l.539-.863c.054-.094.203-.317.281-.43 3.453-5.258 5.816-12.25 7.863-18.082 2.239-6.36 6.434-13.871 9.528-19.23 1.75-3.036 3.238-6.043 4.968-9.059l17.106-26.387c1.98-2.968 3.5-5.718 5.86-8.172 2.32-2.425 4.296-5.035 6.39-7.64l20.613-22.176c2.23-2.2 5.48-5.492 8.235-6.504 5.847-2.144 5.117-.902 9.832 1.45 3.28 1.628 7.23 2.593 10.55 4.19-1.328 1.981-4.59 4-6.605 6.036l-10.863 10.879c-13.98 14.597-28.266 31.793-38.633 49.043-1.047 1.73-1.43 2.113-2.543 3.777-4.914 7.352-9.067 14.172-12.54 22.531-2.34 5.633-9.98 20.078-1.812 25.535 6.996-4.671 12.54-23.675 17.68-32.117l8.773-15.781c3.23-5.414 6.106-10.562 9.485-15.766 8.87-13.722 20.476-31.039 31.254-43.101 2.867-3.203 5.14-7.73 8.906-10.035C356.606 24.12 359 24 359 22.648c0-5.527-4.219-10.214-7.187-13.148C337.73-4.41 336.48-2.242 323.03 12.668c-3.09 3.43-2.273 4.215-6.547 7.477-2.808 2.144-4.597 4.484-7.129 6.898-11.27 10.777-16.406 17.219-26.351 30.469-4.137 5.539-7.57 11.136-11 17.058-3.352 5.813-6.14 12.883-9.164 18.895-3.11 6.203-5.39 13.879-7.45 20.601-2.156 7.036-6.847 12.25-8.68 20.082m0 0" style="stroke:none;fill-rule:evenodd;fill:#ff6d4d;fill-opacity:1"/></g><path d="M105.66 404.828c1.203 14.496 9.367 12.73 18.883 15.496 28.184 8.16 74.266 5.149 99.246-6.84 2.676-1.296 5.34-1.789 6.781-3.746-1.722-.707-6.062.969-9.539 1.688-1.82.383-3.644.469-5.496.82-11.926 2.18-24.5 3.102-36.894 3.102-11.63 0-33.371-2.91-44.786-5.73-2.734-.677-5.152-1.567-8.265-2.263-9.457-2.136-15.028-5.472-19.93-2.527M231.27 308.762c0 10.125 20.03 2.742 27.578-2.61 9.93-7.023 21.175-16.652 27.836-26.882 5.082-7.813 7.746-9.72 7.746-20.297-4.137 1.105-.2 1.382-6.489 7.53l-6.671 7.372c-16.575 16.5-24.391 17.738-41.883 28.266-2.102 1.27-8.117 4.25-8.117 6.62M137.14 378.238c2.419 1.211 6.376 2.18 9.47 3.2 24.949 8.218 63.128-3.188 58.745-7.57-.125-.126-11.656.527-12.148.593-6.691.945-29.836-2.809-36.945-4.774-16.106-4.476-32.653 1.786-19.121 8.551M168.113 255.469c-4.43-2.969-2.496-4.914-9.828-4.914-2.566 0-5.918 1.16-7.422 2.406-2.195 1.797-1.715 3.437-4.511 5.305-2.184-8.204-18.614-6.442-22.766-2.414-.64.613-9.684 10.484-5.508 10.39 1.527-.031 1.98-1.637 3.18-2.887 5.344-5.527 14.789-5.312 20.3-3.101 3.434 1.383 2.13 2.723 5.5 3.621 1.981-1.441.473-.348 1.52-1.98 1.879-2.887 3.477-5.149 6.883-5.754 8.887-1.582 6.93.168 11.945 3.53 8.57-2.28-2.902-4.202 18.254-4.202 2.992 0 11.235 7.222 7.805.066-3.34-6.98-13.563-7.777-20.121-4.664-3.555 1.684-2.969 2.934-5.23 4.598M136.531 453.21c.239 2.84 1.664 3.853 3.602 4.821 15.258 7.563 39.215 5.383 55.187 2.035 4.375-.91 6.11-2.382 9.278-2.644v-1.402c-11.008 0-23.145.324-33.04-.633-6.695-.649-30.886-3.774-35.027-2.176M272.68 338.219c0 6.61 2.191 13.515 5.183 18.652 1.25 2.16 1.645 3.531 4.637 3.777 1-4.257 2.11-5.695 2.11-12.62 0-2.766-1.176-.247-2.528-7.294-1.992-10.328-9.402-5.136-9.402-2.515M260.746 390.8c0 4.329 2.574 8.747 7.02 9.118.953-1.8 2.808-5.117 2.808-7.711 0-10.215-7.242-25.008-8.953-11.05-.445 3.734-.875 5.913-.875 9.644M279.695 389.398c0 1.372.922 4.786 1.399 5.641.437.82.719 1.305 1.687 1.852 2.473 1.441 3.281-.29 4.004-1.809.582-1.2 4.149-21.34-2.883-23.215-3.285 2.414-4.207 13.371-4.207 17.531M257.945 437.082c0 3.742 1.555 6.484 4.207 8.418 3.778-1 4.723-5.36 4.903-9.824.246-5.934 1.656-8.875-.696-13.317-4.14 2.192-3.171 1.72-5.152 6.067-.934 2.015-3.262 6.41-3.262 8.656M45.309 391.512c1.55-6.664 4.699-5.453 1.394-19.645-4.601.11-7.437 5.785-8.492 9.809-.79 2.953.437 9.836 7.098 9.836M35.477 413.246c0 8.281 3.25 8.317 7.714 8.418.508-1.887 2.118-3.629 2.118-5.621 0-4.336-.778-11.934-2.118-14.723-3.957 1.438-3.742 4.696-4.855 7.07-.992 2.114-.094.27-1.063 1.743-.414.629-1.796 2.64-1.796 3.113M60.043 424.46c-1.16 4.958-1.926 16.599 4.203 18.231 1.922-1.285 1.16-.359 2.262-2.656 1.777-3.715 2.574-16.98-1.551-16.98-1.77 0-3.738.82-4.914 1.406M44.602 353.637c0 4.113.976 8.035 5.609 9.113 4.7-3.133 6.625-18.227.707-18.227-2.867 0-6.316 5.934-6.316 9.114M70.57 372.574c0 2.395 1.45 7.305 6.309 7.707 3.926-7.402 3.867-8.035 2.988-14.902-.402-3.137.317-4.024-2.988-4.024-2.746 0-6.309 8.352-6.309 11.22M63.547 402.027c0 5.328-.707 8.586 2.805 11.914 2.832-1.886 4.418-6.707 5.328-10.101 2.902-10.746-2.371-4.914-2.516-11.633-3.566.293-2.207.629-3.836 3.875-1.129 2.227-1.781 2.723-1.781 5.945M53.719 324.89c0 4.47 2.68 7.012 7.02 7.012.921-3.945 2.113-4.047 2.148-9.082.02-3.968-.047-7.98-.047-11.957-4.25 1.133-9.121 11.45-9.121 14.028M275.477 433.574c0 .903 1.34 3.688 1.87 4.453 1.067 1.57 1.88 2.067 3.755 2.563 1.398-1.317 1.597-1.598 2.418-3.89.722-2.036 1.003-2.81 1.101-5.216l-.012-11.226c-4.765.101-4.425 1.707-6.093 5.125-.743 1.508-3.04 6.64-3.04 8.191M82.5 338.914v4.91c0 9.106 7.719.551 7.719-6.316v-8.414c0-2.68.21-.25-.711-2.102-2.856.762-2.688 2.528-3.656 5.457-.73 2.184-3.352 5.106-3.352 6.465M213.496 307.805c4.363 18.746 15.758-3 5.824-2.504-2.664.12-4.261 1.46-5.824 2.504m0 0" style="stroke:none;fill-rule:evenodd;fill:#ff6d4d;fill-opacity:1"/></svg>