<?xml version="1.0" encoding="UTF-8"?>
<svg xmlns="http://www.w3.org/2000/svg" xmlns:xlink="http://www.w3.org/1999/xlink" width="px" height="px" viewBox="0 0 197 190" version="1.1">
<defs>
<clipPath id="clip1">
  <path d="M 9.195312 165.308594 L 33.914062 165.308594 L 33.914062 178.691406 L 9.195312 178.691406 Z M 9.195312 165.308594 "/>
</clipPath>
<clipPath id="clip2">
  <path d="M 9 165.308594 L 33.164062 165.308594 L 33.164062 178.691406 L 9 178.691406 Z M 9 165.308594 "/>
</clipPath>
<clipPath id="clip3">
  <path d="M 75.859375 166.808594 L 99.828125 166.808594 L 99.828125 178.691406 L 75.859375 178.691406 Z M 75.859375 166.808594 "/>
</clipPath>
<clipPath id="clip4">
  <path d="M 150.015625 101.472656 L 188 101.472656 L 188 154 L 150.015625 154 Z M 150.015625 101.472656 "/>
</clipPath>
<clipPath id="clip5">
  <path d="M 157 152.539062 L 184 152.539062 L 184 178.691406 L 157 178.691406 Z M 157 152.539062 "/>
</clipPath>
</defs>
<g id="surface1">
<path style=" stroke:none;fill-rule:nonzero;fill:rgb(98.823529%,74.901962%,73.725492%);fill-opacity:1;" d="M -336.558594 95.664062 C -340.613281 99.863281 -344.238281 100.496094 -349.605469 105.355469 L -351.363281 102.671875 C -353.484375 104.734375 -355.898438 106.679688 -357.570312 107.253906 C -356.734375 109.039062 -355.640625 110.574219 -355.234375 111.167969 C -354.203125 113.03125 -350.808594 116.507812 -334.402344 99.09375 C -333.898438 98.230469 -333.714844 97.816406 -333.6875 97.722656 C -332.429688 97.808594 -332.203125 95.808594 -331.8125 95.074219 C -331.417969 94.332031 -329.457031 94.824219 -328.429688 94.035156 C -327.398438 93.246094 -332.253906 93.496094 -331.761719 93.203125 C -331.273438 92.90625 -326.46875 92.019531 -326.859375 91.082031 C -327.175781 90.335938 -330.417969 91.140625 -332 91.636719 C -330.546875 90.960938 -327.511719 89.601562 -327.648438 89.214844 C -328.140625 87.839844 -332.167969 90.105469 -332.226562 90.160156 C -331.378906 89.382812 -330.476562 88.242188 -330.148438 87.542969 C -329.707031 86.609375 -332.058594 87.691406 -332.597656 88.183594 C -333.03125 88.578125 -334.21875 89.636719 -334.960938 90.359375 L -334.757812 88.9375 C -335.125 89.316406 -336.589844 90.652344 -336.371094 91.632812 C -336.136719 92.695312 -336.390625 94.757812 -336.546875 95.65625 Z M 22.707031 167.007812 L 28.261719 157.652344 C 30.390625 159.753906 35.59375 161.777344 35.914062 161.722656 C 36.234375 161.671875 32.875 167.851562 31.378906 169.625 C 22.964844 173.792969 22 169.507812 22.707031 167.007812 M 22.707031 167.007812 "/>
<g clip-path="url(#clip1)" clip-rule="nonzero">
<path style=" stroke:none;fill-rule:nonzero;fill:rgb(45.882353%,61.56863%,96.078432%);fill-opacity:1;" d="M 24.082031 165.699219 C 25.71875 166.105469 25.25 166.976562 26.796875 168.109375 C 29.734375 170.261719 30.589844 165.296875 32.558594 166.546875 C 33.785156 167.324219 34.070312 172.125 33.644531 174.851562 C 31.117188 175.628906 27.730469 176.527344 23.757812 177.347656 C 21.195312 177.878906 20.832031 178.265625 11.722656 178.265625 C 6.828125 178.265625 10.019531 171.65625 17.539062 171.015625 C 18.003906 170.558594 18.457031 170.09375 18.90625 169.621094 L 19.027344 169.492188 C 19.3125 169.191406 19.582031 168.890625 19.851562 168.59375 C 20.257812 168.140625 20.644531 167.703125 21.027344 167.304688 C 22.082031 166.199219 23.054688 165.441406 24.082031 165.699219 M 24.082031 165.699219 "/>
</g>
<g clip-path="url(#clip2)" clip-rule="nonzero">
<path style=" stroke:none;fill-rule:evenodd;fill:rgb(14.509805%,18.82353%,21.176471%);fill-opacity:1;" d="M 22.457031 165.808594 C 22.988281 165.496094 23.546875 165.347656 24.132812 165.492188 C 24.5625 165.597656 24.867188 165.738281 25.105469 165.917969 C 25.34375 166.09375 25.503906 166.296875 25.648438 166.511719 C 25.6875 166.566406 25.726562 166.625 25.761719 166.683594 C 26.007812 167.054688 26.285156 167.46875 26.921875 167.9375 C 27.617188 168.445312 28.15625 168.515625 28.605469 168.390625 C 29.070312 168.265625 29.480469 167.921875 29.890625 167.511719 C 29.980469 167.429688 30.074219 167.335938 30.164062 167.242188 C 30.277344 167.125 30.394531 167.007812 30.496094 166.90625 C 30.699219 166.710938 30.90625 166.523438 31.125 166.382812 C 31.347656 166.246094 31.589844 166.144531 31.855469 166.128906 C 32.125 166.113281 32.398438 166.1875 32.671875 166.367188 C 32.230469 166.589844 32.046875 166.546875 31.878906 166.554688 C 31.710938 166.566406 31.539062 166.628906 31.355469 166.746094 C 31.152344 166.882812 30.964844 167.039062 30.792969 167.210938 C 30.6875 167.316406 30.582031 167.421875 30.476562 167.53125 C 30.386719 167.621094 30.292969 167.71875 30.191406 167.820312 C 29.777344 168.226562 29.296875 168.644531 28.714844 168.804688 C 28.117188 168.96875 27.445312 168.847656 26.671875 168.28125 C 25.96875 167.769531 25.65625 167.296875 25.40625 166.917969 C 25.371094 166.863281 25.335938 166.808594 25.296875 166.753906 C 25.160156 166.554688 25.035156 166.394531 24.851562 166.257812 C 24.667969 166.121094 24.421875 166.003906 24.03125 165.90625 C 23.585938 165.792969 23.144531 165.898438 22.671875 166.175781 C 22.277344 166.40625 21.871094 166.753906 21.449219 167.179688 C 21.710938 167.238281 22.078125 167.324219 22.457031 167.441406 C 22.78125 167.542969 23.125 167.667969 23.425781 167.820312 C 23.722656 167.972656 24 168.160156 24.179688 168.390625 C 24.25 168.484375 24.230469 168.617188 24.136719 168.691406 C 24.042969 168.761719 23.910156 168.746094 23.839844 168.652344 C 23.71875 168.492188 23.507812 168.339844 23.234375 168.203125 C 22.941406 168.0625 22.640625 167.945312 22.332031 167.851562 C 21.847656 167.699219 21.394531 167.605469 21.144531 167.546875 L 21.097656 167.539062 C 20.832031 167.816406 20.558594 168.121094 20.277344 168.433594 L 20.417969 168.453125 C 20.679688 168.484375 21.011719 168.53125 21.347656 168.609375 C 21.695312 168.679688 22.03125 168.785156 22.351562 168.929688 C 22.660156 169.078125 22.941406 169.28125 23.113281 169.5625 C 22.636719 169.601562 22.441406 169.445312 22.167969 169.316406 C 21.875 169.1875 21.570312 169.089844 21.257812 169.023438 C 20.960938 168.960938 20.664062 168.910156 20.367188 168.875 C 20.300781 168.867188 20.238281 168.859375 20.183594 168.855469 L 20.164062 168.851562 L 20.027344 168.832031 C 19.996094 168.832031 19.960938 168.828125 19.929688 168.820312 C 19.714844 169.0625 19.496094 169.300781 19.277344 169.535156 C 19.351562 169.5625 19.445312 169.585938 19.546875 169.609375 L 19.710938 169.65625 C 19.921875 169.714844 20.164062 169.773438 20.398438 169.847656 C 20.703125 169.945312 21.019531 170.066406 21.300781 170.222656 C 21.578125 170.382812 21.835938 170.585938 22 170.863281 C 21.519531 170.894531 21.332031 170.734375 21.089844 170.597656 C 20.847656 170.457031 20.5625 170.347656 20.273438 170.257812 C 20.046875 170.1875 19.820312 170.128906 19.609375 170.070312 C 19.550781 170.054688 19.492188 170.039062 19.433594 170.023438 C 19.273438 169.984375 19.113281 169.933594 18.957031 169.875 C 18.65625 170.1875 18.339844 170.519531 18.011719 170.847656 C 18.414062 170.894531 18.898438 170.980469 19.359375 171.109375 C 19.683594 171.199219 20.003906 171.316406 20.273438 171.457031 C 20.539062 171.601562 20.78125 171.78125 20.921875 172.015625 C 20.980469 172.117188 20.949219 172.25 20.847656 172.308594 C 20.746094 172.371094 20.617188 172.339844 20.554688 172.238281 C 20.472656 172.097656 20.308594 171.960938 20.074219 171.835938 C 19.808594 171.703125 19.53125 171.597656 19.246094 171.519531 C 18.6875 171.371094 18.117188 171.273438 17.542969 171.230469 C 13.84375 171.550781 11.238281 173.332031 10.152344 174.996094 C 9.605469 175.835938 9.472656 176.605469 9.703125 177.136719 C 9.925781 177.65625 10.535156 178.050781 11.722656 178.050781 C 11.839844 178.050781 11.933594 178.148438 11.933594 178.265625 C 10.457031 178.480469 9.632812 178.046875 9.3125 177.304688 C 8.996094 176.582031 9.214844 175.65625 9.796875 174.761719 C 10.957031 172.980469 13.671875 171.152344 17.445312 170.8125 C 17.90625 170.359375 18.34375 169.902344 18.75 169.46875 M 18.75 169.46875 L 18.871094 169.34375 C 19.214844 168.980469 19.550781 168.609375 19.882812 168.234375 C 20.222656 167.859375 20.550781 167.492188 20.871094 167.160156 C 21.402344 166.601562 21.925781 166.121094 22.457031 165.808594 M 33.027344 171.757812 C 30.503906 172.714844 26.902344 173.667969 23.265625 174.453125 C 19.632812 175.242188 15.949219 175.859375 13.417969 175.875 C 15.898438 175.433594 19.546875 174.820312 23.175781 174.039062 C 26.394531 173.335938 29.59375 172.527344 32.761719 171.613281 M 33.027344 171.757812 "/>
</g>
<path style=" stroke:none;fill-rule:nonzero;fill:rgb(98.823529%,74.901962%,73.725492%);fill-opacity:1;" d="M 76.226562 173.039062 C 77.367188 171.824219 76.085938 164.894531 76.410156 162.277344 L 85.070312 161.210938 C 85.097656 161.421875 83.96875 169.726562 87.082031 170.632812 C 84.898438 173.820312 78.480469 173.335938 76.226562 173.039062 M 76.226562 173.039062 "/>
<g clip-path="url(#clip3)" clip-rule="nonzero">
<path style=" stroke:none;fill-rule:nonzero;fill:rgb(45.882353%,61.56863%,96.078432%);fill-opacity:1;" d="M 84.621094 167.160156 C 83.105469 167.898438 83.746094 168.652344 82.464844 170.082031 C 80.039062 172.800781 78.167969 168.125 76.503906 169.75 C 75.464844 170.769531 75.980469 175.710938 76.554688 178.15625 C 80.796875 178.527344 88.910156 178.628906 94.398438 178.257812 C 96.046875 178.144531 98.003906 178.089844 98.96875 176.75 C 100.410156 174.757812 95.417969 172.210938 92.121094 171 C 91.574219 170.648438 91.03125 170.285156 90.496094 169.917969 L 90.351562 169.816406 C 90.019531 169.585938 89.6875 169.347656 89.359375 169.105469 C 88.863281 168.75 88.394531 168.402344 87.945312 168.09375 C 86.679688 167.234375 85.574219 166.695312 84.621094 167.160156 M 84.621094 167.160156 "/>
</g>
<path style=" stroke:none;fill-rule:evenodd;fill:rgb(14.509805%,18.82353%,21.176471%);fill-opacity:1;" d="M 86.097656 167.332031 C 85.578125 167.160156 85.125 167.148438 84.714844 167.351562 C 84.351562 167.523438 84.132812 167.695312 83.984375 167.867188 C 83.832031 168.039062 83.742188 168.21875 83.652344 168.445312 C 83.628906 168.503906 83.601562 168.5625 83.578125 168.628906 C 83.410156 169.050781 83.203125 169.574219 82.625 170.222656 C 81.984375 170.941406 81.355469 171.195312 80.730469 171.160156 C 80.128906 171.125 79.574219 170.820312 79.082031 170.503906 L 78.746094 170.28125 C 78.617188 170.199219 78.5 170.117188 78.371094 170.035156 C 78.164062 169.902344 77.949219 169.789062 77.722656 169.699219 C 77.519531 169.625 77.339844 169.59375 77.171875 169.621094 C 77.007812 169.644531 76.832031 169.730469 76.652344 169.90625 L 76.355469 169.597656 C 76.589844 169.371094 76.839844 169.242188 77.105469 169.199219 C 77.371094 169.160156 77.625 169.207031 77.871094 169.300781 C 78.117188 169.390625 78.359375 169.527344 78.59375 169.675781 L 78.992188 169.933594 C 79.101562 170.007812 79.210938 170.078125 79.3125 170.144531 C 79.800781 170.457031 80.269531 170.707031 80.753906 170.734375 C 81.21875 170.761719 81.730469 170.582031 82.304688 169.941406 C 82.835938 169.351562 83.015625 168.890625 83.179688 168.472656 C 83.207031 168.410156 83.230469 168.34375 83.257812 168.277344 C 83.355469 168.042969 83.464844 167.808594 83.664062 167.585938 C 83.863281 167.363281 84.132812 167.160156 84.527344 166.96875 C 85.070312 166.703125 85.644531 166.734375 86.230469 166.925781 C 86.8125 167.121094 87.429688 167.484375 88.0625 167.917969 C 88.445312 168.179688 88.84375 168.46875 89.253906 168.765625 C 89.328125 168.820312 89.40625 168.878906 89.484375 168.933594 C 89.804688 169.167969 90.136719 169.40625 90.472656 169.640625 M 90.117188 169.910156 C 89.847656 169.726562 89.585938 169.535156 89.332031 169.351562 C 89.300781 169.359375 89.269531 169.371094 89.238281 169.382812 C 89.195312 169.398438 89.152344 169.410156 89.105469 169.425781 L 89.085938 169.433594 C 89.035156 169.453125 88.976562 169.46875 88.914062 169.492188 C 88.667969 169.578125 88.371094 169.6875 88.074219 169.824219 C 87.769531 169.957031 87.476562 170.117188 87.242188 170.296875 C 87.003906 170.484375 86.839844 170.675781 86.773438 170.875 L 86.367188 170.738281 C 86.476562 170.425781 86.710938 170.167969 86.984375 169.960938 C 87.265625 169.75 87.574219 169.574219 87.898438 169.433594 C 88.210938 169.292969 88.527344 169.175781 88.773438 169.089844 C 88.820312 169.074219 88.867188 169.054688 88.910156 169.042969 C 88.582031 168.804688 88.253906 168.570312 87.921875 168.339844 C 87.90625 168.34375 87.894531 168.351562 87.878906 168.359375 C 87.640625 168.464844 87.222656 168.648438 86.777344 168.898438 C 86.496094 169.054688 86.226562 169.230469 85.972656 169.433594 C 85.730469 169.625 85.554688 169.816406 85.472656 169.996094 L 85.085938 169.8125 C 85.210938 169.550781 85.445312 169.308594 85.703125 169.097656 C 85.964844 168.886719 86.273438 168.691406 86.570312 168.527344 C 86.914062 168.332031 87.257812 168.171875 87.503906 168.058594 C 87 167.730469 86.53125 167.476562 86.097656 167.332031 M 90.117188 169.910156 C 90.035156 169.957031 89.953125 170 89.871094 170.042969 C 89.820312 170.070312 89.769531 170.09375 89.714844 170.121094 C 89.519531 170.21875 89.300781 170.328125 89.085938 170.453125 C 88.796875 170.609375 88.527344 170.792969 88.28125 171.007812 C 88.039062 171.21875 87.835938 171.472656 87.730469 171.777344 L 88.132812 171.917969 C 88.203125 171.707031 88.355469 171.511719 88.5625 171.324219 C 88.769531 171.140625 89.027344 170.976562 89.292969 170.824219 C 89.5 170.707031 89.707031 170.601562 89.902344 170.503906 C 89.957031 170.476562 90.007812 170.449219 90.066406 170.421875 C 90.222656 170.339844 90.378906 170.257812 90.5 170.175781 C 90.859375 170.421875 91.238281 170.675781 91.628906 170.929688 C 91.242188 171.0625 90.785156 171.246094 90.363281 171.46875 C 90.070312 171.613281 89.796875 171.792969 89.542969 172 C 89.308594 172.195312 89.113281 172.421875 89.023438 172.679688 L 89.425781 172.816406 C 89.480469 172.667969 89.609375 172.5 89.816406 172.328125 C 90.019531 172.15625 90.277344 171.992188 90.558594 171.847656 C 91.058594 171.589844 91.578125 171.382812 92.117188 171.222656 C 93.742188 171.828125 95.761719 172.75 97.199219 173.757812 C 97.933594 174.269531 98.492188 174.792969 98.785156 175.289062 C 98.933594 175.535156 99.007812 175.769531 99.011719 175.984375 C 99.011719 176.21875 98.9375 176.441406 98.796875 176.625 L 99.140625 176.875 C 99.335938 176.617188 99.441406 176.300781 99.4375 175.976562 C 99.429688 175.664062 99.324219 175.363281 99.152344 175.074219 C 98.8125 174.496094 98.195312 173.933594 97.445312 173.40625 C 95.949219 172.359375 93.867188 171.417969 92.21875 170.804688 C 91.679688 170.460938 91.144531 170.105469 90.617188 169.738281 L 90.472656 169.640625 M 87.234375 175.554688 C 83.515625 175.542969 79.796875 175.359375 77.324219 175.175781 L 77.355469 174.75 C 79.816406 174.933594 83.53125 175.117188 87.238281 175.125 C 90.949219 175.136719 94.644531 174.976562 97.082031 174.476562 L 97.164062 174.894531 C 94.683594 175.40625 90.949219 175.566406 87.234375 175.554688 M 87.234375 175.554688 "/>
<path style=" stroke:none;fill-rule:nonzero;fill:rgb(98.823529%,74.901962%,73.725492%);fill-opacity:1;" d="M 45.039062 47.292969 C 47.429688 44.613281 44.917969 39.332031 43.359375 37.027344 C 44.3125 37.859375 49.675781 41.519531 53.808594 39.503906 C 54.152344 40.128906 54.859375 41.257812 55.589844 42.011719 C 56.082031 42.519531 56.601562 43.117188 56.589844 43.824219 C 56.527344 48.644531 49.042969 48.195312 45.039062 47.292969 M 45.039062 47.292969 "/>
<path style=" stroke:none;fill-rule:nonzero;fill:rgb(98.823529%,74.901962%,73.725492%);fill-opacity:1;" d="M 42.714844 32.371094 C 47.296875 29.359375 47.109375 25.027344 46.402344 23.09375 C 47.648438 22.84375 50.5 22.875 51.890625 25 C 53.625 27.664062 59.097656 35.414062 54.890625 38.808594 C 54.542969 39.09375 54.179688 39.320312 53.808594 39.503906 C 49.675781 41.519531 44.3125 37.859375 43.359375 37.027344 C 40.347656 37.125 38.804688 34.652344 39.253906 33.273438 C 39.609375 32.171875 41.710938 32.210938 42.714844 32.371094 M 42.714844 32.371094 "/>
<path style=" stroke:none;fill-rule:evenodd;fill:rgb(14.509805%,18.82353%,21.176471%);fill-opacity:1;" d="M 41.726562 34.238281 C 41.375 34.132812 41.011719 34.097656 40.652344 34.125 L 40.609375 33.703125 C 41.023438 33.667969 41.445312 33.707031 41.84375 33.824219 C 42.316406 33.964844 42.808594 34.238281 43.109375 34.742188 L 42.742188 34.960938 C 42.515625 34.582031 42.136719 34.355469 41.722656 34.238281 M 47.46875 39.136719 C 49.425781 39.894531 51.726562 40.28125 53.714844 39.3125 L 53.902344 39.691406 C 51.757812 40.742188 49.3125 40.304688 47.316406 39.53125 C 45.316406 38.757812 43.714844 37.621094 43.21875 37.1875 L 43.5 36.863281 C 43.957031 37.265625 45.515625 38.375 47.46875 39.136719 M 47.46875 39.136719 "/>
<path style=" stroke:none;fill-rule:nonzero;fill:rgb(14.509805%,18.82353%,21.176471%);fill-opacity:1;" d="M 42.714844 32.371094 C 47.296875 29.359375 47.109375 25.027344 46.402344 23.09375 C 47.648438 22.84375 50.5 22.875 51.890625 25 C 53.625 27.664062 59.097656 35.414062 54.890625 38.808594 C 54.542969 39.09375 54.179688 39.320312 53.808594 39.503906 C 54.15625 40.140625 55.886719 43.316406 56.628906 44.070312 C 59.519531 43.996094 61.476562 44.507812 63.015625 45.375 C 63.714844 45.769531 65.328125 45.367188 66.632812 46.488281 L 67.015625 42.222656 C 67 39.277344 64.761719 37.820312 62.351562 36.730469 C 59.863281 35.601562 60.6875 33.648438 60.289062 31.164062 C 59.886719 28.6875 57.554688 27.671875 55.867188 26.804688 C 54.183594 25.941406 53.636719 24.109375 51.355469 20.386719 C 49.535156 17.402344 44.007812 18.476562 41.472656 19.390625 C 38.621094 20.492188 33.269531 24.1875 34.6875 30.136719 C 35.910156 34.980469 37.640625 34.59375 34.894531 37.320312 C 31.527344 40.667969 37.296875 42.039062 35.644531 45.375 C 34.742188 47.433594 34.273438 51.863281 39.589844 53.140625 L 45.039062 47.289062 C 47.429688 44.613281 44.917969 39.332031 43.359375 37.027344 C 40.347656 37.125 38.804688 34.652344 39.253906 33.273438 C 39.609375 32.171875 41.710938 32.210938 42.714844 32.371094 M 42.714844 32.371094 "/>
<path style=" stroke:none;fill-rule:evenodd;fill:rgb(14.509805%,18.82353%,21.176471%);fill-opacity:1;" d="M 46.21875 30.339844 C 46.148438 30.992188 46.292969 31.785156 46.679688 32.550781 C 47.074219 33.316406 47.625 33.898438 48.195312 34.222656 C 48.765625 34.546875 49.328125 34.601562 49.765625 34.378906 C 50.207031 34.15625 50.492188 33.667969 50.5625 33.011719 C 50.636719 32.363281 50.492188 31.574219 50.101562 30.804688 C 49.710938 30.039062 49.160156 29.457031 48.589844 29.132812 C 48.019531 28.804688 47.457031 28.75 47.019531 28.972656 C 46.574219 29.199219 46.292969 29.6875 46.21875 30.339844 M 45.796875 30.292969 C 45.878906 29.550781 46.214844 28.90625 46.824219 28.59375 C 47.433594 28.285156 48.148438 28.390625 48.800781 28.761719 C 49.378906 29.089844 49.925781 29.644531 50.335938 30.34375 C 50.4375 30.246094 50.5625 30.144531 50.691406 30.058594 C 50.828125 29.972656 50.992188 29.894531 51.164062 29.863281 C 50.878906 29.214844 50.765625 28.550781 50.820312 27.976562 C 50.882812 27.332031 51.160156 26.765625 51.691406 26.496094 C 52.21875 26.222656 52.839844 26.332031 53.398438 26.664062 C 53.957031 26.992188 54.480469 27.558594 54.851562 28.285156 C 55.214844 29.007812 55.367188 29.769531 55.308594 30.417969 C 55.246094 31.0625 54.96875 31.628906 54.4375 31.898438 C 53.921875 32.164062 53.3125 32.066406 52.761719 31.75 C 52.234375 31.445312 51.738281 30.933594 51.367188 30.273438 C 51.242188 30.261719 51.089844 30.3125 50.925781 30.421875 C 50.785156 30.511719 50.65625 30.617188 50.542969 30.738281 C 50.921875 31.53125 51.0625 32.351562 50.988281 33.058594 C 50.902344 33.804688 50.570312 34.449219 49.957031 34.757812 C 49.351562 35.070312 48.632812 34.964844 47.984375 34.59375 C 47.332031 34.222656 46.726562 33.574219 46.304688 32.742188 C 45.878906 31.914062 45.710938 31.039062 45.796875 30.292969 M 51.246094 28.019531 C 51.191406 28.570312 51.320312 29.25 51.65625 29.914062 C 51.667969 29.9375 51.683594 29.960938 51.695312 29.984375 C 52.035156 30.625 52.5 31.109375 52.972656 31.378906 C 53.445312 31.652344 53.898438 31.695312 54.246094 31.515625 C 54.597656 31.339844 54.828125 30.9375 54.882812 30.375 C 54.9375 29.820312 54.808594 29.140625 54.472656 28.476562 C 54.132812 27.816406 53.660156 27.308594 53.179688 27.027344 C 52.695312 26.746094 52.238281 26.695312 51.882812 26.875 C 51.53125 27.054688 51.296875 27.457031 51.246094 28.015625 M 51.246094 28.015625 "/>
<path style=" stroke:none;fill-rule:nonzero;fill:rgb(14.509805%,18.82353%,21.176471%);fill-opacity:1;" d="M 50.070312 31.410156 C 50.257812 31.789062 50.214844 32.199219 49.960938 32.328125 C 49.710938 32.460938 49.351562 32.257812 49.15625 31.878906 C 48.964844 31.5 49.011719 31.089844 49.265625 30.960938 C 49.515625 30.832031 49.875 31.03125 50.070312 31.410156 M 54.246094 29.46875 C 54.441406 29.847656 54.394531 30.257812 54.140625 30.386719 C 53.886719 30.515625 53.527344 30.3125 53.339844 29.9375 C 53.144531 29.558594 53.191406 29.148438 53.441406 29.019531 C 53.695312 28.890625 54.054688 29.089844 54.246094 29.46875 M 54.246094 29.46875 "/>
<path style=" stroke:none;fill-rule:evenodd;fill:rgb(14.509805%,18.82353%,21.176471%);fill-opacity:1;" d="M 46.019531 31.398438 L 42.789062 32.570312 L 42.644531 32.167969 L 45.878906 30.996094 Z M 46.019531 31.398438 "/>
<path style=" stroke:none;fill-rule:nonzero;fill:rgb(24.313726%,46.666667%,95.686275%);fill-opacity:1;" d="M 56.207031 43.515625 C 56.839844 47.765625 50.496094 48.203125 45.390625 46.726562 C 42.535156 48.957031 36.625 54.1875 36.625 57.589844 C 36.625 60.996094 38.609375 72.371094 39.605469 77.628906 C 40.996094 77.5 43.382812 77.117188 45.480469 76.398438 C 48.058594 81.03125 54.246094 86.828125 51.097656 97.671875 C 59.820312 97.671875 74.722656 99.078125 76.425781 87.652344 C 76.425781 84.421875 67.652344 72.019531 66.714844 63.472656 C 68.777344 62.414062 71.210938 59.992188 72.378906 58.652344 L 66.632812 46.714844 C 64.417969 44.496094 58.476562 43.585938 56.207031 43.515625 M 56.207031 43.515625 "/>
<path style=" stroke:none;fill-rule:evenodd;fill:rgb(14.509805%,18.82353%,21.176471%);fill-opacity:1;" d="M 54.644531 35.371094 C 54.894531 35.003906 54.867188 34.625 54.753906 34.472656 L 55.097656 34.222656 C 55.34375 34.566406 55.316406 35.144531 54.996094 35.613281 C 54.667969 36.097656 54.027344 36.476562 53.011719 36.476562 L 53.011719 36.050781 C 53.914062 36.050781 54.410156 35.722656 54.644531 35.371094 M 54.644531 35.371094 "/>
<path style=" stroke:none;fill-rule:nonzero;fill:rgb(14.509805%,18.82353%,21.176471%);fill-opacity:1;" d="M 48.328125 109.773438 C 49.269531 104.058594 49.007812 98.773438 51.519531 95.75 C 59.410156 94.582031 74.714844 87.828125 75.144531 90.632812 C 76.121094 96.828125 79.117188 110.953125 80.183594 119.859375 L 88.277344 160.550781 L 78.039062 166.160156 L 73.5 146.859375 L 67.910156 111.160156 L 53.863281 136.046875 C 49.179688 149.054688 48.117188 144.789062 35.558594 164.191406 C 33.992188 163.527344 28.285156 159.296875 26.980469 158.738281 L 43.859375 124.109375 Z M 48.328125 109.773438 "/>
<path style=" stroke:none;fill-rule:nonzero;fill:rgb(14.509805%,18.82353%,21.176471%);fill-opacity:1;" d="M 153.960938 28.207031 C 154.738281 23.796875 151.800781 19.597656 147.402344 18.820312 L 78.53125 6.65625 C 74.132812 5.878906 69.9375 8.820312 69.160156 13.226562 L 44 156.179688 C 43.226562 160.585938 46.164062 164.785156 50.5625 165.5625 L 119.433594 177.730469 C 123.832031 178.503906 128.027344 175.5625 128.800781 171.15625 Z M 153.960938 28.207031 "/>
<path style=" stroke:none;fill-rule:nonzero;fill:rgb(45.882353%,61.56863%,96.078432%);fill-opacity:1;" d="M 48.382812 148.8125 L 71.734375 16.15625 C 72.304688 12.90625 75.394531 10.738281 78.636719 11.3125 L 99.488281 14.992188 C 100.066406 15.097656 100.453125 15.652344 100.351562 16.234375 C 99.875 18.949219 101.6875 21.539062 104.398438 22.019531 L 117.851562 24.394531 C 120.5625 24.875 123.148438 23.0625 123.625 20.34375 C 123.730469 19.761719 124.285156 19.375 124.863281 19.476562 L 145.714844 23.160156 C 148.953125 23.730469 151.117188 26.828125 150.546875 30.074219 L 127.199219 162.730469 C 126.625 165.980469 123.535156 168.148438 120.292969 167.574219 L 53.21875 155.726562 C 49.976562 155.152344 47.8125 152.058594 48.382812 148.8125 M 48.382812 148.8125 "/>
<path style=" stroke:none;fill-rule:nonzero;fill:rgb(14.509805%,18.82353%,21.176471%);fill-opacity:1;" d="M 143.546875 33.339844 C 143.632812 32.851562 143.308594 32.386719 142.824219 32.300781 L 132.261719 30.433594 C 131.773438 30.347656 131.3125 30.671875 131.226562 31.160156 C 131.140625 31.648438 131.464844 32.113281 131.949219 32.199219 L 142.511719 34.0625 C 142.746094 34.105469 142.988281 34.050781 143.179688 33.917969 C 143.375 33.78125 143.507812 33.574219 143.546875 33.339844 M 142.929688 36.867188 C 142.96875 36.632812 142.917969 36.390625 142.78125 36.195312 C 142.644531 36 142.4375 35.871094 142.203125 35.828125 L 131.640625 33.964844 C 131.40625 33.921875 131.167969 33.972656 130.972656 34.109375 C 130.777344 34.246094 130.644531 34.453125 130.605469 34.6875 C 130.519531 35.175781 130.84375 35.640625 131.328125 35.726562 L 141.890625 37.59375 C 142.125 37.632812 142.367188 37.582031 142.5625 37.445312 C 142.753906 37.308594 142.886719 37.101562 142.929688 36.867188 M 142.300781 40.433594 C 142.382812 39.972656 142.074219 39.527344 141.609375 39.445312 L 131.128906 37.59375 C 130.910156 37.554688 130.679688 37.605469 130.496094 37.734375 C 130.308594 37.867188 130.183594 38.0625 130.144531 38.289062 C 130.0625 38.75 130.371094 39.195312 130.832031 39.277344 L 141.3125 41.128906 C 141.777344 41.210938 142.21875 40.898438 142.300781 40.433594 M 142.300781 40.433594 "/>
<path style=" stroke:none;fill-rule:nonzero;fill:rgb(94.901961%,94.901961%,94.901961%);fill-opacity:1;" d="M 77.75 65.839844 C 75.300781 79.753906 84.574219 93.023438 98.464844 95.476562 C 112.359375 97.933594 125.605469 88.640625 128.054688 74.726562 C 130.503906 60.808594 121.226562 47.539062 107.335938 45.085938 C 93.445312 42.632812 80.199219 51.921875 77.75 65.839844 M 77.75 65.839844 "/>
<path style=" stroke:none;fill-rule:nonzero;fill:rgb(24.313726%,46.666667%,95.686275%);fill-opacity:1;" d="M 91.210938 82.574219 C 92.613281 81.105469 96.246094 78.453125 99.363281 78.097656 C 100.746094 83.203125 105.613281 81.375 107.574219 79.335938 C 112.621094 81.683594 118.753906 84.09375 120.328125 88.984375 C 117.890625 91.261719 115.039062 93.039062 111.925781 94.222656 C 107.632812 95.851562 102.984375 96.285156 98.464844 95.476562 C 94.058594 94.707031 89.929688 92.78125 86.5 89.902344 C 88.140625 86.898438 90.179688 83.660156 91.210938 82.574219 M 91.210938 82.574219 "/>
<path style=" stroke:none;fill-rule:nonzero;fill:rgb(98.823529%,74.901962%,73.725492%);fill-opacity:1;" d="M 109.777344 80.257812 C 106.710938 78.398438 107.574219 72.609375 108.386719 69.949219 C 107.722656 71.027344 103.65625 76.097656 99.117188 75.375 C 98.972656 76.082031 98.625 77.367188 98.148438 78.300781 C 97.824219 78.933594 97.503906 79.652344 97.71875 80.328125 C 99.183594 84.917969 106.214844 82.300781 109.777344 80.257812 M 109.777344 80.257812 "/>
<path style=" stroke:none;fill-rule:nonzero;fill:rgb(98.823529%,74.901962%,73.725492%);fill-opacity:1;" d="M 107.648438 65.308594 C 102.382812 63.769531 101.300781 59.570312 101.414062 57.515625 C 100.144531 57.640625 97.429688 58.503906 96.722656 60.949219 C 95.839844 64.003906 92.867188 73.019531 97.878906 75.035156 C 98.296875 75.199219 98.710938 75.3125 99.121094 75.375 C 103.65625 76.097656 107.722656 71.027344 108.386719 69.949219 C 111.300781 69.164062 112.054688 66.347656 111.222656 65.160156 C 110.558594 64.207031 108.5625 64.863281 107.648438 65.308594 M 107.648438 65.308594 "/>
<path style=" stroke:none;fill-rule:evenodd;fill:rgb(14.509805%,18.82353%,21.176471%);fill-opacity:1;" d="M 109.140625 66.800781 C 109.441406 66.601562 109.78125 66.457031 110.132812 66.382812 L 110.050781 65.964844 C 109.757812 66.023438 109.3125 66.175781 108.902344 66.445312 C 108.492188 66.71875 108.105469 67.125 107.960938 67.691406 L 108.375 67.792969 C 108.480469 67.363281 108.78125 67.039062 109.140625 66.800781 M 105.074219 73.171875 C 103.425781 74.46875 101.332031 75.515625 99.152344 75.167969 L 99.085938 75.589844 C 101.441406 75.964844 103.652344 74.832031 105.335938 73.503906 C 107.023438 72.175781 108.222656 70.621094 108.570312 70.0625 L 108.207031 69.839844 C 107.886719 70.355469 106.71875 71.875 105.074219 73.171875 M 105.074219 73.171875 "/>
<path style=" stroke:none;fill-rule:nonzero;fill:rgb(14.509805%,18.82353%,21.176471%);fill-opacity:1;" d="M 107.648438 65.308594 C 102.382812 63.769531 101.300781 59.570312 101.414062 57.515625 C 100.144531 57.640625 97.429688 58.503906 96.722656 60.949219 C 95.839844 64.003906 92.867188 73.019531 97.878906 75.035156 C 98.296875 75.199219 98.710938 75.3125 99.121094 75.375 C 98.972656 76.09375 98.613281 77.40625 98.125 78.34375 C 95.335938 79.121094 92.433594 81.296875 91.210938 82.574219 C 90.65625 83.160156 89.8125 84.363281 88.898438 85.8125 L 87.285156 81.847656 C 86.4375 79.027344 88.152344 76.980469 90.140625 75.226562 C 92.1875 73.421875 90.832031 71.796875 90.488281 69.304688 C 90.148438 66.8125 92.085938 65.160156 93.445312 63.839844 C 94.800781 62.519531 94.789062 60.609375 95.882812 56.375 C 96.757812 52.992188 102.355469 52.402344 105.046875 52.53125 C 108.09375 52.75 114.289062 54.71875 114.667969 60.824219 C 114.917969 65.8125 113.144531 65.945312 116.570312 67.753906 C 120.765625 69.96875 115.648438 72.96875 118.203125 75.671875 C 119.664062 77.378906 121.40625 81.476562 116.695312 84.257812 L 109.777344 80.257812 C 106.710938 78.398438 107.574219 72.609375 108.386719 69.949219 C 111.296875 69.164062 112.054688 66.347656 111.222656 65.160156 C 110.558594 64.207031 108.5625 64.863281 107.648438 65.308594 M 107.648438 65.308594 "/>
<path style=" stroke:none;fill-rule:evenodd;fill:rgb(14.509805%,18.82353%,21.176471%);fill-opacity:1;" d="M 103.703125 64.394531 C 103.960938 64.996094 104.054688 65.796875 103.90625 66.644531 C 103.753906 67.492188 103.394531 68.207031 102.949219 68.683594 C 102.496094 69.164062 101.976562 69.378906 101.488281 69.296875 C 101 69.210938 100.589844 68.824219 100.328125 68.222656 C 100.070312 67.621094 99.976562 66.820312 100.125 65.972656 C 100.273438 65.128906 100.632812 64.410156 101.082031 63.933594 C 101.535156 63.453125 102.054688 63.234375 102.542969 63.324219 C 103.027344 63.40625 103.441406 63.789062 103.703125 64.394531 M 104.089844 64.226562 C 103.796875 63.539062 103.285156 63.019531 102.613281 62.902344 C 101.941406 62.78125 101.285156 63.09375 100.773438 63.640625 C 100.3125 64.125 99.953125 64.808594 99.765625 65.605469 C 99.628906 65.535156 99.488281 65.480469 99.34375 65.433594 C 99.179688 65.390625 99.007812 65.371094 98.835938 65.386719 C 98.917969 64.679688 98.832031 64.015625 98.609375 63.480469 C 98.363281 62.882812 97.933594 62.421875 97.347656 62.320312 C 96.765625 62.214844 96.199219 62.5 95.765625 62.976562 C 95.324219 63.457031 94.992188 64.15625 94.847656 64.957031 C 94.707031 65.757812 94.785156 66.527344 95.03125 67.128906 C 95.28125 67.726562 95.714844 68.191406 96.296875 68.292969 C 96.871094 68.390625 97.421875 68.117188 97.855469 67.660156 C 98.273438 67.214844 98.597656 66.574219 98.761719 65.839844 C 98.875 65.789062 99.035156 65.792969 99.226562 65.847656 C 99.394531 65.890625 99.558594 65.972656 99.683594 66.042969 C 99.554688 66.910156 99.65625 67.738281 99.9375 68.390625 C 100.230469 69.078125 100.742188 69.597656 101.414062 69.714844 C 102.085938 69.835938 102.742188 69.519531 103.253906 68.976562 C 103.769531 68.433594 104.160156 67.632812 104.324219 66.71875 C 104.488281 65.796875 104.390625 64.914062 104.089844 64.226562 M 98.21875 63.640625 C 98.433594 64.160156 98.503906 64.84375 98.375 65.578125 C 98.371094 65.605469 98.367188 65.632812 98.363281 65.660156 C 98.21875 66.371094 97.917969 66.96875 97.546875 67.363281 C 97.171875 67.765625 96.753906 67.9375 96.367188 67.871094 C 95.980469 67.800781 95.640625 67.484375 95.425781 66.964844 C 95.214844 66.449219 95.136719 65.761719 95.269531 65.03125 C 95.398438 64.296875 95.703125 63.679688 96.074219 63.265625 C 96.457031 62.851562 96.882812 62.667969 97.273438 62.738281 C 97.664062 62.804688 98.003906 63.125 98.21875 63.640625 M 98.21875 63.640625 "/>
<path style=" stroke:none;fill-rule:nonzero;fill:rgb(14.509805%,18.82353%,21.176471%);fill-opacity:1;" d="M 101.75 65.828125 C 101.679688 66.246094 101.839844 66.625 102.121094 66.671875 C 102.402344 66.722656 102.683594 66.421875 102.757812 66.007812 C 102.832031 65.585938 102.667969 65.210938 102.390625 65.160156 C 102.109375 65.113281 101.824219 65.410156 101.75 65.828125 M 97.1875 65.195312 C 97.113281 65.613281 97.277344 65.992188 97.558594 66.042969 C 97.835938 66.09375 98.121094 65.792969 98.191406 65.375 C 98.265625 64.957031 98.101562 64.574219 97.824219 64.527344 C 97.542969 64.476562 97.257812 64.777344 97.1875 65.195312 M 97.1875 65.195312 "/>
<path style=" stroke:none;fill-rule:evenodd;fill:rgb(14.509805%,18.82353%,21.176471%);fill-opacity:1;" d="M 104.203125 65.347656 L 107.636719 65.519531 L 107.65625 65.09375 L 104.222656 64.921875 Z M 100.722656 71.011719 C 100.273438 71.203125 99.992188 71.425781 99.652344 71.523438 C 99.316406 71.621094 98.917969 71.601562 98.496094 71.289062 C 98.777344 72.03125 99.316406 72.066406 99.765625 71.9375 C 100.144531 71.820312 100.484375 71.605469 100.746094 71.3125 M 100.722656 71.011719 "/>
<path style=" stroke:none;fill-rule:nonzero;fill:rgb(98.823529%,74.901962%,73.725492%);fill-opacity:1;" d="M 86.835938 77.597656 C 87.488281 76.964844 87.617188 76.515625 87.367188 74.644531 C 87.234375 73.644531 87.0625 73.316406 86.265625 73.019531 C 87.429688 71.699219 90.15625 68.742188 89.75 67.972656 C 89.238281 67.007812 88.027344 67.964844 85.160156 71.394531 C 85.199219 67.972656 85.644531 65.320312 84.296875 65.097656 C 83.34375 64.9375 83.324219 69.300781 83.292969 71.347656 C 83.300781 70.570312 82.535156 70.515625 81.527344 70.839844 C 81.378906 70.464844 79.910156 70.542969 79.855469 71.832031 C 79.84375 72.101562 79.890625 72.457031 79.976562 72.847656 C 80 72.960938 79.546875 76.363281 81.308594 78.265625 C 81.367188 79.164062 81.472656 80.992188 81.4375 81.113281 C 81.402344 81.234375 84.746094 81.25 86.421875 81.238281 C 86.390625 80.25 86.359375 78.214844 86.484375 77.988281 C 86.59375 77.851562 86.714844 77.722656 86.835938 77.597656 M 86.835938 77.597656 "/>
<path style=" stroke:none;fill-rule:evenodd;fill:rgb(14.509805%,18.82353%,21.176471%);fill-opacity:1;" d="M 83.371094 71.992188 L 83.394531 71.351562 L 83.1875 71.34375 L 83.160156 71.984375 Z M 81.882812 75.226562 C 81.78125 75.179688 81.691406 75.113281 81.621094 75.027344 L 81.457031 75.164062 C 81.535156 75.257812 81.667969 75.367188 81.800781 75.425781 C 81.863281 75.453125 81.9375 75.472656 82.019531 75.457031 L 82 75.222656 C 81.992188 75.246094 81.984375 75.246094 81.976562 75.246094 C 81.960938 75.25 81.929688 75.246094 81.882812 75.226562 M 81.882812 75.226562 "/>
<path style=" stroke:none;fill-rule:evenodd;fill:rgb(14.509805%,18.82353%,21.176471%);fill-opacity:1;" d="M 83.507812 72.171875 C 83.417969 72.144531 83.328125 72.117188 83.234375 72.089844 L 83.292969 71.886719 C 83.394531 71.914062 83.492188 71.945312 83.585938 71.976562 L 83.597656 71.980469 L 83.605469 71.984375 C 83.96875 72.199219 84.460938 72.367188 84.957031 72.515625 C 85.121094 72.5625 85.28125 72.609375 85.4375 72.65625 C 85.761719 72.746094 86.066406 72.832031 86.300781 72.917969 C 86.707031 73.070312 86.976562 73.234375 87.152344 73.507812 C 87.328125 73.773438 87.40625 74.128906 87.472656 74.632812 L 87.261719 74.65625 C 87.195312 74.15625 87.121094 73.84375 86.976562 73.625 C 86.835938 73.40625 86.617188 73.265625 86.230469 73.121094 C 86 73.035156 85.707031 72.953125 85.390625 72.863281 C 85.226562 72.816406 85.0625 72.769531 84.898438 72.722656 C 84.40625 72.574219 83.894531 72.398438 83.507812 72.171875 M 83.503906 74.085938 C 83.304688 73.871094 83.105469 73.65625 82.910156 73.433594 L 82.75 73.578125 C 82.964844 73.820312 83.164062 74.039062 83.351562 74.234375 Z M 83.503906 74.085938 "/>
<path style=" stroke:none;fill-rule:evenodd;fill:rgb(14.509805%,18.82353%,21.176471%);fill-opacity:1;" d="M 82.039062 73.078125 C 82.179688 73.886719 82.207031 74.671875 82 75.222656 L 81.980469 75.273438 L 82.015625 75.316406 C 82.3125 75.734375 82.585938 75.953125 82.839844 75.992188 C 83.109375 76.035156 83.316406 75.882812 83.445312 75.671875 C 83.574219 75.460938 83.648438 75.175781 83.664062 74.894531 C 83.667969 74.777344 83.664062 74.664062 83.648438 74.546875 C 84.132812 75.039062 84.496094 75.351562 84.757812 75.546875 C 84.914062 75.660156 85.039062 75.730469 85.132812 75.773438 C 85.175781 75.789062 85.222656 75.804688 85.265625 75.8125 C 85.304688 75.816406 85.351562 75.8125 85.394531 75.789062 L 85.285156 75.605469 C 85.296875 75.601562 85.300781 75.597656 85.300781 75.601562 L 85.292969 75.601562 C 85.097656 75.519531 84.988281 75.453125 84.882812 75.375 C 84.585938 75.15625 84.140625 74.761719 83.503906 74.085938 L 83.332031 74.207031 C 83.421875 74.382812 83.464844 74.628906 83.449219 74.882812 C 83.4375 75.140625 83.371094 75.390625 83.265625 75.5625 C 83.160156 75.730469 83.027344 75.808594 82.875 75.785156 C 82.714844 75.757812 82.492188 75.613281 82.21875 75.238281 C 82.425781 74.640625 82.382812 73.832031 82.246094 73.039062 C 82.242188 72.996094 82.230469 72.949219 82.222656 72.902344 C 82.347656 73.097656 82.523438 73.320312 82.75 73.574219 L 82.910156 73.433594 C 82.527344 73 82.3125 72.683594 82.21875 72.453125 C 82.117188 72.226562 82.152344 72.125 82.199219 72.074219 C 82.261719 72.011719 82.390625 71.972656 82.589844 71.980469 C 82.78125 71.984375 83.011719 72.03125 83.234375 72.089844 L 83.292969 71.886719 C 83.066406 71.820312 82.832031 71.78125 82.59375 71.769531 C 82.386719 71.761719 82.171875 71.792969 82.046875 71.921875 C 82.03125 71.941406 82.019531 71.957031 82.007812 71.972656 C 81.898438 71.578125 81.769531 71.1875 81.625 70.804688 L 81.425781 70.878906 C 81.648438 71.460938 81.898438 72.269531 82.039062 73.078125 M 80.5 73.453125 C 80.359375 73.226562 80.210938 73.003906 80.0625 72.785156 L 79.886719 72.910156 C 80.027344 73.113281 80.167969 73.328125 80.3125 73.554688 C 80.640625 74.0625 80.996094 74.617188 81.457031 75.164062 L 81.621094 75.027344 C 81.167969 74.488281 80.824219 73.957031 80.5 73.453125 M 80.5 73.453125 "/>
<path style=" stroke:none;fill-rule:nonzero;fill:rgb(24.313726%,46.666667%,95.686275%);fill-opacity:1;" d="M 79.921875 80.511719 L 87.664062 79.5 C 88.058594 82.777344 88.789062 88.863281 89.136719 91.84375 C 85.304688 89.378906 82.195312 85.9375 80.128906 81.867188 Z M 79.921875 80.511719 "/>
<path style=" stroke:none;fill-rule:nonzero;fill:rgb(14.509805%,18.82353%,21.176471%);fill-opacity:1;" d="M 112.632812 103.390625 C 112.734375 102.8125 112.347656 102.257812 111.769531 102.15625 L 84.101562 97.273438 C 83.722656 97.191406 83.328125 97.324219 83.074219 97.621094 C 82.820312 97.914062 82.746094 98.328125 82.882812 98.691406 C 83.023438 99.054688 83.347656 99.316406 83.734375 99.371094 L 111.402344 104.257812 C 111.980469 104.359375 112.53125 103.972656 112.632812 103.390625 M 121.511719 111.890625 C 121.613281 111.3125 121.226562 110.757812 120.648438 110.65625 L 72.4375 102.140625 C 71.863281 102.042969 71.316406 102.429688 71.214844 103.007812 C 71.113281 103.582031 71.496094 104.136719 72.070312 104.238281 L 120.277344 112.757812 C 120.855469 112.855469 121.40625 112.46875 121.511719 111.890625 M 121.511719 111.890625 "/>
<path style=" stroke:none;fill-rule:nonzero;fill:rgb(98.823529%,74.901962%,73.725492%);fill-opacity:1;" d="M 71.316406 71.25 C 60.886719 80.828125 51.097656 88.488281 47.265625 87.328125 C 42.472656 85.875 40.640625 81.113281 40.117188 77.574219 C 42.425781 77.308594 46.484375 76.488281 48.488281 74.878906 C 48.488281 74.878906 48.546875 77.191406 48.96875 78.585938 C 54.925781 73.578125 54.503906 75.28125 68.335938 67.820312 C 68.976562 66.257812 70.507812 62.703125 72.378906 62.703125 L 73.445312 63.128906 C 75.359375 61.636719 78.464844 59.355469 78.976562 60.035156 C 79.445312 60.660156 78.089844 62.425781 76.578125 63.660156 C 76.984375 64.078125 77.507812 64.902344 77.226562 65.578125 C 77.441406 66.222656 77.742188 67.539062 77.226562 67.710938 C 77.527344 68.496094 77.53125 70.144531 75.144531 70.484375 C 74.023438 70.644531 72.628906 70.9375 71.316406 71.25 M 71.316406 71.25 "/>
<path style=" stroke:none;fill-rule:evenodd;fill:rgb(14.509805%,18.82353%,21.176471%);fill-opacity:1;" d="M 46.703125 61.898438 C 47.417969 62.433594 47.746094 63.269531 48.015625 64.261719 C 48.28125 65.261719 48.496094 66.445312 48.660156 67.671875 C 48.996094 70.121094 49.144531 72.75 49.179688 74.425781 L 49.183594 74.511719 L 49.125 74.574219 C 48.328125 75.445312 46.984375 76.105469 45.546875 76.601562 C 43.425781 77.328125 41.027344 77.710938 39.625 77.839844 C 40.964844 77.289062 43.332031 76.910156 45.410156 76.199219 C 46.796875 75.722656 48.023438 75.109375 48.753906 74.347656 C 48.714844 72.679688 48.566406 70.113281 48.242188 67.726562 C 48.078125 66.511719 47.867188 65.347656 47.601562 64.375 C 47.339844 63.390625 47.027344 62.632812 46.675781 62.199219 M 46.707031 61.898438 "/>
<path style=" stroke:none;fill-rule:nonzero;fill:rgb(24.313726%,46.666667%,95.686275%);fill-opacity:1;" d="M 167.730469 89.355469 C 173.175781 91.914062 175.675781 109.75 176.242188 118.351562 L 171.136719 140.523438 C 167.800781 135.90625 161.855469 125.003906 164.75 118.351562 C 167.644531 111.699219 167.941406 96.25 167.730469 89.355469 M 177.519531 153.957031 L 171.132812 153.957031 C 172.460938 152.480469 174.402344 142.609375 175.46875 136.261719 C 180.289062 134.34375 180.710938 129.015625 186.1875 121.765625 C 187.359375 126.714844 187.523438 131.761719 185.183594 135.195312 C 180.414062 142.1875 178.085938 150.621094 177.519531 153.957031 M 177.519531 153.957031 "/>
<g clip-path="url(#clip4)" clip-rule="nonzero">
<path style=" stroke:none;fill-rule:nonzero;fill:rgb(45.882353%,61.56863%,96.078432%);fill-opacity:1;" d="M 157.9375 137.328125 C 157.597656 133.066406 152.972656 125.742188 150.703125 122.617188 C 154.484375 123.191406 158.324219 126.605469 161.132812 130.464844 C 160.5625 123.085938 158.832031 107.734375 156.449219 105.34375 C 158.4375 104.992188 163.003906 106.113281 165.386719 113.449219 C 168.367188 122.617188 166.878906 129.863281 168.367188 132.425781 C 168.746094 133.066406 169.238281 134.46875 169.769531 136.261719 C 170.226562 131.710938 171.6875 121.933594 173.902344 119.203125 C 176.113281 116.476562 183.621094 106.269531 187.097656 101.507812 C 188.160156 106.839844 187.84375 109.398438 179.859375 123.894531 C 176.242188 130.464844 176.753906 149.054688 173.261719 153.105469 L 169.007812 153.746094 L 163.683594 153.746094 C 161.984375 152.253906 158.367188 142.65625 157.9375 137.328125 M 157.9375 137.328125 "/>
</g>
<g clip-path="url(#clip5)" clip-rule="nonzero">
<path style=" stroke:none;fill-rule:nonzero;fill:rgb(14.509805%,18.82353%,21.176471%);fill-opacity:1;" d="M 157.492188 154.71875 C 157.394531 154.214844 157.523438 153.695312 157.847656 153.300781 C 158.167969 152.90625 158.652344 152.679688 159.160156 152.679688 L 182.292969 152.679688 C 182.796875 152.679688 183.273438 152.902344 183.597656 153.289062 C 183.921875 153.679688 184.058594 154.191406 183.96875 154.6875 L 179.886719 177.289062 C 179.738281 178.101562 179.035156 178.691406 178.210938 178.691406 L 163.648438 178.691406 C 162.839844 178.691406 162.140625 178.113281 161.984375 177.316406 Z M 157.492188 154.71875 "/>
</g>
</g>
</svg>
