<svg xmlns="http://www.w3.org/2000/svg" width="px" height="px" viewBox="0 0 141 31"><path d="M7.11 3.266c.722 0 1.347.078 1.882.226.543.149.961.363 1.262.637q.462.417.46.992c0 .254-.081.492-.237.723q-.224.328-.668.328-.299 0-.496-.082a1.5 1.5 0 0 1-.356-.223 1.5 1.5 0 0 0-.363-.25q-.193-.117-.59-.176a3.6 3.6 0 0 0-.578-.07q-.968-.002-1.649.426c-.449.277-.797.652-1.035 1.133q-.368.708-.367 1.652-.001.913.367 1.633.374.719 1.035 1.144.658.415 1.52.414.467 0 .812-.058.357-.058.579-.168c.18-.098.335-.207.472-.317q.21-.18.637-.18c.328 0 .578.11.754.321q.27.309.27.77.001.473-.532.87-.528.394-1.402.63a7.3 7.3 0 0 1-1.883.234q-1.499.001-2.606-.695a4.65 4.65 0 0 1-1.707-1.903q-.602-1.206-.601-2.695-.002-1.565.637-2.762a4.7 4.7 0 0 1 1.765-1.867q1.142-.686 2.617-.687M22.375 8.582q-.002 1.56-.695 2.766a5.06 5.06 0 0 1-1.875 1.867q-1.166.66-2.617.66c-.965 0-1.844-.219-2.625-.66a5.06 5.06 0 0 1-1.864-1.867q-.696-1.207-.695-2.766-.001-1.565.695-2.762a5.06 5.06 0 0 1 1.864-1.867c.78-.457 1.66-.687 2.624-.687q1.453 0 2.618.687A5.06 5.06 0 0 1 21.68 5.82c.46.797.695 1.72.695 2.762m-2.29 0q0-.978-.386-1.687a2.9 2.9 0 0 0-1.05-1.125 2.77 2.77 0 0 0-1.462-.399c-.535 0-1.019.133-1.46.399q-.662.404-1.047 1.125-.387.708-.387 1.687 0 .96.387 1.68.386.709 1.047 1.11t1.46.401c.536 0 1.02-.132 1.461-.402a2.9 2.9 0 0 0 1.051-1.11q.387-.719.387-1.679M29.734 3.266c1.02 0 1.774.246 2.25.734.489.488.805 1.121.957 1.902l-.32-.18.156-.292c.145-.301.38-.617.692-.946a4.6 4.6 0 0 1 1.156-.863c.453-.234.96-.355 1.52-.355q1.376.001 2.085.593c.477.395.805.918.977 1.582q.272.984.273 2.184v4.89q-.002.5-.332.84-.314.333-.812.332a1.1 1.1 0 0 1-.824-.332 1.2 1.2 0 0 1-.317-.84v-4.89c0-.426-.054-.8-.156-1.133a1.6 1.6 0 0 0-.55-.816q-.404-.305-1.145-.305c-.48 0-.89.102-1.239.305a2 2 0 0 0-.777.816 2.5 2.5 0 0 0-.246 1.133v4.89c0 .333-.113.614-.328.84a1.12 1.12 0 0 1-.828.332 1.1 1.1 0 0 1-.824-.332 1.2 1.2 0 0 1-.317-.84v-4.89c0-.426-.055-.8-.152-1.133a1.62 1.62 0 0 0-.555-.816c-.27-.203-.648-.305-1.144-.305q-.72 0-1.235.305c-.347.207-.61.48-.777.816-.168.332-.25.707-.25 1.133v4.89q0 .5-.328.84a1.12 1.12 0 0 1-.824.332c-.332 0-.61-.109-.825-.332a1.17 1.17 0 0 1-.32-.84v-7.89q-.001-.505.32-.84a1.1 1.1 0 0 1 .825-.328q.49 0 .824.328.327.335.328.84v.816l-.293-.058q.175-.32.48-.688A4 4 0 0 1 27.602 4q.434-.33.968-.531.538-.201 1.164-.203M47.316 3.266q1.53.001 2.25.734.732.731.954 1.902l-.317-.18.152-.292q.225-.452.696-.946.481-.505 1.156-.863c.453-.234.961-.355 1.52-.355q1.377.001 2.086.593c.476.395.804.918.976 1.582q.27.984.27 2.184v4.89q0 .5-.329.84c-.21.223-.484.332-.812.332q-.497.001-.824-.332a1.17 1.17 0 0 1-.32-.84v-4.89c0-.426-.051-.8-.153-1.133a1.6 1.6 0 0 0-.555-.816c-.265-.203-.648-.305-1.14-.305q-.721 0-1.239.305a2 2 0 0 0-.777.816 2.5 2.5 0 0 0-.246 1.133v4.89q-.002.5-.332.84a1.1 1.1 0 0 1-.824.332 1.1 1.1 0 0 1-.824-.332 1.2 1.2 0 0 1-.317-.84v-4.89c0-.426-.054-.8-.156-1.133a1.6 1.6 0 0 0-.55-.816q-.404-.305-1.145-.305-.718 0-1.239.305a2 2 0 0 0-.777.816 2.5 2.5 0 0 0-.246 1.133v4.89c0 .333-.113.614-.328.84a1.12 1.12 0 0 1-.828.332 1.1 1.1 0 0 1-.825-.332 1.2 1.2 0 0 1-.316-.84v-7.89q0-.505.316-.84.331-.328.825-.328c.332 0 .605.11.828.328.215.223.328.504.328.84v.816l-.293-.058c.117-.215.273-.442.48-.688q.308-.377.743-.695.434-.33.968-.531.538-.201 1.164-.203m0 0" style="stroke:none;fill-rule:nonzero;fill:#ff7714;fill-opacity:1"/><path d="M67.098 3.977q.245 0 .41.175.166.17.168.391v5.398q-.002 1.893-1.074 2.883c-.707.66-1.668.992-2.875.992q-1.793-.001-2.852-.992-1.06-.99-1.059-2.883V4.543q0-.221.153-.39a.54.54 0 0 1 .414-.176.52.52 0 0 1 .41.175q.165.17.164.391v5.398c0 .914.242 1.614.73 2.09.497.485 1.176.723 2.04.723.878 0 1.566-.238 2.062-.723.496-.476.742-1.176.742-2.09V4.543q0-.221.153-.39a.52.52 0 0 1 .414-.176M75.262 3.68c.84 0 1.511.172 2.011.507q.755.51 1.086 1.383.34.864.34 1.914v5.625a.56.56 0 0 1-.176.41.56.56 0 0 1-.398.168q-.274.001-.426-.167a.6.6 0 0 1-.152-.41V7.542q0-.75-.246-1.383a2.13 2.13 0 0 0-.817-1.015q-.554-.389-1.472-.391c-.551 0-1.067.133-1.555.39-.488.254-.883.59-1.187 1.016a2.3 2.3 0 0 0-.461 1.383v5.566a.56.56 0 0 1-.176.41.55.55 0 0 1-.403.168.52.52 0 0 1-.41-.167.6.6 0 0 1-.156-.41V4.542q-.002-.221.156-.39a.54.54 0 0 1 .41-.176q.258 0 .415.175.164.17.164.391v1.605l-.438.688q.038-.603.39-1.172c.235-.379.536-.715.907-1.016a4.5 4.5 0 0 1 1.227-.707 3.8 3.8 0 0 1 1.367-.261M82.793 13.11a.56.56 0 0 1-.176.41.53.53 0 0 1-.398.168.55.55 0 0 1-.414-.168.6.6 0 0 1-.153-.41V4.315q0-.234.153-.398a.53.53 0 0 1 .414-.18q.245 0 .41.18.165.165.164.398Zm-.574-10.645q-.404 0-.602-.18c-.137-.12-.199-.3-.199-.531v-.188c0-.226.07-.402.21-.52.15-.124.352-.19.614-.19.235 0 .418.066.551.19.133.118.203.294.203.52v.188c0 .23-.07.41-.203.531q-.2.18-.574.18M93.754-.465c.168 0 .3.055.414.164q.165.155.164.414V13.11a.56.56 0 0 1-.176.41.55.55 0 0 1-.402.168.55.55 0 0 1-.41-.167.6.6 0 0 1-.153-.41v-2.27l.317-.274q0 .533-.281 1.125a3.8 3.8 0 0 1-.813 1.075 4.2 4.2 0 0 1-1.227.804 3.7 3.7 0 0 1-1.496.305 4.14 4.14 0 0 1-2.296-.66 4.77 4.77 0 0 1-1.614-1.82q-.59-1.144-.59-2.622 0-1.453.59-2.613.6-1.155 1.602-1.816c.672-.442 1.441-.664 2.297-.664.52 0 1.011.101 1.484.297.473.187.887.449 1.25.777q.541.497.86 1.137.316.638.316 1.332l-.399-.293V.113q0-.233.153-.402a.54.54 0 0 1 .41-.176m-3.957 13.278c.683 0 1.277-.176 1.793-.532a3.74 3.74 0 0 0 1.222-1.43c.297-.605.45-1.3.45-2.078 0-.761-.153-1.449-.45-2.058a3.6 3.6 0 0 0-1.234-1.43 3.1 3.1 0 0 0-1.781-.531 3.14 3.14 0 0 0-1.79.531 3.57 3.57 0 0 0-1.237 1.43q-.45.916-.45 2.058c0 .762.149 1.454.45 2.067a3.6 3.6 0 0 0 1.238 1.441 3.1 3.1 0 0 0 1.789.531M105.313 3.918q.245 0 .41.176.164.169.164.414v8.601a.56.56 0 0 1-.176.41.53.53 0 0 1-.398.168.55.55 0 0 1-.415-.167.6.6 0 0 1-.152-.41v-2.27l.317-.152q0 .527-.293 1.085a4 4 0 0 1-.813 1.04c-.34.316-.742.574-1.215.769-.465.191-.96.293-1.496.293-.867 0-1.637-.219-2.32-.66q-1.015-.674-1.602-1.844c-.386-.781-.578-1.652-.578-2.621q-.001-1.488.59-2.625a4.7 4.7 0 0 1 1.602-1.797q1.012-.647 2.296-.648.813.001 1.532.297c.476.187.894.449 1.25.777q.54.497.836 1.137.293.638.293 1.332l-.399-.293V4.508q0-.245.152-.414a.54.54 0 0 1 .415-.176m-3.961 8.895q1.002.001 1.78-.532.785-.533 1.235-1.453.45-.933.45-2.078 0-1.123-.45-2.023a3.7 3.7 0 0 0-1.234-1.43 3.06 3.06 0 0 0-1.781-.543c-.668 0-1.266.176-1.79.52q-.79.51-1.238 1.417c-.3.602-.445 1.286-.445 2.059 0 .762.144 1.457.445 2.078a3.64 3.64 0 0 0 1.227 1.453q.786.533 1.8.531M116.867-.465q.246 0 .41.164.167.155.168.414V13.11a.55.55 0 0 1-.18.41.53.53 0 0 1-.398.168.55.55 0 0 1-.414-.167.6.6 0 0 1-.152-.41v-2.27l.316-.274q0 .533-.281 1.125-.284.579-.813 1.075a4.2 4.2 0 0 1-1.226.804q-.695.305-1.496.305a4.14 4.14 0 0 1-2.297-.66q-1.012-.674-1.613-1.82-.591-1.144-.59-2.622-.001-1.453.59-2.613.601-1.155 1.601-1.816 1.014-.664 2.297-.664.781.001 1.484.297c.473.187.887.449 1.25.777q.542.497.86 1.137c.21.425.32.87.32 1.332l-.402-.293V.113q0-.233.152-.402a.55.55 0 0 1 .414-.176m-3.96 13.278q1.024.001 1.792-.532c.52-.355.926-.832 1.227-1.43q.445-.91.445-2.078 0-1.143-.445-2.058a3.6 3.6 0 0 0-1.239-1.43 3.1 3.1 0 0 0-1.78-.531 3.14 3.14 0 0 0-1.79.531 3.57 3.57 0 0 0-1.238 1.43c-.3.61-.445 1.297-.445 2.058 0 .762.144 1.454.445 2.067a3.6 3.6 0 0 0 1.238 1.441 3.1 3.1 0 0 0 1.79.531M124.84 13.875c-.985 0-1.848-.207-2.602-.625a4.6 4.6 0 0 1-1.758-1.762q-.626-1.131-.625-2.644.002-1.617.637-2.766.646-1.154 1.66-1.773a4.1 4.1 0 0 1 2.168-.625q.838.001 1.63.297a4 4 0 0 1 1.413.886c.414.387.742.86.989 1.43q.374.84.41 1.95a.56.56 0 0 1-.188.386.53.53 0 0 1-.398.168h-7.649l-.222-1.04h7.504l-.246.235v-.39c-.047-.594-.235-1.106-.567-1.524a3.14 3.14 0 0 0-1.203-.957 3.45 3.45 0 0 0-1.473-.332c-.375 0-.765.082-1.164.238q-.601.225-1.097.72a3.7 3.7 0 0 0-.79 1.241c-.207.496-.304 1.094-.304 1.785q0 1.124.457 2.043a3.6 3.6 0 0 0 1.32 1.465q.873.533 2.074.531c.45 0 .848-.062 1.204-.187q.537-.201.94-.508c.267-.215.485-.433.661-.664a.66.66 0 0 1 .422-.176q.19 0 .332.153.14.156.14.343 0 .239-.187.403-.567.686-1.484 1.191a4.1 4.1 0 0 1-2.004.508M130.652 12.14a.76.76 0 0 1-.14-.449q.011-.221.238-.355a.43.43 0 0 1 .352-.106.6.6 0 0 1 .378.176q.501.676 1.235 1.086c.496.278 1.078.414 1.758.414q.526 0 1.047-.176a2.2 2.2 0 0 0 .87-.554c.227-.254.344-.57.344-.957 0-.395-.117-.715-.343-.957a2.3 2.3 0 0 0-.883-.567 9 9 0 0 0-1.156-.367c-.43-.117-.852-.25-1.258-.39a4.5 4.5 0 0 1-1.086-.555 2.9 2.9 0 0 1-.754-.817q-.281-.48-.281-1.168 0-.802.433-1.406.45-.61 1.203-.957c.5-.238 1.075-.355 1.707-.355q.47 0 1.028.129.552.122 1.082.414.54.285.957.78a.56.56 0 0 1 .176.403c0 .14-.067.27-.188.375a.56.56 0 0 1-.355.121.4.4 0 0 1-.328-.156 2.94 2.94 0 0 0-1.098-.777 3.4 3.4 0 0 0-1.356-.274c-.37 0-.714.067-1.035.192q-.486.177-.812.543-.321.352-.32.957c.023.363.156.66.39.898q.35.345.93.578c.39.149.828.29 1.308.414q.611.153 1.18.364.562.203.988.52.422.322.684.804.258.474.258 1.195-.002.85-.473 1.465a3 3 0 0 1-1.246.934q-.78.316-1.734.316c-.68 0-1.348-.137-1.989-.402q-.967-.4-1.71-1.332m0 0" style="stroke:none;fill-rule:nonzero;fill:#f8faf0;fill-opacity:1"/><path d="M34.426 23.957v-1.96c0-.032.011-.052.047-.052h.199c.027 0 .047.02.047.051v1.961a.86.86 0 0 1-.094.41.6.6 0 0 1-.246.262.8.8 0 0 1-.39.094.76.76 0 0 1-.352-.082.63.63 0 0 1-.25-.235q-.036-.057 0-.086l.14-.129q.012-.005.035 0 .024 0 .036.024c.039.07.097.129.168.168q.105.047.222.047.129 0 .223-.063a.35.35 0 0 0 .156-.164.55.55 0 0 0 .059-.246M38.613 21.996v1.606c0 .113.016.218.059.32q.07.151.176.27.117.105.257.175a.9.9 0 0 0 .333.063.75.75 0 0 0 .316-.063.9.9 0 0 0 .262-.176.9.9 0 0 0 .175-.27.75.75 0 0 0 .07-.32v-1.605q0-.048.048-.05h.199q.047.002.047.05v1.606q0 .248-.082.449a1.04 1.04 0 0 1-.59.59 1.2 1.2 0 0 1-.446.082q-.239 0-.449-.082a1 1 0 0 1-.351-.235 1 1 0 0 1-.239-.355 1.3 1.3 0 0 1-.082-.461v-1.594q0-.048.047-.05h.215q.035.002.035.05M46.5 21.945c.031 0 .047.02.047.051v2.656q0 .03-.024.035-.011.024-.035.024a.1.1 0 0 1-.047-.012c-.007-.008-.015-.015-.023-.035l-1.906-2.066v2.043q0 .046-.035.047h-.215q-.047 0-.047-.047v-2.657q0-.022.012-.039c.007-.004.02-.011.035-.011s.027.007.035.011a.4.4 0 0 1 .047.04l1.898 2.066v-2.055q0-.048.047-.05ZM49.984 22.16v-.152q0-.047.063-.047h1.836q.047 0 .047.047v.152c0 .043-.016.059-.047.059h-.778v2.41c0 .043-.02.058-.058.058h-.188c-.035 0-.047-.015-.047-.058v-2.41h-.765c-.043 0-.063-.016-.063-.059M55.176 23.328q0-.233.07-.45c.047-.14.11-.269.2-.386a1.244 1.244 0 0 1 .695-.496q.21-.075.449-.074a1.3 1.3 0 0 1 .445.074q.21.06.38.188a1.427 1.427 0 0 1 .304 1.984q-.13.168-.305.297-.169.117-.379.187t-.445.07q-.24 0-.45-.07t-.39-.187a1.5 1.5 0 0 1-.305-.297 1.3 1.3 0 0 1-.199-.39q-.07-.21-.07-.45m.304 0q0 .192.047.356.06.168.153.308.107.129.25.235c.093.066.191.117.304.156a1.3 1.3 0 0 0 .696 0q.175-.059.304-.156a1.13 1.13 0 0 0 .403-.543q.058-.164.058-.356c0-.121-.02-.242-.058-.351a1.3 1.3 0 0 0-.164-.309.9.9 0 0 0-.239-.238.8.8 0 0 0-.304-.153 1.044 1.044 0 0 0-.695 0 .9.9 0 0 0-.305.153q-.143.098-.25.238c-.063.094-.114.2-.153.309-.03.109-.047.23-.047.351M62.3 24.723q-.134 0-.284-.035a1.3 1.3 0 0 1-.27-.094 1.2 1.2 0 0 1-.238-.14 1 1 0 0 1-.164-.192q-.012-.006-.012-.035 0-.036.023-.047l.118-.13q.045-.035.097.024c.051.07.117.137.2.188a.856.856 0 0 0 .52.18q.303 0 .468-.133a.44.44 0 0 0 .176-.364.3.3 0 0 0-.059-.18.5.5 0 0 0-.14-.14 1.2 1.2 0 0 0-.223-.105q-.117-.059-.258-.122a2.4 2.4 0 0 1-.332-.128 2 2 0 0 1-.258-.153.7.7 0 0 1-.168-.215.6.6 0 0 1-.059-.28q0-.212.11-.368a.7.7 0 0 1 .293-.234q.198-.096.46-.098c.098 0 .2.012.294.039q.14.035.258.105.116.07.203.153c.023.043.023.07 0 .093l-.11.118q-.022.04-.047.039a.3.3 0 0 1-.058-.04.5.5 0 0 0-.153-.116.74.74 0 0 0-.398-.106q-.168 0-.297.059a.45.45 0 0 0-.199.14.4.4 0 0 0-.059.215c0 .07.016.137.047.188.04.058.086.105.153.144q.093.06.21.117.117.048.25.094c.11.043.215.082.317.129q.151.064.273.156c.075.055.141.125.188.211.047.078.07.176.07.285a.75.75 0 0 1-.117.41.76.76 0 0 1-.332.274c-.133.062-.3.094-.492.094M72.926 24.629c.008.02.008.031 0 .047q-.012.012-.047.012h-.211a.1.1 0 0 1-.035-.012q-.012-.006-.024-.035l-.14-.344h-1.52l-.14.344-.024.035a.06.06 0 0 1-.035.012h-.215q-.035 0-.047-.012-.012-.024 0-.059l1.145-2.633a.075.075 0 0 1 .07-.05h.012c.015 0 .027.007.035.011a.1.1 0 0 1 .035.04Zm-1.86-.602h1.297l-.648-1.558ZM78.969 23.328q0 .227-.059.426a1.4 1.4 0 0 1-.176.367q-.121.169-.285.297a1.5 1.5 0 0 1-.34.21 1.7 1.7 0 0 1-.414.095v.414q0 .058-.047.058h-.175c-.043 0-.059-.02-.059-.058v-.414a1.7 1.7 0 0 1-.402-.094 1.413 1.413 0 0 1-.625-.508 2 2 0 0 1-.176-.367 1.5 1.5 0 0 1 .012-.875q.07-.21.203-.387c.082-.12.187-.219.304-.308q.177-.13.387-.188c.145-.05.29-.074.45-.074q.233-.001.449.074.21.06.375.188c.117.09.218.187.308.308.082.117.153.246.2.387q.07.215.07.45m-1.403 1.102q.175 0 .344-.047a1.07 1.07 0 0 0 .54-.39 1.2 1.2 0 0 0 .167-.31c.035-.109.059-.226.059-.355 0-.121-.024-.242-.059-.351a1.3 1.3 0 0 0-.168-.309.9.9 0 0 0-.234-.238.8.8 0 0 0-.305-.153 1.04 1.04 0 0 0-.695 0 .9.9 0 0 0-.309.153 1.1 1.1 0 0 0-.246.238c-.066.094-.117.2-.152.309s-.047.23-.047.351a1.084 1.084 0 0 0 .2.664q.105.129.245.235.14.098.309.156c.105.031.226.047.351.047M82.723 21.996v1.606q0 .168.058.32c.047.101.11.191.18.27.074.07.164.128.258.175q.151.064.328.063.18 0 .32-.063a1 1 0 0 0 .258-.176.8.8 0 0 0 .176-.27.7.7 0 0 0 .074-.32v-1.605c0-.031.012-.05.047-.05h.2c.026 0 .046.019.046.05v1.606c0 .164-.031.316-.082.449a1.1 1.1 0 0 1-.234.355q-.158.153-.356.235a1.2 1.2 0 0 1-.45.082q-.233 0-.444-.082a1.04 1.04 0 0 1-.59-.59 1.3 1.3 0 0 1-.082-.461v-1.594q0-.048.047-.05h.21q.036.002.036.05M88.422 21.71c-.02.02-.031.032-.047.036h-.14100000000000001a.04.04 0 0 1-.035-.035c0-.016.004-.031.024-.047l.468-.379q.012-.023.036-.023c.015-.004.03-.012.046-.012h.133c.012 0 .024.012.024.035.004.02 0 .031-.012.047Zm.2.286v2.645q0 .046-.048.047h-.21q-.036 0-.036-.047v-2.645q0-.048.035-.05h.211q.047.002.047.05m0 0" style="stroke:none;fill-rule:nonzero;fill:#f3f5f9;fill-opacity:1"/></svg>