<svg version="1.2" preserveAspectRatio="xMidYMid meet" viewBox="97.5 165.749996022 186.75 41.24999901" zoomAndPan="magnify" xmlns:xlink="http://www.w3.org/1999/xlink" xmlns="http://www.w3.org/2000/svg" style="max-height: 500px" width="186.75" height="41.24999901"><metadata>Yes</metadata><defs/><g id="59185361b5"><g style="fill:#ff7714;fill-opacity:1;"><g transform="translate(99.256295, 183.851825)"><path d="M 7.671875 -13.78125 C 8.628906 -13.78125 9.460938 -13.679688 10.171875 -13.484375 C 10.890625 -13.285156 11.445312 -13.003906 11.84375 -12.640625 C 12.25 -12.273438 12.453125 -11.835938 12.453125 -11.328125 C 12.453125 -10.992188 12.347656 -10.675781 12.140625 -10.375 C 11.941406 -10.082031 11.644531 -9.9375 11.25 -9.9375 C 10.988281 -9.9375 10.769531 -9.972656 10.59375 -10.046875 C 10.414062 -10.128906 10.257812 -10.226562 10.125 -10.34375 C 9.988281 -10.46875 9.828125 -10.578125 9.640625 -10.671875 C 9.472656 -10.773438 9.210938 -10.851562 8.859375 -10.90625 C 8.515625 -10.96875 8.257812 -11 8.09375 -11 C 7.238281 -11 6.507812 -10.8125 5.90625 -10.4375 C 5.3125 -10.070312 4.851562 -9.570312 4.53125 -8.9375 C 4.207031 -8.3125 4.046875 -7.582031 4.046875 -6.75 C 4.046875 -5.945312 4.207031 -5.226562 4.53125 -4.59375 C 4.863281 -3.957031 5.320312 -3.453125 5.90625 -3.078125 C 6.488281 -2.710938 7.160156 -2.53125 7.921875 -2.53125 C 8.335938 -2.53125 8.695312 -2.554688 9 -2.609375 C 9.3125 -2.660156 9.566406 -2.734375 9.765625 -2.828125 C 10.003906 -2.960938 10.210938 -3.101562 10.390625 -3.25 C 10.578125 -3.40625 10.859375 -3.484375 11.234375 -3.484375 C 11.671875 -3.484375 12.003906 -3.34375 12.234375 -3.0625 C 12.472656 -2.789062 12.59375 -2.453125 12.59375 -2.046875 C 12.59375 -1.628906 12.359375 -1.242188 11.890625 -0.890625 C 11.421875 -0.546875 10.800781 -0.269531 10.03125 -0.0625 C 9.257812 0.144531 8.425781 0.25 7.53125 0.25 C 6.207031 0.25 5.054688 -0.0546875 4.078125 -0.671875 C 3.097656 -1.285156 2.34375 -2.125 1.8125 -3.1875 C 1.28125 -4.25 1.015625 -5.4375 1.015625 -6.75 C 1.015625 -8.132812 1.296875 -9.351562 1.859375 -10.40625 C 2.421875 -11.457031 3.203125 -12.28125 4.203125 -12.875 C 5.210938 -13.476562 6.367188 -13.78125 7.671875 -13.78125 Z M 7.671875 -13.78125" style="stroke:none"/></g></g><g style="fill:#ff7714;fill-opacity:1;"><g transform="translate(112.406632, 183.851825)"><path d="M 14.765625 -6.75 C 14.765625 -5.375 14.457031 -4.15625 13.84375 -3.09375 C 13.226562 -2.039062 12.398438 -1.21875 11.359375 -0.625 C 10.328125 -0.0390625 9.171875 0.25 7.890625 0.25 C 6.609375 0.25 5.445312 -0.0390625 4.40625 -0.625 C 3.375 -1.21875 2.550781 -2.039062 1.9375 -3.09375 C 1.320312 -4.15625 1.015625 -5.375 1.015625 -6.75 C 1.015625 -8.132812 1.320312 -9.351562 1.9375 -10.40625 C 2.550781 -11.457031 3.375 -12.28125 4.40625 -12.875 C 5.445312 -13.476562 6.609375 -13.78125 7.890625 -13.78125 C 9.171875 -13.78125 10.328125 -13.476562 11.359375 -12.875 C 12.398438 -12.28125 13.226562 -11.457031 13.84375 -10.40625 C 14.457031 -9.351562 14.765625 -8.132812 14.765625 -6.75 Z M 11.734375 -6.75 C 11.734375 -7.613281 11.5625 -8.359375 11.21875 -8.984375 C 10.875 -9.617188 10.410156 -10.113281 9.828125 -10.46875 C 9.242188 -10.820312 8.597656 -11 7.890625 -11 C 7.179688 -11 6.535156 -10.820312 5.953125 -10.46875 C 5.367188 -10.113281 4.90625 -9.617188 4.5625 -8.984375 C 4.21875 -8.359375 4.046875 -7.613281 4.046875 -6.75 C 4.046875 -5.90625 4.21875 -5.164062 4.5625 -4.53125 C 4.90625 -3.90625 5.367188 -3.414062 5.953125 -3.0625 C 6.535156 -2.707031 7.179688 -2.53125 7.890625 -2.53125 C 8.597656 -2.53125 9.242188 -2.707031 9.828125 -3.0625 C 10.410156 -3.414062 10.875 -3.90625 11.21875 -4.53125 C 11.5625 -5.164062 11.734375 -5.90625 11.734375 -6.75 Z M 11.734375 -6.75" style="stroke:none"/></g></g><g style="fill:#ff7714;fill-opacity:1;"><g transform="translate(128.187038, 183.851825)"><path d="M 8.75 -13.78125 C 10.101562 -13.78125 11.097656 -13.457031 11.734375 -12.8125 C 12.378906 -12.164062 12.800781 -11.328125 13 -10.296875 L 12.578125 -10.53125 L 12.78125 -10.921875 C 12.976562 -11.316406 13.285156 -11.734375 13.703125 -12.171875 C 14.128906 -12.617188 14.640625 -13 15.234375 -13.3125 C 15.835938 -13.625 16.507812 -13.78125 17.25 -13.78125 C 18.46875 -13.78125 19.390625 -13.519531 20.015625 -13 C 20.648438 -12.476562 21.082031 -11.78125 21.3125 -10.90625 C 21.550781 -10.039062 21.671875 -9.078125 21.671875 -8.015625 L 21.671875 -1.546875 C 21.671875 -1.109375 21.523438 -0.738281 21.234375 -0.4375 C 20.953125 -0.144531 20.59375 0 20.15625 0 C 19.71875 0 19.351562 -0.144531 19.0625 -0.4375 C 18.78125 -0.738281 18.640625 -1.109375 18.640625 -1.546875 L 18.640625 -8.015625 C 18.640625 -8.578125 18.570312 -9.078125 18.4375 -9.515625 C 18.300781 -9.960938 18.054688 -10.320312 17.703125 -10.59375 C 17.347656 -10.863281 16.84375 -11 16.1875 -11 C 15.550781 -11 15.003906 -10.863281 14.546875 -10.59375 C 14.085938 -10.320312 13.742188 -9.960938 13.515625 -9.515625 C 13.296875 -9.078125 13.1875 -8.578125 13.1875 -8.015625 L 13.1875 -1.546875 C 13.1875 -1.109375 13.039062 -0.738281 12.75 -0.4375 C 12.457031 -0.144531 12.09375 0 11.65625 0 C 11.21875 0 10.851562 -0.144531 10.5625 -0.4375 C 10.28125 -0.738281 10.140625 -1.109375 10.140625 -1.546875 L 10.140625 -8.015625 C 10.140625 -8.578125 10.070312 -9.078125 9.9375 -9.515625 C 9.800781 -9.960938 9.554688 -10.320312 9.203125 -10.59375 C 8.847656 -10.863281 8.34375 -11 7.6875 -11 C 7.050781 -11 6.503906 -10.863281 6.046875 -10.59375 C 5.585938 -10.320312 5.242188 -9.960938 5.015625 -9.515625 C 4.796875 -9.078125 4.6875 -8.578125 4.6875 -8.015625 L 4.6875 -1.546875 C 4.6875 -1.109375 4.539062 -0.738281 4.25 -0.4375 C 3.957031 -0.144531 3.59375 0 3.15625 0 C 2.71875 0 2.351562 -0.144531 2.0625 -0.4375 C 1.78125 -0.738281 1.640625 -1.109375 1.640625 -1.546875 L 1.640625 -11.984375 C 1.640625 -12.429688 1.78125 -12.800781 2.0625 -13.09375 C 2.351562 -13.382812 2.71875 -13.53125 3.15625 -13.53125 C 3.59375 -13.53125 3.957031 -13.382812 4.25 -13.09375 C 4.539062 -12.800781 4.6875 -12.429688 4.6875 -11.984375 L 4.6875 -10.90625 L 4.296875 -10.984375 C 4.453125 -11.265625 4.664062 -11.566406 4.9375 -11.890625 C 5.207031 -12.222656 5.535156 -12.53125 5.921875 -12.8125 C 6.304688 -13.101562 6.734375 -13.335938 7.203125 -13.515625 C 7.679688 -13.691406 8.195312 -13.78125 8.75 -13.78125 Z M 8.75 -13.78125" style="stroke:none"/></g></g><g style="fill:#ff7714;fill-opacity:1;"><g transform="translate(151.503606, 183.851825)"><path d="M 8.75 -13.78125 C 10.101562 -13.78125 11.097656 -13.457031 11.734375 -12.8125 C 12.378906 -12.164062 12.800781 -11.328125 13 -10.296875 L 12.578125 -10.53125 L 12.78125 -10.921875 C 12.976562 -11.316406 13.285156 -11.734375 13.703125 -12.171875 C 14.128906 -12.617188 14.640625 -13 15.234375 -13.3125 C 15.835938 -13.625 16.507812 -13.78125 17.25 -13.78125 C 18.46875 -13.78125 19.390625 -13.519531 20.015625 -13 C 20.648438 -12.476562 21.082031 -11.78125 21.3125 -10.90625 C 21.550781 -10.039062 21.671875 -9.078125 21.671875 -8.015625 L 21.671875 -1.546875 C 21.671875 -1.109375 21.523438 -0.738281 21.234375 -0.4375 C 20.953125 -0.144531 20.59375 0 20.15625 0 C 19.71875 0 19.351562 -0.144531 19.0625 -0.4375 C 18.78125 -0.738281 18.640625 -1.109375 18.640625 -1.546875 L 18.640625 -8.015625 C 18.640625 -8.578125 18.570312 -9.078125 18.4375 -9.515625 C 18.300781 -9.960938 18.054688 -10.320312 17.703125 -10.59375 C 17.347656 -10.863281 16.84375 -11 16.1875 -11 C 15.550781 -11 15.003906 -10.863281 14.546875 -10.59375 C 14.085938 -10.320312 13.742188 -9.960938 13.515625 -9.515625 C 13.296875 -9.078125 13.1875 -8.578125 13.1875 -8.015625 L 13.1875 -1.546875 C 13.1875 -1.109375 13.039062 -0.738281 12.75 -0.4375 C 12.457031 -0.144531 12.09375 0 11.65625 0 C 11.21875 0 10.851562 -0.144531 10.5625 -0.4375 C 10.28125 -0.738281 10.140625 -1.109375 10.140625 -1.546875 L 10.140625 -8.015625 C 10.140625 -8.578125 10.070312 -9.078125 9.9375 -9.515625 C 9.800781 -9.960938 9.554688 -10.320312 9.203125 -10.59375 C 8.847656 -10.863281 8.34375 -11 7.6875 -11 C 7.050781 -11 6.503906 -10.863281 6.046875 -10.59375 C 5.585938 -10.320312 5.242188 -9.960938 5.015625 -9.515625 C 4.796875 -9.078125 4.6875 -8.578125 4.6875 -8.015625 L 4.6875 -1.546875 C 4.6875 -1.109375 4.539062 -0.738281 4.25 -0.4375 C 3.957031 -0.144531 3.59375 0 3.15625 0 C 2.71875 0 2.351562 -0.144531 2.0625 -0.4375 C 1.78125 -0.738281 1.640625 -1.109375 1.640625 -1.546875 L 1.640625 -11.984375 C 1.640625 -12.429688 1.78125 -12.800781 2.0625 -13.09375 C 2.351562 -13.382812 2.71875 -13.53125 3.15625 -13.53125 C 3.59375 -13.53125 3.957031 -13.382812 4.25 -13.09375 C 4.539062 -12.800781 4.6875 -12.429688 4.6875 -11.984375 L 4.6875 -10.90625 L 4.296875 -10.984375 C 4.453125 -11.265625 4.664062 -11.566406 4.9375 -11.890625 C 5.207031 -12.222656 5.535156 -12.53125 5.921875 -12.8125 C 6.304688 -13.101562 6.734375 -13.335938 7.203125 -13.515625 C 7.679688 -13.691406 8.195312 -13.78125 8.75 -13.78125 Z M 8.75 -13.78125" style="stroke:none"/></g></g><g style="fill:#f8faf0;fill-opacity:1;"><g transform="translate(174.830509, 183.851825)"><path d="M 11.65625 -12.84375 C 11.875 -12.84375 12.054688 -12.765625 12.203125 -12.609375 C 12.347656 -12.460938 12.421875 -12.289062 12.421875 -12.09375 L 12.421875 -4.953125 C 12.421875 -3.285156 11.945312 -2.015625 11 -1.140625 C 10.0625 -0.265625 8.789062 0.171875 7.1875 0.171875 C 5.601562 0.171875 4.34375 -0.265625 3.40625 -1.140625 C 2.46875 -2.015625 2 -3.285156 2 -4.953125 L 2 -12.09375 C 2 -12.289062 2.066406 -12.460938 2.203125 -12.609375 C 2.347656 -12.765625 2.53125 -12.84375 2.75 -12.84375 C 2.976562 -12.84375 3.160156 -12.765625 3.296875 -12.609375 C 3.441406 -12.460938 3.515625 -12.289062 3.515625 -12.09375 L 3.515625 -4.953125 C 3.515625 -3.742188 3.835938 -2.820312 4.484375 -2.1875 C 5.140625 -1.550781 6.039062 -1.234375 7.1875 -1.234375 C 8.351562 -1.234375 9.265625 -1.550781 9.921875 -2.1875 C 10.578125 -2.820312 10.90625 -3.742188 10.90625 -4.953125 L 10.90625 -12.09375 C 10.90625 -12.289062 10.972656 -12.460938 11.109375 -12.609375 C 11.242188 -12.765625 11.425781 -12.84375 11.65625 -12.84375 Z M 11.65625 -12.84375" style="stroke:none"/></g></g><g style="fill:#f8faf0;fill-opacity:1;"><g transform="translate(189.220012, 183.851825)"><path d="M 8.09375 -13.234375 C 9.207031 -13.234375 10.097656 -13.007812 10.765625 -12.5625 C 11.429688 -12.113281 11.910156 -11.503906 12.203125 -10.734375 C 12.503906 -9.972656 12.65625 -9.128906 12.65625 -8.203125 L 12.65625 -0.765625 C 12.65625 -0.554688 12.578125 -0.375 12.421875 -0.21875 C 12.265625 -0.0703125 12.085938 0 11.890625 0 C 11.648438 0 11.460938 -0.0703125 11.328125 -0.21875 C 11.191406 -0.375 11.125 -0.554688 11.125 -0.765625 L 11.125 -8.125 C 11.125 -8.789062 11.015625 -9.398438 10.796875 -9.953125 C 10.578125 -10.515625 10.21875 -10.960938 9.71875 -11.296875 C 9.226562 -11.640625 8.578125 -11.8125 7.765625 -11.8125 C 7.035156 -11.8125 6.347656 -11.640625 5.703125 -11.296875 C 5.054688 -10.960938 4.53125 -10.515625 4.125 -9.953125 C 3.71875 -9.398438 3.515625 -8.789062 3.515625 -8.125 L 3.515625 -0.765625 C 3.515625 -0.554688 3.4375 -0.375 3.28125 -0.21875 C 3.132812 -0.0703125 2.957031 0 2.75 0 C 2.519531 0 2.335938 -0.0703125 2.203125 -0.21875 C 2.066406 -0.375 2 -0.554688 2 -0.765625 L 2 -12.09375 C 2 -12.289062 2.066406 -12.460938 2.203125 -12.609375 C 2.347656 -12.765625 2.53125 -12.84375 2.75 -12.84375 C 2.976562 -12.84375 3.160156 -12.765625 3.296875 -12.609375 C 3.441406 -12.460938 3.515625 -12.289062 3.515625 -12.09375 L 3.515625 -9.96875 L 2.9375 -9.0625 C 2.96875 -9.59375 3.140625 -10.109375 3.453125 -10.609375 C 3.765625 -11.109375 4.164062 -11.554688 4.65625 -11.953125 C 5.144531 -12.347656 5.6875 -12.660156 6.28125 -12.890625 C 6.882812 -13.117188 7.488281 -13.234375 8.09375 -13.234375 Z M 8.09375 -13.234375" style="stroke:none"/></g></g><g style="fill:#f8faf0;fill-opacity:1;"><g transform="translate(203.837126, 183.851825)"><path d="M 3.46875 -0.765625 C 3.46875 -0.554688 3.390625 -0.375 3.234375 -0.21875 C 3.085938 -0.0703125 2.910156 0 2.703125 0 C 2.484375 0 2.300781 -0.0703125 2.15625 -0.21875 C 2.019531 -0.375 1.953125 -0.554688 1.953125 -0.765625 L 1.953125 -12.390625 C 1.953125 -12.597656 2.019531 -12.773438 2.15625 -12.921875 C 2.300781 -13.078125 2.484375 -13.15625 2.703125 -13.15625 C 2.921875 -13.15625 3.101562 -13.078125 3.25 -12.921875 C 3.394531 -12.773438 3.46875 -12.597656 3.46875 -12.390625 Z M 2.703125 -14.84375 C 2.347656 -14.84375 2.082031 -14.921875 1.90625 -15.078125 C 1.726562 -15.242188 1.640625 -15.476562 1.640625 -15.78125 L 1.640625 -16.03125 C 1.640625 -16.332031 1.734375 -16.5625 1.921875 -16.71875 C 2.117188 -16.882812 2.390625 -16.96875 2.734375 -16.96875 C 3.046875 -16.96875 3.289062 -16.882812 3.46875 -16.71875 C 3.644531 -16.5625 3.734375 -16.332031 3.734375 -16.03125 L 3.734375 -15.78125 C 3.734375 -15.476562 3.644531 -15.242188 3.46875 -15.078125 C 3.289062 -14.921875 3.035156 -14.84375 2.703125 -14.84375 Z M 2.703125 -14.84375" style="stroke:none"/></g></g><g style="fill:#f8faf0;fill-opacity:1;"><g transform="translate(209.249003, 183.851825)"><path d="M 12.59375 -18.71875 C 12.8125 -18.71875 12.992188 -18.644531 13.140625 -18.5 C 13.285156 -18.363281 13.359375 -18.179688 13.359375 -17.953125 L 13.359375 -0.765625 C 13.359375 -0.554688 13.28125 -0.375 13.125 -0.21875 C 12.976562 -0.0703125 12.800781 0 12.59375 0 C 12.375 0 12.191406 -0.0703125 12.046875 -0.21875 C 11.910156 -0.375 11.84375 -0.554688 11.84375 -0.765625 L 11.84375 -3.765625 L 12.265625 -4.125 C 12.265625 -3.65625 12.140625 -3.160156 11.890625 -2.640625 C 11.640625 -2.128906 11.28125 -1.65625 10.8125 -1.21875 C 10.351562 -0.78125 9.8125 -0.425781 9.1875 -0.15625 C 8.570312 0.113281 7.910156 0.25 7.203125 0.25 C 6.078125 0.25 5.0625 -0.0390625 4.15625 -0.625 C 3.257812 -1.21875 2.546875 -2.019531 2.015625 -3.03125 C 1.492188 -4.039062 1.234375 -5.195312 1.234375 -6.5 C 1.234375 -7.78125 1.492188 -8.929688 2.015625 -9.953125 C 2.546875 -10.972656 3.253906 -11.773438 4.140625 -12.359375 C 5.035156 -12.941406 6.050781 -13.234375 7.1875 -13.234375 C 7.875 -13.234375 8.53125 -13.101562 9.15625 -12.84375 C 9.78125 -12.59375 10.332031 -12.25 10.8125 -11.8125 C 11.289062 -11.375 11.671875 -10.875 11.953125 -10.3125 C 12.234375 -9.75 12.375 -9.160156 12.375 -8.546875 L 11.84375 -8.9375 L 11.84375 -17.953125 C 11.84375 -18.160156 11.910156 -18.335938 12.046875 -18.484375 C 12.191406 -18.640625 12.375 -18.71875 12.59375 -18.71875 Z M 7.34375 -1.15625 C 8.25 -1.15625 9.039062 -1.390625 9.71875 -1.859375 C 10.40625 -2.328125 10.945312 -2.957031 11.34375 -3.75 C 11.738281 -4.550781 11.9375 -5.46875 11.9375 -6.5 C 11.9375 -7.507812 11.738281 -8.414062 11.34375 -9.21875 C 10.945312 -10.019531 10.398438 -10.648438 9.703125 -11.109375 C 9.015625 -11.578125 8.226562 -11.8125 7.34375 -11.8125 C 6.457031 -11.8125 5.664062 -11.578125 4.96875 -11.109375 C 4.269531 -10.648438 3.722656 -10.019531 3.328125 -9.21875 C 2.929688 -8.414062 2.734375 -7.507812 2.734375 -6.5 C 2.734375 -5.488281 2.929688 -4.578125 3.328125 -3.765625 C 3.722656 -2.960938 4.269531 -2.328125 4.96875 -1.859375 C 5.664062 -1.390625 6.457031 -1.15625 7.34375 -1.15625 Z M 7.34375 -1.15625" style="stroke:none"/></g></g><g style="fill:#f8faf0;fill-opacity:1;"><g transform="translate(224.574208, 183.851825)"><path d="M 12.59375 -12.921875 C 12.8125 -12.921875 12.992188 -12.84375 13.140625 -12.6875 C 13.285156 -12.539062 13.359375 -12.359375 13.359375 -12.140625 L 13.359375 -0.765625 C 13.359375 -0.554688 13.28125 -0.375 13.125 -0.21875 C 12.976562 -0.0703125 12.800781 0 12.59375 0 C 12.375 0 12.191406 -0.0703125 12.046875 -0.21875 C 11.910156 -0.375 11.84375 -0.554688 11.84375 -0.765625 L 11.84375 -3.765625 L 12.265625 -3.96875 C 12.265625 -3.5 12.132812 -3.019531 11.875 -2.53125 C 11.613281 -2.039062 11.253906 -1.582031 10.796875 -1.15625 C 10.347656 -0.738281 9.8125 -0.398438 9.1875 -0.140625 C 8.570312 0.117188 7.910156 0.25 7.203125 0.25 C 6.054688 0.25 5.03125 -0.0390625 4.125 -0.625 C 3.226562 -1.21875 2.519531 -2.03125 2 -3.0625 C 1.488281 -4.09375 1.234375 -5.25 1.234375 -6.53125 C 1.234375 -7.84375 1.492188 -9 2.015625 -10 C 2.546875 -11.007812 3.253906 -11.800781 4.140625 -12.375 C 5.035156 -12.945312 6.050781 -13.234375 7.1875 -13.234375 C 7.90625 -13.234375 8.582031 -13.101562 9.21875 -12.84375 C 9.851562 -12.59375 10.40625 -12.25 10.875 -11.8125 C 11.351562 -11.375 11.722656 -10.875 11.984375 -10.3125 C 12.242188 -9.75 12.375 -9.160156 12.375 -8.546875 L 11.84375 -8.9375 L 11.84375 -12.140625 C 11.84375 -12.359375 11.910156 -12.539062 12.046875 -12.6875 C 12.191406 -12.84375 12.375 -12.921875 12.59375 -12.921875 Z M 7.34375 -1.15625 C 8.226562 -1.15625 9.015625 -1.390625 9.703125 -1.859375 C 10.398438 -2.328125 10.945312 -2.96875 11.34375 -3.78125 C 11.738281 -4.601562 11.9375 -5.519531 11.9375 -6.53125 C 11.9375 -7.519531 11.738281 -8.410156 11.34375 -9.203125 C 10.945312 -9.992188 10.398438 -10.625 9.703125 -11.09375 C 9.015625 -11.570312 8.226562 -11.8125 7.34375 -11.8125 C 6.457031 -11.8125 5.664062 -11.582031 4.96875 -11.125 C 4.269531 -10.675781 3.722656 -10.050781 3.328125 -9.25 C 2.929688 -8.457031 2.734375 -7.550781 2.734375 -6.53125 C 2.734375 -5.519531 2.929688 -4.601562 3.328125 -3.78125 C 3.722656 -2.96875 4.265625 -2.328125 4.953125 -1.859375 C 5.648438 -1.390625 6.445312 -1.15625 7.34375 -1.15625 Z M 7.34375 -1.15625" style="stroke:none"/></g></g><g style="fill:#f8faf0;fill-opacity:1;"><g transform="translate(239.899414, 183.851825)"><path d="M 12.59375 -18.71875 C 12.8125 -18.71875 12.992188 -18.644531 13.140625 -18.5 C 13.285156 -18.363281 13.359375 -18.179688 13.359375 -17.953125 L 13.359375 -0.765625 C 13.359375 -0.554688 13.28125 -0.375 13.125 -0.21875 C 12.976562 -0.0703125 12.800781 0 12.59375 0 C 12.375 0 12.191406 -0.0703125 12.046875 -0.21875 C 11.910156 -0.375 11.84375 -0.554688 11.84375 -0.765625 L 11.84375 -3.765625 L 12.265625 -4.125 C 12.265625 -3.65625 12.140625 -3.160156 11.890625 -2.640625 C 11.640625 -2.128906 11.28125 -1.65625 10.8125 -1.21875 C 10.351562 -0.78125 9.8125 -0.425781 9.1875 -0.15625 C 8.570312 0.113281 7.910156 0.25 7.203125 0.25 C 6.078125 0.25 5.0625 -0.0390625 4.15625 -0.625 C 3.257812 -1.21875 2.546875 -2.019531 2.015625 -3.03125 C 1.492188 -4.039062 1.234375 -5.195312 1.234375 -6.5 C 1.234375 -7.78125 1.492188 -8.929688 2.015625 -9.953125 C 2.546875 -10.972656 3.253906 -11.773438 4.140625 -12.359375 C 5.035156 -12.941406 6.050781 -13.234375 7.1875 -13.234375 C 7.875 -13.234375 8.53125 -13.101562 9.15625 -12.84375 C 9.78125 -12.59375 10.332031 -12.25 10.8125 -11.8125 C 11.289062 -11.375 11.671875 -10.875 11.953125 -10.3125 C 12.234375 -9.75 12.375 -9.160156 12.375 -8.546875 L 11.84375 -8.9375 L 11.84375 -17.953125 C 11.84375 -18.160156 11.910156 -18.335938 12.046875 -18.484375 C 12.191406 -18.640625 12.375 -18.71875 12.59375 -18.71875 Z M 7.34375 -1.15625 C 8.25 -1.15625 9.039062 -1.390625 9.71875 -1.859375 C 10.40625 -2.328125 10.945312 -2.957031 11.34375 -3.75 C 11.738281 -4.550781 11.9375 -5.46875 11.9375 -6.5 C 11.9375 -7.507812 11.738281 -8.414062 11.34375 -9.21875 C 10.945312 -10.019531 10.398438 -10.648438 9.703125 -11.109375 C 9.015625 -11.578125 8.226562 -11.8125 7.34375 -11.8125 C 6.457031 -11.8125 5.664062 -11.578125 4.96875 -11.109375 C 4.269531 -10.648438 3.722656 -10.019531 3.328125 -9.21875 C 2.929688 -8.414062 2.734375 -7.507812 2.734375 -6.5 C 2.734375 -5.488281 2.929688 -4.578125 3.328125 -3.765625 C 3.722656 -2.960938 4.269531 -2.328125 4.96875 -1.859375 C 5.664062 -1.390625 6.457031 -1.15625 7.34375 -1.15625 Z M 7.34375 -1.15625" style="stroke:none"/></g></g><g style="fill:#f8faf0;fill-opacity:1;"><g transform="translate(255.22462, 183.851825)"><path d="M 7.84375 0.25 C 6.539062 0.25 5.390625 -0.0234375 4.390625 -0.578125 C 3.398438 -1.140625 2.625 -1.914062 2.0625 -2.90625 C 1.507812 -3.90625 1.234375 -5.070312 1.234375 -6.40625 C 1.234375 -7.832031 1.515625 -9.050781 2.078125 -10.0625 C 2.648438 -11.082031 3.382812 -11.863281 4.28125 -12.40625 C 5.1875 -12.957031 6.144531 -13.234375 7.15625 -13.234375 C 7.894531 -13.234375 8.613281 -13.101562 9.3125 -12.84375 C 10.019531 -12.582031 10.644531 -12.191406 11.1875 -11.671875 C 11.738281 -11.160156 12.175781 -10.53125 12.5 -9.78125 C 12.832031 -9.039062 13.015625 -8.179688 13.046875 -7.203125 C 13.035156 -7.003906 12.953125 -6.832031 12.796875 -6.6875 C 12.648438 -6.539062 12.472656 -6.46875 12.265625 -6.46875 L 2.125 -6.46875 L 1.828125 -7.84375 L 11.78125 -7.84375 L 11.453125 -7.53125 L 11.453125 -8.046875 C 11.390625 -8.835938 11.140625 -9.507812 10.703125 -10.0625 C 10.265625 -10.625 9.734375 -11.046875 9.109375 -11.328125 C 8.484375 -11.617188 7.832031 -11.765625 7.15625 -11.765625 C 6.65625 -11.765625 6.140625 -11.660156 5.609375 -11.453125 C 5.078125 -11.253906 4.59375 -10.9375 4.15625 -10.5 C 3.726562 -10.070312 3.378906 -9.523438 3.109375 -8.859375 C 2.835938 -8.203125 2.703125 -7.414062 2.703125 -6.5 C 2.703125 -5.507812 2.90625 -4.609375 3.3125 -3.796875 C 3.71875 -2.984375 4.300781 -2.335938 5.0625 -1.859375 C 5.832031 -1.390625 6.75 -1.15625 7.8125 -1.15625 C 8.40625 -1.15625 8.9375 -1.238281 9.40625 -1.40625 C 9.882812 -1.582031 10.300781 -1.804688 10.65625 -2.078125 C 11.007812 -2.359375 11.300781 -2.648438 11.53125 -2.953125 C 11.71875 -3.109375 11.90625 -3.1875 12.09375 -3.1875 C 12.257812 -3.1875 12.40625 -3.117188 12.53125 -2.984375 C 12.65625 -2.847656 12.71875 -2.695312 12.71875 -2.53125 C 12.71875 -2.320312 12.632812 -2.144531 12.46875 -2 C 11.96875 -1.394531 11.3125 -0.867188 10.5 -0.421875 C 9.6875 0.0234375 8.800781 0.25 7.84375 0.25 Z M 7.84375 0.25" style="stroke:none"/></g></g><g style="fill:#f8faf0;fill-opacity:1;"><g transform="translate(269.512968, 183.851825)"><path d="M 1.265625 -2.046875 C 1.128906 -2.253906 1.066406 -2.453125 1.078125 -2.640625 C 1.085938 -2.835938 1.191406 -2.992188 1.390625 -3.109375 C 1.523438 -3.222656 1.679688 -3.269531 1.859375 -3.25 C 2.035156 -3.238281 2.203125 -3.160156 2.359375 -3.015625 C 2.804688 -2.421875 3.351562 -1.941406 4 -1.578125 C 4.65625 -1.210938 5.429688 -1.03125 6.328125 -1.03125 C 6.796875 -1.03125 7.257812 -1.109375 7.71875 -1.265625 C 8.1875 -1.429688 8.570312 -1.675781 8.875 -2 C 9.175781 -2.332031 9.328125 -2.753906 9.328125 -3.265625 C 9.328125 -3.785156 9.175781 -4.207031 8.875 -4.53125 C 8.570312 -4.851562 8.179688 -5.101562 7.703125 -5.28125 C 7.222656 -5.46875 6.710938 -5.628906 6.171875 -5.765625 C 5.597656 -5.921875 5.039062 -6.09375 4.5 -6.28125 C 3.957031 -6.476562 3.476562 -6.722656 3.0625 -7.015625 C 2.65625 -7.316406 2.320312 -7.675781 2.0625 -8.09375 C 1.8125 -8.519531 1.6875 -9.035156 1.6875 -9.640625 C 1.6875 -10.347656 1.878906 -10.96875 2.265625 -11.5 C 2.660156 -12.039062 3.191406 -12.460938 3.859375 -12.765625 C 4.523438 -13.078125 5.28125 -13.234375 6.125 -13.234375 C 6.539062 -13.234375 6.992188 -13.175781 7.484375 -13.0625 C 7.972656 -12.957031 8.453125 -12.773438 8.921875 -12.515625 C 9.398438 -12.265625 9.820312 -11.921875 10.1875 -11.484375 C 10.34375 -11.328125 10.421875 -11.148438 10.421875 -10.953125 C 10.421875 -10.765625 10.335938 -10.597656 10.171875 -10.453125 C 10.035156 -10.347656 9.878906 -10.296875 9.703125 -10.296875 C 9.523438 -10.296875 9.378906 -10.363281 9.265625 -10.5 C 8.859375 -10.957031 8.375 -11.300781 7.8125 -11.53125 C 7.257812 -11.769531 6.660156 -11.890625 6.015625 -11.890625 C 5.523438 -11.890625 5.066406 -11.804688 4.640625 -11.640625 C 4.210938 -11.484375 3.851562 -11.242188 3.5625 -10.921875 C 3.28125 -10.609375 3.140625 -10.1875 3.140625 -9.65625 C 3.171875 -9.175781 3.34375 -8.78125 3.65625 -8.46875 C 3.96875 -8.164062 4.378906 -7.910156 4.890625 -7.703125 C 5.410156 -7.503906 5.988281 -7.320312 6.625 -7.15625 C 7.164062 -7.019531 7.6875 -6.859375 8.1875 -6.671875 C 8.6875 -6.492188 9.125 -6.265625 9.5 -5.984375 C 9.875 -5.703125 10.175781 -5.347656 10.40625 -4.921875 C 10.632812 -4.503906 10.75 -3.976562 10.75 -3.34375 C 10.75 -2.59375 10.539062 -1.945312 10.125 -1.40625 C 9.71875 -0.875 9.164062 -0.460938 8.46875 -0.171875 C 7.78125 0.109375 7.015625 0.25 6.171875 0.25 C 5.265625 0.25 4.382812 0.0703125 3.53125 -0.28125 C 2.675781 -0.632812 1.921875 -1.222656 1.265625 -2.046875 Z M 1.265625 -2.046875" style="stroke:none"/></g></g><g style="fill:#f3f5f9;fill-opacity:1;"><g transform="translate(141.686136, 198.402016)"><path d="M 1.46875 -0.96875 L 1.46875 -3.5625 C 1.46875 -3.601562 1.488281 -3.625 1.53125 -3.625 L 1.796875 -3.625 C 1.835938 -3.625 1.859375 -3.601562 1.859375 -3.5625 L 1.859375 -0.96875 C 1.859375 -0.757812 1.816406 -0.578125 1.734375 -0.421875 C 1.660156 -0.273438 1.550781 -0.160156 1.40625 -0.078125 C 1.257812 0.00390625 1.085938 0.046875 0.890625 0.046875 C 0.722656 0.046875 0.566406 0.0078125 0.421875 -0.0625 C 0.285156 -0.132812 0.175781 -0.238281 0.09375 -0.375 C 0.0625 -0.425781 0.0625 -0.460938 0.09375 -0.484375 L 0.28125 -0.65625 C 0.289062 -0.664062 0.304688 -0.664062 0.328125 -0.65625 C 0.347656 -0.65625 0.363281 -0.644531 0.375 -0.625 C 0.425781 -0.53125 0.5 -0.457031 0.59375 -0.40625 C 0.6875 -0.363281 0.785156 -0.34375 0.890625 -0.34375 C 1.003906 -0.34375 1.101562 -0.367188 1.1875 -0.421875 C 1.28125 -0.472656 1.347656 -0.546875 1.390625 -0.640625 C 1.441406 -0.734375 1.46875 -0.84375 1.46875 -0.96875 Z M 1.46875 -0.96875" style="stroke:none"/></g></g><g style="fill:#f3f5f9;fill-opacity:1;"><g transform="translate(147.880908, 198.402016)"><path d="M 0.828125 -3.5625 L 0.828125 -1.4375 C 0.828125 -1.289062 0.851562 -1.148438 0.90625 -1.015625 C 0.96875 -0.878906 1.046875 -0.757812 1.140625 -0.65625 C 1.242188 -0.5625 1.359375 -0.484375 1.484375 -0.421875 C 1.617188 -0.367188 1.765625 -0.34375 1.921875 -0.34375 C 2.078125 -0.34375 2.21875 -0.367188 2.34375 -0.421875 C 2.476562 -0.484375 2.59375 -0.5625 2.6875 -0.65625 C 2.789062 -0.757812 2.867188 -0.878906 2.921875 -1.015625 C 2.984375 -1.148438 3.015625 -1.289062 3.015625 -1.4375 L 3.015625 -3.5625 C 3.015625 -3.601562 3.035156 -3.625 3.078125 -3.625 L 3.34375 -3.625 C 3.382812 -3.625 3.40625 -3.601562 3.40625 -3.5625 L 3.40625 -1.4375 C 3.40625 -1.21875 3.367188 -1.019531 3.296875 -0.84375 C 3.222656 -0.664062 3.117188 -0.507812 2.984375 -0.375 C 2.847656 -0.238281 2.691406 -0.132812 2.515625 -0.0625 C 2.335938 0.0078125 2.140625 0.046875 1.921875 0.046875 C 1.710938 0.046875 1.515625 0.0078125 1.328125 -0.0625 C 1.148438 -0.132812 0.992188 -0.238281 0.859375 -0.375 C 0.722656 -0.507812 0.617188 -0.664062 0.546875 -0.84375 C 0.472656 -1.03125 0.4375 -1.234375 0.4375 -1.453125 L 0.4375 -3.5625 C 0.4375 -3.601562 0.457031 -3.625 0.5 -3.625 L 0.78125 -3.625 C 0.8125 -3.625 0.828125 -3.601562 0.828125 -3.5625 Z M 0.828125 -3.5625" style="stroke:none"/></g></g><g style="fill:#f3f5f9;fill-opacity:1;"><g transform="translate(155.624731, 198.402016)"><path d="M 3.546875 -3.625 C 3.585938 -3.625 3.609375 -3.601562 3.609375 -3.5625 L 3.609375 -0.046875 C 3.609375 -0.0234375 3.597656 -0.0078125 3.578125 0 C 3.566406 0.0195312 3.550781 0.03125 3.53125 0.03125 C 3.507812 0.03125 3.488281 0.0234375 3.46875 0.015625 C 3.457031 0.00390625 3.445312 -0.0078125 3.4375 -0.03125 L 0.90625 -2.765625 L 0.90625 -0.0625 C 0.90625 -0.0195312 0.890625 0 0.859375 0 L 0.578125 0 C 0.535156 0 0.515625 -0.0195312 0.515625 -0.0625 L 0.515625 -3.578125 C 0.515625 -3.597656 0.519531 -3.613281 0.53125 -3.625 C 0.539062 -3.632812 0.554688 -3.640625 0.578125 -3.640625 C 0.597656 -3.640625 0.613281 -3.632812 0.625 -3.625 C 0.644531 -3.613281 0.664062 -3.597656 0.6875 -3.578125 L 3.203125 -0.84375 L 3.203125 -3.5625 C 3.203125 -3.601562 3.222656 -3.625 3.265625 -3.625 Z M 3.546875 -3.625" style="stroke:none"/></g></g><g style="fill:#f3f5f9;fill-opacity:1;"><g transform="translate(163.637436, 198.402016)"><path d="M 0.15625 -3.34375 L 0.15625 -3.546875 C 0.15625 -3.585938 0.179688 -3.609375 0.234375 -3.609375 L 2.671875 -3.609375 C 2.710938 -3.609375 2.734375 -3.585938 2.734375 -3.546875 L 2.734375 -3.34375 C 2.734375 -3.289062 2.710938 -3.265625 2.671875 -3.265625 L 1.640625 -3.265625 L 1.640625 -0.078125 C 1.640625 -0.0234375 1.613281 0 1.5625 0 L 1.3125 0 C 1.269531 0 1.25 -0.0234375 1.25 -0.078125 L 1.25 -3.265625 L 0.234375 -3.265625 C 0.179688 -3.265625 0.15625 -3.289062 0.15625 -3.34375 Z M 0.15625 -3.34375" style="stroke:none"/></g></g><g style="fill:#f3f5f9;fill-opacity:1;"><g transform="translate(170.424702, 198.402016)"><path d="M 0.25 -1.796875 C 0.25 -2.003906 0.28125 -2.203125 0.34375 -2.390625 C 0.40625 -2.578125 0.492188 -2.75 0.609375 -2.90625 C 0.722656 -3.0625 0.859375 -3.195312 1.015625 -3.3125 C 1.171875 -3.425781 1.34375 -3.507812 1.53125 -3.5625 C 1.71875 -3.625 1.914062 -3.65625 2.125 -3.65625 C 2.332031 -3.65625 2.53125 -3.625 2.71875 -3.5625 C 2.90625 -3.507812 3.070312 -3.425781 3.21875 -3.3125 C 3.375 -3.195312 3.507812 -3.0625 3.625 -2.90625 C 3.738281 -2.75 3.828125 -2.578125 3.890625 -2.390625 C 3.953125 -2.203125 3.984375 -2.003906 3.984375 -1.796875 C 3.984375 -1.585938 3.953125 -1.390625 3.890625 -1.203125 C 3.828125 -1.015625 3.738281 -0.84375 3.625 -0.6875 C 3.507812 -0.539062 3.375 -0.410156 3.21875 -0.296875 C 3.070312 -0.191406 2.90625 -0.109375 2.71875 -0.046875 C 2.53125 0.015625 2.332031 0.046875 2.125 0.046875 C 1.914062 0.046875 1.71875 0.015625 1.53125 -0.046875 C 1.34375 -0.109375 1.171875 -0.191406 1.015625 -0.296875 C 0.859375 -0.410156 0.722656 -0.539062 0.609375 -0.6875 C 0.492188 -0.84375 0.40625 -1.015625 0.34375 -1.203125 C 0.28125 -1.390625 0.25 -1.585938 0.25 -1.796875 Z M 0.65625 -1.796875 C 0.65625 -1.628906 0.675781 -1.472656 0.71875 -1.328125 C 0.769531 -1.179688 0.835938 -1.046875 0.921875 -0.921875 C 1.015625 -0.804688 1.125 -0.703125 1.25 -0.609375 C 1.375 -0.523438 1.507812 -0.457031 1.65625 -0.40625 C 1.800781 -0.363281 1.957031 -0.34375 2.125 -0.34375 C 2.28125 -0.34375 2.429688 -0.363281 2.578125 -0.40625 C 2.734375 -0.457031 2.867188 -0.523438 2.984375 -0.609375 C 3.109375 -0.703125 3.210938 -0.804688 3.296875 -0.921875 C 3.390625 -1.046875 3.460938 -1.179688 3.515625 -1.328125 C 3.566406 -1.472656 3.59375 -1.628906 3.59375 -1.796875 C 3.59375 -1.960938 3.566406 -2.117188 3.515625 -2.265625 C 3.460938 -2.410156 3.390625 -2.546875 3.296875 -2.671875 C 3.210938 -2.796875 3.109375 -2.898438 2.984375 -2.984375 C 2.867188 -3.078125 2.734375 -3.144531 2.578125 -3.1875 C 2.429688 -3.238281 2.28125 -3.265625 2.125 -3.265625 C 1.957031 -3.265625 1.800781 -3.238281 1.65625 -3.1875 C 1.507812 -3.144531 1.375 -3.078125 1.25 -2.984375 C 1.125 -2.898438 1.015625 -2.796875 0.921875 -2.671875 C 0.835938 -2.546875 0.769531 -2.410156 0.71875 -2.265625 C 0.675781 -2.117188 0.65625 -1.960938 0.65625 -1.796875 Z M 0.65625 -1.796875" style="stroke:none"/></g></g><g style="fill:#f3f5f9;fill-opacity:1;"><g transform="translate(178.561142, 198.402016)"><path d="M 1.5625 0.046875 C 1.445312 0.046875 1.320312 0.03125 1.1875 0 C 1.0625 -0.03125 0.941406 -0.0703125 0.828125 -0.125 C 0.710938 -0.175781 0.609375 -0.238281 0.515625 -0.3125 C 0.429688 -0.382812 0.359375 -0.46875 0.296875 -0.5625 C 0.285156 -0.570312 0.28125 -0.585938 0.28125 -0.609375 C 0.28125 -0.640625 0.289062 -0.660156 0.3125 -0.671875 L 0.46875 -0.84375 C 0.507812 -0.875 0.550781 -0.863281 0.59375 -0.8125 C 0.664062 -0.71875 0.753906 -0.632812 0.859375 -0.5625 C 0.960938 -0.488281 1.070312 -0.429688 1.1875 -0.390625 C 1.3125 -0.347656 1.429688 -0.328125 1.546875 -0.328125 C 1.816406 -0.328125 2.023438 -0.382812 2.171875 -0.5 C 2.328125 -0.625 2.40625 -0.785156 2.40625 -0.984375 C 2.40625 -1.066406 2.378906 -1.144531 2.328125 -1.21875 C 2.285156 -1.289062 2.222656 -1.351562 2.140625 -1.40625 C 2.054688 -1.457031 1.957031 -1.503906 1.84375 -1.546875 C 1.738281 -1.597656 1.625 -1.648438 1.5 -1.703125 C 1.34375 -1.753906 1.195312 -1.8125 1.0625 -1.875 C 0.9375 -1.9375 0.820312 -2.003906 0.71875 -2.078125 C 0.625 -2.160156 0.550781 -2.253906 0.5 -2.359375 C 0.445312 -2.460938 0.421875 -2.585938 0.421875 -2.734375 C 0.421875 -2.921875 0.46875 -3.082031 0.5625 -3.21875 C 0.65625 -3.351562 0.785156 -3.457031 0.953125 -3.53125 C 1.128906 -3.613281 1.332031 -3.65625 1.5625 -3.65625 C 1.695312 -3.65625 1.828125 -3.640625 1.953125 -3.609375 C 2.078125 -3.578125 2.191406 -3.53125 2.296875 -3.46875 C 2.398438 -3.40625 2.488281 -3.335938 2.5625 -3.265625 C 2.59375 -3.210938 2.59375 -3.171875 2.5625 -3.140625 L 2.421875 -2.984375 C 2.398438 -2.953125 2.378906 -2.9375 2.359375 -2.9375 C 2.335938 -2.945312 2.3125 -2.960938 2.28125 -2.984375 C 2.226562 -3.046875 2.160156 -3.097656 2.078125 -3.140625 C 1.992188 -3.191406 1.90625 -3.226562 1.8125 -3.25 C 1.726562 -3.269531 1.640625 -3.28125 1.546875 -3.28125 C 1.398438 -3.28125 1.269531 -3.253906 1.15625 -3.203125 C 1.039062 -3.160156 0.953125 -3.097656 0.890625 -3.015625 C 0.835938 -2.929688 0.8125 -2.835938 0.8125 -2.734375 C 0.8125 -2.640625 0.832031 -2.554688 0.875 -2.484375 C 0.925781 -2.410156 0.992188 -2.347656 1.078125 -2.296875 C 1.160156 -2.242188 1.253906 -2.191406 1.359375 -2.140625 C 1.460938 -2.097656 1.570312 -2.054688 1.6875 -2.015625 C 1.832031 -1.960938 1.972656 -1.90625 2.109375 -1.84375 C 2.242188 -1.789062 2.363281 -1.722656 2.46875 -1.640625 C 2.570312 -1.566406 2.65625 -1.472656 2.71875 -1.359375 C 2.78125 -1.253906 2.8125 -1.128906 2.8125 -0.984375 C 2.8125 -0.773438 2.757812 -0.59375 2.65625 -0.4375 C 2.550781 -0.28125 2.40625 -0.160156 2.21875 -0.078125 C 2.039062 0.00390625 1.820312 0.046875 1.5625 0.046875 Z M 1.5625 0.046875" style="stroke:none"/></g></g><g style="fill:#f3f5f9;fill-opacity:1;"><g transform="translate(185.541147, 198.402016)"><path d="" style="stroke:none"/></g></g><g style="fill:#f3f5f9;fill-opacity:1;"><g transform="translate(190.860265, 198.402016)"><path d="M 3.359375 -0.078125 C 3.367188 -0.0546875 3.367188 -0.0351562 3.359375 -0.015625 C 3.347656 -0.00390625 3.328125 0 3.296875 0 L 3.015625 0 C 3.003906 0 2.988281 -0.00390625 2.96875 -0.015625 C 2.957031 -0.0234375 2.945312 -0.0390625 2.9375 -0.0625 L 2.75 -0.515625 L 0.734375 -0.515625 L 0.546875 -0.0625 C 0.535156 -0.0390625 0.523438 -0.0234375 0.515625 -0.015625 C 0.503906 -0.00390625 0.488281 0 0.46875 0 L 0.1875 0 C 0.15625 0 0.132812 -0.00390625 0.125 -0.015625 C 0.113281 -0.0351562 0.113281 -0.0625 0.125 -0.09375 L 1.640625 -3.578125 C 1.660156 -3.617188 1.691406 -3.640625 1.734375 -3.640625 L 1.75 -3.640625 C 1.769531 -3.640625 1.785156 -3.632812 1.796875 -3.625 C 1.816406 -3.613281 1.832031 -3.597656 1.84375 -3.578125 Z M 0.890625 -0.875 L 2.609375 -0.875 L 1.75 -2.9375 Z M 0.890625 -0.875" style="stroke:none"/></g></g><g style="fill:#f3f5f9;fill-opacity:1;"><g transform="translate(198.247164, 198.402016)"><path d="M 3.984375 -1.796875 C 3.984375 -1.597656 3.957031 -1.410156 3.90625 -1.234375 C 3.851562 -1.054688 3.773438 -0.894531 3.671875 -0.75 C 3.566406 -0.601562 3.441406 -0.472656 3.296875 -0.359375 C 3.160156 -0.242188 3.007812 -0.148438 2.84375 -0.078125 C 2.675781 -0.015625 2.492188 0.0234375 2.296875 0.046875 L 2.296875 0.59375 C 2.296875 0.644531 2.273438 0.671875 2.234375 0.671875 L 2 0.671875 C 1.945312 0.671875 1.921875 0.644531 1.921875 0.59375 L 1.921875 0.046875 C 1.734375 0.0234375 1.554688 -0.015625 1.390625 -0.078125 C 1.222656 -0.148438 1.066406 -0.242188 0.921875 -0.359375 C 0.785156 -0.472656 0.664062 -0.601562 0.5625 -0.75 C 0.46875 -0.90625 0.390625 -1.066406 0.328125 -1.234375 C 0.273438 -1.410156 0.25 -1.597656 0.25 -1.796875 C 0.25 -2.003906 0.28125 -2.203125 0.34375 -2.390625 C 0.40625 -2.578125 0.492188 -2.75 0.609375 -2.90625 C 0.722656 -3.0625 0.859375 -3.195312 1.015625 -3.3125 C 1.171875 -3.425781 1.34375 -3.507812 1.53125 -3.5625 C 1.71875 -3.625 1.914062 -3.65625 2.125 -3.65625 C 2.332031 -3.65625 2.53125 -3.625 2.71875 -3.5625 C 2.90625 -3.507812 3.070312 -3.425781 3.21875 -3.3125 C 3.375 -3.195312 3.507812 -3.0625 3.625 -2.90625 C 3.738281 -2.75 3.828125 -2.578125 3.890625 -2.390625 C 3.953125 -2.203125 3.984375 -2.003906 3.984375 -1.796875 Z M 2.125 -0.34375 C 2.28125 -0.34375 2.429688 -0.363281 2.578125 -0.40625 C 2.734375 -0.457031 2.867188 -0.523438 2.984375 -0.609375 C 3.109375 -0.703125 3.210938 -0.804688 3.296875 -0.921875 C 3.390625 -1.046875 3.460938 -1.179688 3.515625 -1.328125 C 3.566406 -1.472656 3.59375 -1.628906 3.59375 -1.796875 C 3.59375 -1.960938 3.566406 -2.117188 3.515625 -2.265625 C 3.460938 -2.410156 3.390625 -2.546875 3.296875 -2.671875 C 3.210938 -2.796875 3.109375 -2.898438 2.984375 -2.984375 C 2.867188 -3.078125 2.734375 -3.144531 2.578125 -3.1875 C 2.429688 -3.238281 2.28125 -3.265625 2.125 -3.265625 C 1.957031 -3.265625 1.800781 -3.238281 1.65625 -3.1875 C 1.507812 -3.144531 1.375 -3.078125 1.25 -2.984375 C 1.125 -2.898438 1.015625 -2.796875 0.921875 -2.671875 C 0.835938 -2.546875 0.769531 -2.410156 0.71875 -2.265625 C 0.675781 -2.117188 0.65625 -1.960938 0.65625 -1.796875 C 0.65625 -1.628906 0.675781 -1.472656 0.71875 -1.328125 C 0.769531 -1.179688 0.835938 -1.046875 0.921875 -0.921875 C 1.015625 -0.804688 1.125 -0.703125 1.25 -0.609375 C 1.375 -0.523438 1.507812 -0.457031 1.65625 -0.40625 C 1.800781 -0.363281 1.957031 -0.34375 2.125 -0.34375 Z M 2.125 -0.34375" style="stroke:none"/></g></g><g style="fill:#f3f5f9;fill-opacity:1;"><g transform="translate(206.383603, 198.402016)"><path d="M 0.828125 -3.5625 L 0.828125 -1.4375 C 0.828125 -1.289062 0.851562 -1.148438 0.90625 -1.015625 C 0.96875 -0.878906 1.046875 -0.757812 1.140625 -0.65625 C 1.242188 -0.5625 1.359375 -0.484375 1.484375 -0.421875 C 1.617188 -0.367188 1.765625 -0.34375 1.921875 -0.34375 C 2.078125 -0.34375 2.21875 -0.367188 2.34375 -0.421875 C 2.476562 -0.484375 2.59375 -0.5625 2.6875 -0.65625 C 2.789062 -0.757812 2.867188 -0.878906 2.921875 -1.015625 C 2.984375 -1.148438 3.015625 -1.289062 3.015625 -1.4375 L 3.015625 -3.5625 C 3.015625 -3.601562 3.035156 -3.625 3.078125 -3.625 L 3.34375 -3.625 C 3.382812 -3.625 3.40625 -3.601562 3.40625 -3.5625 L 3.40625 -1.4375 C 3.40625 -1.21875 3.367188 -1.019531 3.296875 -0.84375 C 3.222656 -0.664062 3.117188 -0.507812 2.984375 -0.375 C 2.847656 -0.238281 2.691406 -0.132812 2.515625 -0.0625 C 2.335938 0.0078125 2.140625 0.046875 1.921875 0.046875 C 1.710938 0.046875 1.515625 0.0078125 1.328125 -0.0625 C 1.148438 -0.132812 0.992188 -0.238281 0.859375 -0.375 C 0.722656 -0.507812 0.617188 -0.664062 0.546875 -0.84375 C 0.472656 -1.03125 0.4375 -1.234375 0.4375 -1.453125 L 0.4375 -3.5625 C 0.4375 -3.601562 0.457031 -3.625 0.5 -3.625 L 0.78125 -3.625 C 0.8125 -3.625 0.828125 -3.601562 0.828125 -3.5625 Z M 0.828125 -3.5625" style="stroke:none"/></g></g><g style="fill:#f3f5f9;fill-opacity:1;"><g transform="translate(214.127426, 198.402016)"><path d="M 0.640625 -3.9375 C 0.617188 -3.914062 0.597656 -3.898438 0.578125 -3.890625 C 0.566406 -3.890625 0.550781 -3.890625 0.53125 -3.890625 L 0.390625 -3.890625 C 0.367188 -3.898438 0.351562 -3.914062 0.34375 -3.9375 C 0.34375 -3.957031 0.351562 -3.976562 0.375 -4 L 1 -4.5 C 1.007812 -4.519531 1.023438 -4.53125 1.046875 -4.53125 C 1.066406 -4.539062 1.085938 -4.546875 1.109375 -4.546875 L 1.28125 -4.546875 C 1.300781 -4.546875 1.3125 -4.53125 1.3125 -4.5 C 1.320312 -4.476562 1.316406 -4.457031 1.296875 -4.4375 Z M 0.90625 -3.5625 L 0.90625 -0.0625 C 0.90625 -0.0195312 0.882812 0 0.84375 0 L 0.5625 0 C 0.53125 0 0.515625 -0.0195312 0.515625 -0.0625 L 0.515625 -3.5625 C 0.515625 -3.601562 0.53125 -3.625 0.5625 -3.625 L 0.84375 -3.625 C 0.882812 -3.625 0.90625 -3.601562 0.90625 -3.5625 Z M 0.90625 -3.5625" style="stroke:none"/></g></g></g></svg>