<svg xmlns="http://www.w3.org/2000/svg" width="px" height="px" viewBox="0 0 143 31"><path d="M8.922 5.668q1.08.002 1.883.227c.539.148.957.363 1.258.636q.457.418.457.992 0 .38-.235.72c-.148.222-.375.331-.672.331q-.293 0-.492-.082a1.3 1.3 0 0 1-.351-.226 1.7 1.7 0 0 0-.368-.246q-.187-.118-.586-.176a3.3 3.3 0 0 0-.578-.074q-.965.002-1.644.425-.674.417-1.035 1.137c-.247.473-.364 1.023-.364 1.652 0 .61.117 1.153.364 1.63.25.484.593.863 1.035 1.148q.655.415 1.515.414.468 0 .813-.059.351-.06.574-.168.269-.152.473-.316.21-.18.633-.18.497 0 .753.32.27.31.27.766 0 .476-.527.875-.53.392-1.399.625-.873.239-1.883.238-1.495.001-2.597-.695a4.65 4.65 0 0 1-1.707-1.902q-.598-1.207-.598-2.696 0-1.57.633-2.765a4.7 4.7 0 0 1 1.766-1.867q1.136-.683 2.609-.684M24.16 10.984q-.002 1.56-.695 2.766a5.05 5.05 0 0 1-1.871 1.867q-1.162.662-2.61.66-1.448.002-2.62-.66a5 5 0 0 1-1.86-1.867q-.696-1.207-.695-2.766-.001-1.57.695-2.765a5.05 5.05 0 0 1 1.86-1.867q1.172-.683 2.62-.684 1.448.002 2.61.684a5.1 5.1 0 0 1 1.87 1.867q.695 1.196.696 2.765m-2.285 0q0-.978-.387-1.687a2.9 2.9 0 0 0-1.047-1.125 2.77 2.77 0 0 0-1.457-.402q-.802.001-1.457.402-.66.404-1.047 1.125-.39.71-.39 1.687c0 .637.129 1.2.39 1.68.258.469.606.844 1.047 1.11q.656.403 1.457.402.797.001 1.457-.403c.438-.265.79-.64 1.047-1.109.258-.48.387-1.043.387-1.68M31.508 5.668q1.523.001 2.246.734.725.732.953 1.903l-.316-.18.152-.293c.145-.3.379-.617.691-.945.32-.34.707-.63 1.153-.864q.68-.356 1.52-.355c.913 0 1.609.2 2.081.59.473.398.801.922.973 1.586q.272.977.273 2.183v4.891q-.002.499-.332.84-.316.333-.808.332-.498 0-.824-.332a1.2 1.2 0 0 1-.317-.84v-4.89c0-.426-.055-.805-.156-1.133a1.6 1.6 0 0 0-.55-.817q-.404-.306-1.142-.308-.719.002-1.234.308a2 2 0 0 0-.777.817 2.5 2.5 0 0 0-.246 1.132v4.891c0 .332-.114.613-.328.84a1.12 1.12 0 0 1-.825.332 1.1 1.1 0 0 1-.824-.332 1.2 1.2 0 0 1-.316-.84v-4.89c0-.426-.055-.805-.153-1.133a1.62 1.62 0 0 0-.554-.817q-.398-.306-1.141-.308-.717.002-1.234.308a2 2 0 0 0-.778.817 2.5 2.5 0 0 0-.246 1.132v4.891q0 .499-.328.84a1.12 1.12 0 0 1-.824.332 1.1 1.1 0 0 1-.824-.332 1.2 1.2 0 0 1-.317-.84v-7.89q0-.506.317-.84c.218-.22.496-.333.824-.333s.601.114.824.332q.328.335.328.84v.817l-.293-.063q.176-.314.48-.683c.204-.25.454-.485.743-.696q.435-.328.965-.535.538-.2 1.164-.199M49.055 5.668q1.531.001 2.246.734.73.732.953 1.903l-.316-.18.152-.293q.222-.452.695-.945.479-.511 1.153-.864a3.2 3.2 0 0 1 1.515-.355c.918 0 1.613.2 2.082.59.477.398.8.922.977 1.586q.27.977.27 2.183v4.891q0 .499-.329.84c-.21.222-.484.332-.812.332a1.1 1.1 0 0 1-.825-.332 1.2 1.2 0 0 1-.316-.84v-4.89q0-.64-.152-1.133a1.6 1.6 0 0 0-.555-.817q-.398-.306-1.14-.308-.717.002-1.235.308a2 2 0 0 0-.773.817q-.251.493-.25 1.132v4.891q0 .499-.329.84a1.1 1.1 0 0 1-.824.332c-.328 0-.605-.11-.82-.332a1.17 1.17 0 0 1-.32-.84v-4.89q0-.64-.153-1.133a1.6 1.6 0 0 0-.55-.817q-.404-.306-1.141-.308-.719.002-1.235.308a2 2 0 0 0-.777.817A2.5 2.5 0 0 0 46 10.027v4.891q-.002.499-.332.84a1.1 1.1 0 0 1-.82.332q-.497 0-.825-.332a1.2 1.2 0 0 1-.316-.84v-7.89q0-.506.316-.84.329-.332.825-.333c.328 0 .601.114.82.332q.33.335.332.84v.817l-.297-.063c.121-.21.277-.437.484-.683.204-.25.45-.485.743-.696.285-.218.61-.398.96-.535q.541-.2 1.165-.199m0 0" style="stroke:none;fill-rule:nonzero;fill:#ff7714;fill-opacity:1"/><path d="M68.8 6.379q.248 0 .41.176.165.169.165.39v5.399c0 1.261-.355 2.219-1.07 2.883-.703.66-1.664.992-2.868.992-1.195 0-2.14-.332-2.847-.992-.703-.665-1.059-1.622-1.059-2.883V6.945q0-.221.153-.39a.55.55 0 0 1 .414-.176q.258 0 .41.176.165.169.164.39v5.399q-.001 1.373.73 2.09.74.721 2.035.722 1.314-.001 2.06-.722.737-.717.737-2.09V6.945q0-.221.153-.39a.52.52 0 0 1 .414-.176M76.95 6.082c.835 0 1.507.172 2.01.508q.75.51 1.083 1.383c.227.574.34 1.215.34 1.914v5.62q0 .24-.176.415a.56.56 0 0 1-.398.168q-.275 0-.426-.168a.6.6 0 0 1-.153-.414V9.945q0-.756-.246-1.383a2.12 2.12 0 0 0-.812-1.015q-.556-.391-1.469-.39-.823-.002-1.555.39c-.488.254-.878.59-1.187 1.016a2.3 2.3 0 0 0-.457 1.382v5.563q0 .24-.176.414a.55.55 0 0 1-.402.168.52.52 0 0 1-.41-.168.6.6 0 0 1-.153-.414V6.945q0-.221.153-.39a.54.54 0 0 1 .41-.176q.256 0 .414.176.165.169.164.39v1.606l-.438.683q.038-.598.391-1.168c.234-.379.535-.714.906-1.015a4.6 4.6 0 0 1 1.223-.711 3.9 3.9 0 0 1 1.363-.258M84.469 15.508q0 .24-.176.414a.54.54 0 0 1-.398.168.55.55 0 0 1-.415-.168.6.6 0 0 1-.152-.414v-8.79q0-.232.152-.402a.54.54 0 0 1 .415-.175c.164 0 .296.058.41.175q.165.17.164.403Zm-.574-10.645q-.404 0-.602-.176c-.137-.125-.2-.3-.2-.53v-.188q0-.344.212-.524c.148-.12.351-.187.613-.187.234 0 .418.066.55.187.134.121.2.293.2.524v.187q0 .345-.2.532-.198.175-.573.175M95.41 1.934q.245.001.41.168c.11.101.168.242.168.414v12.992q-.002.24-.18.414a.53.53 0 0 1-.398.168.55.55 0 0 1-.41-.168.6.6 0 0 1-.152-.414v-2.266l.316-.273q0 .534-.281 1.12c-.192.391-.461.747-.813 1.079a4.2 4.2 0 0 1-1.222.8c-.465.208-.961.31-1.496.31q-1.267 0-2.293-.66a4.8 4.8 0 0 1-1.61-1.821q-.59-1.143-.59-2.625c0-.969.196-1.836.59-2.61q.597-1.152 1.598-1.82a4.12 4.12 0 0 1 2.293-.66c.52 0 1.012.102 1.484.297q.702.28 1.246.777.539.499.86 1.133c.21.426.316.875.316 1.336l-.398-.293V2.516A.55.55 0 0 1 95 2.113a.53.53 0 0 1 .41-.18m-3.953 13.28c.684 0 1.277-.179 1.79-.53.519-.356.921-.832 1.222-1.43q.447-.909.449-2.082-.001-1.142-.45-2.055a3.6 3.6 0 0 0-1.234-1.43 3.1 3.1 0 0 0-1.777-.53c-.664 0-1.262.179-1.785.53a3.53 3.53 0 0 0-1.234 1.43q-.45.914-.45 2.055 0 1.146.45 2.07a3.6 3.6 0 0 0 1.234 1.442 3.14 3.14 0 0 0 1.785.53M106.945 6.316c.164 0 .301.063.41.18.11.113.165.246.165.414v8.598q-.001.24-.176.414a.53.53 0 0 1-.399.168.55.55 0 0 1-.414-.168.6.6 0 0 1-.152-.414v-2.266l.32-.156q-.001.533-.297 1.09a3.98 3.98 0 0 1-2.02 1.804 3.8 3.8 0 0 1-1.495.297c-.864 0-1.633-.218-2.317-.66q-1.012-.675-1.597-1.844-.58-1.17-.578-2.625-.001-1.486.59-2.62.597-1.145 1.597-1.798 1.01-.646 2.293-.648c.543 0 1.05.102 1.531.297q.71.28 1.246.777c.356.332.637.711.832 1.133.196.426.297.875.297 1.336l-.402-.293V6.91c0-.168.05-.3.152-.414a.55.55 0 0 1 .414-.18m-3.953 8.899c.664 0 1.258-.18 1.778-.531q.784-.533 1.234-1.454.445-.931.445-2.082 0-1.118-.445-2.02A3.7 3.7 0 0 0 104.77 7.7a3.06 3.06 0 0 0-1.778-.543q-1.001.002-1.785.52-.79.51-1.234 1.418-.45.901-.45 2.054 0 1.15.45 2.082.445.92 1.222 1.454a3.15 3.15 0 0 0 1.797.53M118.48 1.934c.165 0 .297.058.41.168.11.101.165.242.165.414v12.992q0 .24-.176.414a.54.54 0 0 1-.399.168.55.55 0 0 1-.414-.168.6.6 0 0 1-.152-.414v-2.266l.316-.273q0 .534-.28 1.12c-.188.391-.458.747-.813 1.079-.344.328-.75.598-1.223.8a3.6 3.6 0 0 1-1.492.31q-1.272 0-2.293-.66-1.012-.674-1.613-1.821-.586-1.143-.586-2.625c0-.969.195-1.836.586-2.61q.601-1.152 1.601-1.82c.672-.437 1.438-.66 2.293-.66.516 0 1.012.102 1.48.297q.708.28 1.247.777.541.499.86 1.133c.21.426.316.875.316 1.336l-.399-.293V2.516q0-.239.152-.403a.53.53 0 0 1 .414-.18m-3.953 13.28q1.024-.002 1.79-.53a3.74 3.74 0 0 0 1.222-1.43q.445-.909.445-2.082 0-1.142-.445-2.055a3.6 3.6 0 0 0-1.234-1.43 3.1 3.1 0 0 0-1.778-.53 3.14 3.14 0 0 0-1.789.53 3.56 3.56 0 0 0-1.234 1.43q-.445.914-.445 2.055 0 1.146.445 2.07.447.909 1.234 1.442a3.14 3.14 0 0 0 1.79.53M126.438 16.277q-1.472.001-2.598-.625a4.6 4.6 0 0 1-1.754-1.761c-.418-.758-.621-1.637-.621-2.645q0-1.617.633-2.766.645-1.156 1.66-1.773a4.1 4.1 0 0 1 2.164-.625c.555 0 1.094.102 1.621.297a4 4 0 0 1 1.41.883q.626.58.988 1.43c.25.562.391 1.21.414 1.949a.56.56 0 0 1-.19.39.53.53 0 0 1-.4.164h-7.632l-.223-1.039h7.492l-.246.239v-.391q-.072-.897-.566-1.524a3.1 3.1 0 0 0-1.2-.957 3.45 3.45 0 0 0-1.468-.332 3.2 3.2 0 0 0-1.164.239q-.603.224-1.094.718-.485.487-.789 1.243c-.207.496-.305 1.093-.305 1.78 0 .75.153 1.43.457 2.048a3.6 3.6 0 0 0 1.317 1.465q.871.528 2.07.53.674.001 1.2-.19c.359-.133.675-.301.94-.508q.398-.316.66-.66a.66.66 0 0 1 .423-.176q.187 0 .328.152.14.155.14.344a.51.51 0 0 1-.187.398c-.375.461-.871.86-1.48 1.196a4.1 4.1 0 0 1-2 .507M132.242 14.54q-.158-.235-.14-.45c.003-.145.082-.266.234-.352a.43.43 0 0 1 .351-.105.6.6 0 0 1 .375.176q.505.674 1.239 1.086.737.415 1.75.414.526 0 1.047-.176.526-.189.87-.559c.227-.25.34-.566.34-.957q0-.587-.34-.953a2.35 2.35 0 0 0-.882-.57 10 10 0 0 0-1.152-.364q-.65-.18-1.258-.39a4.6 4.6 0 0 1-1.082-.555q-.46-.343-.754-.816-.281-.481-.281-1.168c0-.535.144-1.008.433-1.406.297-.41.7-.727 1.2-.957q.751-.357 1.706-.356.469 0 1.024.129.552.122 1.082.414.539.283.953.781a.56.56 0 0 1 .176.399c0 .144-.067.27-.188.379a.56.56 0 0 1-.355.12.4.4 0 0 1-.328-.156 2.9 2.9 0 0 0-1.094-.777 3.3 3.3 0 0 0-1.352-.273 2.9 2.9 0 0 0-1.035.187 2.04 2.04 0 0 0-.812.547q-.317.353-.317.957.036.543.387.895c.238.23.547.421.93.582.39.148.828.289 1.304.41q.612.157 1.176.367.568.204.988.52.422.32.684.804c.168.317.258.715.258 1.192 0 .57-.16 1.058-.469 1.464a3 3 0 0 1-1.246.934q-.778.321-1.73.32a5.2 5.2 0 0 1-1.989-.402q-.965-.398-1.703-1.336m0 0" style="stroke:none;fill-rule:nonzero;fill:#000;fill-opacity:1"/><path d="M36.188 26.355v-1.96c0-.028.015-.047.046-.047h.2c.03 0 .046.02.046.047v1.96q0 .239-.093.415a.6.6 0 0 1-.246.261.833.833 0 0 1-.742.012.63.63 0 0 1-.247-.238q-.035-.053 0-.082l.141-.13q.012-.01.035 0 .023 0 .035.024.06.105.164.164c.07.035.145.047.227.047a.4.4 0 0 0 .223-.058.34.34 0 0 0 .152-.165.5.5 0 0 0 .059-.25M40.367 24.395v1.609c0 .11.02.219.059.316q.07.158.176.274.116.105.261.176c.098.043.211.058.328.058a.75.75 0 0 0 .317-.058.9.9 0 0 0 .258-.176.75.75 0 0 0 .175-.274.7.7 0 0 0 .075-.316v-1.61c0-.027.011-.046.047-.046h.199c.027 0 .047.02.047.047v1.609c0 .164-.032.316-.082.45a1.2 1.2 0 0 1-.235.35 1.07 1.07 0 0 1-.8.321c-.16 0-.305-.031-.45-.082a1 1 0 0 1-.351-.238 1 1 0 0 1-.235-.352 1.3 1.3 0 0 1-.082-.46v-1.598c0-.028.016-.047.047-.047h.211c.023 0 .035.02.035.047M48.242 24.348c.028 0 .047.02.047.047v2.66q0 .023-.023.035-.012.023-.036.023c-.02 0-.03-.008-.046-.011a.1.1 0 0 1-.024-.036L46.254 25v2.043q0 .047-.035.047h-.211q-.047 0-.047-.047v-2.66q0-.018.012-.035a.05.05 0 0 1 .035-.012c.015 0 .027.008.035.012l.047.035 1.894 2.07v-2.058c0-.028.012-.047.047-.047ZM51.723 24.563v-.157c0-.027.015-.047.058-.047h1.832c.032 0 .047.02.047.047v.157q0 .058-.047.058h-.773v2.41c0 .04-.024.059-.063.059h-.187q-.047 0-.047-.059v-2.41h-.762c-.043 0-.058-.02-.058-.058M56.898 25.73q0-.236.07-.449.07-.21.204-.39a1.33 1.33 0 0 1 .691-.496q.21-.07.45-.07c.152 0 .304.023.445.07q.21.063.375.19.175.13.308.306c.082.12.153.25.2.39s.07.293.07.45a1.4 1.4 0 0 1-.27.84 1.46 1.46 0 0 1-.683.484c-.14.047-.293.07-.446.07q-.239 0-.449-.07t-.386-.192a1.33 1.33 0 0 1-.508-.684q-.07-.209-.07-.449m.309 0a1.061 1.061 0 0 0 .2.66q.105.134.245.239c.094.066.196.113.305.152.11.035.227.047.355.047.118 0 .227-.012.34-.047a1 1 0 0 0 .54-.39 1.09 1.09 0 0 0 .163-1.016 1.2 1.2 0 0 0-.164-.305.9.9 0 0 0-.234-.238.8.8 0 0 0-.305-.152 1.044 1.044 0 0 0-.695 0 .9.9 0 0 0-.305.152 1.1 1.1 0 0 0-.246.238 1.1 1.1 0 0 0-.152.305c-.035.113-.047.23-.047.355M64.012 27.125q-.135 0-.282-.035a1.6 1.6 0 0 1-.273-.094 1 1 0 0 1-.234-.144.9.9 0 0 1-.164-.188q-.012-.006-.012-.035c0-.024.004-.04.023-.047l.117-.129q.048-.035.094.024.082.105.2.187c.078.055.16.102.25.129a.7.7 0 0 0 .269.047c.203 0 .36-.04.469-.13a.45.45 0 0 0 .176-.366.3.3 0 0 0-.06-.176.4.4 0 0 0-.14-.14 1.2 1.2 0 0 0-.222-.106q-.117-.058-.258-.121a3 3 0 0 1-.328-.13 2 2 0 0 1-.262-.151.7.7 0 0 1-.164-.215.6.6 0 0 1-.059-.282q0-.215.106-.367a.7.7 0 0 1 .293-.238c.133-.059.285-.094.46-.094.098 0 .2.012.294.035q.14.035.257.11.117.07.204.152.034.059 0 .094l-.11.117q-.023.035-.047.035a.2.2 0 0 1-.058-.035.5.5 0 0 0-.153-.117.6.6 0 0 0-.199-.082 1 1 0 0 0-.199-.024q-.169 0-.293.059a.4.4 0 0 0-.203.14.41.41 0 0 0-.012.403c.04.055.09.105.156.14q.089.065.211.122.113.046.246.093.165.059.317.13c.101.042.191.09.27.152a.7.7 0 0 1 .19.215q.072.117.071.28c0 .16-.043.298-.117.415a.8.8 0 0 1-.332.273 1.15 1.15 0 0 1-.492.094M74.621 27.031a.1.1 0 0 1 0 .047q-.011.012-.047.012h-.21a.06.06 0 0 1-.036-.012.1.1 0 0 1-.027-.035l-.14-.344h-1.516l-.141.344c-.008.016-.02.027-.024.035q-.011.012-.035.012h-.21c-.024 0-.044-.004-.047-.012q-.018-.023 0-.058l1.14-2.637a.07.07 0 0 1 .07-.047h.012c.012 0 .024.008.035.012.012.011.028.023.035.035Zm-1.86-.601h1.294l-.645-1.563ZM80.648 25.73q0 .228-.058.426-.06.204-.176.367-.117.165-.281.293a1.4 1.4 0 0 1-.34.215 2 2 0 0 1-.414.094v.414q0 .06-.047.059h-.176q-.058 0-.058-.059v-.414a1.8 1.8 0 0 1-.399-.094 1.44 1.44 0 0 1-.625-.508 2 2 0 0 1-.176-.367 1.4 1.4 0 0 1-.058-.426 1.42 1.42 0 0 1 .27-.84q.128-.175.304-.304.18-.128.39-.191.212-.07.446-.07.233 0 .45.07c.14.043.26.105.374.19a1.4 1.4 0 0 1 .504.696c.047.14.07.293.07.45m-1.398 1.098a1.06 1.06 0 0 0 .648-.2c.094-.07.168-.148.235-.237a1.09 1.09 0 0 0 .164-1.016 1.2 1.2 0 0 0-.164-.305 1 1 0 0 0-.235-.238.8.8 0 0 0-.304-.152 1.04 1.04 0 0 0-.696 0 .9.9 0 0 0-.304.152c-.094.066-.18.145-.25.238a1.4 1.4 0 0 0-.153.305q-.046.168-.046.355 0 .194.046.356c.04.113.09.21.153.305a1.171 1.171 0 0 0 .555.39c.109.035.226.047.351.047M84.398 24.395v1.609c0 .11.02.219.059.316q.07.158.176.274.117.105.258.176a.9.9 0 0 0 .332.058.75.75 0 0 0 .316-.058.9.9 0 0 0 .258-.176.75.75 0 0 0 .176-.274.7.7 0 0 0 .07-.316v-1.61c0-.027.016-.046.05-.046h.2c.027 0 .047.02.047.047v1.609c0 .164-.031.316-.082.45a1.1 1.1 0 0 1-.238.35 1 1 0 0 1-.352.239c-.133.05-.281.082-.445.082a1.3 1.3 0 0 1-.45-.082 1 1 0 0 1-.351-.238 1 1 0 0 1-.234-.352 1.3 1.3 0 0 1-.083-.46v-1.598c0-.028.016-.047.047-.047h.211c.024 0 .035.02.035.047M90.086 24.113c-.02.016-.031.028-.047.035h-.14100000000000001q-.029-.012-.035-.035c0-.015.004-.031.024-.047l.468-.378q.012-.024.036-.024a.1.1 0 0 1 .046-.012h.13q.023 0 .023.035.012.024-.012.047Zm.2.282v2.648q0 .047-.048.047h-.21q-.036 0-.036-.047v-2.648c0-.028.012-.047.035-.047h.211c.032 0 .047.02.047.047m0 0" style="stroke:none;fill-rule:nonzero;fill:#888;fill-opacity:1"/></svg>