<svg xmlns="http://www.w3.org/2000/svg" xmlns:xlink="http://www.w3.org/1999/xlink" zoomAndPan="magnify" preserveAspectRatio="xMidYMid meet" version="1.2" viewBox="409.5 524.6 479.41 685.1"><defs><clipPath id="996bb34a6f"><path d="M 409 524 L 889 524 L 889 1209.898438 L 409 1209.898438 Z M 409 524 "/></clipPath></defs><g id="051e138773"><g clip-rule="nonzero" clip-path="url(#996bb34a6f)"><path style=" stroke:none;fill-rule:evenodd;fill:#ff6d4d;fill-opacity:1;" d="M 456.875 852.644531 C 456.875 879.136719 460.242188 892.308594 476.28125 913.832031 C 491.4375 934.199219 521.730469 954.910156 545.265625 966.671875 L 573.90625 978.339844 C 607.957031 990.6875 634.886719 991.347656 670.542969 991.347656 C 686.671875 991.347656 723.488281 987.425781 739.992188 983.941406 C 743.957031 983.117188 745.085938 982.066406 749.273438 981.976562 C 749.273438 1004.472656 753.914062 997.851562 756.769531 1010.089844 C 769.445312 1010.089844 758.78125 984.980469 754.890625 979.167969 C 775.0625 974.464844 821.730469 928.625 826.113281 909.808594 L 832.40625 938.195312 C 833.128906 943.917969 833.128906 948.046875 833.804688 953.722656 C 834.765625 961.804688 834.886719 959.746094 829.613281 964.851562 C 825.917969 968.441406 807.65625 999.203125 805.492188 1007.28125 C 817.359375 1004.519531 827.617188 993.691406 834.554688 985.730469 C 834.554688 989.183594 834.570312 992.625 834.601562 996.078125 C 834.707031 1007.867188 832.316406 1001.5625 821.699219 1014.117188 C 817.914062 1018.578125 804.980469 1034.078125 804.5625 1039.140625 C 809.398438 1038.734375 816.066406 1035.488281 819.519531 1033.492188 C 825.304688 1030.144531 827.828125 1027.152344 831.730469 1025.082031 C 831.730469 1032.304688 827.722656 1049.039062 825.800781 1055.691406 C 822.886719 1065.84375 820.015625 1074.34375 816.082031 1083.460938 C 809.9375 1097.714844 801.195312 1111.414062 791.164062 1123.203125 C 789.316406 1125.382812 788.308594 1125.847656 786.75 1128.175781 C 782.316406 1125.1875 776.730469 1123.457031 773.9375 1129.40625 C 770.40625 1136.929688 772.375 1141.210938 768.800781 1144.875 L 760.507812 1150.660156 C 758.960938 1145.925781 759.714844 1144.378906 759.578125 1138.476562 C 762.914062 1133.957031 752.039062 1122.949219 750.28125 1143.417969 C 749.996094 1146.785156 749.363281 1151.246094 748.222656 1157.117188 C 745.503906 1164.085938 740.234375 1165.5 730.53125 1170.347656 C 710.644531 1180.261719 692.050781 1188.328125 668.605469 1190.894531 C 640.007812 1194.003906 625.019531 1194.261719 595.054688 1186.796875 C 564.191406 1179.105469 534.167969 1163.605469 508.949219 1144.515625 C 505.660156 1142.023438 505.480469 1141.332031 501.859375 1139.410156 C 501.859375 1134.0625 504.023438 1119.058594 494.15625 1122.273438 C 490.957031 1123.324219 490.699219 1124.34375 490.609375 1128.175781 C 488.042969 1126.449219 485.910156 1124.253906 483.910156 1121.746094 L 471.460938 1107.027344 C 464.625 1097.894531 454.726562 1084.574219 449.683594 1074.449219 C 437.800781 1050.613281 428.714844 1033.265625 423.652344 1004.894531 C 423.050781 1001.546875 422.359375 995.238281 422.210938 992.265625 C 421.957031 986.796875 421.265625 983.988281 421.265625 979.167969 C 425.546875 982.035156 428.292969 986.179688 432.273438 989.695312 C 436.675781 993.570312 448.433594 1004.566406 448.433594 995.085938 C 448.433594 993.210938 444.410156 988 443.253906 986.226562 C 438.027344 978.324219 436.390625 977.738281 430.789062 970.589844 C 428.21875 967.316406 426.640625 965.230469 421.265625 965.109375 C 421.265625 959.972656 422.722656 951.367188 423.140625 946.363281 L 443.539062 972.8125 C 446.167969 976.058594 447.746094 978.910156 452.191406 980.097656 C 460.046875 968.367188 454.726562 968.050781 446.152344 957.074219 C 442.757812 952.71875 439.617188 948.765625 436.015625 944.726562 C 433.925781 942.367188 432.996094 940.507812 430.789062 938.703125 C 428.683594 937.007812 426.070312 936.210938 425.46875 932.980469 C 424.179688 925.847656 438.957031 888.585938 441.617188 882.367188 C 442.757812 879.691406 454.007812 855.945312 456.875 852.644531 Z M 585.261719 839.53125 C 582.332031 835.308594 579.914062 827.335938 571.203125 827.335938 C 566.894531 827.335938 559.398438 830.445312 556.574219 832.382812 C 552.609375 835.101562 550.835938 840.042969 549.652344 845.148438 C 546.183594 844.335938 539.394531 839.289062 529.945312 845.117188 C 526.070312 847.519531 527.015625 849.292969 523.414062 851.710938 C 520.410156 847.222656 515.136719 839.996094 514.988281 832.96875 C 517.464844 832.304688 530.050781 822.632812 538.703125 818.261719 C 548.824219 813.171875 556.394531 811.683594 568.066406 808.261719 C 573.425781 806.699219 578.082031 806.097656 583.386719 804.851562 C 588.582031 803.632812 594.363281 802.582031 600.175781 801.96875 C 603.121094 801.652344 604.9375 801.214844 608.257812 800.675781 C 638.3125 795.792969 677.796875 799.128906 702.730469 812.976562 C 705.867188 814.71875 707.371094 816.265625 709.910156 817.976562 C 709.910156 822.800781 708.949219 827.15625 708.03125 831.089844 C 694.152344 827.859375 674.777344 830.953125 671.488281 843.269531 C 682.902344 840.222656 670.273438 836.707031 699.605469 836.707031 C 702.835938 836.707031 703.226562 837.414062 706.152344 837.652344 C 706.152344 843.332031 703.839844 847.460938 702.609375 851.90625 C 697.894531 868.984375 694.46875 876.898438 686.480469 892.007812 C 678.007812 892.007812 658.242188 895.75 645.25 895.75 L 608.828125 892.804688 C 597.519531 890.867188 585.726562 888.914062 575.769531 885.566406 C 558.78125 879.859375 536.269531 869.523438 526.222656 854.519531 C 529.164062 850.132812 531.539062 850.390625 538.25 849.640625 C 547.382812 848.601562 543.75 849.894531 551.527344 851.710938 C 553.945312 846.648438 550.070312 849.789062 553.480469 844.367188 C 555.058594 841.859375 556.335938 840.175781 559.355469 838.914062 C 563.949219 836.992188 572.917969 835.070312 576.820312 837.609375 C 578.699219 838.824219 578.324219 838.988281 579.945312 840.28125 C 580.980469 841.09375 580.277344 840.824219 581.539062 841.347656 C 583.324219 842.113281 581.761719 841.511719 583.113281 841.617188 L 585.878906 841.722656 C 588.191406 841.527344 586.074219 843.976562 588.207031 839.800781 C 589.542969 837.171875 590.953125 830.160156 602.128906 830.160156 C 608.46875 830.160156 613.035156 829.679688 618.09375 833.867188 C 621.863281 837.007812 619.867188 837.457031 625.558594 840.460938 C 635.773438 825.21875 656.484375 827.996094 665.617188 836.960938 C 668.183594 839.484375 667.449219 840.132812 671.488281 840.460938 C 671.308594 832.816406 667.507812 830.277344 663.453125 827.875 C 649.621094 819.644531 654.441406 820.785156 637.742188 820.785156 C 632.078125 820.785156 626.191406 824.105469 622.75 826.402344 C 614.609375 814.238281 598.464844 819.015625 592.515625 824.269531 C 587.425781 828.777344 585.96875 831.074219 585.261719 839.53125 Z M 499.980469 820.785156 C 499.980469 832.953125 500.792969 837.457031 506.546875 848.902344 C 515 865.726562 520.273438 869.148438 532.5 879.183594 C 581.132812 919.132812 694.0625 936.511719 746.8125 882.683594 C 762.6875 866.476562 769.160156 839.875 771.757812 810.46875 C 777.902344 813.726562 778.414062 814.179688 783.25 818.667969 C 791.117188 826 798.582031 831.105469 803.417969 846.289062 C 804.679688 850.179688 805.566406 853.542969 806.363281 857.402344 C 809.773438 874 812.3125 889.996094 806.800781 906.425781 C 799.273438 928.851562 781.941406 950.464844 760.523438 961.367188 C 747.203125 968.140625 752.609375 968.128906 727.300781 972.199219 C 699.167969 976.703125 680.125 976.359375 651.796875 976.359375 C 627.183594 976.359375 607.851562 972.078125 588.265625 966.789062 C 565.886719 960.753906 545.296875 950.449219 525.679688 938.480469 C 515.46875 932.246094 493.582031 914.191406 486.449219 904.609375 C 464.867188 875.636719 464.910156 851.066406 483.054688 820.710938 C 487.816406 812.734375 501.230469 799.25 509.355469 797.355469 C 506.5 802.75 499.980469 812.929688 499.980469 820.785156 Z M 717.269531 883.449219 C 711.652344 885.503906 699.351562 889.605469 693.042969 890.132812 C 710.359375 864.269531 719.925781 834.125 724.222656 803.230469 L 727.707031 778.613281 C 731.476562 778.925781 747.308594 786.105469 761.457031 786.105469 C 754.773438 814.792969 746.902344 872.558594 717.269531 883.449219 Z M 738.957031 703.636719 C 733.566406 702.386719 733.503906 698.5 728.652344 700.828125 C 726.671875 705.105469 719.28125 717.632812 719.265625 717.679688 C 714.789062 734.425781 699.875 747.941406 710.164062 765.230469 C 712.746094 769.570312 714.984375 770.304688 717.402344 773.925781 C 716.277344 775.171875 716.382812 775.113281 715.527344 776.734375 L 696.257812 767.902344 C 661.996094 754.792969 624.492188 751.097656 588.144531 754.28125 C 572.347656 755.664062 558.046875 758.875 542.488281 763.953125 C 532.320312 767.257812 521.414062 769.902344 511.847656 774.542969 C 491.390625 784.484375 478.097656 791.394531 467.179688 813.277344 C 450.507812 846.710938 422.976562 891.796875 415.40625 927.378906 C 407.777344 963.292969 407.070312 991.542969 416.039062 1027.484375 C 419.671875 1041.992188 425.589844 1056.308594 432.199219 1069.449219 C 449.019531 1102.910156 479.78125 1144.035156 511.230469 1164.71875 C 521.203125 1171.28125 531.761719 1178.488281 542.636719 1183.925781 C 573.035156 1199.125 604.320312 1209.699219 640.5625 1209.699219 C 680.082031 1209.699219 711.277344 1200.148438 746.136719 1181.269531 C 756.242188 1175.800781 765.152344 1169.359375 773.757812 1162.027344 C 815.058594 1126.101562 833.277344 1097.085938 844.347656 1035.804688 C 845.085938 1031.75 845.128906 1027.859375 845.789062 1024.148438 C 847.816406 1012.839844 848.613281 990.925781 848.613281 978.21875 C 848.613281 957.328125 846.089844 930.699219 841.058594 909.867188 C 836.867188 895.011719 833.171875 878.222656 827.855469 864.027344 L 816.695312 841.4375 C 810.765625 831.496094 808 829.902344 802.160156 822.257812 C 799.09375 818.25 767.792969 788.914062 765.195312 788.914062 L 765.195312 786.105469 C 771.414062 784.664062 776.054688 779.828125 778.230469 773.835938 C 780.621094 767.316406 781.144531 763.082031 784.734375 754.101562 C 788.941406 743.601562 791.871094 736.738281 794.46875 725.414062 C 795.21875 722.140625 795.28125 717.558594 796.121094 713.9375 C 784 713.9375 776.957031 719.421875 756.257812 712.570312 C 751.558594 711.023438 747.621094 708.304688 743.644531 707.390625 L 744.363281 706.234375 C 744.4375 706.113281 744.632812 705.8125 744.738281 705.664062 C 749.351562 698.632812 752.503906 689.292969 755.238281 681.496094 C 758.226562 672.996094 763.828125 662.960938 767.960938 655.796875 C 770.300781 651.742188 772.285156 647.71875 774.597656 643.691406 L 797.441406 608.425781 C 800.085938 604.460938 802.113281 600.78125 805.265625 597.507812 C 808.363281 594.261719 811.003906 590.777344 813.796875 587.292969 L 841.328125 557.660156 C 844.304688 554.71875 848.644531 550.316406 852.324219 548.964844 C 860.132812 546.097656 859.15625 547.761719 865.449219 550.902344 C 869.835938 553.078125 875.109375 554.371094 879.539062 556.503906 C 877.765625 559.148438 873.410156 561.851562 870.722656 564.570312 L 856.214844 579.109375 C 837.542969 598.617188 818.46875 621.597656 804.621094 644.652344 C 803.226562 646.964844 802.714844 647.476562 801.226562 649.699219 C 794.664062 659.523438 789.121094 668.640625 784.480469 679.8125 C 781.355469 687.339844 771.15625 706.640625 782.0625 713.9375 C 791.40625 707.691406 798.808594 682.292969 805.671875 671.011719 L 817.386719 649.925781 C 821.699219 642.6875 825.542969 635.808594 830.050781 628.851562 C 841.898438 610.515625 857.398438 587.371094 871.789062 571.253906 C 875.617188 566.972656 878.652344 560.921875 883.683594 557.839844 C 885.710938 556.59375 888.910156 556.429688 888.910156 554.625 C 888.910156 547.238281 883.277344 540.972656 879.3125 537.054688 C 860.507812 518.460938 858.839844 521.359375 840.878906 541.289062 C 836.75 545.871094 837.84375 546.921875 832.136719 551.277344 C 828.382812 554.144531 825.996094 557.269531 822.613281 560.5 C 807.566406 574.902344 800.703125 583.507812 787.425781 601.21875 C 781.898438 608.621094 777.316406 616.101562 772.734375 624.015625 C 768.257812 631.78125 764.535156 641.230469 760.496094 649.265625 C 756.347656 657.554688 753.300781 667.8125 750.550781 676.796875 C 747.667969 686.199219 741.40625 693.167969 738.957031 703.636719 Z M 738.957031 703.636719 "/></g><path style=" stroke:none;fill-rule:evenodd;fill:#ff6d4d;fill-opacity:1;" d="M 550.597656 1065.378906 C 552.203125 1084.753906 563.109375 1082.394531 575.816406 1086.089844 C 613.453125 1096.996094 674.988281 1092.96875 708.347656 1076.945312 C 711.921875 1075.214844 715.480469 1074.554688 717.402344 1071.941406 C 715.105469 1070.996094 709.308594 1073.234375 704.667969 1074.195312 C 702.234375 1074.707031 699.800781 1074.824219 697.324219 1075.292969 C 681.402344 1078.207031 664.609375 1079.4375 648.058594 1079.4375 C 632.527344 1079.4375 603.496094 1075.546875 588.25 1071.777344 C 584.601562 1070.875 581.371094 1069.6875 577.210938 1068.757812 C 564.582031 1065.902344 557.144531 1061.445312 550.597656 1065.378906 Z M 550.597656 1065.378906 "/><path style=" stroke:none;fill-rule:evenodd;fill:#ff6d4d;fill-opacity:1;" d="M 718.335938 936.992188 C 718.335938 950.523438 745.085938 940.65625 755.164062 933.507812 C 768.425781 924.121094 783.445312 911.25 792.335938 897.582031 C 799.125 887.140625 802.683594 884.589844 802.683594 870.457031 C 797.15625 871.929688 802.414062 872.304688 794.019531 880.519531 L 785.109375 890.371094 C 762.972656 912.421875 752.535156 914.074219 729.179688 928.144531 C 726.371094 929.84375 718.335938 933.824219 718.335938 936.992188 Z M 718.335938 936.992188 "/><path style=" stroke:none;fill-rule:evenodd;fill:#ff6d4d;fill-opacity:1;" d="M 592.636719 1029.84375 C 595.867188 1031.464844 601.152344 1032.757812 605.285156 1034.121094 C 638.597656 1045.101562 689.585938 1029.859375 683.730469 1024 C 683.566406 1023.835938 668.167969 1024.707031 667.507812 1024.796875 C 658.574219 1026.058594 627.664062 1021.042969 618.171875 1018.414062 C 596.664062 1012.433594 574.570312 1020.800781 592.636719 1029.84375 Z M 592.636719 1029.84375 "/><path style=" stroke:none;fill-rule:evenodd;fill:#ff6d4d;fill-opacity:1;" d="M 634 865.769531 C 628.082031 861.804688 630.667969 859.207031 620.875 859.207031 C 617.449219 859.207031 612.972656 860.753906 610.960938 862.421875 C 608.03125 864.824219 608.675781 867.015625 604.9375 869.507812 C 602.023438 858.546875 580.082031 860.902344 574.539062 866.28125 C 573.683594 867.105469 561.605469 880.292969 567.179688 880.171875 C 569.222656 880.128906 569.824219 877.980469 571.429688 876.3125 C 578.5625 868.925781 591.179688 869.210938 598.539062 872.167969 C 603.121094 874.015625 601.378906 875.804688 605.882812 877.003906 C 608.527344 875.082031 606.515625 876.539062 607.910156 874.359375 C 610.421875 870.5 612.554688 867.480469 617.105469 866.671875 C 628.96875 864.554688 626.355469 866.894531 633.054688 871.386719 C 644.5 868.339844 629.179688 865.769531 657.429688 865.769531 C 661.425781 865.769531 672.433594 875.425781 667.855469 865.859375 C 663.394531 856.53125 649.742188 855.464844 640.984375 859.625 C 636.238281 861.878906 637.019531 863.546875 634 865.769531 Z M 634 865.769531 "/><path style=" stroke:none;fill-rule:evenodd;fill:#ff6d4d;fill-opacity:1;" d="M 591.824219 1130.039062 C 592.140625 1133.835938 594.046875 1135.1875 596.632812 1136.480469 C 617.011719 1146.589844 649.003906 1143.675781 670.332031 1139.199219 C 676.175781 1137.984375 678.488281 1136.015625 682.722656 1135.667969 L 682.722656 1133.792969 C 668.019531 1133.792969 651.8125 1134.226562 638.597656 1132.949219 C 629.660156 1132.078125 597.351562 1127.90625 591.824219 1130.039062 Z M 591.824219 1130.039062 "/><path style=" stroke:none;fill-rule:evenodd;fill:#ff6d4d;fill-opacity:1;" d="M 773.636719 976.359375 C 773.636719 985.191406 776.566406 994.425781 780.558594 1001.289062 C 782.226562 1004.175781 782.753906 1006.007812 786.75 1006.335938 C 788.085938 1000.644531 789.570312 998.722656 789.570312 989.46875 C 789.570312 985.773438 787.996094 989.140625 786.191406 979.722656 C 783.535156 965.917969 773.636719 972.859375 773.636719 976.359375 Z M 773.636719 976.359375 "/><path style=" stroke:none;fill-rule:evenodd;fill:#ff6d4d;fill-opacity:1;" d="M 757.699219 1046.632812 C 757.699219 1052.417969 761.140625 1058.320312 767.074219 1058.816406 C 768.347656 1056.410156 770.828125 1051.980469 770.828125 1048.511719 C 770.828125 1034.859375 761.15625 1015.09375 758.871094 1033.746094 C 758.273438 1038.734375 757.699219 1041.648438 757.699219 1046.632812 Z M 757.699219 1046.632812 "/><path style=" stroke:none;fill-rule:evenodd;fill:#ff6d4d;fill-opacity:1;" d="M 783.007812 1044.757812 C 783.007812 1046.589844 784.238281 1051.15625 784.871094 1052.296875 C 785.457031 1053.394531 785.832031 1054.039062 787.125 1054.773438 C 790.429688 1056.695312 791.507812 1054.382812 792.472656 1052.355469 C 793.25 1050.75 798.011719 1023.835938 788.625 1021.328125 C 784.238281 1024.554688 783.007812 1039.199219 783.007812 1044.757812 Z M 783.007812 1044.757812 "/><path style=" stroke:none;fill-rule:evenodd;fill:#ff6d4d;fill-opacity:1;" d="M 753.960938 1108.484375 C 753.960938 1113.484375 756.035156 1117.152344 759.578125 1119.734375 C 764.625 1118.398438 765.886719 1112.570312 766.125 1106.605469 C 766.457031 1098.675781 768.335938 1094.742188 765.195312 1088.808594 C 759.667969 1091.738281 760.960938 1091.105469 758.316406 1096.917969 C 757.070312 1099.609375 753.960938 1105.480469 753.960938 1108.484375 Z M 753.960938 1108.484375 "/><path style=" stroke:none;fill-rule:evenodd;fill:#ff6d4d;fill-opacity:1;" d="M 470.003906 1047.582031 C 472.074219 1038.675781 476.28125 1040.296875 471.867188 1021.328125 C 465.722656 1021.476562 461.9375 1029.0625 460.527344 1034.4375 C 459.472656 1038.386719 461.113281 1047.582031 470.003906 1047.582031 Z M 470.003906 1047.582031 "/><path style=" stroke:none;fill-rule:evenodd;fill:#ff6d4d;fill-opacity:1;" d="M 456.875 1076.628906 C 456.875 1087.699219 461.214844 1087.742188 467.179688 1087.878906 C 467.855469 1085.355469 470.003906 1083.027344 470.003906 1080.367188 C 470.003906 1074.570312 468.964844 1064.417969 467.179688 1060.691406 C 461.894531 1062.613281 462.179688 1066.96875 460.691406 1070.140625 C 459.371094 1072.964844 460.570312 1070.5 459.277344 1072.46875 C 458.722656 1073.308594 456.875 1075.996094 456.875 1076.628906 Z M 456.875 1076.628906 "/><path style=" stroke:none;fill-rule:evenodd;fill:#ff6d4d;fill-opacity:1;" d="M 489.679688 1091.617188 C 488.132812 1098.242188 487.109375 1113.800781 495.296875 1115.980469 C 497.863281 1114.265625 496.84375 1115.5 498.316406 1112.433594 C 500.6875 1107.464844 501.753906 1089.738281 496.242188 1089.738281 C 493.882812 1089.738281 491.253906 1090.835938 489.679688 1091.617188 Z M 489.679688 1091.617188 "/><path style=" stroke:none;fill-rule:evenodd;fill:#ff6d4d;fill-opacity:1;" d="M 469.058594 996.964844 C 469.058594 1002.460938 470.363281 1007.703125 476.550781 1009.144531 C 482.828125 1004.957031 485.398438 984.785156 477.496094 984.785156 C 473.667969 984.785156 469.058594 992.714844 469.058594 996.964844 Z M 469.058594 996.964844 "/><path style=" stroke:none;fill-rule:evenodd;fill:#ff6d4d;fill-opacity:1;" d="M 503.738281 1022.273438 C 503.738281 1025.472656 505.675781 1032.035156 512.164062 1032.574219 C 517.40625 1022.679688 517.328125 1021.835938 516.15625 1012.660156 C 515.617188 1008.46875 516.578125 1007.28125 512.164062 1007.28125 C 508.496094 1007.28125 503.738281 1018.441406 503.738281 1022.273438 Z M 503.738281 1022.273438 "/><path style=" stroke:none;fill-rule:evenodd;fill:#ff6d4d;fill-opacity:1;" d="M 494.363281 1061.636719 C 494.363281 1068.757812 493.417969 1073.113281 498.105469 1077.558594 C 501.890625 1075.035156 504.007812 1068.59375 505.222656 1064.058594 C 509.097656 1049.699219 502.054688 1057.492188 501.859375 1048.511719 C 497.097656 1048.902344 498.914062 1049.351562 496.738281 1053.691406 C 495.234375 1056.667969 494.363281 1057.328125 494.363281 1061.636719 Z M 494.363281 1061.636719 "/><path style=" stroke:none;fill-rule:evenodd;fill:#ff6d4d;fill-opacity:1;" d="M 481.238281 958.546875 C 481.238281 964.523438 484.8125 967.917969 490.609375 967.917969 C 491.839844 962.644531 493.433594 962.511719 493.480469 955.78125 C 493.507812 950.480469 493.417969 945.117188 493.417969 939.800781 C 487.742188 941.316406 481.238281 955.105469 481.238281 958.546875 Z M 481.238281 958.546875 "/><path style=" stroke:none;fill-rule:evenodd;fill:#ff6d4d;fill-opacity:1;" d="M 777.375 1103.796875 C 777.375 1105 779.164062 1108.722656 779.871094 1109.746094 C 781.296875 1111.847656 782.378906 1112.507812 784.886719 1113.171875 C 786.75 1111.414062 787.019531 1111.039062 788.113281 1107.972656 C 789.078125 1105.253906 789.453125 1104.21875 789.585938 1101.003906 L 789.570312 1086 C 783.203125 1086.136719 783.65625 1088.28125 781.429688 1092.847656 C 780.441406 1094.863281 777.375 1101.726562 777.375 1103.796875 Z M 777.375 1103.796875 "/><path style=" stroke:none;fill-rule:evenodd;fill:#ff6d4d;fill-opacity:1;" d="M 519.671875 977.289062 L 519.671875 983.851562 C 519.671875 996.019531 529.976562 984.589844 529.976562 975.410156 L 529.976562 964.164062 C 529.976562 960.585938 530.261719 963.832031 529.03125 961.355469 C 525.214844 962.375 525.441406 964.734375 524.148438 968.652344 C 523.171875 971.566406 519.671875 975.472656 519.671875 977.289062 Z M 519.671875 977.289062 "/><path style=" stroke:none;fill-rule:evenodd;fill:#ff6d4d;fill-opacity:1;" d="M 694.605469 935.714844 C 700.429688 960.769531 715.644531 931.707031 702.382812 932.367188 C 698.824219 932.53125 696.691406 934.320312 694.605469 935.714844 Z M 694.605469 935.714844 "/></g></svg>