<svg xmlns="http://www.w3.org/2000/svg" width="px" height="px" viewBox="0 0 388 381"><defs><clipPath id="a"><path d="M.227 0h387.648v381H.227Zm0 0"/></clipPath></defs><g clip-path="url(#a)"><path d="M301.973 263.855c2.77 2.336 5.418 4.649 8.297 6.7 2.793 1.984 5.793 3.75 8.027 6.433 1.348 1.625 2.687 3.258 3.93 4.965 1.406 1.938 2.734 3.934 4.035 5.945 1.36 2.094 2.613 4.235 3.324 6.68.496 1.68.125 3.348.242 5.016.035.441-.148.902-.277 1.344-.574 1.972-2.266 3.417-4.781 3.55-1.368.07-2.805.043-4.106-.316-1.68-.469-3.371-.98-4.922-1.887-2.898-1.683-5.36-3.965-8.117-5.832-.742-.5-1.414-1.121-2.055-1.754-1.824-1.808-3.789-3.433-5.832-4.988a114 114 0 0 1-6.758-5.59c-2.207-1.96-4.277-4.066-6.421-6.09-.477-.453-1.012-.844-1.532-1.246-.23-.18-.367-.652-.808-.285-.344.29-.34.586-.239 1.008.415 1.734 1.418 3.097 2.614 4.336.52.539 1.156.972 1.726 1.46.258.223.485.485.73.727 5.27 5.18 10.516 10.38 15.821 15.528 2.344 2.273 4.8 4.425 7.195 6.644 1.66 1.543 3.305 3.106 4.95 4.66 1.789 1.692 3.66 3.309 5.343 5.098 1.754 1.86 3.332 3.879 4.989 5.832.617.723 1.218 1.457 1.867 2.152 2.172 2.325 3.738 5.098 5.644 7.614 1.567 2.066 2.625 4.378 3.743 6.664.554 1.129 1.074 2.382 1.14 3.605.13 2.313-.508 4.399-2.652 5.785-1.418.918-2.82 1.782-4.438 2.367-2.007.73-3.832.641-5.761-.19-2.426-1.04-4.829-2.11-6.97-3.669-2.077-1.516-4.316-2.816-6.1-4.726-1.114-1.192-2.485-2.141-3.567-3.352-2.266-2.523-4.606-4.996-6.457-7.863-.102-.16-.262-.282-.395-.426-1.277-1.371-2.605-2.7-3.812-4.133-1.508-1.797-2.895-3.687-4.367-5.512-1.07-1.324-2.23-2.582-3.301-3.91-3.426-4.234-7.211-8.129-11.059-11.972-1.789-1.793-3.449-3.72-5.07-5.66-1.285-1.536-2.36-3.247-3.66-4.77-1.133-1.324-2.434-2.508-3.7-3.711-.199-.191-.613-.211-.93-.211-1.57-.008-3.144-.078-4.706.266-.95.21-1.613 1.27-1.192 2.156.758 1.594 1.711 3.07 2.903 4.363 1.8 1.953 3.691 3.82 5.46 5.805 1.348 1.508 2.532 3.16 3.86 4.683.621.711 1.434 1.247 2.137 1.88 2.644 2.386 4.574 5.335 6.46 8.312a60 60 0 0 1 2.735 4.726 15.15 15.15 0 0 1 1.633 8.68c-.148 1.395-.957 2.613-2.05 3.524-.626.52-1.403.859-2.087 1.312-2 1.336-4.105 1.332-6.273.523-2.34-.867-4.371-2.261-6.36-3.73-1.96-1.453-3.836-3.027-5.433-4.879-1.914-2.203-3.723-4.504-5.563-6.773-.492-.614-.875-1.317-1.394-1.907a278 278 0 0 0-5.38-5.972c-2.14-2.301-4.358-4.535-6.503-6.832-2.031-2.172-3.992-4.407-6.012-6.586-1.808-1.95-3.597-3.918-5.504-5.766-1.218-1.187-2.777-1.902-4.437-2.32-.477-.121-.879.105-.91.644-.16 2.75.113 5.38 1.57 7.848 1.844 3.137 4.348 5.672 6.984 8.066 1.477 1.34 3.086 2.54 4.496 3.97 3.024 3.054 4.958 6.667 6.016 10.847.414 1.64.684 3.265.5 4.89-.371 3.286-.906 6.551-2.09 9.672-.8 2.114-1.398 4.313-2.324 6.36-.73 1.613-1.734 3.12-2.777 4.562-1.61 2.235-3.383 4.356-5.043 6.563-1.582 2.113-3.102 4.277-4.664 6.414-1.094 1.5-2.192 3-3.309 4.484-2.742 3.645-6.078 6.738-9.336 9.89-1.805 1.74-3.722 3.403-5.992 4.579-2.523 1.308-5.004 1.101-7.316-.363-1.57-.993-3.106-2.184-3.407-4.25-.144-1.032-.382-2.125-.199-3.118.441-2.363 1.262-4.625 2.512-6.714a175 175 0 0 0 3.203-5.555c.64-1.149 1.316-2.297 1.742-3.527.692-2.008 1.836-3.754 2.95-5.512 1.57-2.477 3.382-4.79 5.566-6.777a9.4 9.4 0 0 0 2.476-3.665c.075-.191.11-.402.16-.605-.261.023-.585-.043-.777.086-.547.367-1.058.785-1.543 1.23-2.691 2.489-4.89 5.371-6.96 8.387-1.684 2.457-3.587 4.762-5.352 7.168-1.758 2.387-3.38 4.879-5.215 7.203-1.817 2.297-3.656 4.637-6.434 5.899-1.832.836-3.758 1.359-5.765 1.636-2.016.278-4.016.676-6.055.547-3.527-.219-5.613-1.777-7.156-5.262a10.4 10.4 0 0 1-.86-3.292c-.078-.942.211-1.93.422-2.88.574-2.554 2.063-4.66 3.531-6.73a47.4 47.4 0 0 1 6.282-7.226c1.625-1.532 3.226-3.102 4.726-4.758 1.235-1.348 2.293-2.852 3.438-4.278 1.203-1.503 2.398-3.015 3.625-4.503 1.465-1.79 3-3.532 4.43-5.348.855-1.082 1.472-2.313 1.597-3.727.004-.05 0-.101 0-.148-.012-.555.77-1.262.043-1.578-.363-.156-1.172.414-1.637.816-1.414 1.23-2.761 2.54-4.136 3.82-1.41 1.31-2.88 2.56-4.211 3.946-2.125 2.219-4.18 4.496-6.211 6.8-1.563 1.77-3.063 3.602-4.555 5.434a178 178 0 0 1-5.36 6.285c-2.644 2.965-5.71 5.348-9.128 7.285-1.23.7-2.649 1.082-4.121.993-1.473-.086-2.953-.125-4.414-.305-2.688-.332-5.09-3.8-4.563-6.48.203-1.04.524-2.079.555-3.125.043-1.383.578-2.614 1.062-3.82 1.66-4.138 4.04-7.868 6.684-11.446 1.683-2.285 3.668-4.336 5.094-6.817.824-1.43 1.754-2.8 2.687-4.164.785-1.148 1.598-2.285 2.484-3.363 1.653-2.012 3.364-3.98 5.06-5.96 1.237-1.446 2.542-2.837 3.706-4.333a46 46 0 0 0 3.094-4.43c2.086-3.421 4.152-6.859 6.11-10.359 1.073-1.922 1.757-4.02 1.816-6.277.015-.5.21-.992.277-1.492.215-1.618-.285-3.07-1.25-4.309-.91-1.168-1.98-2.211-2.977-3.313-.253-.28-.418-.261-.828-.125-1.652.567-3.086 1.407-4.336 2.625-1.984 1.93-3.632 4.141-5.382 6.266-.848 1.035-1.813 1.977-2.676 3a287 287 0 0 0-4.04 4.918c-1.527 1.899-3.073 3.79-4.542 5.738-1.196 1.582-2.274 3.258-3.43 4.871-1.328 1.848-2.633 3.72-4.047 5.5-1.875 2.368-3.86 4.649-5.773 6.985-2.055 2.512-4.188 4.969-6.082 7.597-2.782 3.848-6.27 7.012-9.543 10.395-.727.75-1.383 1.574-2.074 2.36-.13.144-.274.277-.415.413-1.617 1.618-3.367 3.125-4.812 4.88a87 87 0 0 1-7.188 7.695c-2.058 1.96-4.265 3.738-6.777 5.156-1.605.91-3.203 1.66-5.02 2.039-2.14.453-5.355.371-7.187-.473-2.664-1.218-5.164-2.707-7.203-4.863-1.223-1.289-2.484-2.559-3.606-3.934-.824-1.011-1.374-2.199-1.203-3.601.063-.527.024-1.074.008-1.61-.086-2.648.649-5.12 1.633-7.527a69 69 0 0 1 2.172-4.812 58.7 58.7 0 0 1 5.336-8.641c1.117-1.508 2.402-2.82 3.644-4.2 1.778-1.972 3.461-4.027 5.188-6.046.094-.113.207-.207.308-.313 1.899-2 3.813-3.976 5.688-5.996 2.055-2.214 4.066-4.468 6.113-6.691 1.434-1.559 2.864-3.129 4.348-4.64 2.562-2.614 5.207-5.153 7.742-7.79 1.824-1.902 3.461-3.969 4.996-6.12 1.117-1.563 2.399-3.013 3.602-4.516 3.402-4.258 7.238-8.11 11.05-11.985 1.727-1.75 2.813-3.933 3.454-6.324.152-.566.43-1.098.562-1.668.125-.504.047-.816-.687-.867-3.176-.246-5.93.836-8.438 2.617-1.828 1.293-3.539 2.762-5.324 4.121-1.441 1.098-2.922 2.137-4.375 3.219-1.941 1.441-3.84 2.945-5.816 4.336-2.614 1.847-4.754 4.191-6.985 6.445-1.77 1.781-3.45 3.649-5.187 5.465-2.61 2.73-5.227 5.457-7.864 8.16-1.972 2.02-4 3.984-5.976 6-4.492 4.578-9.047 9.098-13.426 13.781-3.168 3.387-6.223 6.868-9.55 10.09-1.665 1.613-3.364 3.184-5.052 4.774-1.683 1.586-3.5 3.058-5.011 4.8-1.407 1.618-2.711 3.332-4.29 4.79-2.257 2.085-4.69 3.937-7.413 5.41-1.918 1.039-3.88 1.906-5.996 2.503-1.524.43-3.024.864-4.622.844-.73-.004-1.464-.027-2.195.004-2.738.11-5.36-.594-7.84-1.57-2.226-.88-4.011-2.524-4.918-4.867-.258-.68-.468-1.465-.394-2.164.164-1.59.347-3.223.847-4.73.582-1.743 1.434-3.419 2.313-5.044.844-1.566 1.824-3.062 2.828-4.543a169 169 0 0 1 3.887-5.418c1.226-1.648 2.43-3.328 3.777-4.875 1.684-1.926 3.434-3.804 5.281-5.566 1.422-1.363 3.055-2.504 4.578-3.758a790 790 0 0 0 5.227-4.352 840 840 0 0 0 5.738-4.87c.836-.712 1.618-1.481 2.473-2.165 1.973-1.586 3.965-3.136 5.96-4.691 1.474-1.145 2.981-2.242 4.442-3.402a299 299 0 0 0 6.137-4.977c1.606-1.344 3.148-2.758 4.73-4.133 2.118-1.836 4.31-3.59 6.34-5.515 1.785-1.688 3.387-3.575 5.098-5.34.734-.754 1.582-1.395 2.332-2.133 1.262-1.258 2.488-2.55 3.73-3.832.16-.168.278-.38.434-.55 1.45-1.552 2.906-3.09 4.34-4.65 2.012-2.19 4-4.398 6.008-6.59 1.3-1.417 2.61-2.835 3.933-4.23 2.266-2.386 4.582-4.726 6.809-7.148.77-.844 1.379-1.852 1.965-2.844.476-.793.281-1.117-.598-.883-1.031.274-2.086.696-2.96 1.297-3.169 2.176-6.27 4.45-9.376 6.711-4.015 2.922-8.031 5.844-12.012 8.813-2.957 2.203-5.804 4.554-8.8 6.699-1.989 1.426-3.86 2.976-5.735 4.547-2.324 1.949-4.504 4.027-6.66 6.144-2.77 2.715-5.582 5.387-8.36 8.09-4 3.895-8.007 7.785-11.98 11.715-1.468 1.453-2.789 3.062-4.257 4.52-2.2 2.18-4.458 4.3-6.704 6.43-1.18 1.116-2.414 2.171-3.574 3.312-.777.77-1.402 1.695-2.191 2.445-2.528 2.41-5.18 4.668-8.055 6.672-1.777 1.234-3.371 2.726-5.035 4.117-1.887 1.582-3.754 3.184-5.64 4.762-1.63 1.36-3.247 2.73-4.919 4.035-2.351 1.832-4.71 3.656-7.14 5.379-2.489 1.77-5.13 3.297-8.125 4.047-2.075.52-4.14.593-6.293.23-1.23-.207-2.477-.375-3.692-.672-1.8-.433-3.14-1.418-3.687-3.281-.297-1.008.07-1.95.379-2.855.695-2.051 1.5-4.063 2.254-6.098.187-.508.422-1.02.488-1.547.152-1.176.336-2.367.285-3.539-.09-2.031.586-3.84 1.516-5.535a81 81 0 0 1 3.941-6.422c1.621-2.402 3.55-4.516 6.035-6.11 3.602-2.308 7.137-4.714 10.66-7.14 3.57-2.453 7.403-4.426 11.239-6.438 3.437-1.804 6.855-3.687 9.883-6.183a277 277 0 0 1 5.824-4.664c2.058-1.61 4.18-3.137 6.207-4.785 1.304-1.059 2.527-2.22 3.71-3.414 1.766-1.786 3.383-3.723 5.208-5.442 1.605-1.508 3.363-2.867 5.14-4.176 2.414-1.785 4.989-3.351 7.34-5.207 1.59-1.257 2.875-2.894 4.363-4.289 1.778-1.664 3.625-3.254 5.438-4.883.254-.226.488-.476.727-.718 1.789-1.848 3.777-3.457 5.835-4.989.918-.683 1.739-1.492 2.579-2.27 1.726-1.612 3.468-3.214 5.148-4.87 3.227-3.184 6.461-6.36 9.594-9.633a53 53 0 0 0 4.64-5.547c1.11-1.531 2.16-3.164 2.516-5.098.164-.914.23-1.851.441-2.75.516-2.195.297-4.421.23-6.62-.034-1.15-.51-2.305-.898-3.419-.91-2.625-1.578-5.312-2.3-7.988-.98-3.629-2.207-7.191-3.262-10.8-.805-2.747-1.754-5.43-3.164-7.919-1.258-2.226-2.66-4.367-3.984-6.554-.922-1.52-1.887-3.02-2.711-4.594-.871-1.66-1.836-3.203-3.168-4.555a110 110 0 0 1-6-6.597c-1.36-1.625-2.477-3.457-3.735-5.176a301 301 0 0 0-4.261-5.707 364 364 0 0 0-4.344-5.524c-.563-.703-1.172-1.367-1.754-2.054-1.074-1.266-2.164-2.516-3.203-3.809-.965-1.195-1.88-2.434-2.797-3.668-1.664-2.238-3.36-4.457-4.957-6.738-1.547-2.207-3.059-4.43-4.746-6.535-2.004-2.5-3.817-5.149-5.719-7.73-1.133-1.536-2.258-3.075-3.418-4.587-1.77-2.308-3.473-4.664-4.84-7.23-1.73-3.235-3.824-6.235-5.816-9.305-1.559-2.39-3.067-4.824-4.797-7.09-3.113-4.078-5.914-8.37-8.738-12.648a65 65 0 0 1-2.93-4.938c-1.18-2.191-2.387-4.379-3.375-6.656-2.012-4.648-4.008-9.305-5.156-14.277-.305-1.336-.422-2.668-.61-4.004-.195-1.438-.238-2.856-.23-4.285.004-1.567.348-3.012 1.445-4.239.817-.91 1.75-1.543 2.985-1.586 1.218-.039 2.44.043 3.656-.02 2.039-.105 3.758.75 5.445 1.712 1.649.933 2.524 2.543 3.516 4.074 1.668 2.563 2.758 5.453 4.601 7.914 1.192 1.586 2.32 3.227 4.055 4.305.281.176.488.472.73.719 1.899 1.894 3.754 3.84 5.7 5.687 2.965 2.813 5.285 6.133 7.652 9.434 1.293 1.808 2.582 3.629 3.934 5.394 2.859 3.727 5.746 7.426 8.433 11.29 2.39 3.445 4.57 7.019 6.961 10.46 1.688 2.43 3.395 4.848 5.086 7.27 1.348 1.93 2.645 3.902 4.05 5.789 1.458 1.953 3.016 3.836 4.54 5.738 2.027 2.531 4.039 5.078 6.113 7.57 1.465 1.762 3.04 3.43 4.54 5.157 1.808 2.078 3.59 4.175 5.382 6.265 1.242 1.438 2.5 2.864 3.723 4.32.781.934 1.523 1.903 2.27 2.864.976 1.258 1.929 2.523 2.91 3.773 1.472 1.883 2.91 3.801 4.464 5.614 1.106 1.289 2.395 2.421 3.574 3.644 1.008 1.043 2.34 1.106 3.618 1.149 3.949.132 7.68-.743 11.355-2.243 1.86-.761 3.828-1.437 5.942-1.597 1.808-.14 3.574-.778 5.375-1.098.757-.137 1.57.059 2.335-.039 3.473-.438 6.31.918 9.09 2.824 3.43 2.348 5.828 5.446 7.364 9.227.613 1.508.988 3.125 1.316 4.726.508 2.426.871 4.875 1.617 7.246.91 2.895 1.887 5.766 2.774 8.664.464 1.524.77 3.098 1.203 4.633.383 1.383.418 1.422 1.824 1.364 1.375-.055 2.742.14 4.137-.239a9.1 9.1 0 0 0 3.593-1.902c1.547-1.324 2.891-2.856 3.907-4.66 1.625-2.899 3.347-5.738 4.953-8.645 1.687-3.054 3.344-6.129 4.914-9.246 2.414-4.808 4.683-9.683 7.117-14.48 1.356-2.672 2.816-5.301 4.406-7.84 1.625-2.586 2.985-5.3 4.344-8.024 2.676-5.379 5.242-10.816 7.934-16.191.918-1.828 2.07-3.54 3.113-5.305 1.383-2.355 2.75-4.718 4.14-7.074 1.715-2.902 3.47-5.785 5.16-8.703.817-1.41 1.528-2.883 2.29-4.324 1.14-2.164 2.332-4.305 3.41-6.5 1.496-3.035 2.84-6.153 4.363-9.176 1.992-3.95 4.258-7.742 6.7-11.438 1.054-1.597 1.992-3.273 3-4.906 1.03-1.676 2.081-3.332 3.113-5.011.91-1.473 1.82-2.954 2.687-4.45 1.297-2.242 2.684-4.449 3.797-6.781 1.024-2.152 2.3-4.14 3.574-6.129 2.145-3.336 5.047-5.879 8.688-7.492 3.43-1.524 6.398-3.754 9.394-5.95 1.254-.921 2.637-1.613 4.16-1.956.856-.196 1.711.148 2.372.597 1.949 1.325 3.836 2.793 5.148 4.782a3.19 3.19 0 0 1-.05 3.597c-.43.625-.4.989-.177 1.617.555 1.582 1.172 3.176 1.442 4.817.348 2.133.765 4.363.008 6.476-.563 1.563-1.434 3.024-2.203 4.504-.688 1.332-1.563 2.578-2.125 3.957a62 62 0 0 1-4.063 8.133c-.969 1.637-1.793 3.36-2.7 5.031-.816 1.516-1.616 3.047-2.5 4.532-1.276 2.16-2.636 4.277-3.933 6.43-1.851 3.07-3.613 6.19-5.16 9.429-1.683 3.508-3.394 6.996-5.086 10.492-2.066 4.274-4.117 8.551-6.195 12.817-1.723 3.535-3.426 7.082-5.238 10.57-1.086 2.102-2.352 4.11-3.555 6.148a860 860 0 0 1-3.45 5.75c-1.534 2.536-3.179 5.02-4.593 7.621-1.531 2.82-2.879 5.739-4.258 8.633-1.21 2.524-2.277 5.121-3.555 7.61-1.015 1.984-2.222 3.875-3.406 5.765-1.824 2.914-3.656 5.825-5.566 8.68-1.344 2-2.817 3.918-4.25 5.86-1.793 2.433-3.535 4.863-4.61 7.761a17.5 17.5 0 0 1-2.156 4.106c-1.203 1.671-1.976 3.656-2.957 5.492-1.523 2.84-2.394 5.941-3.613 8.906-.914 2.21-.328 3.992.883 5.773.492.723 1.027 1.422 1.492 2.168.867 1.387 2.09 2.184 3.707 2.414.933.137 1.41-.046 1.855-.816 1.567-2.719 3.102-5.46 4.692-8.164 1.465-2.477 2.988-4.914 4.472-7.379 1.149-1.914 2.336-3.809 3.403-5.766 1.425-2.628 2.703-5.335 4.133-7.957a192 192 0 0 1 6.296-10.73c2.004-3.184 3.641-6.602 5.532-9.86 3.64-6.273 6.672-12.855 9.902-19.34 1.102-2.218 2-4.534 2.887-6.859.863-2.27 2.117-4.394 3.172-6.593 1.582-3.301 3.277-6.536 4.554-9.98.746-2.028 1.942-3.884 2.848-5.852 1.242-2.707 2.496-5.407 3.46-8.239.802-2.34 1.962-4.558 2.849-6.875 1.43-3.75 3.843-6.925 5.96-10.261.891-1.399 2.313-2.485 3.575-3.622a4.16 4.16 0 0 1 1.797-.921c3.714-.84 6.941.109 9.757 2.699 1.555 1.426 2.934 2.984 4.098 4.73 1.82 2.735 3.262 5.653 4.117 8.84.074.277-.008.586.012.879.113 1.57-.281 3.172.289 4.715.016.043.004.098 0 .144-.184 1.391-.379 2.778-.547 4.168-.047.38-.008.774-.043 1.157-.183 2.12-.289 4.25-.601 6.347a38.5 38.5 0 0 1-4.434 13.102c-1.715 3.113-3.422 6.222-5.355 9.21-2.004 3.106-3.864 6.298-5.688 9.509-1.496 2.64-2.781 5.402-4.285 8.035-2.195 3.836-4.29 7.726-6.695 11.441-1.36 2.102-2.606 4.281-3.832 6.465-1.426 2.531-2.79 5.094-4.145 7.66-2.055 3.883-4.043 7.8-6.121 11.672a96 96 0 0 1-6.18 10.047c-2.222 3.152-4.406 6.348-6.394 9.656-1.414 2.36-2.43 4.95-3.051 7.664-.254 1.11-.594 2.196-.863 3.301-.23.938.23 1.363 1.191 1.566 2.531.536 3.785-1.261 5.156-2.757 1.032-1.133 1.883-2.43 2.809-3.66a54 54 0 0 0 3.433-5.169c1.368-2.32 2.825-4.59 4.223-6.894 1.016-1.676 2.004-3.367 3.004-5.05 1.277-2.161 2.54-4.325 3.832-6.474 1.227-2.035 2.488-4.046 3.719-6.078a554 554 0 0 0 3.515-5.867c.508-.86.985-1.738 1.45-2.62 2.187-4.122 4.566-8.126 7.261-11.93a84 84 0 0 1 3.93-5.106c1.426-1.73 3.05-3.297 4.41-5.074 1.606-2.098 3.696-3.508 5.95-4.703 1.167-.621 2.421-1.082 3.82-1.047.98.023 1.969-.246 2.953-.246s2.031-.012 2.937.304c2.621.922 4.641 2.516 5.18 5.465.465 2.555.383 5.098.027 7.672-.351 2.527-1.546 4.64-2.808 6.758-1.516 2.543-3.051 5.078-4.531 7.644-1.497 2.598-2.848 5.282-4.418 7.832-2.176 3.536-4.055 7.235-6.313 10.73-2.23 3.454-4.605 6.79-6.965 10.15-1.523 2.163-2.855 4.468-4.258 6.722-1.086 1.746-2.132 3.516-3.226 5.254-1.719 2.73-3.121 5.633-4.527 8.527-1.422 2.926-2.778 5.88-4.145 8.832-.55 1.188-1.148 2.364-1.543 3.606-.496 1.562-.809 3.183-1.191 4.781-.047.184-.047.371-.063.559-.055.496-.316 1.12-.11 1.453.333.53.915 1.07 1.497 1.234 2.625.746 5.074.309 7.133-1.562 1.93-1.754 3.789-3.586 5.68-5.375 1.648-1.559 3.292-3.118 4.949-4.665 1.23-1.148 2.382-2.402 3.726-3.394 2.14-1.578 3.606-3.77 5.29-5.73 1.956-2.266 3.503-4.883 5.265-7.317.879-1.215 1.832-2.367 2.754-3.55 1.414-1.805 2.836-3.606 4.238-5.423.543-.695.977-1.48 1.57-2.125 1.864-2.027 3.79-3.996 5.676-6.003.95-1.016 1.977-1.985 2.762-3.114a9.6 9.6 0 0 0 1.394-3.07c.453-1.79 1.489-3.203 2.703-4.434 1.81-1.836 3.711-3.617 5.766-5.164 1.43-1.074 3.024-1.898 4.98-2.144 1.504-.188 2.848.008 4.212.344 2.125.523 3.265 2.25 4.269 3.996.445.777.715 1.687.668 2.66-.035.687.23 1.383.254 2.078.105 2.547-.727 4.926-1.484 7.293-.805 2.488-1.754 4.933-3.067 7.222-.953 1.649-1.953 3.231-3.203 4.692-2.414 2.809-5.047 5.437-6.977 8.664-1.46 2.445-3.25 4.695-4.691 7.152-.687 1.184-.973 2.625-1.32 3.985-.18.71 1.367 1.988 2.293 2.144 1.468.242 2.605-.367 3.535-1.36 1-1.066 1.953-2.187 2.793-3.382 2.097-2.992 3.875-6.187 5.722-9.34 1.07-1.828 2.32-3.562 3.625-5.23 1.512-1.942 2.891-3.992 4.727-5.676 1.762-1.617 3.64-3.004 5.98-3.602 2.586-.66 5.301-.933 7.731.235 2.379 1.148 4.21 2.953 4.605 5.918.2 1.492.332 2.98.176 4.426-.168 1.511-.629 3.046-1.242 4.449-1.137 2.586-2.59 5-4.621 7.023-3.969 3.953-7.945 7.906-11.875 11.903-1.531 1.566-2.926 3.265-3.828 5.292-.695 1.567-1.93 2.895-2.098 4.704-.015.168-.355.207-.078.535.93 1.12 2.602 1.969 4.215.906 1.23-.809 2.484-1.598 3.648-2.496 2.043-1.578 3.97-3.324 6.067-4.82a26 26 0 0 0 3.355-2.836c1.344-1.348 2.73-2.657 4.024-4.051 1.125-1.215 2.039-2.64 3.25-3.754 1.46-1.348 3.168-2.356 5.293-2.39 1.3-.024 2.316.515 3.277 1.296 1.543 1.25 2.36 2.969 2.937 4.785.414 1.305.914 2.703.817 4.02-.102 1.312-.117 2.758-.926 3.984-1.152 1.758-2.187 3.59-3.328 5.356-1.36 2.097-2.86 4.062-4.621 5.867-2.09 2.14-3.938 4.512-5.934 6.746-1.41 1.586-2.89 3.106-4.34 4.652-1.484 1.582-3.007 3.13-4.433 4.762-1.203 1.375-2.207 2.93-3.45 4.266-1.585 1.707-3.5 2.715-5.94 2.98-4.016.43-8.024.074-12.032.246a37 37 0 0 0-3.39.297c-1.266.176-2.442-.223-3.52-.695-2.48-1.094-4.875-2.383-7.285-3.64-5.133-2.669-9.852-5.954-14.641-9.157-.84-.559-1.676-1.129-2.531-1.668-.418-.262-.871-.613-1.332-.648-2.098-.16-4.219-.407-6.309-.262-1.582.117-2.965 1.097-4.242 2.086a182 182 0 0 1-3.672 2.793c-.476.347-.984.68-1.523.914-1.125.476-1.297.816-.696 1.918.328.605.743 1.172 1.164 1.715.59.742 1.23 1.441 1.832 2.175 1.247 1.528 2.47 3.086 3.735 4.598.484.578 1.062 1.082 1.672 1.691m-187.82-29.523q2.107-1.535 4.214-3.078c2.176-1.582 4.324-3.207 6.535-4.734a118 118 0 0 1 6.23-4.036c1.302-.785 2.802-1.004 4.298-1.308 3.242-.66 6.367.804 7.3 3.98.118.403 0 .875.13 1.27.581 1.797.234 3.465-.473 5.152-.957 2.277-2.563 4.11-4.184 5.867-3.351 3.64-6.875 7.121-10.312 10.688a100 100 0 0 0-3.309 3.605c-1.914 2.18-3.684 4.496-5.723 6.551-4.957 5.008-10.027 9.906-15.07 14.836-1.234 1.207-2.527 2.36-3.809 3.523a72 72 0 0 1-2.253 1.965c-2.286 1.91-4.579 3.801-6.86 5.707-.765.64-1.46 1.38-2.273 1.953-3.23 2.29-6.477 4.555-9.469 7.16q-1.078.939-2.156 1.864a2590 2590 0 0 1-6.156 5.285c-1.293 1.11-2.57 2.242-3.903 3.309-1.71 1.379-3.582 2.574-5.172 4.078a107 107 0 0 0-6.726 7.02c-1.492 1.71-2.735 3.636-4.075 5.48-.976 1.347-1.851 2.777-2.898 4.062-1.937 2.375-2.883 5.25-4.086 7.98-.543 1.227.008 2.255 1.297 2.75 1.094.423 2.27.782 3.43.872 3.207.25 6.379.015 9.28-1.586 1.63-.902 3.294-1.766 4.821-2.82 1.36-.938 2.68-1.997 3.79-3.211 2.066-2.258 3.78-4.82 6.199-6.782 1.675-1.363 3.203-2.921 4.753-4.437a422 422 0 0 0 6.602-6.613c1.176-1.2 2.277-2.473 3.426-3.704 1.539-1.652 3.062-3.324 4.644-4.933a633 633 0 0 1 7.239-7.25c.433-.43 1.011-.715 1.418-1.156 1.507-1.66 2.914-3.414 4.472-5.024 5.793-5.996 11.918-11.668 17.406-17.969 1.75-2.007 3.899-3.675 5.942-5.406 1.492-1.258 3.117-2.36 4.676-3.539 2.043-1.55 4.078-3.11 6.12-4.656 1.97-1.492 3.9-3.035 5.923-4.445 2.71-1.887 5.71-3.317 8.98-3.692 2.309-.262 4.707-.328 7.043.211 1.633.379 3.54 2.004 3.629 3.516.125 2.226.129 4.453-.531 6.648-1.332 4.426-3.602 8.25-6.867 11.516-2.895 2.894-5.91 5.68-8.403 8.96-1.62 2.137-3.469 4.106-5.039 6.278-2.496 3.457-5.465 6.488-8.41 9.54-4.273 4.413-8.758 8.616-12.738 13.316-1.84 2.175-3.91 4.152-5.88 6.218-.167.176-.355.336-.515.52-1.691 1.98-3.367 3.98-5.074 5.949a83 83 0 0 1-3 3.297c-2.152 2.223-3.75 4.84-5.238 7.504-1.72 3.082-3.356 6.238-4.043 9.746-.317 1.637-.239 3.25 1.191 4.59 1.922 1.797 3.89 3.476 6.324 4.543.567.25 1.106.398 1.723.457 2.086.207 3.82-.692 5.418-1.778 2.805-1.902 5.488-3.949 7.629-6.668 1.62-2.062 3.46-3.964 5.258-5.882a499 499 0 0 1 7.03-7.344c1.911-1.957 3.86-3.871 5.794-5.805.238-.242.512-.465.719-.73 1.316-1.696 2.601-3.422 3.941-5.098 1.383-1.734 2.832-3.418 4.234-5.137 1.668-2.043 3.317-4.093 4.97-6.14 1.21-1.504 2.472-2.965 3.609-4.52a167 167 0 0 0 4.66-6.71c2.136-3.255 4.73-6.157 7.164-9.18 1.43-1.782 3.023-3.438 4.535-5.157.66-.75 1.348-1.476 1.96-2.265 1.302-1.68 2.575-3.348 4.317-4.649 2.309-1.722 4.637-3.23 7.602-3.613.816-.11 1.57 0 2.195.223.688.246 1.379.789 1.617 1.746.125.52.801.93 1.274 1.34 1.61 1.398 3.5 2.418 4.86 4.191 1.292 1.687 1.925 3.46 1.972 5.496.02.934-.207 1.871-.266 2.809-.07 1.086-.012 2.16-.265 3.254-.43 1.87-.868 3.714-1.747 5.437-1.707 3.324-3.75 6.453-5.558 9.715a59.6 59.6 0 0 1-6.149 9.016c-1.941 2.347-3.964 4.625-6 6.89-1.816 2.02-3.457 4.156-4.886 6.469-1.207 1.957-2.368 3.973-3.836 5.723-1.719 2.046-3.356 4.148-4.797 6.386-1.645 2.547-3.203 5.168-4.063 8.125-.265.895-.562 1.79-.449 2.735.02.183.192.488.297.488.938 0 1.895.176 2.793-.293 1.91-.996 3.582-2.34 5.164-3.758 1.777-1.59 3.352-3.39 4.809-5.305 1.89-2.484 3.953-4.828 5.984-7.199 1.55-1.812 3.086-3.656 4.766-5.34 3.894-3.898 7.593-8.007 11.96-11.406 1.801-1.41 3.723-2.48 6.165-2.457 2.785.031 4.953 2.11 5.761 4.297.832 2.246.586 4.453.008 6.7-.48 1.866-1.183 3.66-2.304 5.19-1.418 1.942-3.086 3.708-4.622 5.567-1.222 1.488-2.418 3-3.625 4.504-1.554 1.941-3.03 3.953-4.675 5.812-1.45 1.645-3.07 3.141-4.641 4.676-.61.598-1.36 1.055-1.926 1.68-.758.828-1.402 1.754-2.086 2.644-1.285 1.68-2.523 3.375-3.379 5.34-.37.852-.343 1.676-.164 2.485.203.902.813 1.277 1.778 1.238.984-.047 1.968-.18 2.953-.285.887-.094 1.793-.11 2.644-.332 2.66-.696 4.793-2.196 6.27-4.531 1.969-3.118 4.285-5.97 6.539-8.868a112 112 0 0 0 3.703-5.058c2.64-3.848 5.348-7.617 9.008-10.598 2.36-1.926 4.91-3.273 8.07-3.152 1.86.07 3.672 1.273 4.293 3.031 1.168 3.32.762 6.543-1 9.492-1.004 1.68-2.312 3.23-3.71 4.61-2.723 2.683-4.763 5.8-6.415 9.222-1.582 3.27-3.226 6.504-5.207 9.57-.844 1.301-1.25 2.895-1.785 4.38-.176.492.023.976.656 1.019.465.027.883.043 1.324-.352 1.836-1.636 3.809-3.129 5.602-4.808 1.578-1.48 3.023-3.106 4.457-4.735 1.465-1.664 2.91-3.359 4.238-5.132 2.172-2.895 3.961-6.063 6.407-8.774 1.27-1.41 2.3-3.043 3.437-4.57 1.563-2.094 3.004-4.254 3.828-6.766.899-2.762 2.063-5.426 2.59-8.32.148-.836.09-1.672.277-2.5.203-.914.407-1.957.168-2.824-.53-1.953-1.136-3.903-2.257-5.653-.954-1.48-1.961-2.898-3.286-4.047-1.636-1.421-3.382-2.718-4.996-4.168-2.476-2.214-4.496-4.828-6.222-7.667-1.407-2.32-2.547-4.778-2.743-7.493-.164-2.242-.316-4.547.286-6.75.406-1.511 1.316-2.812 2.921-3.336 1.47-.476 3.024-.62 4.504-1.128.743-.254 1.735-.086 2.528.167 2.847.903 5.34 2.457 7.476 4.54 1.203 1.175 2.293 2.46 3.426 3.703 2.035 2.23 4.055 4.48 6.11 6.691 1.773 1.914 3.59 3.785 5.37 5.691.715.766 1.375 1.579 2.075 2.36 1.722 1.926 3.46 3.836 5.168 5.773a151 151 0 0 1 3.406 4.008c1.125 1.379 2.168 2.836 3.34 4.172a36 36 0 0 0 3.187 3.195c1.864 1.664 3.809 3.215 6.149 4.219.578.25 1.11.402 1.601.145.637-.332.278-1.043.352-1.586.012-.086-.04-.18-.063-.27-.543-2.031-1.382-3.898-2.53-5.695-2.173-3.39-4.458-6.656-7.497-9.344a26 26 0 0 1-2.273-2.277c-1.852-2.102-3.555-4.352-5.524-6.332a48 48 0 0 1-5.676-6.895c-1.757-2.598-2.488-5.293-1.32-8.355.95-2.485 2.512-4.336 5.098-5.11.886-.27 1.87-.187 2.797-.328 1.824-.285 3.617-.535 5.496-.336 1.867.2 3.316 1.133 4.656 2.196 2.187 1.73 3.95 3.94 5.566 6.18 1.813 2.51 3.942 4.722 5.97 7.023 1.741 1.972 3.718 3.738 5.558 5.625a61 61 0 0 1 2.793 3.086c1.437 1.691 2.824 3.421 4.25 5.12 1.129 1.348 2.351 2.618 3.394 4.02a83 83 0 0 0 6.11 7.285c1.277 1.34 2.449 2.782 3.628 4.207 1.168 1.41 2.215 2.918 3.442 4.274 1.402 1.555 2.941 2.996 4.433 4.469.297.293.657.527.993.777 1.23.918 2.468 1.82 3.687 2.754 1.938 1.476 4.031 2.64 6.344 3.418.762.254 1.371.11 2-.27.234-.144.457-.316.71-.406.657-.242.845-.719.575-1.297-.621-1.355-1.219-2.734-1.977-4.015-.89-1.5-1.957-2.899-2.925-4.356-1.559-2.34-3.32-4.52-5.125-6.664-1.192-1.418-2.332-2.89-3.633-4.2-3.016-3.019-6.09-5.98-9.188-8.917-2.433-2.317-4.972-4.528-7.398-6.852-3.887-3.734-7.715-7.531-11.582-11.281-2.223-2.16-4.48-4.273-6.692-6.437-.644-.63-1.171-1.375-1.773-2.043-1.887-2.118-3.55-4.352-4.246-7.18-.418-1.707-.691-3.402-.121-5.13.48-1.46 1.379-2.612 2.48-3.67.676-.65 1.485-.99 2.32-1.118 2.602-.402 4.926.422 6.84 2.144 2.59 2.332 5.036 4.82 7.56 7.227.831.789 1.667 1.578 2.573 2.273 1.84 1.418 3.785 2.7 5.578 4.172 2.356 1.93 4.602 3.989 6.895 5.992 1.539 1.348 3.059 2.72 4.629 4.032 1.625 1.363 3.683 1.722 5.648 2.238.766.203 1.098-.246.828-.969-.28-.758-.59-1.523-1.015-2.21-1.485-2.419-2.977-4.837-4.555-7.196-1.058-1.582-2.27-3.062-3.394-4.602-1.243-1.695-2.84-3.003-4.524-4.226-1.723-1.25-3.48-2.457-5.18-3.742-1.535-1.164-3.058-2.348-4.492-3.63-1.945-1.738-3.894-3.488-5.66-5.398-1.781-1.933-3.281-4.12-5.008-6.105-1.933-2.227-3.117-4.672-3.05-7.688.066-2.941 2.02-5.695 4.878-6.703.512-.18 1.059-.332 1.489-.636.957-.672 1.836-1.45 2.773-2.153 2.676-2 5.563-3.418 9.012-3.332 1.672.043 3.332.04 5.008.254 1.433.188 2.77.57 4.097 1.086 1.45.559 2.547 1.637 3.805 2.477 1.836 1.218 3.664 2.449 5.52 3.636 2.347 1.508 4.671 3.067 7.097 4.438 2.516 1.418 5.14 2.652 7.738 3.926.438.21.985.304 1.477.289 1.137-.04 2.262-.25 3.395-.262 3.218-.035 6.441-.078 9.656.008 1.926.058 3.219-.852 4.312-2.266 1.004-1.293 1.946-2.648 3.047-3.855 2.227-2.426 4.563-4.746 6.809-7.153 1.726-1.851 3.37-3.785 5.082-5.652 1.598-1.738 3.262-3.422 4.848-5.172 1.015-1.121 2.027-2.262 2.89-3.492 1.43-2.047 2.524-4.227 1.606-6.848-.086-.254-.211-.59-.41-.676-.16-.066-.52.133-.68.317-1.09 1.246-2.098 2.57-3.23 3.777-2.786 2.973-5.743 5.754-9.055 8.153a83 83 0 0 0-4.872 3.785c-1.667 1.406-3.394 2.699-5.382 3.62-2.239 1.036-4.567 1.102-6.86.458-1.797-.508-3.328-1.574-4.617-3.004-1.953-2.164-2.726-4.703-1.68-7.352 1.16-2.933 2.688-5.75 4.329-8.449 1.117-1.836 2.628-3.46 4.109-5.035 2.238-2.383 4.601-4.648 6.914-6.961.207-.21.39-.453.629-.617 2.176-1.52 3.812-3.55 5.348-5.672 1.562-2.152 2.5-4.523 2.3-7.25-.054-.715-.699-1.55-1.32-1.629-2.672-.332-4.785.813-6.469 2.711-1.36 1.527-2.554 3.21-3.738 4.89a131 131 0 0 0-4.137 6.196c-1.304 2.082-2.36 4.332-3.777 6.332-1.691 2.398-3.242 4.965-5.738 6.687-1.676 1.157-3.293 2.458-5.532 2.2-.336-.04-.683-.012-1.027-.004-2.941.086-5.309-1.188-7.289-3.219-.957-.977-1.746-2.184-1.918-3.578-.133-1.07-.289-2.117-.113-3.281.394-2.696 1.347-5.11 2.75-7.375 1.203-1.953 2.488-3.86 3.773-5.766 2.102-3.117 4.336-6.14 6.985-8.816 1.59-1.614 2.812-3.47 3.82-5.457 1.262-2.508 2.152-5.176 2.922-7.868.375-1.296.523-2.656.035-4.004-.192-.527-.84-1.195-1.29-1.019-.835.328-1.734.656-2.405 1.227-1.618 1.367-3.118 2.867-4.66 4.324a3.7 3.7 0 0 0-1.063 1.761c-.332 1.16-.844 2.293-1.45 3.348-.613 1.078-1.327 2.137-2.163 3.05-2.188 2.395-4.473 4.696-6.703 7.052a26 26 0 0 0-1.86 2.156c-1.676 2.226-3.219 4.566-5 6.707-1.941 2.328-3.5 4.918-5.332 7.316-1.71 2.243-3.363 4.563-5.332 6.563-3.73 3.781-7.656 7.375-11.523 11.012-2.133 2-4.246 4.035-6.5 5.89-2.477 2.031-5.34 3.246-8.633 3.16-2.977-.078-5.375-1.222-7.055-3.773-.62-.95-1.082-2.063-2.242-2.57-1.117-.489-1.387-1.493-1.43-2.598-.066-1.656.567-3.18.89-4.762.474-2.316 1.095-4.59 2.306-6.66.66-1.129 1.324-2.293 1.746-3.523.86-2.489 1.992-4.856 3.172-7.18 1.742-3.445 3.53-6.863 5.59-10.152 2.109-3.371 4.14-6.797 6.374-10.09 1.48-2.176 2.961-4.356 4.516-6.477 3.082-4.222 5.453-8.875 8.156-13.328 1.907-3.137 3.508-6.46 5.348-9.644 1.504-2.61 3.2-5.114 4.726-7.715.95-1.625 1.786-3.325 1.668-5.317-.046-.828 0-1.66-.007-2.492-.008-1.129-.364-1.535-1.47-1.59-2.644-.133-4.956.668-6.827 2.59-2.45 2.52-4.692 5.211-6.856 7.988a72 72 0 0 0-5.074 7.422c-1.094 1.84-2.203 3.664-3.219 5.555-1.636 3.047-3.468 5.988-5.242 8.965-1.008 1.687-2.066 3.34-3.098 5.015-1.41 2.297-2.847 4.575-4.203 6.903-1.234 2.117-2.203 4.406-3.593 6.41-2.934 4.23-5.204 8.871-8.375 12.965-1.965 2.535-3.97 5.004-6.371 7.125a7.04 7.04 0 0 1-3.825 1.691c-2.5.293-5.011.016-7.37-.87-1.68-.63-3.032-1.685-3.59-3.618-.36-1.254-.294-2.438-.11-3.649.152-.98.582-1.925.719-2.91.379-2.738 1.32-5.32 2.422-7.793 1.105-2.48 2.402-4.898 4.011-7.136 1.711-2.383 3.102-5 4.864-7.34 1.918-2.543 3.449-5.301 5.027-8.04.86-1.491 1.621-3.038 2.426-4.558a8045 8045 0 0 0 5.27-9.98c.925-1.762 1.788-3.563 2.777-5.29 1.265-2.218 2.671-4.359 3.941-6.574 1.469-2.566 3.016-5.09 4.492-7.648 2.004-3.465 3.75-7.063 5.766-10.512a761 761 0 0 1 4.312-7.297c1.38-2.308 2.805-4.597 4.164-6.922.825-1.406 1.473-2.93 2.372-4.285 2.488-3.746 3.933-7.886 4.632-12.285.348-2.144.418-4.328.614-6.492.023-.23.086-.457.113-.688.16-1.3.586-2.644.398-3.894-.207-1.395-.129-2.762-.218-4.137-.016-.238.003-.492-.07-.707-1.255-3.586-3.079-6.836-5.919-9.394-.675-.606-1.656-1.024-2.554-1.188-.903-.164-1.45.742-2.051 1.328-.145.137-.313.258-.414.418a878 878 0 0 0-4.242 6.883c-1.657 2.723-2.594 5.766-3.743 8.707-1.07 2.73-2.117 5.473-3.406 8.11-.894 1.828-1.926 3.593-2.754 5.453-1.054 2.39-1.875 4.89-2.972 7.261-.93 2.008-2.133 3.875-3.004 5.934-.844 1.992-1.856 3.91-2.676 5.926-1.207 2.965-2.559 5.879-3.965 8.757a541 541 0 0 1-6.14 12.106 316 316 0 0 1-5.087 9.316c-1.53 2.696-3.175 5.328-4.742 8-1.71 2.903-3.449 5.79-5.074 8.739-1.441 2.617-2.664 5.355-4.133 7.949-1.996 3.535-4.152 6.976-6.21 10.473-1.782 3.015-3.481 6.082-5.305 9.074-.77 1.265-1.57 2.672-2.723 3.511-1.746 1.274-3.695 2.266-6.145 1.602-1.183-.324-2.425-.527-3.52-1.059-2.866-1.406-4.94-3.687-6.507-6.437a86 86 0 0 1-2.05-3.84c-1.016-2.023-.735-4.137-.235-6.203.348-1.445.863-2.86 1.418-4.246.75-1.883 1.121-3.922 2.273-5.652.27-.407.391-.915.641-1.34.871-1.489 1.234-3.207 2.305-4.625.984-1.301 1.773-2.762 2.527-4.22.559-1.073.836-2.292 1.383-3.378 1.12-2.227 2.648-4.2 4.12-6.203 1.24-1.684 2.536-3.328 3.696-5.066 2.055-3.09 4.008-6.25 6.035-9.36 2.465-3.77 4.63-7.719 6.223-11.922 1.086-2.86 2.516-5.52 3.945-8.18 1.59-2.968 3.422-5.812 5.141-8.714 1.25-2.117 2.426-4.282 3.738-6.356 1.852-2.93 3.614-5.886 5.098-9.023 2.605-5.52 5.348-10.973 8.031-16.453 1.707-3.489 3.414-6.985 5.117-10.477 1.368-2.805 2.641-5.66 4.121-8.398a138 138 0 0 1 5.059-8.598c2.836-4.457 5.363-9.086 7.785-13.77.856-1.644 1.578-3.359 2.45-4.992 1.226-2.273 2.152-4.695 3.585-6.87.653-.99 1.196-2.087 1.012-3.395-.156-1.121-.094-2.285-.336-3.387-.285-1.281-.445-2.566-.547-3.867-.05-.63.016-1.27-.015-1.903-.036-.757-.434-1.41-1.067-1.703-.562-.258-1.156.13-1.664.5-.969.715-1.996 1.356-2.926 2.114-2.007 1.632-4.351 2.648-6.629 3.793-2.32 1.168-4.234 2.812-5.664 4.964-.933 1.403-1.761 2.883-2.597 4.344-1.262 2.207-2.469 4.45-3.746 6.653-1.278 2.21-2.598 4.394-3.918 6.578-1.02 1.68-2.067 3.343-3.098 5.02q-1.508 2.446-3.004 4.905c-1.797 2.965-3.695 5.875-5.351 8.922-1.637 3.012-2.997 6.176-4.528 9.25-1.824 3.64-3.695 7.258-5.558 10.883A47 47 0 0 1 243.938 78c-1.442 2.434-2.903 4.852-4.34 7.285a1154 1154 0 0 0-4.141 7.074c-1.418 2.438-2.894 4.848-4.215 7.336-1.27 2.395-2.347 4.887-3.539 7.32a514 514 0 0 1-3.508 7.044c-1.925 3.808-3.785 7.648-6.101 11.25-1.297 2.023-2.457 4.144-3.54 6.296-2.105 4.2-4.077 8.465-6.175 12.672a336 336 0 0 1-5.27 10.121c-1.363 2.52-2.87 4.961-4.277 7.461-1.945 3.453-4.293 6.563-7.629 8.793-2.418 1.621-5.062 2.57-8.008 2.578-1.558.004-3.117 0-4.68 0-1.41 0-2.562-.593-3.644-1.457-1.476-1.18-1.969-2.867-2.473-4.55-.613-2.043-1.16-4.11-1.765-6.157a683 683 0 0 0-2.172-7.156c-.746-2.418-1.2-4.89-1.664-7.375-.336-1.816-.797-3.625-1.625-5.328-1.465-3.02-4.016-4.844-6.785-6.45-.301-.175-.719-.187-1.082-.198-1.993-.07-3.942.168-5.91.527-2.31.418-4.633.758-6.786 1.672-3.347 1.426-6.859 2.262-10.422 2.703-2.253.277-4.593-.106-6.894-.242-.48-.028-.961-.246-1.43-.422-2.96-1.086-4.96-3.395-7.011-5.617-1.106-1.2-2.016-2.578-3.043-3.852-1.012-1.25-2.094-2.445-3.094-3.703-1.34-1.68-2.606-3.418-3.945-5.098-1.067-1.332-2.2-2.605-3.305-3.906-1.688-1.988-3.367-3.984-5.074-5.953-.973-1.121-2.004-2.195-2.993-3.305a58 58 0 0 1-1.863-2.16 734 734 0 0 1-5.176-6.351c-1.02-1.274-2-2.586-3.004-3.88-.687-.886-1.37-1.78-2.07-2.66-1.2-1.503-2.527-2.925-3.594-4.519-2.308-3.45-4.605-6.898-7.011-10.285-2.45-3.442-4.637-7.074-7.012-10.574-2.617-3.86-5.578-7.442-8.348-11.176a648 648 0 0 1-4.14-5.61c-1.254-1.722-2.395-3.539-3.75-5.171-1.48-1.778-3.106-3.442-4.75-5.07-2.575-2.56-5.215-5.052-7.832-7.575-.246-.234-.524-.457-.72-.73-1.648-2.305-3.073-4.747-4.358-7.274-.575-1.129-1.157-2.277-1.88-3.316-.69-.985-1.648-1.68-2.964-1.637-.977.035-1.133.117-1.098 1.059.043 1.226.18 2.457.277 3.687.004.043.024.086.036.129.847 2.344 1.316 4.793 2.254 7.125 1.199 2.973 2.41 5.938 3.753 8.844 1.594 3.437 3.442 6.73 5.649 9.828 1.543 2.164 2.887 4.469 4.394 6.664 1.618 2.371 3.348 4.664 4.977 7.027 1.176 1.696 2.172 3.524 3.414 5.168 2.461 3.274 4.547 6.774 6.54 10.336 1.358 2.43 3.093 4.594 4.722 6.832 1.531 2.106 3.097 4.184 4.652 6.274 1.031 1.382 2.07 2.757 3.102 4.136 1.117 1.493 2.234 2.977 3.336 4.48 1.312 1.794 2.609 3.602 3.91 5.407 1.242 1.73 2.445 3.492 3.734 5.188 1.195 1.574 2.453 3.097 3.719 4.613 1.219 1.46 2.523 2.848 3.71 4.328a175 175 0 0 1 4.759 6.234 124 124 0 0 1 3.726 5.485c1.797 2.77 3.211 5.773 5.856 7.98 1.547 1.293 2.777 2.992 4.054 4.59 1.485 1.852 2.926 3.746 4.27 5.7 1.48 2.152 2.832 4.39 4.23 6.593a37.7 37.7 0 0 1 3.68 7.559c1.723 4.87 3.316 9.785 4.602 14.797a242 242 0 0 0 1.566 5.945c.191.691.387 1.472.84 1.98 1.402 1.575 1.808 3.508 2.047 5.457.36 2.989-.235 5.868-1.442 8.621-.613 1.414-1.23 2.829-1.453 4.375-.187 1.325-.664 2.555-1.297 3.711-1.168 2.141-2.789 3.965-4.36 5.805-1.589 1.871-3.308 3.645-5.054 5.375-4.05 4.02-7.898 8.246-12.367 11.828-1.367 1.098-2.664 2.281-4.008 3.41-4.386 3.692-8.558 7.614-12.574 11.703-.871.887-1.785 1.743-2.781 2.48-2.746 2.048-5.57 3.997-8.324 6.032-2.157 1.59-4.215 3.254-6.008 5.317-2.153 2.468-4.621 4.687-7.094 6.855-1.848 1.625-3.937 2.969-5.883 4.488a277 277 0 0 0-6.14 4.973c-2.805 2.332-6.016 4.039-9.133 5.875-2.137 1.262-4.434 2.258-6.614 3.457-1.753.969-3.44 2.063-5.16 3.094-3.629 2.18-6.879 4.918-10.53 7.074-1.161.687-2.372 1.527-3.142 2.594-1.921 2.668-3.91 5.308-5.257 8.355a5.4 5.4 0 0 0-.477 2.004c-.07 1.426.008 2.902-.332 4.262-.5 2.012-1.3 3.945-2.012 5.902-.285.785-.218 1.012.512 1.106 2.305.296 4.496-.262 6.469-1.325 3.683-1.972 6.883-4.683 10.18-7.226 1.831-1.414 3.566-2.953 5.335-4.45 1.922-1.613 3.813-3.261 5.75-4.859 1.59-1.304 3.23-2.554 4.852-3.828 1.508-1.18 3.148-2.226 4.516-3.555 6.73-6.546 13.39-13.171 20.074-19.77.246-.237.5-.468.722-.726.594-.68 1.133-1.41 1.774-2.043 1.055-1.03 2.191-1.976 3.262-3 2.593-2.472 5.168-4.964 7.746-7.453 2.824-2.726 5.62-5.48 8.476-8.18 2.157-2.038 4.371-4.023 6.586-6.007.586-.528 1.254-.957 1.895-1.43 1.601-1.187 3.195-2.394 4.824-3.543 1.383-.973 2.734-1.957 4.004-3.086 1.383-1.234 2.96-2.242 4.457-3.347 1.457-1.07 2.918-2.137 4.523-3.356m0 0" style="stroke:none;fill-rule:nonzero;fill:#ff6d4d;fill-opacity:1"/></g></svg>