<svg xmlns="http://www.w3.org/2000/svg" xmlns:xlink="http://www.w3.org/1999/xlink" zoomAndPan="magnify" preserveAspectRatio="xMidYMid meet" version="1.2" viewBox="413 519.02 468.74 690.74"><defs><clipPath id="1d865cadc9"><path d="M 413 519 L 882 519 L 882 1209.898438 L 413 1209.898438 Z M 413 519 "/></clipPath><clipPath id="6e1aa48916"><path d="M 412.34375 518.398438 L 883 518.398438 L 883 1209.898438 L 412.34375 1209.898438 Z M 412.34375 518.398438 "/></clipPath></defs><g id="b5eb02c46b"><g clip-rule="nonzero" clip-path="url(#1d865cadc9)"><path style=" stroke:none;fill-rule:nonzero;fill:#ff6d4d;fill-opacity:1;" d="M 462.433594 682.308594 L 460.578125 922.265625 C 456.25 926.707031 453.636719 930.664062 452.882812 934.414062 C 452.058594 938.058594 453.089844 941.359375 455.835938 944.320312 C 452.847656 947.277344 451.507812 949.753906 451.402344 952.023438 C 451.335938 954.226562 452.640625 956.050781 455.460938 957.632812 L 453.261719 1093.25 C 450.71875 1094.761719 449.03125 1096.484375 448.484375 1098.03125 C 447.898438 1099.542969 448.171875 1101.265625 449.582031 1102.8125 C 447.039062 1105.117188 445.734375 1107.355469 445.527344 1109.796875 C 445.320312 1112.171875 446.351562 1114.617188 448.484375 1117.125 C 444.460938 1122.765625 440.785156 1127.136719 437.453125 1130.371094 C 434.050781 1133.535156 430.992188 1135.496094 428.277344 1136.25 C 423.945312 1136.390625 421.058594 1137.320312 419.476562 1139.175781 C 417.828125 1141.035156 418.035156 1144.613281 418.757812 1147.261719 C 419.445312 1149.84375 420.992188 1152.25 423.535156 1154.625 L 423.15625 1173.339844 C 418.515625 1174.542969 415.457031 1176.023438 413.980469 1177.777344 C 412.398438 1179.394531 413.019531 1181.355469 413.980469 1183.664062 C 414.804688 1185.964844 416.558594 1188.410156 419.101562 1191.367188 L 459.859375 1209.738281 C 484.359375 1209.398438 504.15625 1208.949219 520.445312 1208.261719 C 536.632812 1207.605469 548.660156 1206.851562 556.390625 1205.714844 C 563.953125 1204.476562 566.871094 1202.929688 565.566406 1200.933594 C 570.585938 1199.96875 578.488281 1198.523438 589.792969 1196.875 C 601.101562 1195.082031 623.058594 1192.605469 632.75 1190.644531 C 642.132812 1188.683594 644.265625 1187.410156 646.703125 1185.105469 C 649.144531 1182.800781 649.382812 1179.945312 647.425781 1176.679688 C 653.0625 1176.609375 657.183594 1175.75 659.933594 1174.476562 C 662.617188 1173.101562 663.78125 1171.136719 663.578125 1168.59375 C 668.867188 1170.210938 673.0625 1171.105469 676.429688 1171.136719 C 679.660156 1171.105469 681.414062 1170.414062 683.40625 1168.9375 C 685.398438 1167.425781 686.945312 1165.21875 688.183594 1162.332031 C 690.277344 1164.429688 692.925781 1164.84375 696.261719 1163.433594 C 699.523438 1161.988281 706.222656 1157.652344 708.011719 1153.867188 C 709.558594 1150.050781 708.183594 1143.652344 706.535156 1140.660156 C 704.851562 1137.628906 701.277344 1136.359375 698.457031 1135.496094 C 695.574219 1134.566406 692.375 1135.394531 689.660156 1134.777344 C 686.878906 1133.984375 684.644531 1132.402344 682.308594 1131.09375 C 679.867188 1129.753906 677.839844 1128.339844 675.707031 1126.859375 C 681.996094 1114.886719 689.453125 1100.816406 698.457031 1083.855469 C 707.394531 1066.757812 716.84375 1048.078125 729.320312 1025.820312 C 741.761719 1003.492188 754.648438 982.402344 772.996094 951.132812 C 791.417969 919.617188 821.179688 870.042969 838.703125 839.046875 C 856.027344 807.980469 869.464844 783.519531 876.507812 767.007812 C 883.347656 750.628906 882.144531 749.90625 880.1875 741.480469 C 878.125 732.980469 871.527344 721.730469 864.757812 716.46875 C 857.917969 711.136719 848.671875 710.171875 839.804688 709.863281 C 830.835938 709.449219 823.445312 709.277344 811.523438 714.265625 C 799.390625 719.253906 781.867188 734.082031 768.222656 739.621094 C 754.578125 745.023438 743.167969 747.707031 730.417969 746.605469 C 717.53125 745.332031 702.375 740.515625 692.238281 732.292969 C 682.203125 724.035156 676.878906 713.992188 670.554688 697.375 C 664.09375 680.414062 660.929688 650.414062 654.058594 632.320312 C 647.015625 614.292969 638.320312 601.183594 629.453125 590.070312 C 620.554688 578.855469 612.269531 572.183594 601.546875 565.816406 C 590.621094 559.351562 576.394531 554.738281 565.222656 551.851562 C 554.125 548.855469 544.398438 547.929688 535.496094 548.546875 C 537.113281 546.585938 538.96875 544.695312 541.339844 543.007812 C 543.640625 541.183594 546.289062 539.773438 549.414062 538.261719 C 550.824219 537.054688 551.511719 535.75 551.992188 534.199219 C 552.335938 532.6875 552.269531 530.933594 551.648438 529.074219 C 545.945312 526.289062 538.28125 524.121094 528.144531 522.433594 C 517.867188 520.75 505.324219 518.546875 491.0625 519.132812 C 476.664062 519.648438 460.992188 521.644531 442.984375 525.394531 C 440.957031 529.007812 439.925781 532.070312 440.027344 534.582031 C 440.0625 537.09375 441.164062 539.054688 443.328125 540.464844 C 447.488281 541.632812 450.546875 543.179688 452.882812 545.246094 C 455.148438 547.242188 456.457031 549.683594 456.9375 552.574219 L 455.082031 666.515625 L 462.4375 682.308594 Z M 521.542969 677.972656 C 528.484375 675.390625 534.707031 674.464844 540.617188 675.046875 C 546.425781 675.632812 550.445312 676.113281 556.390625 681.652344 C 562.199219 687.125 569.3125 696.757812 575.875 707.765625 C 582.40625 718.773438 587.90625 735.425781 595.671875 746.710938 C 603.367188 757.820312 610.894531 765.632812 622.097656 774.265625 C 633.335938 782.796875 647.597656 792.5 662.476562 797.796875 C 677.324219 802.925781 696.191406 804.78125 710.210938 805.503906 C 723.992188 806.191406 732.617188 804.78125 745.09375 802.203125 C 757.636719 799.585938 771.519531 794.875 784.75 790.058594 C 797.878906 785.136719 810.457031 779.597656 823.273438 773.164062 C 805.265625 795.082031 786.570312 817.785156 766.398438 842.351562 C 746.121094 866.984375 723.441406 894.4375 702.855469 919.519531 C 682.203125 944.492188 663.40625 967.992188 643.40625 990.800781 C 623.164062 1013.4375 601.855469 1035.144531 583.195312 1054.480469 C 564.605469 1073.746094 547.902344 1090.464844 532.542969 1105.570312 C 532.4375 1104.195312 531.855469 1103.230469 531.0625 1102.265625 C 530.238281 1101.335938 528.933594 1100.546875 527.421875 1100.03125 C 528.519531 1098.140625 528.761719 1096.761719 528.144531 1095.625 C 527.523438 1094.5625 526.011719 1093.734375 523.742188 1093.425781 L 524.84375 954.882812 C 527.558594 952.613281 528.898438 950.410156 528.863281 948.277344 C 528.726562 946.074219 527.351562 944.078125 524.464844 942.015625 C 527.144531 940.054688 527.867188 937.613281 527.042969 934.6875 C 526.082031 931.628906 523.433594 928.359375 518.96875 924.367188 L 517.867188 684.128906 C 519.070312 682.101562 520.308594 680.035156 521.542969 677.972656 Z M 521.542969 677.972656 "/></g><g clip-rule="nonzero" clip-path="url(#6e1aa48916)"><path style="fill:none;stroke-width:0.036;stroke-linecap:butt;stroke-linejoin:miter;stroke:#000000;stroke-opacity:1;stroke-miterlimit:10;" d="M 51.773983 170.767589 L 49.830271 421.863417 C 45.296307 426.510993 42.558743 430.651709 41.768982 434.575784 C 40.905564 438.389494 41.985859 441.843498 44.862553 444.941882 C 41.732154 448.036178 40.328589 450.627703 40.218104 453.002585 C 40.14854 455.307979 41.515276 457.216878 44.469718 458.872347 L 42.165908 600.784879 C 39.502 602.366772 37.734245 604.169394 37.161362 605.788075 C 36.547558 607.369967 36.834 609.172589 38.311221 610.79127 C 35.647312 613.202941 34.280576 615.545123 34.063699 618.09986 C 33.846821 620.585107 34.927116 623.143931 37.161362 625.768156 C 32.946576 631.670618 29.09598 636.244618 25.605483 639.629133 C 22.041329 642.940071 18.837274 644.992035 15.993316 645.780938 C 11.45526 645.92809 8.431254 646.900934 6.773984 648.842534 C 5.047149 650.788221 5.264027 654.532442 6.021051 657.30382 C 6.741248 660.005709 8.361689 662.523657 11.025598 665.008904 L 10.628671 684.59249 C 5.767346 685.851464 2.56329 687.400657 1.016505 689.235979 C -0.640766 690.928236 0.0098664 692.9802 1.016505 695.395959 C 1.879922 697.803542 3.717241 700.362366 6.381149 703.456663 L 49.077338 722.680542 C 74.742519 722.324923 95.480902 721.854851 112.544647 721.135437 C 129.501998 720.448724 142.101343 719.659822 150.199461 718.470337 C 158.121621 717.174574 161.178364 715.555894 159.811628 713.467141 C 165.06988 712.457509 173.348046 710.945106 185.190367 709.220148 C 197.036779 707.343949 220.038052 704.752425 230.190366 702.700461 C 240.01941 700.648497 242.253656 699.315946 244.807079 696.904275 C 247.364595 694.492604 247.614209 691.504585 245.564104 688.08737 C 251.468896 688.013793 255.785983 687.114526 258.666768 685.781976 C 261.477989 684.343148 262.697413 682.287096 262.484628 679.626083 C 268.025229 681.31834 272.420064 682.254396 275.94739 682.287096 C 279.331495 682.254396 281.168814 681.530895 283.255747 679.98579 C 285.342679 678.403897 286.963121 676.094416 288.260293 673.073696 C 290.453619 675.268725 293.228012 675.702008 296.722601 674.226393 C 300.139442 672.713989 307.157265 668.176777 309.031412 664.215914 C 310.651854 660.222351 309.211461 653.526898 307.484627 650.395813 C 305.720964 647.223853 301.976761 645.89539 299.022319 644.992035 C 296.002404 644.019192 292.651036 644.885758 289.807079 644.239921 C 286.893557 643.410142 284.552918 641.754673 282.105888 640.385335 C 279.548372 638.983295 277.424611 637.503592 275.190365 635.9544 C 281.778525 623.425974 289.590201 608.702518 299.022319 590.954254 C 308.384872 573.062926 318.283481 553.516128 331.353409 530.225108 C 344.386508 506.860513 357.886099 484.791679 377.10634 452.070618 C 396.40433 419.092039 427.581469 367.216587 445.938293 334.781655 C 464.086424 302.273148 478.16299 276.676735 485.540912 259.398543 C 492.706047 242.259328 491.445704 241.503126 489.395599 232.686221 C 487.23501 223.791651 480.32358 212.019426 473.2321 206.513459 C 466.066964 200.933915 456.381141 199.924283 447.092244 199.601364 C 437.696955 199.168081 429.954844 198.988228 417.465983 204.208065 C 404.756154 209.427902 386.399329 224.944348 372.105886 230.740533 C 357.812442 236.393654 345.859637 239.20182 332.503268 238.049123 C 319.003677 236.716572 303.12662 231.676589 292.507815 223.072237 C 281.995403 214.431097 276.417973 203.921934 269.792984 186.533378 C 263.024775 168.785114 259.710235 137.392515 252.512363 118.458854 C 245.134441 99.594682 236.025594 85.87677 226.736697 74.247611 C 217.415064 62.512175 208.735879 55.530591 197.50327 48.867839 C 186.057876 42.102898 171.154721 37.275468 159.451529 34.254748 C 147.826086 31.119576 137.636944 30.15082 128.311219 30.796657 C 130.005317 28.744693 131.949029 26.766305 134.432888 25.000472 C 136.843091 23.091573 139.617484 21.615957 142.891104 20.034064 C 144.368325 18.771003 145.088522 17.405752 145.591841 15.782983 C 145.951939 14.201091 145.882374 12.365768 145.231742 10.420081 C 139.257386 7.505638 131.228833 5.237032 120.610028 3.471198 C 109.84391 1.709452 96.704418 -0.595942 81.764434 0.017195 C 66.68123 0.556755 50.264026 2.645508 31.39979 6.569582 C 29.276029 10.350592 28.195735 13.555253 28.302127 16.183566 C 28.338956 18.811878 29.492907 20.863843 31.759889 22.339458 C 36.117895 23.561644 39.321951 25.180325 41.768982 27.342654 C 44.142356 29.431406 45.513185 31.986142 46.016504 35.01095 L 44.072792 154.241512 L 51.778075 170.767589 Z M 113.694506 166.230378 C 120.966034 163.528489 127.48463 162.559733 133.675864 163.168782 C 139.760705 163.781919 143.971399 164.284691 150.199461 170.080876 C 156.284302 175.807573 163.73588 185.88754 170.610482 197.406335 C 177.452348 208.92513 183.213919 226.350475 191.348864 238.159487 C 199.410154 249.784559 207.295486 257.959715 219.031414 266.993262 C 230.80417 275.920533 245.744153 286.074076 261.330676 291.616832 C 276.884464 296.983822 296.648944 298.925422 311.335222 299.681623 C 325.771887 300.401037 334.807078 298.925422 347.877006 296.22762 C 361.016498 293.488943 375.559555 288.559324 389.419244 283.51934 C 403.17254 278.368992 416.34886 272.572806 429.774795 265.840565 C 410.910559 288.775965 391.326127 312.532969 370.19491 338.239746 C 348.953208 364.016013 325.194911 392.743511 303.629939 418.989849 C 281.995403 445.121735 262.304578 469.712604 241.35341 493.579972 C 220.148537 517.267486 197.82654 539.982157 178.278937 560.215668 C 158.804989 580.375603 141.30749 597.870436 125.217648 613.6771 C 125.107163 612.238273 124.497452 611.228641 123.666771 610.219009 C 122.803353 609.246166 121.436617 608.420475 119.853003 607.880915 C 121.002862 605.902527 121.256568 604.459612 120.610028 603.270127 C 119.959396 602.158306 118.375782 601.291739 115.998316 600.96882 L 117.152267 455.994693 C 119.996224 453.61981 121.399789 451.314416 121.362961 449.082598 C 121.21974 446.777204 119.779347 444.688452 116.75534 442.530211 C 119.56247 440.478247 120.319494 437.92351 119.456077 434.861914 C 118.449439 431.661341 115.675046 428.240038 110.997861 424.062533 L 109.84391 172.672401 C 111.104254 170.550948 112.401426 168.388619 113.694506 166.230378 Z M 113.694506 166.230378 " transform="matrix(0.954601,0,0,0.955639,413.010113,519.11638)"/></g><path style="fill-rule:nonzero;fill:#ffffff;fill-opacity:1;stroke-width:0.036;stroke-linecap:butt;stroke-linejoin:miter;stroke:#000000;stroke-opacity:1;stroke-miterlimit:10;" d="M 54.114621 177.172824 C 55.374965 174.871518 57.895652 173.068896 61.819904 171.630068 C 65.744156 170.154453 71.575292 168.748326 77.516912 168.535772 C 83.491269 168.171977 91.953577 168.462195 96.921295 170.080876 C 101.672136 171.630068 104.802535 174.295169 106.173364 178.072091 L 105.846002 422.080058 C 103.398971 424.998589 99.441982 426.907488 93.53719 427.94982 C 87.59557 428.955364 77.406428 429.425436 70.748703 428.240038 C 64.086886 426.940188 58.4358 424.42224 53.791351 420.534954 C 53.901836 339.425144 54.008229 258.319422 54.114621 177.172824 Z M 54.114621 177.172824 " transform="matrix(0.954601,0,0,0.955639,413.010113,519.11638)"/><path style="fill-rule:nonzero;fill:#ff6d4d;fill-opacity:1;stroke-width:0.036;stroke-linecap:butt;stroke-linejoin:miter;stroke:#000000;stroke-opacity:1;stroke-miterlimit:10;" d="M 56.889014 184.877909 C 58.038873 183.22244 59.012775 182.572515 59.949849 183.328717 C 60.813266 183.978641 61.533463 182.539814 62.106346 188.87556 C 62.576929 195.211306 63.36669 204.461495 63.36669 221.200126 C 63.260297 238.012335 62.286395 262.672693 62.106346 288.37947 C 61.926297 313.975884 62.036782 353.429186 62.433708 373.695398 C 62.72015 393.60599 63.980494 400.375019 63.980494 407.896163 C 63.870009 415.315117 62.826543 416.537302 62.106346 418.372625 C 61.206101 420.138459 60.09307 419.092039 59.336045 418.695544 C 58.542192 418.155983 57.932481 417.076863 57.498726 415.315117 C 57.969309 417.689999 58.689505 419.382257 59.659315 420.534954 C 60.596389 421.683563 61.856733 422.619618 63.04342 422.080058 C 64.123714 421.397433 65.850549 423.592462 66.141083 416.860221 C 66.35796 409.948127 64.917567 396.667586 64.590205 381.43727 C 64.197371 365.920824 63.943665 346.230961 63.980494 325.670444 C 63.943665 305.081314 64.520641 279.014829 64.590205 259.431243 C 64.520641 239.810869 63.943665 221.776475 63.980494 209.21126 C 63.906837 196.539769 64.950304 189.664462 64.590205 184.550902 C 64.123714 179.510919 63.006592 179.801137 61.819904 179.008147 C 60.559561 177.998515 58.329407 177.998515 57.498726 179.008147 C 56.672137 179.98099 56.418431 181.889889 56.889014 184.877909 Z M 56.889014 184.877909 " transform="matrix(0.954601,0,0,0.955639,413.010113,519.11638)"/><path style="fill-rule:nonzero;fill:#ff6d4d;fill-opacity:1;stroke-width:0.036;stroke-linecap:butt;stroke-linejoin:miter;stroke:#000000;stroke-opacity:1;stroke-miterlimit:10;" d="M 71.035145 179.118511 C 72.25866 177.319977 73.195734 176.776329 74.132808 177.49983 C 74.996225 178.108879 75.716421 176.70684 76.293397 183.296016 C 76.796716 189.95468 77.480084 199.601364 77.516912 217.096198 C 77.373692 234.664608 76.506182 260.440875 76.293397 287.33305 C 76.113348 314.118949 76.21974 355.374873 76.616667 376.540352 C 76.833544 397.423788 78.126624 404.442159 78.126624 412.327097 C 77.983403 420.10167 77.04633 421.287068 76.293397 423.269543 C 75.356323 425.031289 74.382421 424.16881 73.519004 423.592462 C 72.729243 423.016113 72.115439 421.826628 71.685777 420.028094 C 72.225924 422.476553 72.798808 424.315963 73.809538 425.538149 C 74.709783 426.760335 76.07652 427.66369 77.226379 427.120042 C 78.343501 426.474204 79.963943 428.636533 80.287213 421.650862 C 80.504091 414.44855 79.063698 400.481296 78.740428 384.605143 C 78.343501 368.512349 78.093888 347.743365 78.126624 326.320369 C 78.093888 304.791096 78.666771 277.539214 78.740428 257.05636 C 78.666771 236.499931 78.093888 217.742035 78.126624 204.530983 C 78.05706 191.393508 79.100526 184.011342 78.740428 178.791505 C 78.273937 173.498092 77.156814 173.931375 75.966035 172.995319 C 74.672955 171.952987 72.549194 171.952987 71.685777 172.995319 C 70.855096 174.041739 70.638218 175.987427 71.035145 179.118511 Z M 71.035145 179.118511 " transform="matrix(0.954601,0,0,0.955639,413.010113,519.11638)"/><path style="fill-rule:nonzero;fill:#ff6d4d;fill-opacity:1;stroke-width:0.036;stroke-linecap:butt;stroke-linejoin:miter;stroke:#000000;stroke-opacity:1;stroke-miterlimit:10;" d="M 86.768981 181.963466 C 87.992496 180.307996 88.92957 179.658072 89.862552 180.414273 C 90.656405 181.060111 91.413429 179.551795 91.986313 186.030606 C 92.456896 192.40314 93.246657 201.943547 93.246657 218.825244 C 93.140264 235.854093 92.166362 260.874158 91.986313 286.936555 C 91.806264 312.966252 91.916748 352.926414 92.313675 373.482844 C 92.600117 393.749055 93.86046 400.444508 93.86046 408.149592 C 93.749976 415.670736 92.706509 416.897009 91.986313 418.76912 C 91.086067 420.571742 89.973037 419.56211 89.216012 419.092039 C 88.422159 418.552478 87.812447 417.403869 87.378693 415.638035 C 87.849276 418.049706 88.569472 419.778752 89.539282 420.964149 C 90.476356 422.116846 91.736699 423.052902 92.923387 422.513341 C 94.003681 421.793928 95.730516 424.095234 96.02105 417.219928 C 96.237927 410.12798 94.797534 396.810651 94.470172 381.294205 C 94.077338 365.667395 93.823632 345.470672 93.86046 324.734389 C 93.823632 303.928617 94.400608 277.322572 94.470172 257.559132 C 94.400608 237.652628 93.823632 219.434293 93.86046 206.656524 C 93.786804 193.841967 94.83027 186.856296 94.470172 181.673247 C 94.003681 176.596476 92.886558 176.849905 91.699871 176.020127 C 90.439527 175.010495 88.209374 175.010495 87.378693 176.020127 C 86.552104 176.992971 86.298398 178.975446 86.768981 181.963466 Z M 86.768981 181.963466 " transform="matrix(0.954601,0,0,0.955639,413.010113,519.11638)"/><path style="fill-rule:nonzero;fill:#ff6d4d;fill-opacity:1;stroke-width:0.036;stroke-linecap:butt;stroke-linejoin:miter;stroke:#000000;stroke-opacity:1;stroke-miterlimit:10;" d="M 99.081884 191.033801 C 100.3054 189.41512 101.238381 188.981837 102.175455 189.594974 C 103.038872 190.171322 103.759069 188.801983 104.336044 194.778022 C 104.839363 200.754061 105.522732 209.431989 105.55956 225.128289 C 105.416339 240.894077 104.552922 264.042031 104.336044 288.162829 C 104.155995 312.246838 104.299216 349.255769 104.622486 368.226218 C 104.91302 386.984114 106.173364 393.140006 106.173364 400.301443 C 106.026051 407.213537 105.093069 408.403022 104.336044 410.12798 C 103.509455 411.71396 102.355504 410.884182 101.565743 410.418198 C 100.771891 409.878638 100.194915 408.869006 99.691596 407.250325 C 100.158087 409.445355 100.878283 411.027247 101.852185 412.143156 C 102.789259 413.259065 104.049603 414.015267 105.23629 413.581984 C 106.316585 412.899358 108.043419 415.061687 108.333953 408.685065 C 108.546738 402.169466 107.106345 389.751404 106.783075 375.457144 C 106.386149 360.95033 106.136535 342.339587 106.173364 323.115708 C 106.136535 303.855041 106.713511 279.30096 106.783075 260.976348 C 106.713511 242.50867 106.136535 225.696462 106.173364 213.854749 C 106.099707 202.008948 107.143174 195.45656 106.783075 190.743583 C 106.316585 186.026518 105.199462 186.279948 104.012774 185.523746 C 102.752431 184.587691 100.518185 184.587691 99.691596 185.523746 C 98.865007 186.427101 98.611301 188.262423 99.081884 191.033801 Z M 99.081884 191.033801 " transform="matrix(0.954601,0,0,0.955639,413.010113,519.11638)"/><path style="fill-rule:nonzero;fill:#ffffff;fill-opacity:1;stroke-width:0.036;stroke-linecap:butt;stroke-linejoin:miter;stroke:#000000;stroke-opacity:1;stroke-miterlimit:10;" d="M 52.567836 424.781947 C 57.715603 427.516537 63.006592 429.462224 68.588114 430.614921 C 74.169636 431.76353 78.990041 432.127325 85.831907 431.550976 C 92.600117 430.864263 100.125351 429.028941 108.943665 426.331139 C 111.894015 427.69639 113.694506 429.499012 114.488358 432.160025 C 115.245383 434.718849 114.737972 437.849934 113.264843 441.700432 C 110.384057 444.545387 105.453167 446.560563 98.181639 447.893113 C 90.762797 449.082598 78.163452 450.235295 69.811629 449.405517 C 61.459806 448.579826 54.511548 446.384797 48.574019 442.963494 C 46.016504 441.054595 44.576111 439.002631 44.252841 436.807602 C 43.819086 434.465419 45.009866 431.73083 46.41343 429.715654 C 47.780167 427.733178 49.834363 426.040921 52.567836 424.781947 Z M 52.567836 424.781947 " transform="matrix(0.954601,0,0,0.955639,413.010113,519.11638)"/><path style="fill-rule:nonzero;fill:#ffffff;fill-opacity:1;stroke-width:0.036;stroke-linecap:butt;stroke-linejoin:miter;stroke:#000000;stroke-opacity:1;stroke-miterlimit:10;" d="M 47.313676 446.634139 C 51.201099 448.653403 56.602572 450.198507 63.370782 451.277628 C 70.138991 452.360836 79.317403 454.089881 87.992496 453.117038 C 96.634853 451.927552 105.379511 449.336028 114.811628 444.802904 C 117.152267 445.121735 118.375782 446.204943 118.486267 447.897201 C 118.519003 449.589458 117.549193 451.894852 115.425432 454.95236 C 106.57029 457.977168 98.828179 459.992344 91.376601 461.145041 C 83.99868 462.297738 78.670863 462.404015 71.362507 461.75409 C 63.874101 460.965187 56.13199 459.415995 47.313676 456.824471 C 44.469718 455.169002 42.992497 453.61981 43.029325 451.890764 C 42.992497 450.124931 44.469718 448.469462 47.313676 446.634139 Z M 47.313676 446.634139 " transform="matrix(0.954601,0,0,0.955639,413.010113,519.11638)"/><path style="fill-rule:nonzero;fill:#ffffff;fill-opacity:1;stroke-width:0.036;stroke-linecap:butt;stroke-linejoin:miter;stroke:#000000;stroke-opacity:1;stroke-miterlimit:10;" d="M 43.315767 602.620202 C 46.376602 604.925596 50.517731 606.72413 56.27521 608.167045 C 62.036782 609.569084 69.345138 610.864847 77.226379 610.938423 C 84.931662 610.79127 95.841 609.246166 102.175455 607.840039 C 108.333953 606.364423 112.290941 604.565889 114.201917 602.297283 C 116.178365 602.297283 117.258659 602.763267 117.586021 603.842388 C 117.872463 604.819319 117.405972 606.401211 116.035144 608.449088 C 112.327769 610.754482 107.396879 612.553016 101.238381 613.995931 C 94.867098 615.397971 86.875374 616.693733 79.063698 616.767309 C 71.28885 616.767309 61.566199 614.645856 55.338137 613.709801 C 49.110075 612.663381 44.829816 611.437108 42.092252 610.321199 C 40.651859 608.845583 40.038055 607.553908 40.254933 606.290847 C 40.434982 604.999172 41.408884 603.772899 43.315767 602.620202 Z M 43.315767 602.620202 " transform="matrix(0.954601,0,0,0.955639,413.010113,519.11638)"/><path style="fill-rule:nonzero;fill:#ffffff;fill-opacity:1;stroke-width:0.036;stroke-linecap:butt;stroke-linejoin:miter;stroke:#000000;stroke-opacity:1;stroke-miterlimit:10;" d="M 39.931663 612.160609 C 41.048785 613.852866 45.009866 615.295781 51.954032 616.481179 C 58.939119 617.670664 72.729243 619.109491 81.224287 619.252557 C 89.432889 619.219856 95.190368 618.390078 101.565743 616.771397 C 107.937026 615.115928 113.694506 612.700169 119.132807 609.389231 C 121.399789 611.657837 122.623304 614.322938 122.803353 617.380446 C 122.87701 620.47883 121.579838 624.7994 120.033052 627.570778 C 118.41261 630.195003 118.375782 631.3477 113.264843 633.113534 C 107.937026 634.805791 96.773982 636.71469 89.216012 637.430016 C 81.65395 638.006364 75.610029 637.650745 68.588114 636.498048 C 61.38615 635.128709 52.027689 632.14069 47.023142 630.015149 C 42.055424 627.893696 39.428343 625.841732 38.994589 623.859257 C 37.124533 621.447586 36.441165 619.289345 36.547558 617.380446 C 36.621214 615.402058 37.881558 613.709801 39.931663 612.160609 Z M 39.931663 612.160609 " transform="matrix(0.954601,0,0,0.955639,413.010113,519.11638)"/><path style="fill-rule:nonzero;fill:#ffffff;fill-opacity:1;stroke-width:0.036;stroke-linecap:butt;stroke-linejoin:miter;stroke:#000000;stroke-opacity:1;stroke-miterlimit:10;" d="M 39.645221 629.4061 C 37.235018 632.42682 34.963944 634.948856 32.840183 637.107097 C 30.716422 639.126361 28.809539 640.168693 26.685778 642.044891 C 24.381967 643.843426 21.967673 645.89539 19.303764 648.196696 L 52.891106 663.606865 C 55.448621 660.904976 57.609211 657.667614 59.659315 653.453321 C 61.639855 649.206328 63.333954 644.419774 64.880739 638.656289 C 60.379512 638.946507 56.205646 638.333371 51.958124 636.820967 C 47.70651 635.202286 43.602209 632.827403 39.645221 629.4061 Z M 39.645221 629.4061 " transform="matrix(0.954601,0,0,0.955639,413.010113,519.11638)"/><path style="fill-rule:nonzero;fill:#ffffff;fill-opacity:1;stroke-width:0.036;stroke-linecap:butt;stroke-linejoin:miter;stroke:#000000;stroke-opacity:1;stroke-miterlimit:10;" d="M 70.134899 639.882563 C 78.343501 640.569276 86.228834 640.422123 94.470172 639.592345 C 102.678774 638.733953 110.564106 637.037608 118.809537 634.662726 C 124.17009 638.476436 128.384875 642.331022 131.732152 646.361374 C 135.009864 650.322237 137.276846 654.422077 138.53719 658.673159 C 133.278937 660.508481 124.026869 661.697966 110.49045 662.67081 C 96.741246 663.496501 79.530189 663.966572 57.498726 663.929784 C 61.963125 659.249507 65.204009 654.928937 67.364598 650.972162 C 69.525188 646.864146 70.314948 643.303865 70.134899 639.882563 Z M 70.134899 639.882563 " transform="matrix(0.954601,0,0,0.955639,413.010113,519.11638)"/><path style="fill-rule:nonzero;fill:#ffffff;fill-opacity:1;stroke-width:0.036;stroke-linecap:butt;stroke-linejoin:miter;stroke:#000000;stroke-opacity:1;stroke-miterlimit:10;" d="M 146.852184 661.591689 C 149.839363 661.697966 151.422976 662.597233 151.459805 664.685986 C 151.496633 666.742037 150.05624 669.582904 147.142718 673.613256 C 134.179183 675.092959 120.393151 676.278357 104.949848 677.324777 C 89.469717 678.29762 73.052513 679.012947 55.018959 679.483018 C 52.891106 676.924194 51.778075 674.622888 51.958124 672.713989 C 51.994952 670.768302 53.32486 669.076044 55.665499 667.780282 C 78.597207 667.747582 97.318221 667.27751 112.651039 666.235178 C 127.987949 665.082481 139.110073 663.713142 146.852184 661.591689 Z M 146.852184 661.591689 " transform="matrix(0.954601,0,0,0.955639,413.010113,519.11638)"/><path style="fill-rule:nonzero;fill:#ffffff;fill-opacity:1;stroke-width:0.036;stroke-linecap:butt;stroke-linejoin:miter;stroke:#000000;stroke-opacity:1;stroke-miterlimit:10;" d="M 51.954032 665.908172 C 51.847639 665.442188 48.71724 663.892996 42.415522 660.978553 C 36.081067 658.09681 26.828998 653.992882 14.372874 648.66268 C 10.735064 649.059175 8.82818 650.391726 8.50491 652.660331 C 8.251205 654.965725 9.405156 658.060022 12.498727 662.237527 L 49.797535 677.929738 C 48.177093 675.231937 47.563289 672.820266 47.960216 670.837791 C 48.283486 668.859403 49.617486 667.171233 51.954032 665.908172 Z M 51.954032 665.908172 " transform="matrix(0.954601,0,0,0.955639,413.010113,519.11638)"/><path style="fill-rule:nonzero;fill:#ffffff;fill-opacity:1;stroke-width:0.036;stroke-linecap:butt;stroke-linejoin:miter;stroke:#000000;stroke-opacity:1;stroke-miterlimit:10;" d="M 51.02105 681.31834 L 50.734609 700.108936 L 14.986678 685.025774 L 14.049604 666.235178 Z M 51.02105 681.31834 " transform="matrix(0.954601,0,0,0.955639,413.010113,519.11638)"/><path style="fill-rule:nonzero;fill:#ffffff;fill-opacity:1;stroke-width:0.036;stroke-linecap:butt;stroke-linejoin:miter;stroke:#000000;stroke-opacity:1;stroke-miterlimit:10;" d="M 55.338137 682.540526 L 55.014867 699.822806 L 144.368325 695.788367 L 144.081883 679.156012 Z M 55.338137 682.540526 " transform="matrix(0.954601,0,0,0.955639,413.010113,519.11638)"/><path style="fill-rule:nonzero;fill:#ffffff;fill-opacity:1;stroke-width:0.036;stroke-linecap:butt;stroke-linejoin:miter;stroke:#000000;stroke-opacity:1;stroke-miterlimit:10;" d="M 52.891106 703.203233 C 50.083977 703.170532 48.463535 704.392718 47.636946 706.877966 C 46.916749 709.359125 46.986314 712.964369 48.246657 717.967565 C 82.484631 717.714135 107.756977 716.957933 125.577746 715.842024 C 143.181638 714.652539 149.012774 712.964369 153.620394 710.908317 C 158.047965 708.713288 153.800443 705.365562 152.68332 703.203233 C 151.533461 701.044992 149.589749 699.246457 146.852184 697.950695 C 133.999134 699.172881 120.102617 700.108936 104.336044 701.049079 C 88.458987 701.911558 71.685777 702.630972 52.891106 703.203233 Z M 52.891106 703.203233 " transform="matrix(0.954601,0,0,0.955639,413.010113,519.11638)"/><path style="fill-rule:nonzero;fill:#ffffff;fill-opacity:1;stroke-width:0.036;stroke-linecap:butt;stroke-linejoin:miter;stroke:#000000;stroke-opacity:1;stroke-miterlimit:10;" d="M 11.889015 686.574966 C 8.144812 686.141682 5.841002 687.114526 5.120806 689.346344 C 4.290125 691.614949 5.010321 695.105741 7.281395 700.108936 L 45.189915 716.741291 C 43.819086 712.457509 43.639037 709.220148 44.252841 706.877966 C 44.973037 704.466295 46.482995 703.137832 49.183731 702.594184 C 36.764435 697.26807 24.345139 691.937868 11.889015 686.574966 Z M 11.889015 686.574966 " transform="matrix(0.954601,0,0,0.955639,413.010113,519.11638)"/><path style="fill-rule:nonzero;fill:#ffffff;fill-opacity:1;stroke-width:0.036;stroke-linecap:butt;stroke-linejoin:miter;stroke:#000000;stroke-opacity:1;stroke-miterlimit:10;" d="M 46.41343 459.088989 C 49.470173 461.320807 54.188278 462.869999 60.702782 463.87963 C 67.254114 464.815686 75.89647 465.968383 85.074883 464.995539 C 94.18373 463.87963 103.722241 461.574236 114.525187 457.682862 L 112.544647 599.489117 C 109.880738 602.693778 104.839363 605.031873 97.13408 606.221358 C 89.322405 607.410843 75.356323 607.733762 66.607574 606.797707 C 57.752432 605.718586 50.660952 603.519469 44.75616 600.065466 C 45.296307 553.086932 45.836455 506.104311 46.41343 459.088989 Z M 46.41343 459.088989 " transform="matrix(0.954601,0,0,0.955639,413.010113,519.11638)"/><path style="fill-rule:nonzero;fill:#ffffff;fill-opacity:1;stroke-width:0.036;stroke-linecap:butt;stroke-linejoin:miter;stroke:#000000;stroke-opacity:1;stroke-miterlimit:10;" d="M 50.01032 37.639263 L 47.997044 152.622831 C 55.338137 150.820209 64.410156 149.814665 75.642765 149.884154 C 86.875374 149.814665 99.728424 150.824297 114.885285 152.622831 L 118.772709 40.193999 C 108.366689 37.279556 97.641491 35.619999 86.155177 35.227592 C 74.636127 34.831097 62.683322 35.587298 50.01032 37.639263 Z M 50.01032 37.639263 " transform="matrix(0.954601,0,0,0.955639,413.010113,519.11638)"/><path style="fill-rule:nonzero;fill:#ffffff;fill-opacity:1;stroke-width:0.036;stroke-linecap:butt;stroke-linejoin:miter;stroke:#000000;stroke-opacity:1;stroke-miterlimit:10;" d="M 48.537191 154.854648 C 55.698235 153.268668 63.333954 152.549254 71.575292 152.263124 C 79.857551 152.083271 90.296307 152.549254 97.747884 153.379033 C 105.019413 154.061658 110.924205 154.997714 115.458168 156.330264 L 106.963124 169.578104 C 100.411792 166.373443 92.997043 164.717974 84.285122 164.611697 C 75.5732 164.501332 65.850549 165.727606 54.978039 168.678837 C 52.854278 164.068049 50.69778 159.461349 48.537191 154.854648 Z M 48.537191 154.854648 " transform="matrix(0.954601,0,0,0.955639,413.010113,519.11638)"/><path style="fill-rule:nonzero;fill:#ffffff;fill-opacity:1;stroke-width:0.036;stroke-linecap:butt;stroke-linejoin:miter;stroke:#000000;stroke-opacity:1;stroke-miterlimit:10;" d="M 34.890288 20.573625 C 40.328589 18.701514 47.923387 17.262686 58.11253 15.966924 C 68.191187 14.634374 82.374146 12.402556 95.370418 13.015693 C 108.403517 13.624742 121.362961 15.533641 135.369962 19.277862 L 117.655586 34.75752 C 102.572382 32.419426 89.829816 31.193152 78.597207 31.086875 C 67.364598 30.97651 58.292579 31.769501 50.947394 33.858253 C 48.320314 29.251553 45.619577 25.867038 42.992497 23.704709 C 40.218104 21.436104 37.664681 20.393771 34.890288 20.573625 Z M 34.890288 20.573625 " transform="matrix(0.954601,0,0,0.955639,413.010113,519.11638)"/><path style="fill-rule:nonzero;fill:#ffffff;fill-opacity:1;stroke-width:0.036;stroke-linecap:butt;stroke-linejoin:miter;stroke:#000000;stroke-opacity:1;stroke-miterlimit:10;" d="M 34.710239 17.082833 C 32.733791 15.644006 31.796717 14.274667 31.759889 12.835839 C 31.686232 11.286647 32.553741 9.954097 34.35014 8.404905 C 52.461443 3.978058 69.774801 1.99967 87.415521 2.322589 C 104.91302 2.608719 121.976764 5.310608 139.040509 10.420081 C 140.624122 11.646354 141.344319 12.688687 141.057877 13.951748 C 140.767343 15.137146 139.543828 16.253055 137.383238 17.44254 C 120.139445 12.545621 103.435799 10.13395 86.155177 10.060374 C 68.841819 10.060374 52.064517 12.222703 34.710239 17.082833 Z M 34.710239 17.082833 " transform="matrix(0.954601,0,0,0.955639,413.010113,519.11638)"/><path style="fill-rule:nonzero;fill:#ffffff;fill-opacity:1;stroke-width:0.036;stroke-linecap:butt;stroke-linejoin:miter;stroke:#000000;stroke-opacity:1;stroke-miterlimit:10;" d="M 125.18082 35.190803 C 140.877828 35.656787 154.843909 37.74554 167.516911 41.309908 C 180.116256 44.837487 190.518183 49.771194 200.670498 56.6465 C 210.716419 63.378741 219.714782 71.226891 227.673771 82.132549 C 235.591839 93.079083 242.143171 105.89364 247.614209 121.696216 C 252.872461 137.539668 254.456074 159.714779 259.603842 175.733997 C 264.677953 191.503872 270.079426 205.323974 278.324856 215.947589 C 286.566195 226.49354 296.358411 234.055559 308.671314 238.625471 C 320.947389 242.909253 337.43825 243.955673 351.044233 242.332905 C 364.400603 240.677435 375.956481 235.024315 388.772704 229.121853 C 401.552098 223.039537 416.385689 210.907605 427.151806 207.016231 C 437.840176 203.165732 447.525999 204.392006 452.313668 206.407182 C 456.88446 208.422358 457.281387 214.288032 454.760699 219.005097 C 452.203184 223.648586 446.228827 228.508716 436.976759 234.018771 C 432.369138 231.89323 427.761518 231.030751 422.863364 231.570312 C 417.899738 232.109872 415.522271 232.93965 407.816988 237.113067 C 399.931656 241.253784 388.162992 251.010833 376.823991 256.120305 C 365.337676 261.054012 351.694865 264.691956 340.319035 266.886985 C 328.939114 269.045227 321.524365 272.070034 309.321946 269.008438 C 296.90265 265.877354 280.018955 260.224233 267.272297 248.165878 C 254.529731 235.817305 243.874098 216.487149 233.504906 196.290426 C 222.955666 175.950638 214.783892 146.610004 204.95894 127.852108 C 195.166724 109.204578 188.6113 95.3109 175.185366 84.908014 C 161.648947 74.431552 145.051693 67.879164 124.567016 65.250852 C 124.747065 55.240373 124.963943 45.233982 125.18082 35.190803 Z M 125.18082 35.190803 " transform="matrix(0.954601,0,0,0.955639,413.010113,519.11638)"/><path style="fill-rule:nonzero;fill:#ffffff;fill-opacity:1;stroke-width:0.036;stroke-linecap:butt;stroke-linejoin:miter;stroke:#000000;stroke-opacity:1;stroke-miterlimit:10;" d="M 124.243746 70.68733 C 134.973036 71.083826 144.622031 73.13579 153.726786 77.129353 C 162.692413 81.053428 169.857549 84.004659 178.278937 94.338057 C 186.704416 104.671454 196.53346 123.74818 203.731332 138.508424 C 210.753247 153.199179 214.603843 168.139277 220.291757 181.783612 C 225.906016 195.280795 231.417974 208.459146 237.498723 219.221739 C 243.546736 229.878054 247.761521 237.329709 256.506179 245.611142 C 265.148536 253.708634 277.711053 263.359406 289.340588 268.039682 C 300.896466 272.609595 310.975124 274.33864 325.555009 273.222731 C 340.098066 271.926969 362.203185 266.416914 375.886917 261.270653 C 389.349679 256.087604 397.627846 247.266611 406.266111 242.872465 C 414.765247 238.445618 421.570284 235.600664 426.824444 235.171468 C 431.902648 234.701396 435.139439 237.403286 436.976759 239.778168 C 438.666765 242.009986 438.163446 245.104282 437.2632 248.66865 C 436.326127 252.19623 434.386507 256.050816 431.432065 260.657517 C 418.472621 267.643187 403.962301 273.54565 386.935385 279.055705 C 369.834812 284.455396 348.740423 291.007783 330.166721 292.879894 C 311.445707 294.64164 293.58811 293.742373 276.164267 289.495379 C 258.67086 284.994956 240.526821 277.469725 226.450255 266.776621 C 212.447346 255.870963 201.284301 238.699048 192.392331 225.667849 C 183.393968 212.669351 178.606299 199.025016 172.738335 189.451908 C 166.796714 179.837925 162.586021 173.575756 156.791713 168.282342 C 150.813265 162.845863 144.008227 159.39186 137.747429 157.229531 C 131.372054 154.924137 125.471354 154.351876 119.349684 155.07129 C 120.966034 126.952841 122.586476 98.83848 124.243746 70.68733 Z M 124.243746 70.68733 " transform="matrix(0.954601,0,0,0.955639,413.010113,519.11638)"/><path style="fill-rule:nonzero;fill:#ffffff;fill-opacity:1;stroke-width:0.036;stroke-linecap:butt;stroke-linejoin:miter;stroke:#000000;stroke-opacity:1;stroke-miterlimit:10;" d="M 462.609203 206.656524 C 468.186633 208.168928 471.501174 211.806872 472.401419 217.709335 C 473.228008 223.615885 471.57483 232.432791 468.117069 241.936409 C 464.62248 251.333751 462.535547 255.691109 451.843085 273.868569 C 440.937839 292.123692 419.839358 326.467522 403.962301 350.261313 C 388.089336 373.879339 374.769794 390.004834 357.345952 415.024899 C 339.74206 440.044963 316.339769 475.431126 299.926656 499.408858 C 283.542188 523.243525 273.213917 537.893405 260.033505 557.407502 C 246.824448 576.917512 233.865004 597.114234 221.552101 615.471547 C 209.206462 633.689882 197.720147 650.142383 186.561195 665.801895 L 155.240836 668.896191 C 156.284302 666.774738 156.6444 664.972116 156.177909 663.353435 C 155.67459 661.661178 154.627032 660.328628 152.503271 659.355784 C 150.273117 658.346152 147.142718 657.594038 142.964761 657.234331 C 141.561196 653.056826 139.114165 649.095963 135.910109 644.955247 C 132.526005 640.78183 128.528096 636.820967 123.343501 632.68025 C 125.254476 628.400556 126.477992 625.195895 127.018139 622.530794 C 127.558286 619.902482 127.304581 618.067159 126.404335 617.024827 C 142.138172 603.053485 160.531824 585.125368 182.563287 562.410697 C 204.598842 539.479385 235.665496 505.711903 257.443253 481.374464 C 279.045053 457.004324 295.675042 436.84439 311.768977 417.551022 C 327.715598 398.216778 339.811624 382.880185 353.204822 366.533961 C 366.561192 350.191824 378.513997 335.721798 391.543005 320.205352 C 404.576104 304.398688 421.78307 285.285174 430.531819 273.549737 C 438.994127 261.920578 441.187452 256.986872 442.807894 250.830979 C 444.461072 244.605598 443.601747 239.851745 440.360863 236.430442 C 447.701956 233.589575 453.177086 229.698201 456.921289 224.768582 C 460.591835 219.724511 462.535547 213.822048 462.609203 206.656524 Z M 462.609203 206.656524 " transform="matrix(0.954601,0,0,0.955639,413.010113,519.11638)"/><path style="fill-rule:nonzero;fill:#ffffff;fill-opacity:1;stroke-width:0.036;stroke-linecap:butt;stroke-linejoin:miter;stroke:#000000;stroke-opacity:1;stroke-miterlimit:10;" d="M 476.935383 218.608602 C 480.573193 222.103481 482.983396 225.917191 484.317396 230.597468 C 485.57774 235.13468 487.844722 236.033947 484.603838 245.934061 C 481.256561 255.834175 476.325671 267.066839 464.372866 289.495379 C 452.133619 311.993408 427.258199 354.328453 412.784707 379.422094 C 398.274386 404.225518 395.757791 407.789886 378.440341 437.743657 C 361.016498 467.803705 328.182089 524.392135 309.39151 557.803997 C 290.600931 590.958342 276.450709 616.374902 266.40888 635.418927 C 263.92502 635.022432 261.727603 635.382139 259.677498 636.354983 C 257.590566 637.327826 255.785983 638.913807 254.132804 641.251901 C 249.668405 639.919351 246.071515 639.412491 242.793803 639.739497 C 239.516091 639.919351 237.322766 640.998471 234.802078 643.119924 C 232.211826 645.245465 229.760703 648.413338 227.456893 652.623543 C 222.129077 651.977706 218.024776 651.728364 214.571107 652.014494 C 211.187002 652.161647 209.56656 652.120771 207.189093 654.140035 C 204.668406 656.081634 202.114982 659.359872 199.520638 663.966572 L 191.242472 664.289491 C 212.696959 634.912068 232.858366 606.078293 253.236651 576.521017 C 273.504451 546.783887 294.058693 514.598298 311.842633 488.139406 C 329.409697 461.647813 340.425428 445.158523 358.495811 419.382257 C 376.603021 393.422049 404.539276 356.380417 419.557008 334.634503 C 434.243286 312.962164 439.783888 302.812708 447.165901 290.427347 C 454.511086 278.009285 459.478804 269.261868 463.726326 260.980435 C 467.756971 252.699002 470.204002 248.092302 472.331855 241.037142 C 474.488352 233.908406 476.071966 226.567116 476.935383 218.608602 Z M 476.935383 218.608602 " transform="matrix(0.954601,0,0,0.955639,413.010113,519.11638)"/><path style="fill-rule:nonzero;fill:#ff6d4d;fill-opacity:1;stroke-width:0.036;stroke-linecap:butt;stroke-linejoin:miter;stroke:#000000;stroke-opacity:1;stroke-miterlimit:10;" d="M 133.057968 58.122116 L 135.938754 58.122116 L 135.938754 637.221549 L 133.057968 637.221549 Z M 133.057968 58.122116 " transform="matrix(0.954601,0,0,0.955639,413.010113,519.11638)"/><path style="fill-rule:nonzero;fill:#ff6d4d;fill-opacity:1;stroke-width:0.036;stroke-linecap:butt;stroke-linejoin:miter;stroke:#000000;stroke-opacity:1;stroke-miterlimit:10;" d="M 147.461896 59.560943 L 150.33859 59.560943 L 150.33859 624.263927 L 147.461896 624.263927 Z M 147.461896 59.560943 " transform="matrix(0.954601,0,0,0.955639,413.010113,519.11638)"/><path style="fill-rule:nonzero;fill:#ff6d4d;fill-opacity:1;stroke-width:0.036;stroke-linecap:butt;stroke-linejoin:miter;stroke:#000000;stroke-opacity:1;stroke-miterlimit:10;" d="M 161.861732 64.960634 L 164.738426 64.960634 L 164.738426 608.02398 L 161.861732 608.02398 Z M 161.861732 64.960634 " transform="matrix(0.954601,0,0,0.955639,413.010113,519.11638)"/><path style="fill-rule:nonzero;fill:#ff6d4d;fill-opacity:1;stroke-width:0.036;stroke-linecap:butt;stroke-linejoin:miter;stroke:#000000;stroke-opacity:1;stroke-miterlimit:10;" d="M 176.261568 72.522653 L 179.138262 72.522653 L 179.138262 591.101407 L 176.261568 591.101407 Z M 176.261568 72.522653 " transform="matrix(0.954601,0,0,0.955639,413.010113,519.11638)"/><path style="fill-rule:nonzero;fill:#ff6d4d;fill-opacity:1;stroke-width:0.036;stroke-linecap:butt;stroke-linejoin:miter;stroke:#000000;stroke-opacity:1;stroke-miterlimit:10;" d="M 190.661404 84.760861 L 193.538098 84.760861 L 193.538098 574.542629 L 190.661404 574.542629 Z M 190.661404 84.760861 " transform="matrix(0.954601,0,0,0.955639,413.010113,519.11638)"/><path style="fill-rule:nonzero;fill:#ff6d4d;fill-opacity:1;stroke-width:0.036;stroke-linecap:butt;stroke-linejoin:miter;stroke:#000000;stroke-opacity:1;stroke-miterlimit:10;" d="M 205.06124 103.878464 L 207.942026 103.878464 L 207.942026 557.979763 L 205.06124 557.979763 Z M 205.06124 103.878464 " transform="matrix(0.954601,0,0,0.955639,413.010113,519.11638)"/><path style="fill-rule:nonzero;fill:#ff6d4d;fill-opacity:1;stroke-width:0.036;stroke-linecap:butt;stroke-linejoin:miter;stroke:#000000;stroke-opacity:1;stroke-miterlimit:10;" d="M 219.461076 129.438089 L 222.341862 129.438089 L 222.341862 539.230043 L 219.461076 539.230043 Z M 219.461076 129.438089 " transform="matrix(0.954601,0,0,0.955639,413.010113,519.11638)"/><path style="fill-rule:nonzero;fill:#ff6d4d;fill-opacity:1;stroke-width:0.036;stroke-linecap:butt;stroke-linejoin:miter;stroke:#000000;stroke-opacity:1;stroke-miterlimit:10;" d="M 233.860912 162.228639 L 236.741698 162.228639 L 236.741698 522.659002 L 233.860912 522.659002 Z M 233.860912 162.228639 " transform="matrix(0.954601,0,0,0.955639,413.010113,519.11638)"/><path style="fill-rule:nonzero;fill:#ff6d4d;fill-opacity:1;stroke-width:0.036;stroke-linecap:butt;stroke-linejoin:miter;stroke:#000000;stroke-opacity:1;stroke-miterlimit:10;" d="M 248.260749 196.069697 L 251.141534 196.069697 L 251.141534 505.740516 L 248.260749 505.740516 Z M 248.260749 196.069697 " transform="matrix(0.954601,0,0,0.955639,413.010113,519.11638)"/><path style="fill-rule:nonzero;fill:#ff6d4d;fill-opacity:1;stroke-width:0.036;stroke-linecap:butt;stroke-linejoin:miter;stroke:#000000;stroke-opacity:1;stroke-miterlimit:10;" d="M 262.660585 220.190495 L 265.54137 220.190495 L 265.54137 488.458237 L 262.660585 488.458237 Z M 262.660585 220.190495 " transform="matrix(0.954601,0,0,0.955639,413.010113,519.11638)"/><path style="fill-rule:nonzero;fill:#ff6d4d;fill-opacity:1;stroke-width:0.036;stroke-linecap:butt;stroke-linejoin:miter;stroke:#000000;stroke-opacity:1;stroke-miterlimit:10;" d="M 277.060421 238.228976 L 279.937114 238.228976 L 279.937114 471.870845 L 277.060421 471.870845 Z M 277.060421 238.228976 " transform="matrix(0.954601,0,0,0.955639,413.010113,519.11638)"/><path style="fill-rule:nonzero;fill:#ff6d4d;fill-opacity:1;stroke-width:0.036;stroke-linecap:butt;stroke-linejoin:miter;stroke:#000000;stroke-opacity:1;stroke-miterlimit:10;" d="M 291.460257 247.949237 L 294.341042 247.949237 L 294.341042 453.509445 L 291.460257 453.509445 Z M 291.460257 247.949237 " transform="matrix(0.954601,0,0,0.955639,413.010113,519.11638)"/><path style="fill-rule:nonzero;fill:#ff6d4d;fill-opacity:1;stroke-width:0.036;stroke-linecap:butt;stroke-linejoin:miter;stroke:#000000;stroke-opacity:1;stroke-miterlimit:10;" d="M 305.860093 254.428048 L 308.740878 254.428048 L 308.740878 437.310374 L 305.860093 437.310374 Z M 305.860093 254.428048 " transform="matrix(0.954601,0,0,0.955639,413.010113,519.11638)"/><path style="fill-rule:nonzero;fill:#ff6d4d;fill-opacity:1;stroke-width:0.036;stroke-linecap:butt;stroke-linejoin:miter;stroke:#000000;stroke-opacity:1;stroke-miterlimit:10;" d="M 320.259929 258.029204 L 323.140714 258.029204 L 323.140714 420.391888 L 320.259929 420.391888 Z M 320.259929 258.029204 " transform="matrix(0.954601,0,0,0.955639,413.010113,519.11638)"/><path style="fill-rule:nonzero;fill:#ff6d4d;fill-opacity:1;stroke-width:0.036;stroke-linecap:butt;stroke-linejoin:miter;stroke:#000000;stroke-opacity:1;stroke-miterlimit:10;" d="M 334.659765 257.30979 L 337.540551 257.30979 L 337.540551 403.42844 L 334.659765 403.42844 Z M 334.659765 257.30979 " transform="matrix(0.954601,0,0,0.955639,413.010113,519.11638)"/><path style="fill-rule:nonzero;fill:#ff6d4d;fill-opacity:1;stroke-width:0.036;stroke-linecap:butt;stroke-linejoin:miter;stroke:#000000;stroke-opacity:1;stroke-miterlimit:10;" d="M 349.059601 255.151549 L 351.940387 255.151549 L 351.940387 385.430834 L 349.059601 385.430834 Z M 349.059601 255.151549 " transform="matrix(0.954601,0,0,0.955639,413.010113,519.11638)"/><path style="fill-rule:nonzero;fill:#ff6d4d;fill-opacity:1;stroke-width:0.036;stroke-linecap:butt;stroke-linejoin:miter;stroke:#000000;stroke-opacity:1;stroke-miterlimit:10;" d="M 363.459437 250.471272 L 366.340223 250.471272 L 366.340223 367.069434 L 363.459437 367.069434 Z M 363.459437 250.471272 " transform="matrix(0.954601,0,0,0.955639,413.010113,519.11638)"/><path style="fill-rule:nonzero;fill:#ff6d4d;fill-opacity:1;stroke-width:0.036;stroke-linecap:butt;stroke-linejoin:miter;stroke:#000000;stroke-opacity:1;stroke-miterlimit:10;" d="M 377.859273 244.34808 L 380.740059 244.34808 L 380.740059 349.431535 L 377.859273 349.431535 Z M 377.859273 244.34808 " transform="matrix(0.954601,0,0,0.955639,413.010113,519.11638)"/><path style="fill-rule:nonzero;fill:#ff6d4d;fill-opacity:1;stroke-width:0.036;stroke-linecap:butt;stroke-linejoin:miter;stroke:#000000;stroke-opacity:1;stroke-miterlimit:10;" d="M 392.259109 236.790149 L 395.139895 236.790149 L 395.139895 332.835968 L 392.259109 332.835968 Z M 392.259109 236.790149 " transform="matrix(0.954601,0,0,0.955639,413.010113,519.11638)"/><path style="fill-rule:nonzero;fill:#ff6d4d;fill-opacity:1;stroke-width:0.036;stroke-linecap:butt;stroke-linejoin:miter;stroke:#000000;stroke-opacity:1;stroke-miterlimit:10;" d="M 406.658945 229.951631 L 409.539731 229.951631 L 409.539731 315.557776 L 406.658945 315.557776 Z M 406.658945 229.951631 " transform="matrix(0.954601,0,0,0.955639,413.010113,519.11638)"/><path style="fill-rule:nonzero;fill:#ff6d4d;fill-opacity:1;stroke-width:0.036;stroke-linecap:butt;stroke-linejoin:miter;stroke:#000000;stroke-opacity:1;stroke-miterlimit:10;" d="M 129.677955 56.503435 C 129.677955 58.5881 131.695324 60.280357 134.179183 60.280357 C 136.69987 60.280357 138.717239 58.5881 138.717239 56.503435 C 138.717239 54.414683 136.69987 52.722425 134.179183 52.722425 C 131.695324 52.722425 129.677955 54.414683 129.677955 56.503435 Z M 129.677955 56.503435 " transform="matrix(0.954601,0,0,0.955639,413.010113,519.11638)"/><path style="fill-rule:nonzero;fill:#ffffff;fill-opacity:1;stroke-width:0.036;stroke-linecap:butt;stroke-linejoin:miter;stroke:#000000;stroke-opacity:1;stroke-miterlimit:10;" d="M 131.478446 56.143728 C 131.478446 57.222849 132.526005 58.085328 133.819085 58.085328 C 135.116257 58.085328 136.196551 57.222849 136.196551 56.143728 C 136.196551 55.027819 135.116257 54.161253 133.819085 54.161253 C 132.526005 54.161253 131.478446 55.027819 131.478446 56.143728 Z M 131.478446 56.143728 " transform="matrix(0.954601,0,0,0.955639,413.010113,519.11638)"/><path style="fill-rule:nonzero;fill:#ff6d4d;fill-opacity:1;stroke-width:0.036;stroke-linecap:butt;stroke-linejoin:miter;stroke:#000000;stroke-opacity:1;stroke-miterlimit:10;" d="M 144.081883 60.100504 C 144.081883 62.189256 146.09516 63.881513 148.579019 63.881513 C 151.099706 63.881513 153.117075 62.189256 153.117075 60.100504 C 153.117075 58.015839 151.099706 56.323581 148.579019 56.323581 C 146.09516 56.323581 144.081883 58.015839 144.081883 60.100504 Z M 144.081883 60.100504 " transform="matrix(0.954601,0,0,0.955639,413.010113,519.11638)"/><path style="fill-rule:nonzero;fill:#ffffff;fill-opacity:1;stroke-width:0.036;stroke-linecap:butt;stroke-linejoin:miter;stroke:#000000;stroke-opacity:1;stroke-miterlimit:10;" d="M 145.878282 59.740797 C 145.878282 60.824005 146.925841 61.686484 148.218921 61.686484 C 149.516093 61.686484 150.596387 60.824005 150.596387 59.740797 C 150.596387 58.624888 149.516093 57.762409 148.218921 57.762409 C 146.925841 57.762409 145.878282 58.624888 145.878282 59.740797 Z M 145.878282 59.740797 " transform="matrix(0.954601,0,0,0.955639,413.010113,519.11638)"/><path style="fill-rule:nonzero;fill:#ff6d4d;fill-opacity:1;stroke-width:0.036;stroke-linecap:butt;stroke-linejoin:miter;stroke:#000000;stroke-opacity:1;stroke-miterlimit:10;" d="M 158.48172 65.863988 C 158.48172 67.948653 160.494996 69.640911 162.978855 69.640911 C 165.499542 69.640911 167.516911 67.948653 167.516911 65.863988 C 167.516911 63.775236 165.499542 62.082979 162.978855 62.082979 C 160.494996 62.082979 158.48172 63.775236 158.48172 65.863988 Z M 158.48172 65.863988 " transform="matrix(0.954601,0,0,0.955639,413.010113,519.11638)"/><path style="fill-rule:nonzero;fill:#ffffff;fill-opacity:1;stroke-width:0.036;stroke-linecap:butt;stroke-linejoin:miter;stroke:#000000;stroke-opacity:1;stroke-miterlimit:10;" d="M 160.278118 65.500194 C 160.278118 66.583402 161.325677 67.482669 162.618757 67.482669 C 163.915929 67.482669 164.996223 66.583402 164.996223 65.500194 C 164.996223 64.421073 163.915929 63.521806 162.618757 63.521806 C 161.325677 63.521806 160.278118 64.421073 160.278118 65.500194 Z M 160.278118 65.500194 " transform="matrix(0.954601,0,0,0.955639,413.010113,519.11638)"/><path style="fill-rule:nonzero;fill:#ff6d4d;fill-opacity:1;stroke-width:0.036;stroke-linecap:butt;stroke-linejoin:miter;stroke:#000000;stroke-opacity:1;stroke-miterlimit:10;" d="M 172.881556 73.062213 C 172.881556 75.150966 174.894832 76.843223 177.378691 76.843223 C 179.899378 76.843223 181.916747 75.150966 181.916747 73.062213 C 181.916747 70.973461 179.899378 69.281204 177.378691 69.281204 C 174.894832 69.281204 172.881556 70.973461 172.881556 73.062213 Z M 172.881556 73.062213 " transform="matrix(0.954601,0,0,0.955639,413.010113,519.11638)"/><path style="fill-rule:nonzero;fill:#ffffff;fill-opacity:1;stroke-width:0.036;stroke-linecap:butt;stroke-linejoin:miter;stroke:#000000;stroke-opacity:1;stroke-miterlimit:10;" d="M 174.677955 72.702506 C 174.677955 73.781627 175.725513 74.680894 177.018593 74.680894 C 178.315765 74.680894 179.396059 73.781627 179.396059 72.702506 C 179.396059 71.623386 178.315765 70.720031 177.018593 70.720031 C 175.725513 70.720031 174.677955 71.623386 174.677955 72.702506 Z M 174.677955 72.702506 " transform="matrix(0.954601,0,0,0.955639,413.010113,519.11638)"/><path style="fill-rule:nonzero;fill:#ff6d4d;fill-opacity:1;stroke-width:0.036;stroke-linecap:butt;stroke-linejoin:miter;stroke:#000000;stroke-opacity:1;stroke-miterlimit:10;" d="M 187.281392 86.38363 C 187.281392 88.468295 189.294668 90.19734 191.778527 90.19734 C 194.299215 90.19734 196.316583 88.468295 196.316583 86.38363 C 196.316583 84.294878 194.299215 82.60262 191.778527 82.60262 C 189.294668 82.60262 187.281392 84.294878 187.281392 86.38363 Z M 187.281392 86.38363 " transform="matrix(0.954601,0,0,0.955639,413.010113,519.11638)"/><path style="fill-rule:nonzero;fill:#ffffff;fill-opacity:1;stroke-width:0.036;stroke-linecap:butt;stroke-linejoin:miter;stroke:#000000;stroke-opacity:1;stroke-miterlimit:10;" d="M 189.081883 86.023923 C 189.081883 87.103044 190.125349 88.002311 191.418429 88.002311 C 192.715601 88.002311 193.795895 87.103044 193.795895 86.023923 C 193.795895 84.940715 192.715601 84.078236 191.418429 84.078236 C 190.125349 84.078236 189.081883 84.940715 189.081883 86.023923 Z M 189.081883 86.023923 " transform="matrix(0.954601,0,0,0.955639,413.010113,519.11638)"/><path style="fill-rule:nonzero;fill:#ff6d4d;fill-opacity:1;stroke-width:0.036;stroke-linecap:butt;stroke-linejoin:miter;stroke:#000000;stroke-opacity:1;stroke-miterlimit:10;" d="M 201.681228 105.141525 C 201.681228 107.22619 203.694504 108.918447 206.178363 108.918447 C 208.699051 108.918447 210.716419 107.22619 210.716419 105.141525 C 210.716419 103.052773 208.699051 101.360516 206.178363 101.360516 C 203.694504 101.360516 201.681228 103.052773 201.681228 105.141525 Z M 201.681228 105.141525 " transform="matrix(0.954601,0,0,0.955639,413.010113,519.11638)"/><path style="fill-rule:nonzero;fill:#ffffff;fill-opacity:1;stroke-width:0.036;stroke-linecap:butt;stroke-linejoin:miter;stroke:#000000;stroke-opacity:1;stroke-miterlimit:10;" d="M 203.481719 104.740943 C 203.481719 105.856851 204.525185 106.723418 205.818265 106.723418 C 207.115437 106.723418 208.195732 105.856851 208.195732 104.740943 C 208.195732 103.661822 207.115437 102.799343 205.818265 102.799343 C 204.525185 102.799343 203.481719 103.661822 203.481719 104.740943 Z M 203.481719 104.740943 " transform="matrix(0.954601,0,0,0.955639,413.010113,519.11638)"/><path style="fill-rule:nonzero;fill:#ff6d4d;fill-opacity:1;stroke-width:0.036;stroke-linecap:butt;stroke-linejoin:miter;stroke:#000000;stroke-opacity:1;stroke-miterlimit:10;" d="M 216.081064 129.981736 C 216.081064 132.066401 218.09434 133.758659 220.578199 133.758659 C 223.098887 133.758659 225.116255 132.066401 225.116255 129.981736 C 225.116255 127.892984 223.098887 126.200727 220.578199 126.200727 C 218.09434 126.200727 216.081064 127.892984 216.081064 129.981736 Z M 216.081064 129.981736 " transform="matrix(0.954601,0,0,0.955639,413.010113,519.11638)"/><path style="fill-rule:nonzero;fill:#ffffff;fill-opacity:1;stroke-width:0.036;stroke-linecap:butt;stroke-linejoin:miter;stroke:#000000;stroke-opacity:1;stroke-miterlimit:10;" d="M 217.881555 129.617942 C 217.881555 130.697063 218.925021 131.59633 220.218101 131.59633 C 221.515273 131.59633 222.595568 130.697063 222.595568 129.617942 C 222.595568 128.538821 221.515273 127.639554 220.218101 127.639554 C 218.925021 127.639554 217.881555 128.538821 217.881555 129.617942 Z M 217.881555 129.617942 " transform="matrix(0.954601,0,0,0.955639,413.010113,519.11638)"/><path style="fill-rule:nonzero;fill:#ff6d4d;fill-opacity:1;stroke-width:0.036;stroke-linecap:butt;stroke-linejoin:miter;stroke:#000000;stroke-opacity:1;stroke-miterlimit:10;" d="M 230.4809 164.211114 C 230.4809 166.299867 232.494176 167.988036 234.978035 167.988036 C 237.498723 167.988036 239.516091 166.299867 239.516091 164.211114 C 239.516091 162.122362 237.498723 160.430105 234.978035 160.430105 C 232.494176 160.430105 230.4809 162.122362 230.4809 164.211114 Z M 230.4809 164.211114 " transform="matrix(0.954601,0,0,0.955639,413.010113,519.11638)"/><path style="fill-rule:nonzero;fill:#ffffff;fill-opacity:1;stroke-width:0.036;stroke-linecap:butt;stroke-linejoin:miter;stroke:#000000;stroke-opacity:1;stroke-miterlimit:10;" d="M 232.281391 163.818707 C 232.281391 164.934616 233.324857 165.797095 234.622029 165.797095 C 235.915109 165.797095 236.995404 164.934616 236.995404 163.818707 C 236.995404 162.739586 235.915109 161.87302 234.622029 161.87302 C 233.324857 161.87302 232.281391 162.739586 232.281391 163.818707 Z M 232.281391 163.818707 " transform="matrix(0.954601,0,0,0.955639,413.010113,519.11638)"/><path style="fill-rule:nonzero;fill:#ff6d4d;fill-opacity:1;stroke-width:0.036;stroke-linecap:butt;stroke-linejoin:miter;stroke:#000000;stroke-opacity:1;stroke-miterlimit:10;" d="M 244.880736 196.609257 C 244.880736 198.69801 246.894012 200.390267 249.381963 200.390267 C 251.902651 200.390267 253.915927 198.69801 253.915927 196.609257 C 253.915927 194.520505 251.898559 192.828248 249.381963 192.828248 C 246.894012 192.828248 244.880736 194.520505 244.880736 196.609257 Z M 244.880736 196.609257 " transform="matrix(0.954601,0,0,0.955639,413.010113,519.11638)"/><path style="fill-rule:nonzero;fill:#ffffff;fill-opacity:1;stroke-width:0.036;stroke-linecap:butt;stroke-linejoin:miter;stroke:#000000;stroke-opacity:1;stroke-miterlimit:10;" d="M 246.681227 196.253638 C 246.681227 197.332759 247.724693 198.232026 249.021865 198.232026 C 250.319037 198.232026 251.39524 197.332759 251.39524 196.253638 C 251.39524 195.174518 250.319037 194.27525 249.021865 194.27525 C 247.724693 194.27525 246.681227 195.174518 246.681227 196.253638 Z M 246.681227 196.253638 " transform="matrix(0.954601,0,0,0.955639,413.010113,519.11638)"/><path style="fill-rule:nonzero;fill:#ff6d4d;fill-opacity:1;stroke-width:0.036;stroke-linecap:butt;stroke-linejoin:miter;stroke:#000000;stroke-opacity:1;stroke-miterlimit:10;" d="M 259.280572 220.051517 C 259.280572 222.136182 261.29794 223.828439 263.781799 223.828439 C 266.302487 223.828439 268.315763 222.136182 268.315763 220.051517 C 268.315763 217.925976 266.298395 216.233719 263.781799 216.233719 C 261.293848 216.233719 259.280572 217.925976 259.280572 220.051517 Z M 259.280572 220.051517 " transform="matrix(0.954601,0,0,0.955639,413.010113,519.11638)"/><path style="fill-rule:nonzero;fill:#ffffff;fill-opacity:1;stroke-width:0.036;stroke-linecap:butt;stroke-linejoin:miter;stroke:#000000;stroke-opacity:1;stroke-miterlimit:10;" d="M 261.081063 219.655022 C 261.081063 220.734143 262.124529 221.63341 263.421701 221.63341 C 264.718873 221.63341 265.795076 220.734143 265.795076 219.655022 C 265.795076 218.575901 264.718873 217.709335 263.421701 217.709335 C 262.124529 217.709335 261.081063 218.575901 261.081063 219.655022 Z M 261.081063 219.655022 " transform="matrix(0.954601,0,0,0.955639,413.010113,519.11638)"/><path style="fill-rule:nonzero;fill:#ff6d4d;fill-opacity:1;stroke-width:0.036;stroke-linecap:butt;stroke-linejoin:miter;stroke:#000000;stroke-opacity:1;stroke-miterlimit:10;" d="M 273.680408 238.40883 C 273.680408 240.497582 275.697776 242.189839 278.181636 242.189839 C 280.698231 242.189839 282.715599 240.497582 282.715599 238.40883 C 282.715599 236.320077 280.698231 234.631908 278.181636 234.631908 C 275.697776 234.631908 273.680408 236.320077 273.680408 238.40883 Z M 273.680408 238.40883 " transform="matrix(0.954601,0,0,0.955639,413.010113,519.11638)"/><path style="fill-rule:nonzero;fill:#ffffff;fill-opacity:1;stroke-width:0.036;stroke-linecap:butt;stroke-linejoin:miter;stroke:#000000;stroke-opacity:1;stroke-miterlimit:10;" d="M 275.480899 238.012335 C 275.480899 239.128243 276.524365 239.99481 277.821537 239.99481 C 279.114617 239.99481 280.194912 239.128243 280.194912 238.012335 C 280.194912 236.933214 279.114617 236.070735 277.821537 236.070735 C 276.524365 236.070735 275.480899 236.933214 275.480899 238.012335 Z M 275.480899 238.012335 " transform="matrix(0.954601,0,0,0.955639,413.010113,519.11638)"/><path style="fill-rule:nonzero;fill:#ff6d4d;fill-opacity:1;stroke-width:0.036;stroke-linecap:butt;stroke-linejoin:miter;stroke:#000000;stroke-opacity:1;stroke-miterlimit:10;" d="M 288.080244 247.769383 C 288.080244 249.858136 290.097612 251.550393 292.581472 251.550393 C 295.102159 251.550393 297.115435 249.858136 297.115435 247.769383 C 297.115435 245.680631 295.098067 243.988374 292.581472 243.988374 C 290.09352 243.988374 288.080244 245.680631 288.080244 247.769383 Z M 288.080244 247.769383 " transform="matrix(0.954601,0,0,0.955639,413.010113,519.11638)"/><path style="fill-rule:nonzero;fill:#ffffff;fill-opacity:1;stroke-width:0.036;stroke-linecap:butt;stroke-linejoin:miter;stroke:#000000;stroke-opacity:1;stroke-miterlimit:10;" d="M 289.880735 247.409676 C 289.880735 248.488797 290.924201 249.355363 292.221373 249.355363 C 293.514453 249.355363 294.594748 248.488797 294.594748 247.409676 C 294.594748 246.293768 293.514453 245.431289 292.221373 245.431289 C 290.924201 245.431289 289.880735 246.293768 289.880735 247.409676 Z M 289.880735 247.409676 " transform="matrix(0.954601,0,0,0.955639,413.010113,519.11638)"/><path style="fill-rule:nonzero;fill:#ff6d4d;fill-opacity:1;stroke-width:0.036;stroke-linecap:butt;stroke-linejoin:miter;stroke:#000000;stroke-opacity:1;stroke-miterlimit:10;" d="M 302.48008 255.691109 C 302.48008 257.779862 304.497448 259.468031 306.981308 259.468031 C 309.501995 259.468031 311.515271 257.779862 311.515271 255.691109 C 311.515271 253.602357 309.497903 251.9101 306.981308 251.9101 C 304.497448 251.9101 302.48008 253.602357 302.48008 255.691109 Z M 302.48008 255.691109 " transform="matrix(0.954601,0,0,0.955639,413.010113,519.11638)"/><path style="fill-rule:nonzero;fill:#ffffff;fill-opacity:1;stroke-width:0.036;stroke-linecap:butt;stroke-linejoin:miter;stroke:#000000;stroke-opacity:1;stroke-miterlimit:10;" d="M 304.280571 255.331402 C 304.280571 256.410523 305.324037 257.273002 306.621209 257.273002 C 307.918381 257.273002 308.998676 256.410523 308.998676 255.331402 C 308.998676 254.215494 307.918381 253.348927 306.621209 253.348927 C 305.324037 253.348927 304.280571 254.215494 304.280571 255.331402 Z M 304.280571 255.331402 " transform="matrix(0.954601,0,0,0.955639,413.010113,519.11638)"/><path style="fill-rule:nonzero;fill:#ff6d4d;fill-opacity:1;stroke-width:0.036;stroke-linecap:butt;stroke-linejoin:miter;stroke:#000000;stroke-opacity:1;stroke-miterlimit:10;" d="M 316.879916 258.209057 C 316.879916 260.29781 318.897284 261.990067 321.381144 261.990067 C 323.901831 261.990067 325.915107 260.29781 325.915107 258.209057 C 325.915107 256.120305 323.901831 254.428048 321.381144 254.428048 C 318.897284 254.428048 316.879916 256.120305 316.879916 258.209057 Z M 316.879916 258.209057 " transform="matrix(0.954601,0,0,0.955639,413.010113,519.11638)"/><path style="fill-rule:nonzero;fill:#ffffff;fill-opacity:1;stroke-width:0.036;stroke-linecap:butt;stroke-linejoin:miter;stroke:#000000;stroke-opacity:1;stroke-miterlimit:10;" d="M 318.680407 257.849351 C 318.680407 258.928471 319.723874 259.795038 321.021045 259.795038 C 322.318217 259.795038 323.398512 258.928471 323.398512 257.849351 C 323.398512 256.733442 322.318217 255.870963 321.021045 255.870963 C 319.723874 255.870963 318.680407 256.733442 318.680407 257.849351 Z M 318.680407 257.849351 " transform="matrix(0.954601,0,0,0.955639,413.010113,519.11638)"/><path style="fill-rule:nonzero;fill:#ff6d4d;fill-opacity:1;stroke-width:0.036;stroke-linecap:butt;stroke-linejoin:miter;stroke:#000000;stroke-opacity:1;stroke-miterlimit:10;" d="M 331.279752 256.410523 C 331.279752 258.499275 333.297121 260.191533 335.78098 260.191533 C 338.301667 260.191533 340.319035 258.499275 340.319035 256.410523 C 340.319035 254.321771 338.297575 252.629513 335.78098 252.629513 C 333.293029 252.629513 331.279752 254.321771 331.279752 256.410523 Z M 331.279752 256.410523 " transform="matrix(0.954601,0,0,0.955639,413.010113,519.11638)"/><path style="fill-rule:nonzero;fill:#ffffff;fill-opacity:1;stroke-width:0.036;stroke-linecap:butt;stroke-linejoin:miter;stroke:#000000;stroke-opacity:1;stroke-miterlimit:10;" d="M 333.080243 256.050816 C 333.080243 257.129937 334.12371 257.992416 335.420882 257.992416 C 336.718053 257.992416 337.798348 257.129937 337.798348 256.050816 C 337.798348 254.934907 336.718053 254.068341 335.420882 254.068341 C 334.12371 254.068341 333.080243 254.934907 333.080243 256.050816 Z M 333.080243 256.050816 " transform="matrix(0.954601,0,0,0.955639,413.010113,519.11638)"/><path style="fill-rule:nonzero;fill:#ff6d4d;fill-opacity:1;stroke-width:0.036;stroke-linecap:butt;stroke-linejoin:miter;stroke:#000000;stroke-opacity:1;stroke-miterlimit:10;" d="M 345.679588 254.971696 C 345.679588 257.05636 347.696957 258.748618 350.180816 258.748618 C 352.701503 258.748618 354.71478 257.05636 354.71478 254.971696 C 354.71478 252.882943 352.697411 251.190686 350.180816 251.190686 C 347.696957 251.190686 345.679588 252.882943 345.679588 254.971696 Z M 345.679588 254.971696 " transform="matrix(0.954601,0,0,0.955639,413.010113,519.11638)"/><path style="fill-rule:nonzero;fill:#ffffff;fill-opacity:1;stroke-width:0.036;stroke-linecap:butt;stroke-linejoin:miter;stroke:#000000;stroke-opacity:1;stroke-miterlimit:10;" d="M 347.480079 254.611989 C 347.480079 255.691109 348.523546 256.553588 349.820718 256.553588 C 351.11789 256.553588 352.194092 255.691109 352.194092 254.611989 C 352.194092 253.491992 351.11789 252.629513 349.820718 252.629513 C 348.523546 252.629513 347.480079 253.491992 347.480079 254.611989 Z M 347.480079 254.611989 " transform="matrix(0.954601,0,0,0.955639,413.010113,519.11638)"/><path style="fill-rule:nonzero;fill:#ff6d4d;fill-opacity:1;stroke-width:0.036;stroke-linecap:butt;stroke-linejoin:miter;stroke:#000000;stroke-opacity:1;stroke-miterlimit:10;" d="M 360.079424 250.291419 C 360.079424 252.376084 362.096793 254.068341 364.580652 254.068341 C 367.101339 254.068341 369.114616 252.376084 369.114616 250.291419 C 369.114616 248.202666 367.097247 246.510409 364.580652 246.510409 C 362.096793 246.510409 360.079424 248.202666 360.079424 250.291419 Z M 360.079424 250.291419 " transform="matrix(0.954601,0,0,0.955639,413.010113,519.11638)"/><path style="fill-rule:nonzero;fill:#ffffff;fill-opacity:1;stroke-width:0.036;stroke-linecap:butt;stroke-linejoin:miter;stroke:#000000;stroke-opacity:1;stroke-miterlimit:10;" d="M 361.879915 249.931712 C 361.879915 251.010833 362.923382 251.873312 364.220554 251.873312 C 365.517726 251.873312 366.59802 251.010833 366.59802 249.931712 C 366.59802 248.815803 365.517726 247.949237 364.220554 247.949237 C 362.923382 247.949237 361.879915 248.815803 361.879915 249.931712 Z M 361.879915 249.931712 " transform="matrix(0.954601,0,0,0.955639,413.010113,519.11638)"/><path style="fill-rule:nonzero;fill:#ff6d4d;fill-opacity:1;stroke-width:0.036;stroke-linecap:butt;stroke-linejoin:miter;stroke:#000000;stroke-opacity:1;stroke-miterlimit:10;" d="M 374.47926 245.251435 C 374.47926 247.3361 376.496629 249.028357 378.980488 249.028357 C 381.501175 249.028357 383.514452 247.3361 383.514452 245.251435 C 383.514452 243.162683 381.497083 241.470426 378.980488 241.470426 C 376.496629 241.470426 374.47926 243.162683 374.47926 245.251435 Z M 374.47926 245.251435 " transform="matrix(0.954601,0,0,0.955639,413.010113,519.11638)"/><path style="fill-rule:nonzero;fill:#ffffff;fill-opacity:1;stroke-width:0.036;stroke-linecap:butt;stroke-linejoin:miter;stroke:#000000;stroke-opacity:1;stroke-miterlimit:10;" d="M 376.279751 244.891728 C 376.279751 245.970849 377.323218 246.833328 378.62039 246.833328 C 379.917562 246.833328 380.997856 245.970849 380.997856 244.891728 C 380.997856 243.77582 379.917562 242.909253 378.62039 242.909253 C 377.323218 242.909253 376.279751 243.77582 376.279751 244.891728 Z M 376.279751 244.891728 " transform="matrix(0.954601,0,0,0.955639,413.010113,519.11638)"/><path style="fill-rule:nonzero;fill:#ff6d4d;fill-opacity:1;stroke-width:0.036;stroke-linecap:butt;stroke-linejoin:miter;stroke:#000000;stroke-opacity:1;stroke-miterlimit:10;" d="M 388.879096 236.250589 C 388.879096 238.339341 390.896465 240.031598 393.380324 240.031598 C 395.901011 240.031598 397.91838 238.339341 397.91838 236.250589 C 397.91838 234.161836 395.901011 232.469579 393.380324 232.469579 C 390.896465 232.469579 388.879096 234.161836 388.879096 236.250589 Z M 388.879096 236.250589 " transform="matrix(0.954601,0,0,0.955639,413.010113,519.11638)"/><path style="fill-rule:nonzero;fill:#ffffff;fill-opacity:1;stroke-width:0.036;stroke-linecap:butt;stroke-linejoin:miter;stroke:#000000;stroke-opacity:1;stroke-miterlimit:10;" d="M 390.679587 235.854093 C 390.679587 236.970002 391.723054 237.832481 393.020226 237.832481 C 394.317398 237.832481 395.397692 236.970002 395.397692 235.854093 C 395.397692 234.774973 394.317398 233.908406 393.020226 233.908406 C 391.723054 233.908406 390.679587 234.774973 390.679587 235.854093 Z M 390.679587 235.854093 " transform="matrix(0.954601,0,0,0.955639,413.010113,519.11638)"/><path style="fill-rule:nonzero;fill:#ff6d4d;fill-opacity:1;stroke-width:0.036;stroke-linecap:butt;stroke-linejoin:miter;stroke:#000000;stroke-opacity:1;stroke-miterlimit:10;" d="M 403.278933 230.131484 C 403.278933 232.216149 405.296301 233.908406 407.78016 233.908406 C 410.300847 233.908406 412.318216 232.216149 412.318216 230.131484 C 412.318216 228.042732 410.300847 226.350475 407.78016 226.350475 C 405.296301 226.350475 403.278933 228.042732 403.278933 230.131484 Z M 403.278933 230.131484 " transform="matrix(0.954601,0,0,0.955639,413.010113,519.11638)"/><path style="fill-rule:nonzero;fill:#ffffff;fill-opacity:1;stroke-width:0.036;stroke-linecap:butt;stroke-linejoin:miter;stroke:#000000;stroke-opacity:1;stroke-miterlimit:10;" d="M 405.079424 229.734989 C 405.079424 230.81411 406.12289 231.713377 407.420062 231.713377 C 408.717234 231.713377 409.797528 230.81411 409.797528 229.734989 C 409.797528 228.655869 408.717234 227.789302 407.420062 227.789302 C 406.12289 227.789302 405.079424 228.655869 405.079424 229.734989 Z M 405.079424 229.734989 " transform="matrix(0.954601,0,0,0.955639,413.010113,519.11638)"/><path style="fill-rule:nonzero;fill:#ff6d4d;fill-opacity:1;stroke-width:0.036;stroke-linecap:butt;stroke-linejoin:miter;stroke:#000000;stroke-opacity:1;stroke-miterlimit:10;" d="M 129.677955 635.991188 C 129.677955 637.430016 131.695324 638.615413 134.179183 638.615413 C 136.69987 638.615413 138.717239 637.430016 138.717239 635.991188 C 138.717239 634.511485 136.69987 633.362876 134.179183 633.362876 C 131.695324 633.362876 129.677955 634.515573 129.677955 635.991188 Z M 129.677955 635.991188 " transform="matrix(0.954601,0,0,0.955639,413.010113,519.11638)"/><path style="fill-rule:nonzero;fill:#ffffff;fill-opacity:1;stroke-width:0.036;stroke-linecap:butt;stroke-linejoin:miter;stroke:#000000;stroke-opacity:1;stroke-miterlimit:10;" d="M 131.478446 635.741846 C 131.478446 636.498048 132.526005 637.107097 133.819085 637.107097 C 135.116257 637.107097 136.196551 636.498048 136.196551 635.741846 C 136.196551 634.985644 135.116257 634.372508 133.819085 634.372508 C 132.526005 634.372508 131.478446 634.985644 131.478446 635.741846 Z M 131.478446 635.741846 " transform="matrix(0.954601,0,0,0.955639,413.010113,519.11638)"/><path style="fill-rule:nonzero;fill:#ff6d4d;fill-opacity:1;stroke-width:0.036;stroke-linecap:butt;stroke-linejoin:miter;stroke:#000000;stroke-opacity:1;stroke-miterlimit:10;" d="M 144.081883 624.828013 C 144.081883 626.270928 146.09516 627.460413 148.579019 627.460413 C 151.099706 627.460413 153.117075 626.270928 153.117075 624.828013 C 153.117075 623.352397 151.099706 622.1997 148.579019 622.1997 C 146.09516 622.1997 144.081883 623.352397 144.081883 624.828013 Z M 144.081883 624.828013 " transform="matrix(0.954601,0,0,0.955639,413.010113,519.11638)"/><path style="fill-rule:nonzero;fill:#ffffff;fill-opacity:1;stroke-width:0.036;stroke-linecap:butt;stroke-linejoin:miter;stroke:#000000;stroke-opacity:1;stroke-miterlimit:10;" d="M 145.878282 624.582758 C 145.878282 625.33896 146.925841 625.948009 148.218921 625.948009 C 149.516093 625.948009 150.596387 625.33896 150.596387 624.582758 C 150.596387 623.826556 149.516093 623.176631 148.218921 623.176631 C 146.925841 623.176631 145.878282 623.826556 145.878282 624.582758 Z M 145.878282 624.582758 " transform="matrix(0.954601,0,0,0.955639,413.010113,519.11638)"/><path style="fill-rule:nonzero;fill:#ff6d4d;fill-opacity:1;stroke-width:0.036;stroke-linecap:butt;stroke-linejoin:miter;stroke:#000000;stroke-opacity:1;stroke-miterlimit:10;" d="M 158.48172 608.641204 C 158.48172 610.080032 160.494996 611.265429 162.978855 611.265429 C 165.499542 611.265429 167.516911 610.080032 167.516911 608.641204 C 167.516911 607.161501 165.499542 605.976103 162.978855 605.976103 C 160.494996 605.976103 158.48172 607.161501 158.48172 608.641204 Z M 158.48172 608.641204 " transform="matrix(0.954601,0,0,0.955639,413.010113,519.11638)"/><path style="fill-rule:nonzero;fill:#ffffff;fill-opacity:1;stroke-width:0.036;stroke-linecap:butt;stroke-linejoin:miter;stroke:#000000;stroke-opacity:1;stroke-miterlimit:10;" d="M 160.278118 608.346899 C 160.278118 609.103101 161.325677 609.748938 162.618757 609.748938 C 163.915929 609.748938 164.996223 609.103101 164.996223 608.346899 C 164.996223 607.590697 163.915929 606.97756 162.618757 606.97756 C 161.325677 606.97756 160.278118 607.590697 160.278118 608.346899 Z M 160.278118 608.346899 " transform="matrix(0.954601,0,0,0.955639,413.010113,519.11638)"/><path style="fill-rule:nonzero;fill:#ff6d4d;fill-opacity:1;stroke-width:0.036;stroke-linecap:butt;stroke-linejoin:miter;stroke:#000000;stroke-opacity:1;stroke-miterlimit:10;" d="M 172.881556 592.401257 C 172.881556 593.876873 174.894832 595.06227 177.378691 595.06227 C 179.899378 595.06227 181.916747 593.876873 181.916747 592.401257 C 181.916747 590.958342 179.899378 589.768857 177.378691 589.768857 C 174.894832 589.772944 172.881556 590.958342 172.881556 592.401257 Z M 172.881556 592.401257 " transform="matrix(0.954601,0,0,0.955639,413.010113,519.11638)"/><path style="fill-rule:nonzero;fill:#ffffff;fill-opacity:1;stroke-width:0.036;stroke-linecap:butt;stroke-linejoin:miter;stroke:#000000;stroke-opacity:1;stroke-miterlimit:10;" d="M 174.677955 592.147827 C 174.677955 592.899941 175.725513 593.513078 177.018593 593.513078 C 178.315765 593.513078 179.396059 592.904029 179.396059 592.147827 C 179.396059 591.391625 178.315765 590.778488 177.018593 590.778488 C 175.725513 590.778488 174.677955 591.391625 174.677955 592.147827 Z M 174.677955 592.147827 " transform="matrix(0.954601,0,0,0.955639,413.010113,519.11638)"/><path style="fill-rule:nonzero;fill:#ff6d4d;fill-opacity:1;stroke-width:0.036;stroke-linecap:butt;stroke-linejoin:miter;stroke:#000000;stroke-opacity:1;stroke-miterlimit:10;" d="M 187.281392 575.478684 C 187.281392 576.9543 189.294668 578.106997 191.778527 578.106997 C 194.299215 578.106997 196.316583 576.9543 196.316583 575.478684 C 196.316583 574.039857 194.299215 572.850372 191.778527 572.850372 C 189.294668 572.850372 187.281392 574.039857 187.281392 575.478684 Z M 187.281392 575.478684 " transform="matrix(0.954601,0,0,0.955639,413.010113,519.11638)"/><path style="fill-rule:nonzero;fill:#ffffff;fill-opacity:1;stroke-width:0.036;stroke-linecap:butt;stroke-linejoin:miter;stroke:#000000;stroke-opacity:1;stroke-miterlimit:10;" d="M 189.081883 575.225254 C 189.081883 575.985544 190.125349 576.594593 191.418429 576.594593 C 192.715601 576.594593 193.795895 575.985544 193.795895 575.225254 C 193.795895 574.469052 192.715601 573.860003 191.418429 573.860003 C 190.125349 573.860003 189.081883 574.469052 189.081883 575.225254 Z M 189.081883 575.225254 " transform="matrix(0.954601,0,0,0.955639,413.010113,519.11638)"/><path style="fill-rule:nonzero;fill:#ff6d4d;fill-opacity:1;stroke-width:0.036;stroke-linecap:butt;stroke-linejoin:miter;stroke:#000000;stroke-opacity:1;stroke-miterlimit:10;" d="M 201.681228 558.560199 C 201.681228 559.999026 203.694504 561.188512 206.178363 561.188512 C 208.699051 561.188512 210.716419 559.999026 210.716419 558.560199 C 210.716419 557.084583 208.699051 555.931886 206.178363 555.931886 C 203.694504 555.931886 201.681228 557.084583 201.681228 558.560199 Z M 201.681228 558.560199 " transform="matrix(0.954601,0,0,0.955639,413.010113,519.11638)"/><path style="fill-rule:nonzero;fill:#ffffff;fill-opacity:1;stroke-width:0.036;stroke-linecap:butt;stroke-linejoin:miter;stroke:#000000;stroke-opacity:1;stroke-miterlimit:10;" d="M 203.481719 558.306769 C 203.481719 559.062971 204.525185 559.67202 205.818265 559.67202 C 207.115437 559.67202 208.195732 559.062971 208.195732 558.306769 C 208.195732 557.550567 207.115437 556.90473 205.818265 556.90473 C 204.525185 556.90473 203.481719 557.550567 203.481719 558.306769 Z M 203.481719 558.306769 " transform="matrix(0.954601,0,0,0.955639,413.010113,519.11638)"/><path style="fill-rule:nonzero;fill:#ff6d4d;fill-opacity:1;stroke-width:0.036;stroke-linecap:butt;stroke-linejoin:miter;stroke:#000000;stroke-opacity:1;stroke-miterlimit:10;" d="M 216.081064 538.359389 C 216.081064 539.835004 218.09434 541.024489 220.578199 541.024489 C 223.098887 541.024489 225.116255 539.835004 225.116255 538.359389 C 225.116255 536.920561 223.098887 535.731076 220.578199 535.731076 C 218.09434 535.731076 216.081064 536.920561 216.081064 538.359389 Z M 216.081064 538.359389 " transform="matrix(0.954601,0,0,0.955639,413.010113,519.11638)"/><path style="fill-rule:nonzero;fill:#ffffff;fill-opacity:1;stroke-width:0.036;stroke-linecap:butt;stroke-linejoin:miter;stroke:#000000;stroke-opacity:1;stroke-miterlimit:10;" d="M 217.881555 538.110046 C 217.881555 538.866248 218.925021 539.479385 220.218101 539.479385 C 221.515273 539.479385 222.595568 538.866248 222.595568 538.110046 C 222.595568 537.353844 221.515273 536.740708 220.218101 536.740708 C 218.925021 536.740708 217.881555 537.353844 217.881555 538.110046 Z M 217.881555 538.110046 " transform="matrix(0.954601,0,0,0.955639,413.010113,519.11638)"/><path style="fill-rule:nonzero;fill:#ff6d4d;fill-opacity:1;stroke-width:0.036;stroke-linecap:butt;stroke-linejoin:miter;stroke:#000000;stroke-opacity:1;stroke-miterlimit:10;" d="M 230.4809 522.879731 C 230.4809 524.355346 232.494176 525.544832 234.978035 525.544832 C 237.498723 525.544832 239.516091 524.355346 239.516091 522.879731 C 239.516091 521.440903 237.498723 520.251418 234.978035 520.251418 C 232.494176 520.251418 230.4809 521.436816 230.4809 522.879731 Z M 230.4809 522.879731 " transform="matrix(0.954601,0,0,0.955639,413.010113,519.11638)"/><path style="fill-rule:nonzero;fill:#ffffff;fill-opacity:1;stroke-width:0.036;stroke-linecap:butt;stroke-linejoin:miter;stroke:#000000;stroke-opacity:1;stroke-miterlimit:10;" d="M 232.281391 522.630389 C 232.281391 523.386591 233.324857 523.999727 234.622029 523.999727 C 235.915109 523.999727 236.995404 523.386591 236.995404 522.630389 C 236.995404 521.874187 235.915109 521.26105 234.622029 521.26105 C 233.324857 521.26105 232.281391 521.874187 232.281391 522.630389 Z M 232.281391 522.630389 " transform="matrix(0.954601,0,0,0.955639,413.010113,519.11638)"/><path style="fill-rule:nonzero;fill:#ff6d4d;fill-opacity:1;stroke-width:0.036;stroke-linecap:butt;stroke-linejoin:miter;stroke:#000000;stroke-opacity:1;stroke-miterlimit:10;" d="M 244.880736 506.320952 C 244.880736 507.75978 246.894012 508.945178 249.381963 508.945178 C 251.902651 508.945178 253.915927 507.75978 253.915927 506.320952 C 253.915927 504.882125 251.898559 503.69264 249.381963 503.69264 C 246.894012 503.69264 244.880736 504.882125 244.880736 506.320952 Z M 244.880736 506.320952 " transform="matrix(0.954601,0,0,0.955639,413.010113,519.11638)"/><path style="fill-rule:nonzero;fill:#ffffff;fill-opacity:1;stroke-width:0.036;stroke-linecap:butt;stroke-linejoin:miter;stroke:#000000;stroke-opacity:1;stroke-miterlimit:10;" d="M 246.681227 506.07161 C 246.681227 506.827812 247.724693 507.436861 249.021865 507.436861 C 250.319037 507.436861 251.39524 506.827812 251.39524 506.07161 C 251.39524 505.315408 250.319037 504.702272 249.021865 504.702272 C 247.724693 504.702272 246.681227 505.315408 246.681227 506.07161 Z M 246.681227 506.07161 " transform="matrix(0.954601,0,0,0.955639,413.010113,519.11638)"/><path style="fill-rule:nonzero;fill:#ff6d4d;fill-opacity:1;stroke-width:0.036;stroke-linecap:butt;stroke-linejoin:miter;stroke:#000000;stroke-opacity:1;stroke-miterlimit:10;" d="M 259.280572 488.319259 C 259.280572 489.758087 261.29794 490.947572 263.781799 490.947572 C 266.302487 490.947572 268.315763 489.758087 268.315763 488.319259 C 268.315763 486.843643 266.298395 485.654158 263.781799 485.654158 C 261.293848 485.654158 259.280572 486.843643 259.280572 488.319259 Z M 259.280572 488.319259 " transform="matrix(0.954601,0,0,0.955639,413.010113,519.11638)"/><path style="fill-rule:nonzero;fill:#ffffff;fill-opacity:1;stroke-width:0.036;stroke-linecap:butt;stroke-linejoin:miter;stroke:#000000;stroke-opacity:1;stroke-miterlimit:10;" d="M 261.081063 488.069917 C 261.081063 488.826119 262.124529 489.435168 263.421701 489.435168 C 264.718873 489.435168 265.795076 488.826119 265.795076 488.069917 C 265.795076 487.276927 264.718873 486.667878 263.421701 486.667878 C 262.124529 486.667878 261.081063 487.276927 261.081063 488.069917 Z M 261.081063 488.069917 " transform="matrix(0.954601,0,0,0.955639,413.010113,519.11638)"/><path style="fill-rule:nonzero;fill:#ff6d4d;fill-opacity:1;stroke-width:0.036;stroke-linecap:butt;stroke-linejoin:miter;stroke:#000000;stroke-opacity:1;stroke-miterlimit:10;" d="M 273.680408 472.439019 C 273.680408 473.918722 275.697776 475.10412 278.181636 475.10412 C 280.698231 475.10412 282.715599 473.914634 282.715599 472.439019 C 282.715599 471.000191 280.698231 469.814794 278.181636 469.814794 C 275.697776 469.814794 273.680408 471.000191 273.680408 472.439019 Z M 273.680408 472.439019 " transform="matrix(0.954601,0,0,0.955639,413.010113,519.11638)"/><path style="fill-rule:nonzero;fill:#ffffff;fill-opacity:1;stroke-width:0.036;stroke-linecap:butt;stroke-linejoin:miter;stroke:#000000;stroke-opacity:1;stroke-miterlimit:10;" d="M 275.480899 472.193764 C 275.480899 472.949966 276.524365 473.563103 277.821537 473.563103 C 279.114617 473.563103 280.194912 472.949966 280.194912 472.193764 C 280.194912 471.437562 279.114617 470.824425 277.821537 470.824425 C 276.524365 470.824425 275.480899 471.437562 275.480899 472.193764 Z M 275.480899 472.193764 " transform="matrix(0.954601,0,0,0.955639,413.010113,519.11638)"/><path style="fill-rule:nonzero;fill:#ff6d4d;fill-opacity:1;stroke-width:0.036;stroke-linecap:butt;stroke-linejoin:miter;stroke:#000000;stroke-opacity:1;stroke-miterlimit:10;" d="M 288.080244 455.169002 C 288.080244 456.648705 290.097612 457.834103 292.581472 457.834103 C 295.102159 457.834103 297.115435 456.644617 297.115435 455.169002 C 297.115435 453.730174 295.098067 452.540689 292.581472 452.540689 C 290.09352 452.540689 288.080244 453.730174 288.080244 455.169002 Z M 288.080244 455.169002 " transform="matrix(0.954601,0,0,0.955639,413.010113,519.11638)"/><path style="fill-rule:nonzero;fill:#ffffff;fill-opacity:1;stroke-width:0.036;stroke-linecap:butt;stroke-linejoin:miter;stroke:#000000;stroke-opacity:1;stroke-miterlimit:10;" d="M 289.880735 454.915572 C 289.880735 455.671774 290.924201 456.280823 292.221373 456.280823 C 293.514453 456.280823 294.594748 455.671774 294.594748 454.915572 C 294.594748 454.15937 293.514453 453.546233 292.221373 453.546233 C 290.924201 453.546233 289.880735 454.15937 289.880735 454.915572 Z M 289.880735 454.915572 " transform="matrix(0.954601,0,0,0.955639,413.010113,519.11638)"/><path style="fill-rule:nonzero;fill:#ff6d4d;fill-opacity:1;stroke-width:0.036;stroke-linecap:butt;stroke-linejoin:miter;stroke:#000000;stroke-opacity:1;stroke-miterlimit:10;" d="M 302.48008 438.250517 C 302.48008 439.689344 304.497448 440.878829 306.981308 440.878829 C 309.501995 440.878829 311.515271 439.689344 311.515271 438.250517 C 311.515271 436.774901 309.497903 435.622204 306.981308 435.622204 C 304.497448 435.622204 302.48008 436.774901 302.48008 438.250517 Z M 302.48008 438.250517 " transform="matrix(0.954601,0,0,0.955639,413.010113,519.11638)"/><path style="fill-rule:nonzero;fill:#ffffff;fill-opacity:1;stroke-width:0.036;stroke-linecap:butt;stroke-linejoin:miter;stroke:#000000;stroke-opacity:1;stroke-miterlimit:10;" d="M 304.280571 437.992999 C 304.280571 438.749201 305.324037 439.362338 306.621209 439.362338 C 307.918381 439.362338 308.998676 438.749201 308.998676 437.992999 C 308.998676 437.236797 307.918381 436.627748 306.621209 436.627748 C 305.324037 436.627748 304.280571 437.236797 304.280571 437.992999 Z M 304.280571 437.992999 " transform="matrix(0.954601,0,0,0.955639,413.010113,519.11638)"/><path style="fill-rule:nonzero;fill:#ff6d4d;fill-opacity:1;stroke-width:0.036;stroke-linecap:butt;stroke-linejoin:miter;stroke:#000000;stroke-opacity:1;stroke-miterlimit:10;" d="M 316.879916 420.600355 C 316.879916 422.039182 318.897284 423.228668 321.381144 423.228668 C 323.901831 423.228668 325.915107 422.039182 325.915107 420.600355 C 325.915107 419.124739 323.901831 417.935254 321.381144 417.935254 C 318.897284 417.935254 316.879916 419.124739 316.879916 420.600355 Z M 316.879916 420.600355 " transform="matrix(0.954601,0,0,0.955639,413.010113,519.11638)"/><path style="fill-rule:nonzero;fill:#ffffff;fill-opacity:1;stroke-width:0.036;stroke-linecap:butt;stroke-linejoin:miter;stroke:#000000;stroke-opacity:1;stroke-miterlimit:10;" d="M 318.680407 420.3551 C 318.680407 421.111302 319.723874 421.720351 321.021045 421.720351 C 322.318217 421.720351 323.398512 421.111302 323.398512 420.3551 C 323.398512 419.56211 322.318217 418.948973 321.021045 418.948973 C 319.723874 418.948973 318.680407 419.56211 318.680407 420.3551 Z M 318.680407 420.3551 " transform="matrix(0.954601,0,0,0.955639,413.010113,519.11638)"/><path style="fill-rule:nonzero;fill:#ff6d4d;fill-opacity:1;stroke-width:0.036;stroke-linecap:butt;stroke-linejoin:miter;stroke:#000000;stroke-opacity:1;stroke-miterlimit:10;" d="M 331.279752 404.72829 C 331.279752 406.203905 333.297121 407.39339 335.78098 407.39339 C 338.301667 407.39339 340.319035 406.203905 340.319035 404.72829 C 340.319035 403.289462 338.297575 402.099977 335.78098 402.099977 C 333.293029 402.099977 331.279752 403.289462 331.279752 404.72829 Z M 331.279752 404.72829 " transform="matrix(0.954601,0,0,0.955639,413.010113,519.11638)"/><path style="fill-rule:nonzero;fill:#ffffff;fill-opacity:1;stroke-width:0.036;stroke-linecap:butt;stroke-linejoin:miter;stroke:#000000;stroke-opacity:1;stroke-miterlimit:10;" d="M 333.080243 404.478947 C 333.080243 405.235149 334.12371 405.844198 335.420882 405.844198 C 336.718053 405.844198 337.798348 405.235149 337.798348 404.478947 C 337.798348 403.722745 336.718053 403.109609 335.420882 403.109609 C 334.12371 403.109609 333.080243 403.722745 333.080243 404.478947 Z M 333.080243 404.478947 " transform="matrix(0.954601,0,0,0.955639,413.010113,519.11638)"/><path style="fill-rule:nonzero;fill:#ff6d4d;fill-opacity:1;stroke-width:0.036;stroke-linecap:butt;stroke-linejoin:miter;stroke:#000000;stroke-opacity:1;stroke-miterlimit:10;" d="M 345.679588 385.651563 C 345.679588 387.127179 347.696957 388.312577 350.180816 388.312577 C 352.701503 388.312577 354.71478 387.127179 354.71478 385.651563 C 354.71478 384.212736 352.697411 383.019163 350.180816 383.019163 C 347.696957 383.019163 345.679588 384.212736 345.679588 385.651563 Z M 345.679588 385.651563 " transform="matrix(0.954601,0,0,0.955639,413.010113,519.11638)"/><path style="fill-rule:nonzero;fill:#ffffff;fill-opacity:1;stroke-width:0.036;stroke-linecap:butt;stroke-linejoin:miter;stroke:#000000;stroke-opacity:1;stroke-miterlimit:10;" d="M 347.480079 385.398133 C 347.480079 386.154335 348.523546 386.763384 349.820718 386.763384 C 351.11789 386.763384 352.194092 386.154335 352.194092 385.398133 C 352.194092 384.641932 351.11789 384.028795 349.820718 384.028795 C 348.523546 384.028795 347.480079 384.641932 347.480079 385.398133 Z M 347.480079 385.398133 " transform="matrix(0.954601,0,0,0.955639,413.010113,519.11638)"/><path style="fill-rule:nonzero;fill:#ff6d4d;fill-opacity:1;stroke-width:0.036;stroke-linecap:butt;stroke-linejoin:miter;stroke:#000000;stroke-opacity:1;stroke-miterlimit:10;" d="M 360.079424 366.570749 C 360.079424 368.009577 362.096793 369.199062 364.580652 369.199062 C 367.101339 369.199062 369.114616 368.009577 369.114616 366.570749 C 369.114616 365.091046 367.097247 363.942437 364.580652 363.942437 C 362.096793 363.942437 360.079424 365.095134 360.079424 366.570749 Z M 360.079424 366.570749 " transform="matrix(0.954601,0,0,0.955639,413.010113,519.11638)"/><path style="fill-rule:nonzero;fill:#ffffff;fill-opacity:1;stroke-width:0.036;stroke-linecap:butt;stroke-linejoin:miter;stroke:#000000;stroke-opacity:1;stroke-miterlimit:10;" d="M 361.879915 366.317319 C 361.879915 367.073521 362.923382 367.682571 364.220554 367.682571 C 365.517726 367.682571 366.59802 367.073521 366.59802 366.317319 C 366.59802 365.561118 365.517726 364.947981 364.220554 364.947981 C 362.923382 364.947981 361.879915 365.561118 361.879915 366.317319 Z M 361.879915 366.317319 " transform="matrix(0.954601,0,0,0.955639,413.010113,519.11638)"/><path style="fill-rule:nonzero;fill:#ff6d4d;fill-opacity:1;stroke-width:0.036;stroke-linecap:butt;stroke-linejoin:miter;stroke:#000000;stroke-opacity:1;stroke-miterlimit:10;" d="M 374.47926 350.011971 C 374.47926 351.450798 376.496629 352.636196 378.980488 352.636196 C 381.501175 352.636196 383.514452 351.450798 383.514452 350.011971 C 383.514452 348.532268 381.497083 347.34687 378.980488 347.34687 C 376.496629 347.34687 374.47926 348.532268 374.47926 350.011971 Z M 374.47926 350.011971 " transform="matrix(0.954601,0,0,0.955639,413.010113,519.11638)"/><path style="fill-rule:nonzero;fill:#ffffff;fill-opacity:1;stroke-width:0.036;stroke-linecap:butt;stroke-linejoin:miter;stroke:#000000;stroke-opacity:1;stroke-miterlimit:10;" d="M 376.279751 349.721753 C 376.279751 350.514743 377.323218 351.12788 378.62039 351.12788 C 379.917562 351.12788 380.997856 350.514743 380.997856 349.721753 C 380.997856 348.965551 379.917562 348.352414 378.62039 348.352414 C 377.323218 348.352414 376.279751 348.965551 376.279751 349.721753 Z M 376.279751 349.721753 " transform="matrix(0.954601,0,0,0.955639,413.010113,519.11638)"/><path style="fill-rule:nonzero;fill:#ff6d4d;fill-opacity:1;stroke-width:0.036;stroke-linecap:butt;stroke-linejoin:miter;stroke:#000000;stroke-opacity:1;stroke-miterlimit:10;" d="M 388.879096 333.048522 C 388.879096 334.524138 390.896465 335.713623 393.380324 335.713623 C 395.901011 335.713623 397.91838 334.524138 397.91838 333.048522 C 397.91838 331.609695 395.901011 330.42021 393.380324 330.42021 C 390.896465 330.42021 388.879096 331.609695 388.879096 333.048522 Z M 388.879096 333.048522 " transform="matrix(0.954601,0,0,0.955639,413.010113,519.11638)"/><path style="fill-rule:nonzero;fill:#ffffff;fill-opacity:1;stroke-width:0.036;stroke-linecap:butt;stroke-linejoin:miter;stroke:#000000;stroke-opacity:1;stroke-miterlimit:10;" d="M 390.679587 332.803268 C 390.679587 333.55947 391.723054 334.168519 393.020226 334.168519 C 394.317398 334.168519 395.397692 333.55947 395.397692 332.803268 C 395.397692 332.047066 394.317398 331.433929 393.020226 331.433929 C 391.723054 331.433929 390.679587 332.047066 390.679587 332.803268 Z M 390.679587 332.803268 " transform="matrix(0.954601,0,0,0.955639,413.010113,519.11638)"/><path style="fill-rule:nonzero;fill:#ff6d4d;fill-opacity:1;stroke-width:0.036;stroke-linecap:butt;stroke-linejoin:miter;stroke:#000000;stroke-opacity:1;stroke-miterlimit:10;" d="M 403.278933 316.130037 C 403.278933 317.605653 405.296301 318.795138 407.78016 318.795138 C 410.300847 318.795138 412.318216 317.605653 412.318216 316.130037 C 412.318216 314.69121 410.300847 313.501725 407.78016 313.501725 C 405.296301 313.501725 403.278933 314.69121 403.278933 316.130037 Z M 403.278933 316.130037 " transform="matrix(0.954601,0,0,0.955639,413.010113,519.11638)"/><path style="fill-rule:nonzero;fill:#ffffff;fill-opacity:1;stroke-width:0.036;stroke-linecap:butt;stroke-linejoin:miter;stroke:#000000;stroke-opacity:1;stroke-miterlimit:10;" d="M 405.079424 315.880695 C 405.079424 316.636897 406.12289 317.250034 407.420062 317.250034 C 408.717234 317.250034 409.797528 316.636897 409.797528 315.880695 C 409.797528 315.124493 408.717234 314.515444 407.420062 314.515444 C 406.12289 314.515444 405.079424 315.124493 405.079424 315.880695 Z M 405.079424 315.880695 " transform="matrix(0.954601,0,0,0.955639,413.010113,519.11638)"/><path style="fill-rule:nonzero;fill:#ffffff;fill-opacity:1;stroke-width:0.036;stroke-linecap:butt;stroke-linejoin:miter;stroke:#000000;stroke-opacity:1;stroke-miterlimit:10;" d="M 155.060787 671.095308 C 154.557468 672.248005 153.874099 673.327126 153.010682 674.733252 C 152.143173 676.029015 151.030142 677.467842 149.806626 679.049735 L 149.806626 693.593337 C 152.433707 693.953044 154.414247 695.216106 156.177909 697.660477 C 157.798351 700.03536 159.058695 703.456663 159.811628 707.920298 C 178.426249 706.191252 193.579018 704.323229 205.965578 702.447031 C 218.167997 700.505431 227.636942 699.320034 233.251201 696.548656 C 238.759066 693.773191 240.739607 690.21291 239.192821 685.855552 C 234.945299 681.931477 230.587292 679.303165 225.979672 677.431054 C 221.40888 675.66522 215.757794 676.601276 211.653493 674.945806 C 207.332314 673.18406 203.878645 670.412682 200.744154 666.774738 Z M 155.060787 671.095308 " transform="matrix(0.954601,0,0,0.955639,413.010113,519.11638)"/><path style="fill-rule:nonzero;fill:#ffffff;fill-opacity:1;stroke-width:0.036;stroke-linecap:butt;stroke-linejoin:miter;stroke:#000000;stroke-opacity:1;stroke-miterlimit:10;" d="M 205.965578 664.469344 C 206.215191 666.664373 207.045872 668.107288 210.53637 669.476627 C 213.957303 670.625237 222.272298 670.122464 226.879918 671.994575 C 231.307489 673.760409 233.791348 678.906669 237.821993 680.635715 C 241.926294 682.221695 247.544644 683.120962 251.215191 682.221695 C 254.779344 681.212063 258.777253 678.583751 259.170087 675.162448 C 259.386965 671.638956 257.300032 664.436643 253.05251 661.771543 C 248.804988 659.073741 239.69614 660.152862 233.934569 659.036953 C 227.85382 657.741191 222.452347 655.145579 218.024776 654.716383 C 213.634033 654.319888 210.249928 654.82266 208.269388 656.514917 C 206.25202 658.170386 205.531823 662.168038 205.965578 664.469344 Z M 205.965578 664.469344 " transform="matrix(0.954601,0,0,0.955639,413.010113,519.11638)"/><path style="fill-rule:nonzero;fill:#ffffff;fill-opacity:1;stroke-width:0.036;stroke-linecap:butt;stroke-linejoin:miter;stroke:#000000;stroke-opacity:1;stroke-miterlimit:10;" d="M 233.034323 652.881061 C 236.598477 646.97451 240.416337 643.843426 244.62703 643.336566 C 248.76816 642.870582 252.872461 648.12312 258.057056 649.925742 C 263.274388 651.511722 271.196549 650.861797 275.554555 653.130403 C 279.691593 655.435797 282.322765 659.535637 283.292575 663.353435 C 284.229648 666.917803 284.732968 673.18406 281.455256 674.945806 C 278.071151 676.71164 272.059966 676.278357 263.274388 673.797197 C 263.167996 666.99138 261.150627 662.241614 257.369596 659.253595 C 253.445344 656.302363 244.340589 657.058565 240.305852 656.085722 C 236.205643 654.928937 233.828176 653.992882 233.034323 652.876973 Z M 233.034323 652.881061 " transform="matrix(0.954601,0,0,0.955639,413.010113,519.11638)"/><path style="fill-rule:nonzero;fill:#ffffff;fill-opacity:1;stroke-width:0.036;stroke-linecap:butt;stroke-linejoin:miter;stroke:#000000;stroke-opacity:1;stroke-miterlimit:10;" d="M 260.540916 643.806637 C 261.367505 642.11438 262.81199 640.998471 264.858002 640.601976 C 266.838542 640.135992 268.892739 639.592345 272.816991 641.072048 C 276.671678 642.331022 283.038869 647.22794 288.043416 648.809833 C 292.904742 650.359025 299.423337 648.413338 302.15681 650.612455 C 304.78389 652.770696 304.640669 658.497393 303.957301 661.518113 C 303.130712 664.326279 300.573196 667.097657 297.839724 667.890647 C 295.065331 668.683637 291.861275 668.033712 287.830631 666.088025 C 287.073606 660.222351 285.056238 656.081634 281.925838 653.130403 C 278.652218 650.142383 272.313672 650.322237 268.749518 648.809833 C 265.185364 647.22794 262.447799 645.605172 260.540916 643.806637 Z M 260.540916 643.806637 " transform="matrix(0.954601,0,0,0.955639,413.010113,519.11638)"/></g></svg>