<svg xmlns="http://www.w3.org/2000/svg" xmlns:xlink="http://www.w3.org/1999/xlink" zoomAndPan="magnify" preserveAspectRatio="xMidYMid meet" version="1.2" viewBox="389.06 609.42 517.74 508.46"><defs><clipPath id="c2952fcd98"><path d="M 389 609.226562 L 907 609.226562 L 907 1118 L 389 1118 Z M 389 609.226562 "/></clipPath></defs><g id="5054cbef47"><g clip-rule="nonzero" clip-path="url(#c2952fcd98)"><path style=" stroke:none;fill-rule:nonzero;fill:#ff6d4d;fill-opacity:1;" d="M 792.210938 961.546875 C 795.910156 964.664062 799.449219 967.75 803.296875 970.488281 C 807.027344 973.136719 811.035156 975.492188 814.023438 979.074219 C 815.824219 981.238281 817.613281 983.421875 819.273438 985.699219 C 821.152344 988.28125 822.925781 990.949219 824.664062 993.632812 C 826.484375 996.425781 828.15625 999.285156 829.109375 1002.546875 C 829.773438 1004.789062 829.277344 1007.015625 829.433594 1009.242188 C 829.476562 1009.828125 829.234375 1010.445312 829.0625 1011.03125 C 828.292969 1013.664062 826.035156 1015.59375 822.671875 1015.769531 C 820.847656 1015.863281 818.925781 1015.828125 817.1875 1015.347656 C 814.941406 1014.726562 812.679688 1014.039062 810.609375 1012.832031 C 806.738281 1010.585938 803.449219 1007.542969 799.761719 1005.046875 C 798.773438 1004.378906 797.871094 1003.550781 797.019531 1002.707031 C 794.578125 1000.296875 791.953125 998.125 789.222656 996.050781 C 786.117188 993.6875 783.105469 991.183594 780.191406 988.589844 C 777.246094 985.976562 774.476562 983.164062 771.613281 980.464844 C 770.976562 979.859375 770.261719 979.339844 769.566406 978.800781 C 769.257812 978.5625 769.074219 977.929688 768.484375 978.421875 C 768.027344 978.804688 768.03125 979.203125 768.167969 979.765625 C 768.71875 982.078125 770.0625 983.898438 771.660156 985.550781 C 772.355469 986.273438 773.203125 986.847656 773.96875 987.503906 C 774.3125 987.800781 774.613281 988.148438 774.941406 988.46875 C 781.984375 995.382812 788.996094 1002.324219 796.082031 1009.191406 C 799.214844 1012.226562 802.5 1015.097656 805.699219 1018.058594 C 807.917969 1020.117188 810.113281 1022.203125 812.3125 1024.277344 C 814.703125 1026.535156 817.199219 1028.695312 819.449219 1031.082031 C 821.792969 1033.5625 823.902344 1036.261719 826.117188 1038.863281 C 826.941406 1039.828125 827.746094 1040.8125 828.613281 1041.738281 C 831.515625 1044.839844 833.609375 1048.539062 836.15625 1051.898438 C 838.25 1054.65625 839.660156 1057.742188 841.15625 1060.792969 C 841.894531 1062.296875 842.589844 1063.972656 842.679688 1065.605469 C 842.851562 1068.6875 842 1071.472656 839.136719 1073.324219 C 837.238281 1074.546875 835.367188 1075.703125 833.207031 1076.484375 C 830.523438 1077.457031 828.085938 1077.335938 825.503906 1076.226562 C 822.265625 1074.839844 819.054688 1073.410156 816.195312 1071.332031 C 813.417969 1069.3125 810.425781 1067.574219 808.039062 1065.023438 C 806.554688 1063.433594 804.722656 1062.167969 803.273438 1060.550781 C 800.25 1057.183594 797.121094 1053.886719 794.648438 1050.058594 C 794.511719 1049.84375 794.296875 1049.683594 794.121094 1049.492188 C 792.414062 1047.660156 790.636719 1045.886719 789.023438 1043.972656 C 787.011719 1041.578125 785.15625 1039.054688 783.1875 1036.621094 C 781.757812 1034.851562 780.210938 1033.171875 778.78125 1031.402344 C 774.203125 1025.75 769.144531 1020.554688 764 1015.421875 C 761.613281 1013.03125 759.394531 1010.460938 757.226562 1007.867188 C 755.507812 1005.820312 754.074219 1003.535156 752.335938 1001.503906 C 750.820312 999.738281 749.082031 998.15625 747.390625 996.550781 C 747.125 996.296875 746.574219 996.269531 746.152344 996.269531 C 744.050781 996.261719 741.949219 996.164062 739.859375 996.625 C 738.589844 996.90625 737.707031 998.316406 738.269531 999.503906 C 739.28125 1001.628906 740.554688 1003.597656 742.148438 1005.324219 C 744.550781 1007.929688 747.082031 1010.425781 749.445312 1013.070312 C 751.246094 1015.082031 752.824219 1017.289062 754.601562 1019.320312 C 755.433594 1020.269531 756.515625 1020.984375 757.457031 1021.832031 C 760.992188 1025.015625 763.570312 1028.953125 766.089844 1032.921875 C 767.394531 1034.972656 768.632812 1037.074219 769.746094 1039.230469 C 771.621094 1042.855469 772.351562 1046.773438 771.925781 1050.816406 C 771.726562 1052.675781 770.648438 1054.300781 769.183594 1055.515625 C 768.347656 1056.210938 767.3125 1056.664062 766.398438 1057.269531 C 763.726562 1059.050781 760.914062 1059.046875 758.015625 1057.96875 C 754.890625 1056.808594 752.171875 1054.949219 749.519531 1052.988281 C 746.894531 1051.050781 744.390625 1048.945312 742.253906 1046.476562 C 739.699219 1043.535156 737.28125 1040.46875 734.824219 1037.4375 C 734.164062 1036.621094 733.652344 1035.679688 732.960938 1034.894531 C 730.59375 1032.210938 728.214844 1029.539062 725.773438 1026.921875 C 722.910156 1023.851562 719.945312 1020.871094 717.082031 1017.804688 C 714.367188 1014.90625 711.746094 1011.925781 709.046875 1009.015625 C 706.632812 1006.414062 704.242188 1003.785156 701.695312 1001.320312 C 700.0625 999.738281 697.980469 998.785156 695.761719 998.226562 C 695.125 998.0625 694.589844 998.367188 694.546875 999.085938 C 694.335938 1002.753906 694.699219 1006.261719 696.644531 1009.558594 C 699.109375 1013.742188 702.457031 1017.125 705.980469 1020.324219 C 707.953125 1022.109375 710.101562 1023.710938 711.984375 1025.617188 C 716.027344 1029.695312 718.609375 1034.519531 720.023438 1040.09375 C 720.578125 1042.285156 720.941406 1044.453125 720.695312 1046.625 C 720.195312 1051.007812 719.484375 1055.367188 717.898438 1059.53125 C 716.832031 1062.351562 716.03125 1065.285156 714.792969 1068.019531 C 713.820312 1070.171875 712.476562 1072.183594 711.085938 1074.105469 C 708.933594 1077.089844 706.5625 1079.917969 704.347656 1082.863281 C 702.230469 1085.683594 700.199219 1088.574219 698.113281 1091.421875 C 696.652344 1093.425781 695.183594 1095.429688 693.691406 1097.410156 C 690.027344 1102.273438 685.570312 1106.398438 681.214844 1110.605469 C 678.804688 1112.929688 676.242188 1115.148438 673.207031 1116.71875 C 669.839844 1118.464844 666.523438 1118.1875 663.433594 1116.234375 C 661.332031 1114.910156 659.28125 1113.320312 658.882812 1110.5625 C 658.6875 1109.183594 658.367188 1107.726562 658.617188 1106.402344 C 659.207031 1103.246094 660.300781 1100.226562 661.972656 1097.441406 C 663.441406 1094.996094 664.871094 1092.519531 666.253906 1090.027344 C 667.105469 1088.496094 668.011719 1086.960938 668.578125 1085.320312 C 669.503906 1082.640625 671.035156 1080.308594 672.519531 1077.964844 C 674.621094 1074.65625 677.042969 1071.570312 679.957031 1068.917969 C 681.457031 1067.550781 682.546875 1065.914062 683.269531 1064.027344 C 683.367188 1063.773438 683.414062 1063.492188 683.484375 1063.222656 C 683.132812 1063.253906 682.699219 1063.164062 682.441406 1063.335938 C 681.714844 1063.824219 681.027344 1064.382812 680.382812 1064.980469 C 676.785156 1068.296875 673.847656 1072.144531 671.082031 1076.171875 C 668.832031 1079.449219 666.289062 1082.527344 663.929688 1085.734375 C 661.582031 1088.921875 659.414062 1092.246094 656.960938 1095.347656 C 654.535156 1098.414062 652.074219 1101.539062 648.363281 1103.222656 C 645.914062 1104.335938 643.34375 1105.035156 640.65625 1105.40625 C 637.964844 1105.773438 635.292969 1106.308594 632.566406 1106.136719 C 627.855469 1105.84375 625.066406 1103.765625 623.003906 1099.113281 C 622.394531 1097.742188 621.980469 1096.210938 621.859375 1094.71875 C 621.753906 1093.460938 622.136719 1092.140625 622.421875 1090.875 C 623.1875 1087.46875 625.175781 1084.65625 627.140625 1081.894531 C 629.605469 1078.410156 632.402344 1075.1875 635.53125 1072.25 C 637.707031 1070.207031 639.84375 1068.109375 641.851562 1065.902344 C 643.496094 1064.101562 644.914062 1062.097656 646.441406 1060.191406 C 648.050781 1058.183594 649.648438 1056.167969 651.285156 1054.179688 C 653.246094 1051.792969 655.292969 1049.46875 657.207031 1047.046875 C 658.347656 1045.601562 659.171875 1043.960938 659.339844 1042.070312 C 659.34375 1042.003906 659.339844 1041.9375 659.339844 1041.875 C 659.324219 1041.132812 660.367188 1040.191406 659.398438 1039.769531 C 658.910156 1039.558594 657.832031 1040.320312 657.210938 1040.859375 C 655.320312 1042.5 653.519531 1044.246094 651.683594 1045.953125 C 649.800781 1047.703125 647.835938 1049.371094 646.058594 1051.222656 C 643.21875 1054.179688 640.472656 1057.222656 637.757812 1060.296875 C 635.667969 1062.660156 633.664062 1065.101562 631.667969 1067.546875 C 629.34375 1070.398438 626.964844 1073.195312 624.507812 1075.9375 C 620.972656 1079.890625 616.875 1083.070312 612.308594 1085.660156 C 610.664062 1086.59375 608.769531 1087.101562 606.804688 1086.984375 C 604.835938 1086.867188 602.859375 1086.816406 600.90625 1086.578125 C 597.3125 1086.132812 594.101562 1081.503906 594.808594 1077.929688 C 595.082031 1076.542969 595.507812 1075.15625 595.550781 1073.757812 C 595.605469 1071.910156 596.324219 1070.269531 596.96875 1068.65625 C 599.1875 1063.136719 602.367188 1058.160156 605.898438 1053.382812 C 608.148438 1050.335938 610.800781 1047.597656 612.707031 1044.285156 C 613.808594 1042.378906 615.050781 1040.550781 616.296875 1038.730469 C 617.347656 1037.199219 618.433594 1035.679688 619.617188 1034.242188 C 621.828125 1031.554688 624.113281 1028.929688 626.378906 1026.285156 C 628.03125 1024.359375 629.773438 1022.503906 631.332031 1020.507812 C 632.8125 1018.617188 634.210938 1016.640625 635.464844 1014.59375 C 638.253906 1010.027344 641.015625 1005.441406 643.628906 1000.769531 C 645.066406 998.203125 645.976562 995.402344 646.058594 992.390625 C 646.078125 991.722656 646.335938 991.066406 646.425781 990.402344 C 646.714844 988.242188 646.046875 986.304688 644.757812 984.652344 C 643.539062 983.089844 642.109375 981.699219 640.777344 980.230469 C 640.4375 979.855469 640.21875 979.878906 639.671875 980.0625 C 637.464844 980.816406 635.550781 981.9375 633.878906 983.566406 C 631.226562 986.140625 629.023438 989.089844 626.6875 991.929688 C 625.554688 993.308594 624.265625 994.566406 623.109375 995.933594 C 621.285156 998.09375 619.492188 1000.289062 617.714844 1002.492188 C 615.671875 1005.027344 613.605469 1007.550781 611.644531 1010.152344 C 610.046875 1012.265625 608.605469 1014.5 607.058594 1016.652344 C 605.285156 1019.121094 603.542969 1021.613281 601.652344 1023.992188 C 599.148438 1027.152344 596.492188 1030.195312 593.9375 1033.316406 C 591.191406 1036.667969 588.339844 1039.945312 585.808594 1043.453125 C 582.09375 1048.589844 577.429688 1052.8125 573.058594 1057.324219 C 572.085938 1058.328125 571.210938 1059.425781 570.285156 1060.472656 C 570.113281 1060.667969 569.917969 1060.84375 569.734375 1061.027344 C 567.574219 1063.183594 565.234375 1065.195312 563.300781 1067.535156 C 560.308594 1071.164062 557.097656 1074.574219 553.699219 1077.804688 C 550.945312 1080.421875 547.996094 1082.796875 544.640625 1084.6875 C 542.496094 1085.902344 540.359375 1086.902344 537.933594 1087.410156 C 535.074219 1088.015625 530.777344 1087.902344 528.328125 1086.78125 C 524.769531 1085.152344 521.429688 1083.164062 518.703125 1080.289062 C 517.070312 1078.566406 515.386719 1076.875 513.886719 1075.039062 C 512.785156 1073.691406 512.046875 1072.105469 512.277344 1070.234375 C 512.363281 1069.527344 512.3125 1068.800781 512.289062 1068.085938 C 512.171875 1064.550781 513.15625 1061.25 514.472656 1058.039062 C 515.363281 1055.867188 516.320312 1053.714844 517.375 1051.617188 C 519.410156 1047.566406 521.792969 1043.734375 524.503906 1040.085938 C 525.996094 1038.074219 527.714844 1036.320312 529.371094 1034.480469 C 531.746094 1031.847656 533.996094 1029.105469 536.304688 1026.410156 C 536.429688 1026.261719 536.582031 1026.136719 536.71875 1025.996094 C 539.253906 1023.328125 541.8125 1020.6875 544.316406 1017.992188 C 547.0625 1015.039062 549.75 1012.03125 552.484375 1009.0625 C 554.402344 1006.980469 556.3125 1004.886719 558.296875 1002.871094 C 561.722656 999.382812 565.253906 995.996094 568.640625 992.472656 C 571.078125 989.9375 573.265625 987.179688 575.316406 984.308594 C 576.808594 982.21875 578.523438 980.285156 580.132812 978.277344 C 584.675781 972.597656 589.800781 967.457031 594.898438 962.285156 C 597.203125 959.949219 598.65625 957.039062 599.511719 953.84375 C 599.714844 953.089844 600.085938 952.378906 600.265625 951.621094 C 600.429688 950.945312 600.324219 950.53125 599.34375 950.460938 C 595.101562 950.136719 591.421875 951.578125 588.070312 953.953125 C 585.625 955.683594 583.339844 957.640625 580.953125 959.453125 C 579.03125 960.917969 577.050781 962.308594 575.109375 963.75 C 572.515625 965.675781 569.976562 967.679688 567.335938 969.539062 C 563.84375 972.003906 560.984375 975.132812 558.003906 978.136719 C 555.640625 980.515625 553.394531 983.007812 551.074219 985.429688 C 547.585938 989.074219 544.089844 992.714844 540.566406 996.324219 C 537.929688 999.019531 535.21875 1001.640625 532.578125 1004.328125 C 526.574219 1010.441406 520.488281 1016.472656 514.636719 1022.722656 C 510.40625 1027.238281 506.324219 1031.886719 501.875 1036.1875 C 499.652344 1038.339844 497.378906 1040.433594 495.128906 1042.554688 C 492.878906 1044.671875 490.449219 1046.636719 488.429688 1048.960938 C 486.550781 1051.121094 484.808594 1053.410156 482.699219 1055.355469 C 479.679688 1058.136719 476.429688 1060.609375 472.792969 1062.574219 C 470.226562 1063.960938 467.605469 1065.121094 464.78125 1065.917969 C 462.742188 1066.492188 460.738281 1067.066406 458.605469 1067.042969 C 457.628906 1067.035156 456.648438 1067.007812 455.671875 1067.046875 C 452.011719 1067.195312 448.507812 1066.253906 445.195312 1064.953125 C 442.21875 1063.777344 439.835938 1061.582031 438.625 1058.457031 C 438.277344 1057.550781 437.996094 1056.503906 438.09375 1055.570312 C 438.316406 1053.445312 438.5625 1051.269531 439.230469 1049.257812 C 440.007812 1046.929688 441.144531 1044.695312 442.316406 1042.527344 C 443.445312 1040.4375 444.757812 1038.4375 446.097656 1036.464844 C 447.769531 1034.015625 449.519531 1031.613281 451.292969 1029.230469 C 452.929688 1027.03125 454.539062 1024.792969 456.339844 1022.726562 C 458.585938 1020.15625 460.925781 1017.648438 463.394531 1015.296875 C 465.296875 1013.480469 467.476562 1011.957031 469.515625 1010.285156 C 471.851562 1008.359375 474.175781 1006.421875 476.496094 1004.476562 C 479.0625 1002.320312 481.617188 1000.152344 484.164062 997.976562 C 485.28125 997.027344 486.328125 996 487.46875 995.085938 C 490.105469 992.972656 492.769531 990.898438 495.433594 988.828125 C 497.402344 987.300781 499.417969 985.832031 501.371094 984.285156 C 504.125 982.101562 506.871094 979.898438 509.570312 977.644531 C 511.714844 975.851562 513.777344 973.960938 515.890625 972.128906 C 518.71875 969.675781 521.648438 967.335938 524.363281 964.769531 C 526.75 962.515625 528.886719 959.996094 531.175781 957.640625 C 532.15625 956.632812 533.289062 955.78125 534.289062 954.792969 C 535.976562 953.117188 537.617188 951.390625 539.273438 949.679688 C 539.488281 949.457031 539.644531 949.175781 539.855469 948.945312 C 541.789062 946.875 543.738281 944.824219 545.65625 942.742188 C 548.34375 939.820312 551 936.871094 553.683594 933.949219 C 555.421875 932.054688 557.167969 930.164062 558.9375 928.300781 C 561.964844 925.117188 565.0625 921.996094 568.035156 918.761719 C 569.066406 917.636719 569.878906 916.289062 570.664062 914.96875 C 571.296875 913.910156 571.035156 913.476562 569.863281 913.789062 C 568.484375 914.152344 567.074219 914.714844 565.90625 915.519531 C 561.675781 918.425781 557.53125 921.457031 553.378906 924.476562 C 548.015625 928.375 542.648438 932.273438 537.328125 936.234375 C 533.378906 939.175781 529.574219 942.3125 525.570312 945.175781 C 522.910156 947.082031 520.410156 949.148438 517.90625 951.246094 C 514.800781 953.84375 511.886719 956.621094 509.003906 959.445312 C 505.304688 963.066406 501.546875 966.632812 497.835938 970.242188 C 492.488281 975.4375 487.132812 980.628906 481.828125 985.875 C 479.863281 987.816406 478.097656 989.960938 476.136719 991.90625 C 473.199219 994.816406 470.183594 997.644531 467.179688 1000.488281 C 465.605469 1001.980469 463.953125 1003.386719 462.40625 1004.90625 C 461.367188 1005.933594 460.53125 1007.171875 459.476562 1008.171875 C 456.097656 1011.386719 452.554688 1014.402344 448.710938 1017.074219 C 446.339844 1018.722656 444.207031 1020.714844 441.984375 1022.570312 C 439.460938 1024.679688 436.96875 1026.820312 434.445312 1028.925781 C 432.269531 1030.738281 430.109375 1032.570312 427.875 1034.308594 C 424.730469 1036.753906 421.578125 1039.1875 418.332031 1041.488281 C 415.007812 1043.851562 411.480469 1045.886719 407.476562 1046.890625 C 404.707031 1047.582031 401.941406 1047.679688 399.066406 1047.195312 C 397.421875 1046.917969 395.757812 1046.695312 394.132812 1046.300781 C 391.730469 1045.722656 389.9375 1044.40625 389.207031 1041.921875 C 388.8125 1040.578125 389.300781 1039.320312 389.710938 1038.109375 C 390.644531 1035.375 391.71875 1032.6875 392.722656 1029.972656 C 392.976562 1029.296875 393.289062 1028.613281 393.378906 1027.90625 C 393.582031 1026.339844 393.824219 1024.75 393.757812 1023.183594 C 393.640625 1020.472656 394.539062 1018.058594 395.785156 1015.796875 C 397.398438 1012.863281 399.171875 1010 401.050781 1007.226562 C 403.21875 1004.023438 405.792969 1001.203125 409.117188 999.074219 C 413.925781 995.992188 418.652344 992.78125 423.359375 989.546875 C 428.132812 986.269531 433.253906 983.636719 438.375 980.953125 C 442.96875 978.546875 447.539062 976.035156 451.582031 972.699219 C 454.144531 970.585938 456.75 968.523438 459.367188 966.476562 C 462.117188 964.328125 464.953125 962.289062 467.660156 960.089844 C 469.402344 958.679688 471.039062 957.128906 472.617188 955.535156 C 474.976562 953.152344 477.136719 950.566406 479.578125 948.273438 C 481.722656 946.261719 484.070312 944.445312 486.445312 942.699219 C 489.671875 940.320312 493.113281 938.226562 496.253906 935.75 C 498.378906 934.074219 500.097656 931.890625 502.085938 930.027344 C 504.460938 927.804688 506.929688 925.683594 509.351562 923.511719 C 509.691406 923.207031 510.003906 922.875 510.320312 922.550781 C 512.710938 920.085938 515.367188 917.9375 518.121094 915.894531 C 519.34375 914.984375 520.441406 913.90625 521.5625 912.867188 C 523.871094 910.714844 526.199219 908.578125 528.445312 906.363281 C 532.753906 902.117188 537.078125 897.878906 541.261719 893.511719 C 543.488281 891.191406 545.582031 888.710938 547.464844 886.109375 C 548.945312 884.066406 550.351562 881.882812 550.824219 879.304688 C 551.046875 878.085938 551.132812 876.835938 551.414062 875.632812 C 552.105469 872.703125 551.8125 869.734375 551.726562 866.796875 C 551.679688 865.265625 551.042969 863.722656 550.523438 862.238281 C 549.308594 858.734375 548.414062 855.148438 547.449219 851.578125 C 546.140625 846.734375 544.5 841.980469 543.089844 837.160156 C 542.015625 833.496094 540.746094 829.914062 538.863281 826.59375 C 537.183594 823.625 535.308594 820.765625 533.539062 817.847656 C 532.308594 815.820312 531.015625 813.816406 529.914062 811.71875 C 528.753906 809.503906 527.464844 807.445312 525.683594 805.636719 C 522.898438 802.8125 520.210938 799.878906 517.667969 796.835938 C 515.847656 794.664062 514.355469 792.21875 512.675781 789.925781 C 510.804688 787.367188 508.910156 784.828125 506.980469 782.3125 C 505.078125 779.832031 503.128906 777.386719 501.175781 774.941406 C 500.425781 774 499.609375 773.113281 498.832031 772.195312 C 497.398438 770.507812 495.941406 768.839844 494.554688 767.117188 C 493.265625 765.519531 492.042969 763.867188 490.8125 762.21875 C 488.589844 759.230469 486.328125 756.273438 484.191406 753.226562 C 482.125 750.28125 480.105469 747.316406 477.847656 744.503906 C 475.171875 741.167969 472.75 737.632812 470.207031 734.191406 C 468.695312 732.140625 467.191406 730.085938 465.640625 728.066406 C 463.277344 724.988281 461 721.84375 459.171875 718.421875 C 456.859375 714.101562 454.0625 710.097656 451.398438 706.003906 C 449.316406 702.8125 447.300781 699.5625 444.992188 696.542969 C 440.828125 691.097656 437.089844 685.367188 433.3125 679.660156 C 431.902344 677.535156 430.613281 675.316406 429.398438 673.070312 C 427.820312 670.148438 426.210938 667.226562 424.890625 664.1875 C 422.199219 657.984375 419.53125 651.769531 418 645.132812 C 417.589844 643.351562 417.433594 641.574219 417.1875 639.789062 C 416.925781 637.875 416.867188 635.980469 416.875 634.074219 C 416.882812 631.980469 417.34375 630.050781 418.808594 628.417969 C 419.898438 627.203125 421.144531 626.355469 422.796875 626.300781 C 424.425781 626.246094 426.058594 626.359375 427.683594 626.273438 C 430.40625 626.132812 432.703125 627.273438 434.957031 628.554688 C 437.160156 629.800781 438.332031 631.953125 439.65625 633.992188 C 441.882812 637.414062 443.339844 641.273438 445.804688 644.554688 C 447.394531 646.671875 448.90625 648.859375 451.222656 650.300781 C 451.597656 650.535156 451.875 650.933594 452.199219 651.257812 C 454.734375 653.789062 457.214844 656.382812 459.816406 658.847656 C 463.777344 662.601562 466.878906 667.035156 470.039062 671.4375 C 471.769531 673.851562 473.488281 676.28125 475.296875 678.640625 C 479.117188 683.613281 482.976562 688.546875 486.566406 693.703125 C 489.761719 698.300781 492.675781 703.074219 495.867188 707.664062 C 498.125 710.90625 500.402344 714.132812 502.664062 717.367188 C 504.464844 719.941406 506.195312 722.574219 508.074219 725.089844 C 510.023438 727.699219 512.105469 730.210938 514.140625 732.75 C 516.851562 736.128906 519.539062 739.527344 522.3125 742.855469 C 524.269531 745.203125 526.371094 747.429688 528.378906 749.734375 C 530.792969 752.507812 533.171875 755.308594 535.570312 758.09375 C 537.226562 760.015625 538.910156 761.917969 540.542969 763.859375 C 541.589844 765.105469 542.578125 766.398438 543.578125 767.683594 C 544.878906 769.359375 546.15625 771.050781 547.464844 772.71875 C 549.433594 775.230469 551.351562 777.789062 553.429688 780.210938 C 554.90625 781.929688 556.628906 783.441406 558.207031 785.074219 C 559.554688 786.464844 561.335938 786.546875 563.042969 786.605469 C 568.320312 786.785156 573.304688 785.617188 578.214844 783.613281 C 580.699219 782.597656 583.332031 781.695312 586.152344 781.480469 C 588.570312 781.292969 590.929688 780.445312 593.335938 780.015625 C 594.347656 779.835938 595.433594 780.097656 596.457031 779.964844 C 601.097656 779.378906 604.886719 781.191406 608.605469 783.734375 C 613.1875 786.867188 616.390625 791 618.445312 796.046875 C 619.265625 798.058594 619.761719 800.21875 620.203125 802.355469 C 620.878906 805.589844 621.367188 808.863281 622.363281 812.023438 C 623.578125 815.886719 624.886719 819.71875 626.070312 823.585938 C 626.691406 825.621094 627.097656 827.722656 627.675781 829.769531 C 628.191406 831.617188 628.238281 831.667969 630.113281 831.589844 C 631.953125 831.515625 633.777344 831.777344 635.640625 831.273438 C 637.480469 830.777344 639.074219 829.90625 640.445312 828.734375 C 642.511719 826.964844 644.308594 824.921875 645.664062 822.511719 C 647.835938 818.644531 650.136719 814.855469 652.285156 810.976562 C 654.539062 806.898438 656.753906 802.796875 658.847656 798.636719 C 662.074219 792.222656 665.109375 785.714844 668.359375 779.3125 C 670.171875 775.746094 672.121094 772.238281 674.25 768.851562 C 676.417969 765.398438 678.238281 761.777344 680.050781 758.144531 C 683.628906 750.964844 687.058594 743.707031 690.652344 736.535156 C 691.878906 734.09375 693.421875 731.8125 694.8125 729.453125 C 696.660156 726.3125 698.488281 723.15625 700.347656 720.015625 C 702.636719 716.140625 704.980469 712.296875 707.242188 708.402344 C 708.332031 706.519531 709.28125 704.554688 710.300781 702.628906 C 711.824219 699.742188 713.417969 696.886719 714.855469 693.957031 C 716.855469 689.902344 718.652344 685.746094 720.6875 681.710938 C 723.351562 676.441406 726.378906 671.375 729.640625 666.445312 C 731.050781 664.3125 732.304688 662.078125 733.648438 659.898438 C 735.027344 657.664062 736.433594 655.449219 737.808594 653.210938 C 739.023438 651.242188 740.242188 649.269531 741.398438 647.269531 C 743.132812 644.277344 744.988281 641.335938 746.472656 638.222656 C 747.84375 635.347656 749.546875 632.695312 751.25 630.042969 C 754.117188 625.589844 757.992188 622.199219 762.859375 620.042969 C 767.441406 618.011719 771.40625 615.035156 775.414062 612.105469 C 777.089844 610.875 778.9375 609.949219 780.972656 609.492188 C 782.113281 609.234375 783.257812 609.691406 784.140625 610.292969 C 786.746094 612.058594 789.265625 614.019531 791.019531 616.671875 C 791.980469 618.125 791.96875 620.015625 790.953125 621.472656 C 790.375 622.308594 790.417969 622.792969 790.714844 623.632812 C 791.457031 625.742188 792.285156 627.867188 792.640625 630.058594 C 793.105469 632.90625 793.664062 635.878906 792.652344 638.699219 C 791.902344 640.789062 790.738281 642.734375 789.710938 644.714844 C 788.789062 646.488281 787.621094 648.152344 786.871094 649.992188 C 785.328125 653.75 783.515625 657.355469 781.441406 660.847656 C 780.148438 663.03125 779.042969 665.328125 777.835938 667.5625 C 776.742188 669.585938 775.671875 671.628906 774.496094 673.609375 C 772.785156 676.492188 770.972656 679.316406 769.238281 682.1875 C 766.765625 686.285156 764.410156 690.453125 762.339844 694.773438 C 760.09375 699.453125 757.808594 704.109375 755.546875 708.777344 C 752.785156 714.476562 750.046875 720.1875 747.269531 725.878906 C 744.964844 730.597656 742.6875 735.332031 740.269531 739.988281 C 738.816406 742.792969 737.125 745.472656 735.515625 748.191406 C 733.996094 750.757812 732.453125 753.3125 730.90625 755.863281 C 728.855469 759.25 726.660156 762.5625 724.769531 766.035156 C 722.726562 769.796875 720.925781 773.691406 719.078125 777.558594 C 717.464844 780.925781 716.039062 784.390625 714.332031 787.710938 C 712.972656 790.359375 711.359375 792.882812 709.777344 795.40625 C 707.34375 799.296875 704.894531 803.179688 702.339844 806.988281 C 700.546875 809.660156 698.578125 812.21875 696.664062 814.808594 C 694.265625 818.054688 691.9375 821.296875 690.503906 825.167969 C 689.804688 827.046875 688.863281 828.914062 687.621094 830.644531 C 686.011719 832.878906 684.980469 835.523438 683.667969 837.976562 C 681.632812 841.765625 680.46875 845.90625 678.839844 849.859375 C 677.621094 852.8125 678.402344 855.1875 680.019531 857.566406 C 680.679688 858.53125 681.394531 859.464844 682.015625 860.457031 C 683.171875 862.308594 684.808594 863.371094 686.96875 863.683594 C 688.214844 863.863281 688.855469 863.617188 689.449219 862.589844 C 691.542969 858.960938 693.59375 855.304688 695.71875 851.695312 C 697.671875 848.390625 699.710938 845.136719 701.695312 841.847656 C 703.230469 839.296875 704.816406 836.765625 706.242188 834.152344 C 708.144531 830.648438 709.851562 827.035156 711.761719 823.535156 C 714.410156 818.671875 717.214844 813.902344 720.175781 809.214844 C 722.855469 804.964844 725.039062 800.40625 727.566406 796.058594 C 732.433594 787.6875 736.484375 778.902344 740.800781 770.25 C 742.273438 767.289062 743.472656 764.195312 744.65625 761.09375 C 745.8125 758.0625 747.484375 755.226562 748.894531 752.292969 C 751.007812 747.890625 753.277344 743.574219 754.984375 738.972656 C 755.980469 736.269531 757.574219 733.792969 758.785156 731.164062 C 760.445312 727.550781 762.125 723.953125 763.414062 720.171875 C 764.480469 717.046875 766.03125 714.089844 767.214844 710.996094 C 769.128906 705.992188 772.351562 701.753906 775.183594 697.300781 C 776.371094 695.433594 778.273438 693.988281 779.957031 692.46875 C 780.605469 691.882812 781.503906 691.433594 782.359375 691.238281 C 787.324219 690.117188 791.632812 691.386719 795.398438 694.839844 C 797.476562 696.746094 799.320312 698.824219 800.875 701.15625 C 803.308594 704.804688 805.234375 708.699219 806.375 712.953125 C 806.472656 713.320312 806.363281 713.734375 806.390625 714.125 C 806.542969 716.21875 806.015625 718.355469 806.777344 720.414062 C 806.796875 720.472656 806.785156 720.546875 806.777344 720.609375 C 806.53125 722.464844 806.273438 724.316406 806.046875 726.171875 C 805.984375 726.679688 806.035156 727.203125 805.992188 727.714844 C 805.742188 730.542969 805.601562 733.386719 805.1875 736.1875 C 804.277344 742.363281 802.28125 748.199219 799.261719 753.671875 C 796.96875 757.824219 794.6875 761.972656 792.105469 765.964844 C 789.429688 770.105469 786.945312 774.367188 784.507812 778.652344 C 782.507812 782.175781 780.789062 785.859375 778.777344 789.375 C 775.847656 794.492188 773.046875 799.6875 769.832031 804.644531 C 768.015625 807.449219 766.351562 810.359375 764.710938 813.273438 C 762.808594 816.648438 760.984375 820.066406 759.171875 823.492188 C 756.429688 828.675781 753.773438 833.90625 750.996094 839.070312 C 748.511719 843.699219 745.777344 848.175781 742.738281 852.476562 C 739.765625 856.683594 736.847656 860.949219 734.191406 865.363281 C 732.300781 868.511719 730.945312 871.96875 730.117188 875.59375 C 729.777344 877.074219 729.320312 878.523438 728.960938 880 C 728.65625 881.25 729.269531 881.816406 730.554688 882.089844 C 733.933594 882.804688 735.609375 880.40625 737.441406 878.40625 C 738.820312 876.898438 739.960938 875.164062 741.199219 873.523438 C 742.867188 871.320312 744.375 869.011719 745.785156 866.628906 C 747.613281 863.53125 749.558594 860.5 751.425781 857.425781 C 752.785156 855.191406 754.105469 852.929688 755.441406 850.683594 C 757.148438 847.804688 758.835938 844.914062 760.5625 842.046875 C 762.199219 839.332031 763.886719 836.648438 765.53125 833.9375 C 767.113281 831.335938 768.679688 828.726562 770.230469 826.105469 C 770.90625 824.960938 771.542969 823.785156 772.167969 822.609375 C 775.089844 817.109375 778.265625 811.765625 781.867188 806.6875 C 783.523438 804.347656 785.292969 802.078125 787.121094 799.871094 C 789.027344 797.566406 791.199219 795.472656 793.011719 793.101562 C 795.15625 790.304688 797.949219 788.421875 800.964844 786.824219 C 802.523438 785.996094 804.199219 785.382812 806.070312 785.429688 C 807.378906 785.460938 808.699219 785.097656 810.011719 785.097656 C 811.328125 785.097656 812.730469 785.082031 813.941406 785.507812 C 817.441406 786.734375 820.140625 788.863281 820.859375 792.796875 C 821.480469 796.210938 821.375 799.601562 820.898438 803.039062 C 820.425781 806.410156 818.832031 809.230469 817.144531 812.054688 C 815.117188 815.449219 813.066406 818.832031 811.089844 822.257812 C 809.089844 825.726562 807.285156 829.308594 805.1875 832.710938 C 802.277344 837.425781 799.765625 842.367188 796.75 847.03125 C 793.769531 851.636719 790.597656 856.089844 787.445312 860.574219 C 785.410156 863.464844 783.628906 866.539062 781.753906 869.546875 C 780.300781 871.875 778.902344 874.238281 777.441406 876.558594 C 775.148438 880.203125 773.273438 884.074219 771.390625 887.9375 C 769.492188 891.839844 767.679688 895.785156 765.855469 899.722656 C 765.121094 901.308594 764.320312 902.878906 763.792969 904.535156 C 763.128906 906.621094 762.714844 908.785156 762.199219 910.917969 C 762.140625 911.160156 762.140625 911.414062 762.117188 911.664062 C 762.046875 912.324219 761.695312 913.160156 761.972656 913.601562 C 762.414062 914.308594 763.195312 915.03125 763.972656 915.25 C 767.480469 916.246094 770.75 915.660156 773.5 913.164062 C 776.078125 910.824219 778.5625 908.378906 781.089844 905.988281 C 783.292969 903.910156 785.492188 901.832031 787.707031 899.765625 C 789.347656 898.234375 790.886719 896.5625 792.683594 895.238281 C 795.546875 893.128906 797.5 890.203125 799.753906 887.585938 C 802.367188 884.5625 804.433594 881.074219 806.789062 877.824219 C 807.960938 876.203125 809.238281 874.664062 810.46875 873.085938 C 812.359375 870.675781 814.257812 868.273438 816.132812 865.851562 C 816.855469 864.921875 817.4375 863.875 818.230469 863.011719 C 820.71875 860.308594 823.292969 857.679688 825.8125 855 C 827.082031 853.648438 828.453125 852.355469 829.503906 850.847656 C 830.351562 849.632812 831.003906 848.1875 831.367188 846.75 C 831.972656 844.363281 833.355469 842.476562 834.980469 840.832031 C 837.398438 838.382812 839.9375 836.003906 842.683594 833.941406 C 844.59375 832.507812 846.726562 831.40625 849.339844 831.078125 C 851.351562 830.828125 853.144531 831.089844 854.96875 831.535156 C 857.808594 832.234375 859.332031 834.539062 860.671875 836.871094 C 861.265625 837.910156 861.628906 839.121094 861.566406 840.421875 C 861.519531 841.339844 861.871094 842.265625 861.90625 843.191406 C 862.042969 846.59375 860.933594 849.769531 859.917969 852.925781 C 858.84375 856.246094 857.578125 859.511719 855.820312 862.566406 C 854.550781 864.765625 853.210938 866.878906 851.542969 868.824219 C 848.316406 872.574219 844.796875 876.082031 842.222656 880.390625 C 840.269531 883.652344 837.875 886.65625 835.953125 889.933594 C 835.03125 891.511719 834.652344 893.4375 834.1875 895.25 C 833.945312 896.199219 836.015625 897.90625 837.25 898.113281 C 839.214844 898.4375 840.730469 897.625 841.972656 896.296875 C 843.308594 894.875 844.585938 893.378906 845.707031 891.785156 C 848.511719 887.792969 850.882812 883.527344 853.351562 879.320312 C 854.785156 876.882812 856.453125 874.566406 858.199219 872.339844 C 860.21875 869.75 862.058594 867.011719 864.511719 864.765625 C 866.867188 862.609375 869.378906 860.757812 872.503906 859.960938 C 875.960938 859.078125 879.585938 858.710938 882.835938 860.273438 C 886.015625 861.804688 888.460938 864.214844 888.988281 868.171875 C 889.253906 870.160156 889.433594 872.148438 889.222656 874.074219 C 889 876.09375 888.382812 878.140625 887.5625 880.011719 C 886.046875 883.464844 884.105469 886.6875 881.390625 889.386719 C 876.085938 894.664062 870.773438 899.9375 865.523438 905.273438 C 863.476562 907.359375 861.609375 909.628906 860.40625 912.335938 C 859.476562 914.425781 857.828125 916.199219 857.601562 918.609375 C 857.582031 918.835938 857.128906 918.886719 857.496094 919.324219 C 858.742188 920.820312 860.976562 921.953125 863.132812 920.535156 C 864.777344 919.453125 866.449219 918.402344 868.007812 917.203125 C 870.738281 915.097656 873.308594 912.769531 876.113281 910.769531 C 877.722656 909.617188 879.210938 908.378906 880.597656 906.988281 C 882.390625 905.1875 884.242188 903.441406 885.972656 901.582031 C 887.476562 899.960938 888.699219 898.058594 890.3125 896.570312 C 892.265625 894.769531 894.546875 893.425781 897.386719 893.378906 C 899.125 893.347656 900.484375 894.070312 901.765625 895.109375 C 903.828125 896.777344 904.917969 899.070312 905.691406 901.496094 C 906.246094 903.238281 906.914062 905.105469 906.78125 906.859375 C 906.648438 908.613281 906.628906 910.539062 905.546875 912.179688 C 904.007812 914.523438 902.621094 916.96875 901.097656 919.324219 C 899.285156 922.125 897.277344 924.746094 894.925781 927.15625 C 892.132812 930.011719 889.660156 933.175781 886.996094 936.160156 C 885.109375 938.273438 883.132812 940.304688 881.195312 942.367188 C 879.214844 944.480469 877.175781 946.542969 875.269531 948.722656 C 873.664062 950.558594 872.320312 952.632812 870.660156 954.414062 C 868.542969 956.691406 865.984375 958.039062 862.722656 958.390625 C 857.355469 958.964844 852 958.492188 846.648438 958.722656 C 845.136719 958.785156 843.617188 958.914062 842.117188 959.117188 C 840.425781 959.351562 838.851562 958.820312 837.414062 958.1875 C 834.097656 956.730469 830.898438 955.007812 827.679688 953.332031 C 820.820312 949.769531 814.511719 945.382812 808.113281 941.113281 C 806.992188 940.363281 805.875 939.601562 804.730469 938.886719 C 804.171875 938.535156 803.566406 938.066406 802.953125 938.019531 C 800.148438 937.804688 797.3125 937.476562 794.519531 937.671875 C 792.40625 937.824219 790.5625 939.136719 788.855469 940.453125 C 787.230469 941.710938 785.601562 942.964844 783.945312 944.179688 C 783.308594 944.644531 782.628906 945.089844 781.910156 945.398438 C 780.40625 946.039062 780.175781 946.488281 780.980469 947.960938 C 781.421875 948.769531 781.972656 949.523438 782.539062 950.25 C 783.324219 951.242188 784.183594 952.171875 784.984375 953.152344 C 786.652344 955.191406 788.285156 957.269531 789.976562 959.289062 C 790.621094 960.0625 791.394531 960.734375 792.210938 961.546875 M 541.230469 922.144531 C 543.109375 920.777344 544.988281 919.40625 546.867188 918.039062 C 549.773438 915.925781 552.640625 913.757812 555.597656 911.71875 C 558.316406 909.84375 561.09375 908.035156 563.921875 906.332031 C 565.660156 905.285156 567.667969 904.992188 569.664062 904.585938 C 573.996094 903.707031 578.171875 905.664062 579.421875 909.902344 C 579.578125 910.4375 579.421875 911.070312 579.59375 911.59375 C 580.371094 913.992188 579.90625 916.21875 578.960938 918.46875 C 577.683594 921.511719 575.539062 923.953125 573.371094 926.300781 C 568.890625 931.160156 564.183594 935.804688 559.589844 940.5625 C 558.078125 942.128906 556.605469 943.738281 555.167969 945.375 C 552.609375 948.28125 550.246094 951.375 547.523438 954.117188 C 540.898438 960.800781 534.121094 967.339844 527.386719 973.914062 C 525.734375 975.527344 524.007812 977.0625 522.296875 978.617188 C 521.308594 979.511719 520.304688 980.390625 519.28125 981.242188 C 516.230469 983.789062 513.164062 986.3125 510.117188 988.855469 C 509.09375 989.710938 508.167969 990.695312 507.082031 991.460938 C 502.765625 994.519531 498.425781 997.542969 494.425781 1001.019531 C 493.46875 1001.851562 492.507812 1002.679688 491.546875 1003.507812 C 488.804688 1005.859375 486.066406 1008.210938 483.320312 1010.558594 C 481.589844 1012.039062 479.882812 1013.550781 478.105469 1014.972656 C 475.820312 1016.8125 473.316406 1018.410156 471.195312 1020.417969 C 468.054688 1023.390625 465.058594 1026.535156 462.207031 1029.785156 C 460.210938 1032.066406 458.550781 1034.636719 456.761719 1037.097656 C 455.457031 1038.894531 454.289062 1040.804688 452.886719 1042.519531 C 450.296875 1045.691406 449.035156 1049.527344 447.425781 1053.171875 C 446.703125 1054.804688 447.4375 1056.175781 449.160156 1056.839844 C 450.625 1057.402344 452.191406 1057.882812 453.746094 1058.003906 C 458.03125 1058.335938 462.265625 1058.023438 466.144531 1055.886719 C 468.324219 1054.683594 470.546875 1053.53125 472.589844 1052.121094 C 474.40625 1050.871094 476.167969 1049.457031 477.648438 1047.839844 C 480.410156 1044.824219 482.703125 1041.40625 485.933594 1038.789062 C 488.175781 1036.96875 490.214844 1034.890625 492.285156 1032.863281 C 495.261719 1029.957031 498.199219 1027.011719 501.109375 1024.039062 C 502.679688 1022.4375 504.152344 1020.738281 505.683594 1019.097656 C 507.742188 1016.894531 509.777344 1014.664062 511.890625 1012.511719 C 515.082031 1009.253906 518.324219 1006.042969 521.566406 1002.835938 C 522.144531 1002.265625 522.914062 1001.886719 523.457031 1001.292969 C 525.476562 999.082031 527.351562 996.738281 529.433594 994.59375 C 537.175781 986.589844 545.359375 979.019531 552.695312 970.613281 C 555.03125 967.933594 557.902344 965.707031 560.636719 963.398438 C 562.628906 961.71875 564.800781 960.25 566.882812 958.675781 C 569.613281 956.605469 572.332031 954.523438 575.0625 952.457031 C 577.691406 950.46875 580.273438 948.410156 582.976562 946.527344 C 586.597656 944.007812 590.605469 942.101562 594.976562 941.601562 C 598.058594 941.25 601.265625 941.164062 604.386719 941.882812 C 606.570312 942.386719 609.117188 944.558594 609.234375 946.574219 C 609.402344 949.542969 609.40625 952.515625 608.523438 955.445312 C 606.746094 961.355469 603.710938 966.457031 599.347656 970.816406 C 595.480469 974.679688 591.453125 978.394531 588.121094 982.773438 C 585.953125 985.625 583.488281 988.253906 581.390625 991.148438 C 578.050781 995.765625 574.085938 999.808594 570.148438 1003.878906 C 564.441406 1009.769531 558.445312 1015.378906 553.128906 1021.652344 C 550.671875 1024.554688 547.902344 1027.195312 545.273438 1029.949219 C 545.050781 1030.1875 544.796875 1030.398438 544.585938 1030.644531 C 542.324219 1033.289062 540.085938 1035.957031 537.800781 1038.585938 C 536.5 1040.085938 535.171875 1041.558594 533.792969 1042.984375 C 530.917969 1045.949219 528.78125 1049.441406 526.792969 1053 C 524.496094 1057.113281 522.308594 1061.324219 521.394531 1066.003906 C 520.96875 1068.191406 521.074219 1070.339844 522.984375 1072.128906 C 525.554688 1074.527344 528.183594 1076.769531 531.4375 1078.195312 C 532.191406 1078.527344 532.914062 1078.722656 533.738281 1078.804688 C 536.523438 1079.078125 538.839844 1077.882812 540.976562 1076.433594 C 544.722656 1073.890625 548.3125 1071.160156 551.171875 1067.53125 C 553.339844 1064.777344 555.796875 1062.242188 558.195312 1059.679688 C 561.289062 1056.375 564.433594 1053.121094 567.59375 1049.882812 C 570.144531 1047.269531 572.75 1044.714844 575.332031 1042.132812 C 575.652344 1041.8125 576.015625 1041.515625 576.292969 1041.160156 C 578.054688 1038.898438 579.769531 1036.59375 581.5625 1034.355469 C 583.410156 1032.042969 585.34375 1029.792969 587.21875 1027.503906 C 589.445312 1024.777344 591.648438 1022.039062 593.859375 1019.304688 C 595.476562 1017.300781 597.164062 1015.351562 598.679688 1013.277344 C 600.828125 1010.34375 602.90625 1007.359375 604.90625 1004.320312 C 607.765625 999.976562 611.230469 996.105469 614.480469 992.070312 C 616.394531 989.691406 618.519531 987.480469 620.542969 985.1875 C 621.425781 984.1875 622.34375 983.214844 623.160156 982.164062 C 624.898438 979.921875 626.601562 977.695312 628.929688 975.960938 C 632.015625 973.660156 635.125 971.648438 639.089844 971.136719 C 640.179688 970.992188 641.1875 971.136719 642.019531 971.433594 C 642.941406 971.765625 643.863281 972.488281 644.179688 973.765625 C 644.351562 974.460938 645.253906 975.003906 645.882812 975.550781 C 648.035156 977.421875 650.558594 978.78125 652.378906 981.148438 C 654.105469 983.398438 654.953125 985.765625 655.011719 988.480469 C 655.039062 989.726562 654.738281 990.976562 654.65625 992.230469 C 654.5625 993.679688 654.640625 995.113281 654.304688 996.574219 C 653.730469 999.070312 653.144531 1001.53125 651.96875 1003.828125 C 649.691406 1008.265625 646.960938 1012.441406 644.542969 1016.792969 C 642.167969 1021.074219 639.421875 1025.070312 636.324219 1028.824219 C 633.734375 1031.957031 631.027344 1034.996094 628.308594 1038.019531 C 625.882812 1040.71875 623.6875 1043.566406 621.777344 1046.65625 C 620.167969 1049.265625 618.613281 1051.957031 616.652344 1054.289062 C 614.355469 1057.023438 612.167969 1059.828125 610.242188 1062.8125 C 608.046875 1066.214844 605.964844 1069.710938 604.8125 1073.65625 C 604.460938 1074.851562 604.0625 1076.042969 604.214844 1077.308594 C 604.242188 1077.550781 604.472656 1077.960938 604.609375 1077.960938 C 605.863281 1077.960938 607.144531 1078.191406 608.34375 1077.566406 C 610.894531 1076.238281 613.128906 1074.445312 615.246094 1072.554688 C 617.621094 1070.429688 619.722656 1068.027344 621.671875 1065.472656 C 624.195312 1062.160156 626.953125 1059.027344 629.664062 1055.867188 C 631.738281 1053.445312 633.789062 1050.988281 636.035156 1048.738281 C 641.238281 1043.535156 646.183594 1038.054688 652.015625 1033.515625 C 654.425781 1031.636719 656.992188 1030.207031 660.253906 1030.238281 C 663.976562 1030.277344 666.875 1033.054688 667.953125 1035.972656 C 669.066406 1038.96875 668.734375 1041.917969 667.960938 1044.914062 C 667.320312 1047.40625 666.382812 1049.796875 664.882812 1051.839844 C 662.988281 1054.433594 660.761719 1056.789062 658.710938 1059.269531 C 657.074219 1061.253906 655.476562 1063.273438 653.867188 1065.28125 C 651.789062 1067.871094 649.8125 1070.554688 647.617188 1073.039062 C 645.679688 1075.234375 643.511719 1077.230469 641.414062 1079.277344 C 640.601562 1080.074219 639.601562 1080.683594 638.839844 1081.519531 C 637.832031 1082.625 636.96875 1083.859375 636.054688 1085.050781 C 634.339844 1087.289062 632.683594 1089.550781 631.539062 1092.171875 C 631.042969 1093.3125 631.078125 1094.410156 631.320312 1095.492188 C 631.59375 1096.695312 632.40625 1097.195312 633.695312 1097.140625 C 635.011719 1097.082031 636.328125 1096.902344 637.640625 1096.761719 C 638.824219 1096.636719 640.035156 1096.617188 641.175781 1096.320312 C 644.730469 1095.390625 647.578125 1093.386719 649.550781 1090.269531 C 652.183594 1086.113281 655.277344 1082.308594 658.289062 1078.4375 C 660 1076.234375 661.660156 1073.988281 663.238281 1071.6875 C 666.765625 1066.554688 670.386719 1061.519531 675.277344 1057.542969 C 678.429688 1054.976562 681.835938 1053.175781 686.058594 1053.335938 C 688.542969 1053.429688 690.96875 1055.035156 691.796875 1057.382812 C 693.359375 1061.8125 692.8125 1066.113281 690.460938 1070.050781 C 689.121094 1072.292969 687.371094 1074.359375 685.503906 1076.199219 C 681.863281 1079.785156 679.136719 1083.945312 676.929688 1088.507812 C 674.816406 1092.875 672.621094 1097.191406 669.972656 1101.28125 C 668.847656 1103.019531 668.304688 1105.144531 667.589844 1107.125 C 667.351562 1107.78125 667.617188 1108.429688 668.464844 1108.484375 C 669.085938 1108.523438 669.644531 1108.542969 670.234375 1108.015625 C 672.6875 1105.832031 675.324219 1103.84375 677.71875 1101.601562 C 679.828125 1099.625 681.761719 1097.453125 683.675781 1095.28125 C 685.632812 1093.058594 687.5625 1090.800781 689.335938 1088.433594 C 692.238281 1084.566406 694.632812 1080.339844 697.898438 1076.722656 C 699.597656 1074.839844 700.972656 1072.664062 702.492188 1070.621094 C 704.578125 1067.828125 706.507812 1064.945312 707.605469 1061.59375 C 708.808594 1057.910156 710.363281 1054.355469 711.066406 1050.488281 C 711.265625 1049.375 711.1875 1048.257812 711.4375 1047.15625 C 711.710938 1045.933594 711.980469 1044.542969 711.664062 1043.386719 C 710.953125 1040.78125 710.144531 1038.179688 708.644531 1035.84375 C 707.375 1033.867188 706.023438 1031.976562 704.253906 1030.441406 C 702.070312 1028.542969 699.734375 1026.8125 697.578125 1024.878906 C 694.269531 1021.921875 691.570312 1018.4375 689.265625 1014.644531 C 687.386719 1011.550781 685.863281 1008.269531 685.601562 1004.648438 C 685.382812 1001.65625 685.179688 998.578125 685.980469 995.636719 C 686.527344 993.621094 687.742188 991.886719 689.886719 991.1875 C 691.851562 990.550781 693.925781 990.359375 695.90625 989.679688 C 696.898438 989.339844 698.222656 989.566406 699.28125 989.902344 C 703.085938 991.109375 706.417969 993.183594 709.273438 995.964844 C 710.878906 997.53125 712.335938 999.246094 713.851562 1000.902344 C 716.570312 1003.882812 719.269531 1006.882812 722.015625 1009.835938 C 724.382812 1012.390625 726.8125 1014.886719 729.191406 1017.429688 C 730.148438 1018.449219 731.03125 1019.535156 731.964844 1020.578125 C 734.265625 1023.148438 736.589844 1025.695312 738.871094 1028.28125 C 740.417969 1030.039062 741.933594 1031.824219 743.417969 1033.632812 C 744.925781 1035.472656 746.316406 1037.414062 747.882812 1039.199219 C 749.207031 1040.707031 750.640625 1042.132812 752.140625 1043.464844 C 754.632812 1045.683594 757.234375 1047.753906 760.359375 1049.09375 C 761.128906 1049.425781 761.839844 1049.628906 762.496094 1049.285156 C 763.351562 1048.84375 762.871094 1047.894531 762.96875 1047.167969 C 762.984375 1047.054688 762.917969 1046.929688 762.886719 1046.8125 C 762.160156 1044.101562 761.035156 1041.605469 759.5 1039.210938 C 756.601562 1034.683594 753.546875 1030.328125 749.484375 1026.742188 C 748.414062 1025.796875 747.394531 1024.773438 746.445312 1023.703125 C 743.972656 1020.894531 741.699219 1017.894531 739.066406 1015.25 C 736.242188 1012.40625 733.734375 1009.359375 731.484375 1006.050781 C 729.132812 1002.582031 728.15625 998.988281 729.71875 994.898438 C 730.988281 991.585938 733.074219 989.113281 736.53125 988.078125 C 737.714844 987.722656 739.03125 987.832031 740.269531 987.640625 C 742.707031 987.261719 745.101562 986.925781 747.613281 987.195312 C 750.109375 987.460938 752.042969 988.707031 753.835938 990.125 C 756.757812 992.433594 759.113281 995.382812 761.273438 998.371094 C 763.695312 1001.722656 766.539062 1004.671875 769.25 1007.742188 C 771.574219 1010.378906 774.214844 1012.730469 776.675781 1015.25 C 777.96875 1016.574219 779.207031 1017.960938 780.410156 1019.371094 C 782.328125 1021.625 784.183594 1023.933594 786.085938 1026.203125 C 787.59375 1028 789.226562 1029.695312 790.625 1031.566406 C 793.167969 1034.964844 795.867188 1038.210938 798.789062 1041.289062 C 800.492188 1043.078125 802.058594 1045 803.636719 1046.902344 C 805.195312 1048.785156 806.597656 1050.800781 808.234375 1052.609375 C 810.109375 1054.683594 812.164062 1056.605469 814.160156 1058.570312 C 814.554688 1058.960938 815.035156 1059.273438 815.484375 1059.609375 C 817.128906 1060.835938 818.785156 1062.039062 820.414062 1063.28125 C 823 1065.253906 825.796875 1066.808594 828.890625 1067.847656 C 829.90625 1068.183594 830.722656 1067.992188 831.5625 1067.484375 C 831.875 1067.292969 832.171875 1067.0625 832.511719 1066.941406 C 833.390625 1066.621094 833.636719 1065.984375 833.28125 1065.210938 C 832.449219 1063.402344 831.652344 1061.5625 830.636719 1059.855469 C 829.445312 1057.851562 828.023438 1055.984375 826.726562 1054.039062 C 824.644531 1050.917969 822.292969 1048.007812 819.878906 1045.148438 C 818.285156 1043.253906 816.765625 1041.289062 815.023438 1039.542969 C 810.996094 1035.511719 806.886719 1031.5625 802.75 1027.640625 C 799.496094 1024.550781 796.105469 1021.597656 792.863281 1018.496094 C 787.667969 1013.515625 782.554688 1008.449219 777.386719 1003.441406 C 774.417969 1000.5625 771.398438 997.738281 768.441406 994.851562 C 767.582031 994.011719 766.878906 993.019531 766.074219 992.125 C 763.554688 989.300781 761.328125 986.316406 760.402344 982.542969 C 759.839844 980.265625 759.476562 978.003906 760.238281 975.699219 C 760.878906 973.75 762.082031 972.210938 763.554688 970.800781 C 764.457031 969.933594 765.535156 969.480469 766.652344 969.308594 C 770.128906 968.773438 773.238281 969.871094 775.792969 972.167969 C 779.253906 975.28125 782.523438 978.605469 785.894531 981.8125 C 787.003906 982.867188 788.125 983.917969 789.332031 984.847656 C 791.792969 986.738281 794.390625 988.449219 796.789062 990.417969 C 799.933594 992.992188 802.9375 995.738281 806 998.410156 C 808.058594 1000.210938 810.089844 1002.042969 812.183594 1003.792969 C 814.359375 1005.609375 817.109375 1006.089844 819.734375 1006.78125 C 820.753906 1007.050781 821.199219 1006.453125 820.839844 1005.488281 C 820.464844 1004.476562 820.050781 1003.453125 819.484375 1002.535156 C 817.5 999.308594 815.503906 996.082031 813.398438 992.933594 C 811.984375 990.820312 810.363281 988.847656 808.859375 986.792969 C 807.199219 984.53125 805.066406 982.78125 802.816406 981.152344 C 800.511719 979.484375 798.164062 977.875 795.894531 976.160156 C 793.84375 974.605469 791.808594 973.023438 789.890625 971.3125 C 787.292969 968.996094 784.6875 966.660156 782.328125 964.109375 C 779.949219 961.53125 777.941406 958.613281 775.636719 955.960938 C 773.054688 952.992188 771.472656 949.726562 771.5625 945.703125 C 771.648438 941.777344 774.257812 938.101562 778.078125 936.757812 C 778.761719 936.519531 779.492188 936.316406 780.070312 935.910156 C 781.347656 935.011719 782.519531 933.972656 783.773438 933.035156 C 787.347656 930.367188 791.207031 928.472656 795.816406 928.589844 C 798.050781 928.648438 800.269531 928.640625 802.507812 928.929688 C 804.425781 929.175781 806.207031 929.6875 807.984375 930.378906 C 809.921875 931.125 811.386719 932.5625 813.070312 933.679688 C 815.523438 935.308594 817.964844 936.953125 820.445312 938.535156 C 823.582031 940.546875 826.683594 942.628906 829.925781 944.457031 C 833.289062 946.351562 836.796875 947.996094 840.265625 949.695312 C 840.851562 949.980469 841.585938 950.101562 842.242188 950.082031 C 843.757812 950.03125 845.265625 949.75 846.777344 949.734375 C 851.078125 949.683594 855.382812 949.628906 859.679688 949.746094 C 862.253906 949.820312 863.980469 948.609375 865.445312 946.71875 C 866.785156 944.992188 868.042969 943.183594 869.515625 941.574219 C 872.488281 938.335938 875.609375 935.238281 878.613281 932.03125 C 880.921875 929.558594 883.117188 926.980469 885.402344 924.488281 C 887.539062 922.164062 889.761719 919.917969 891.882812 917.582031 C 893.238281 916.085938 894.589844 914.566406 895.742188 912.921875 C 897.65625 910.191406 899.113281 907.28125 897.890625 903.785156 C 897.773438 903.445312 897.605469 902.996094 897.339844 902.882812 C 897.128906 902.792969 896.644531 903.0625 896.433594 903.304688 C 894.976562 904.96875 893.628906 906.738281 892.117188 908.347656 C 888.394531 912.3125 884.441406 916.027344 880.015625 919.226562 C 877.789062 920.832031 875.609375 922.511719 873.507812 924.277344 C 871.277344 926.15625 868.972656 927.878906 866.3125 929.109375 C 863.324219 930.492188 860.210938 930.582031 857.148438 929.71875 C 854.746094 929.042969 852.703125 927.617188 850.980469 925.710938 C 848.367188 922.824219 847.335938 919.433594 848.734375 915.898438 C 850.285156 911.984375 852.324219 908.226562 854.519531 904.625 C 856.011719 902.175781 858.03125 900.007812 860.011719 897.902344 C 863 894.722656 866.160156 891.703125 869.25 888.613281 C 869.523438 888.335938 869.769531 888.011719 870.085938 887.792969 C 872.996094 885.765625 875.183594 883.050781 877.234375 880.222656 C 879.320312 877.347656 880.574219 874.183594 880.308594 870.546875 C 880.238281 869.59375 879.375 868.476562 878.546875 868.371094 C 874.976562 867.929688 872.152344 869.457031 869.898438 871.992188 C 868.082031 874.03125 866.484375 876.277344 864.90625 878.515625 C 862.992188 881.222656 861.136719 883.976562 859.375 886.785156 C 857.632812 889.5625 856.222656 892.566406 854.332031 895.234375 C 852.070312 898.4375 850 901.863281 846.660156 904.160156 C 844.421875 905.703125 842.261719 907.4375 839.269531 907.097656 C 838.820312 907.042969 838.359375 907.078125 837.898438 907.089844 C 833.96875 907.207031 830.804688 905.503906 828.15625 902.796875 C 826.878906 901.492188 825.824219 899.882812 825.59375 898.019531 C 825.417969 896.589844 825.210938 895.195312 825.441406 893.640625 C 825.96875 890.042969 827.246094 886.820312 829.117188 883.796875 C 830.726562 881.191406 832.445312 878.648438 834.160156 876.105469 C 836.96875 871.941406 839.953125 867.910156 843.492188 864.335938 C 845.617188 862.1875 847.253906 859.707031 848.597656 857.054688 C 850.285156 853.710938 851.472656 850.148438 852.503906 846.554688 C 853.003906 844.824219 853.203125 843.011719 852.550781 841.214844 C 852.296875 840.507812 851.429688 839.617188 850.828125 839.851562 C 849.710938 840.289062 848.507812 840.730469 847.613281 841.488281 C 845.453125 843.3125 843.445312 845.316406 841.382812 847.261719 C 840.695312 847.910156 840.242188 848.632812 839.964844 849.609375 C 839.523438 851.160156 838.835938 852.671875 838.03125 854.078125 C 837.210938 855.519531 836.253906 856.929688 835.136719 858.152344 C 832.214844 861.34375 829.160156 864.414062 826.179688 867.558594 C 825.308594 868.476562 824.457031 869.429688 823.695312 870.4375 C 821.457031 873.410156 819.394531 876.53125 817.011719 879.386719 C 814.417969 882.496094 812.335938 885.953125 809.890625 889.152344 C 807.601562 892.144531 805.394531 895.242188 802.761719 897.910156 C 797.777344 902.957031 792.535156 907.75 787.363281 912.605469 C 784.515625 915.277344 781.691406 917.988281 778.679688 920.464844 C 775.371094 923.179688 771.542969 924.800781 767.144531 924.683594 C 763.167969 924.578125 759.960938 923.054688 757.71875 919.648438 C 756.886719 918.382812 756.269531 916.898438 754.71875 916.21875 C 753.226562 915.566406 752.867188 914.226562 752.808594 912.75 C 752.722656 910.542969 753.566406 908.507812 754 906.398438 C 754.632812 903.304688 755.460938 900.273438 757.082031 897.507812 C 757.964844 896 758.847656 894.449219 759.414062 892.808594 C 760.5625 889.488281 762.078125 886.328125 763.652344 883.222656 C 765.980469 878.628906 768.371094 874.066406 771.121094 869.675781 C 773.941406 865.175781 776.652344 860.605469 779.640625 856.210938 C 781.621094 853.308594 783.597656 850.398438 785.671875 847.566406 C 789.792969 841.933594 792.960938 835.722656 796.574219 829.78125 C 799.121094 825.59375 801.261719 821.160156 803.71875 816.910156 C 805.730469 813.425781 807.996094 810.085938 810.035156 806.613281 C 811.304688 804.445312 812.417969 802.175781 812.265625 799.519531 C 812.199219 798.414062 812.261719 797.304688 812.253906 796.195312 C 812.242188 794.6875 811.765625 794.144531 810.292969 794.070312 C 806.757812 793.894531 803.667969 794.960938 801.167969 797.527344 C 797.894531 800.890625 794.898438 804.484375 792.007812 808.1875 C 789.53125 811.355469 787.289062 814.644531 785.226562 818.09375 C 783.761719 820.546875 782.28125 822.980469 780.925781 825.503906 C 778.738281 829.574219 776.289062 833.5 773.921875 837.46875 C 772.574219 839.722656 771.15625 841.929688 769.78125 844.164062 C 767.898438 847.230469 765.976562 850.269531 764.164062 853.375 C 762.515625 856.203125 761.21875 859.257812 759.363281 861.929688 C 755.441406 867.574219 752.40625 873.769531 748.171875 879.230469 C 745.542969 882.617188 742.867188 885.910156 739.65625 888.742188 C 738.207031 890.019531 736.398438 890.78125 734.546875 891 C 731.207031 891.390625 727.847656 891.019531 724.695312 889.835938 C 722.453125 888.996094 720.644531 887.589844 719.898438 885.007812 C 719.417969 883.335938 719.507812 881.753906 719.753906 880.140625 C 719.957031 878.828125 720.53125 877.566406 720.714844 876.253906 C 721.222656 872.601562 722.480469 869.15625 723.953125 865.855469 C 725.429688 862.546875 727.160156 859.320312 729.3125 856.332031 C 731.597656 853.152344 733.457031 849.660156 735.8125 846.535156 C 738.371094 843.140625 740.417969 839.460938 742.527344 835.808594 C 743.675781 833.816406 744.695312 831.753906 745.769531 829.722656 C 748.117188 825.285156 750.464844 820.847656 752.808594 816.40625 C 754.046875 814.054688 755.203125 811.652344 756.523438 809.347656 C 758.214844 806.386719 760.09375 803.527344 761.789062 800.570312 C 763.753906 797.148438 765.816406 793.78125 767.792969 790.367188 C 770.46875 785.742188 772.804688 780.941406 775.496094 776.335938 C 777.398438 773.078125 779.320312 769.835938 781.257812 766.597656 C 783.101562 763.515625 785.003906 760.464844 786.824219 757.363281 C 787.925781 755.484375 788.789062 753.453125 789.992188 751.644531 C 793.316406 746.640625 795.246094 741.117188 796.183594 735.246094 C 796.644531 732.386719 796.738281 729.472656 797.003906 726.582031 C 797.035156 726.273438 797.117188 725.972656 797.152344 725.667969 C 797.367188 723.929688 797.9375 722.136719 797.6875 720.46875 C 797.40625 718.609375 797.511719 716.78125 797.390625 714.945312 C 797.371094 714.628906 797.398438 714.292969 797.296875 714.003906 C 795.625 709.21875 793.1875 704.882812 789.390625 701.46875 C 788.488281 700.65625 787.179688 700.101562 785.976562 699.882812 C 784.769531 699.664062 784.039062 700.875 783.234375 701.65625 C 783.042969 701.835938 782.820312 701.996094 782.683594 702.210938 C 780.785156 705.269531 778.886719 708.324219 777.015625 711.398438 C 774.800781 715.03125 773.550781 719.09375 772.011719 723.015625 C 770.582031 726.660156 769.1875 730.320312 767.460938 733.839844 C 766.265625 736.277344 764.886719 738.636719 763.785156 741.117188 C 762.371094 744.308594 761.277344 747.644531 759.808594 750.808594 C 758.566406 753.488281 756.960938 755.980469 755.796875 758.726562 C 754.667969 761.386719 753.316406 763.945312 752.21875 766.632812 C 750.605469 770.589844 748.800781 774.480469 746.921875 778.320312 C 744.265625 783.746094 741.511719 789.125 738.714844 794.476562 C 736.523438 798.660156 734.253906 802.804688 731.921875 806.910156 C 729.875 810.507812 727.679688 814.019531 725.582031 817.585938 C 723.296875 821.460938 720.976562 825.3125 718.804688 829.25 C 716.878906 832.742188 715.246094 836.394531 713.28125 839.859375 C 710.613281 844.574219 707.734375 849.167969 704.980469 853.832031 C 702.601562 857.859375 700.332031 861.953125 697.894531 865.945312 C 696.863281 867.632812 695.796875 869.511719 694.257812 870.628906 C 691.921875 872.328125 689.316406 873.65625 686.046875 872.765625 C 684.464844 872.335938 682.800781 872.066406 681.339844 871.355469 C 677.507812 869.476562 674.738281 866.433594 672.644531 862.761719 C 671.683594 861.082031 670.777344 859.367188 669.90625 857.640625 C 668.546875 854.941406 668.925781 852.117188 669.589844 849.359375 C 670.054688 847.429688 670.746094 845.542969 671.484375 843.695312 C 672.488281 841.179688 672.984375 838.460938 674.523438 836.152344 C 674.886719 835.609375 675.046875 834.929688 675.382812 834.363281 C 676.546875 832.378906 677.03125 830.082031 678.460938 828.191406 C 679.773438 826.457031 680.832031 824.503906 681.835938 822.5625 C 682.582031 821.125 682.957031 819.5 683.683594 818.050781 C 685.183594 815.078125 687.222656 812.445312 689.191406 809.773438 C 690.847656 807.527344 692.582031 805.332031 694.128906 803.011719 C 696.875 798.890625 699.484375 794.671875 702.195312 790.523438 C 705.488281 785.488281 708.378906 780.21875 710.511719 774.609375 C 711.960938 770.796875 713.871094 767.246094 715.78125 763.695312 C 717.90625 759.730469 720.355469 755.9375 722.648438 752.0625 C 724.320312 749.238281 725.894531 746.351562 727.648438 743.582031 C 730.121094 739.675781 732.472656 735.726562 734.457031 731.539062 C 737.941406 724.175781 741.601562 716.898438 745.1875 709.582031 C 747.472656 704.925781 749.75 700.261719 752.027344 695.601562 C 753.855469 691.859375 755.558594 688.050781 757.535156 684.394531 C 759.644531 680.492188 761.910156 676.660156 764.292969 672.921875 C 768.085938 666.972656 771.460938 660.796875 774.699219 654.542969 C 775.839844 652.347656 776.804688 650.058594 777.972656 647.882812 C 779.609375 644.847656 780.847656 641.613281 782.761719 638.710938 C 783.632812 637.394531 784.359375 635.925781 784.113281 634.183594 C 783.902344 632.6875 783.988281 631.132812 783.664062 629.664062 C 783.285156 627.953125 783.070312 626.238281 782.933594 624.503906 C 782.867188 623.664062 782.953125 622.808594 782.914062 621.964844 C 782.867188 620.953125 782.335938 620.082031 781.488281 619.691406 C 780.738281 619.347656 779.941406 619.863281 779.265625 620.359375 C 777.96875 621.308594 776.597656 622.164062 775.355469 623.175781 C 772.671875 625.355469 769.539062 626.710938 766.496094 628.238281 C 763.394531 629.796875 760.839844 631.992188 758.925781 634.867188 C 757.679688 636.738281 756.574219 638.710938 755.457031 640.664062 C 753.769531 643.609375 752.15625 646.601562 750.453125 649.539062 C 748.746094 652.488281 746.980469 655.402344 745.214844 658.320312 C 743.855469 660.5625 742.453125 662.78125 741.078125 665.015625 C 739.734375 667.195312 738.394531 669.375 737.0625 671.5625 C 734.660156 675.523438 732.125 679.40625 729.914062 683.46875 C 727.722656 687.492188 725.910156 691.714844 723.859375 695.816406 C 721.425781 700.675781 718.921875 705.503906 716.433594 710.339844 C 715.878906 711.414062 715.277344 712.472656 714.660156 713.515625 C 712.734375 716.761719 710.78125 719.988281 708.859375 723.234375 C 707.003906 726.375 705.164062 729.523438 703.328125 732.675781 C 701.433594 735.929688 699.457031 739.144531 697.695312 742.46875 C 696 745.664062 694.558594 748.988281 692.96875 752.238281 C 691.429688 755.386719 689.859375 758.515625 688.277344 761.636719 C 685.703125 766.71875 683.21875 771.84375 680.125 776.648438 C 678.390625 779.347656 676.839844 782.179688 675.398438 785.050781 C 672.582031 790.65625 669.949219 796.351562 667.144531 801.964844 C 664.875 806.507812 662.523438 811.007812 660.101562 815.472656 C 658.28125 818.832031 656.265625 822.09375 654.386719 825.425781 C 651.785156 830.035156 648.652344 834.183594 644.191406 837.164062 C 640.960938 839.324219 637.425781 840.59375 633.492188 840.601562 C 631.410156 840.609375 629.324219 840.601562 627.238281 840.605469 C 625.355469 840.605469 623.816406 839.8125 622.367188 838.65625 C 620.394531 837.082031 619.738281 834.832031 619.066406 832.585938 C 618.246094 829.859375 617.515625 827.101562 616.707031 824.371094 C 615.761719 821.183594 614.785156 818 613.804688 814.820312 C 612.808594 811.59375 612.199219 808.292969 611.578125 804.976562 C 611.128906 802.554688 610.515625 800.140625 609.410156 797.867188 C 607.449219 793.835938 604.042969 791.402344 600.339844 789.261719 C 599.9375 789.027344 599.382812 789.007812 598.894531 788.992188 C 596.234375 788.902344 593.628906 789.21875 590.996094 789.699219 C 587.914062 790.257812 584.808594 790.707031 581.933594 791.929688 C 577.457031 793.832031 572.765625 794.949219 568.003906 795.535156 C 564.992188 795.90625 561.867188 795.394531 558.792969 795.214844 C 558.148438 795.175781 557.507812 794.882812 556.882812 794.652344 C 552.925781 793.203125 550.25 790.121094 547.511719 787.15625 C 546.035156 785.554688 544.820312 783.714844 543.445312 782.015625 C 542.09375 780.34375 540.648438 778.75 539.3125 777.070312 C 537.523438 774.828125 535.832031 772.507812 534.039062 770.269531 C 532.613281 768.492188 531.101562 766.789062 529.625 765.054688 C 527.367188 762.402344 525.125 759.738281 522.84375 757.109375 C 521.542969 755.613281 520.167969 754.179688 518.84375 752.703125 C 517.996094 751.757812 517.160156 750.800781 516.355469 749.820312 C 514.039062 747.003906 511.726562 744.183594 509.441406 741.34375 C 508.074219 739.640625 506.765625 737.890625 505.425781 736.164062 C 504.507812 734.980469 503.59375 733.789062 502.660156 732.617188 C 501.054688 730.605469 499.28125 728.710938 497.855469 726.582031 C 494.769531 721.980469 491.703125 717.375 488.484375 712.859375 C 485.214844 708.265625 482.292969 703.417969 479.117188 698.746094 C 475.621094 693.59375 471.664062 688.8125 467.960938 683.832031 C 466.109375 681.34375 464.257812 678.851562 462.429688 676.34375 C 460.753906 674.046875 459.230469 671.621094 457.417969 669.441406 C 455.441406 667.070312 453.269531 664.851562 451.074219 662.675781 C 447.632812 659.261719 444.101562 655.933594 440.605469 652.570312 C 440.277344 652.253906 439.90625 651.960938 439.644531 651.59375 C 437.445312 648.515625 435.539062 645.261719 433.820312 641.886719 C 433.050781 640.378906 432.273438 638.847656 431.308594 637.460938 C 430.386719 636.148438 429.109375 635.21875 427.347656 635.277344 C 426.042969 635.324219 425.835938 635.433594 425.878906 636.6875 C 425.9375 638.328125 426.121094 639.96875 426.253906 641.609375 C 426.257812 641.667969 426.28125 641.726562 426.300781 641.785156 C 427.433594 644.910156 428.058594 648.179688 429.3125 651.289062 C 430.914062 655.257812 432.53125 659.214844 434.328125 663.09375 C 436.457031 667.683594 438.925781 672.078125 441.875 676.207031 C 443.9375 679.097656 445.734375 682.175781 447.746094 685.105469 C 449.910156 688.265625 452.21875 691.328125 454.398438 694.480469 C 455.96875 696.746094 457.300781 699.183594 458.957031 701.378906 C 462.246094 705.746094 465.035156 710.417969 467.699219 715.171875 C 469.515625 718.414062 471.828125 721.300781 474.007812 724.289062 C 476.054688 727.097656 478.144531 729.875 480.222656 732.664062 C 481.601562 734.507812 482.992188 736.339844 484.371094 738.183594 C 485.859375 740.171875 487.355469 742.15625 488.824219 744.160156 C 490.578125 746.554688 492.3125 748.96875 494.050781 751.378906 C 495.710938 753.6875 497.320312 756.039062 499.042969 758.300781 C 500.636719 760.402344 502.320312 762.433594 504.011719 764.457031 C 505.640625 766.40625 507.382812 768.253906 508.96875 770.234375 C 511.148438 772.960938 513.273438 775.730469 515.328125 778.550781 C 517.0625 780.9375 518.703125 783.394531 520.308594 785.871094 C 522.707031 789.566406 524.597656 793.578125 528.128906 796.519531 C 530.199219 798.246094 531.84375 800.515625 533.550781 802.648438 C 535.535156 805.117188 537.457031 807.648438 539.253906 810.253906 C 541.230469 813.125 543.039062 816.113281 544.90625 819.054688 C 546.921875 822.230469 548.566406 825.601562 549.824219 829.140625 C 552.128906 835.640625 554.257812 842.199219 555.972656 848.886719 C 556.648438 851.535156 557.324219 854.1875 558.066406 856.820312 C 558.324219 857.742188 558.582031 858.785156 559.1875 859.464844 C 561.0625 861.566406 561.605469 864.144531 561.921875 866.746094 C 562.402344 870.734375 561.609375 874.578125 560 878.25 C 559.175781 880.136719 558.351562 882.027344 558.054688 884.089844 C 557.804688 885.859375 557.167969 887.5 556.324219 889.042969 C 554.761719 891.898438 552.597656 894.332031 550.5 896.789062 C 548.371094 899.285156 546.078125 901.652344 543.742188 903.964844 C 538.332031 909.328125 533.1875 914.96875 527.21875 919.75 C 525.390625 921.214844 523.65625 922.792969 521.863281 924.300781 C 516 929.226562 510.425781 934.460938 505.058594 939.917969 C 503.894531 941.097656 502.671875 942.242188 501.34375 943.226562 C 497.671875 945.957031 493.902344 948.558594 490.21875 951.277344 C 487.339844 953.398438 484.589844 955.621094 482.191406 958.371094 C 479.316406 961.667969 476.015625 964.625 472.714844 967.519531 C 470.242188 969.6875 467.449219 971.480469 464.851562 973.511719 C 462.082031 975.679688 459.355469 977.898438 456.648438 980.144531 C 452.898438 983.257812 448.609375 985.535156 444.441406 987.988281 C 441.585938 989.671875 438.519531 991 435.605469 992.601562 C 433.261719 993.890625 431.007812 995.351562 428.710938 996.730469 C 423.863281 999.636719 419.515625 1003.292969 414.636719 1006.167969 C 413.085938 1007.085938 411.46875 1008.207031 410.441406 1009.632812 C 407.875 1013.191406 405.214844 1016.714844 403.414062 1020.78125 C 403.011719 1021.6875 402.824219 1022.511719 402.777344 1023.457031 C 402.683594 1025.359375 402.789062 1027.328125 402.335938 1029.144531 C 401.664062 1031.828125 400.597656 1034.410156 399.648438 1037.019531 C 399.265625 1038.066406 399.355469 1038.371094 400.328125 1038.496094 C 403.410156 1038.890625 406.339844 1038.144531 408.976562 1036.730469 C 413.898438 1034.09375 418.171875 1030.476562 422.578125 1027.082031 C 425.023438 1025.195312 427.34375 1023.140625 429.707031 1021.148438 C 432.273438 1018.992188 434.800781 1016.792969 437.390625 1014.664062 C 439.515625 1012.917969 441.707031 1011.25 443.871094 1009.554688 C 445.890625 1007.976562 448.082031 1006.582031 449.90625 1004.808594 C 458.902344 996.070312 467.800781 987.230469 476.734375 978.425781 C 477.058594 978.105469 477.398438 977.800781 477.699219 977.457031 C 478.492188 976.550781 479.210938 975.574219 480.066406 974.730469 C 481.476562 973.351562 482.996094 972.089844 484.425781 970.726562 C 487.890625 967.425781 491.332031 964.097656 494.777344 960.777344 C 498.550781 957.140625 502.289062 953.464844 506.101562 949.863281 C 508.984375 947.140625 511.945312 944.492188 514.902344 941.84375 C 515.6875 941.144531 516.582031 940.566406 517.433594 939.9375 C 519.578125 938.355469 521.703125 936.742188 523.882812 935.210938 C 525.730469 933.914062 527.535156 932.597656 529.230469 931.089844 C 531.078125 929.445312 533.1875 928.097656 535.1875 926.625 C 537.132812 925.195312 539.085938 923.769531 541.230469 922.144531 Z M 541.230469 922.144531 "/></g></g></svg>