<svg xmlns="http://www.w3.org/2000/svg" width="px" height="px" viewBox="0 0 352 518"><defs><clipPath id="a"><path d="M.031 0H352v518H.031Zm0 0"/></clipPath></defs><g clip-path="url(#a)"><path d="m37.148 122.453-1.394 179.95c-3.25 3.331-5.211 6.296-5.777 9.109-.622 2.734.156 5.21 2.214 7.43-2.242 2.218-3.246 4.074-3.328 5.777-.047 1.652.93 3.02 3.047 4.207l-1.648 101.699c-1.91 1.137-3.176 2.426-3.59 3.586-.438 1.137-.235 2.426.824 3.586-1.906 1.73-2.887 3.406-3.043 5.238-.156 1.781.617 3.617 2.219 5.496-3.02 4.23-5.777 7.508-8.281 9.934-2.555 2.37-4.852 3.844-6.891 4.41-3.25.105-5.418.8-6.605 2.191-1.239 1.395-1.082 4.079-.54 6.067.516 1.933 1.676 3.738 3.586 5.52l-.285 14.034q-5.226 1.354-6.89 3.329c-1.188 1.21-.72 2.683 0 4.414.62 1.726 1.937 3.558 3.847 5.777l30.602 13.777c18.394-.254 33.258-.593 45.488-1.109 12.152-.492 21.184-1.055 26.988-1.91 5.68-.926 7.868-2.086 6.891-3.582 3.766-.727 9.7-1.809 18.188-3.047 8.492-1.344 24.976-3.2 32.253-4.672 7.043-1.469 8.645-2.426 10.477-4.152 1.832-1.73 2.012-3.871.543-6.32 4.23-.051 7.324-.696 9.39-1.653 2.016-1.031 2.887-2.504 2.735-4.41 3.973 1.21 7.121 1.883 9.652 1.906 2.422-.023 3.743-.543 5.235-1.648 1.496-1.133 2.66-2.79 3.59-4.953 1.57 1.574 3.558 1.882 6.062.824 2.45-1.082 7.48-4.336 8.824-7.172 1.16-2.863.13-7.66-1.11-9.906-1.265-2.274-3.948-3.223-6.066-3.871-2.164-.7-4.566-.079-6.601-.54-2.09-.593-3.77-1.78-5.52-2.761-1.836-1.008-3.355-2.067-4.957-3.176 4.72-8.98 10.32-19.531 17.078-32.25 6.711-12.824 13.805-26.832 23.176-43.523 9.34-16.743 19.016-32.559 32.79-56.008 13.831-23.637 36.179-60.813 49.335-84.055 13.008-23.297 23.098-41.64 28.383-54.023 5.137-12.286 4.234-12.828 2.766-19.145-1.551-6.375-6.504-14.812-11.586-18.758-5.137-4-12.078-4.722-18.735-4.953-6.734-.308-12.285-.437-21.234 3.301-9.11 3.742-22.266 14.863-32.512 19.016-10.246 4.05-18.812 6.062-28.383 5.238-9.675-.957-21.058-4.567-28.667-10.734-7.536-6.192-11.532-13.723-16.282-26.184-4.851-12.723-7.226-35.219-12.383-48.79-5.289-13.519-11.816-23.347-18.476-31.683-6.68-8.41-12.902-13.414-20.953-18.187-8.203-4.848-18.883-8.309-27.27-10.473-8.336-2.246-15.636-2.941-22.32-2.476 1.215-1.473 2.605-2.891 4.387-4.157 1.726-1.367 3.714-2.425 6.062-3.558 1.059-.907 1.574-1.883 1.938-3.047.257-1.133.207-2.45-.262-3.844-4.281-2.086-10.035-3.715-17.645-4.98C78.766 1.297 69.352-.355 58.641.086 47.832.473 36.066 1.969 22.543 4.78c-1.52 2.707-2.297 5.004-2.219 6.89q.04 2.824 2.477 4.411c3.125.875 5.422 2.035 7.176 3.586 1.699 1.496 2.683 3.328 3.043 5.496l-1.391 85.445Zm44.38-3.25c5.21-1.937 9.882-2.633 14.32-2.195 4.363.437 7.379.8 11.843 4.953 4.36 4.105 9.704 11.328 14.63 19.582 4.902 8.258 9.034 20.742 14.863 29.207 5.777 8.332 11.43 14.191 19.84 20.664 8.44 6.399 19.148 13.676 30.32 17.645 11.144 3.847 25.312 5.238 35.84 5.78 10.343.516 16.82-.542 26.187-2.476 9.418-1.96 19.844-5.492 29.777-9.105 9.856-3.692 19.301-7.844 28.922-12.672-13.52 16.437-27.554 33.465-42.703 51.887-15.222 18.472-32.25 39.062-47.707 57.87-15.508 18.727-29.62 36.352-44.637 53.454-15.199 16.976-31.195 33.254-45.207 47.754-13.957 14.449-26.5 26.988-38.03 38.316-.079-1.031-.516-1.758-1.11-2.48-.621-.696-1.602-1.29-2.735-1.676.825-1.418 1.004-2.45.543-3.305-.468-.797-1.601-1.418-3.304-1.648l.824-103.895q3.06-2.555 3.02-4.953c-.102-1.652-1.137-3.152-3.301-4.695 2.011-1.473 2.554-3.305 1.933-5.496-.722-2.297-2.71-4.746-6.062-7.742l-.828-180.157c.906-1.523 1.836-3.07 2.761-4.617m0 0" style="stroke:none;fill-rule:nonzero;fill:#ff6d4d;fill-opacity:1"/></g><path d="M51.776 170.767 49.83 421.864c-4.534 4.65-7.27 8.786-8.06 12.71-.867 3.816.218 7.272 3.09 10.368-3.128 3.096-4.53 5.685-4.644 8.062-.065 2.305 1.298 4.213 4.252 5.87l-2.3 141.909c-2.665 1.586-4.431 3.384-5.009 5.003-.61 1.586-.327 3.385 1.15 5.004-2.66 2.415-4.028 4.753-4.246 7.31-.218 2.485.861 5.041 3.096 7.668-4.213 5.904-8.06 10.477-11.554 13.862-3.565 3.308-6.77 5.363-9.614 6.153-4.535.148-7.56 1.118-9.216 3.058-1.728 1.946-1.51 5.69-.752 8.465.719 2.698 2.338 5.216 5.003 7.702l-.398 19.584q-7.292 1.89-9.614 4.644c-1.657 1.69-1.003 3.745 0 6.16.866 2.409 2.703 4.965 5.368 8.061l42.696 19.225c25.665-.355 46.403-.829 63.467-1.548 16.955-.687 29.556-1.472 37.655-2.666 7.924-1.292 10.976-2.91 9.614-5.003 5.254-1.009 13.532-2.519 25.375-4.247 11.849-1.875 34.848-4.464 45.002-6.519 9.826-2.049 12.06-3.384 14.617-5.794 2.556-2.414 2.807-5.401.758-8.819 5.902-.07 10.219-.97 13.102-2.305 2.812-1.44 4.027-3.494 3.815-6.154 5.542 1.69 9.935 2.627 13.467 2.66 3.379-.033 5.221-.758 7.303-2.3 2.087-1.581 3.712-3.892 5.009-6.912 2.19 2.191 4.965 2.627 8.458 1.15 3.417-1.51 10.437-6.05 12.312-10.007 1.619-3.996.18-10.69-1.548-13.823-1.766-3.173-5.51-4.497-8.464-5.402-3.02-.976-6.371-.109-9.21-.752-2.916-.829-5.254-2.486-7.701-3.854-2.562-1.406-4.682-2.883-6.917-4.431 6.584-12.531 14.4-27.254 23.828-45.001 9.363-17.895 19.26-37.44 32.336-60.732 13.03-23.361 26.53-45.431 45.748-78.151 19.299-32.983 50.479-84.857 68.835-117.288 18.149-32.508 32.226-58.105 39.6-75.383 7.167-17.143 5.908-17.9 3.859-26.714-2.164-8.896-9.075-20.669-16.165-26.174-7.167-5.582-16.852-6.59-26.139-6.912-9.396-.43-17.14-.61-29.627 4.606-12.71 5.222-31.065 20.74-45.36 26.534-14.297 5.652-26.249 8.46-39.601 7.31-13.5-1.336-29.382-6.372-39.999-14.979-10.513-8.64-16.088-19.148-22.716-36.536-6.769-17.753-10.082-49.143-17.277-68.079-7.379-18.865-16.486-32.579-25.779-44.21-9.32-11.736-18.001-18.718-29.234-25.379-11.445-6.764-26.346-11.594-38.047-14.613-11.63-3.134-21.817-4.105-31.142-3.456 1.695-2.055 3.635-4.033 6.12-5.8 2.41-1.907 5.184-3.384 8.459-4.965 1.477-1.265 2.196-2.627 2.703-4.252.36-1.58.29-3.417-.365-5.363-5.973-2.91-14.001-5.184-24.618-6.95C109.841 1.71 96.707-.597 81.763.02c-15.08.54-31.497 2.627-50.365 6.552-2.12 3.777-3.204 6.982-3.095 9.615q.056 3.939 3.455 6.154c4.36 1.22 7.565 2.84 10.012 5.003 2.37 2.088 3.744 4.644 4.245 7.67l-1.94 119.228Zm61.919-4.535c7.27-2.703 13.789-3.674 19.98-3.063 6.088.61 10.295 1.117 16.525 6.911 6.082 5.73 13.538 15.807 20.41 27.325 6.84 11.522 12.606 28.943 20.738 40.754 8.06 11.627 15.947 19.803 27.681 28.835 11.778 8.928 26.716 19.082 42.304 24.62 15.549 5.37 35.316 7.31 50.004 8.067 14.432.72 23.469-.757 36.538-3.455 13.14-2.737 27.686-7.664 41.546-12.706 13.75-5.15 26.93-10.945 40.353-17.682-18.863 22.937-38.445 46.696-59.58 72.401-21.24 25.777-44.997 54.502-66.563 80.752-21.637 26.13-41.328 50.719-62.278 74.588-21.207 23.688-43.525 46.401-63.074 66.634-19.474 20.162-36.974 37.659-53.063 53.466-.109-1.44-.72-2.453-1.547-3.461-.867-.97-2.235-1.799-3.816-2.339 1.15-1.978 1.401-3.417.758-4.61-.654-1.113-2.235-1.98-4.61-2.301l1.15-144.972q4.267-3.566 4.212-6.911c-.142-2.306-1.586-4.4-4.605-6.552 2.807-2.055 3.564-4.611 2.698-7.67-1.009-3.204-3.783-6.622-8.459-10.803l-1.155-251.385c1.264-2.126 2.561-4.284 3.853-6.443Zm0 0" style="fill:none;stroke-width:.036;stroke-linecap:butt;stroke-linejoin:miter;stroke:#000;stroke-opacity:1;stroke-miterlimit:10" transform="matrix(.71673 0 0 .71665 .039 .072)"/><path d="M54.114 177.172c1.26-2.3 3.783-4.105 7.707-5.544 3.924-1.471 9.755-2.878 15.696-3.09 5.973-.365 14.437-.076 19.402 1.542 4.753 1.548 7.881 4.214 9.255 7.991l-.327 244.01c-2.447 2.917-6.404 4.825-12.312 5.871-5.94 1.003-16.127 1.472-22.787.29-6.66-1.304-12.312-3.822-16.955-7.708.109-81.106.218-162.212.321-243.362Zm0 0" style="fill-rule:nonzero;fill:#fff;fill-opacity:1;stroke-width:.036;stroke-linecap:butt;stroke-linejoin:miter;stroke:#000;stroke-opacity:1;stroke-miterlimit:10" transform="matrix(.71673 0 0 .71665 .039 .072)"/><path d="M56.888 184.879c1.15-1.657 2.126-2.306 3.063-1.548.861.649 1.58-.79 2.153 5.543.474 6.34 1.265 15.59 1.265 32.328-.11 16.81-1.085 41.47-1.265 67.18-.18 25.596-.065 65.049.327 85.314.289 19.912 1.548 26.681 1.548 34.198-.11 7.424-1.15 8.645-1.875 10.476-.9 1.766-2.011.72-2.769.327-.795-.54-1.4-1.619-1.836-3.38.468 2.372 1.188 4.067 2.158 5.217.937 1.15 2.202 2.088 3.385 1.548 1.084-.687 2.806 1.51 3.1-5.222.219-6.911-1.226-20.195-1.553-35.424-.392-15.513-.643-35.206-.61-55.766-.033-20.587.54-46.658.61-66.237-.07-19.622-.643-37.658-.61-50.222-.07-12.673.97-19.546.61-24.659-.463-5.042-1.58-4.753-2.768-5.543-1.26-1.009-3.494-1.009-4.322 0-.829.97-1.08 2.883-.61 5.87ZM71.037 179.118c1.22-1.8 2.158-2.344 3.095-1.62.862.611 1.586-.79 2.159 5.8.507 6.656 1.188 16.303 1.226 33.8-.142 17.568-1.008 43.344-1.226 70.238-.18 26.784-.071 68.04.327 89.205.218 20.882 1.51 27.902 1.51 35.784-.142 7.778-1.08 8.961-1.837 10.945-.932 1.76-1.908.9-2.774.322-.785-.578-1.401-1.766-1.832-3.565.54 2.447 1.112 4.29 2.126 5.51.9 1.222 2.267 2.126 3.417 1.581 1.117-.643 2.736 1.521 3.058-5.467.218-7.2-1.221-21.17-1.548-37.048-.393-16.09-.643-36.858-.61-58.284-.033-21.53.539-48.778.61-69.262-.071-20.555-.643-39.316-.61-52.528-.071-13.136.975-20.517.61-25.738-.463-5.293-1.58-4.857-2.774-5.794-1.292-1.042-3.417-1.042-4.279 0-.828 1.046-1.046 2.992-.648 6.12ZM86.771 181.963c1.221-1.657 2.159-2.306 3.09-1.548.796.643 1.554-.861 2.126 5.614.469 6.372 1.259 15.916 1.259 32.797-.104 17.028-1.08 42.046-1.259 68.112-.18 26.027-.07 65.991.327 86.546.283 20.265 1.548 26.959 1.548 34.666-.115 7.522-1.156 8.748-1.875 10.618-.9 1.804-2.016.796-2.769.321-.795-.54-1.406-1.684-1.842-3.45.474 2.41 1.194 4.137 2.164 5.325.937 1.15 2.196 2.088 3.384 1.548 1.08-.719 2.807 1.581 3.096-5.292.218-7.091-1.22-20.407-1.548-35.926-.392-15.627-.648-35.821-.61-56.561-.038-20.806.54-47.41.61-67.175-.07-19.905-.648-38.122-.61-50.904-.076-12.814.97-19.796.61-24.98-.468-5.08-1.586-4.824-2.774-5.652-1.259-1.014-3.488-1.014-4.322 0-.823.97-1.079 2.954-.605 5.94ZM99.083 191.033c1.22-1.619 2.153-2.05 3.09-1.44.867.579 1.586-.79 2.164 5.184.501 5.974 1.188 14.657 1.22 30.35-.14 15.769-1.002 38.918-1.22 63.037-.18 24.081-.038 61.091.283 80.06.295 18.76 1.554 24.915 1.554 32.077-.147 6.911-1.08 8.1-1.837 9.828-.828 1.586-1.984.757-2.769.288-.795-.54-1.373-1.548-1.875-3.166.464 2.196 1.183 3.777 2.159 4.894.937 1.112 2.196 1.87 3.384 1.44 1.08-.688 2.807 1.476 3.096-4.9.212-6.514-1.226-18.931-1.548-33.228-.398-14.505-.648-33.119-.61-52.343-.038-19.257.54-43.813.61-62.138-.07-18.467-.648-35.282-.61-47.121-.077-11.844.97-18.396.61-23.111-.469-4.715-1.586-4.464-2.769-5.222-1.264-.932-3.499-.932-4.322 0-.828.905-1.084 2.742-.61 5.51Zm0 0" style="fill-rule:nonzero;fill:#ff6d4d;fill-opacity:1;stroke-width:.036;stroke-linecap:butt;stroke-linejoin:miter;stroke:#000;stroke-opacity:1;stroke-miterlimit:10" transform="matrix(.71673 0 0 .71665 .039 .072)"/><path d="M52.566 424.78c5.15 2.736 10.443 4.682 16.024 5.832 5.58 1.15 10.399 1.515 17.244.938 6.763-.687 14.29-2.518 23.108-5.217 2.954 1.363 4.753 3.167 5.549 5.827.757 2.557.245 5.69-1.227 9.539-2.877 2.845-7.81 4.862-15.08 6.192-7.423 1.194-20.018 2.344-28.373 1.515-8.35-.828-15.299-3.02-21.24-6.443-2.556-1.907-3.994-3.962-4.316-6.153-.436-2.344.758-5.08 2.158-7.092 1.368-1.984 3.423-3.679 6.153-4.938Zm0 0" style="fill-rule:nonzero;fill:#fff;fill-opacity:1;stroke-width:.036;stroke-linecap:butt;stroke-linejoin:miter;stroke:#000;stroke-opacity:1;stroke-miterlimit:10" transform="matrix(.71673 0 0 .71665 .039 .072)"/><path d="M47.313 446.632c3.885 2.022 9.292 3.565 16.056 4.644 6.769 1.084 15.947 2.812 24.623 1.842 8.644-1.188 17.386-3.783 26.82-8.318 2.338.322 3.564 1.407 3.673 3.096.033 1.695-.937 4.001-3.057 7.059-8.856 3.02-16.601 5.036-24.051 6.192-7.38 1.15-12.705 1.259-20.013.605-7.489-.785-15.233-2.338-24.051-4.927-2.845-1.657-4.322-3.205-4.284-4.933-.038-1.766 1.439-3.423 4.284-5.26ZM43.318 602.62c3.057 2.305 7.2 4.104 12.955 5.548 5.766 1.401 13.074 2.698 20.955 2.77 7.701-.148 18.612-1.69 24.945-3.097 6.159-1.477 10.116-3.276 12.029-5.543 1.978 0 3.057.463 3.384 1.542.289.982-.18 2.562-1.553 4.612-3.706 2.3-8.639 4.099-14.797 5.543-6.371 1.4-14.361 2.698-22.171 2.774-7.777 0-17.5-2.125-23.724-3.057-6.23-1.047-10.514-2.273-13.25-3.39-1.438-1.478-2.054-2.77-1.836-4.029.18-1.292 1.155-2.518 3.063-3.674Zm0 0" style="fill-rule:nonzero;fill:#fff;fill-opacity:1;stroke-width:.036;stroke-linecap:butt;stroke-linejoin:miter;stroke:#000;stroke-opacity:1;stroke-miterlimit:10" transform="matrix(.71673 0 0 .71665 .039 .072)"/><path d="M39.933 612.158c1.117 1.695 5.08 3.14 12.023 4.323 6.982 1.188 20.776 2.627 29.267 2.774 8.208-.033 13.969-.867 20.345-2.486 6.371-1.651 12.127-4.071 17.566-7.38q3.4 3.403 3.668 7.99c.076 3.102-1.22 7.42-2.769 10.194-1.618 2.621-1.657 3.777-6.769 5.543-5.324 1.69-16.492 3.597-24.046 4.312-7.564.577-13.609.223-20.628-.933-7.205-1.368-16.563-4.355-21.566-6.48-4.97-2.12-7.598-4.176-8.028-6.154-1.87-2.415-2.556-4.573-2.447-6.481.07-1.979 1.335-3.668 3.384-5.222ZM39.644 629.404a98 98 0 0 1-6.801 7.702c-2.126 2.022-4.034 3.063-6.16 4.938-2.3 1.799-4.713 3.854-7.379 6.154l33.59 15.41c2.556-2.704 4.714-5.942 6.763-10.155 1.984-4.247 3.679-9.032 5.221-14.8-4.496.295-8.67-.32-12.922-1.83-4.251-1.62-8.355-3.996-12.312-7.419ZM70.138 639.88c8.207.687 16.088.54 24.334-.289 8.208-.855 16.094-2.556 24.335-4.927 5.363 3.81 9.576 7.67 12.928 11.697 3.275 3.963 5.542 8.062 6.801 12.313-5.259 1.837-14.508 3.025-28.046 3.996-13.75.828-30.962 1.297-52.991 1.259 4.463-4.677 7.706-9 9.864-12.957 2.164-4.11 2.954-7.669 2.775-11.092ZM146.853 661.59c2.987.11 4.567 1.009 4.606 3.096.038 2.055-1.401 4.895-4.317 8.929-12.96 1.477-26.749 2.665-42.195 3.712-15.478.97-31.894 1.684-49.928 2.158-2.126-2.562-3.243-4.862-3.063-6.77.038-1.946 1.368-3.64 3.712-4.933 22.928-.032 41.65-.507 56.98-1.548 15.342-1.15 26.46-2.523 34.205-4.644ZM51.956 665.907c-.109-.463-3.237-2.016-9.543-4.927-6.333-2.883-15.582-6.988-28.04-12.319-3.636.398-5.544 1.728-5.87 4.001-.251 2.306.904 5.396 3.994 9.577l37.3 15.693c-1.618-2.699-2.234-5.113-1.836-7.092.322-1.978 1.657-3.668 3.995-4.933ZM51.019 681.316l-.284 18.794-35.747-15.082-.937-18.794ZM55.34 682.543l-.326 17.278 89.354-4.033-.283-16.63ZM52.893 703.2c-2.806-.032-4.43 1.195-5.253 3.68-.725 2.48-.654 6.083.604 11.087 34.238-.25 59.516-1.009 77.332-2.126 17.604-1.188 23.435-2.878 28.046-4.933 4.426-2.196.18-5.543-.937-7.707-1.15-2.159-3.096-3.952-5.832-5.25-12.857 1.222-26.749 2.16-42.516 3.097-15.876.861-32.652 1.58-51.444 2.153Zm0 0" style="fill-rule:nonzero;fill:#fff;fill-opacity:1;stroke-width:.036;stroke-linecap:butt;stroke-linejoin:miter;stroke:#000;stroke-opacity:1;stroke-miterlimit:10" transform="matrix(.71673 0 0 .71665 .039 .072)"/><path d="M11.887 686.576c-3.744-.436-6.044.54-6.764 2.77-.834 2.267-.114 5.76 2.159 10.764l37.91 16.63c-1.373-4.284-1.553-7.522-.937-9.86.72-2.415 2.23-3.744 4.927-4.284a30768 30768 0 0 1-37.295-16.02ZM46.413 459.087c3.058 2.234 7.778 3.782 14.29 4.79 6.551.938 15.195 2.094 24.373 1.118 9.107-1.117 18.645-3.423 29.447-7.315l-1.978 141.81c-2.665 3.206-7.707 5.544-15.413 6.732-7.81 1.189-21.773 1.51-30.526.578-8.851-1.08-15.947-3.281-21.85-6.737.54-46.974 1.08-93.959 1.657-140.976ZM50.01 37.64 48 152.622c7.34-1.804 16.41-2.807 27.642-2.736 11.233-.071 24.084.937 39.24 2.736l3.892-112.426c-10.41-2.916-21.135-4.579-32.619-4.971-11.521-.392-23.473.36-36.145 2.415Zm0 0" style="fill-rule:nonzero;fill:#fff;fill-opacity:1;stroke-width:.036;stroke-linecap:butt;stroke-linejoin:miter;stroke:#000;stroke-opacity:1;stroke-miterlimit:10" transform="matrix(.71673 0 0 .71665 .039 .072)"/><path d="M48.539 154.857c7.161-1.587 14.797-2.306 23.037-2.595 8.28-.18 18.722.289 26.172 1.118 7.27.68 13.178 1.618 17.713 2.948l-8.497 13.25c-6.551-3.204-13.969-4.861-22.678-4.965-8.715-.114-18.438 1.112-29.31 4.067-2.12-4.612-4.279-9.218-6.437-13.823ZM34.892 20.574c5.439-1.87 13.03-3.309 23.223-4.606 10.077-1.336 24.258-3.565 37.257-2.955 13.03.611 25.991 2.519 39.998 6.263l-17.713 15.48c-15.086-2.338-27.828-3.564-39.06-3.668-11.234-.109-20.303.681-27.65 2.769-2.626-4.606-5.33-7.99-7.956-10.155-2.775-2.267-5.325-3.308-8.1-3.128Zm0 0" style="fill-rule:nonzero;fill:#fff;fill-opacity:1;stroke-width:.036;stroke-linecap:butt;stroke-linejoin:miter;stroke:#000;stroke-opacity:1;stroke-miterlimit:10" transform="matrix(.71673 0 0 .71665 .039 .072)"/><path d="M34.712 17.085c-1.979-1.439-2.916-2.812-2.954-4.251-.07-1.548.796-2.878 2.594-4.432 18.11-4.426 35.42-6.404 53.062-6.077 17.5.283 34.565 2.987 51.624 8.094 1.586 1.226 2.305 2.267 2.022 3.532-.295 1.188-1.515 2.3-3.679 3.494-17.244-4.9-33.943-7.31-51.226-7.386-17.315 0-34.09 2.164-51.443 7.026ZM125.178 35.192c15.702.464 29.665 2.551 42.337 6.116 12.6 3.532 23.004 8.465 33.158 15.338 10.045 6.732 19.043 14.58 27 25.488 7.919 10.945 14.47 23.76 19.942 39.56 5.26 15.846 6.84 38.02 11.99 54.039 5.074 15.769 10.475 29.592 18.721 40.215 8.24 10.547 18.035 18.107 30.346 22.675 12.274 4.284 28.766 5.33 42.375 3.712 13.353-1.657 24.907-7.31 37.726-13.213 12.78-6.083 27.615-18.216 38.38-22.108 10.687-3.848 20.372-2.622 25.162-.605 4.567 2.012 4.965 7.876 2.447 12.597-2.561 4.644-8.534 9.5-17.783 15.01-4.611-2.125-9.216-2.986-14.116-2.446-4.965.54-7.341 1.368-15.048 5.543-7.88 4.142-19.653 13.9-30.99 19.006-11.488 4.933-25.13 8.574-36.504 10.766-11.38 2.158-18.797 5.183-31 2.125-12.42-3.134-29.3-8.786-42.048-20.843-12.742-12.351-23.397-31.68-33.769-51.874-10.55-20.342-18.72-49.683-28.547-68.439-9.789-18.647-16.345-32.54-29.774-42.946-13.533-10.476-30.134-17.028-50.615-19.655.18-10.013.398-20.02.61-30.06Zm0 0" style="fill-rule:nonzero;fill:#fff;fill-opacity:1;stroke-width:.036;stroke-linecap:butt;stroke-linejoin:miter;stroke:#000;stroke-opacity:1;stroke-miterlimit:10" transform="matrix(.71673 0 0 .71665 .039 .072)"/><path d="M124.246 70.687c10.726.398 20.378 2.448 29.48 6.443 8.965 3.924 16.132 6.873 24.553 17.208 8.425 10.334 18.252 29.412 25.452 44.172 7.025 14.69 10.873 29.63 16.562 43.273 5.614 13.496 11.124 26.676 17.206 37.44 6.05 10.657 10.263 18.108 19.005 26.388 8.644 8.1 21.206 17.747 32.837 22.43 11.554 4.567 21.637 6.3 36.216 5.183 14.54-1.298 36.646-6.808 50.331-11.954 13.462-5.183 21.74-14.002 30.38-18.396 8.496-4.426 15.303-7.27 20.557-7.702 5.08-.468 8.317 2.23 10.154 4.606 1.69 2.23 1.182 5.326.283 8.89-.937 3.527-2.878 7.38-5.832 11.992-12.96 6.982-27.468 12.885-44.494 18.396-17.103 5.402-38.195 11.953-56.768 13.823-18.722 1.76-36.582.861-54.006-3.385-17.489-4.497-35.638-12.024-49.71-22.718-14.007-10.907-25.169-28.077-34.058-41.11-8.998-12.994-13.788-26.642-19.658-36.214-5.94-9.615-10.148-15.878-15.942-21.17-5.979-5.435-12.786-8.89-19.048-11.054-6.376-2.306-12.274-2.878-18.394-2.159 1.613-28.114 3.232-56.229 4.894-84.382Zm0 0" style="fill-rule:nonzero;fill:#fff;fill-opacity:1;stroke-width:.036;stroke-linecap:butt;stroke-linejoin:miter;stroke:#000;stroke-opacity:1;stroke-miterlimit:10" transform="matrix(.71673 0 0 .71665 .039 .072)"/><path d="M462.61 206.654c5.576 1.516 8.89 5.151 9.789 11.054.828 5.909-.823 14.723-4.284 24.229-3.493 9.397-5.58 13.752-16.274 31.93-10.906 18.254-32.003 52.599-47.879 76.397-15.87 23.617-29.19 39.74-46.615 64.76-17.604 25.023-41.006 60.41-57.422 84.387-16.383 23.83-26.711 38.482-39.89 57.995-13.21 19.513-26.17 39.708-38.483 58.066a2587 2587 0 0 1-34.99 50.332l-31.321 3.09c1.04-2.12 1.406-3.924.937-5.543-.501-1.69-1.553-3.02-3.673-3.995-2.235-1.009-5.363-1.761-9.538-2.12-1.406-4.181-3.853-8.139-7.058-12.281-3.384-4.175-7.379-8.133-12.568-12.275 1.913-4.279 3.134-7.484 3.68-10.15.539-2.626.283-4.463-.617-5.504 15.735-13.97 34.129-31.903 56.158-54.616 22.035-22.931 53.106-56.698 74.88-81.036 21.604-24.37 38.232-44.532 54.326-63.822 15.947-19.333 28.046-34.671 41.437-51.018 13.358-16.341 25.31-30.813 38.336-46.33 13.037-15.808 30.243-34.918 38.99-46.653 8.464-11.632 10.655-16.565 12.28-22.719 1.65-6.224.79-10.983-2.448-14.4 7.342-2.84 12.813-6.732 16.558-11.665 3.673-5.042 5.613-10.945 5.69-18.113Zm0 0" style="fill-rule:nonzero;fill:#fff;fill-opacity:1;stroke-width:.036;stroke-linecap:butt;stroke-linejoin:miter;stroke:#000;stroke-opacity:1;stroke-miterlimit:10" transform="matrix(.71673 0 0 .71665 .039 .072)"/><path d="M476.933 218.608c3.641 3.494 6.05 7.31 7.385 11.991 1.26 4.535 3.527 5.435.284 15.333-3.347 9.904-8.279 21.132-20.231 43.562-12.236 22.5-37.115 64.836-51.585 89.925-14.514 24.806-17.026 28.371-34.347 58.323-17.424 30.06-50.255 86.65-69.047 120.062-18.792 33.156-32.94 58.573-42.985 77.612-2.48-.392-4.682-.032-6.731.938-2.088.975-3.891 2.562-5.543 4.9-4.464-1.336-8.06-1.842-11.342-1.515-3.275.18-5.466 1.259-7.99 3.379-2.588 2.126-5.04 5.293-7.346 9.506-5.325-.649-9.429-.894-12.884-.61-3.385.147-5.003.109-7.38 2.125-2.523 1.94-5.074 5.222-7.668 9.828l-8.279.321c21.452-29.373 41.612-58.207 61.995-87.766 20.264-29.74 40.822-61.926 58.605-88.383 17.566-26.49 28.58-42.979 46.653-68.755 18.105-25.962 46.043-63.005 61.058-84.747 14.688-21.672 20.23-31.827 27.61-44.21 7.347-12.418 12.312-21.166 16.563-29.446 4.027-8.285 6.475-12.89 8.606-19.944 2.152-7.13 3.738-14.471 4.6-22.43Zm0 0" style="fill-rule:nonzero;fill:#fff;fill-opacity:1;stroke-width:.036;stroke-linecap:butt;stroke-linejoin:miter;stroke:#000;stroke-opacity:1;stroke-miterlimit:10" transform="matrix(.71673 0 0 .71665 .039 .072)"/><path d="M133.059 58.123h2.878V637.22h-2.878ZM147.464 59.562h2.872v564.702h-2.872ZM161.863 64.959h2.877v543.068h-2.877ZM176.262 72.524h2.878v518.578h-2.878ZM190.661 84.76h2.878v489.783h-2.878ZM205.06 103.876h2.883v454.102h-2.883ZM219.46 129.44h2.883v409.788h-2.883ZM233.859 162.226h2.883v360.432h-2.883ZM248.263 196.07h2.878v309.669h-2.878ZM262.663 220.189h2.877V488.46h-2.877ZM277.062 238.23h2.877v233.638h-2.877ZM291.46 247.949h2.879V453.51h-2.878ZM305.86 254.43h2.883V437.31h-2.883ZM320.26 258.027h2.882v162.365h-2.883ZM334.658 257.308h2.884V403.43h-2.884ZM349.058 255.15h2.883V385.43h-2.883ZM363.457 250.473h2.883v116.595h-2.883ZM377.861 244.346h2.878V349.43h-2.878ZM392.26 236.791h2.878v96.047h-2.877ZM406.66 229.95h2.877v85.61h-2.877Zm0 0" style="fill-rule:nonzero;fill:#ff6d4d;fill-opacity:1;stroke-width:.036;stroke-linecap:butt;stroke-linejoin:miter;stroke:#000;stroke-opacity:1;stroke-miterlimit:10" transform="matrix(.71673 0 0 .71665 .039 .072)"/><path d="M129.68 56.505c0 2.082 2.017 3.777 4.502 3.777 2.518 0 4.534-1.695 4.534-3.777 0-2.088-2.016-3.783-4.534-3.783-2.485 0-4.502 1.695-4.502 3.783Zm0 0" style="fill-rule:nonzero;fill:#ff6d4d;fill-opacity:1;stroke-width:.036;stroke-linecap:butt;stroke-linejoin:miter;stroke:#000;stroke-opacity:1;stroke-miterlimit:10" transform="matrix(.71673 0 0 .71665 .039 .072)"/><path d="M131.479 56.145c0 1.079 1.046 1.94 2.338 1.94 1.297 0 2.381-.861 2.381-1.94 0-1.118-1.084-1.984-2.381-1.984-1.292 0-2.338.866-2.338 1.984Zm0 0" style="fill-rule:nonzero;fill:#fff;fill-opacity:1;stroke-width:.036;stroke-linecap:butt;stroke-linejoin:miter;stroke:#000;stroke-opacity:1;stroke-miterlimit:10" transform="matrix(.71673 0 0 .71665 .039 .072)"/><path d="M144.085 60.102c0 2.088 2.01 3.777 4.496 3.777 2.518 0 4.534-1.69 4.534-3.777s-2.016-3.777-4.534-3.777c-2.485 0-4.496 1.69-4.496 3.777Zm0 0" style="fill-rule:nonzero;fill:#ff6d4d;fill-opacity:1;stroke-width:.036;stroke-linecap:butt;stroke-linejoin:miter;stroke:#000;stroke-opacity:1;stroke-miterlimit:10" transform="matrix(.71673 0 0 .71665 .039 .072)"/><path d="M145.878 59.742c0 1.08 1.046 1.946 2.343 1.946s2.376-.867 2.376-1.946c0-1.117-1.079-1.978-2.376-1.978s-2.343.86-2.343 1.978Zm0 0" style="fill-rule:nonzero;fill:#fff;fill-opacity:1;stroke-width:.036;stroke-linecap:butt;stroke-linejoin:miter;stroke:#000;stroke-opacity:1;stroke-miterlimit:10" transform="matrix(.71673 0 0 .71665 .039 .072)"/><path d="M158.484 65.863c0 2.088 2.01 3.778 4.496 3.778 2.518 0 4.535-1.69 4.535-3.778s-2.017-3.782-4.535-3.782c-2.485 0-4.496 1.695-4.496 3.782Zm0 0" style="fill-rule:nonzero;fill:#ff6d4d;fill-opacity:1;stroke-width:.036;stroke-linecap:butt;stroke-linejoin:miter;stroke:#000;stroke-opacity:1;stroke-miterlimit:10" transform="matrix(.71673 0 0 .71665 .039 .072)"/><path d="M160.277 65.498c0 1.085 1.046 1.984 2.343 1.984 1.298 0 2.377-.9 2.377-1.984 0-1.08-1.08-1.978-2.377-1.978s-2.343.899-2.343 1.978Zm0 0" style="fill-rule:nonzero;fill:#fff;fill-opacity:1;stroke-width:.036;stroke-linecap:butt;stroke-linejoin:miter;stroke:#000;stroke-opacity:1;stroke-miterlimit:10" transform="matrix(.71673 0 0 .71665 .039 .072)"/><path d="M172.883 73.064c0 2.087 2.011 3.777 4.496 3.777 2.518 0 4.54-1.69 4.54-3.777s-2.022-3.783-4.54-3.783c-2.485 0-4.496 1.695-4.496 3.783Zm0 0" style="fill-rule:nonzero;fill:#ff6d4d;fill-opacity:1;stroke-width:.036;stroke-linecap:butt;stroke-linejoin:miter;stroke:#000;stroke-opacity:1;stroke-miterlimit:10" transform="matrix(.71673 0 0 .71665 .039 .072)"/><path d="M174.676 72.704c0 1.08 1.052 1.979 2.344 1.979 1.297 0 2.376-.9 2.376-1.98 0-1.078-1.08-1.983-2.376-1.983-1.292 0-2.344.905-2.344 1.984Zm0 0" style="fill-rule:nonzero;fill:#fff;fill-opacity:1;stroke-width:.036;stroke-linecap:butt;stroke-linejoin:miter;stroke:#000;stroke-opacity:1;stroke-miterlimit:10" transform="matrix(.71673 0 0 .71665 .039 .072)"/><path d="M187.282 86.385c0 2.082 2.011 3.81 4.496 3.81 2.524 0 4.54-1.728 4.54-3.81 0-2.087-2.016-3.783-4.54-3.783-2.485 0-4.496 1.696-4.496 3.783Zm0 0" style="fill-rule:nonzero;fill:#ff6d4d;fill-opacity:1;stroke-width:.036;stroke-linecap:butt;stroke-linejoin:miter;stroke:#000;stroke-opacity:1;stroke-miterlimit:10" transform="matrix(.71673 0 0 .71665 .039 .072)"/><path d="M189.08 86.025c0 1.08 1.047 1.979 2.339 1.979 1.297 0 2.376-.9 2.376-1.979 0-1.084-1.08-1.945-2.376-1.945-1.292 0-2.338.86-2.338 1.945Zm0 0" style="fill-rule:nonzero;fill:#fff;fill-opacity:1;stroke-width:.036;stroke-linecap:butt;stroke-linejoin:miter;stroke:#000;stroke-opacity:1;stroke-miterlimit:10" transform="matrix(.71673 0 0 .71665 .039 .072)"/><path d="M201.681 105.141c0 2.088 2.011 3.777 4.497 3.777 2.523 0 4.54-1.69 4.54-3.777s-2.017-3.783-4.54-3.783c-2.486 0-4.497 1.695-4.497 3.783Zm0 0" style="fill-rule:nonzero;fill:#ff6d4d;fill-opacity:1;stroke-width:.036;stroke-linecap:butt;stroke-linejoin:miter;stroke:#000;stroke-opacity:1;stroke-miterlimit:10" transform="matrix(.71673 0 0 .71665 .039 .072)"/><path d="M203.48 104.743c0 1.112 1.046 1.979 2.338 1.979 1.297 0 2.376-.867 2.376-1.979 0-1.08-1.079-1.946-2.376-1.946-1.292 0-2.338.867-2.338 1.946Zm0 0" style="fill-rule:nonzero;fill:#fff;fill-opacity:1;stroke-width:.036;stroke-linecap:butt;stroke-linejoin:miter;stroke:#000;stroke-opacity:1;stroke-miterlimit:10" transform="matrix(.71673 0 0 .71665 .039 .072)"/><path d="M216.08 129.98c0 2.087 2.017 3.777 4.497 3.777 2.523 0 4.54-1.69 4.54-3.777s-2.017-3.778-4.54-3.778c-2.48 0-4.497 1.69-4.497 3.778Zm0 0" style="fill-rule:nonzero;fill:#ff6d4d;fill-opacity:1;stroke-width:.036;stroke-linecap:butt;stroke-linejoin:miter;stroke:#000;stroke-opacity:1;stroke-miterlimit:10" transform="matrix(.71673 0 0 .71665 .039 .072)"/><path d="M217.879 129.62c0 1.08 1.046 1.979 2.338 1.979 1.297 0 2.376-.9 2.376-1.979s-1.079-1.979-2.376-1.979c-1.292 0-2.338.9-2.338 1.979Zm0 0" style="fill-rule:nonzero;fill:#fff;fill-opacity:1;stroke-width:.036;stroke-linecap:butt;stroke-linejoin:miter;stroke:#000;stroke-opacity:1;stroke-miterlimit:10" transform="matrix(.71673 0 0 .71665 .039 .072)"/><path d="M230.48 164.21c0 2.088 2.016 3.777 4.496 3.777 2.523 0 4.54-1.69 4.54-3.777s-2.017-3.777-4.54-3.777c-2.48 0-4.496 1.69-4.496 3.777Zm0 0" style="fill-rule:nonzero;fill:#ff6d4d;fill-opacity:1;stroke-width:.036;stroke-linecap:butt;stroke-linejoin:miter;stroke:#000;stroke-opacity:1;stroke-miterlimit:10" transform="matrix(.71673 0 0 .71665 .039 .072)"/><path d="M232.284 163.818c0 1.117 1.04 1.978 2.338 1.978 1.291 0 2.376-.861 2.376-1.978 0-1.08-1.085-1.946-2.376-1.946-1.297 0-2.338.866-2.338 1.946Zm0 0" style="fill-rule:nonzero;fill:#fff;fill-opacity:1;stroke-width:.036;stroke-linecap:butt;stroke-linejoin:miter;stroke:#000;stroke-opacity:1;stroke-miterlimit:10" transform="matrix(.71673 0 0 .71665 .039 .072)"/><path d="M244.879 196.609c0 2.087 2.016 3.783 4.502 3.783 2.523 0 4.534-1.696 4.534-3.783 0-2.088-2.016-3.783-4.534-3.783-2.486 0-4.502 1.695-4.502 3.783Zm0 0" style="fill-rule:nonzero;fill:#ff6d4d;fill-opacity:1;stroke-width:.036;stroke-linecap:butt;stroke-linejoin:miter;stroke:#000;stroke-opacity:1;stroke-miterlimit:10" transform="matrix(.71673 0 0 .71665 .039 .072)"/><path d="M246.683 196.255c0 1.079 1.04 1.978 2.338 1.978 1.297 0 2.376-.9 2.376-1.978 0-1.08-1.079-1.979-2.376-1.979s-2.338.9-2.338 1.979Zm0 0" style="fill-rule:nonzero;fill:#fff;fill-opacity:1;stroke-width:.036;stroke-linecap:butt;stroke-linejoin:miter;stroke:#000;stroke-opacity:1;stroke-miterlimit:10" transform="matrix(.71673 0 0 .71665 .039 .072)"/><path d="M259.278 220.052c0 2.082 2.022 3.778 4.502 3.778 2.523 0 4.534-1.696 4.534-3.778 0-2.125-2.016-3.82-4.534-3.82-2.485 0-4.502 1.695-4.502 3.82Zm0 0" style="fill-rule:nonzero;fill:#ff6d4d;fill-opacity:1;stroke-width:.036;stroke-linecap:butt;stroke-linejoin:miter;stroke:#000;stroke-opacity:1;stroke-miterlimit:10" transform="matrix(.71673 0 0 .71665 .039 .072)"/><path d="M261.082 219.654c0 1.08 1.041 1.979 2.338 1.979s2.376-.9 2.376-1.979-1.079-1.946-2.376-1.946-2.338.867-2.338 1.946Zm0 0" style="fill-rule:nonzero;fill:#fff;fill-opacity:1;stroke-width:.036;stroke-linecap:butt;stroke-linejoin:miter;stroke:#000;stroke-opacity:1;stroke-miterlimit:10" transform="matrix(.71673 0 0 .71665 .039 .072)"/><path d="M273.683 238.41c0 2.088 2.016 3.778 4.496 3.778 2.518 0 4.534-1.69 4.534-3.778s-2.016-3.777-4.534-3.777c-2.48 0-4.496 1.69-4.496 3.777Zm0 0" style="fill-rule:nonzero;fill:#ff6d4d;fill-opacity:1;stroke-width:.036;stroke-linecap:butt;stroke-linejoin:miter;stroke:#000;stroke-opacity:1;stroke-miterlimit:10" transform="matrix(.71673 0 0 .71665 .039 .072)"/><path d="M275.481 238.012c0 1.118 1.041 1.984 2.338 1.984s2.377-.866 2.377-1.984c0-1.079-1.08-1.94-2.377-1.94s-2.338.861-2.338 1.94Zm0 0" style="fill-rule:nonzero;fill:#fff;fill-opacity:1;stroke-width:.036;stroke-linecap:butt;stroke-linejoin:miter;stroke:#000;stroke-opacity:1;stroke-miterlimit:10" transform="matrix(.71673 0 0 .71665 .039 .072)"/><path d="M288.082 247.769c0 2.088 2.016 3.783 4.502 3.783 2.518 0 4.534-1.695 4.534-3.783s-2.022-3.783-4.534-3.783c-2.491 0-4.502 1.695-4.502 3.783Zm0 0" style="fill-rule:nonzero;fill:#ff6d4d;fill-opacity:1;stroke-width:.036;stroke-linecap:butt;stroke-linejoin:miter;stroke:#000;stroke-opacity:1;stroke-miterlimit:10" transform="matrix(.71673 0 0 .71665 .039 .072)"/><path d="M289.88 247.41c0 1.078 1.047 1.945 2.344 1.945 1.292 0 2.37-.867 2.37-1.946 0-1.117-1.078-1.978-2.37-1.978-1.297 0-2.344.86-2.344 1.978Zm0 0" style="fill-rule:nonzero;fill:#fff;fill-opacity:1;stroke-width:.036;stroke-linecap:butt;stroke-linejoin:miter;stroke:#000;stroke-opacity:1;stroke-miterlimit:10" transform="matrix(.71673 0 0 .71665 .039 .072)"/><path d="M302.481 255.689c0 2.093 2.017 3.777 4.502 3.777 2.518 0 4.534-1.684 4.534-3.777 0-2.088-2.022-3.777-4.534-3.777-2.485 0-4.502 1.69-4.502 3.777Zm0 0" style="fill-rule:nonzero;fill:#ff6d4d;fill-opacity:1;stroke-width:.036;stroke-linecap:butt;stroke-linejoin:miter;stroke:#000;stroke-opacity:1;stroke-miterlimit:10" transform="matrix(.71673 0 0 .71665 .039 .072)"/><path d="M304.28 255.33c0 1.078 1.046 1.945 2.343 1.945s2.376-.867 2.376-1.946c0-1.112-1.079-1.978-2.376-1.978s-2.343.866-2.343 1.978Zm0 0" style="fill-rule:nonzero;fill:#fff;fill-opacity:1;stroke-width:.036;stroke-linecap:butt;stroke-linejoin:miter;stroke:#000;stroke-opacity:1;stroke-miterlimit:10" transform="matrix(.71673 0 0 .71665 .039 .072)"/><path d="M316.88 258.207c0 2.093 2.017 3.783 4.502 3.783 2.518 0 4.534-1.69 4.534-3.783 0-2.088-2.016-3.777-4.534-3.777-2.485 0-4.502 1.69-4.502 3.777Zm0 0" style="fill-rule:nonzero;fill:#ff6d4d;fill-opacity:1;stroke-width:.036;stroke-linecap:butt;stroke-linejoin:miter;stroke:#000;stroke-opacity:1;stroke-miterlimit:10" transform="matrix(.71673 0 0 .71665 .039 .072)"/><path d="M318.679 257.847c0 1.08 1.046 1.946 2.343 1.946s2.377-.866 2.377-1.946c0-1.112-1.08-1.978-2.377-1.978s-2.343.866-2.343 1.978Zm0 0" style="fill-rule:nonzero;fill:#fff;fill-opacity:1;stroke-width:.036;stroke-linecap:butt;stroke-linejoin:miter;stroke:#000;stroke-opacity:1;stroke-miterlimit:10" transform="matrix(.71673 0 0 .71665 .039 .072)"/><path d="M331.28 256.408c0 2.093 2.016 3.783 4.501 3.783 2.518 0 4.54-1.69 4.54-3.783 0-2.087-2.022-3.777-4.54-3.777-2.49 0-4.502 1.69-4.502 3.777Zm0 0" style="fill-rule:nonzero;fill:#ff6d4d;fill-opacity:1;stroke-width:.036;stroke-linecap:butt;stroke-linejoin:miter;stroke:#000;stroke-opacity:1;stroke-miterlimit:10" transform="matrix(.71673 0 0 .71665 .039 .072)"/><path d="M333.078 256.049c0 1.079 1.046 1.945 2.343 1.945 1.298 0 2.377-.866 2.377-1.945 0-1.112-1.08-1.979-2.377-1.979s-2.343.867-2.343 1.979Zm0 0" style="fill-rule:nonzero;fill:#fff;fill-opacity:1;stroke-width:.036;stroke-linecap:butt;stroke-linejoin:miter;stroke:#000;stroke-opacity:1;stroke-miterlimit:10" transform="matrix(.71673 0 0 .71665 .039 .072)"/><path d="M345.679 254.97c0 2.087 2.016 3.777 4.501 3.777 2.524 0 4.535-1.69 4.535-3.778s-2.017-3.777-4.535-3.777c-2.485 0-4.501 1.69-4.501 3.777Zm0 0" style="fill-rule:nonzero;fill:#ff6d4d;fill-opacity:1;stroke-width:.036;stroke-linecap:butt;stroke-linejoin:miter;stroke:#000;stroke-opacity:1;stroke-miterlimit:10" transform="matrix(.71673 0 0 .71665 .039 .072)"/><path d="M347.483 254.61c0 1.079 1.04 1.946 2.338 1.946 1.297 0 2.37-.867 2.37-1.946 0-1.118-1.073-1.979-2.37-1.979s-2.338.861-2.338 1.979Zm0 0" style="fill-rule:nonzero;fill:#fff;fill-opacity:1;stroke-width:.036;stroke-linecap:butt;stroke-linejoin:miter;stroke:#000;stroke-opacity:1;stroke-miterlimit:10" transform="matrix(.71673 0 0 .71665 .039 .072)"/><path d="M360.078 250.293c0 2.082 2.016 3.777 4.502 3.777 2.523 0 4.534-1.695 4.534-3.777 0-2.088-2.017-3.783-4.534-3.783-2.486 0-4.502 1.695-4.502 3.783Zm0 0" style="fill-rule:nonzero;fill:#ff6d4d;fill-opacity:1;stroke-width:.036;stroke-linecap:butt;stroke-linejoin:miter;stroke:#000;stroke-opacity:1;stroke-miterlimit:10" transform="matrix(.71673 0 0 .71665 .039 .072)"/><path d="M361.882 249.933c0 1.08 1.04 1.94 2.338 1.94 1.297 0 2.376-.86 2.376-1.94 0-1.117-1.08-1.984-2.376-1.984-1.297 0-2.338.867-2.338 1.984Zm0 0" style="fill-rule:nonzero;fill:#fff;fill-opacity:1;stroke-width:.036;stroke-linecap:butt;stroke-linejoin:miter;stroke:#000;stroke-opacity:1;stroke-miterlimit:10" transform="matrix(.71673 0 0 .71665 .039 .072)"/><path d="M374.477 245.25c0 2.088 2.022 3.778 4.502 3.778 2.523 0 4.534-1.69 4.534-3.777s-2.016-3.783-4.534-3.783c-2.48 0-4.502 1.695-4.502 3.783Zm0 0" style="fill-rule:nonzero;fill:#ff6d4d;fill-opacity:1;stroke-width:.036;stroke-linecap:butt;stroke-linejoin:miter;stroke:#000;stroke-opacity:1;stroke-miterlimit:10" transform="matrix(.71673 0 0 .71665 .039 .072)"/><path d="M376.28 244.891c0 1.08 1.042 1.94 2.339 1.94s2.376-.86 2.376-1.94c0-1.117-1.079-1.984-2.376-1.984s-2.338.867-2.338 1.984Zm0 0" style="fill-rule:nonzero;fill:#fff;fill-opacity:1;stroke-width:.036;stroke-linecap:butt;stroke-linejoin:miter;stroke:#000;stroke-opacity:1;stroke-miterlimit:10" transform="matrix(.71673 0 0 .71665 .039 .072)"/><path d="M388.882 236.252c0 2.087 2.016 3.777 4.496 3.777 2.523 0 4.54-1.69 4.54-3.777s-2.017-3.783-4.54-3.783c-2.48 0-4.496 1.695-4.496 3.783Zm0 0" style="fill-rule:nonzero;fill:#ff6d4d;fill-opacity:1;stroke-width:.036;stroke-linecap:butt;stroke-linejoin:miter;stroke:#000;stroke-opacity:1;stroke-miterlimit:10" transform="matrix(.71673 0 0 .71665 .039 .072)"/><path d="M390.68 235.854c0 1.117 1.041 1.978 2.338 1.978s2.382-.86 2.382-1.978c0-1.08-1.085-1.946-2.382-1.946s-2.338.867-2.338 1.946Zm0 0" style="fill-rule:nonzero;fill:#fff;fill-opacity:1;stroke-width:.036;stroke-linecap:butt;stroke-linejoin:miter;stroke:#000;stroke-opacity:1;stroke-miterlimit:10" transform="matrix(.71673 0 0 .71665 .039 .072)"/><path d="M403.28 230.13c0 2.088 2.017 3.778 4.502 3.778 2.518 0 4.535-1.69 4.535-3.777s-2.017-3.783-4.535-3.783c-2.485 0-4.501 1.695-4.501 3.783Zm0 0" style="fill-rule:nonzero;fill:#ff6d4d;fill-opacity:1;stroke-width:.036;stroke-linecap:butt;stroke-linejoin:miter;stroke:#000;stroke-opacity:1;stroke-miterlimit:10" transform="matrix(.71673 0 0 .71665 .039 .072)"/><path d="M405.08 229.733c0 1.079 1.04 1.978 2.343 1.978 1.297 0 2.376-.9 2.376-1.978 0-1.08-1.08-1.946-2.376-1.946-1.303 0-2.344.866-2.344 1.946Zm0 0" style="fill-rule:nonzero;fill:#fff;fill-opacity:1;stroke-width:.036;stroke-linecap:butt;stroke-linejoin:miter;stroke:#000;stroke-opacity:1;stroke-miterlimit:10" transform="matrix(.71673 0 0 .71665 .039 .072)"/><path d="M129.68 635.989c0 1.439 2.017 2.627 4.502 2.627 2.518 0 4.534-1.188 4.534-2.627 0-1.478-2.016-2.628-4.534-2.628-2.485 0-4.502 1.156-4.502 2.628Zm0 0" style="fill-rule:nonzero;fill:#ff6d4d;fill-opacity:1;stroke-width:.036;stroke-linecap:butt;stroke-linejoin:miter;stroke:#000;stroke-opacity:1;stroke-miterlimit:10" transform="matrix(.71673 0 0 .71665 .039 .072)"/><path d="M131.479 635.743c0 .752 1.046 1.363 2.338 1.363 1.297 0 2.381-.61 2.381-1.363 0-.757-1.084-1.368-2.381-1.368-1.292 0-2.338.61-2.338 1.368Zm0 0" style="fill-rule:nonzero;fill:#fff;fill-opacity:1;stroke-width:.036;stroke-linecap:butt;stroke-linejoin:miter;stroke:#000;stroke-opacity:1;stroke-miterlimit:10" transform="matrix(.71673 0 0 .71665 .039 .072)"/><path d="M144.085 624.826c0 1.444 2.01 2.632 4.496 2.632 2.518 0 4.534-1.188 4.534-2.632 0-1.472-2.016-2.628-4.534-2.628-2.485 0-4.496 1.156-4.496 2.628Zm0 0" style="fill-rule:nonzero;fill:#ff6d4d;fill-opacity:1;stroke-width:.036;stroke-linecap:butt;stroke-linejoin:miter;stroke:#000;stroke-opacity:1;stroke-miterlimit:10" transform="matrix(.71673 0 0 .71665 .039 .072)"/><path d="M145.878 624.58c0 .758 1.046 1.368 2.343 1.368s2.376-.61 2.376-1.368c0-.752-1.079-1.406-2.376-1.406s-2.343.654-2.343 1.406Zm0 0" style="fill-rule:nonzero;fill:#fff;fill-opacity:1;stroke-width:.036;stroke-linecap:butt;stroke-linejoin:miter;stroke:#000;stroke-opacity:1;stroke-miterlimit:10" transform="matrix(.71673 0 0 .71665 .039 .072)"/><path d="M158.484 608.642c0 1.44 2.01 2.622 4.496 2.622 2.518 0 4.535-1.183 4.535-2.622 0-1.482-2.017-2.665-4.535-2.665-2.485 0-4.496 1.183-4.496 2.665Zm0 0" style="fill-rule:nonzero;fill:#ff6d4d;fill-opacity:1;stroke-width:.036;stroke-linecap:butt;stroke-linejoin:miter;stroke:#000;stroke-opacity:1;stroke-miterlimit:10" transform="matrix(.71673 0 0 .71665 .039 .072)"/><path d="M160.277 608.348c0 .758 1.046 1.4 2.343 1.4 1.298 0 2.377-.642 2.377-1.4s-1.08-1.368-2.377-1.368-2.343.61-2.343 1.368Zm0 0" style="fill-rule:nonzero;fill:#fff;fill-opacity:1;stroke-width:.036;stroke-linecap:butt;stroke-linejoin:miter;stroke:#000;stroke-opacity:1;stroke-miterlimit:10" transform="matrix(.71673 0 0 .71665 .039 .072)"/><path d="M172.883 592.4c0 1.477 2.011 2.665 4.496 2.665 2.518 0 4.54-1.188 4.54-2.666 0-1.439-2.022-2.632-4.54-2.632-2.485.005-4.496 1.193-4.496 2.632Zm0 0" style="fill-rule:nonzero;fill:#ff6d4d;fill-opacity:1;stroke-width:.036;stroke-linecap:butt;stroke-linejoin:miter;stroke:#000;stroke-opacity:1;stroke-miterlimit:10" transform="matrix(.71673 0 0 .71665 .039 .072)"/><path d="M174.676 592.149c0 .752 1.052 1.362 2.344 1.362 1.297 0 2.376-.605 2.376-1.362s-1.08-1.368-2.376-1.368c-1.292 0-2.344.61-2.344 1.368Zm0 0" style="fill-rule:nonzero;fill:#fff;fill-opacity:1;stroke-width:.036;stroke-linecap:butt;stroke-linejoin:miter;stroke:#000;stroke-opacity:1;stroke-miterlimit:10" transform="matrix(.71673 0 0 .71665 .039 .072)"/><path d="M187.282 575.48c0 1.472 2.011 2.628 4.496 2.628 2.524 0 4.54-1.156 4.54-2.628 0-1.438-2.016-2.632-4.54-2.632-2.485 0-4.496 1.194-4.496 2.632Zm0 0" style="fill-rule:nonzero;fill:#ff6d4d;fill-opacity:1;stroke-width:.036;stroke-linecap:butt;stroke-linejoin:miter;stroke:#000;stroke-opacity:1;stroke-miterlimit:10" transform="matrix(.71673 0 0 .71665 .039 .072)"/><path d="M189.08 575.224c0 .763 1.047 1.368 2.339 1.368 1.297 0 2.376-.605 2.376-1.368 0-.757-1.08-1.362-2.376-1.362-1.292 0-2.338.605-2.338 1.362Zm0 0" style="fill-rule:nonzero;fill:#fff;fill-opacity:1;stroke-width:.036;stroke-linecap:butt;stroke-linejoin:miter;stroke:#000;stroke-opacity:1;stroke-miterlimit:10" transform="matrix(.71673 0 0 .71665 .039 .072)"/><path d="M201.681 558.562c0 1.439 2.011 2.627 4.497 2.627 2.523 0 4.54-1.188 4.54-2.627 0-1.478-2.017-2.628-4.54-2.628-2.486 0-4.497 1.15-4.497 2.628Zm0 0" style="fill-rule:nonzero;fill:#ff6d4d;fill-opacity:1;stroke-width:.036;stroke-linecap:butt;stroke-linejoin:miter;stroke:#000;stroke-opacity:1;stroke-miterlimit:10" transform="matrix(.71673 0 0 .71665 .039 .072)"/><path d="M203.48 558.305c0 .758 1.046 1.369 2.338 1.369 1.297 0 2.376-.611 2.376-1.369 0-.752-1.079-1.4-2.376-1.4-1.292 0-2.338.648-2.338 1.4Zm0 0" style="fill-rule:nonzero;fill:#fff;fill-opacity:1;stroke-width:.036;stroke-linecap:butt;stroke-linejoin:miter;stroke:#000;stroke-opacity:1;stroke-miterlimit:10" transform="matrix(.71673 0 0 .71665 .039 .072)"/><path d="M216.08 538.361c0 1.472 2.017 2.666 4.497 2.666 2.523 0 4.54-1.194 4.54-2.666 0-1.439-2.017-2.632-4.54-2.632-2.48 0-4.497 1.193-4.497 2.632Zm0 0" style="fill-rule:nonzero;fill:#ff6d4d;fill-opacity:1;stroke-width:.036;stroke-linecap:butt;stroke-linejoin:miter;stroke:#000;stroke-opacity:1;stroke-miterlimit:10" transform="matrix(.71673 0 0 .71665 .039 .072)"/><path d="M217.879 538.11c0 .758 1.046 1.369 2.338 1.369 1.297 0 2.376-.61 2.376-1.368s-1.079-1.369-2.376-1.369c-1.292 0-2.338.611-2.338 1.369Zm0 0" style="fill-rule:nonzero;fill:#fff;fill-opacity:1;stroke-width:.036;stroke-linecap:butt;stroke-linejoin:miter;stroke:#000;stroke-opacity:1;stroke-miterlimit:10" transform="matrix(.71673 0 0 .71665 .039 .072)"/><path d="M230.48 522.881c0 1.472 2.016 2.666 4.496 2.666 2.523 0 4.54-1.194 4.54-2.666 0-1.439-2.017-2.632-4.54-2.632-2.48 0-4.496 1.188-4.496 2.632Zm0 0" style="fill-rule:nonzero;fill:#ff6d4d;fill-opacity:1;stroke-width:.036;stroke-linecap:butt;stroke-linejoin:miter;stroke:#000;stroke-opacity:1;stroke-miterlimit:10" transform="matrix(.71673 0 0 .71665 .039 .072)"/><path d="M232.284 522.63c0 .758 1.04 1.369 2.338 1.369 1.291 0 2.376-.61 2.376-1.368s-1.085-1.368-2.376-1.368c-1.297 0-2.338.61-2.338 1.368Zm0 0" style="fill-rule:nonzero;fill:#fff;fill-opacity:1;stroke-width:.036;stroke-linecap:butt;stroke-linejoin:miter;stroke:#000;stroke-opacity:1;stroke-miterlimit:10" transform="matrix(.71673 0 0 .71665 .039 .072)"/><path d="M244.879 506.322c0 1.44 2.016 2.622 4.502 2.622 2.523 0 4.534-1.183 4.534-2.622s-2.016-2.627-4.534-2.627c-2.486 0-4.502 1.188-4.502 2.627Zm0 0" style="fill-rule:nonzero;fill:#ff6d4d;fill-opacity:1;stroke-width:.036;stroke-linecap:butt;stroke-linejoin:miter;stroke:#000;stroke-opacity:1;stroke-miterlimit:10" transform="matrix(.71673 0 0 .71665 .039 .072)"/><path d="M246.683 506.071c0 .758 1.04 1.363 2.338 1.363 1.297 0 2.376-.605 2.376-1.363 0-.757-1.079-1.368-2.376-1.368s-2.338.61-2.338 1.368Zm0 0" style="fill-rule:nonzero;fill:#fff;fill-opacity:1;stroke-width:.036;stroke-linecap:butt;stroke-linejoin:miter;stroke:#000;stroke-opacity:1;stroke-miterlimit:10" transform="matrix(.71673 0 0 .71665 .039 .072)"/><path d="M259.278 488.319c0 1.439 2.022 2.627 4.502 2.627 2.523 0 4.534-1.188 4.534-2.627 0-1.478-2.016-2.666-4.534-2.666-2.485 0-4.502 1.188-4.502 2.666Zm0 0" style="fill-rule:nonzero;fill:#ff6d4d;fill-opacity:1;stroke-width:.036;stroke-linecap:butt;stroke-linejoin:miter;stroke:#000;stroke-opacity:1;stroke-miterlimit:10" transform="matrix(.71673 0 0 .71665 .039 .072)"/><path d="M261.082 488.068c0 .758 1.041 1.368 2.338 1.368s2.376-.61 2.376-1.368c0-.79-1.079-1.401-2.376-1.401s-2.338.61-2.338 1.4Zm0 0" style="fill-rule:nonzero;fill:#fff;fill-opacity:1;stroke-width:.036;stroke-linecap:butt;stroke-linejoin:miter;stroke:#000;stroke-opacity:1;stroke-miterlimit:10" transform="matrix(.71673 0 0 .71665 .039 .072)"/><path d="M273.683 472.44c0 1.478 2.016 2.666 4.496 2.666 2.518 0 4.534-1.194 4.534-2.665 0-1.44-2.016-2.627-4.534-2.627-2.48 0-4.496 1.188-4.496 2.627Zm0 0" style="fill-rule:nonzero;fill:#ff6d4d;fill-opacity:1;stroke-width:.036;stroke-linecap:butt;stroke-linejoin:miter;stroke:#000;stroke-opacity:1;stroke-miterlimit:10" transform="matrix(.71673 0 0 .71665 .039 .072)"/><path d="M275.481 472.195c0 .753 1.041 1.369 2.338 1.369s2.377-.616 2.377-1.369c0-.757-1.08-1.373-2.377-1.373s-2.338.616-2.338 1.373Zm0 0" style="fill-rule:nonzero;fill:#fff;fill-opacity:1;stroke-width:.036;stroke-linecap:butt;stroke-linejoin:miter;stroke:#000;stroke-opacity:1;stroke-miterlimit:10" transform="matrix(.71673 0 0 .71665 .039 .072)"/><path d="M288.082 455.168c0 1.482 2.016 2.665 4.502 2.665 2.518 0 4.534-1.188 4.534-2.665 0-1.44-2.022-2.628-4.534-2.628-2.491 0-4.502 1.189-4.502 2.628Zm0 0" style="fill-rule:nonzero;fill:#ff6d4d;fill-opacity:1;stroke-width:.036;stroke-linecap:butt;stroke-linejoin:miter;stroke:#000;stroke-opacity:1;stroke-miterlimit:10" transform="matrix(.71673 0 0 .71665 .039 .072)"/><path d="M289.88 454.917c0 .757 1.047 1.362 2.344 1.362 1.292 0 2.37-.605 2.37-1.362s-1.078-1.368-2.37-1.368c-1.297 0-2.344.61-2.344 1.368Zm0 0" style="fill-rule:nonzero;fill:#fff;fill-opacity:1;stroke-width:.036;stroke-linecap:butt;stroke-linejoin:miter;stroke:#000;stroke-opacity:1;stroke-miterlimit:10" transform="matrix(.71673 0 0 .71665 .039 .072)"/><path d="M302.481 438.249c0 1.439 2.017 2.632 4.502 2.632 2.518 0 4.534-1.193 4.534-2.632 0-1.472-2.022-2.628-4.534-2.628-2.485 0-4.502 1.156-4.502 2.628Zm0 0" style="fill-rule:nonzero;fill:#ff6d4d;fill-opacity:1;stroke-width:.036;stroke-linecap:butt;stroke-linejoin:miter;stroke:#000;stroke-opacity:1;stroke-miterlimit:10" transform="matrix(.71673 0 0 .71665 .039 .072)"/><path d="M304.28 437.992c0 .758 1.046 1.369 2.343 1.369s2.376-.61 2.376-1.369c0-.757-1.079-1.362-2.376-1.362s-2.343.605-2.343 1.362Zm0 0" style="fill-rule:nonzero;fill:#fff;fill-opacity:1;stroke-width:.036;stroke-linecap:butt;stroke-linejoin:miter;stroke:#000;stroke-opacity:1;stroke-miterlimit:10" transform="matrix(.71673 0 0 .71665 .039 .072)"/><path d="M316.88 420.6c0 1.438 2.017 2.627 4.502 2.627 2.518 0 4.534-1.189 4.534-2.628 0-1.477-2.016-2.665-4.534-2.665-2.485 0-4.502 1.188-4.502 2.665Zm0 0" style="fill-rule:nonzero;fill:#ff6d4d;fill-opacity:1;stroke-width:.036;stroke-linecap:butt;stroke-linejoin:miter;stroke:#000;stroke-opacity:1;stroke-miterlimit:10" transform="matrix(.71673 0 0 .71665 .039 .072)"/><path d="M318.679 420.354c0 .758 1.046 1.368 2.343 1.368s2.377-.61 2.377-1.368c0-.79-1.08-1.406-2.377-1.406s-2.343.616-2.343 1.406Zm0 0" style="fill-rule:nonzero;fill:#fff;fill-opacity:1;stroke-width:.036;stroke-linecap:butt;stroke-linejoin:miter;stroke:#000;stroke-opacity:1;stroke-miterlimit:10" transform="matrix(.71673 0 0 .71665 .039 .072)"/><path d="M331.28 404.727c0 1.477 2.016 2.665 4.501 2.665 2.518 0 4.54-1.188 4.54-2.665 0-1.44-2.022-2.627-4.54-2.627-2.49 0-4.502 1.188-4.502 2.627Zm0 0" style="fill-rule:nonzero;fill:#ff6d4d;fill-opacity:1;stroke-width:.036;stroke-linecap:butt;stroke-linejoin:miter;stroke:#000;stroke-opacity:1;stroke-miterlimit:10" transform="matrix(.71673 0 0 .71665 .039 .072)"/><path d="M333.078 404.482c0 .752 1.046 1.362 2.343 1.362 1.298 0 2.377-.61 2.377-1.362 0-.758-1.08-1.374-2.377-1.374s-2.343.616-2.343 1.374Zm0 0" style="fill-rule:nonzero;fill:#fff;fill-opacity:1;stroke-width:.036;stroke-linecap:butt;stroke-linejoin:miter;stroke:#000;stroke-opacity:1;stroke-miterlimit:10" transform="matrix(.71673 0 0 .71665 .039 .072)"/><path d="M345.679 385.65c0 1.477 2.016 2.665 4.501 2.665 2.524 0 4.535-1.188 4.535-2.665 0-1.44-2.017-2.633-4.535-2.633-2.485 0-4.501 1.194-4.501 2.633Zm0 0" style="fill-rule:nonzero;fill:#ff6d4d;fill-opacity:1;stroke-width:.036;stroke-linecap:butt;stroke-linejoin:miter;stroke:#000;stroke-opacity:1;stroke-miterlimit:10" transform="matrix(.71673 0 0 .71665 .039 .072)"/><path d="M347.483 385.399c0 .757 1.04 1.362 2.338 1.362 1.297 0 2.37-.605 2.37-1.362s-1.073-1.368-2.37-1.368-2.338.61-2.338 1.368Zm0 0" style="fill-rule:nonzero;fill:#fff;fill-opacity:1;stroke-width:.036;stroke-linecap:butt;stroke-linejoin:miter;stroke:#000;stroke-opacity:1;stroke-miterlimit:10" transform="matrix(.71673 0 0 .71665 .039 .072)"/><path d="M360.078 366.572c0 1.44 2.016 2.627 4.502 2.627 2.523 0 4.534-1.188 4.534-2.627 0-1.482-2.017-2.627-4.534-2.627-2.486 0-4.502 1.15-4.502 2.627Zm0 0" style="fill-rule:nonzero;fill:#ff6d4d;fill-opacity:1;stroke-width:.036;stroke-linecap:butt;stroke-linejoin:miter;stroke:#000;stroke-opacity:1;stroke-miterlimit:10" transform="matrix(.71673 0 0 .71665 .039 .072)"/><path d="M361.882 366.316c0 .758 1.04 1.368 2.338 1.368 1.297 0 2.376-.61 2.376-1.368 0-.752-1.08-1.368-2.376-1.368-1.297 0-2.338.616-2.338 1.368Zm0 0" style="fill-rule:nonzero;fill:#fff;fill-opacity:1;stroke-width:.036;stroke-linecap:butt;stroke-linejoin:miter;stroke:#000;stroke-opacity:1;stroke-miterlimit:10" transform="matrix(.71673 0 0 .71665 .039 .072)"/><path d="M374.477 350.013c0 1.439 2.022 2.622 4.502 2.622 2.523 0 4.534-1.183 4.534-2.622 0-1.483-2.016-2.665-4.534-2.665-2.48 0-4.502 1.182-4.502 2.665Zm0 0" style="fill-rule:nonzero;fill:#ff6d4d;fill-opacity:1;stroke-width:.036;stroke-linecap:butt;stroke-linejoin:miter;stroke:#000;stroke-opacity:1;stroke-miterlimit:10" transform="matrix(.71673 0 0 .71665 .039 .072)"/><path d="M376.28 349.724c0 .79 1.042 1.406 2.339 1.406s2.376-.616 2.376-1.406c0-.758-1.079-1.374-2.376-1.374s-2.338.616-2.338 1.374Zm0 0" style="fill-rule:nonzero;fill:#fff;fill-opacity:1;stroke-width:.036;stroke-linecap:butt;stroke-linejoin:miter;stroke:#000;stroke-opacity:1;stroke-miterlimit:10" transform="matrix(.71673 0 0 .71665 .039 .072)"/><path d="M388.882 333.05c0 1.472 2.016 2.666 4.496 2.666 2.523 0 4.54-1.194 4.54-2.666 0-1.439-2.017-2.632-4.54-2.632-2.48 0-4.496 1.193-4.496 2.632Zm0 0" style="fill-rule:nonzero;fill:#ff6d4d;fill-opacity:1;stroke-width:.036;stroke-linecap:butt;stroke-linejoin:miter;stroke:#000;stroke-opacity:1;stroke-miterlimit:10" transform="matrix(.71673 0 0 .71665 .039 .072)"/><path d="M390.68 332.805c0 .752 1.041 1.363 2.338 1.363s2.382-.61 2.382-1.363c0-.758-1.085-1.373-2.382-1.373s-2.338.615-2.338 1.373Zm0 0" style="fill-rule:nonzero;fill:#fff;fill-opacity:1;stroke-width:.036;stroke-linecap:butt;stroke-linejoin:miter;stroke:#000;stroke-opacity:1;stroke-miterlimit:10" transform="matrix(.71673 0 0 .71665 .039 .072)"/><path d="M403.28 316.131c0 1.472 2.017 2.666 4.502 2.666 2.518 0 4.535-1.194 4.535-2.666 0-1.438-2.017-2.627-4.535-2.627-2.485 0-4.501 1.189-4.501 2.627Zm0 0" style="fill-rule:nonzero;fill:#ff6d4d;fill-opacity:1;stroke-width:.036;stroke-linecap:butt;stroke-linejoin:miter;stroke:#000;stroke-opacity:1;stroke-miterlimit:10" transform="matrix(.71673 0 0 .71665 .039 .072)"/><path d="M405.08 315.88c0 .758 1.04 1.369 2.343 1.369 1.297 0 2.376-.61 2.376-1.368s-1.08-1.363-2.376-1.363c-1.303 0-2.344.605-2.344 1.363ZM155.061 671.096c-.501 1.15-1.188 2.23-2.05 3.636-.866 1.297-1.983 2.736-3.204 4.317v14.542c2.627.36 4.606 1.625 6.371 4.072 1.62 2.371 2.878 5.794 3.636 10.258 18.612-1.728 33.763-3.597 46.151-5.472 12.203-1.946 21.67-3.129 27.289-5.898 5.504-2.78 7.488-6.34 5.94-10.694-4.25-3.925-8.605-6.552-13.216-8.427-4.567-1.766-10.22-.828-14.323-2.485-4.322-1.761-7.777-4.53-10.911-8.171ZM205.965 664.468c.25 2.197 1.08 3.641 4.573 5.01 3.417 1.15 11.734.643 16.345 2.518 4.425 1.766 6.91 6.911 10.938 8.64 4.104 1.585 9.723 2.485 13.396 1.585 3.565-1.008 7.56-3.635 7.952-7.058.218-3.522-1.87-10.727-6.115-13.393-4.251-2.698-13.358-1.619-19.119-2.73-6.082-1.298-11.483-3.892-15.909-4.323-4.393-.398-7.777.104-9.756 1.799-2.016 1.657-2.735 5.652-2.305 7.952Zm0 0" style="fill-rule:nonzero;fill:#fff;fill-opacity:1;stroke-width:.036;stroke-linecap:butt;stroke-linejoin:miter;stroke:#000;stroke-opacity:1;stroke-miterlimit:10" transform="matrix(.71673 0 0 .71665 .039 .072)"/><path d="M233.036 652.88c3.564-5.903 7.38-9.037 11.592-9.544 4.142-.463 8.246 4.786 13.43 6.59 5.215 1.586 13.14.937 17.494 3.205 4.142 2.306 6.77 6.404 7.74 10.22.937 3.565 1.443 9.833-1.838 11.594-3.384 1.766-9.395 1.335-18.181-1.15-.104-6.803-2.12-11.556-5.903-14.543-3.924-2.949-13.03-2.191-17.064-3.167-4.098-1.155-6.48-2.093-7.27-3.21Zm0 0" style="fill-rule:nonzero;fill:#fff;fill-opacity:1;stroke-width:.036;stroke-linecap:butt;stroke-linejoin:miter;stroke:#000;stroke-opacity:1;stroke-miterlimit:10" transform="matrix(.71673 0 0 .71665 .039 .072)"/><path d="M260.542 643.805c.823-1.69 2.268-2.807 4.317-3.205 1.978-.464 4.033-1.009 7.957.474 3.853 1.26 10.224 6.154 15.228 7.735 4.861 1.548 11.38-.398 14.115 1.804 2.627 2.158 2.48 7.887 1.799 10.907-.828 2.807-3.385 5.576-6.12 6.371-2.775.79-5.98.142-10.007-1.804-.757-5.865-2.774-10.007-5.908-12.956-3.27-2.987-9.608-2.807-13.173-4.322-3.564-1.581-6.3-3.205-8.208-5.004Zm0 0" style="fill-rule:nonzero;fill:#fff;fill-opacity:1;stroke-width:.036;stroke-linecap:butt;stroke-linejoin:miter;stroke:#000;stroke-opacity:1;stroke-miterlimit:10" transform="matrix(.71673 0 0 .71665 .039 .072)"/></svg>