<svg xmlns="http://www.w3.org/2000/svg" xmlns:xlink="http://www.w3.org/1999/xlink" zoomAndPan="magnify" preserveAspectRatio="xMidYMid meet" version="1.2" viewBox="389.01 727.75 518 272.09"><defs><clipPath id="af1973eeb7"><path d="M 558 810 L 907.050781 810 L 907.050781 1000 L 558 1000 Z M 558 810 "/></clipPath><clipPath id="fc9d7fc02a"><path d="M 653 727.597656 L 752 727.597656 L 752 829 L 653 829 Z M 653 727.597656 "/></clipPath></defs><g id="a479680b9f"><g clip-rule="nonzero" clip-path="url(#af1973eeb7)"><path style=" stroke:none;fill-rule:nonzero;fill:#ff6d4d;fill-opacity:1;" d="M 558.394531 918.71875 C 578.777344 934.941406 600.976562 948.761719 624.332031 960.15625 C 647.625 971.6875 672.15625 980.660156 697.308594 987.039062 C 700.460938 987.8125 703.59375 988.660156 706.757812 989.367188 L 716.292969 991.292969 L 721.058594 992.261719 C 722.652344 992.558594 724.257812 992.769531 725.859375 993.03125 L 735.46875 994.519531 C 738.671875 995.019531 741.90625 995.222656 745.125 995.589844 L 749.960938 996.082031 L 752.375 996.332031 L 754.804688 996.445312 C 761.269531 996.710938 767.738281 997.191406 774.210938 996.925781 L 779.058594 996.855469 C 780.679688 996.828125 782.296875 996.84375 783.90625 996.667969 L 793.574219 995.890625 L 795.988281 995.695312 C 796.792969 995.621094 797.574219 995.460938 798.371094 995.347656 L 803.128906 994.601562 C 804.726562 994.402344 806.28125 993.992188 807.839844 993.617188 L 812.523438 992.492188 C 824.945312 989.167969 836.683594 983.511719 847.375 976.390625 C 858.078125 969.265625 867.730469 960.558594 875.964844 950.664062 C 884.183594 940.769531 891.066406 929.707031 895.949219 917.796875 L 897.683594 913.292969 C 898.273438 911.792969 898.851562 910.292969 899.320312 908.753906 C 900.328125 905.703125 901.179688 902.601562 901.894531 899.472656 C 902.640625 896.34375 903.148438 893.175781 903.59375 890 C 903.945312 886.816406 904.242188 883.621094 904.242188 880.421875 C 904.40625 867.660156 901.210938 854.75 893.867188 844.234375 C 886.652344 833.683594 876.28125 825.351562 864.613281 819.996094 C 852.917969 814.617188 839.984375 812.109375 827.070312 811.804688 C 814.136719 811.453125 801.136719 813.085938 788.566406 816.332031 C 775.976562 819.5625 763.773438 824.191406 751.535156 828.621094 C 763.652344 823.867188 775.75 818.96875 788.351562 815.515625 C 800.925781 812.019531 813.992188 810.125 827.101562 810.238281 C 840.1875 810.378906 853.386719 812.78125 865.449219 818.160156 C 877.476562 823.523438 888.261719 831.953125 895.890625 842.84375 C 897.828125 845.539062 899.433594 848.464844 900.929688 851.429688 C 902.3125 854.457031 903.554688 857.554688 904.449219 860.761719 C 906.277344 867.160156 907.058594 873.828125 907.007812 880.445312 C 907.015625 883.757812 906.722656 887.058594 906.371094 890.34375 C 905.925781 893.617188 905.414062 896.886719 904.660156 900.097656 C 903.933594 903.316406 903.074219 906.503906 902.054688 909.636719 C 901.574219 911.21875 900.992188 912.757812 900.394531 914.292969 L 898.636719 918.90625 C 893.675781 931.117188 886.6875 942.457031 878.320312 952.609375 C 869.929688 962.757812 860.09375 971.714844 849.140625 979.046875 C 838.160156 986.308594 826.09375 992.0625 813.324219 995.429688 L 808.503906 996.570312 C 806.902344 996.953125 805.300781 997.363281 803.660156 997.5625 L 798.765625 998.3125 C 797.953125 998.425781 797.136719 998.589844 796.320312 998.660156 L 793.871094 998.851562 L 784.0625 999.601562 C 782.429688 999.773438 780.789062 999.75 779.152344 999.773438 L 774.238281 999.828125 C 748.019531 1000.132812 721.925781 996.117188 696.695312 989.40625 C 671.449219 982.699219 646.886719 973.417969 623.636719 961.550781 C 600.433594 949.644531 578.324219 935.503906 558.394531 918.71875 "/></g><path style=" stroke:none;fill-rule:nonzero;fill:#ff6d4d;fill-opacity:1;" d="M 613.652344 729.160156 C 605.730469 729.695312 597.816406 730.351562 589.917969 731.195312 C 585.917969 731.59375 581.929688 732.078125 577.9375 732.566406 C 576.929688 732.699219 575.972656 732.78125 574.917969 732.953125 C 573.855469 733.101562 572.828125 733.421875 571.816406 733.773438 C 569.824219 734.546875 567.96875 735.699219 566.425781 737.183594 C 564.894531 738.679688 563.621094 740.460938 562.804688 742.445312 C 562.363281 743.425781 562.085938 744.46875 561.847656 745.515625 L 561.285156 748.484375 C 560.535156 752.433594 559.832031 756.390625 559.144531 760.347656 C 556.394531 776.179688 554.011719 792.058594 551.257812 807.855469 C 549.878906 815.753906 548.414062 823.632812 546.78125 831.476562 C 545.960938 835.347656 544.964844 839.171875 543.238281 842.597656 C 541.550781 846.039062 538.992188 848.917969 535.722656 850.804688 C 532.464844 852.714844 528.664062 853.683594 524.84375 853.9375 C 521.003906 854.203125 517.136719 853.699219 513.390625 852.648438 C 509.644531 851.597656 506.019531 850.054688 502.660156 848.09375 C 500.964844 847.097656 499.421875 846.035156 497.828125 844.785156 C 496.246094 843.566406 494.640625 842.375 493.078125 841.128906 C 480.484375 831.300781 468.351562 820.519531 454.292969 812.335938 C 447.304688 808.222656 439.945312 804.742188 432.351562 801.90625 C 430.441406 801.234375 428.539062 800.523438 426.621094 799.886719 L 420.816406 798.101562 C 416.835938 796.890625 412.496094 796.464844 408.292969 797.09375 C 404.097656 797.746094 399.976562 799.453125 396.730469 802.316406 C 393.425781 805.117188 391.160156 809.011719 390.015625 813.105469 C 388.867188 817.222656 388.804688 821.515625 389.320312 825.640625 C 389.863281 829.773438 391.03125 833.765625 392.511719 837.589844 C 395.554688 845.234375 399.804688 852.238281 404.652344 858.78125 C 409.539062 865.304688 415.199219 871.265625 421.546875 876.371094 C 434.191406 886.664062 448.855469 894.121094 464.035156 899.601562 C 494.515625 910.207031 526.367188 916.402344 558.394531 918.71875 C 542.429688 916.960938 526.632812 914.039062 511.011719 910.507812 C 495.394531 906.96875 479.984375 902.46875 464.988281 897.011719 C 450.050781 891.492188 435.746094 884.058594 423.53125 873.960938 C 417.433594 868.917969 411.902344 863.203125 407.113281 856.921875 C 402.351562 850.632812 398.210938 843.789062 395.300781 836.5 C 393.878906 832.851562 392.777344 829.082031 392.269531 825.25 C 391.785156 821.433594 391.851562 817.535156 392.859375 813.902344 C 393.867188 810.285156 395.816406 806.945312 398.652344 804.53125 C 401.4375 802.0625 405.015625 800.558594 408.734375 799.976562 C 412.476562 799.417969 416.320312 799.761719 420.015625 800.878906 L 425.722656 802.625 C 427.609375 803.253906 429.472656 803.941406 431.347656 804.601562 C 438.796875 807.367188 446.003906 810.761719 452.859375 814.78125 C 466.636719 822.761719 478.683594 833.414062 491.382812 843.296875 C 492.957031 844.550781 494.578125 845.746094 496.179688 846.972656 C 497.742188 848.199219 499.507812 849.425781 501.28125 850.449219 C 504.855469 852.535156 508.679688 854.152344 512.664062 855.261719 C 520.570312 857.503906 529.609375 857.378906 537.054688 853.070312 C 540.753906 850.929688 543.722656 847.527344 545.535156 843.75 C 547.40625 839.972656 548.417969 835.945312 549.234375 831.980469 C 550.835938 824.097656 552.269531 816.183594 553.609375 808.257812 C 556.292969 792.414062 558.59375 776.523438 561.261719 760.707031 C 561.929688 756.757812 562.609375 752.804688 563.335938 748.863281 L 563.878906 745.917969 C 564.082031 745.007812 564.3125 744.097656 564.699219 743.246094 C 565.398438 741.511719 566.503906 739.957031 567.832031 738.644531 C 569.171875 737.339844 570.789062 736.320312 572.53125 735.636719 C 573.410156 735.324219 574.308594 735.039062 575.238281 734.910156 C 576.164062 734.75 577.207031 734.648438 578.183594 734.515625 C 582.160156 734.007812 586.136719 733.507812 590.121094 733.085938 C 597.75 732.234375 605.398438 731.554688 613.054688 730.992188 C 613.191406 730.367188 613.367188 729.722656 613.652344 729.160156 "/><g clip-rule="nonzero" clip-path="url(#fc9d7fc02a)"><path style=" stroke:none;fill-rule:nonzero;fill:#ff6d4d;fill-opacity:1;" d="M 745.292969 780.867188 L 742.167969 756.988281 C 741.628906 753.003906 741.160156 749.042969 740.574219 745.039062 C 739.867188 740.980469 737.402344 737.257812 733.9375 735.003906 C 732.226562 733.855469 730.261719 733.082031 728.226562 732.726562 C 726.207031 732.40625 724.230469 732.199219 722.234375 731.933594 C 718.253906 731.394531 714.253906 731 710.261719 730.558594 C 702.265625 729.757812 694.253906 729.09375 686.230469 728.65625 C 675.453125 728.050781 664.652344 727.75 653.851562 727.75 L 653.894531 727.847656 C 654.316406 728.234375 654.601562 728.761719 654.796875 729.316406 C 665.25 729.25 675.714844 729.433594 686.164062 729.941406 C 694.171875 730.308594 702.171875 730.898438 710.15625 731.625 C 714.144531 732.03125 718.136719 732.390625 722.117188 732.894531 C 724.097656 733.136719 726.121094 733.335938 728.070312 733.625 C 729.988281 733.941406 731.84375 734.648438 733.472656 735.722656 C 736.757812 737.820312 739.128906 741.324219 739.832031 745.175781 C 740.445312 749.105469 740.960938 753.113281 741.527344 757.078125 L 751.535156 828.621094 L 745.292969 780.867188 "/></g><path style=" stroke:none;fill-rule:nonzero;fill:#ff6d4d;fill-opacity:1;" d="M 624.535156 737.046875 C 624.605469 736.777344 624.675781 736.503906 624.746094 736.230469 C 624.265625 736.386719 623.792969 736.550781 623.308594 736.691406 C 622.40625 736.960938 621.480469 737.214844 620.566406 737.4375 C 619.230469 737.769531 617.761719 738.0625 616.394531 737.734375 C 615.0625 737.414062 613.996094 736.414062 613.644531 735.15625 C 612.808594 734.054688 612.71875 732.589844 612.992188 731.242188 C 613.070312 730.855469 613.171875 730.460938 613.292969 730.074219 C 600.652344 730.964844 588.054688 732.21875 575.5625 733.847656 C 569.179688 734.683594 564.035156 739.515625 562.835938 745.839844 C 562.671875 746.71875 562.519531 747.59375 562.355469 748.472656 C 564.265625 747.292969 566.433594 746.492188 568.753906 746.191406 C 587.289062 743.765625 606.03125 742.085938 624.832031 741.171875 C 624.597656 740.5 624.433594 739.800781 624.378906 739.050781 C 624.328125 738.386719 624.375 737.695312 624.535156 737.046875 "/><path style=" stroke:none;fill-rule:nonzero;fill:#ff6d4d;fill-opacity:1;" d="M 740.328125 745.8125 C 739.417969 739.1875 734.199219 733.953125 727.570312 733.074219 C 703.457031 729.882812 678.964844 728.484375 654.453125 728.570312 C 654.707031 729.015625 654.878906 729.515625 654.992188 729.996094 C 655.085938 730.398438 655.152344 730.8125 655.222656 731.222656 C 655.246094 731.363281 655.269531 731.5 655.292969 731.640625 L 655.351562 731.964844 C 655.542969 732.925781 655.832031 733.851562 655.914062 734.839844 C 656.007812 735.894531 655.898438 736.992188 655.652344 738.023438 C 655.453125 738.867188 655.160156 739.652344 654.808594 740.402344 C 681.257812 740.335938 707.683594 741.910156 733.699219 745.351562 C 736.25 745.6875 738.601562 746.632812 740.628906 748.015625 C 740.527344 747.277344 740.429688 746.550781 740.328125 745.8125 "/><path style=" stroke:none;fill-rule:nonzero;fill:#ff6d4d;fill-opacity:1;" d="M 514.539062 860.777344 C 524.402344 868.285156 534.132812 875.949219 543.9375 883.53125 L 573.121094 906.539062 C 592.5625 921.882812 611.671875 937.695312 632.832031 950.375 C 653.804688 963.34375 676.460938 973.5 699.917969 981.125 C 711.648438 984.957031 723.617188 988.066406 735.738281 990.460938 C 747.84375 992.964844 760.121094 994.621094 772.460938 995.71875 C 760.074219 995.347656 747.714844 993.992188 735.457031 992.003906 C 723.210938 989.90625 711.09375 987.042969 699.179688 983.46875 C 687.253906 979.9375 675.613281 975.460938 664.242188 970.40625 C 652.882812 965.320312 641.808594 959.574219 631.171875 953.101562 C 620.5625 946.5625 610.398438 939.355469 600.566406 931.769531 C 590.730469 924.179688 581.101562 916.367188 571.585938 908.445312 L 542.957031 884.742188 C 533.484375 876.75 523.949219 868.84375 514.539062 860.777344 "/><path style=" stroke:none;fill-rule:nonzero;fill:#ff6d4d;fill-opacity:1;" d="M 394.878906 822.035156 C 395.21875 821.167969 395.703125 820.351562 396.320312 819.632812 C 396.957031 818.929688 397.707031 818.339844 398.519531 817.835938 C 400.167969 816.875 402.019531 816.320312 403.890625 816.011719 C 405.761719 815.710938 407.691406 815.632812 409.5625 815.773438 C 411.453125 815.808594 413.324219 816.074219 415.203125 816.300781 C 418.933594 816.929688 422.589844 817.949219 426.144531 819.234375 C 429.707031 820.515625 433.101562 822.191406 436.429688 823.960938 C 443.078125 827.53125 449.226562 831.894531 455.234375 836.332031 L 473.058594 849.832031 C 484.882812 858.894531 496.679688 867.984375 508.367188 877.226562 C 520.078125 886.425781 531.664062 895.796875 543.125 905.324219 C 530.90625 896.777344 518.808594 888.070312 506.84375 879.195312 C 494.847656 870.359375 482.964844 861.375 471.105469 852.359375 L 453.414062 838.738281 C 447.554688 834.191406 441.554688 829.859375 435.214844 826.125 C 428.871094 822.410156 422.097656 819.410156 414.917969 817.828125 C 413.113281 817.496094 411.3125 817.117188 409.476562 816.972656 C 407.644531 816.714844 405.824219 816.675781 404.003906 816.847656 C 402.1875 817.027344 400.386719 817.445312 398.746094 818.257812 C 397.9375 818.667969 397.167969 819.171875 396.496094 819.800781 C 395.839844 820.441406 395.292969 821.199219 394.878906 822.035156 "/><path style=" stroke:none;fill-rule:nonzero;fill:#ff6d4d;fill-opacity:1;" d="M 754.167969 840 C 755.5 844.574219 757.289062 848.996094 759.484375 853.1875 C 760.832031 855.40625 760.171875 858.664062 757.953125 860.21875 C 757.4375 860.613281 756.761719 860.9375 756.203125 861.082031 L 754.476562 861.601562 L 751.019531 862.652344 C 750.441406 862.820312 749.871094 863.011719 749.285156 863.148438 L 747.523438 863.511719 L 744 864.230469 C 742.824219 864.457031 741.652344 864.734375 740.46875 864.925781 L 736.914062 865.433594 C 734.546875 865.75 732.179688 866.152344 729.796875 866.375 L 722.65625 867.054688 C 703.597656 868.699219 684.480469 868.65625 665.40625 868.175781 C 646.335938 867.582031 627.289062 866.394531 608.308594 864.523438 C 589.328125 862.6875 570.402344 860.203125 551.640625 856.84375 C 570.582031 858.96875 589.542969 860.625 608.519531 862.039062 C 627.496094 863.398438 646.496094 864.449219 665.5 864.984375 L 679.753906 865.316406 L 694.007812 865.394531 L 708.253906 865.199219 L 715.367188 864.914062 C 717.742188 864.832031 720.117188 864.769531 722.476562 864.578125 L 729.578125 864.089844 C 731.945312 863.929688 734.285156 863.589844 736.644531 863.367188 L 740.179688 862.988281 C 741.355469 862.84375 742.511719 862.613281 743.679688 862.429688 L 747.175781 861.851562 L 748.929688 861.558594 C 749.507812 861.441406 750.070312 861.273438 750.644531 861.140625 L 754.074219 860.285156 C 755.203125 859.960938 756.449219 859.835938 757.261719 859.238281 C 759.050781 858.109375 759.796875 855.542969 758.730469 853.5625 C 756.695312 849.21875 755.167969 844.65625 754.167969 840 "/><path style=" stroke:none;fill-rule:nonzero;fill:#ff6d4d;fill-opacity:1;" d="M 745.847656 846.691406 C 730.128906 850.203125 713.988281 851.601562 697.917969 852.398438 C 681.828125 853.183594 665.71875 853.210938 649.628906 852.914062 C 633.535156 852.550781 617.457031 851.839844 601.410156 850.703125 C 585.355469 849.601562 569.335938 848.046875 553.382812 845.988281 C 569.445312 846.808594 585.5 847.527344 601.546875 848.210938 C 617.597656 848.847656 633.640625 849.417969 649.691406 849.722656 C 665.742188 850.082031 681.792969 850.1875 697.832031 849.914062 C 705.851562 849.730469 713.878906 849.523438 721.878906 849.011719 C 729.90625 848.667969 737.871094 847.761719 745.847656 846.691406 "/><path style=" stroke:none;fill-rule:nonzero;fill:#ff6d4d;fill-opacity:1;" d="M 745.847656 828.566406 C 729.917969 830.644531 713.839844 831.539062 697.789062 832.042969 C 681.730469 832.558594 665.667969 832.605469 649.609375 832.476562 C 633.554688 832.28125 617.5 831.894531 601.457031 831.195312 C 585.414062 830.539062 569.386719 829.558594 553.382812 828.214844 C 569.441406 828.316406 585.488281 828.464844 601.527344 828.703125 L 649.644531 829.285156 C 665.679688 829.476562 681.710938 829.566406 697.746094 829.558594 C 705.761719 829.519531 713.78125 829.503906 721.792969 829.339844 C 729.816406 829.300781 737.824219 828.929688 745.847656 828.566406 "/><path style=" stroke:none;fill-rule:nonzero;fill:#ff6d4d;fill-opacity:1;" d="M 745.847656 809.316406 C 729.84375 810.609375 713.792969 811.242188 697.746094 811.589844 C 681.703125 811.960938 665.652344 812.023438 649.609375 811.980469 C 633.5625 811.871094 617.519531 811.660156 601.480469 811.199219 C 585.441406 810.785156 569.40625 810.105469 553.382812 809.152344 C 585.480469 808.546875 617.550781 808.667969 649.625 808.785156 L 697.726562 809.105469 C 713.765625 809.179688 729.796875 809.375 745.847656 809.316406 "/><path style=" stroke:none;fill-rule:nonzero;fill:#ff6d4d;fill-opacity:1;" d="M 742.246094 802.695312 C 726.808594 803.3125 711.371094 803.726562 695.929688 803.9375 C 680.492188 804.191406 665.050781 804.261719 649.613281 804.292969 C 634.175781 804.261719 618.734375 804.195312 603.296875 803.941406 C 587.859375 803.734375 572.421875 803.316406 556.980469 802.695312 C 572.421875 802.074219 587.859375 801.660156 603.296875 801.449219 C 618.734375 801.199219 634.175781 801.125 649.613281 801.097656 C 665.050781 801.132812 680.492188 801.199219 695.929688 801.453125 C 711.371094 801.664062 726.808594 802.078125 742.246094 802.695312 "/><path style=" stroke:none;fill-rule:nonzero;fill:#ff6d4d;fill-opacity:1;" d="M 742.246094 779.695312 C 726.808594 780.316406 711.371094 780.726562 695.929688 780.9375 C 680.492188 781.191406 665.050781 781.257812 649.613281 781.292969 C 634.175781 781.265625 618.734375 781.199219 603.296875 780.941406 C 587.859375 780.734375 572.421875 780.316406 556.980469 779.695312 C 572.421875 779.078125 587.859375 778.65625 603.296875 778.449219 C 618.734375 778.195312 634.175781 778.128906 649.613281 778.097656 C 665.050781 778.128906 680.492188 778.199219 695.929688 778.453125 C 711.371094 778.664062 726.808594 779.078125 742.246094 779.695312 "/><path style=" stroke:none;fill-rule:nonzero;fill:#ff6d4d;fill-opacity:1;" d="M 626.609375 755.640625 C 626.851562 754.609375 627.523438 753.773438 628.335938 753.117188 C 622.398438 753.410156 616.460938 753.773438 610.535156 754.25 C 597.128906 755.304688 583.746094 756.765625 570.472656 758.941406 L 610.714844 757.4375 L 626.582031 756.980469 C 626.519531 756.542969 626.503906 756.09375 626.609375 755.640625 "/><path style=" stroke:none;fill-rule:nonzero;fill:#ff6d4d;fill-opacity:1;" d="M 691.210938 753.332031 C 677.769531 752.4375 664.304688 752.238281 650.847656 752.378906 C 647.109375 752.441406 643.371094 752.535156 639.632812 752.65625 C 639.054688 753.800781 638.558594 754.996094 637.910156 756.109375 C 637.792969 756.308594 637.660156 756.5 637.535156 756.695312 C 641.992188 756.589844 646.445312 756.5 650.902344 756.464844 C 664.296875 756.246094 677.6875 756.273438 691.078125 756.507812 C 704.464844 756.785156 717.84375 757.335938 731.25 758.433594 C 718.082031 755.65625 704.640625 754.210938 691.210938 753.332031 "/><path style=" stroke:none;fill-rule:nonzero;fill:#ff6d4d;fill-opacity:1;" d="M 529.652344 854.585938 C 529.652344 854.585938 537.746094 860.257812 593.691406 873.703125 C 662.996094 890.363281 721.949219 884.980469 747.886719 883.289062 C 773.820312 881.601562 784.8125 867.222656 779.738281 858.761719 C 774.667969 850.308594 757.253906 849.269531 757.253906 849.269531 L 759.246094 853.660156 C 759.246094 853.660156 761.308594 858.136719 756.335938 860.375 C 756.335938 860.375 745.167969 864.332031 713.5 866.386719 C 681.828125 868.445312 628.367188 864.796875 628.367188 864.796875 C 628.367188 864.796875 579.097656 860.691406 558.394531 857.800781 C 548.648438 856.441406 541.492188 853.996094 536.648438 851.785156 C 536.648438 851.785156 533.359375 854.539062 529.652344 854.585938 "/><path style=" stroke:none;fill-rule:nonzero;fill:#ff6d4d;fill-opacity:1;" d="M 754.695312 841.917969 C 763.0625 839.820312 771.808594 839.011719 780.597656 839.613281 C 785 839.902344 789.410156 840.667969 793.726562 842.003906 C 798.03125 843.332031 802.28125 845.265625 806.078125 848.046875 C 809.898438 850.789062 813.152344 854.457031 815.519531 858.703125 C 817.839844 862.976562 819.207031 867.855469 819.316406 872.816406 C 819.625 882.816406 814.628906 892.546875 807.25 898.9375 C 803.46875 902.195312 799.546875 904.546875 795.464844 906.703125 C 791.382812 908.832031 787.132812 910.496094 782.859375 911.949219 C 774.289062 914.8125 765.539062 916.707031 756.765625 917.980469 C 739.199219 920.488281 721.566406 920.554688 704.113281 919.449219 C 695.386719 918.835938 686.695312 917.914062 678.046875 916.6875 C 673.738281 916 669.421875 915.316406 665.125 914.558594 C 660.855469 913.703125 656.550781 912.996094 652.3125 912.003906 C 635.300781 908.289062 618.539062 903.632812 602.144531 897.964844 C 598.027344 896.605469 593.960938 895.101562 589.890625 893.613281 C 585.808594 892.171875 581.785156 890.550781 577.765625 888.933594 C 573.742188 887.339844 569.785156 885.558594 565.796875 883.878906 C 561.835938 882.136719 557.898438 880.328125 553.972656 878.519531 C 538.402344 870.964844 523.15625 862.652344 509.089844 852.660156 C 540.035156 867.785156 572.320312 879.15625 605.097656 888.445312 C 637.933594 897.492188 671.285156 904.480469 704.96875 906.703125 C 713.378906 907.289062 721.800781 907.554688 730.199219 907.476562 C 738.589844 907.429688 746.957031 906.933594 755.222656 906.027344 C 763.488281 905.125 771.652344 903.640625 779.472656 901.328125 C 783.382812 900.179688 787.175781 898.753906 790.824219 897.136719 C 794.4375 895.503906 798.035156 893.566406 800.890625 891.355469 C 806.765625 886.863281 810.582031 880.019531 811.015625 872.734375 C 811.230469 869.09375 810.519531 865.398438 809.015625 861.980469 C 807.46875 858.582031 805.125 855.480469 802.1875 852.910156 C 796.347656 847.664062 788.339844 844.695312 780.144531 843.101562 C 776.019531 842.289062 771.792969 841.847656 767.535156 841.671875 C 763.277344 841.46875 758.988281 841.542969 754.695312 841.917969 "/><path style=" stroke:none;fill-rule:nonzero;fill:#ff6d4d;fill-opacity:1;" d="M 842.644531 866.71875 C 842.1875 865.390625 841.601562 864.101562 841.078125 862.796875 C 840.800781 862.152344 840.566406 861.488281 840.246094 860.867188 L 839.203125 859.035156 C 838.476562 857.839844 837.886719 856.5625 837.039062 855.453125 L 834.511719 852.117188 C 830.894531 847.910156 826.683594 844.222656 821.988281 841.4375 C 812.535156 835.875 801.511719 833.601562 790.953125 834.222656 C 780.371094 834.84375 770.078125 837.675781 760.851562 842.417969 C 765.695312 840.582031 770.707031 839.28125 775.765625 838.425781 C 780.8125 837.546875 785.925781 837.148438 790.980469 837.324219 C 796.03125 837.535156 801.03125 838.238281 805.785156 839.699219 C 810.550781 841.101562 815 843.328125 819.042969 846.070312 C 823.085938 848.851562 826.554688 852.285156 829.457031 856.082031 L 831.453125 859.054688 C 832.128906 860.035156 832.542969 861.171875 833.109375 862.210938 L 833.902344 863.804688 C 834.144531 864.339844 834.300781 864.921875 834.5 865.472656 C 834.871094 866.597656 835.308594 867.699219 835.628906 868.828125 C 836.769531 873.417969 837.109375 878.132812 836.75 882.808594 L 836.167969 886.277344 C 836.050781 886.851562 836.023438 887.441406 835.839844 888 L 835.328125 889.683594 C 834.957031 890.792969 834.742188 891.953125 834.253906 893.023438 L 832.839844 896.246094 C 832.445312 897.355469 831.703125 898.300781 831.144531 899.332031 L 830.25 900.847656 L 829.808594 901.609375 L 829.273438 902.3125 C 827.8125 904.167969 826.507812 906.128906 824.753906 907.75 C 823.917969 908.589844 823.148438 909.484375 822.289062 910.300781 L 819.554688 912.59375 C 817.824219 914.222656 815.695312 915.394531 813.746094 916.769531 C 812.769531 917.507812 811.738281 917.972656 810.71875 918.476562 L 809.195312 919.242188 C 808.695312 919.503906 808.183594 919.761719 807.597656 919.953125 L 804.207031 921.210938 L 802.519531 921.839844 L 800.742188 922.347656 L 797.175781 923.355469 C 795.996094 923.699219 794.808594 924.039062 793.574219 924.269531 L 786.242188 925.828125 C 766.429688 929.3125 745.984375 930.21875 725.660156 929.28125 C 705.304688 928.523438 685.007812 925.816406 664.949219 921.910156 C 659.929688 920.945312 654.886719 920.066406 649.929688 918.789062 C 644.957031 917.589844 639.960938 916.46875 635.003906 915.199219 C 625.171875 912.328125 615.234375 909.796875 605.53125 906.449219 C 600.65625 904.824219 595.757812 903.375 590.898438 901.574219 L 576.296875 896.410156 C 566.5625 892.957031 556.859375 889.421875 547.214844 885.742188 C 546.75 885.570312 546.292969 885.398438 545.832031 885.222656 C 546.648438 885.796875 551.132812 889.820312 552.628906 891.167969 C 554.1875 892.566406 555.808594 893.890625 557.460938 895.171875 C 558.640625 896.082031 559.941406 896.839844 561.089844 897.785156 C 565.277344 899.609375 569.457031 901.4375 573.664062 903.210938 C 583.234375 907.230469 592.835938 911.089844 602.675781 914.660156 C 607.585938 916.433594 612.425781 918.421875 617.433594 919.917969 L 632.398438 924.617188 C 637.425781 926.042969 642.5 927.316406 647.554688 928.671875 C 652.589844 930.105469 657.726562 931.136719 662.839844 932.253906 C 683.328125 936.621094 704.183594 939.441406 725.1875 940.445312 C 746.199219 941.222656 767.359375 940.238281 788.28125 936.214844 L 796.089844 934.347656 C 797.390625 934.070312 798.683594 933.664062 799.976562 933.253906 L 803.851562 932.050781 L 805.789062 931.441406 L 807.71875 930.671875 L 811.570312 929.121094 C 812.207031 928.894531 812.851562 928.5625 813.492188 928.210938 L 815.410156 927.1875 C 816.691406 926.507812 817.992188 925.839844 819.078125 924.992188 C 828.285156 918.855469 836.320312 910.316406 840.777344 899.867188 L 842.3125 895.910156 C 842.835938 894.597656 843.070312 893.179688 843.449219 891.820312 L 843.96875 889.761719 C 844.152344 889.082031 844.175781 888.363281 844.285156 887.664062 L 844.796875 883.449219 C 845.007812 877.78125 844.382812 872.09375 842.644531 866.71875 "/><path style=" stroke:none;fill-rule:nonzero;fill:#ff6d4d;fill-opacity:1;" d="M 849.945312 866.996094 C 848.285156 861.710938 845.542969 856.761719 841.902344 852.585938 C 838.320312 848.347656 833.785156 845.019531 828.988281 842.328125 C 819.269531 837.027344 808.132812 834.789062 797.167969 834.890625 C 791.671875 834.921875 786.195312 835.480469 780.796875 836.46875 C 775.40625 837.472656 770.070312 838.832031 764.941406 840.761719 C 770.09375 838.890625 775.4375 837.589844 780.832031 836.652344 C 786.226562 835.730469 791.699219 835.234375 797.167969 835.265625 C 808.082031 835.289062 819.101562 837.644531 828.621094 842.980469 C 833.316406 845.710938 837.773438 848.964844 841.261719 853.140625 C 844.808594 857.246094 847.472656 862.09375 849.070312 867.269531 C 852.324219 877.65625 851.113281 889.144531 846.617188 898.992188 C 842.175781 908.925781 834.726562 917.339844 825.949219 923.722656 C 817.285156 930.4375 806.722656 933.832031 796.148438 936.433594 C 785.527344 938.964844 774.675781 940.507812 763.785156 941.390625 C 752.890625 942.300781 741.9375 942.457031 731.007812 942.128906 C 709.144531 941.507812 687.34375 938.816406 665.917969 934.347656 C 655.207031 932.109375 644.578125 929.46875 634.050781 926.464844 C 623.546875 923.386719 613.128906 919.996094 602.839844 916.25 C 592.566406 912.46875 582.4375 908.28125 572.277344 904.171875 C 569.792969 903.175781 567.320312 902.160156 564.851562 901.136719 L 564.875 901.175781 L 564.933594 901.257812 L 565.007812 901.335938 L 565.269531 901.625 C 565.46875 901.839844 565.667969 902.039062 565.878906 902.238281 C 566.082031 902.429688 566.277344 902.605469 566.476562 902.777344 C 568.289062 903.53125 570.101562 904.289062 571.921875 905.027344 C 582.070312 909.179688 592.1875 913.410156 602.476562 917.242188 C 612.769531 921.042969 623.195312 924.484375 633.714844 927.613281 C 644.261719 930.667969 654.910156 933.359375 665.648438 935.648438 C 687.125 940.21875 708.996094 943.019531 730.964844 943.722656 C 741.945312 944.007812 752.953125 943.800781 763.902344 942.839844 C 774.855469 941.910156 785.765625 940.316406 796.464844 937.71875 C 801.808594 936.402344 807.09375 934.820312 812.230469 932.792969 C 814.777344 931.722656 817.328125 930.644531 819.730469 929.226562 C 822.128906 927.835938 824.414062 926.304688 826.652344 924.679688 C 835.535156 918.160156 843.089844 909.566406 847.574219 899.417969 C 852.121094 889.359375 853.3125 877.609375 849.945312 866.996094 "/><path style=" stroke:none;fill-rule:nonzero;fill:#ff6d4d;fill-opacity:1;" d="M 856.769531 869.902344 C 853.777344 858.664062 846.292969 848.910156 836.730469 842.476562 C 831.914062 839.304688 826.632812 836.796875 821.0625 835.304688 C 815.507812 833.753906 809.730469 833.121094 803.980469 833.203125 C 792.488281 833.449219 781.09375 836.277344 770.753906 841.210938 C 781.144531 836.394531 792.554688 833.707031 803.988281 833.589844 C 809.699219 833.578125 815.425781 834.273438 820.902344 835.867188 C 826.394531 837.410156 831.578125 839.941406 836.289062 843.125 C 840.960938 846.363281 845.183594 850.292969 848.527344 854.886719 C 850.226562 857.167969 851.632812 859.644531 852.917969 862.175781 C 854.105469 864.75 855.140625 867.40625 855.875 870.148438 C 858.875 881.128906 857.632812 893.0625 852.996094 903.414062 C 850.671875 908.597656 847.546875 913.40625 843.867188 917.730469 C 840.148438 922.03125 835.859375 925.820312 831.207031 929.089844 C 830.0625 929.933594 828.859375 930.691406 827.652344 931.445312 C 826.464844 932.230469 825.214844 932.894531 823.972656 933.585938 C 821.453125 934.886719 818.863281 936.066406 816.207031 937.09375 C 810.902344 939.167969 805.421875 940.808594 799.886719 942.183594 C 777.652344 947.554688 754.59375 948.894531 731.765625 948.082031 C 685.984375 946.484375 640.824219 935.832031 597.914062 919.9375 C 592.40625 917.832031 586.914062 915.6875 581.429688 913.507812 L 581.429688 913.667969 C 582.148438 914.234375 582.851562 914.8125 583.53125 915.421875 C 588.1875 917.292969 592.855469 919.136719 597.546875 920.925781 C 640.480469 937.015625 685.714844 947.890625 731.710938 949.675781 C 754.65625 950.410156 777.820312 948.96875 800.207031 943.476562 C 805.785156 942.0625 811.304688 940.390625 816.671875 938.265625 C 819.355469 937.214844 821.984375 936.007812 824.550781 934.667969 C 825.816406 933.957031 827.09375 933.273438 828.292969 932.46875 C 829.515625 931.703125 830.734375 930.925781 831.898438 930.0625 C 836.609375 926.726562 840.960938 922.855469 844.722656 918.460938 C 848.453125 914.046875 851.617188 909.136719 853.96875 903.84375 C 858.652344 893.273438 859.875 881.09375 856.769531 869.902344 "/><path style=" stroke:none;fill-rule:nonzero;fill:#ff6d4d;fill-opacity:1;" d="M 874.710938 880.648438 C 873.859375 873.6875 871.535156 866.925781 868.007812 860.949219 C 866.25 857.957031 864.230469 855.125 861.941406 852.5625 C 859.695312 849.953125 857.183594 847.609375 854.542969 845.460938 C 849.28125 841.085938 843.09375 837.917969 836.792969 835.65625 C 830.453125 833.414062 823.890625 832.039062 817.292969 831.410156 C 810.699219 830.804688 804.070312 830.882812 797.542969 831.652344 C 791.042969 832.496094 784.546875 833.933594 778.640625 836.707031 C 784.773438 834.503906 791.269531 833.730469 797.6875 833.476562 C 804.121094 833.222656 810.566406 833.65625 816.859375 834.738281 C 829.40625 836.84375 841.644531 841.582031 850.773438 849.914062 C 853.078125 851.972656 855.246094 854.183594 857.128906 856.597656 C 859.066406 858.96875 860.722656 861.542969 862.132812 864.222656 C 864.96875 869.578125 866.679688 875.464844 867.128906 881.433594 C 868.164062 893.414062 864.203125 905.515625 857.207031 915.464844 C 853.777344 920.507812 849.566406 925.023438 844.984375 929.136719 L 843.261719 930.675781 L 841.460938 932.136719 C 840.277344 933.128906 839.035156 934.050781 837.78125 934.957031 C 835.300781 936.785156 832.632812 938.546875 830.136719 939.984375 C 824.878906 942.847656 819.0625 945.09375 813.097656 946.90625 C 807.121094 948.710938 800.964844 950.082031 794.746094 951.160156 C 782.308594 953.382812 769.578125 954.328125 756.835938 954.472656 C 744.082031 954.644531 731.300781 953.820312 718.558594 952.527344 C 693.046875 949.988281 667.828125 944.539062 642.949219 937.917969 C 630.519531 934.523438 618.191406 930.722656 605.960938 926.597656 C 601.070312 924.882812 596.183594 923.140625 591.300781 921.382812 C 593.589844 922.902344 595.730469 924.609375 597.894531 926.304688 C 603.453125 930.652344 609.328125 934.578125 614.65625 939.207031 C 614.859375 939.378906 614.992188 939.578125 615.078125 939.78125 C 615.4375 939.980469 615.800781 940.175781 616.160156 940.378906 C 648.921875 951.511719 682.746094 959.734375 717.386719 963.597656 C 730.503906 965.035156 743.734375 965.660156 756.984375 965.4375 C 770.230469 965.195312 783.515625 964.128906 796.667969 961.683594 C 803.234375 960.40625 809.761719 958.816406 816.191406 956.730469 C 822.617188 954.628906 828.957031 952.0625 835.050781 948.582031 C 838.152344 946.714844 840.867188 944.816406 843.585938 942.738281 C 844.945312 941.710938 846.289062 940.667969 847.578125 939.542969 L 849.53125 937.890625 L 851.414062 936.148438 C 856.417969 931.492188 860.917969 926.222656 864.636719 920.398438 C 872.171875 908.890625 876.410156 894.65625 874.710938 880.648438 "/><path style=" stroke:none;fill-rule:nonzero;fill:#ff6d4d;fill-opacity:1;" d="M 753.335938 835.761719 C 762.296875 830.949219 771.746094 827.015625 781.472656 823.78125 C 786.324219 822.167969 791.304688 820.722656 796.464844 819.773438 C 801.585938 818.835938 806.753906 818.246094 811.941406 817.929688 C 822.324219 817.371094 832.78125 817.9375 843.1875 819.796875 C 848.386719 820.75 853.570312 822.078125 858.644531 823.992188 C 863.710938 825.894531 868.726562 828.3125 873.339844 831.664062 C 877.820312 834.925781 881.890625 838.683594 885.488281 842.988281 C 889.074219 847.28125 892.070312 852.132812 894.335938 857.304688 C 898.960938 867.652344 900.382812 879.160156 899.527344 890.136719 C 898.679688 901.167969 895.59375 911.773438 891.21875 921.640625 C 886.796875 931.511719 880.984375 940.667969 874.097656 948.960938 C 867.152344 957.175781 859.082031 964.617188 849.796875 970.453125 C 840.5625 976.253906 830.613281 980.496094 820.445312 983.5625 C 800.0625 989.660156 778.929688 991.363281 758.222656 990.351562 C 716.703125 988.222656 676.722656 975.621094 640.734375 956.875 C 659.976562 963.417969 679.363281 969.148438 699.082031 972.980469 C 718.734375 976.976562 738.6875 979.105469 758.480469 979.046875 C 768.375 978.996094 778.230469 978.351562 787.941406 977.039062 C 797.621094 975.589844 807.199219 973.621094 816.347656 970.554688 C 825.496094 967.53125 834.300781 963.632812 842.140625 958.488281 C 850.003906 953.492188 856.988281 946.988281 863.085938 939.730469 C 869.203125 932.476562 874.351562 924.367188 878.324219 915.789062 C 882.332031 907.226562 885.011719 898.101562 886.007812 888.929688 C 886.972656 879.761719 886.035156 870.527344 882.738281 862.167969 C 879.480469 853.808594 873.78125 846.375 866.582031 840.566406 C 859.621094 834.949219 850.523438 831.355469 841.1875 828.871094 C 831.78125 826.429688 821.921875 825.195312 812.042969 824.898438 C 807.101562 824.734375 802.140625 824.824219 797.21875 825.253906 C 792.332031 825.664062 787.445312 826.636719 782.5 827.605469 C 777.582031 828.617188 772.691406 829.84375 767.832031 831.214844 C 762.953125 832.550781 758.128906 834.082031 753.335938 835.761719 "/><path style=" stroke:none;fill-rule:nonzero;fill:#ff6d4d;fill-opacity:1;" d="M 544.140625 906.191406 C 535.785156 905.039062 527.503906 903.621094 519.292969 901.796875 C 505.898438 898.878906 492.746094 895.007812 480.050781 890.046875 C 467.351562 885.105469 455.128906 879.007812 443.738281 871.664062 C 432.417969 864.273438 421.796875 855.640625 413.246094 845.386719 C 411.140625 842.820312 409.171875 840.140625 407.496094 837.359375 C 405.820312 834.589844 404.394531 831.664062 403.605469 828.882812 C 403.246094 827.539062 403.097656 826.121094 403.265625 825.40625 C 403.277344 825.167969 403.523438 824.640625 403.785156 824.273438 C 404.050781 823.894531 404.386719 823.5625 404.824219 823.269531 C 405.714844 822.695312 407.007812 822.292969 408.46875 822.152344 C 409.921875 821.984375 411.511719 822.0625 413.121094 822.1875 C 419.632812 822.835938 426.28125 825.089844 432.757812 827.460938 C 439.25 829.910156 445.648438 832.726562 451.96875 835.761719 C 446.265625 831.667969 440.257812 827.988281 434.011719 824.667969 C 430.894531 823 427.675781 821.492188 424.359375 820.136719 C 421.035156 818.789062 417.609375 817.597656 413.929688 816.832031 C 412.085938 816.460938 410.171875 816.21875 408.132812 816.257812 C 406.117188 816.296875 403.898438 816.621094 401.710938 817.738281 C 400.628906 818.300781 399.585938 819.09375 398.738281 820.058594 C 397.898438 821.042969 397.226562 822.042969 396.746094 823.480469 C 396.3125 824.816406 396.222656 826.03125 396.226562 827.164062 C 396.21875 828.308594 396.363281 829.355469 396.527344 830.386719 C 397.277344 834.4375 398.789062 837.945312 400.527344 841.261719 C 402.265625 844.578125 404.269531 847.679688 406.421875 850.652344 C 415.066406 862.511719 426.0625 872.195312 437.894531 880.402344 C 449.773438 888.578125 462.640625 895.195312 475.972656 900.433594 C 501.875 910.613281 529.496094 915.699219 556.898438 916.96875 C 552.445312 913.5625 547.980469 909.648438 544.140625 906.191406 "/><path style=" stroke:none;fill-rule:nonzero;fill:#ff6d4d;fill-opacity:1;" d="M 630.367188 760.496094 C 629.390625 760.371094 628.375 759.886719 627.679688 759.191406 L 627.613281 759.109375 C 625.683594 759.085938 623.753906 759.066406 621.824219 759.035156 C 615.921875 758.933594 610.046875 758.824219 604.164062 759.222656 C 604.007812 762.9375 603.742188 769.269531 603.414062 776.96875 L 614.945312 776.96875 C 615.535156 776.96875 616.125 776.964844 616.714844 776.96875 L 630.59375 776.96875 C 630.894531 769.945312 631.136719 764.152344 631.285156 760.566406 C 630.980469 760.5625 630.679688 760.535156 630.367188 760.496094 "/><path style=" stroke:none;fill-rule:nonzero;fill:#ff6d4d;fill-opacity:1;" d="M 603.222656 783.007812 C 602.980469 788.398438 602.710938 794.285156 602.4375 800.308594 C 610.542969 800.160156 618.648438 800.410156 626.753906 800.1875 C 627.710938 800.160156 628.667969 800.125 629.625 800.085938 C 629.902344 794.109375 630.164062 788.300781 630.402344 783.007812 L 603.222656 783.007812 "/><path style=" stroke:none;fill-rule:nonzero;fill:#ff6d4d;fill-opacity:1;" d="M 602.246094 804.949219 C 602.207031 805.765625 602.164062 806.582031 602.121094 807.402344 C 611.179688 807.449219 620.230469 807.648438 629.285156 807.804688 C 629.332031 806.851562 629.378906 805.898438 629.429688 804.949219 L 602.246094 804.949219 "/><path style=" stroke:none;fill-rule:nonzero;fill:#ff6d4d;fill-opacity:1;" d="M 617.738281 834.195312 C 612.152344 833.996094 606.566406 833.59375 600.980469 833.40625 C 600.746094 838.46875 600.527344 843.042969 600.339844 846.785156 C 605.171875 846.914062 610.015625 847.246094 614.828125 847.179688 C 619.058594 847.117188 623.289062 847.042969 627.519531 847.007812 C 627.699219 843.398438 627.902344 839.136719 628.113281 834.488281 C 624.65625 834.40625 621.195312 834.316406 617.738281 834.195312 "/><path style=" stroke:none;fill-rule:nonzero;fill:#ff6d4d;fill-opacity:1;" d="M 672.339844 776.210938 C 672.542969 776.207031 672.75 776.214844 672.957031 776.214844 C 672.304688 767.925781 671.664062 761.179688 671.253906 757.058594 C 670.867188 757.046875 670.484375 757.027344 670.101562 757.019531 C 666.246094 756.921875 662.289062 756.773438 658.410156 757.105469 C 658.785156 760.832031 659.449219 767.769531 660.136719 776.503906 C 664.207031 776.421875 668.269531 776.222656 672.339844 776.210938 "/><path style=" stroke:none;fill-rule:nonzero;fill:#ff6d4d;fill-opacity:1;" d="M 674.519531 800.039062 C 674.195312 793.820312 673.8125 787.828125 673.414062 782.328125 L 660.578125 782.328125 C 660.976562 787.808594 661.367188 793.808594 661.699219 800.039062 L 674.519531 800.039062 "/><path style=" stroke:none;fill-rule:nonzero;fill:#ff6d4d;fill-opacity:1;" d="M 674.882812 808.074219 C 674.835938 806.972656 674.796875 805.875 674.746094 804.785156 L 661.929688 804.785156 C 661.980469 805.875 662.023438 806.972656 662.070312 808.074219 L 674.882812 808.074219 "/><path style=" stroke:none;fill-rule:nonzero;fill:#ff6d4d;fill-opacity:1;" d="M 662.164062 810.183594 C 662.402344 816.289062 662.566406 822.46875 662.605469 828.511719 L 675.394531 828.511719 C 675.359375 822.445312 675.203125 816.273438 674.96875 810.183594 L 662.164062 810.183594 "/><path style=" stroke:none;fill-rule:nonzero;fill:#ff6d4d;fill-opacity:1;" d="M 662.597656 833.160156 C 662.566406 838.640625 662.433594 843.945312 662.144531 848.898438 L 674.941406 848.898438 C 675.21875 843.894531 675.351562 838.597656 675.382812 833.160156 L 662.597656 833.160156 "/><path style=" stroke:none;fill-rule:nonzero;fill:#ff6d4d;fill-opacity:1;" d="M 688.4375 754.730469 C 686.816406 756.859375 685.148438 758.941406 683.429688 760.972656 C 681.734375 763.027344 679.964844 765.007812 678.21875 767.011719 L 678.246094 764.789062 C 679.441406 765.855469 680.589844 766.96875 681.765625 768.050781 C 682.933594 769.148438 684.117188 770.226562 685.25 771.351562 C 687.53125 773.59375 689.863281 775.78125 692.078125 778.085938 C 692.96875 779.007812 692.941406 780.476562 692.019531 781.367188 L 692.015625 781.371094 L 692 781.378906 C 689.996094 783.3125 688.019531 785.273438 685.988281 787.171875 C 683.964844 789.082031 681.914062 790.96875 679.855469 792.839844 L 679.738281 789.421875 L 683.132812 792.414062 C 684.261719 793.414062 685.410156 794.390625 686.515625 795.417969 C 688.730469 797.46875 690.980469 799.480469 693.144531 801.59375 L 693.300781 801.746094 C 693.835938 802.269531 693.847656 803.128906 693.324219 803.664062 C 693.199219 803.789062 693.054688 803.886719 692.910156 803.953125 C 690.816406 804.894531 688.699219 805.785156 686.570312 806.664062 C 684.441406 807.535156 682.296875 808.378906 680.117188 809.152344 C 681.976562 807.777344 683.875 806.46875 685.785156 805.1875 C 687.699219 803.910156 689.617188 802.648438 691.566406 801.4375 L 691.332031 803.796875 C 688.84375 802.070312 686.441406 800.246094 684.007812 798.457031 C 682.785156 797.566406 681.609375 796.625 680.410156 795.710938 L 676.832031 792.941406 C 675.859375 792.199219 675.679688 790.800781 676.429688 789.832031 L 676.617188 789.617188 L 676.714844 789.523438 C 678.691406 787.566406 680.683594 785.625 682.703125 783.707031 C 684.710938 781.78125 686.773438 779.910156 688.808594 778.011719 L 688.730469 781.308594 C 686.515625 779.003906 684.417969 776.589844 682.265625 774.230469 C 681.183594 773.050781 680.148438 771.828125 679.101562 770.621094 C 678.058594 769.40625 676.996094 768.214844 675.972656 766.976562 L 675.824219 766.796875 C 675.3125 766.183594 675.394531 765.273438 676 764.757812 C 678.027344 763.042969 680.039062 761.304688 682.117188 759.640625 C 684.171875 757.949219 686.28125 756.3125 688.4375 754.730469 "/><path style=" stroke:none;fill-rule:nonzero;fill:#ff6d4d;fill-opacity:1;" d="M 687.28125 831.007812 C 686.078125 832.695312 684.738281 834.1875 683.339844 835.597656 C 681.9375 837.003906 680.472656 838.316406 678.964844 839.5625 L 679.03125 836.019531 C 682.136719 838.046875 685.066406 840.3125 687.828125 842.792969 C 689.203125 844.039062 690.527344 845.351562 691.796875 846.738281 C 693.054688 848.140625 694.269531 849.601562 695.332031 851.25 C 693.460938 850.65625 691.738281 849.867188 690.054688 849.019531 C 688.378906 848.160156 686.765625 847.226562 685.203125 846.226562 C 682.085938 844.210938 679.136719 841.976562 676.359375 839.511719 L 676.117188 839.296875 C 675.257812 838.539062 675.179688 837.226562 675.941406 836.371094 C 676.082031 836.210938 676.253906 836.074219 676.425781 835.964844 C 678.109375 834.960938 679.839844 834.023438 681.632812 833.175781 C 683.429688 832.332031 685.285156 831.570312 687.28125 831.007812 "/><path style=" stroke:none;fill-rule:nonzero;fill:#ff6d4d;fill-opacity:1;" d="M 699.445312 832.832031 L 699.335938 832.839844 C 699.5625 837.355469 699.789062 842.691406 700.007812 848.6875 L 704.800781 848.6875 C 704.585938 842.699219 704.363281 837.371094 704.132812 832.832031 L 699.445312 832.832031 "/><path style=" stroke:none;fill-rule:nonzero;fill:#ff6d4d;fill-opacity:1;" d="M 572.367188 830.558594 L 572.480469 830.578125 C 571.914062 835.0625 571.289062 840.367188 570.632812 846.332031 L 565.847656 845.972656 C 566.507812 840.019531 567.128906 834.722656 567.695312 830.210938 L 572.367188 830.558594 "/><path style=" stroke:none;fill-rule:nonzero;fill:#ff6d4d;fill-opacity:1;" d="M 702.21875 804.785156 L 697.617188 804.785156 L 697.417969 804.800781 C 697.453125 805.21875 697.488281 805.914062 697.523438 806.601562 C 697.554688 807.136719 697.578125 807.675781 697.609375 808.09375 L 702.308594 808.09375 L 702.410156 808.085938 C 702.375 807.675781 702.34375 807.019531 702.308594 806.355469 C 702.28125 805.78125 702.25 805.226562 702.21875 804.785156 "/><path style=" stroke:none;fill-rule:nonzero;fill:#ff6d4d;fill-opacity:1;" d="M 695.609375 782.328125 L 695.605469 782.328125 C 696.136719 787.679688 696.714844 793.929688 696.9375 800.414062 L 701.445312 800.414062 L 701.734375 800.402344 C 701.519531 793.90625 700.949219 787.695312 700.417969 782.328125 L 695.609375 782.328125 "/><path style=" stroke:none;fill-rule:nonzero;fill:#ff6d4d;fill-opacity:1;" d="M 692.101562 758.023438 C 692.132812 758.222656 693.296875 765.648438 694.484375 775.816406 L 699.308594 775.816406 C 698.300781 767.066406 697.285156 760.230469 696.949219 758.023438 L 692.101562 758.023438 "/><path style=" stroke:none;fill-rule:nonzero;fill:#ff6d4d;fill-opacity:1;" d="M 571.785156 804.972656 L 576.050781 804.972656 L 576.234375 804.992188 C 576.203125 805.378906 576.171875 806.019531 576.136719 806.660156 C 576.109375 807.15625 576.085938 807.652344 576.058594 808.042969 L 571.703125 808.042969 L 571.609375 808.035156 C 571.640625 807.65625 571.671875 807.046875 571.703125 806.433594 C 571.730469 805.898438 571.757812 805.382812 571.785156 804.972656 "/><path style=" stroke:none;fill-rule:nonzero;fill:#ff6d4d;fill-opacity:1;" d="M 577.910156 784.171875 L 577.914062 784.171875 C 577.421875 789.128906 576.882812 794.917969 576.679688 800.925781 L 572.503906 800.925781 L 572.238281 800.917969 C 572.433594 794.898438 572.960938 789.140625 573.453125 784.171875 L 577.910156 784.171875 "/><path style=" stroke:none;fill-rule:nonzero;fill:#ff6d4d;fill-opacity:1;" d="M 581.160156 761.65625 C 581.132812 761.839844 580.050781 768.714844 578.953125 778.140625 L 574.480469 778.140625 C 575.421875 770.03125 576.355469 763.699219 576.667969 761.65625 L 581.160156 761.65625 "/><path style=" stroke:none;fill-rule:nonzero;fill:#ff6d4d;fill-opacity:1;" d="M 730.859375 831.007812 L 730.746094 831.011719 C 730.980469 835.53125 731.203125 840.867188 731.417969 846.863281 L 736.210938 846.863281 C 736 840.875 735.777344 835.546875 735.542969 831.007812 L 730.859375 831.007812 "/><path style=" stroke:none;fill-rule:nonzero;fill:#ff6d4d;fill-opacity:1;" d="M 735.785156 804.785156 L 731.179688 804.785156 L 730.984375 804.800781 C 731.019531 805.21875 731.054688 805.914062 731.089844 806.601562 C 731.121094 807.136719 731.144531 807.675781 731.171875 808.09375 L 735.878906 808.09375 L 735.976562 808.085938 C 735.945312 807.675781 735.910156 807.019531 735.878906 806.355469 C 735.847656 805.78125 735.816406 805.226562 735.785156 804.785156 "/><path style=" stroke:none;fill-rule:nonzero;fill:#ff6d4d;fill-opacity:1;" d="M 729.175781 782.328125 L 729.171875 782.328125 C 729.703125 787.679688 730.285156 793.929688 730.503906 800.414062 L 735.011719 800.414062 L 735.300781 800.402344 C 735.085938 793.90625 734.515625 787.695312 733.988281 782.328125 L 729.175781 782.328125 "/><path style=" stroke:none;fill-rule:nonzero;fill:#ff6d4d;fill-opacity:1;" d="M 725.667969 759.625 C 725.699219 759.820312 726.863281 767.242188 728.050781 777.417969 L 732.878906 777.417969 C 731.863281 768.664062 730.851562 761.824219 730.515625 759.625 L 725.667969 759.625 "/><path style=" stroke:none;fill-rule:nonzero;fill:#ff6d4d;fill-opacity:1;" d="M 564.597656 813.398438 L 564.597656 827.917969 L 556.980469 820.304688 Z M 564.597656 813.398438 "/><path style=" stroke:none;fill-rule:nonzero;fill:#ff6d4d;fill-opacity:1;" d="M 584.003906 813.398438 L 584.003906 827.917969 L 576.382812 820.304688 Z M 584.003906 813.398438 "/><path style=" stroke:none;fill-rule:nonzero;fill:#ff6d4d;fill-opacity:1;" d="M 603.070312 828.992188 L 585.910156 828.992188 L 594.910156 819.988281 Z M 603.070312 828.992188 "/><path style=" stroke:none;fill-rule:nonzero;fill:#ff6d4d;fill-opacity:1;" d="M 586.792969 810.984375 L 603.953125 810.984375 L 594.957031 819.988281 Z M 586.792969 810.984375 "/><path style=" stroke:none;fill-rule:nonzero;fill:#ff6d4d;fill-opacity:1;" d="M 632.320312 828.992188 L 615.15625 828.992188 L 624.15625 819.988281 Z M 632.320312 828.992188 "/><path style=" stroke:none;fill-rule:nonzero;fill:#ff6d4d;fill-opacity:1;" d="M 616.039062 810.984375 L 633.199219 810.984375 L 624.203125 819.988281 Z M 616.039062 810.984375 "/><path style=" stroke:none;fill-rule:nonzero;fill:#ff6d4d;fill-opacity:1;" d="M 581.660156 828.214844 L 565.242188 828.214844 L 573.847656 819.597656 Z M 581.660156 828.214844 "/><path style=" stroke:none;fill-rule:nonzero;fill:#ff6d4d;fill-opacity:1;" d="M 566.085938 810.984375 L 582.503906 810.984375 L 573.894531 819.597656 Z M 566.085938 810.984375 "/><path style=" stroke:none;fill-rule:nonzero;fill:#ff6d4d;fill-opacity:1;" d="M 716.503906 828.992188 L 699.34375 828.992188 L 708.339844 819.988281 Z M 716.503906 828.992188 "/><path style=" stroke:none;fill-rule:nonzero;fill:#ff6d4d;fill-opacity:1;" d="M 700.222656 810.984375 L 717.386719 810.984375 L 708.390625 819.988281 Z M 700.222656 810.984375 "/><path style=" stroke:none;fill-rule:nonzero;fill:#ff6d4d;fill-opacity:1;" d="M 638.96875 828.511719 L 638.96875 813.992188 L 646.589844 821.605469 Z M 638.96875 828.511719 "/><path style=" stroke:none;fill-rule:nonzero;fill:#ff6d4d;fill-opacity:1;" d="M 718.886719 828.511719 L 718.886719 813.992188 L 726.503906 821.605469 Z M 718.886719 828.511719 "/><path style=" stroke:none;fill-rule:nonzero;fill:#ff6d4d;fill-opacity:1;" d="M 662.144531 813.992188 L 662.144531 828.511719 L 654.527344 820.898438 Z M 662.144531 813.992188 "/><path style=" stroke:none;fill-rule:nonzero;fill:#ff6d4d;fill-opacity:1;" d="M 739.109375 813.992188 L 739.109375 828.511719 L 731.492188 820.898438 Z M 739.109375 813.992188 "/><path style=" stroke:none;fill-rule:nonzero;fill:#ff6d4d;fill-opacity:1;" d="M 604.449219 820.421875 L 609.195312 825.164062 L 613.941406 820.421875 L 609.195312 815.679688 Z M 609.195312 829.019531 C 608.789062 829.019531 608.378906 828.867188 608.066406 828.554688 L 601.0625 821.550781 C 600.441406 820.925781 600.441406 819.914062 601.0625 819.292969 L 608.066406 812.289062 C 608.691406 811.667969 609.703125 811.667969 610.324219 812.289062 L 617.328125 819.292969 C 617.953125 819.914062 617.953125 820.925781 617.328125 821.550781 L 610.324219 828.554688 C 610.011719 828.867188 609.605469 829.019531 609.195312 829.019531 "/><path style=" stroke:none;fill-rule:nonzero;fill:#ff6d4d;fill-opacity:1;" d="M 685.769531 820.421875 L 690.515625 825.164062 L 695.261719 820.421875 L 690.515625 815.679688 Z M 690.515625 829.019531 C 690.105469 829.019531 689.699219 828.867188 689.386719 828.554688 L 682.382812 821.550781 C 681.757812 820.925781 681.757812 819.914062 682.382812 819.292969 L 689.386719 812.289062 C 690.007812 811.667969 691.019531 811.667969 691.644531 812.289062 L 698.644531 819.292969 C 699.273438 819.914062 699.273438 820.925781 698.644531 821.550781 L 691.644531 828.554688 C 691.332031 828.867188 690.921875 829.019531 690.515625 829.019531 "/><path style=" stroke:none;fill-rule:nonzero;fill:#ff6d4d;fill-opacity:1;" d="M 525.4375 891.445312 C 521.027344 888.929688 517.015625 885.703125 512.835938 882.820312 C 511.199219 882.484375 509.570312 882.128906 507.945312 881.71875 C 494.253906 878.433594 480.917969 873.363281 468.898438 866.082031 C 465.898438 864.261719 463.058594 862.210938 460.347656 860.042969 C 457.652344 857.871094 455.117188 855.445312 453.246094 852.726562 C 452.332031 851.378906 451.519531 849.957031 451.375 848.539062 C 451.136719 846.9375 451.324219 845.445312 452.148438 844.371094 C 453.050781 843.332031 454.753906 842.835938 456.480469 842.757812 C 458.226562 842.648438 460.035156 842.898438 461.816406 843.285156 C 460.179688 842.464844 458.417969 841.859375 456.539062 841.558594 C 454.695312 841.320312 452.519531 841.351562 450.648438 842.761719 C 448.828125 844.273438 448.304688 846.703125 448.296875 848.671875 C 448.21875 850.910156 449.03125 852.902344 449.871094 854.683594 C 450.761719 856.472656 451.871094 858.074219 453.050781 859.582031 C 454.226562 861.109375 455.5 862.53125 456.828125 863.882812 C 459.476562 866.605469 462.410156 868.980469 465.421875 871.226562 C 477.550781 880.113281 491.601562 885.980469 506.089844 889.484375 C 509.714844 890.363281 513.386719 891.039062 517.066406 891.621094 C 520.773438 892.175781 524.394531 892.507812 528.054688 892.90625 C 527.183594 892.421875 526.308594 891.9375 525.4375 891.445312 "/><path style=" stroke:none;fill-rule:nonzero;fill:#ff6d4d;fill-opacity:1;" d="M 453.671875 837.035156 C 446.679688 834.972656 439.527344 833.078125 432.332031 832.804688 C 430.550781 832.753906 428.761719 832.808594 427.085938 833.167969 C 425.425781 833.515625 423.863281 834.242188 423.09375 835.449219 C 422.210938 836.839844 421.667969 838.398438 421.707031 840 C 421.707031 841.601562 422.222656 843.214844 422.964844 844.738281 C 424.503906 847.792969 426.878906 850.503906 429.363281 853.066406 C 431.875 855.621094 434.597656 858.011719 437.382812 860.335938 C 438.78125 861.519531 440.175781 862.59375 441.59375 863.667969 C 443.070312 864.691406 444.523438 865.742188 446.0625 866.6875 C 447.570312 867.679688 449.117188 868.617188 450.683594 869.527344 C 452.230469 870.46875 453.824219 871.332031 455.410156 872.207031 C 468.109375 879.230469 481.519531 884.988281 495.226562 889.855469 C 502.113281 892.191406 509.046875 894.449219 516.117188 896.230469 C 523.140625 898.226562 530.316406 899.570312 537.5 900.988281 C 522.921875 899.644531 508.457031 896.644531 494.4375 892.222656 C 487.421875 890.03125 480.539062 887.425781 473.738281 884.625 C 466.980469 881.71875 460.332031 878.539062 453.867188 875 C 452.257812 874.097656 450.644531 873.207031 449.074219 872.238281 C 447.484375 871.296875 445.910156 870.328125 444.367188 869.300781 C 442.800781 868.324219 441.296875 867.21875 439.773438 866.148438 C 438.28125 865.011719 436.789062 863.84375 435.429688 862.625 C 432.652344 860.207031 429.917969 857.710938 427.355469 855 C 424.808594 852.28125 422.367188 849.351562 420.71875 845.800781 C 419.925781 844.019531 419.34375 842.042969 419.40625 839.972656 C 419.429688 837.898438 420.207031 835.882812 421.375 834.257812 C 422.742188 832.40625 424.867188 831.6875 426.742188 831.371094 C 428.671875 831.058594 430.566406 831.085938 432.429688 831.242188 C 436.148438 831.597656 439.746094 832.441406 443.285156 833.433594 C 446.820312 834.429688 450.289062 835.632812 453.671875 837.035156 "/><path style=" stroke:none;fill-rule:nonzero;fill:#ff6d4d;fill-opacity:1;" d="M 484.554688 861.464844 C 483.453125 857.714844 483.605469 853.605469 484.972656 849.945312 C 481.121094 849.992188 477.289062 851.1875 474.089844 853.332031 C 472.484375 848.570312 471.628906 843.554688 471.578125 838.527344 C 467.304688 838.179688 463.164062 838.699219 459.433594 840.8125 C 458.195312 837.253906 458.601562 833.160156 460.515625 829.914062 C 456.445312 830.597656 452.496094 832.003906 448.914062 834.050781 C 446.902344 830.84375 446.601562 826.625 448.144531 823.167969 C 444.269531 823.875 440.578125 825.53125 437.472656 827.949219 C 435.464844 825.265625 434.8125 821.625 435.757812 818.410156 C 433.371094 819.128906 431.523438 820.15625 430.550781 822.453125 C 429.734375 819.527344 429.582031 817.167969 430.453125 814.257812 C 427.984375 814.957031 425.644531 816.097656 423.574219 817.613281 C 422.652344 815.226562 422.546875 812.523438 423.277344 810.070312 C 420.664062 810.800781 418.300781 812.414062 416.671875 814.589844 C 415.730469 812.0625 415.546875 809.257812 416.148438 806.628906 C 412.390625 808.769531 409.320312 812.085938 407.476562 816 C 407.476562 816 415.507812 814.453125 426.339844 820.421875 C 437.167969 826.390625 484.554688 861.464844 484.554688 861.464844 "/><path style=" stroke:none;fill-rule:nonzero;fill:#ff6d4d;fill-opacity:1;" d="M 489.800781 864.21875 C 493.152344 863.484375 496.5 862.75 499.851562 862.011719 C 500.039062 866.632812 500.855469 871.230469 502.269531 875.632812 L 489.800781 864.21875 "/><path style=" stroke:none;fill-rule:nonzero;fill:#ff6d4d;fill-opacity:1;" d="M 504.070312 875.535156 C 507.855469 874.925781 511.6875 874.605469 515.519531 874.574219 C 515.722656 878.289062 516.632812 881.960938 518.191406 885.335938 L 504.070312 875.535156 "/><path style=" stroke:none;fill-rule:nonzero;fill:#ff6d4d;fill-opacity:1;" d="M 522.230469 889.339844 C 525.855469 889.074219 529.476562 888.808594 533.101562 888.546875 C 532.976562 892.640625 532.964844 894.691406 534.332031 898.550781 L 522.230469 889.339844 "/><path style=" stroke:none;fill-rule:nonzero;fill:#ff6d4d;fill-opacity:1;" d="M 394.71875 806.628906 C 398.917969 801.824219 405.375 799.296875 411.789062 798.605469 C 418.273438 797.894531 424.84375 798.992188 431.027344 800.882812 C 437.289062 802.816406 443.019531 805.894531 448.582031 808.976562 C 454.15625 812.089844 459.492188 815.546875 464.804688 819.011719 C 475.4375 825.9375 485.621094 833.460938 495.78125 840.988281 C 505.863281 848.617188 515.785156 856.441406 525.617188 864.375 C 530.5 868.390625 535.351562 872.414062 540.195312 876.515625 C 545.070312 880.804688 549.667969 884.949219 554.332031 889.199219 C 563.625 897.636719 573.140625 905.808594 582.746094 913.878906 C 602.058594 929.886719 622.066406 945.066406 643.5 958.421875 C 620.484375 947.933594 599.128906 933.933594 578.914062 918.707031 C 568.761719 911.128906 559.015625 903.027344 549.375 894.832031 C 544.558594 890.773438 539.835938 886.429688 535.183594 882.46875 C 530.371094 878.472656 525.480469 874.5 520.589844 870.558594 C 510.863281 862.597656 501.050781 854.730469 491.164062 846.984375 C 481.339844 839.152344 471.332031 831.566406 461.265625 824.109375 C 456.21875 820.402344 451.082031 816.835938 445.886719 813.394531 C 440.667969 809.992188 435.414062 806.726562 429.753906 804.488281 C 424.082031 802.1875 418.042969 800.734375 411.917969 800.757812 C 408.859375 800.757812 405.792969 801.234375 402.851562 802.164062 C 399.921875 803.101562 397.039062 804.488281 394.71875 806.628906 "/></g></svg>